<VTKFile type="UnstructuredGrid" version="0.1" byte_order="BigEndian"><UnstructuredGrid><Piece NumberOfPoints="1316" NumberOfCells="1315"><Points><DataArray type="Float32" NumberOfComponents="3" Format="ascii">3e-05 1.13 0.0
0.0003122758531203376 1.1281333470561883 -0.18744313406179888
0.0011635565630606338 1.1262924988182337 -0.374984108446191
0.0018609998780471392 1.1246055913362742 -0.5624942158093756
-0.04187191700498641 1.1215088619808682 -0.7553923766975275
-0.01912632564098881 1.1215689360939032 -0.9400813547757965
0.003372870934500033 1.1158000243816986 -1.1246105112513904
0.0032439555359293575 1.1109448141043445 -1.311976678111957
0.13129730356658206 1.0996362794518324 -1.4647205818448659
0.2640651247855696 1.0892709740209803 -1.618524684020082
-0.12511520949037286 1.1049359291532623 -1.4646584430247878
-0.3286563960398704 1.0875644222676404 -1.6305240841406246
0.32799598103588873 1.0831720575636288 -1.7210035492761895
0.3892240372712618 1.0736073095996355 -1.8228327868365426
0.4519102049732143 1.060255728855072 -1.9237720895687165
0.5147216997453705 1.0467833844185508 -2.0247610725789795
0.3546051614541956 1.0821312257019229 -1.697775813003848
0.45921283342477387 1.067311664811145 -1.749045121310664
0.5748235595491311 1.0470403675451196 -1.771345862988524
0.6907415498023975 1.0239607292599457 -1.7777906966503485
-0.31804548764052165 1.0876634333426742 -1.692566419281077
-0.3030646227987253 1.0854372919037316 -1.7741439110264596
-0.28628839714959564 1.0822959741186955 -1.8696660304338661
-0.321628861398843 1.0720739166081605 -1.9832892822015533
-0.3127919867206593 1.0872559112776778 -1.7188098653145352
-0.2952431976671296 1.0839725120462427 -1.8186826503140403
-0.2768950382696743 1.0805391789224719 -1.9231117035647756
-0.2994085568080114 1.0716385201874232 -2.040157166231213
0.5614837491832868 1.035015063879892 -2.135012763953326
0.6077679462853454 1.0233198530024898 -2.2451271091614546
0.6532003791851293 1.009481673194065 -2.3550038708358794
0.6977292413812455 0.9913858562136945 -2.4646976322691154
0.5915183562391796 1.0317325771144228 -2.11610171901354
0.6878356035345937 1.009679200669029 -2.1827468726173493
0.7955095102741406 0.9772257275406271 -2.2216093229253486
0.945285809459065 0.9303193178572291 -2.2484084934821364
0.893862765568723 0.976502065055911 -1.7535517158596365
1.004657987407104 0.9377071246437263 -1.755580421469998
1.116136416567169 0.8988614377602703 -1.7551732141869214
1.2237202757772574 0.8506644980510296 -1.7530107970675686
0.8834438180005256 0.9811368890829438 -1.7209140442134037
0.8755031444403876 0.9846135355107685 -1.6978723473117754
-0.3241747809527518 1.0632458204499509 -2.1570424861717297
-0.3485397638384851 1.056149648661502 -2.2741075336556036
-0.37641114707455514 1.048628490684065 -2.3918321770672395
-0.40363846737398545 1.0409039292322555 -2.509057887871435
-0.2890271517586178 1.067169553541943 -2.1595601767509875
-0.24715059722752772 1.0676027379586492 -2.2717749650313417
-0.14546114384743408 1.0619788524535998 -2.558794079433098
-0.07873139117507205 1.0643417328783953 -2.547195732891672
0.7260558739497264 0.9767078503358445 -2.580182344456478
0.7546212905570185 0.9619772091091934 -2.6956143971101025
0.7838228425329397 0.9485730575189649 -2.811219004285918
0.8105264834806765 0.9357850868185916 -2.9286518189898034
0.7581274172306423 0.9701267233431167 -2.5660597997078956
0.8430730682307803 0.9445177996363392 -2.6466911904226222
0.9427223849206998 0.9108435513025036 -2.7023642787508666
1.0455032749112743 0.8653097809570384 -2.7401748994248303
1.0739764622503645 0.8927502508808141 -2.240768902805842
1.1728685440702458 0.8511264772250939 -2.231828966350926
1.0704862633136651 0.8906273443084757 -2.2762186525092485
1.1569014977846133 0.8518951801193752 -2.3339302084696265
1.2035875243195662 0.822630535323273 -2.4160162209860467
1.2259882570079415 0.8065764846122353 -2.5099728095840868
1.4543702135424275 0.7298969570962236 -1.7845856108919746
1.4586348328139807 0.7291587023297594 -1.7500213278651955
-0.44653790776122276 1.0307194713094425 -2.620693701618152
-0.48841581448816385 1.0193892172116377 -2.732211428663477
-0.5294883319984204 1.0038726570361418 -2.8436692675802564
-0.5699733104605599 0.9884771925362997 -2.955230860016636
-0.4125007699714276 1.033203984364959 -2.6284934351022167
-0.38903219777116277 1.028060151069932 -2.7458347031826027
-0.3356604875822033 1.026127765058539 -2.8532520482452837
-0.26643654599480576 1.0260312519991963 -2.95125649179354
-0.01167845616950412 1.0643289649372594 -2.535393118682205
0.0880568208044029 1.0603945329470466 -2.6011669061537877
0.19119952935573267 1.049578101698415 -2.6600965582164906
0.29639727405556926 1.0373042325205541 -2.7158755034697384
0.013915282083873664 1.0643240911045622 -2.530888133519926
0.12637873662309085 1.061476794469517 -2.571233321784755
0.24435111023830544 1.0516415813220676 -2.58622270097327
0.36183330183322987 1.0400641023651165 -2.5742476219210544
0.8207949701987892 0.9266342763152 -3.048633717200542
0.8316984375099314 0.9173788257363366 -3.167882892113719
0.8426007784990642 0.9041016298442756 -3.2862650794947745
0.8528577689645859 0.890368666739473 -3.404974230523476
0.851716484408482 0.9199499803855503 -3.039443007900328
0.9148622434754832 0.886217549605432 -3.133092385560832
0.9937926645261794 0.8494168014495744 -3.206321527410974
1.0935643745360049 0.8056176132636907 -3.2602202645033587
1.1563623269735408 0.8192155395405188 -2.7454550094360926
1.2662891275287835 0.773733409221976 -2.7504435124400555
1.365900320063381 0.7131725824064717 -2.7573136499002753
1.4736742743881435 0.6327721914688218 -2.793017444008607
1.1489112580599303 0.8193144280276755 -2.7803980541759494
1.2360126809503318 0.7776221746161212 -2.8493026455406687
1.30156646195955 0.7394718581155353 -2.939808272705901
1.3470719446339885 0.6981906163882585 -3.040885810378337
1.2956685058185269 0.7642351082264442 -2.596234057234018
1.2699502772603875 0.7779481260408652 -2.616318065016976
-0.6256497677799211 0.9705413809191309 -3.059214143317332
-0.6825739169398292 0.9524033341632806 -3.163247178038783
-0.7375900855622807 0.9305125129790777 -3.266777184950375
-0.7898822966214899 0.9028049264606754 -3.3704809443608363
-0.5933024783231872 0.976791419029589 -3.072182341979795
-0.5848777105987083 0.9718716203088309 -3.1918998259487643
-0.5477284165020454 0.9687894358183677 -3.3057655111772677
-0.4939946208846492 0.9661224961052317 -3.412996901525252
-0.1732302947506853 1.0296258421336872 -3.026192599732233
-0.0790038496952287 1.032596552342072 -3.1008778870050424
0.011009890669173433 1.024231586978204 -3.1749113962925506
0.18207151431320115 1.006428096669581 -3.3489068645355617
-0.1994990936617368 1.0261735063481123 -3.050346394076673
-0.16135991419807175 1.0231681589223 -3.164089874847885
-0.15274922743987251 1.017432275269964 -3.2836362749809815
-0.16493056658627742 1.009714028571312 -3.402760217449934
0.40918333027169085 1.025929087037768 -2.7536478209110182
0.5208799543645852 1.0104527736984583 -2.791158409137731
0.6307391516867449 0.9828336063032811 -2.8282004086079806
0.3928868315922475 1.0245603497259443 -2.7853869210258804
0.4666883137747657 1.0138513927239097 -2.8786813513708958
0.5134896087632427 0.9957450476915124 -2.98693948021073
0.524337244519434 0.9854867841552835 -3.0767758502742533
0.4779389598377061 1.0265565412977784 -2.5532963007684275
0.5927763900182724 1.0114666359689977 -2.5319239525945636
0.4663998324071832 1.029252622690995 -2.519885670036808
0.5519536400479751 1.02182347992032 -2.4382655800716915
0.846193430329651 0.8812363707690006 -3.524274003773688
0.8402525926877635 0.8724832840510445 -3.6436981358243825
0.8337913528472621 0.8641433384962048 -3.763747832322153
0.8271711298725876 0.8558142723746222 -3.8834079813141766
0.8800978909857734 0.8722611123803766 -3.5204482132937867
0.9351559695674792 0.8448427786627292 -3.623101748102664
1.1846992528599631 0.7271166882102247 -3.7492978351807813
1.1732256210502623 0.7272879605245717 -3.7918759449371087
1.1911822696311365 0.762513541453295 -3.316516727480711
1.2791375122960806 0.7090170173306417 -3.371326226326016
1.355353157960864 0.6516776969452349 -3.425098865406615
1.5049677627077485 0.5345409370902727 -3.510567532816719
1.2029973818112787 0.7601465603834507 -3.282795018429346
1.3032047249256857 0.7035534057896037 -3.270823090035065
1.3967210022827357 0.6449323637994784 -3.2288086422973943
1.488396758072057 0.5873781828576666 -3.1878933581860025
1.5609988113110065 0.5664142812302512 -2.854308695031474
1.615630141332037 0.4982220434244408 -2.9090561165260107
1.6800850799539926 0.40948553782879826 -2.9676971848117897
1.752319648080212 0.31803853073427557 -3.0027243577362754
1.572493687619671 0.5608664889114715 -2.821499962342666
1.639654848803807 0.4853516678802206 -2.810415279084563
1.7155495028894157 0.3966972033867318 -2.771803621850482
1.7856768137107621 0.3148662694429176 -2.718078286019762
-0.8561077466519335 0.8758459071479928 -3.4646067182279703
-1.0215479002842809 0.8160909193033022 -3.5774949211710037
-1.0084842089345338 0.8156491115055321 -3.651671040746054
-0.8266215536139567 0.8841465504272029 -3.482316922879515
-1.0100237393233957 0.8161951675542218 -3.6349753341386504
-0.9900297093514313 0.8147623531910465 -3.7455798922538976
-0.966476442920064 0.8100094362101787 -3.858437618207971
-0.41373885842139013 0.9714265417983932 -3.501690544384461
-0.3331315159093583 0.9767760049426891 -3.59038916839704
-0.25254534795041056 0.9821206552620181 -3.6791234157259844
-0.19337680859744408 0.9740386458948752 -3.7824514404864784
-0.44308952361789694 0.9664641864529171 -3.5215200965435858
-0.42265220279354515 0.9622914036172013 -3.639616950547849
-0.4316520219261766 0.9510059989693379 -3.7586311124293283
-0.45667359950696385 0.93716048749991 -3.875092806743343
0.18904102145928436 1.0065847603603575 -3.3439731872609633
0.21457102029623346 1.0072803899350316 -3.3240592973695593
0.26233938398223533 1.0085830748066085 -3.2867821983217653
0.32524530271963764 1.0091690601774237 -3.236196361103625
0.21194819858138664 1.0072076635473202 -3.3261242185986535
0.23291696571193715 1.0077763461437574 -3.3098084755101724
0.27573714029675206 1.0089437157018233 -3.276398459693856
0.3334066690404979 1.008216063376517 -3.229465585861294
-0.1738333217192782 0.9994494394148536 -3.5219650299851186
-0.2085436979927718 0.9974003141146925 -3.5138235542624523
0.46464751618770345 0.992532134968604 -3.125174051092731
0.4883809450523364 0.9896972099743254 -3.106299415705775
0.47861878166054406 0.9908591862135581 -3.1141080829380603
0.49447679598205285 0.9889718904508793 -3.1014205335631004
0.5837535368179899 0.9648804805230359 -3.1779359187941325
0.8367566493157739 0.839566871351371 -4.001699412956911
0.8498212246060123 0.8192909664486426 -4.118113198038713
0.8648844334460352 0.800798202357787 -4.235717377348546
0.8816137481473086 0.7842343417899209 -4.35340088401919
0.802665570484838 0.8504757836933791 -4.000651149189755
0.744535153924423 0.8540252526887981 -4.107354684474385
0.6669377118721833 0.8685409737722005 -4.198370191596364
0.5810901761404506 0.8762009780002888 -4.279202253198177
1.1619244355225367 0.7268069334005094 -3.8381080498026505
1.1444881446943456 0.7262315760795919 -3.908335905628246
1.1915122050928555 0.6831481436707805 -4.01392457868454
1.2297185455114272 0.6449879223458973 -4.122718946855014
1.1702624313464383 0.7270456812435155 -3.804765718557814
1.1596333644804937 0.7266939716284598 -3.847582676086277
1.1435442570980283 0.7261675772823655 -3.9123547042538185
1.205301374820934 0.676254783681755 -4.006950433697853
1.5108644658049528 0.5315033718000756 -3.486518332883236
1.5264800363939608 0.5217203100357194 -3.4337056035185642
1.5999286090129767 0.4436630359147265 -3.385657061629583
1.670050833414377 0.3709082063972174 -3.328733203185654
1.5014732553635843 0.5373386800948361 -3.5185815037521193
1.4915513259539581 0.543534478665398 -3.552264525168115
1.570013215577703 0.5101739464398776 -3.188134138565268
1.644419072509906 0.42208864701180154 -3.1872285982846216
1.710587999294279 0.3477564981915951 -3.1506590231944505
1.7535081333669285 0.2627491960680561 -3.145016514682825
1.5692989480402417 0.5165787267586539 -3.1532990717144176
1.633243184179778 0.44911785941651244 -3.0880887170439824
1.77867296163787 0.22377099367391348 -3.029619101214295
1.8090136333884397 0.10241822087551682 -3.0587892606655624
1.8305888407257465 0.018417212414687266 -3.0682241494922287
1.8313271781582847 -0.05089671439779721 -3.0639860016674776
1.7833789531633644 0.22231218397882202 -2.9948424460085783
1.8045311331163891 0.1620707412288813 -2.954997238057895
1.8344371714651628 0.06940202447238533 -2.901631728903784
1.8579758091255394 0.008276710457689705 -2.8296356637003894
1.8120854983616534 0.2545018802164644 -2.6301338138782318
1.8374937654128685 0.1928195278158864 -2.5373255704999575
1.862119101056829 0.13163484772608716 -2.4428715636179454
1.8871999594372704 0.06634003039030979 -2.3471870773505366
1.8146064642303612 0.23609866112349856 -2.656132777690583
1.8492281969870625 0.11969867837093404 -2.6223969028724468
1.8714415426675632 0.03875664146018215 -2.618693962066805
1.8776257751259435 -0.024845365757126665 -2.6299878217942747
-0.9820188869778175 0.7925745648864336 -3.975920123370959
-0.9973307764642128 0.7747667255255704 -4.093450300562508
-1.0112706307780015 0.7543624427695574 -4.210782549709864
-1.0248239180226493 0.7335544027895602 -4.328097664943611
-0.9484921814255636 0.8029382170180215 -3.976730008270144
-0.901559235467321 0.8058113975549119 -4.086428801732183
-0.8318103124310672 0.8179995605576378 -4.1810892150723955
-0.6548119650523806 0.8654572961826198 -4.26488023592789
-0.13400790442290922 0.96598104171596 -3.8851246412374256
-0.07628754827592979 0.9583452033577168 -3.988046030974113
-0.02237932909623975 0.9505583418771011 -4.092301172847305
0.028236534432727448 0.9389260739692826 -4.195512677168709
-0.1665991398096586 0.9645323240717533 -3.898482428601207
-0.17261116469497942 0.9548540224602303 -4.017716565116922
-0.2069995998537104 0.9452494316237066 -4.132015739292194
-0.26413169155294447 0.9304283611114372 -4.2349715611317515
-0.5224599105299318 0.9176261082549154 -3.9743269616468986
-0.5877650939513342 0.8976103871424986 -4.073364709480629
-0.49040142970430495 0.9209270753636981 -3.9895916949628374
-0.49184588376600624 0.9086577963393122 -4.109117611138674
-0.46189337740143666 0.9010231011551023 -4.225074784194137
-0.4353878439218251 0.8927718140892272 -4.341823142170487
0.6540846391202905 0.9453035400484406 -3.2720853737118754
0.7252338502072511 0.92703267119293 -3.365856438045549
0.6789765850125774 0.9419431372631741 -3.247058501694593
0.8713864756179196 0.775090918457732 -4.474535234052247
0.8597882186563355 0.7592822125912065 -4.593664082922332
0.8518013150114208 0.7490432548764934 -4.7133923695024595
0.8436648850059495 0.7343546296954199 -4.831208372274509
0.9031170989568446 0.7611120811743554 -4.469295432135842
0.9499739145257006 0.7210345734792868 -4.570459184547845
1.0319500508908361 0.6720528632229931 -4.652365738802114
1.1209050805581975 0.623846957190275 -4.7225511663429645
0.4943396530206886 0.8821800242872857 -4.361139862478157
0.40741369153174684 0.8881766644152401 -4.4432020501059055
0.32129353529332155 0.8966059879066307 -4.525704761201947
0.23390681253932688 0.8920345759320242 -4.606875033012987
0.4750515239675453 0.8898085730520698 -4.3322743779803075
0.35970508216258834 0.9086556063647103 -4.354921505652512
0.24203941047278427 0.9195848364872682 -4.346347474286161
0.12633655889410797 0.9238663075816907 -4.322652179995839
1.249216114041738 0.6195245653324122 -4.238745200202592
1.2675757890608803 0.5947388358203073 -4.354485891499735
1.2815586269780377 0.5635622354463675 -4.469347604762996
1.3136271482436819 0.5103052803219296 -4.570993392940982
1.2785680887846635 0.6046784313628383 -4.224985315133524
1.336579080299344 0.5460565023258341 -4.303444308540038
1.4100985115965243 0.4616518162706646 -4.3553932437604
1.4852102598686685 0.3783139168070476 -4.3957793469394115
1.7294026042371151 0.28852134416633557 -3.281733401218606
1.780159277774306 0.1513789024859828 -3.1814459945047786
1.7988334078340713 0.0679869417875166 -3.218489548098137
1.8036234899843875 0.02171234902531697 -3.2832636289202464
1.7957393164710993 -0.04038697303356977 -3.3663518464488833
1.8244569099076875 -0.12418758519465632 -3.06712063583356
1.8144167038009693 -0.2303206080258961 -3.0725413533684836
1.8008566390672511 -0.3397516844557026 -3.0779186628086133
1.767613544122759 -0.4474621358167046 -3.080977923838568
1.8278846388970595 -0.12164024873173548 -3.0362324935342384
1.8260544039335895 -0.20751405109723237 -2.9798750914283603
1.822814798979484 -0.27494305257546503 -2.8984047661387846
1.8206546605986804 -0.336661726731796 -2.8059319417901456
1.8649351286298022 -0.035255851078466655 -2.7530894021563372
1.907302210712575 0.023321647296789285 -2.2414231467236347
1.921134927306745 -0.013655268185169515 -2.1338329506408282
1.925993589840713 -0.04925655042606593 -2.02357603245021
1.9142812856385953 -0.2935842991923801 -1.911041437310628
1.9114133630075651 0.0012520147952696666 -2.2612147366407074
1.9096796102098343 -0.07651457174842238 -2.198668206858374
1.903875699727198 -0.1692185526458504 -2.1644806868846485
1.8829183691667652 -0.3661919846251964 -2.1420636346116413
1.8712927047408698 -0.08273570959638758 -2.62095795481352
1.86375550217174 -0.15060586377373603 -2.6112845126088864
1.8555563933406427 -0.22330112021987067 -2.6019477746642345
1.8435286298721334 -0.3345381436039854 -2.5834484428532054
1.8754777509178953 -0.07428389959069225 -2.5957811256201353
1.8790149498161175 -0.10454657257941341 -2.5328796973137604
1.8841867145992865 -0.12271014634305658 -2.4504382664578865
1.8678612884231844 -0.37355122025133564 -2.3449472066978387
-1.1031561347192949 0.6735405693785612 -4.4732673306011534
-1.0732412304181693 0.6783503604900974 -4.57799570523724
-1.0407185584032828 0.6773845220913195 -4.67977254673086
-1.0056924579183706 0.6748637626702443 -4.781703414764744
-1.1077140056755406 0.6727058256505725 -4.4582122045317965
-1.0853687653166697 0.6761714933233008 -4.537563857095931
-1.0696701236403727 0.6787670942021448 -4.5918901648300015
-1.046546809670313 0.6775231659864615 -4.664336106772941
-0.6527069191378432 0.8607521243356425 -4.318563893523118
-0.6513715111051777 0.8535286672083326 -4.394998624365939
-0.6498174407619788 0.8422535569396195 -4.486649517315377
-0.6468155805905476 0.8280229841058124 -4.588626269417118
-0.652274372073518 0.8579751973776584 -4.347692895218196
-0.6510852200628385 0.8483268324367277 -4.443148913071883
-0.6484198991027016 0.8355504603844555 -4.534658642031802
-0.6456021151659579 0.8222006269175892 -4.630326639167212
0.8098805736951226 0.7300067427131149 -4.948548462617646
0.7765707875882144 0.7255380440360516 -5.065434474153086
0.7433605189354591 0.7195585315246963 -5.181315062503945
0.7114714726141429 0.7149763704287625 -5.297544995249155
0.8514476698788581 0.7132724273672482 -4.949157297508392
0.8889544497730204 0.681062683235037 -5.058393037028877
0.9502828394502081 0.6386331352988047 -5.152387958825694
1.0386586998930583 0.5867004936995097 -5.236624203530547
1.1965246301440997 0.5657017609852382 -4.7912219889732075
1.2652334228560385 0.5015654747601536 -4.860654677346547
1.3308552135683758 0.43311493743714885 -4.9301203560498585
1.367686500552551 0.3472431556879228 -4.990147194966002
1.212912487503071 0.5610349079465071 -4.759896479119648
1.3017102195180292 0.4887239643000082 -4.764634828195242
1.3956502535528545 0.39804553645819984 -4.748605513350789
1.4808065064497196 0.3215633362656343 -4.703875631219702
0.1558625047553991 0.8857513609995945 -4.697027798145956
0.07742179440459218 0.8790945410620714 -4.786873751689045
-0.0006280552584863146 0.8723039998629063 -4.877309414307978
-0.07845541524949778 0.8641648649136421 -4.967698724412391
0.1858736214089378 0.8815429015548152 -4.715526203327362
0.1698836078989827 0.8674712108724159 -4.833114870608346
0.183971874651891 0.8517608489853505 -4.951044508625625
0.21145911654645652 0.8362137143861446 -5.065995294257488
0.007388512721278553 0.9232099500169966 -4.347678456070914
-0.10845266683315519 0.9245060258769607 -4.372206344691329
-0.20597599661954802 0.9166793606612998 -4.426639403411581
-0.28331388367603955 0.9018499038342717 -4.507067267043884
1.5466673216758036 0.2932233002968095 -4.4259029945616035
1.5755870380977115 0.18905783552946867 -4.4510999750500275
1.6080133699946264 0.07008043514375417 -4.476882499799087
1.6245812154870318 -0.0035870101001947118 -4.503518456299649
1.5534727764485488 0.29327805461115175 -4.391112149856351
1.58980177069592 0.2015595523497123 -4.349080240865489
1.624761582423707 0.12788842057126243 -4.2798714197293215
1.671354511261669 0.023017673335199062 -4.1993982940298284
1.7801995034049725 -0.07374165724239909 -3.467197684260059
1.7589460614646175 -0.10050102868869026 -3.570562577383576
1.7412559781720016 -0.12170024791910034 -3.6817839494106854
1.7251491615125645 -0.14122072090521323 -3.793137779812692
1.7793306144611158 -0.10004390149556149 -3.4557224923108687
1.75577442267447 -0.17106627737286528 -3.5217963323477064
1.7355296033216583 -0.2464039423598071 -3.5620812832748934
1.7131146344675496 -0.3478181038786524 -3.596723233551457
1.7301392770599824 -0.5543206166690096 -3.0994962610815935
1.649440281673301 -0.7924119565560132 -3.1079681201320994
1.6465677795146194 -0.7938892395885029 -3.135628985222372
1.6428379708006289 -0.7932963928576278 -3.1612201600899765
1.7345906624108276 -0.556329716443741 -3.066189428000173
1.6599401738355541 -0.7866149349769566 -3.008891784367577
1.6666643846004017 -0.7829517592782937 -2.945190269713423
1.6112249925485544 -0.915890612999097 -2.8609025838957423
1.819571563003621 -0.3999085142478608 -2.709819291187676
1.8228473340336442 -0.460948423450723 -2.6132845472811677
1.804414990573574 -0.5393217583327001 -2.5330728298579452
1.7810740116425559 -0.631255717262342 -2.4629636833948423
1.9225375134527987 -0.29245819497444164 -1.7974491985359258
1.92850484275752 -0.2919752589438355 -1.6812104411326654
1.9307016129144876 -0.3097064134921671 -1.5632552556896144
1.9335757737313246 -0.32439917315448996 -1.4446271154157249
1.9217903379944385 -0.29245685660129056 -1.8122629786719509
1.9260825590597197 -0.29168045574304496 -1.730454623457442
1.9097865210031186 -0.38324843241938333 -1.669112361432319
1.8914458805656555 -0.48230978663179086 -1.6168420500232104
1.8832108249470765 -0.3654062502509851 -2.1407927275295933
1.883599951750533 -0.365216405346333 -2.1347449545853157
1.8854479250885208 -0.3648740640779964 -2.1031762971708954
1.9026733041043793 -0.2960913346400749 -2.0416411490674085
1.8806868760028899 -0.36599717562174555 -2.183280839795079
1.846335410749584 -0.3738848362082607 -2.519523450773919
-1.0033279009295013 0.6551005770158301 -4.894962402810122
-1.0081077476930054 0.63592266207606 -5.008316676421374
-1.0384827503640799 0.6043309764370965 -5.134721141051087
-1.0133592780827756 0.6007178574451552 -5.248544302575996
-1.033249078478536 0.6417597235072711 -4.8920115006930125
-1.0884077513143353 0.6002432493642003 -4.991260989646311
-1.1506189313128765 0.5407849531678256 -5.0691410974787905
-1.365907669285788 0.32097612867277725 -5.181471351830399
-0.3694917328844737 0.86927184932325 -4.724527629049872
-0.3762635493138964 0.8514513479033253 -4.84047233779836
-0.38251962679366397 0.83153367150781 -4.957010308652244
-0.43918947496135374 0.8067841279259372 -5.065735857600493
-0.3684897640411023 0.8708720894565631 -4.708166787985646
-0.3734940805826428 0.8607801250963255 -4.78577125941921
-0.37721151999397984 0.8490471802096806 -4.854396778984985
-0.38151270337987553 0.834298583652756 -4.940935045335199
0.6896048228123344 0.7018848314814378 -5.418173514984329
0.6677816399231813 0.686084293682528 -5.538576563186719
0.6443836435995655 0.6698899453088172 -5.658357071439535
0.6191907846151186 0.6558622478017233 -5.776502318873282
0.7228016401839793 0.6906197049261569 -5.422385859258909
0.7438526841566401 0.6632998439466183 -5.539329857731626
0.7660165113500454 0.6348427211555246 -5.634516072949424
1.3905894600067241 0.2666728230743693 -5.056075329667191
1.4675928097072133 0.07172093501857289 -5.1563492997749165
1.46910343111009 0.028461317933771633 -5.203862066184529
1.4631272396031134 0.01624770640469016 -5.243417392600814
1.3799289155893337 0.28423035544309566 -5.08005592697801
1.389336126195493 0.23703796350913683 -5.186691953889366
1.5191436736823671 0.24495822856946453 -4.646241890295839
1.5153826237335686 0.23812933033982792 -4.676737899782502
1.5561253161990303 0.10830390234918191 -4.681628578817961
1.5793480269536184 0.02748580252248855 -4.694506307875726
1.5771068220582838 -0.013292589512914078 -4.74111492383377
-0.16787386345418842 0.8433299244334893 -5.043657347164323
-0.25602070073186894 0.8217032727460621 -5.120117739511655
-0.3224733799886716 0.8004023346864311 -5.223624318999005
-0.35820761298257037 0.7823957981118687 -5.3360785103638335
-0.14087714336913448 0.843986652649912 -5.067541193607126
-0.17345190020760817 0.8263252648851995 -5.180860970610702
-0.17687197482452544 0.8122047379372491 -5.2990828645360715
-0.1528409709251007 0.7996915231911234 -5.414732261771473
0.2395922106977997 0.8205120120452424 -5.181908232207236
0.26736321651671346 0.8048456763669499 -5.297704946059828
0.2946991935835582 0.7876302146310874 -5.413143171839623
0.32030195826861524 0.7637364792058858 -5.527368806160183
0.2724420004862345 0.820215296233099 -5.168426548197153
0.35742894000162134 0.802435585315503 -5.2499293889913226
0.45849467238482167 0.7730342851512225 -5.3053216027248675
0.568237649189285 0.741535634053677 -5.345600640099606
1.618106313697035 -0.07108660100737994 -4.493682186816461
1.6077518564918838 -0.14377320517960585 -4.483640186709263
1.5967721061722886 -0.21886149090225518 -4.474594969158709
1.5805982823681126 -0.3384810412150375 -4.454003919455342
1.6119141594284088 -0.07093702892063558 -4.522855856016184
1.591808816014277 -0.1276314487637617 -4.571772448328693
1.574290577587465 -0.1696529914557496 -4.647428980068844
1.5456306147862835 -0.2712084835774559 -4.733888853986354
1.693941819840126 -0.02035532318179524 -4.097184275340018
1.7083347009512522 -0.03269812995938212 -3.990879742491743
1.7241340628721042 -0.032981014988632214 -3.884555947770893
1.6894510248381696 -0.033764602465627916 -4.113835066330487
1.695399281821915 -0.06364673026113109 -4.053559540074846
1.7037060276020288 -0.06887504522643463 -3.9936879996478227
1.710430303862104 -0.0691419749239881 -3.9483216049412984
1.7035001271261871 -0.1998120224678187 -3.892729217606743
1.681763248514694 -0.2581238332878664 -3.993129037336643
1.6594933239511311 -0.335747159336028 -4.077357777465789
1.6314328791133919 -0.42398481448471087 -4.146530870753035
1.692377865314162 -0.45227467380672515 -3.6311387027012287
1.667118184193625 -0.5565655227414313 -3.6652626675911097
1.6210759834159971 -0.6573763010356585 -3.6970735379503403
1.5724827886076598 -0.7579505253662053 -3.733396925144878
1.6949005562137431 -0.4584334488027703 -3.5974849428171924
1.6808272862578815 -0.5649367584362943 -3.565218503580249
1.6510249024021284 -0.6527010844132726 -3.5015711628937574
1.6238277453842231 -0.7332516527072716 -3.425642112622718
1.640389295593555 -0.7941318811782294 -3.1718944256052306
1.6322622254657566 -0.7950323658597778 -3.212431631076251
1.6189594281595376 -0.7965018406785175 -3.278797204278838
1.4682540690543144 -1.0349666518391933 -3.3850878666413493
1.6360553494165646 -0.7946513538874302 -3.1934046604766846
1.6305243203308952 -0.7951638642381779 -3.2212667994595585
1.6198337608192164 -0.7963126056969122 -3.27468813091859
1.6117261247073984 -0.7970575854017907 -3.3155468732622686
1.617269773407845 -0.9326124822809454 -2.7521935930553925
1.6209751061304265 -0.9508920339799285 -2.6408291923399827
1.6227617122979006 -0.965333533540232 -2.5261176107799677
1.6163653180853554 -0.9953855630654979 -2.4116471470246377
1.6162389143010873 -0.9306394345847255 -2.7670749386428417
1.6209600237777844 -0.9411418261832323 -2.6928179984434957
1.6211882579712182 -0.9525137980796211 -2.6277934460857493
1.6225091828137592 -0.9632148536385154 -2.542829018796595
1.7572670177764484 -0.7227898366302762 -2.4010752390445074
1.7209159042066597 -0.8068636670780499 -2.3385277444302233
1.6848495979450109 -0.887410856105816 -2.264558806133275
1.6624348266718432 -0.9456430690836446 -2.1672820254007936
1.748686159543561 -0.7339800253306381 -2.4328367619763194
1.6994476803638185 -0.8327667810616812 -2.435692277289472
1.9395781166894528 -0.31965225060747265 -1.3252339888208293
1.94516341361316 -0.3146509918222016 -1.2056850525479552
1.9507712026229234 -0.30956583011368405 -1.0860291034728822
1.956368678464682 -0.3045347451343338 -0.9663305891651037
1.9318613630014123 -0.3540067558824443 -1.3287943839714267
1.922272596322848 -0.4151986366439778 -1.225591658392052
1.9069597571745371 -0.49921133877193224 -1.1405455137845626
1.888940911146205 -0.5930100621317131 -1.067409338200554
1.861967287787688 -0.5905883535071615 -1.5993101723263634
1.820941894295474 -0.6977117320763182 -1.5807309156262637
1.7799881877915256 -0.8046592425688174 -1.5620883001923154
1.7326293384999572 -0.9094080494808927 -1.5428919611547343
1.8673533160660143 -0.5816483459993301 -1.5658677430186418
1.8408267266226164 -0.6611174224489321 -1.4871577829486764
1.8244400863398866 -0.7178557907633334 -1.3889693543961754
1.8116758162484878 -0.7603546559609247 -1.2836757697834869
-0.9837257650368301 0.5926461162095175 -5.363794428601506
-0.9601572779195643 0.5794718597694986 -5.480670795659524
-0.9359972879197234 0.566900732536851 -5.5976796822246815
-0.9122174533820276 0.5533222298123894 -5.714145010873157
-0.9857158921509795 0.5934339329929504 -5.355207665265265
-1.004213418862118 0.5527418437792195 -5.465061591717663
-1.0474930763924655 0.49865260271405 -5.559661569767288
-1.1412416280902062 0.4113669060031885 -5.646554514814627
-1.3615693240521587 0.33182691719444285 -5.182527027065611
-0.5247213864249849 0.7827168919666394 -5.149011900693851
-0.6069073573658172 0.7578116337815862 -5.229812581117824
-0.6852021096895048 0.7165592926893243 -5.306866410493019
-0.7597784801228945 0.6763227874044467 -5.386533797777217
-0.49646799579637946 0.7825860464674486 -5.170657807873245
-0.5211599661833372 0.7647530747309387 -5.285964202372714
-0.5138104620683784 0.7472816074320274 -5.401989877949967
-0.5552551303541214 0.7221355765195178 -5.513836766779522
0.5726418186530596 0.6477708880158469 -5.887136799112652
0.526218088452942 0.6396522053042304 -5.997779072991372
0.4802251988100504 0.6302583213885441 -6.107512505997733
0.43354294296440243 0.6141534743931689 -6.216349848491095
0.6061173507854841 0.6395056529126868 -5.895204355092798
0.6212014086809975 0.6122155558366486 -6.01009468925791
0.6584145943867754 0.5663384350206428 -6.113158036938264
0.71224409063794 0.5182291242910484 -6.206995621779698
1.4593956972469695 0.010064988864152013 -5.266324598770101
1.439906536098024 -0.06634419099371623 -5.32304085868378
1.4179003784649786 -0.13310431396603875 -5.377322413202492
1.385389456057862 -0.22331068515611496 -5.446403378099587
1.4440959215833349 -0.05564668324232984 -5.311635328389197
1.4273603234014778 -0.10121229619455067 -5.355689217616119
1.4171067289568269 -0.12480055245174783 -5.3849864019974305
1.4062957525970805 -0.1226488163149561 -5.430271770917697
1.5584855878538537 -0.03495741975056606 -4.8200609894653885
1.5419419532110477 -0.043754368785480724 -4.8954833270601315
1.5245462466969488 -0.04384298863563657 -4.979422729722174
1.5118251463549062 -0.05216923357322922 -5.036628379671458
1.5602550519702498 -0.05224594108929598 -4.802776293621629
1.5375845295539354 -0.19515470593207457 -4.839964718044159
1.5132159319403138 -0.30005503561154934 -4.904570220591008
1.4805290560625985 -0.3683324051380857 -4.983003478104236
-0.3599119953340974 0.7652547840491929 -5.45378099184446
-0.36089615010055287 0.7460760749695026 -5.571549186282171
-0.3309594562255512 0.7322777029646882 -5.686459955043135
-0.2833353213827842 0.7221486403597249 -5.796482986528737
-0.3943581349136352 0.7604702358976398 -5.446907757358938
-0.08870937816531393 0.783397495555728 -5.5141667477041265
-0.02502060673120634 0.7686558122715595 -5.614180458759621
0.17297773555015597 0.7549788313997012 -5.6819664319915955
0.20165117665949997 0.7390942855780044 -5.796925501882435
-0.12097068072208776 0.782289547084062 -5.528352345068442
-0.12160604269785992 0.7638548680364041 -5.645922957788977
-0.15261750457537146 0.7455628772662204 -5.759235846631618
-0.14897685739742902 0.726650626769214 -5.876268753364937
1.5612657564229708 -0.45225516344796945 -4.452947751913603
1.5343195048718787 -0.5578889484170265 -4.452228257740096
1.4847471972374207 -0.6570888810091096 -4.448848839822973
1.3306457933437612 -0.9614966884305672 -4.408395509644458
1.5692604367331016 -0.4475452793941951 -4.419236106260391
1.5584480790806288 -0.533400052289984 -4.3556882619236825
1.5478486864800574 -0.59873548103225 -4.26389022802247
1.5410065054274054 -0.6574161753710996 -4.164046395953117
1.5204636984405515 -0.3753056245333236 -4.7928425333768
1.48485439421716 -0.44223231227515225 -4.841883475632789
1.4610380513944923 -0.4907119873758965 -4.862989795878274
1.4211580510341133 -0.5950517188091444 -4.863797132432446
1.5899445453664185 -0.5282062766593172 -4.163833844252914
1.5263740436126563 -0.8419887778702331 -3.77878068446771
1.468585437407969 -0.9137291938978469 -3.818671453050767
1.409343892280404 -0.9857733195437125 -3.8582979237757598
1.3417014366990125 -1.0673600805924341 -3.905892407923829
1.523881619037913 -0.8533620939008332 -3.746280132331728
1.4706171396940622 -0.9400260122391156 -3.7216503196943456
1.4564124350245466 -0.9771718838375036 -3.66507250421897
1.4610088916410349 -0.9939670907503596 -3.5875601337718996
1.4676680452284183 -1.0250467741736284 -3.4451230931826196
1.4677819431323238 -1.0307269784533577 -3.4127090227509735
1.4676407661273394 -1.0242454280030318 -3.4497952318969722
1.6025962261775861 -1.0332057310350558 -2.299980421271111
1.588166229101865 -1.0703081876044338 -2.1878187040093557
1.5526806076417263 -1.1261907600481358 -2.0887623098133434
1.6008773344981535 -1.0846122170411419 -1.8986713925563288
1.5821996701084962 -1.0567167295885205 -2.3165366522075366
1.5313234031280032 -1.1331663250142634 -2.2434468972931487
1.4667650785848438 -1.216561237341641 -2.1956706372178902
1.3944490756236994 -1.3064476306854627 -2.174776837935228
1.6394047473132287 -1.0001077821419164 -2.0665750763441233
1.6554744463004663 -0.9718162406324234 -2.0534288991458025
1.966204411254573 -0.2823490094645505 -0.8488901957084203
1.9720303466930356 -0.25982029698836 -0.73141269973558
1.9770035603584044 -0.2371863751983598 -0.613840900821995
1.9829523890822283 -0.21457329976912465 -0.4962057480635011
1.9584589471183813 -0.31707767977192997 -0.847003909509471
1.9603003110090673 -0.3341338113063044 -0.7302349633559729
1.9607844753429593 -0.3550939177907726 -0.6232370182384457
1.9593699315045188 -0.3730793716689442 -0.5293056462089798
1.8489509563266955 -0.6936496736659353 -1.0230500174974995
1.8079044901111734 -0.7948019477016871 -0.9782070158861956
1.7665270657483585 -0.8959975271822096 -0.9330574661539918
1.7142088620047444 -0.9903600831440417 -0.887304553558678
1.8565550377057425 -0.6779786008225074 -0.9921477832384537
1.8950932037261021 -0.5932815111090398 -0.8979215279107444
1.670261693480863 -1.0083768858710962 -1.5400568153714826
1.5140937684835294 -1.2388131867248755 -1.5155128754608331
1.439366221286445 -1.323387546272854 -1.511770864268579
1.3622933034349198 -1.4032150779038328 -1.484701523196369
1.674512959196979 -1.0040737119437786 -1.5060853232135274
1.5279236232845903 -1.233100284766999 -1.4162455993306933
1.5388061805803361 -1.2285329996900343 -1.3388560608242597
1.5459578050441876 -1.2238546226266858 -1.2474126298672499
1.8013131582885844 -0.7946681554562641 -1.1730687723121744
1.7888332296340703 -0.8228372896298973 -1.188915196076462
1.7562144740181107 -0.906543237129339 -1.116119552073141
1.7108673371353156 -0.9882234732027161 -1.0473738532196715
1.6504255787829358 -1.0779491456478656 -1.006429086690843
-0.8696001755169254 0.5413680457311763 -5.825312732039217
-0.8884079080470325 0.49937082623542384 -5.952541740606579
-0.8918680036961185 0.46626392865407335 -6.078009216512688
-0.8867384531954199 0.44138478460227887 -6.2014844470419295
-0.9017580259555744 0.5265520610700295 -5.830318592482273
-0.9504867256064201 0.4741880711097354 -5.949456568965215
-0.9896428470888908 0.42766919908428835 -6.045970297024039
-1.014044326285404 0.34652855886977535 -6.110099904188373
-1.1995409575891895 0.3433980778993853 -5.6871166905218065
-1.2274583259071143 0.260886499546989 -5.717737302163934
-1.2567422254976766 0.17471609122027815 -5.749276719179799
-1.182736767379548 0.3503121093047021 -5.717827479347125
-1.1775778270496988 0.2970426692534989 -5.800583051805359
-1.1550839325227105 0.2616109625438608 -5.898232802388381
-1.240252826267856 0.015393827275935083 -6.038518357354827
-0.7920388278468108 0.6474327196571945 -5.493146512388779
-0.8243156180049114 0.6180051265543065 -5.601060433725158
-0.8212841601424685 0.6394854382318274 -5.476529799122383
-0.5739642088326912 0.7001618665959238 -5.630131250354259
-0.5925288588863166 0.6781967831938377 -5.746525388871627
-0.6053126868927383 0.6451995626959662 -5.859961322715599
-0.6190364902632739 0.6130446071973678 -5.967001921200509
-0.5727871452578626 0.7012404294545517 -5.624697294433043
-0.590216859379122 0.6807897134034141 -5.732913028096874
-0.6018056616865745 0.6536129879630277 -5.83180325154362
-0.6122764524516682 0.6282724192975025 -5.916778571938727
0.3729066388121516 0.6026974860713197 -6.317952989464251
0.312212436224014 0.5908616931831903 -6.421494041623458
0.2518674555106837 0.5766418302430902 -6.523936770578713
0.187113171042641 0.5612444329189097 -6.6275747727224035
0.4045147245342729 0.5954327125326784 -6.331049146840406
0.4065949160576076 0.5713964664146762 -6.4494824266775375
0.4371035526086464 0.5442784238916178 -6.561808829399505
0.4824950369988081 0.4951445640859223 -6.659237447088903
0.7937083613283786 0.46189694814577054 -6.277185734118461
0.871583747355377 0.40719984330438147 -6.347984742232032
0.7698656814367074 0.4681461147000982 -6.3013987809351955
0.7997089620165541 0.4283515629347782 -6.410863055838005
0.8018648473798163 0.3975891255541689 -6.526736984849732
0.7862575507038739 0.3630039879213324 -6.639621925322044
1.3467849167058115 -0.32165339557881273 -5.500539834112598
1.3089297423793407 -0.418066814709954 -5.5536369676865815
1.2710454381502931 -0.512565637807915 -5.607903649531895
1.2168253051899964 -0.5985162971334103 -5.657797939870341
1.3421488899509164 -0.2997173167435163 -5.526192886557863
1.3014445320436627 -0.3482908426108493 -5.6287182076259725
1.2746858453734229 -0.3657521405155239 -5.740220312227993
1.2495957202003107 -0.3622980567393544 -5.853236126632385
1.3914440386018894 -0.09883963107375426 -5.499800116685177
1.372559826310664 -0.06685317240591691 -5.578137980371503
1.3564953012985006 -0.025206843512021244 -5.6661949080135114
1.3175779096740847 0.035510195442512785 -5.7525394716990945
1.5002068953435699 -0.06406967345858564 -5.0785905421507955
1.505379609187332 -0.07749807240955692 -5.050891481186723
1.5013380606173925 -0.10413710344156973 -5.05341014513254
1.481524659048554 -0.24278885734556568 -5.061608802323388
1.4464666929894825 -0.4125135846641442 -5.060799317248717
1.4047305730329738 -0.4728903553236157 -5.144814957077068
1.3631683569640634 -0.5231020768507325 -5.228922861124011
1.3171250100431402 -0.5625263901626725 -5.314159815085225
1.4497466330151645 -0.395548248061149 -5.0763315917304475
1.4216744627145588 -0.4116943479458008 -5.177152859847719
1.4037276672259607 -0.4007706338364511 -5.280091668290306
1.3824072363340614 -0.3640448184326397 -5.375026594837283
0.22631339778161752 0.7123695392154189 -5.906224277478914
0.25232237408277125 0.6843992458817482 -6.016900897203272
0.25787621435906716 0.6579668867010171 -6.134737715973112
0.22909762814162213 0.6373357840671982 -6.250456621859347
0.22693081809646753 0.7116321709007235 -5.9091895078617505
0.2532252361728683 0.6833067735611787 -6.021302415178371
0.2869518326258023 0.6539144341183059 -6.1331534200266535
-0.1373053560721707 0.7075355328616999 -5.99310603404513
-0.1251385369405074 0.6834015798002445 -6.109180383925742
-0.100921938947625 0.6584225874232928 -6.222780078899247
-0.1090597046810686 0.6325771689778211 -6.336468674585532
-0.10277569000099109 0.7088505821360207 -5.984602540460121
-0.02827281346947177 0.6932182039592324 -6.0765299807707605
0.06318875899683114 0.6810635092205084 -6.147373528689642
1.3298213183769407 -0.9613764954563468 -4.414110521782154
1.3250574832983888 -0.9629555992691212 -4.437313005791377
1.3106182345619524 -0.9621144663017007 -4.490698652879629
1.2878272110981785 -0.9632192198727932 -4.565758206742128
1.2187463022992473 -1.0209296167555095 -4.645172051289995
1.5182376667297135 -0.7466415058790047 -4.093119913797431
1.4879641550400353 -0.8289533904114385 -4.019317279211728
1.454148406625787 -0.8962603174215465 -3.950140158036818
1.5299186263604856 -0.7254235863935128 -4.0695704773795285
1.5338740377278044 -0.7609675052794423 -3.9576596404402697
1.380546532717621 -0.698090207237227 -4.869222564965624
1.3280436073685253 -0.798126688373027 -4.871751024828061
1.2590785246412546 -0.8878527680289262 -4.86955315827289
1.1858166242689536 -0.9680947373726024 -4.902967908037836
1.3877013787143329 -0.696638905625624 -4.835555834559681
1.3540934786240757 -0.7836790108806081 -4.774242430254842
1.272847368653471 -1.1555005678282917 -3.937401834402445
1.186549852316776 -1.225823238264888 -3.9656587262287535
1.096481039629648 -1.2924894618100644 -3.993686660242114
0.8562884134427702 -1.46837422469784 -4.073284412341313
1.2771769641216313 -1.141160314410026 -3.969443123020981
1.215645116044993 -1.1887756253897437 -4.0558918773672685
1.1685200649278644 -1.2098525398787514 -4.158045256724017
1.1295636470047503 -1.2234849844672473 -4.266672117333976
1.570154814129483 -1.1471897047518607 -1.8016797409554877
1.5296748789739367 -1.2025065970386872 -1.7040814649289389
1.5712394413438446 -1.1457736234952793 -1.8036301369237664
1.5321807726090375 -1.1992292283395138 -1.70864485739363
1.4782095415577665 -1.2677248509209984 -1.6313932618737905
1.3198033252823267 -1.3913008801720659 -2.149955704103364
1.2307494449495648 -1.4619782584712053 -2.122768326385433
1.1420771708847615 -1.5326101554158624 -2.0945057045690865
1.0534571291234327 -1.603139351391915 -2.0671456603235114
1.3158093217401639 -1.3902644147416674 -2.185181616323868
1.2277887234350136 -1.4522723635098553 -2.2263201595173308
1.1511489038546316 -1.5025554931041094 -2.2942621399549377
1.0791120652930826 -1.5494349334713517 -2.3740635770498204
1.9891735272596687 -0.17459341301336279 -0.3833756584352861
1.9938857465138682 -0.1335942029870865 -0.27073258455824795
1.9966435069279755 -0.10318157990280705 -0.15275448767746871
1.9987071728742583 -0.04848432621231439 -0.04759046074241308
1.9854864532166834 -0.20949569231289925 -0.37647490364089686
1.9931025180027326 -0.13997107637984224 -0.29033690067061957
1.9959365071124313 -0.11344348491007514 -0.2051586151853148
1.9967623296213883 -0.10133537424323691 -0.14908121867138593
1.940470346899604 -0.45422019102990396 -0.4431486364847152
1.9207211897392387 -0.5351202739357516 -0.357009368220465
1.8984917668590549 -0.6154104142188219 -0.27082588319090933
1.85682522368857 -0.7295018783706141 -0.1762806426873786
1.9347537165169832 -0.4752202461426396 -0.47161840976203245
1.9068491668677763 -0.5885241888097448 -0.44441582095246623
1.8633694137968047 -0.6990197803442064 -0.4469655861448548
1.8151895858288267 -0.8123324824728171 -0.46423483205898664
1.6627220711364161 -1.0682072674340524 -0.815958549518993
1.6109995090789577 -1.1464918445638073 -0.7425041506904685
1.5598098658135482 -1.2258274269053606 -0.669721902698307
1.5084550555573761 -1.2993602598417404 -0.5984071897512186
1.6525660903869137 -1.0815347782195743 -0.8465462275245584
1.586231626324974 -1.1781870147558395 -0.8348763392235845
1.5199384237971865 -1.2735566747604925 -0.853500368770553
1.443791374767245 -1.3563443410981104 -0.8863894503785543
1.2910387521531688 -1.4745534727096647 -1.4265863248361623
1.2211413606613322 -1.5401403951039916 -1.3664045346764921
1.1459896171490822 -1.5974664125517364 -1.3049667366685183
1.0646178545939073 -1.648256477347183 -1.241972292724164
1.2817838274239488 -1.4832881912485765 -1.458944642591884
1.1985025322514236 -1.5499897815631598 -1.464034397647959
1.113994377082297 -1.6101693400002712 -1.4995808077665795
1.0251558940649788 -1.660670225110885 -1.54805297755037
1.5543475604104047 -1.2142654877691825 -1.1557510668062432
1.5308720243753682 -1.2520318055272774 -1.0407539434832898
1.5561102682948313 -1.2121916459481066 -1.1385019077264076
1.5477562173163215 -1.2280171306218433 -1.0165252225088963
-0.847278967037519 0.43507137696279014 -6.30965520364625
-0.8108342133082592 0.42679871120599505 -6.420952779398604
-0.8432578636420014 0.43596943756008366 -6.313486890556476
-0.8059575314626612 0.42763520611352906 -6.426778452743249
-0.7703701929347709 0.4164754171840268 -6.5401340805326
-0.7246940927598206 0.399153987255512 -6.648790059210427
-1.0398438056279546 0.26355237908058876 -6.178398356472747
-1.1547597333041986 0.01777358236809455 -6.273209369678115
-1.0562743763780809 0.25265111574863885 -6.150957668321775
-1.1929804954650989 -0.012150229904641945 -6.189500190763033
-0.5549720451561878 0.6166694033465334 -6.067251679662466
-0.4907325875778823 0.6202856751241043 -6.16785077193775
-0.42596746912654954 0.6127124042950495 -6.266588996542204
-0.3872968003464047 0.5956502459570532 -6.375227345234617
-0.5839859968867068 0.6009158859055164 -6.079647611478741
-0.5780468905936395 0.5754130539456055 -6.194768907003573
-0.6002722797314799 0.54179824434278 -6.304471573199002
0.13956041433509633 0.5404119654433215 -6.737443751612852
0.09344631370553286 0.5146435464120683 -6.842606786529166
0.028334861129777875 0.44925376469229594 -7.042695336314891
0.0019130583334936362 0.4523284347945255 -7.0390091186750485
0.10949620172904287 0.5495580584025589 -6.720225682009151
0.013485655477535982 0.5395878131392076 -6.786578646653103
-0.08909078126273505 0.5226501420439947 -6.8209324620357386
-0.22861961781234524 0.45177583751858796 -6.994746697421592
0.552499495760944 0.44113478197359396 -6.737769591420838
0.6550375260582535 0.37140613134225536 -6.820499039531001
0.6767649990588799 0.32741325169977525 -6.9159283502729885
0.6558704463758449 0.2672020480478285 -7.005150208833435
0.5244358390389756 0.44550210258453043 -6.7582343010429256
0.6134349897309812 0.3712225199743725 -6.874950629717838
0.6199633114285769 0.31866942187822417 -6.96773393601207
0.5969531015149249 0.26692657951213905 -7.047389387547313
0.7541951865937454 0.3300736904582246 -6.752574460953445
1.1518941558844953 -0.6707769904439573 -5.720340855502235
1.0872763014368887 -0.7421008016918077 -5.783890614073955
1.0159715649589856 -0.808188694117018 -5.844478365722135
0.9345647797484959 -0.861709800630993 -5.89917460945399
1.1499440157375784 -0.68699279505036 -5.690972246027377
1.087798236323573 -0.7820854827718687 -5.693141929611097
1.0357364277941394 -0.8759704815580747 -5.663319155987763
0.9772031044412248 -0.9573153393514529 -5.615682166082595
1.2132759177249437 -0.3556558564864206 -5.9631151911010605
1.1802752511953252 -0.3493927461583426 -6.074831075076994
1.130440014379022 -0.3811469806910067 -6.189651796521934
1.099418666654206 -0.36742733696661634 -6.3016252093205605
1.2267919082947498 -0.3240510524932841 -5.9620368134686
1.2070276800620339 -0.2570992357899114 -6.057347910634019
1.2091691639794215 -0.0703820387293046 -6.121850874249382
1.1937416328512331 0.005313851208803044 -6.1889847543458405
1.2842573777609771 0.03510245947518332 -5.866930377816092
1.2498749445533552 0.036470330119137265 -5.98216206563897
1.2956064262735276 0.007595205476262435 -5.871321537166511
1.2648045296200188 -0.031932614520671435 -5.976767004264159
1.2621004572453665 -0.6475419865050467 -5.36365733466916
1.2084588729831116 -0.7344691238571114 -5.414209375570939
1.1490296709126855 -0.8172233531821269 -5.462558281640666
1.0813082449611402 -0.8953194228463017 -5.480617391959587
1.2656053521272124 -0.6299171113683533 -5.390197652108709
1.2237055278443658 -0.6750900249668766 -5.486463378466012
0.1534109803904753 0.629577092843867 -6.344635481170896
0.07810289090673946 0.6185804622876929 -6.4377425557322185
-0.012042739665683679 0.6035325349611971 -6.507035348107747
-0.08181167401323212 0.5773319477960497 -6.598625668050521
0.18382499381896017 0.6217486457118626 -6.361419688211818
-0.12519140446975 0.60938909211189 -6.445967060005706
-0.26634062471065284 0.5450972354696716 -6.676726816284283
-0.24183225879909007 0.5408658121171851 -6.701105016792228
-0.23273860865210527 0.5395280658388488 -6.709235986213699
-0.343554453591318 0.5518121442410826 -6.6082636291275465
-0.35094150346662584 0.5526861869377073 -6.5960675965116975
-0.38371104826249985 0.5503251777082913 -6.563434121776766
-0.43459969934384907 0.5466054587210131 -6.5129400303843745
1.1597085462250503 -1.0595261220774508 -4.742255017336373
1.1011186953618195 -1.0980170086679772 -4.83961158953643
1.0250569116142851 -1.1451119149757596 -4.913149944438411
0.938203410370427 -1.191689312991909 -4.971188225674876
1.147502329720418 -1.083201362962319 -4.719569009800646
1.066464046489281 -1.1546701951178355 -4.765085568228724
0.9773905852339984 -1.2154653179915078 -4.77698131024958
0.9033110522358293 -1.273420083833842 -4.760256380401464
1.1164041135644511 -1.0267783881499783 -4.985947724996532
1.0474612741465479 -1.0851044883501584 -5.068254500608181
0.9837458120219936 -1.1096872975334975 -5.164389051328243
0.9400151697785909 -1.1164066389326162 -5.264257068359277
1.1134832321876813 -1.0427804463443875 -4.951240643694469
0.8559954542457036 -1.4711176472906002 -4.056648347909749
0.8482508932127395 -1.4822390618601295 -4.008668167748844
0.8364425087721451 -1.498990003651307 -3.9368272297732645
0.758336651213307 -1.5465494109087816 -3.865159694003662
1.0885789782504818 -1.2377831740221295 -4.375542951065329
1.0416510613943966 -1.2448764998714505 -4.483953605262804
0.9918768901369732 -1.2540570075529855 -4.592450382775506
1.1119721708311385 -1.21294648502004 -4.382086051393451
1.115623658277565 -1.1792529675801748 -4.495416692493124
1.1360027434452968 -1.1297659047833293 -4.598609196187996
0.9569069119359124 -1.6688925971481516 -2.0568093218357393
0.8445352665104235 -1.7286345994397254 -2.0472556321780875
0.7483462966282965 -1.7665734139594491 -2.0326790796037106
0.6590170120879864 -1.8008352133919414 -2.0180534439051083
0.9655921249262074 -1.6663833811339734 -2.0224201815181986
0.8707934125369697 -1.7205333427528409 -1.9518690102530059
0.8069706647514446 -1.7597345584664141 -1.8586331887661363
0.7673399078208498 -1.7883405873293754 -1.7512276581902073
1.008314316210422 -1.600143365567749 -2.453756253987276
0.9295902952176223 -1.6349431290318015 -2.531731653720142
0.8480889758352064 -1.6687900368966944 -2.610158864772461
0.7673464054261403 -1.7021776153194776 -2.688929934190881
1.028885918583377 -1.5824443873833807 -2.4760724110923142
0.9527826473401813 -1.6067165937873724 -2.6478819131004054
0.9923238352383716 -1.5793315432788704 -2.69147515350142
1.041597233582749 -1.545761966979033 -2.7416597850676405
1.991929400606777 -0.17069085546272272 -0.051430663839247756
1.8618863120832787 -0.720299084482868 -0.1256133189705783
1.8692832766187455 -0.7068399697070323 -0.051722155575933446
1.8647812396766146 -0.7150324336505122 -0.09668024595569483
1.8740340206818062 -0.6981970614247779 -0.004241826712788462
1.7726644215528298 -0.9104211621247903 -0.5143046418735616
1.7193082099430719 -0.997711645585206 -0.5649061074950604
1.6596893312521834 -1.0821160952495488 -0.616420944632742
1.7698344677533415 -0.9190195052885611 -0.48017188667181854
1.7130228108001284 -1.0135101778886542 -0.46309216645331475
1.6558719899791527 -1.1010585858844897 -0.41553817542731014
1.601794398826068 -1.1846048340393431 -0.3561022167661632
1.4352164069528899 -1.3710484359152897 -0.5392342323913755
1.3620794445040347 -1.4426384394903868 -0.4797232882993493
1.289273555275394 -1.514721244117701 -0.41961589240532576
1.2134795825969984 -1.5822761925678026 -0.3596559462530889
1.4508656840724268 -1.3558600424967615 -0.5118728789219622
1.4126747494072736 -1.3936142365006978 -0.4061032529724353
1.3978119148292376 -1.4141658179622227 -0.2900193951966037
1.394492444631007 -1.4234532737388084 -0.17139609219266203
1.361283278691549 -1.4295054407779524 -0.9210039328210338
1.275577920010152 -1.5055194275581012 -0.9560929023905251
1.191643791914706 -1.5799348957892583 -0.9917974076721983
1.1009506926171375 -1.6417322914311157 -0.9974201981493669
1.3710500705452706 -1.4201445722363493 -0.9509659606996483
1.3131583454898592 -1.4701213413547836 -1.0412140448004878
1.2745903226607775 -1.501577336850801 -1.1464068946452224
0.7985066807394807 -1.8064796074812426 -1.1519331116146891
0.8049423199688421 -1.8050788487614442 -1.1296344829807927
0.8088580638649217 -1.8045331517363739 -1.1076115911989592
0.8131544902496474 -1.8038953101301638 -1.08452579707558
0.8051507506672938 -1.8053634869030017 -1.1198111975094287
0.82088820591035 -1.802197451541802 -1.058131194019012
0.8332238587984068 -1.7998078008914944 -0.9756530266243393
0.8513678154990059 -1.791462340279771 -0.8809886810133584
0.9499527950220369 -1.7005955223722653 -1.6254587891533383
0.9337681983023974 -1.7113030931448256 -1.596818661536471
0.7920041222512755 -1.7853180675329294 -1.6143940539453168
0.7918113862996458 -1.7868190873131382 -1.5954077859977938
0.7934600516188325 -1.7897678147403662 -1.5434899426059578
-0.6658390480517468 0.39551400253157576 -6.7536542436051255
-0.6045827296419443 0.3888414136001055 -6.8565154540782185
-0.5424667692433248 0.3797383507753139 -6.957310822728688
-0.503948873894898 0.35261750286540955 -7.0643112697653505
-0.6788203700796468 0.38035503315290436 -6.759957512214368
-0.6523795629300642 0.33855526368176897 -6.869099056926889
-0.644711038978533 0.2789441319738589 -6.9675482061316805
-0.6497550947695463 0.20599668380713143 -7.050105210715398
-0.04177223396133083 0.4574992382364811 -7.032663002820178
-0.11074602570129767 0.4656358926630499 -7.02272229741056
-0.007511118223347334 0.45346221750688187 -7.037587347341617
-0.045978079736077246 0.4579986195896174 -7.032047535458356
-0.09696324534041365 0.4640075380589754 -7.02471573690647
-0.33748114468955015 0.4319771028959191 -6.966760184606659
-0.32712810089525596 0.43386305148528803 -6.969413015401337
0.5754569734079817 0.22377231343933068 -7.115462694308335
0.532620519735928 0.14013795816489835 -7.2482275165582335
0.48276666501513255 0.08604097446150763 -7.3682686436405165
0.4277719258328491 0.050106145446418275 -7.45937658634915
0.5876323926298506 0.20721471709347594 -7.127056314573523
0.5770965811038896 0.11148641485430427 -7.251641804012787
0.5781984680180111 0.038780822909293015 -7.342183731994186
0.5875564017062538 -0.030869748374411525 -7.377407366238265
0.8484480772712211 -0.9271742339858691 -5.940949155007297
0.7645327193605846 -0.9957840258055066 -5.986356566323843
0.6742128366269261 -1.0520081379489055 -6.027708600701325
0.5708722870400991 -1.0830514316359299 -6.063080169678673
0.8533611400862259 -0.9082537586258939 -5.971907335733686
0.7893261456221725 -0.9381470272819123 -6.066664603950458
0.7230491775676194 -0.9454482297380185 -6.170178743860335
0.6741925291049976 -0.9324308938471277 -6.279729423930083
0.9267719879584863 -1.0259132337920351 -5.538526148100008
0.7846330199491014 -1.181621461927253 -5.450522616577356
0.7914451157239459 -1.188745668759652 -5.410109728255031
0.7940576974524511 -1.1898530897259754 -5.397690431655319
0.9103066161171949 -1.033989400167164 -5.564051589066364
0.7639804992949715 -1.1649618297219606 -5.535435748548237
0.7603810883581457 -1.159801273164633 -5.557426551559581
0.7463039905857565 -1.150522155891926 -5.608688683066274
1.0525922326869281 -0.3470590687330285 -6.408448634592435
1.0060153013233646 -0.32463227683923607 -6.515681024317187
0.9504056051161449 -0.34530495386246857 -6.62229219750716
0.8972600283837525 -0.36158968513175016 -6.7292363288007335
1.0547602933197886 -0.34888870146368917 -6.403102538727898
1.012062187688679 -0.32974179901390654 -6.50076740481639
0.9512933830197114 -0.40698394559941264 -6.592601086752187
0.8912870320909456 -0.47852726948096186 -6.664741140741411
1.0613258674651247 0.19947617695059255 -6.343455088433138
1.0627475858380673 0.19119600972126144 -6.349174575594977
1.0609243318816237 0.18335852582067905 -6.359337865326344
1.0590436147133764 0.17522035774066722 -6.369872355144466
1.0641084728430765 0.22022234148761488 -6.319615366168347
1.0213003072594837 -0.9540563943830781 -5.473429703639224
1.018175517191846 -0.9619957433292885 -5.455010307387547
-0.23046980126725758 0.5392006854580537 -6.711239502013126
-0.22036612376764925 0.5376989689313146 -6.720334144502895
-0.18810319823219981 0.5329201130844062 -6.749310457642863
-0.45805569915377253 0.5446317880527285 -6.490557748258093
-0.48059832125833996 0.5431064922376644 -6.467768454142739
0.8303682874638261 -1.2591795833778339 -5.005917930435862
0.7328190992936834 -1.3196612153779688 -5.040389036524213
0.6377184946349949 -1.363817641959753 -5.071719920055315
0.5347760240820238 -1.3928181767951124 -5.100281359870502
0.8376766140475342 -1.2460344520598596 -5.036682287845551
0.7607663568896383 -1.2789739499631685 -5.126219426066469
0.7078591737539561 -1.2849820218501782 -5.228407924154371
0.8131955933302228 -1.3454561039147508 -4.734381590618492
0.7208561424391485 -1.4075741774526904 -4.706629633729522
0.6226956514925194 -1.4582445421237107 -4.67584403919368
0.5294726776578476 -1.5065447055951666 -4.645740501921327
0.8276766247509878 -1.3436522848743302 -4.703357938797863
0.7715399645573566 -1.4024042999352642 -4.620644544770482
0.7347435767624038 -1.4395404958198785 -4.5191066525920425
0.7149405664946451 -1.4693677520438897 -4.411000230568131
0.6754473713270928 -1.595556121252086 -3.7984534139106008
0.5924224676673211 -1.6440433316469991 -3.731121359843657
0.505907437838099 -1.681616064264393 -3.661735250876215
0.4191872680997848 -1.711822770616229 -3.5907880416285445
0.6986939921567489 -1.5886910668732184 -3.7732219921990233
0.6653228948199278 -1.6203898254188003 -3.6648457181003495
0.6557815758751684 -1.6427289253823376 -3.545623802028073
0.6690178183990438 -1.6558055450793194 -3.426524510867633
0.5779240515314065 -1.834495198773941 -1.9826335448368824
0.4682050761951528 -1.8705919355756035 -1.9483122879958945
0.3609122417402405 -1.9005971234290706 -1.9123560793229684
0.2522257723092608 -1.916198190137165 -1.8743921339129397
0.6989161371622317 -1.7288646366744933 -2.78016439653706
0.6242081332348727 -1.7405205523003664 -2.8701898351961805
0.5001811101066088 -1.7678571025232992 -2.9681944213883846
0.40982391813250835 -1.784629194420188 -3.059845649019537
0.6783765779344708 -1.7400443606181328 -2.753532670030383
0.5703639690644794 -1.7649791207113499 -2.7863033706069276
0.45699445017180473 -1.791068766550787 -2.790335132200153
0.337702624042464 -1.8202094302292395 -2.761744076772461
1.0899180790428673 -1.5128329621035805 -2.790936763865262
1.1375979268108594 -1.4623820342136873 -2.8490207034993937
1.1910549903459717 -1.403670848996943 -2.912289247765541
1.248305422954373 -1.3408047703955361 -2.9799451575769775
1.1018940268526296 -1.5017100117206417 -2.8057258187280953
1.1566670768552718 -1.4414063021874903 -2.8718820099403115
1.2150508488309228 -1.3773044130266745 -2.9407986559180657
1.349652526009814 -1.2571741484985333 -2.8820341690594593
1.5612811981323185 -1.2408002883772677 -0.26330068327427514
1.5135575579428462 -1.2924137537348337 -0.16915289052242957
1.4859393302439154 -1.3194671521330663 -0.060225805434150986
1.5462546728337911 -1.2598999893603284 -0.28872756708442754
1.1232264631092348 -1.643313307797809 -0.3144896199432187
1.029659581648036 -1.7012827177874326 -0.2665681605258137
0.9361631069390784 -1.759178414164444 -0.2193974858591307
0.8404311087726638 -1.8057639835763177 -0.1739280100914341
1.1375905198385303 -1.6344293322285641 -0.2848754955577545
1.0787197813646079 -1.6737642518688556 -0.18737742555025724
1.0425281275737759 -1.6964877089500816 -0.0761511421229856
1.3889251556838755 -1.43391518553683 -0.05302343522407051
1.0172620524822917 -1.6939305396737232 -0.9523543932888446
1.0079730598330099 -1.697400483108068 -0.9836157820681188
0.869508723678558 -1.7831088050298636 -0.7867977286351028
0.8416199753212802 -1.8013269559038734 -0.672081964941688
0.8193943721783928 -1.8163607615916382 -0.5557959861739249
0.7990083519952589 -1.8271927549067726 -0.43885886229045934
0.872694206668583 -1.7816310628412522 -0.7707837830454772
0.8676970288494751 -1.786943020376016 -0.6513830020138084
0.883936809252891 -1.7787180058572452 -0.5334981566364211
0.9231925547878825 -1.758391874010959 -0.4222919707487567
0.794939679735227 -1.7916086638294757 -1.5078304155849616
0.7970149863752032 -1.7952011772325833 -1.444096564263953
0.7959095205867608 -1.793396830448206 -1.4765623358943574
-0.49715234383300855 0.2917187707566164 -7.156708085231955
-0.485657858735616 0.22707940988853986 -7.249844140137668
-0.47089548075622006 0.1652110229898041 -7.343792662797542
-0.49033581199580273 -0.0046475865096975814 -7.466008077898735
-0.47257714305790993 0.3092947079760181 -7.1667773246217035
-0.41816637310101173 0.2854984484679565 -7.2651792690199235
-0.34611189892204397 0.28234009226421514 -7.352511744173041
-0.25629160942171897 0.26276705545173135 -7.395056352362906
-0.7276837876922567 -0.025948915688596613 -7.169819440288372
0.3785754715642782 -0.023111200806627187 -7.556272490441064
0.31640167279967124 -0.01465604959065244 -7.6108213145875485
0.25092093920633646 -0.0013391151221312922 -7.669229563770375
0.3604273124977523 -0.023687658672093978 -7.571533879044268
0.28204046599924176 -0.006138513459784785 -7.641803321570058
0.5650102166039098 -0.10752617046402659 -7.370055213409704
0.5320601640968374 -0.18445848435021658 -7.373757345346769
0.49271382193790125 -0.23417677470313503 -7.396709289953037
0.44870451306934056 -0.2835375697304041 -7.425129050852056
0.5764836595277798 -0.10753001936619692 -7.356986454615205
0.5821411849705486 -0.164176547191405 -7.32563752667883
0.5999647370105143 -0.20142789169201064 -7.2889601667383515
0.5807049363960198 -0.3652739455898459 -7.238857440247151
0.48987194743395873 -1.0992763066806452 -6.118783517154263
0.486242336939759 -1.1095490040053106 -6.088338004877864
0.3512472988289498 -1.1644097749729267 -6.085166350892618
0.2513465247027414 -1.2096834349352399 -6.066547368753437
0.16369115736775852 -1.230681984528392 -6.034430660198967
0.6253907563070603 -0.9237822635339847 -6.3895503347195595
0.6217178522983389 -0.8786493343817432 -6.4987135609381195
0.600528578421083 -0.8471867846650166 -6.609708591760962
0.5752768512902056 -0.8032464428877426 -6.714015997799182
0.6510798452852163 -0.9018458257017761 -6.391142069840757
0.623229134119674 -0.8781133851476717 -6.497097160929733
0.602802228728396 -0.8495068118409265 -6.600191702278618
0.5821747757434392 -0.8136650982079879 -6.688717775806101
0.7977765673513857 -1.1912035930826683 -5.380952381099211
0.807550090928099 -1.1955741073852373 -5.333544574096215
0.8223085244327675 -1.2021618942670755 -5.262006212162189
0.7900389685906585 -1.1877238066343137 -5.418566641788023
0.6640187645420619 -1.167093901876694 -5.682701897687743
0.5836627942625423 -1.1802727799686212 -5.7574104155195025
0.5040425332634235 -1.186651772023236 -5.832186063128764
0.3621814174968194 -1.2255914116602429 -5.887988891379667
0.7288734632874165 -1.1394726350820865 -5.670760235419014
0.6412172736857568 -1.1603722532929497 -5.739260910480941
0.5648110039480344 -1.1670133741273048 -5.8165878958151085
0.5030260722513732 -1.1612884744400063 -5.904588192184479
0.8323285050864543 -0.38790022586546424 -6.834393791653983
0.7365634524445739 -0.45813790724111947 -6.9412044135139706
0.6958130146122677 -0.43164533764834845 -7.0406809058924225
0.8393731210355544 -0.36225530098263814 -6.834894502876629
0.7324943685587265 -0.45906301021513346 -6.9465115209470785
0.6900261394255504 -0.4295845827958366 -7.052602972030903
0.845595990209701 -0.5094399433119017 -6.695600745414872
0.8164703519000097 -0.5115100677032266 -6.7436882415295125
0.786149534775572 -0.5047682372731921 -6.801510519694284
0.6823945031314315 -0.6106883664997254 -6.8283730760140156
0.8374049127357873 -0.5015811804926696 -6.721993660354644
0.7952767754592258 -0.5032285425549112 -6.788912661125579
0.42463206337520915 -1.4261533599041027 -5.120302182526448
0.32003156417419487 -1.4553973428799367 -5.137959972869267
0.21204077516273964 -1.4690059521731316 -5.151743541132896
0.09869067952321878 -1.4778634610058605 -5.166607906998972
0.4254660480420822 -1.4332540509011276 -5.086544283677602
0.33242209876906537 -1.4753038379501804 -5.0399748105817945
0.2563305483519283 -1.507906018292473 -4.96491315992232
0.18738409329009967 -1.5323264252978266 -4.876368222875337
0.42931171855293493 -1.5368447729743768 -4.630478241335947
0.200787043916547 -1.5868905595509895 -4.6295569986453735
0.1945148580520551 -1.6017933950097292 -4.565051362221973
0.1797256083641649 -1.619199374773098 -4.48233650652816
0.4409265975555658 -1.5404412146129887 -4.597449357352126
0.19131832255878206 -1.6062129663378015 -4.546312456114201
0.17569156163895427 -1.6250763702616335 -4.449314873618551
0.1635051375167151 -1.6437154063078532 -4.343813670549436
0.6920218036128913 -1.5004142554905553 -4.301152560257558
0.6687600663416849 -1.5318664766571823 -4.18997442089747
0.6238632944041226 -1.5704308453246159 -4.088152797867556
0.555845595289192 -1.6159574321306045 -4.004183644504156
0.7234706578967139 -1.4871073112176973 -4.295986030008759
0.31148299282319925 -1.746447742359961 -3.5229340921681285
0.2825138821437576 -1.7495307854003557 -3.5480615816308654
0.24929078202964328 -1.7530083623359893 -3.5772837283741694
0.2123767625499229 -1.7546289375717046 -3.6129325516748985
0.3375876829685758 -1.7436920193652454 -3.500134855263851
0.35985976655499335 -1.7413944426710255 -3.480310393687733
0.3546214020989872 -1.75849541874 -3.3697861554270974
0.35811195029832643 -1.774857334026535 -3.2503696003203015
0.8091058397920642 -1.628557083200265 -3.1828833076624594
0.7880139479768806 -1.638585834070979 -3.1648878909894957
0.7670131388258294 -1.6484371484534186 -3.1478343529022554
0.7445507017121 -1.6589789204934706 -3.1295628605191497
0.6783867947199638 -1.6662054372988653 -3.3076535847593878
0.7363239246152117 -1.6627952600950615 -3.123157976146596
0.6759007259479759 -1.691241994728989 -3.0734302063349714
0.13893151534008522 -1.9313821731807013 -1.8526731218923636
0.02575001683257925 -1.9405338557289202 -1.830151124563574
-0.08905283572947231 -1.9360223712445288 -1.8063164877540763
-0.2021854808264808 -1.9316037534589232 -1.7823761291438345
0.1503259007838013 -1.931993065222667 -1.8194630481679959
0.06848989842672917 -1.947251861277073 -1.7377530963438153
0.01001165411577346 -1.9492601169965384 -1.6361828846487494
-0.03110176394457749 -1.9523783154677374 -1.5270844021815555
0.31959681699706055 -1.8006039769532516 -3.1016339035431346
0.23720469349048676 -1.803907919701741 -3.1388423962435166
0.10092363490710028 -1.8117535195609413 -3.167336831202537
-0.01253359957453577 -1.8195968971330954 -3.1728488446179677
0.3344757765793858 -1.7959300041991557 -3.13332835841647
0.223985710532316 -1.8479962865387047 -2.7343329018900286
0.11635652622631448 -1.8657908642761671 -2.706620535344889
0.007352268045851194 -1.8692275115788999 -2.679237238396382
-0.1205076114372622 -1.8668723218599377 -2.6434638713193244
0.23664346603162392 -1.8467357403079288 -2.7017446013606503
0.1619249079819307 -1.8693627948061955 -2.6166654769463626
0.11356303649863654 -1.8819747998329317 -2.5156457037453506
0.07821923816480791 -1.8873080169987035 -2.407272942093365
1.4135078809032644 -1.1855350829014886 -2.9487659038381215
1.4643084783085492 -1.1079732292465008 -3.0163713325259693
1.5101201709216867 -1.022835812372709 -3.081479416949395
1.4146445983900129 -1.1843392710918232 -2.9495248224341544
1.4646113444825855 -1.1072937147153294 -3.0174467869078634
1.509385697712042 -1.023970312626812 -3.081709781279619
0.7472513616685937 -1.84095634489045 -0.11212236370055621
0.6533248188022324 -1.8764277106642366 -0.04966732336178177
0.734805196399578 -1.8464530151468599 -0.14410585713675328
0.6263931599510714 -1.888876245031795 -0.14690938935334347
0.5211433734658822 -1.9224348533870839 -0.17932258350734528
0.41606428045406196 -1.9505797183699145 -0.2245349963997495
0.7378975575778145 -1.8491107426993474 -0.3395566448793392
0.7678279929810836 -1.8371223760361184 -0.3248225763903507
-0.4335680931093415 -0.06311000052831957 -7.507534943351857
-0.3703352254193617 -0.12836572988208805 -7.553775939684737
-0.29376182491705505 -0.18800131799184094 -7.57804343155965
-0.21383437264867722 -0.2331048671914538 -7.578753846515774
-0.4243115597492117 -0.03886908051328397 -7.51812221825592
-0.3569131294136041 -0.02992741655500317 -7.576278261089429
-0.17588233064674885 0.24777458880853404 -7.429723479559008
-0.07634543910568613 0.23096497280628311 -7.470770099755314
0.019666064050589068 0.21533018705825843 -7.503594308035917
0.12243796384231868 0.1901736509369817 -7.524144982074382
-0.16637539453522465 0.2679867457914292 -7.410356594395509
-0.07032755730565951 0.2871519087178605 -7.412195276892145
0.013906807873117558 0.31510802858927367 -7.3958058817270125
0.09714886694324802 0.3357909750870569 -7.356306353647358
0.40368969032871316 -0.33989526690161 -7.446364990449834
0.32144187664655066 -0.38023468148574885 -7.460661287157618
0.22693626153528162 -0.4184930799449482 -7.455479937967985
0.13663687979165565 -0.47228908756518473 -7.43428175442476
0.3880887294434592 -0.33292941951595434 -7.468837020644431
0.6345559518748722 -0.3984680788044475 -7.162932340827965
0.6304053645640916 -0.39605752774151537 -7.168719270098847
0.0698263548727627 -1.2373826006034994 -6.009891969519139
-0.1141861887181884 -1.2234403537652632 -6.052480506357816
-0.17597441183040916 -1.2414104707190916 -5.9909125586663805
-0.23645518959970194 -1.260186699393564 -5.926673854492975
0.07847631206158338 -1.2471286196332676 -5.981961634450525
-0.13784729581690153 -1.2307787923708704 -6.027373151804572
-0.21687766741434034 -1.2540387842993388 -5.947702542308278
-0.27312392365975563 -1.2702743379010326 -5.869706041745659
0.5291910784283017 -0.7676282099518124 -6.82057996896176
0.48225213750201845 -0.7324431015638249 -6.926927033966853
0.4334377739694722 -0.6959893200271859 -7.0311276552874045
0.361442057775745 -0.6686067804039314 -7.1195427414666925
0.5045386622748872 -0.7865594360550349 -6.807787871964654
0.41631756052186575 -0.7886579801375581 -6.882638994779016
0.3111543702539122 -0.81451341275906 -6.927471142564544
0.2039527270534894 -0.8403846327710414 -6.958283157178692
0.268969327576787 -1.2623389054444023 -5.886054318818913
0.17947947558901828 -1.2802196907332153 -5.872357907368297
0.05197761763327324 -1.302873581019143 -5.826341939274333
-0.04062243908899937 -1.3254928186826715 -5.757284845060441
-0.017527058715292542 -1.48553017942004 -5.163419148709402
-0.13383116407597254 -1.4762716349792369 -5.155643396792565
-0.2473922845426577 -1.4631248135536095 -5.148354973704075
-0.36167639703190735 -1.4440892166866834 -5.138836107074591
-0.013568790253332071 -1.4774762692533363 -5.197165774084527
-0.11166787117046933 -1.4539755829031056 -5.253383790771765
-0.18660206643862992 -1.427156764971962 -5.331803017326614
-0.25129533298067325 -1.3990667672101968 -5.4188994843046006
-0.07592942843948808 -1.5670061794878065 -4.775132041303067
-0.06950149230745269 -1.579517195718611 -4.702586303386916
-0.2080775798452909 -1.5813430914518394 -4.638542908523129
-0.20757855527239447 -1.5919009583139216 -4.5922153910279055
0.21537884589765421 -1.5560071103890931 -4.7627672534713765
0.09857816114388268 -1.6644116649294074 -4.243814000698947
0.037640088765067366 -1.6822550608269289 -4.144005602391491
-0.017399871001354848 -1.6934694919233004 -4.043526148267741
-0.06527944221234414 -1.7062135401892942 -3.9444639534503856
0.1302421225730217 -1.6672186439017986 -4.230222553282674
0.1308770150527011 -1.6857170511818975 -4.11264153927644
0.16082169165892085 -1.6985772704491278 -3.998320651209001
0.21528983470951077 -1.705976500237333 -3.8928308599898105
0.45363530476319075 -1.6459262959928678 -3.9618253960623133
0.3499010655112546 -1.6739665104043988 -3.9174334180920503
0.4718547293944697 -1.647037625166878 -3.9316245360331723
0.41185000646351866 -1.6754194884437312 -3.836950317249297
0.17503550109706437 -1.7501088569109813 -3.6430902895155968
0.11866856755466737 -1.7432970392073281 -3.688519089219467
0.04884600698326918 -1.7348542771586368 -3.7448331714995033
-0.078392157906008 -1.7296373139692498 -3.7622273390790006
0.15269251410487528 -1.7473474189025044 -3.6616116817289788
0.0806117099476395 -1.7386372304982005 -3.7196998812365862
-0.04476020857466348 -1.7370648671037834 -3.706932554415725
-0.15243622126609685 -1.7401104429865444 -3.6591215749676618
-0.30484088725404285 -1.9182321493184622 -1.739961625148406
-0.4067116104520573 -1.8961057162991786 -1.6959052931035872
-0.5134277535140138 -1.8737056817453335 -1.6513078984566585
-0.6208484014731255 -1.8511762767931472 -1.606236912324157
-0.3111576048814008 -1.9138059016797868 -1.7744942809805768
-0.41440866862225295 -1.884326132047795 -1.79890323111686
-0.5135060779198453 -1.853446334312727 -1.8549064349974413
-0.6071084001193137 -1.8231545511371363 -1.921967518935023
-0.037366581605736436 -1.958144519287155 -1.4095758909224552
-0.04133721345661428 -1.9630891458347859 -1.2925468821960309
-0.06470801201686982 -1.965956150862413 -1.169102076163563
-0.08399044713929132 -1.971841511947138 -1.0457043468853209
-0.06949070673771746 -1.9563254005843813 -1.418372316222342
-0.1528391042401215 -1.9577338750494055 -1.3218282465863158
-0.24668942629037185 -1.95744075336015 -1.2497199460048751
-0.3451791644437508 -1.9359542669665122 -1.2034957707332832
-0.10982322934987625 -1.8126490963158137 -3.18125311891811
-0.40609150221619156 -1.7722663778594292 -3.1934284505012505
-0.40622132467798 -1.7710086051997649 -3.2066376103036958
-0.4060757699737527 -1.7698390418404188 -3.219427746143211
-0.09648277200051057 -1.8190257753396313 -3.1476646750355646
-0.10722766410136016 -1.8277846871053838 -3.0799950145197847
-0.12141194284027053 -1.839175358046129 -2.991836660852063
-0.13879998053917322 -1.8480132892066126 -2.892415630103872
-0.24433635513601634 -1.863230144436625 -2.6274906745411726
-0.35219762736841564 -1.8427211040348557 -2.6123483560039755
-0.4406493426774527 -1.822352108439644 -2.600490190496592
-0.5558668272741814 -1.7958623336250386 -2.5844745095813106
-0.23510792423723834 -1.8665593282727975 -2.5938929789612595
-0.31906737015182374 -1.857667736293397 -2.5175693664818253
-0.3679355086978859 -1.8528551674976128 -2.42356092197912
-0.418194748204099 -1.8486027801007112 -2.3173616153735934
0.026521604252456577 -1.893282842862239 -2.2992844723214447
-0.027062605102575604 -1.8993340488085229 -2.1912749154555216
-0.08125966875346408 -1.9129862622749418 -2.080148676793903
-0.15143623504512171 -1.9221380007441908 -1.9833339101491436
0.07191794168913812 -1.8918910324282772 -2.2874478463223245
0.09795062304715063 -1.8950619265252484 -2.170835447009967
0.1521664066672749 -1.9061137987383863 -2.064751652803987
0.3042762414532258 -1.9695079609142823 -0.2590553614595084
0.19560045492693803 -1.9811744727260128 -0.2926619947269829
0.09147483051529215 -1.9822543881820973 -0.3253644498014865
-0.17649073958551897 -1.9867732846231703 -0.30828858317750196
0.31906876722037664 -1.968582641625165 -0.2909254861421025
0.24549120404630284 -1.9757551142579655 -0.38033151912162394
0.19939286388260227 -1.9775108158252093 -0.4875099683991965
0.17010077048704317 -1.979420666656754 -0.599343820499712
-0.14614463985594495 -0.289889740023074 -7.569822948882147
-0.06858665471949534 -0.34877871040606506 -7.547542841004456
0.010242084459338144 -0.40761209036741297 -7.5175316726946715
-0.13338407774523617 -0.26523503185364083 -7.579150834123399
-0.04166756318392839 -0.26354202476817384 -7.579791368000228
0.04992684976430786 -0.23489100872965438 -7.590631220081052
0.12350853767420597 -0.09224593161106981 -7.644599691354268
0.18506624717819475 0.17271548331002753 -7.517830915466561
0.16900338068592916 0.3561056623961723 -7.2836617271145006
0.1987602019054143 0.4024563843755772 -7.144208637714269
0.2866088835516518 0.4183245983623557 -7.081248311613539
0.3592386396643549 0.42437983805004414 -7.019446549116358
0.17559107859318204 0.3480460209701432 -7.29963770575663
0.2497631830319931 0.3295427506168036 -7.254050363041452
0.26276744133911356 0.4141838331871319 -7.097857436760131</DataArray></Points><Cells><DataArray type="Int32" Name="connectivity" Format="ascii">0 1
1 2
2 3
3 4
4 5
5 6
6 7
7 8
8 9
7 10
10 11
9 12
12 13
13 14
14 15
9 16
16 17
17 18
18 19
11 20
20 21
21 22
22 23
11 24
24 25
25 26
26 27
15 28
28 29
29 30
30 31
15 32
32 33
33 34
34 35
19 36
36 37
37 38
38 39
19 40
40 41
27 42
42 43
43 44
44 45
27 46
46 47
47 48
48 49
31 50
50 51
51 52
52 53
31 54
54 55
55 56
56 57
35 58
58 59
35 60
60 61
61 62
62 63
39 64
39 65
45 66
66 67
67 68
68 69
45 70
70 71
71 72
72 73
49 74
74 75
75 76
76 77
49 78
78 79
79 80
80 81
53 82
82 83
83 84
84 85
53 86
86 87
87 88
88 89
57 90
90 91
91 92
92 93
57 94
94 95
95 96
96 97
63 98
63 99
69 100
100 101
101 102
102 103
69 104
104 105
105 106
106 107
73 108
108 109
109 110
110 111
73 112
112 113
113 114
114 115
77 116
116 117
117 118
77 119
119 120
120 121
121 122
81 123
123 124
81 125
125 126
85 127
127 128
128 129
129 130
85 131
131 132
132 133
133 134
89 135
135 136
136 137
137 138
89 139
139 140
140 141
141 142
93 143
143 144
144 145
145 146
93 147
147 148
148 149
149 150
103 151
151 152
152 153
103 154
154 155
155 156
156 157
107 158
158 159
159 160
160 161
107 162
162 163
163 164
164 165
111 166
166 167
167 168
168 169
111 170
170 171
171 172
172 173
115 174
115 175
122 176
122 177
177 178
178 179
179 180
130 181
181 182
182 183
183 184
130 185
185 186
186 187
187 188
134 189
189 190
190 191
191 192
134 193
193 194
194 195
195 196
138 197
197 198
198 199
199 200
138 201
201 202
142 203
203 204
204 205
205 206
142 207
207 208
146 209
209 210
210 211
211 212
146 213
213 214
214 215
215 216
150 217
217 218
218 219
219 220
150 221
221 222
222 223
223 224
157 225
225 226
226 227
227 228
157 229
229 230
230 231
231 232
161 233
233 234
234 235
235 236
161 237
237 238
238 239
239 240
165 241
241 242
165 243
243 244
244 245
245 246
180 247
247 248
180 249
184 250
250 251
251 252
252 253
184 254
254 255
255 256
256 257
188 258
258 259
259 260
260 261
188 262
262 263
263 264
264 265
192 266
266 267
267 268
268 269
192 270
270 271
271 272
272 273
200 274
206 275
275 276
276 277
277 278
212 279
279 280
280 281
281 282
212 283
283 284
284 285
285 286
216 287
220 288
288 289
289 290
290 291
220 292
292 293
293 294
294 295
224 296
296 297
297 298
298 299
224 300
300 301
301 302
302 303
228 304
304 305
305 306
306 307
228 308
308 309
309 310
310 311
232 312
312 313
313 314
314 315
232 316
316 317
317 318
318 319
253 320
320 321
321 322
322 323
253 324
324 325
325 326
326 327
257 328
328 329
329 330
330 331
257 332
332 333
333 334
334 335
261 336
336 337
337 338
338 339
261 340
340 341
341 342
342 343
265 344
344 345
345 346
346 347
273 348
348 349
349 350
350 351
273 352
352 353
353 354
354 355
278 356
356 357
357 358
358 359
278 360
360 361
361 362
362 363
282 364
364 365
365 366
366 367
282 368
368 369
369 370
370 371
286 372
372 373
373 374
374 375
291 376
376 377
377 378
378 379
291 380
380 381
381 382
382 383
295 384
384 385
385 386
386 387
295 388
299 389
307 390
390 391
391 392
392 393
307 394
394 395
395 396
396 397
315 398
398 399
399 400
400 401
315 402
402 403
403 404
404 405
323 406
406 407
407 408
408 409
323 410
410 411
411 412
331 413
413 414
414 415
415 416
331 417
417 418
335 419
335 420
420 421
421 422
422 423
339 424
424 425
425 426
426 427
339 428
428 429
429 430
430 431
343 432
432 433
433 434
434 435
343 436
436 437
437 438
438 439
351 440
440 441
441 442
442 443
351 444
444 445
445 446
446 447
355 448
448 449
449 450
355 451
451 452
452 453
453 454
359 455
455 456
456 457
457 458
363 459
459 460
460 461
461 462
363 463
463 464
464 465
465 466
367 467
467 468
468 469
469 470
367 471
471 472
472 473
473 474
371 475
475 476
476 477
477 478
371 479
479 480
480 481
481 482
375 483
483 484
484 485
485 486
375 487
487 488
379 489
489 490
490 491
491 492
379 493
493 494
494 495
495 496
383 497
497 498
498 499
499 500
383 501
501 502
502 503
503 504
393 505
505 506
506 507
507 508
393 509
509 510
510 511
511 512
397 513
401 514
514 515
515 516
516 517
401 518
518 519
519 520
520 521
409 522
522 523
523 524
524 525
409 526
526 527
527 528
528 529
416 530
530 531
531 532
532 533
416 534
534 535
535 536
536 537
423 538
538 539
539 540
540 541
423 542
542 543
543 544
544 545
427 546
546 547
547 548
548 549
427 550
431 551
551 552
552 553
553 554
431 555
555 556
556 557
557 558
443 559
559 560
560 561
561 562
443 563
563 564
564 565
565 566
447 567
567 568
568 569
569 570
458 571
462 572
572 573
573 574
574 575
462 576
576 577
577 578
578 579
470 580
470 581
581 582
478 583
583 584
584 585
585 586
478 587
587 588
588 589
589 590
486 591
486 592
492 593
593 594
594 595
595 596
492 597
597 598
598 599
599 600
496 601
601 602
602 603
603 604
496 605
605 606
500 607
607 608
608 609
609 610
500 611
611 612
612 613
613 614
504 615
504 616
616 617
617 618
618 619
508 620
620 621
621 622
622 623
508 624
624 625
625 626
626 627
512 628
628 629
629 630
512 631
631 632
632 633
633 634
517 635
635 636
517 637
521 638
638 639
639 640
640 641
521 642
642 643
643 644
644 645
525 646
646 647
647 648
648 649
525 650
650 651
651 652
652 653
529 654
654 655
529 656
656 657
657 658
658 659
533 660
660 661
661 662
662 663
533 664
664 665
665 666
666 667
537 668
668 669
669 670
670 671
541 672
541 673
673 674
674 675
545 676
676 677
677 678
678 679
545 680
680 681
681 682
682 683
554 684
684 685
685 686
686 687
554 688
688 689
689 690
558 691
691 692
692 693
693 694
558 695
695 696
696 697
562 698
562 699
699 700
700 701
701 702
566 703
703 704
704 705
566 706
706 707
570 708
708 709
709 710
710 711
570 712
712 713
575 714
714 715
715 716
716 717
575 718
718 719
719 720
720 721
586 722
722 723
586 724
724 725
725 726
590 727
727 728
728 729
729 730
590 731
731 732
732 733
733 734
596 735
735 736
736 737
737 738
596 739
739 740
740 741
741 742
600 743
743 744
744 745
745 746
600 747
747 748
748 749
749 750
604 751
751 752
752 753
753 754
604 755
755 756
756 757
757 758
610 759
759 760
760 761
761 762
610 763
763 764
764 765
765 766
614 767
767 768
614 769
769 770
623 771
771 772
623 773
773 774
774 775
775 776
627 777
777 778
627 779
779 780
641 781
781 782
782 783
783 784
641 785
785 786
786 787
649 788
788 789
789 790
790 791
649 792
792 793
793 794
794 795
653 796
796 797
797 798
798 799
653 800
800 801
801 802
802 803
659 804
663 805
805 806
806 807
807 808
663 809
809 810
810 811
811 812
667 813
813 814
814 815
815 816
667 817
817 818
818 819
819 820
671 821
821 822
671 823
823 824
679 825
825 826
826 827
827 828
679 829
829 830
687 831
831 832
832 833
833 834
687 835
694 836
836 837
837 838
838 839
694 840
840 841
841 842
842 843
702 844
844 845
845 846
846 847
702 848
848 849
849 850
850 851
711 852
852 853
853 854
854 855
711 856
717 857
857 858
858 859
859 860
721 861
861 862
862 863
721 864
864 865
865 866
730 867
867 868
868 869
869 870
730 871
871 872
872 873
873 874
734 875
875 876
876 877
877 878
734 879
879 880
880 881
881 882
742 883
746 884
884 885
746 886
886 887
750 888
888 889
889 890
750 891
891 892
892 893
893 894
754 895
895 896
896 897
897 898
754 899
899 900
900 901
901 902
758 903
903 904
904 905
905 906
758 907
907 908
908 909
762 910
910 911
911 912
912 913
762 914
914 915
915 916
916 917
766 918
766 919
919 920
920 921
921 922
776 923
923 924
924 925
925 926
776 927
927 928
928 929
929 930
791 931
931 932
791 933
933 934
934 935
795 936
795 937
803 938
938 939
939 940
940 941
803 942
942 943
943 944
944 945
808 946
946 947
947 948
948 949
808 950
950 951
951 952
952 953
812 954
954 955
955 956
956 957
812 958
958 959
959 960
960 961
816 962
962 963
963 964
964 965
816 966
966 967
967 968
968 969
820 970
970 971
971 972
972 973
820 974
828 975
828 976
839 977
977 978
978 979
843 980
843 981
847 982
982 983
983 984
984 985
847 986
986 987
987 988
851 989
989 990
990 991
991 992
851 993
993 994
994 995
995 996
860 997
997 998
998 999
999 1000
860 1001
1001 1002
1002 1003
1003 1004
870 1005
1005 1006
1006 1007
1007 1008
878 1009
1009 1010
1010 1011
1011 1012
878 1013
1013 1014
1014 1015
1015 1016
882 1017
1017 1018
1018 1019
1019 1020
882 1021
1021 1022
1022 1023
1023 1024
894 1025
1025 1026
1026 1027
894 1028
898 1029
1029 1030
1030 1031
1031 1032
898 1033
1033 1034
1034 1035
902 1036
906 1037
906 1038
917 1039
1039 1040
1040 1041
1041 1042
917 1043
1043 1044
1044 1045
1045 1046
922 1047
1047 1048
922 1049
926 1050
1050 1051
1051 1052
1052 1053
926 1054
1054 1055
1055 1056
1056 1057
930 1058
941 1059
1059 1060
1060 1061
941 1062
1062 1063
945 1064
1064 1065
1065 1066
1066 1067
945 1068
1068 1069
1069 1070
1070 1071
949 1072
949 1073
1073 1074
1074 1075
1075 1076
953 1077
1077 1078
1078 1079
1079 1080
953 1081
1081 1082
1082 1083
1083 1084
957 1085
1085 1086
1086 1087
957 1088
961 1089
1089 1090
1090 1091
1091 1092
961 1093
1093 1094
1094 1095
1095 1096
965 1097
1097 1098
1098 1099
965 1100
1100 1101
1101 1102
969 1103
1103 1104
1104 1105
1105 1106
969 1107
1107 1108
985 1109
1109 1110
1110 1111
1111 1112
985 1113
1113 1114
1114 1115
1115 1116
992 1117
1117 1118
1118 1119
1119 1120
992 1121
1121 1122
1122 1123
1123 1124
996 1125
1125 1126
1126 1127
1127 1128
996 1129
1000 1130
1130 1131
1131 1132
1132 1133
1000 1134
1134 1135
1135 1136
1136 1137
1004 1138
1138 1139
1139 1140
1140 1141
1004 1142
1142 1143
1143 1144
1008 1145
1145 1146
1146 1147
1147 1148
1008 1149
1149 1150
1150 1151
1151 1152
1012 1153
1153 1154
1154 1155
1155 1156
1012 1157
1016 1158
1158 1159
1159 1160
1160 1161
1016 1162
1162 1163
1163 1164
1164 1165
1024 1166
1166 1167
1167 1168
1024 1169
1169 1170
1170 1171
1032 1172
1172 1173
1032 1174
1174 1175
1175 1176
1176 1177
1042 1178
1042 1179
1053 1180
1180 1181
1181 1182
1182 1183
1053 1184
1184 1185
1057 1186
1186 1187
1187 1188
1188 1189
1057 1190
1190 1191
1191 1192
1192 1193
1067 1194
1194 1195
1195 1196
1196 1197
1067 1198
1071 1199
1071 1200
1076 1201
1201 1202
1202 1203
1203 1204
1076 1205
1205 1206
1206 1207
1207 1208
1080 1209
1209 1210
1210 1211
1211 1212
1080 1213
1213 1214
1214 1215
1215 1216
1092 1217
1217 1218
1218 1219
1219 1220
1112 1221
1221 1222
1222 1223
1223 1224
1112 1225
1225 1226
1226 1227
1227 1228
1116 1229
1229 1230
1230 1231
1231 1232
1116 1233
1124 1234
1234 1235
1235 1236
1236 1237
1124 1238
1238 1239
1239 1240
1240 1241
1128 1242
1242 1243
1128 1244
1244 1245
1133 1246
1246 1247
1247 1248
1248 1249
1133 1250
1250 1251
1251 1252
1252 1253
1148 1254
1254 1255
1255 1256
1256 1257
1148 1258
1258 1259
1259 1260
1260 1261
1152 1262
1262 1263
1263 1264
1264 1265
1152 1266
1266 1267
1267 1268
1268 1269
1156 1270
1270 1271
1271 1272
1272 1273
1156 1274
1274 1275
1275 1276
1276 1277
1161 1278
1278 1279
1279 1280
1280 1281
1161 1282
1282 1283
1283 1284
1284 1285
1165 1286
1286 1287
1287 1288
1288 1289
1165 1290
1290 1291
1291 1292
1177 1293
1293 1294
1294 1295
1295 1296
1177 1297
1297 1298
1298 1299
1299 1300
1183 1301
1301 1302
1302 1303
1183 1304
1304 1305
1305 1306
1306 1307
1189 1308
1193 1309
1309 1310
1310 1311
1311 1312
1193 1313
1313 1314
1314 1315</DataArray><DataArray Name="types" Format="ascii" type="Int32">3
3
3
3
3
3
3
3
3
3
3
3
3
3
3
3
3
3
3
3
3
3
3
3
3
3
3
3
3
3
3
3
3
3
3
3
3
3
3
3
3
3
3
3
3
3
3
3
3
3
3
3
3
3
3
3
3
3
3
3
3
3
3
3
3
3
3
3
3
3
3
3
3
3
3
3
3
3
3
3
3
3
3
3
3
3
3
3
3
3
3
3
3
3
3
3
3
3
3
3
3
3
3
3
3
3
3
3
3
3
3
3
3
3
3
3
3
3
3
3
3
3
3
3
3
3
3
3
3
3
3
3
3
3
3
3
3
3
3
3
3
3
3
3
3
3
3
3
3
3
3
3
3
3
3
3
3
3
3
3
3
3
3
3
3
3
3
3
3
3
3
3
3
3
3
3
3
3
3
3
3
3
3
3
3
3
3
3
3
3
3
3
3
3
3
3
3
3
3
3
3
3
3
3
3
3
3
3
3
3
3
3
3
3
3
3
3
3
3
3
3
3
3
3
3
3
3
3
3
3
3
3
3
3
3
3
3
3
3
3
3
3
3
3
3
3
3
3
3
3
3
3
3
3
3
3
3
3
3
3
3
3
3
3
3
3
3
3
3
3
3
3
3
3
3
3
3
3
3
3
3
3
3
3
3
3
3
3
3
3
3
3
3
3
3
3
3
3
3
3
3
3
3
3
3
3
3
3
3
3
3
3
3
3
3
3
3
3
3
3
3
3
3
3
3
3
3
3
3
3
3
3
3
3
3
3
3
3
3
3
3
3
3
3
3
3
3
3
3
3
3
3
3
3
3
3
3
3
3
3
3
3
3
3
3
3
3
3
3
3
3
3
3
3
3
3
3
3
3
3
3
3
3
3
3
3
3
3
3
3
3
3
3
3
3
3
3
3
3
3
3
3
3
3
3
3
3
3
3
3
3
3
3
3
3
3
3
3
3
3
3
3
3
3
3
3
3
3
3
3
3
3
3
3
3
3
3
3
3
3
3
3
3
3
3
3
3
3
3
3
3
3
3
3
3
3
3
3
3
3
3
3
3
3
3
3
3
3
3
3
3
3
3
3
3
3
3
3
3
3
3
3
3
3
3
3
3
3
3
3
3
3
3
3
3
3
3
3
3
3
3
3
3
3
3
3
3
3
3
3
3
3
3
3
3
3
3
3
3
3
3
3
3
3
3
3
3
3
3
3
3
3
3
3
3
3
3
3
3
3
3
3
3
3
3
3
3
3
3
3
3
3
3
3
3
3
3
3
3
3
3
3
3
3
3
3
3
3
3
3
3
3
3
3
3
3
3
3
3
3
3
3
3
3
3
3
3
3
3
3
3
3
3
3
3
3
3
3
3
3
3
3
3
3
3
3
3
3
3
3
3
3
3
3
3
3
3
3
3
3
3
3
3
3
3
3
3
3
3
3
3
3
3
3
3
3
3
3
3
3
3
3
3
3
3
3
3
3
3
3
3
3
3
3
3
3
3
3
3
3
3
3
3
3
3
3
3
3
3
3
3
3
3
3
3
3
3
3
3
3
3
3
3
3
3
3
3
3
3
3
3
3
3
3
3
3
3
3
3
3
3
3
3
3
3
3
3
3
3
3
3
3
3
3
3
3
3
3
3
3
3
3
3
3
3
3
3
3
3
3
3
3
3
3
3
3
3
3
3
3
3
3
3
3
3
3
3
3
3
3
3
3
3
3
3
3
3
3
3
3
3
3
3
3
3
3
3
3
3
3
3
3
3
3
3
3
3
3
3
3
3
3
3
3
3
3
3
3
3
3
3
3
3
3
3
3
3
3
3
3
3
3
3
3
3
3
3
3
3
3
3
3
3
3
3
3
3
3
3
3
3
3
3
3
3
3
3
3
3
3
3
3
3
3
3
3
3
3
3
3
3
3
3
3
3
3
3
3
3
3
3
3
3
3
3
3
3
3
3
3
3
3
3
3
3
3
3
3
3
3
3
3
3
3
3
3
3
3
3
3
3
3
3
3
3
3
3
3
3
3
3
3
3
3
3
3
3
3
3
3
3
3
3
3
3
3
3
3
3
3
3
3
3
3
3
3
3
3
3
3
3
3
3
3
3
3
3
3
3
3
3
3
3
3
3
3
3
3
3
3
3
3
3
3
3
3
3
3
3
3
3
3
3
3
3
3
3
3
3
3
3
3
3
3
3
3
3
3
3
3
3
3
3
3
3
3
3
3
3
3
3
3
3
3
3
3
3
3
3
3
3
3
3
3
3
3
3
3
3
3
3
3
3
3
3
3
3
3
3
3
3
3
3
3
3
3
3
3
3
3
3
3
3
3
3
3
3
3
3
3
3
3
3
3
3
3
3
3
3
3
3
3
3
3
3
3
3
3
3
3
3
3
3
3
3
3
3
3
3
3
3
3
3
3
3
3
3
3
3
3
3
3
3
3
3
3
3
3
3
3
3
3
3
3
3
3
3
3
3
3
3
3
3
3
3
3
3
3
3
3
3
3
3
3
3
3
3
3
3
3
3
3
3
3
3
3
3
3
3
3
3
3
3
3
3
3
3
3
3
3
3
3
3
3
3
3
3
3
3
3
3
3
3
3
3
3
3
3
3
3
3
3
3
3
3
3
3
3
3
3
3
3
3
3
3
3
3
3
3
3
3
3
3
3
3
3
3
3
3
3
3
3
3
3
3
3
3
3
3
3
3
3
3
3
3
3
3
3
3
3
3
3
3
3
3
3
3
3
3
3
3
3
3
3
3
3
3
3
3
3
3
3
3
3
3
3
3
3
3
3
3
3
3
3
3
3
3
3
3
3
3
3
3
3
3
3
3
3
3
3
3
3
3
3
3
3
3
3
3
3
3
3
3
3
3
3
3
3
3
3
3
3
3
3
3
3
3
3
3
3
3
3
3
3
3
3
3
3
3
3
3
3
3
3
3
3
3
3
3
3
3
3
3
3
3
3
3
3
3
3
3
3
3
3
3</DataArray><DataArray Name="offsets" type="Int32" Format="ascii">2
4
6
8
10
12
14
16
18
20
22
24
26
28
30
32
34
36
38
40
42
44
46
48
50
52
54
56
58
60
62
64
66
68
70
72
74
76
78
80
82
84
86
88
90
92
94
96
98
100
102
104
106
108
110
112
114
116
118
120
122
124
126
128
130
132
134
136
138
140
142
144
146
148
150
152
154
156
158
160
162
164
166
168
170
172
174
176
178
180
182
184
186
188
190
192
194
196
198
200
202
204
206
208
210
212
214
216
218
220
222
224
226
228
230
232
234
236
238
240
242
244
246
248
250
252
254
256
258
260
262
264
266
268
270
272
274
276
278
280
282
284
286
288
290
292
294
296
298
300
302
304
306
308
310
312
314
316
318
320
322
324
326
328
330
332
334
336
338
340
342
344
346
348
350
352
354
356
358
360
362
364
366
368
370
372
374
376
378
380
382
384
386
388
390
392
394
396
398
400
402
404
406
408
410
412
414
416
418
420
422
424
426
428
430
432
434
436
438
440
442
444
446
448
450
452
454
456
458
460
462
464
466
468
470
472
474
476
478
480
482
484
486
488
490
492
494
496
498
500
502
504
506
508
510
512
514
516
518
520
522
524
526
528
530
532
534
536
538
540
542
544
546
548
550
552
554
556
558
560
562
564
566
568
570
572
574
576
578
580
582
584
586
588
590
592
594
596
598
600
602
604
606
608
610
612
614
616
618
620
622
624
626
628
630
632
634
636
638
640
642
644
646
648
650
652
654
656
658
660
662
664
666
668
670
672
674
676
678
680
682
684
686
688
690
692
694
696
698
700
702
704
706
708
710
712
714
716
718
720
722
724
726
728
730
732
734
736
738
740
742
744
746
748
750
752
754
756
758
760
762
764
766
768
770
772
774
776
778
780
782
784
786
788
790
792
794
796
798
800
802
804
806
808
810
812
814
816
818
820
822
824
826
828
830
832
834
836
838
840
842
844
846
848
850
852
854
856
858
860
862
864
866
868
870
872
874
876
878
880
882
884
886
888
890
892
894
896
898
900
902
904
906
908
910
912
914
916
918
920
922
924
926
928
930
932
934
936
938
940
942
944
946
948
950
952
954
956
958
960
962
964
966
968
970
972
974
976
978
980
982
984
986
988
990
992
994
996
998
1000
1002
1004
1006
1008
1010
1012
1014
1016
1018
1020
1022
1024
1026
1028
1030
1032
1034
1036
1038
1040
1042
1044
1046
1048
1050
1052
1054
1056
1058
1060
1062
1064
1066
1068
1070
1072
1074
1076
1078
1080
1082
1084
1086
1088
1090
1092
1094
1096
1098
1100
1102
1104
1106
1108
1110
1112
1114
1116
1118
1120
1122
1124
1126
1128
1130
1132
1134
1136
1138
1140
1142
1144
1146
1148
1150
1152
1154
1156
1158
1160
1162
1164
1166
1168
1170
1172
1174
1176
1178
1180
1182
1184
1186
1188
1190
1192
1194
1196
1198
1200
1202
1204
1206
1208
1210
1212
1214
1216
1218
1220
1222
1224
1226
1228
1230
1232
1234
1236
1238
1240
1242
1244
1246
1248
1250
1252
1254
1256
1258
1260
1262
1264
1266
1268
1270
1272
1274
1276
1278
1280
1282
1284
1286
1288
1290
1292
1294
1296
1298
1300
1302
1304
1306
1308
1310
1312
1314
1316
1318
1320
1322
1324
1326
1328
1330
1332
1334
1336
1338
1340
1342
1344
1346
1348
1350
1352
1354
1356
1358
1360
1362
1364
1366
1368
1370
1372
1374
1376
1378
1380
1382
1384
1386
1388
1390
1392
1394
1396
1398
1400
1402
1404
1406
1408
1410
1412
1414
1416
1418
1420
1422
1424
1426
1428
1430
1432
1434
1436
1438
1440
1442
1444
1446
1448
1450
1452
1454
1456
1458
1460
1462
1464
1466
1468
1470
1472
1474
1476
1478
1480
1482
1484
1486
1488
1490
1492
1494
1496
1498
1500
1502
1504
1506
1508
1510
1512
1514
1516
1518
1520
1522
1524
1526
1528
1530
1532
1534
1536
1538
1540
1542
1544
1546
1548
1550
1552
1554
1556
1558
1560
1562
1564
1566
1568
1570
1572
1574
1576
1578
1580
1582
1584
1586
1588
1590
1592
1594
1596
1598
1600
1602
1604
1606
1608
1610
1612
1614
1616
1618
1620
1622
1624
1626
1628
1630
1632
1634
1636
1638
1640
1642
1644
1646
1648
1650
1652
1654
1656
1658
1660
1662
1664
1666
1668
1670
1672
1674
1676
1678
1680
1682
1684
1686
1688
1690
1692
1694
1696
1698
1700
1702
1704
1706
1708
1710
1712
1714
1716
1718
1720
1722
1724
1726
1728
1730
1732
1734
1736
1738
1740
1742
1744
1746
1748
1750
1752
1754
1756
1758
1760
1762
1764
1766
1768
1770
1772
1774
1776
1778
1780
1782
1784
1786
1788
1790
1792
1794
1796
1798
1800
1802
1804
1806
1808
1810
1812
1814
1816
1818
1820
1822
1824
1826
1828
1830
1832
1834
1836
1838
1840
1842
1844
1846
1848
1850
1852
1854
1856
1858
1860
1862
1864
1866
1868
1870
1872
1874
1876
1878
1880
1882
1884
1886
1888
1890
1892
1894
1896
1898
1900
1902
1904
1906
1908
1910
1912
1914
1916
1918
1920
1922
1924
1926
1928
1930
1932
1934
1936
1938
1940
1942
1944
1946
1948
1950
1952
1954
1956
1958
1960
1962
1964
1966
1968
1970
1972
1974
1976
1978
1980
1982
1984
1986
1988
1990
1992
1994
1996
1998
2000
2002
2004
2006
2008
2010
2012
2014
2016
2018
2020
2022
2024
2026
2028
2030
2032
2034
2036
2038
2040
2042
2044
2046
2048
2050
2052
2054
2056
2058
2060
2062
2064
2066
2068
2070
2072
2074
2076
2078
2080
2082
2084
2086
2088
2090
2092
2094
2096
2098
2100
2102
2104
2106
2108
2110
2112
2114
2116
2118
2120
2122
2124
2126
2128
2130
2132
2134
2136
2138
2140
2142
2144
2146
2148
2150
2152
2154
2156
2158
2160
2162
2164
2166
2168
2170
2172
2174
2176
2178
2180
2182
2184
2186
2188
2190
2192
2194
2196
2198
2200
2202
2204
2206
2208
2210
2212
2214
2216
2218
2220
2222
2224
2226
2228
2230
2232
2234
2236
2238
2240
2242
2244
2246
2248
2250
2252
2254
2256
2258
2260
2262
2264
2266
2268
2270
2272
2274
2276
2278
2280
2282
2284
2286
2288
2290
2292
2294
2296
2298
2300
2302
2304
2306
2308
2310
2312
2314
2316
2318
2320
2322
2324
2326
2328
2330
2332
2334
2336
2338
2340
2342
2344
2346
2348
2350
2352
2354
2356
2358
2360
2362
2364
2366
2368
2370
2372
2374
2376
2378
2380
2382
2384
2386
2388
2390
2392
2394
2396
2398
2400
2402
2404
2406
2408
2410
2412
2414
2416
2418
2420
2422
2424
2426
2428
2430
2432
2434
2436
2438
2440
2442
2444
2446
2448
2450
2452
2454
2456
2458
2460
2462
2464
2466
2468
2470
2472
2474
2476
2478
2480
2482
2484
2486
2488
2490
2492
2494
2496
2498
2500
2502
2504
2506
2508
2510
2512
2514
2516
2518
2520
2522
2524
2526
2528
2530
2532
2534
2536
2538
2540
2542
2544
2546
2548
2550
2552
2554
2556
2558
2560
2562
2564
2566
2568
2570
2572
2574
2576
2578
2580
2582
2584
2586
2588
2590
2592
2594
2596
2598
2600
2602
2604
2606
2608
2610
2612
2614
2616
2618
2620
2622
2624
2626
2628
2630</DataArray></Cells></Piece></UnstructuredGrid></VTKFile>