<VTKFile type="UnstructuredGrid" version="1.0" byte_order="LittleEndian" header_type="UInt64">
  <UnstructuredGrid>
    <FieldData>
      <DataArray type="Float64" Name="TimeValue" NumberOfTuples="1" format="ascii" RangeMin="0" RangeMax="0">
        0
      </DataArray>
    </FieldData>
    <Piece NumberOfPoints="181" NumberOfCells="216">
      <PointData>
        <DataArray type="Int64" IdType="1" Name="vtkOriginalPointIds" format="ascii" RangeMin="0" RangeMax="180">
          0 1 2 3 4 5
          6 7 8 9 10 11
          12 13 14 15 16 17
          18 19 20 21 22 23
          24 25 26 27 28 29
          30 31 32 33 34 35
          36 37 38 39 40 41
          42 43 44 45 46 47
          48 49 50 51 52 53
          54 55 56 57 58 59
          60 61 62 63 64 65
          66 67 68 69 70 71
          72 73 74 75 76 77
          78 79 80 81 82 83
          84 85 86 87 88 89
          90 91 92 93 94 95
          96 97 98 99 100 101
          102 103 104 105 106 107
          108 109 110 111 112 113
          114 115 116 117 118 119
          120 121 122 123 124 125
          126 127 128 129 130 131
          132 133 134 135 136 137
          138 139 140 141 142 143
          144 145 146 147 148 149
          150 151 152 153 154 155
          156 157 158 159 160 161
          162 163 164 165 166 167
          168 169 170 171 172 173
          174 175 176 177 178 179
          180
        </DataArray>
      </PointData>
      <CellData Scalars="f">
        <DataArray type="Float64" Name="f" format="ascii" RangeMin="2" RangeMax="2">
          2 2 2 2 2 2
          2 2 2 2 2 2
          2 2 2 2 2 2
          2 2 2 2 2 2
          2 2 2 2 2 2
          2 2 2 2 2 2
          2 2 2 2 2 2
          2 2 2 2 2 2
          2 2 2 2 2 2
          2 2 2 2 2 2
          2 2 2 2 2 2
          2 2 2 2 2 2
          2 2 2 2 2 2
          2 2 2 2 2 2
          2 2 2 2 2 2
          2 2 2 2 2 2
          2 2 2 2 2 2
          2 2 2 2 2 2
          2 2 2 2 2 2
          2 2 2 2 2 2
          2 2 2 2 2 2
          2 2 2 2 2 2
          2 2 2 2 2 2
          2 2 2 2 2 2
          2 2 2 2 2 2
          2 2 2 2 2 2
          2 2 2 2 2 2
          2 2 2 2 2 2
          2 2 2 2 2 2
          2 2 2 2 2 2
          2 2 2 2 2 2
          2 2 2 2 2 2
          2 2 2 2 2 2
          2 2 2 2 2 2
          2 2 2 2 2 2
          2 2 2 2 2 2
        </DataArray>
        <DataArray type="Int64" IdType="1" Name="vtkOriginalCellIds" format="ascii" RangeMin="0" RangeMax="215">
          0 1 2 3 4 5
          6 7 8 9 10 11
          12 13 14 15 16 17
          18 19 20 21 22 23
          24 25 26 27 28 29
          30 31 32 33 34 35
          36 37 38 39 40 41
          42 43 44 45 46 47
          48 49 50 51 52 53
          54 55 56 57 58 59
          60 61 62 63 64 65
          66 67 68 69 70 71
          72 73 74 75 76 77
          78 79 80 81 82 83
          84 85 86 87 88 89
          90 91 92 93 94 95
          96 97 98 99 100 101
          102 103 104 105 106 107
          108 109 110 111 112 113
          114 115 116 117 118 119
          120 121 122 123 124 125
          126 127 128 129 130 131
          132 133 134 135 136 137
          138 139 140 141 142 143
          144 145 146 147 148 149
          150 151 152 153 154 155
          156 157 158 159 160 161
          162 163 164 165 166 167
          168 169 170 171 172 173
          174 175 176 177 178 179
          180 181 182 183 184 185
          186 187 188 189 190 191
          192 193 194 195 196 197
          198 199 200 201 202 203
          204 205 206 207 208 209
          210 211 212 213 214 215
        </DataArray>
      </CellData>
      <Points>
        <DataArray type="Float64" Name="Points" NumberOfComponents="3" format="ascii" RangeMin="1.999997918995392" RangeMax="7.3101316240758045">
          -1.576390027999878 -1.159749984741211 -1.59443998336792 -1.051130056381226 -1.690209984779358 -0.7569000124931335
          -0.9837200045585632 -1.68681001663208 -1.672270059585571 -1.754340052604675 -0.9436100125312805 -0.6906300187110901
          -1.246979951858521 -1.563660025596619 0 -1.465199947357178 -1.203889966011047 -2.457740068435669
          -1.879130005836487 -0.5717300176620483 -1.457290053367615 -1.812100052833557 -0.6089199781417847 -2.273319959640503
          -1.977820038795471 -0.1489599943161011 -0.9938600063323975 -2 0 0
          -0.2304999977350235 -1.933580040931702 -1.764359951019287 -0.6874600052833557 -1.746620059013367 -2.670330047607422
          -1.801939964294434 -0.8677700161933899 0 0.4191100001335144 -1.841639995574951 -2.544090032577515
          -0.1635600030422211 -1.786810040473938 -3.416879892349243 -1.196509957313538 -1.325639963150024 -3.483000040054321
          -0.5929499864578247 -1.575739979743958 -4.175230026245117 -1.135349988937378 -1.16143000125885 -4.5136399269104
          -1.724810004234314 -0.6334800124168396 -3.054419994354248 -1.587870001792908 -0.6276199817657471 -4.028110027313232
          -0.2304999977350235 -1.933580040931702 -1.764359951019287 0.4976600110530853 -1.898990035057068 -1.478539943695068
          0.4191100001335144 -1.841639995574951 -2.544090032577515 1.008119940757751 -1.64640998840332 -2.020879983901978
          -0.2150100022554398 -1.972730040550232 -0.9639700055122375 0.6339200139045715 -1.886940002441406 -0.7498199939727783
          1.30783998966217 -1.490100026130676 -1.016929984092712 1.17330002784729 -1.439389944076538 -2.87224006652832
          -0.9837200045585632 -1.68681001663208 -1.672270059585571 1.246979951858521 -1.563660025596619 0
          0.4450399875640869 -1.949859976768494 0 1.606729984283447 -1.092810034751892 -1.831110000610352
          1.782709956169128 -0.8699600100517273 -0.9870399832725525 1.801939964294434 -0.8677700161933899 0
          1.78754997253418 -0.6155300140380859 -2.523659944534302 -1.051130056381226 -1.690209984779358 -0.7569000124931335
          -0.4450399875640869 -1.949859976768494 0 -1.246979951858521 -1.563660025596619 0
          0.01071000006049871 1.979359984397888 -1.107660055160522 0.0762299969792366 1.933480024337769 -1.956169962882996
          0.8224700093269348 1.76622998714447 -1.746729969978333 -0.7475200295448303 1.790449976921082 -1.876880049705505
          -1.066619992256165 1.678300023078918 -0.8259400129318237 -0.4450399875640869 1.949859976768494 0
          0.4450399875640869 1.949859976768494 0 0.5253400206565857 1.794440031051636 -2.745650053024292
          -0.4065900146961212 1.816570043563843 -2.828150033950806 0.2482499927282333 1.766280055046082 -3.499229907989502
          -1.146520018577576 1.426509976387024 -3.119440078735352 -0.7026399970054626 1.59142005443573 -3.816250085830688
          -1.253700017929077 1.430349946022034 -2.391400098800659 -1.503550052642822 1.253980040550232 -1.579869985580444
          -1.246979951858521 1.563660025596619 0 1.141549944877625 1.513890027999878 -2.461280107498169
          0.965969979763031 1.496809959411621 -3.515909910202026 -1.662129998207092 0.8008599877357483 -2.985640048980713
          -1.415689945220947 1.026379942893982 -3.754400014877319 1.59171998500824 0.9641799926757812 -2.833580017089844
          -1.813259959220886 0.628279983997345 -2.178679943084717 -1.503550052642822 1.253980040550232 -1.579869985580444
          -1.927289962768555 0.4421699941158295 -1.160519957542419 -1.67808997631073 1.077110052108765 -0.5973700284957886
          -1.943029999732971 -0.07774999737739563 -1.808200001716614 -1.977820038795471 -0.1489599943161011 -0.9938600063323975
          -2 0 0 -1.662129998207092 0.8008599877357483 -2.985640048980713
          -1.253700017929077 1.430349946022034 -2.391400098800659 -1.873999953269958 0.0005000000237487257 -2.702009916305542
          -1.772089958190918 0.08947999775409698 -3.569220066070557 -1.415689945220947 1.026379942893982 -3.754400014877319
          -1.066619992256165 1.678300023078918 -0.8259400129318237 -1.812100052833557 -0.6089199781417847 -2.273319959640503
          -1.879130005836487 -0.5717300176620483 -1.457290053367615 -1.724810004234314 -0.6334800124168396 -3.054419994354248
          -1.587870001792908 -0.6276199817657471 -4.028110027313232 -1.246979951858521 1.563660025596619 0
          -1.801939964294434 0.8677700161933899 0 -1.545680046081543 0.4422000050544739 -4.601089954376221
          -0.8497899770736694 -0.07846000045537949 -6.995480060577393 0.3825699985027313 0.5582200288772583 -7.278739929199219
          -0.3325200080871582 0.8666999936103821 -6.851329803466797 0.3635599911212921 -0.5969099998474121 -7.247330188751221
          0.4099400043487549 0.88823002576828 -6.7465500831604 0.8965399861335754 0.2517499923706055 -6.845399856567383
          -0.1999199986457825 -0.9792799949645996 -6.699870109558105 -0.8344100117683411 -0.8577600121498108 -6.197679996490479
          0.2077299952507019 1.199190020561218 -6.13798999786377 0.8225700259208679 -0.760860025882721 -6.407070159912109
          0.8345199823379517 1.015759944915771 -5.829279899597168 0.2232999950647354 1.460659980773926 -5.212669849395752
          -0.01611999981105328 -1.301229953765869 -5.873690128326416 -0.973609983921051 -1.051440000534058 -5.395890235900879
          -1.415689945220947 1.026379942893982 -3.754400014877319 -1.131279945373535 1.200420022010803 -4.37421989440918
          -0.7026399970054626 1.59142005443573 -3.816250085830688 -1.545680046081543 0.4422000050544739 -4.601089954376221
          -0.5098000168800354 1.477910041809082 -4.824130058288574 -1.095759987831116 1.057950019836426 -5.01294994354248
          -1.308730006217957 0.5293499827384949 -5.479050159454346 -1.587870001792908 -0.6276199817657471 -4.028110027313232
          -1.454300045967102 -0.4223400056362152 -5.052440166473389 -0.6732900142669678 1.160009980201721 -5.737800121307373
          0.2232999950647354 1.460659980773926 -5.212669849395752 -1.135349988937378 -1.16143000125885 -4.5136399269104
          -0.973609983921051 -1.051440000534058 -5.395890235900879 -1.261849999427795 -0.1816699951887131 -5.959879875183105
          -0.9967100024223328 0.6386100053787231 -6.234660148620605 -0.3325200080871582 0.8666999936103821 -6.851329803466797
          0.2077299952507019 1.199190020561218 -6.13798999786377 -0.8497899770736694 -0.07846000045537949 -6.995480060577393
          -0.8344100117683411 -0.8577600121498108 -6.197679996490479 0.2482499927282333 1.766280055046082 -3.499229907989502
          0.2118699997663498 1.642109990119934 -4.338819980621338 -0.7026399970054626 1.59142005443573 -3.816250085830688
          0.965969979763031 1.496809959411621 -3.515909910202026 1.843039989471436 0.2177000045776367 -2.883320093154907
          1.59171998500824 0.9641799926757812 -2.833580017089844 1.716709971427917 0.5315099954605103 -3.394599914550781
          1.494860053062439 0.8291299939155579 -4.01540994644165 1.737840056419373 0.06367000192403793 -3.820499897003174
          -0.5098000168800354 1.477910041809082 -4.824130058288574 1.742589950561523 -0.4137099981307983 -3.442329883575439
          1.78754997253418 -0.6155300140380859 -2.523659944534302 1.623209953308105 0.1245300024747849 -4.493090152740479
          1.55706000328064 -0.583899974822998 -4.297319889068604 0.9568700194358826 1.281499981880188 -4.644450187683105
          1.396309971809387 0.508650004863739 -5.176680088043213 0.2232999950647354 1.460659980773926 -5.212669849395752
          0.8345199823379517 1.015759944915771 -5.829279899597168 1.511559963226318 -0.3095400035381317 -4.921589851379395
          1.238980054855347 0.2181400060653687 -6.013100147247314 1.280210018157959 -0.4352000057697296 -5.699359893798828
          0.8225700259208679 -0.760860025882721 -6.407070159912109 0.8965399861335754 0.2517499923706055 -6.845399856567383
          0.5471299886703491 -1.388599991798401 -5.148940086364746 1.050439953804016 -1.277259945869446 -4.350180149078369
          1.226250052452087 -0.8692899942398071 -5.102530002593994 1.55706000328064 -0.583899974822998 -4.297319889068604
          0.2759299874305725 -1.625659942626953 -4.377419948577881 0.6837199926376343 -1.624519944190979 -3.655679941177368
          1.405840039253235 -1.098520040512085 -3.49547004699707 0.8083900213241577 -1.032080054283142 -5.841479778289795
          1.511559963226318 -0.3095400035381317 -4.921589851379395 1.280210018157959 -0.4352000057697296 -5.699359893798828
          -0.3346900045871735 -1.455909967422485 -5.142899990081787 -0.01611999981105328 -1.301229953765869 -5.873690128326416
          1.17330002784729 -1.439389944076538 -2.87224006652832 1.78754997253418 -0.6155300140380859 -2.523659944534302
          0.4191100001335144 -1.841639995574951 -2.544090032577515 1.742589950561523 -0.4137099981307983 -3.442329883575439
          -0.1635600030422211 -1.786810040473938 -3.416879892349243 -0.5929499864578247 -1.575739979743958 -4.175230026245117
          -1.135349988937378 -1.16143000125885 -4.5136399269104 -0.973609983921051 -1.051440000534058 -5.395890235900879
          0.8225700259208679 -0.760860025882721 -6.407070159912109 1.801939964294434 0.8677700161933899 0
          1.963529944419861 0.2739199995994568 -1.019670009613037 1.779889941215515 0.8668199777603149 -1.098019957542419
          1.836330056190491 0.6091200113296509 -1.960129976272583 2 0 0
          1.959879994392395 -0.3518700003623962 -0.7239500284194946 1.912469983100891 -0.408160001039505 -1.621799945831299
          1.801939964294434 -0.8677700161933899 0 1.782709956169128 -0.8699600100517273 -0.9870399832725525
          1.931220054626465 -0.03153999894857407 -2.007369995117188 1.843039989471436 0.2177000045776367 -2.883320093154907
          1.78754997253418 -0.6155300140380859 -2.523659944534302 1.606729984283447 -1.092810034751892 -1.831110000610352
          1.381919980049133 1.4235999584198 -0.9757099747657776 0.8224700093269348 1.76622998714447 -1.746729969978333
          0.7844700217247009 1.830569982528687 -0.7089400291442871 1.246979951858521 1.563660025596619 0
          0.01071000006049871 1.979359984397888 -1.107660055160522 0.4450399875640869 1.949859976768494 0
          1.505190014839172 1.224230051040649 -1.877560019493103 1.779889941215515 0.8668199777603149 -1.098019957542419
          1.801939964294434 0.8677700161933899 0 1.141549944877625 1.513890027999878 -2.461280107498169
          1.836330056190491 0.6091200113296509 -1.960129976272583 1.59171998500824 0.9641799926757812 -2.833580017089844
          1.843039989471436 0.2177000045776367 -2.883320093154907
          <InformationKey name="L2_NORM_FINITE_RANGE" location="vtkDataArray" length="2">
            <Value index="0">
              1.999997919
            </Value>
            <Value index="1">
              7.3101316241
            </Value>
          </InformationKey>
          <InformationKey name="L2_NORM_RANGE" location="vtkDataArray" length="2">
            <Value index="0">
              1.999997919
            </Value>
            <Value index="1">
              7.3101316241
            </Value>
          </InformationKey>
        </DataArray>
      </Points>
      <Cells>
        <DataArray type="Int64" Name="connectivity" format="ascii" RangeMin="0" RangeMax="180">
          0 1 2 0 1 3
          4 1 3 5 0 2
          0 6 3 7 0 6
          5 7 0 8 6 3
          9 8 3 10 11 2
          5 11 2 4 12 3
          9 12 3 10 11 13
          14 11 13 15 14 11
          5 15 11 15 14 16
          15 17 16 18 15 19
          15 19 17 5 18 15
          5 18 7 20 21 22
          21 23 22 20 24 21
          21 25 26 24 21 25
          21 23 26 23 22 27
          20 24 28 29 25 26
          30 24 25 29 30 25
          31 23 26 32 31 26
          33 32 26 33 29 26
          31 23 27 31 27 34
          24 35 28 36 24 35
          30 36 24 36 37 35
          38 39 40 38 41 39
          42 38 41 43 42 38
          43 44 38 45 46 39
          41 46 39 45 39 40
          45 47 46 48 46 49
          48 50 46 41 50 46
          47 46 49 42 41 51
          52 43 42 45 40 53
          45 47 54 45 54 53
          48 55 50 56 48 55
          56 48 49 41 50 51
          54 57 53 58 59 60
          61 59 60 62 58 60
          62 63 60 64 61 60
          64 63 60 65 66 58
          66 58 59 65 58 67
          65 68 67 69 65 68
          61 70 59 62 58 67
          71 62 67 71 62 72
          62 63 72 73 71 67
          73 68 67 73 68 74
          75 61 70 64 76 61
          76 75 61 68 74 77
          69 68 77 78 79 80
          78 79 81 79 80 82
          79 81 83 79 83 82
          78 81 84 78 85 84
          80 86 82 81 87 84
          81 83 87 88 86 89
          88 86 82 90 87 84
          85 90 84 85 91 90
          88 83 82 92 93 94
          92 95 93 93 96 94
          95 97 93 97 93 96
          98 95 97 99 95 100
          98 95 100 97 101 96
          98 97 101 101 96 102
          99 103 100 104 103 100
          105 98 100 104 105 100
          106 98 101 107 106 101
          101 108 102 107 101 108
          105 106 98 109 105 106
          109 107 106 110 104 105
          109 110 105 111 112 113
          111 114 112 115 116 117
          116 118 117 114 116 118
          115 119 117 118 119 117
          120 112 113 115 119 121
          122 115 121 123 118 119
          124 119 121 123 124 119
          114 125 118 114 112 125
          126 125 118 126 123 118
          112 127 125 120 112 127
          128 126 125 126 129 123
          130 126 131 128 130 126
          126 129 131 128 127 125
          129 123 124 130 132 131
          133 130 132 128 133 130
          134 135 136 137 135 136
          138 134 135 139 138 135
          137 135 140 139 135 140
          134 141 136 142 137 136
          141 136 143 142 136 143
          144 138 134 145 144 134
          145 134 141 146 140 147
          139 146 140 139 148 146
          140 147 149 150 151 138
          144 151 138 144 152 151
          150 139 138 150 139 148
          137 140 149 153 144 152
          153 145 144 154 141 143
          145 154 141 155 156 157
          156 158 157 159 160 156
          161 160 156 159 162 160
          163 161 160 162 163 160
          159 155 156 164 156 158
          161 164 156 164 158 165
          164 166 165 163 161 167
          161 164 166 161 167 166
          168 169 170 171 168 170
          172 169 170 173 172 170
          173 171 170 168 174 169
          175 168 174 176 175 168
          171 176 168 174 169 177
          178 175 174 179 174 177
          178 179 174 178 180 179
        </DataArray>
        <DataArray type="Int64" Name="offsets" format="ascii" RangeMin="3" RangeMax="648">
          3 6 9 12 15 18
          21 24 27 30 33 36
          39 42 45 48 51 54
          57 60 63 66 69 72
          75 78 81 84 87 90
          93 96 99 102 105 108
          111 114 117 120 123 126
          129 132 135 138 141 144
          147 150 153 156 159 162
          165 168 171 174 177 180
          183 186 189 192 195 198
          201 204 207 210 213 216
          219 222 225 228 231 234
          237 240 243 246 249 252
          255 258 261 264 267 270
          273 276 279 282 285 288
          291 294 297 300 303 306
          309 312 315 318 321 324
          327 330 333 336 339 342
          345 348 351 354 357 360
          363 366 369 372 375 378
          381 384 387 390 393 396
          399 402 405 408 411 414
          417 420 423 426 429 432
          435 438 441 444 447 450
          453 456 459 462 465 468
          471 474 477 480 483 486
          489 492 495 498 501 504
          507 510 513 516 519 522
          525 528 531 534 537 540
          543 546 549 552 555 558
          561 564 567 570 573 576
          579 582 585 588 591 594
          597 600 603 606 609 612
          615 618 621 624 627 630
          633 636 639 642 645 648
        </DataArray>
        <DataArray type="UInt8" Name="types" format="ascii" RangeMin="5" RangeMax="5">
          5 5 5 5 5 5
          5 5 5 5 5 5
          5 5 5 5 5 5
          5 5 5 5 5 5
          5 5 5 5 5 5
          5 5 5 5 5 5
          5 5 5 5 5 5
          5 5 5 5 5 5
          5 5 5 5 5 5
          5 5 5 5 5 5
          5 5 5 5 5 5
          5 5 5 5 5 5
          5 5 5 5 5 5
          5 5 5 5 5 5
          5 5 5 5 5 5
          5 5 5 5 5 5
          5 5 5 5 5 5
          5 5 5 5 5 5
          5 5 5 5 5 5
          5 5 5 5 5 5
          5 5 5 5 5 5
          5 5 5 5 5 5
          5 5 5 5 5 5
          5 5 5 5 5 5
          5 5 5 5 5 5
          5 5 5 5 5 5
          5 5 5 5 5 5
          5 5 5 5 5 5
          5 5 5 5 5 5
          5 5 5 5 5 5
          5 5 5 5 5 5
          5 5 5 5 5 5
          5 5 5 5 5 5
          5 5 5 5 5 5
          5 5 5 5 5 5
          5 5 5 5 5 5
        </DataArray>
      </Cells>
    </Piece>
  </UnstructuredGrid>
</VTKFile>
