<VTKFile type="UnstructuredGrid" version="1.0" byte_order="LittleEndian" header_type="UInt64">
  <UnstructuredGrid>
    <FieldData>
      <DataArray type="Float64" Name="TimeValue" NumberOfTuples="1" format="ascii" RangeMin="0" RangeMax="0">
        0
      </DataArray>
    </FieldData>
    <Piece NumberOfPoints="294" NumberOfCells="372">
      <PointData>
        <DataArray type="Int64" IdType="1" Name="vtkOriginalPointIds" format="ascii" RangeMin="0" RangeMax="293">
          0 1 2 3 4 5
          6 7 8 9 10 11
          12 13 14 15 16 17
          18 19 20 21 22 23
          24 25 26 27 28 29
          30 31 32 33 34 35
          36 37 38 39 40 41
          42 43 44 45 46 47
          48 49 50 51 52 53
          54 55 56 57 58 59
          60 61 62 63 64 65
          66 67 68 69 70 71
          72 73 74 75 76 77
          78 79 80 81 82 83
          84 85 86 87 88 89
          90 91 92 93 94 95
          96 97 98 99 100 101
          102 103 104 105 106 107
          108 109 110 111 112 113
          114 115 116 117 118 119
          120 121 122 123 124 125
          126 127 128 129 130 131
          132 133 134 135 136 137
          138 139 140 141 142 143
          144 145 146 147 148 149
          150 151 152 153 154 155
          156 157 158 159 160 161
          162 163 164 165 166 167
          168 169 170 171 172 173
          174 175 176 177 178 179
          180 181 182 183 184 185
          186 187 188 189 190 191
          192 193 194 195 196 197
          198 199 200 201 202 203
          204 205 206 207 208 209
          210 211 212 213 214 215
          216 217 218 219 220 221
          222 223 224 225 226 227
          228 229 230 231 232 233
          234 235 236 237 238 239
          240 241 242 243 244 245
          246 247 248 249 250 251
          252 253 254 255 256 257
          258 259 260 261 262 263
          264 265 266 267 268 269
          270 271 272 273 274 275
          276 277 278 279 280 281
          282 283 284 285 286 287
          288 289 290 291 292 293
        </DataArray>
      </PointData>
      <CellData Scalars="f">
        <DataArray type="Float64" Name="f" format="ascii" RangeMin="3" RangeMax="3">
          3 3 3 3 3 3
          3 3 3 3 3 3
          3 3 3 3 3 3
          3 3 3 3 3 3
          3 3 3 3 3 3
          3 3 3 3 3 3
          3 3 3 3 3 3
          3 3 3 3 3 3
          3 3 3 3 3 3
          3 3 3 3 3 3
          3 3 3 3 3 3
          3 3 3 3 3 3
          3 3 3 3 3 3
          3 3 3 3 3 3
          3 3 3 3 3 3
          3 3 3 3 3 3
          3 3 3 3 3 3
          3 3 3 3 3 3
          3 3 3 3 3 3
          3 3 3 3 3 3
          3 3 3 3 3 3
          3 3 3 3 3 3
          3 3 3 3 3 3
          3 3 3 3 3 3
          3 3 3 3 3 3
          3 3 3 3 3 3
          3 3 3 3 3 3
          3 3 3 3 3 3
          3 3 3 3 3 3
          3 3 3 3 3 3
          3 3 3 3 3 3
          3 3 3 3 3 3
          3 3 3 3 3 3
          3 3 3 3 3 3
          3 3 3 3 3 3
          3 3 3 3 3 3
          3 3 3 3 3 3
          3 3 3 3 3 3
          3 3 3 3 3 3
          3 3 3 3 3 3
          3 3 3 3 3 3
          3 3 3 3 3 3
          3 3 3 3 3 3
          3 3 3 3 3 3
          3 3 3 3 3 3
          3 3 3 3 3 3
          3 3 3 3 3 3
          3 3 3 3 3 3
          3 3 3 3 3 3
          3 3 3 3 3 3
          3 3 3 3 3 3
          3 3 3 3 3 3
          3 3 3 3 3 3
          3 3 3 3 3 3
          3 3 3 3 3 3
          3 3 3 3 3 3
          3 3 3 3 3 3
          3 3 3 3 3 3
          3 3 3 3 3 3
          3 3 3 3 3 3
          3 3 3 3 3 3
          3 3 3 3 3 3
        </DataArray>
        <DataArray type="Int64" IdType="1" Name="vtkOriginalCellIds" format="ascii" RangeMin="0" RangeMax="371">
          0 1 2 3 4 5
          6 7 8 9 10 11
          12 13 14 15 16 17
          18 19 20 21 22 23
          24 25 26 27 28 29
          30 31 32 33 34 35
          36 37 38 39 40 41
          42 43 44 45 46 47
          48 49 50 51 52 53
          54 55 56 57 58 59
          60 61 62 63 64 65
          66 67 68 69 70 71
          72 73 74 75 76 77
          78 79 80 81 82 83
          84 85 86 87 88 89
          90 91 92 93 94 95
          96 97 98 99 100 101
          102 103 104 105 106 107
          108 109 110 111 112 113
          114 115 116 117 118 119
          120 121 122 123 124 125
          126 127 128 129 130 131
          132 133 134 135 136 137
          138 139 140 141 142 143
          144 145 146 147 148 149
          150 151 152 153 154 155
          156 157 158 159 160 161
          162 163 164 165 166 167
          168 169 170 171 172 173
          174 175 176 177 178 179
          180 181 182 183 184 185
          186 187 188 189 190 191
          192 193 194 195 196 197
          198 199 200 201 202 203
          204 205 206 207 208 209
          210 211 212 213 214 215
          216 217 218 219 220 221
          222 223 224 225 226 227
          228 229 230 231 232 233
          234 235 236 237 238 239
          240 241 242 243 244 245
          246 247 248 249 250 251
          252 253 254 255 256 257
          258 259 260 261 262 263
          264 265 266 267 268 269
          270 271 272 273 274 275
          276 277 278 279 280 281
          282 283 284 285 286 287
          288 289 290 291 292 293
          294 295 296 297 298 299
          300 301 302 303 304 305
          306 307 308 309 310 311
          312 313 314 315 316 317
          318 319 320 321 322 323
          324 325 326 327 328 329
          330 331 332 333 334 335
          336 337 338 339 340 341
          342 343 344 345 346 347
          348 349 350 351 352 353
          354 355 356 357 358 359
          360 361 362 363 364 365
          366 367 368 369 370 371
        </DataArray>
      </CellData>
      <Points>
        <DataArray type="Float64" Name="Points" NumberOfComponents="3" format="ascii" RangeMin="3.1299992730797648" RangeMax="6.771144751558462">
          -1.079720020294189 2.928040027618408 -0.6368200182914734 -0.368149995803833 3.098769903182983 -0.6442099809646606
          -0.7356100082397461 3.002049922943115 -1.308419942855835 -0.7303799986839294 3.043590068817139 0
          -1.413769960403442 2.751919984817505 -1.25806999206543 -1.716799974441528 2.6041100025177 -0.6920899748802185
          -1.420439958572388 2.789129972457886 0 -0.001649999991059303 3.092030048370361 -1.28889000415802
          0.3666499853134155 3.099159955978394 -0.6368200182914734 0 3.130000114440918 0
          -0.386029988527298 3.017879962921143 -1.949100017547607 -1.135040044784546 2.819519996643066 -1.982419967651367
          -0.01291000004857779 2.971450090408325 -2.607909917831421 -0.7805600166320801 2.869070053100586 -2.592859983444214
          0.3696500062942505 3.020550012588501 -1.942360043525696 -0.3980700075626373 2.847300052642822 -3.281460046768188
          0.3809100091457367 2.848860025405884 -3.286259889602661 0.7395099997520447 2.872980117797852 -2.646490097045898
          -1.160629987716675 2.637840032577515 -3.23868989944458 -1.477460026741028 2.583100080490112 -2.57315993309021
          -0.7398499846458435 2.657639980316162 -3.921099901199341 -1.394559979438782 2.406689882278442 -3.805910110473633
          -1.741350054740906 2.320679903030396 -3.114039897918701 -2.494829893112183 1.829879999160767 -1.255769968032837
          -2.030960083007812 2.326519966125488 -1.350589990615845 -2.276580095291138 2.134919881820679 -0.6285099983215332
          -2.371059894561768 1.891219973564148 -2.051079988479614 -1.912879943847656 2.338219881057739 -2.17143988609314
          -2.03206992149353 2.380670070648193 0 -2.531500101089478 1.84077000617981 0
          1.127619981765747 2.650259971618652 -3.249380111694336 1.479850053787231 2.571990013122559 -2.640860080718994
          1.673380017280579 2.362610101699829 -3.154119968414307 1.102609992027283 2.833009958267212 -1.975919961929321
          0.7414500117301941 3.002470016479492 -1.27813994884491 -2.189249992370605 1.972399950027466 -2.798460006713867
          -1.963919997215271 2.016989946365356 -3.62785005569458 -2.488450050354004 1.411980032920837 -3.36555004119873
          -2.867549896240234 1.212839961051941 -0.8512799739837646 -2.79557991027832 1.253440022468567 -1.698969960212708
          -2.494829893112183 1.829879999160767 -1.255769968032837 -2.608190059661865 1.717030048370361 -0.5690400004386902
          -2.891149997711182 1.199229955673218 0 -2.371059894561768 1.891219973564148 -2.051079988479614
          -2.671519994735718 1.320299983024597 -2.538899898529053 -2.276580095291138 2.134919881820679 -0.6285099983215332
          -2.189249992370605 1.972399950027466 -2.798460006713867 -2.488450050354004 1.411980032920837 -3.36555004119873
          -2.531500101089478 1.84077000617981 0 -0.804419994354248 1.920549988746643 -6.197010040283203
          0 1.976969957351685 -6.434810161590576 -0.2582899928092957 2.190560102462769 -5.888840198516846
          0.2375600039958954 2.26882004737854 -5.683000087738037 0.804419994354248 1.920549988746643 -6.197010040283203
          0.00610999995842576 2.442990064620972 -5.188700199127197 0.7754600048065186 2.215780019760132 -5.489759922027588
          1.430789947509766 1.796519994735718 -5.639120101928711 -2.488450050354004 1.411980032920837 -3.36555004119873
          -2.234970092773438 1.525910019874573 -4.170430183410645 -1.963919997215271 2.016989946365356 -3.62785005569458
          -1.657860040664673 2.082030057907104 -4.36821985244751 -1.892529964447021 1.657340049743652 -4.93858003616333
          -1.394559979438782 2.406689882278442 -3.805910110473633 -1.048609972000122 2.404700040817261 -4.527229785919189
          -1.379719972610474 2.090229988098145 -4.978109836578369 -0.7398499846458435 2.657639980316162 -3.921099901199341
          -0.769860029220581 2.279809951782227 -5.307950019836426 -1.430789947509766 1.796519994735718 -5.639120101928711
          -0.3748300075531006 2.576299905776978 -4.607570171356201 0.00610999995842576 2.442990064620972 -5.188700199127197
          -0.804419994354248 1.920549988746643 -6.197010040283203 -0.2582899928092957 2.190560102462769 -5.888840198516846
          -0.3980700075626373 2.847300052642822 -3.281460046768188 -0.005530000198632479 2.750400066375732 -3.961829900741577
          -0.7398499846458435 2.657639980316162 -3.921099901199341 0.3809100091457367 2.848860025405884 -3.286259889602661
          -0.3748300075531006 2.576299905776978 -4.607570171356201 0.5031300187110901 2.535069942474365 -4.681829929351807
          0.762220025062561 2.653810024261475 -3.909189939498901 2.234970092773438 1.525910019874573 -4.170430183410645
          2.488450050354004 1.411980032920837 -3.36555004119873 1.952849984169006 2.0453200340271 -3.557640075683594
          0.00610999995842576 2.442990064620972 -5.188700199127197 1.711709976196289 2.052949905395508 -4.318640232086182
          1.418200016021729 2.400850057601929 -3.770270109176636 1.149350047111511 2.40772008895874 -4.340129852294922
          1.241099953651428 2.187779903411865 -4.939809799194336 1.892529964447021 1.657340049743652 -4.93858003616333
          1.127619981765747 2.650259971618652 -3.249380111694336 1.673380017280579 2.362610101699829 -3.154119968414307
          0.7754600048065186 2.215780019760132 -5.489759922027588 1.430789947509766 1.796519994735718 -5.639120101928711
          2.172149896621704 3.781840085983276 -2.256639957427979 1.659080028533936 4.148379802703857 -2.740180015563965
          1.618190050125122 4.34188985824585 -2.031519889831543 1.028990030288696 4.414269924163818 -3.117630004882812
          1.570199966430664 3.963219881057739 -3.511689901351929 2.120739936828613 3.569780111312866 -3.062390089035034
          1.477049946784973 4.540050029754639 -1.298539996147156 2.087430000305176 4.050159931182861 -1.422029972076416
          2.916790008544922 2.584870100021362 -0.8314499855041504 2.744110107421875 2.991189956665039 -1.497519969940186
          2.793479919433594 2.488159894943237 -2.099639892578125 2.553630113601685 3.452039957046509 -1.305750012397766
          2.897779941558838 2.776459932327271 0 2.703700065612793 3.26747989654541 -0.6199600100517273
          2.572289943695068 3.237210035324097 -1.980630040168762 2.474679946899414 2.77758002281189 -3.232719898223877
          2.532370090484619 3.07768988609314 -2.561150074005127 0.9033600091934204 4.205160140991211 -3.909080028533936
          1.426820039749146 3.730819940567017 -4.273039817810059 1.994639992713928 3.351219892501831 -3.834460020065308
          0.7764599919319153 4.897779941558838 0 1.5 4.598080158233643 0
          1.14165997505188 4.756199836730957 -0.6781700253486633 1.834980010986328 4.353519916534424 -0.6568499803543091
          2.121320009231567 4.121319770812988 0 2.366810083389282 3.816109895706177 -0.6781700253486633
          2.384160041809082 3.630470037460327 -1.739120006561279 2.598079919815063 3.5 0
          1.138450026512146 3.415390014648438 -5.121379852294922 0.3868699967861176 3.36693000793457 -5.667769908905029
          0.5719599723815918 3.692670106887817 -5.169280052185059 0.01834999956190586 3.858500003814697 -5.051300048828125
          0.7541800141334534 3.923569917678833 -4.665609836578369 1.003209948539734 2.962529897689819 -5.702280044555664
          0.4169799983501434 2.667749881744385 -6.209479808807373 1.426820039749146 3.730819940567017 -4.273039817810059
          1.515190005302429 2.784950017929077 -5.292570114135742 1.80706000328064 3.095969915390015 -4.567080020904541
          0 1.976969957351685 -6.434810161590576 0.804419994354248 1.920549988746643 -6.197010040283203
          1.204630017280579 2.336960077285767 -5.848939895629883 1.430789947509766 1.796519994735718 -5.639120101928711
          0.9033600091934204 4.205160140991211 -3.909080028533936 1.697610020637512 2.199959993362427 -5.288249969482422
          1.994639992713928 3.351219892501831 -3.834460020065308 1.967039942741394 2.328660011291504 -4.807260036468506
          1.892529964447021 1.657340049743652 -4.93858003616333 2.678030014038086 2.094680070877075 -2.893140077590942
          2.793479919433594 2.488159894943237 -2.099639892578125 2.474679946899414 2.77758002281189 -3.232719898223877
          2.491080045700073 2.102839946746826 -3.578969955444336 2.488450050354004 1.411980032920837 -3.36555004119873
          2.231849908828735 2.614029884338379 -4.093420028686523 2.234970092773438 1.525910019874573 -4.170430183410645
          2.891149997711182 1.199229955673218 0 2.867549896240234 1.212839961051941 -0.8512799739837646
          2.606539964675903 1.719840049743652 -0.5625399947166443 2.976629972457886 1.70976996421814 -0.5051000118255615
          2.79557991027832 1.253440022468567 -1.698969960212708 2.942640066146851 1.961869955062866 -1.249650001525879
          2.972660064697266 1.595929980278015 0 3 2 0
          2.916790008544922 2.584870100021362 -0.8314499855041504 2.897779941558838 2.776459932327271 0
          0.3666499853134155 3.099159955978394 -0.6368200182914734 0.7414500117301941 3.002470016479492 -1.27813994884491
          1.0971599817276 2.921780109405518 -0.6295499801635742 0.7303799986839294 3.043590068817139 0
          0 3.130000114440918 0 1.4203200340271 2.745810031890869 -1.299389958381653
          1.723209977149963 2.601530075073242 -0.6466699838638306 1.420439958572388 2.789129972457886 0
          1.102609992027283 2.833009958267212 -1.975919961929321 2.29092001914978 2.119169950485229 -0.6368200182914734
          2.501840114593506 1.82695996761322 -1.185629963874817 2.606539964675903 1.719840049743652 -0.5625399947166443
          2.867549896240234 1.212839961051941 -0.8512799739837646 2.531500101089478 1.84077000617981 0
          2.891149997711182 1.199229955673218 0 2.27184009552002 2.030369997024536 -1.899700045585632
          2.008680105209351 2.346859931945801 -1.337280035018921 1.740190029144287 2.491630077362061 -1.985139966011047
          2.79557991027832 1.253440022468567 -1.698969960212708 2.051810026168823 2.130789995193481 -2.712949991226196
          1.479850053787231 2.571990013122559 -2.640860080718994 2.03206992149353 2.380670070648193 0
          1.673380017280579 2.362610101699829 -3.154119968414307 2.671519994735718 1.320299983024597 -2.538899898529053
          2.824830055236816 1.900470018386841 -2.156130075454712 2.942640066146851 1.961869955062866 -1.249650001525879
          1.952849984169006 2.0453200340271 -3.557640075683594 2.488450050354004 1.411980032920837 -3.36555004119873
          2.678030014038086 2.094680070877075 -2.893140077590942 2.793479919433594 2.488159894943237 -2.099639892578125
          2.916790008544922 2.584870100021362 -0.8314499855041504 -2.867549896240234 1.212839961051941 -0.8512799739837646
          -2.942640066146851 1.961869955062866 -1.249650001525879 -2.974280118942261 1.702110052108765 -0.54653000831604
          -2.944479942321777 1.460489988327026 -0.4233799874782562 -2.79557991027832 1.253440022468567 -1.698969960212708
          -2.891149997711182 1.199229955673218 0 -3 2 0
          -2.942889928817749 2.486219882965088 -0.6883500218391418 -2.972660064697266 1.595929980278015 0
          -2.897779941558838 2.776459932327271 0 -2.813689947128296 2.770539999008179 -1.500620007514954
          -2.653029918670654 2.09296989440918 -2.997459888458252 -2.808370113372803 1.905030012130737 -2.253799915313721
          -2.710540056228638 2.53043007850647 -2.512140035629272 -2.671519994735718 1.320299983024597 -2.538899898529053
          -2.471009969711304 2.814759969711304 -3.203360080718994 -2.488450050354004 1.411980032920837 -3.36555004119873
          -2.411079883575439 2.049959897994995 -3.827610015869141 -2.301980018615723 2.700579881668091 -3.843120098114014
          -2.623850107192993 3.106549978256226 -2.024669885635376 -2.425689935684204 3.256850004196167 -2.658720016479492
          -2.234970092773438 1.525910019874573 -4.170430183410645 -1.892529964447021 1.657340049743652 -4.93858003616333
          -2.131409883499146 2.306050062179565 -4.480639934539795 -1.801620006561279 3.539390087127686 -3.946120023727417
          -1.658380031585693 3.962779998779297 -3.321110010147095 -2.180099964141846 3.366640090942383 -3.308769941329956
          -2.598079919815063 3.5 0 -2.474910020828247 3.594769954681396 -1.235010027885437
          -2.730079889297485 3.205709934234619 -0.6538000106811523 -2.231470108032227 3.980530023574829 -0.6716799736022949
          -2.897779941558838 2.776459932327271 0 -2.121320009231567 4.121319770812988 0
          -2.813689947128296 2.770539999008179 -1.500620007514954 -2.049900054931641 4.095479965209961 -1.368199944496155
          -2.29131007194519 3.690710067749023 -2.025190114974976 -2.623850107192993 3.106549978256226 -2.024669885635376
          -2.942889928817749 2.486219882965088 -0.6883500218391418 -1.101209998130798 4.628520011901855 -2.010149955749512
          -1.411309957504272 4.326600074768066 -2.709110021591187 -0.8467199802398682 4.608399868011475 -2.60890007019043
          -1.025169968605042 4.389699935913086 -3.20917010307312 -0.3187299966812134 4.806099891662598 -2.170809984207153
          -1.733430027961731 4.258409976959229 -2.02905011177063 -2.011729955673218 3.820549964904785 -2.745729923248291
          -1.658380031585693 3.962779998779297 -3.321110010147095 -1.13575005531311 4.758540153503418 -0.6801999807357788
          -1.456730008125305 4.544400215148926 -1.363350033760071 -0.7394400238990784 4.837810039520264 -1.356690049171448
          -1.76416003704071 4.405499935150146 -0.6827099919319153 -1.5 4.598080158233643 0
          -0.7764599919319153 4.897779941558838 0 -2.425689935684204 3.256850004196167 -2.658720016479492
          -2.180099964141846 3.366640090942383 -3.308769941329956 0.4169799983501434 2.667749881744385 -6.209479808807373
          0.3868699967861176 3.36693000793457 -5.667769908905029 -0.04479999840259552 3.091749906539917 -5.992990016937256
          -0.517769992351532 2.743099927902222 -6.134739875793457 0 1.976969957351685 -6.434810161590576
          -0.4359000027179718 3.385730028152466 -5.630259990692139 -1.189020037651062 4.079790115356445 -3.873310089111328
          -0.4640899896621704 4.409409999847412 -3.702440023422241 -1.025169968605042 4.389699935913086 -3.20917010307312
          -0.5988500118255615 4.087950229644775 -4.438570022583008 -1.658380031585693 3.962779998779297 -3.321110010147095
          -1.801620006561279 3.539390087127686 -3.946120023727417 -1.287459969520569 3.670160055160522 -4.57696008682251
          0.1586800068616867 4.262330055236816 -4.21245002746582 0.01834999956190586 3.858500003814697 -5.051300048828125
          -0.7328299880027771 3.706219911575317 -5.054100036621094 -1.234770059585571 3.147759914398193 -5.322879791259766
          -1.892529964447021 1.657340049743652 -4.93858003616333 -1.719589948654175 2.452369928359985 -5.182899951934814
          -2.131409883499146 2.306050062179565 -4.480639934539795 -1.430789947509766 1.796519994735718 -5.639120101928711
          -1.813779950141907 3.022929906845093 -4.632319927215576 -1.219030022621155 2.463560104370117 -5.795100212097168
          -2.301980018615723 2.700579881668091 -3.843120098114014 -0.804419994354248 1.920549988746643 -6.197010040283203
          0 5 0 0.7764599919319153 4.897779941558838 0
          0.3822700083255768 4.958670139312744 -0.6787099838256836 -0.3831399977207184 4.958139896392822 -0.687030017375946
          -0.7764599919319153 4.897779941558838 0 1.14165997505188 4.756199836730957 -0.6781700253486633
          0.003869999898597598 4.928080081939697 -1.400599956512451 0.7547199726104736 4.833600044250488 -1.358530044555664
          -1.13575005531311 4.758540153503418 -0.6801999807357788 -0.7394400238990784 4.837810039520264 -1.356690049171448
          1.0832200050354 4.55866003036499 -2.426709890365601 1.659080028533936 4.148379802703857 -2.740180015563965
          1.618190050125122 4.34188985824585 -2.031519889831543 1.028990030288696 4.414269924163818 -3.117630004882812
          1.133049964904785 4.651169776916504 -1.77853000164032 0.3915899991989136 4.700349807739258 -2.674629926681519
          0.4479399919509888 4.81663990020752 -1.995990037918091 1.477049946784973 4.540050029754639 -1.298539996147156
          -0.3187299966812134 4.806099891662598 -2.170809984207153 0.2974500060081482 4.516109943389893 -3.445859909057617
          0.9033600091934204 4.205160140991211 -3.909080028533936 -0.4640899896621704 4.409409999847412 -3.702440023422241
          -0.3216699957847595 4.648210048675537 -2.943819999694824 -1.025169968605042 4.389699935913086 -3.20917010307312
          0.1586800068616867 4.262330055236816 -4.21245002746582 -0.8467199802398682 4.608399868011475 -2.60890007019043
          0.7541800141334534 3.923569917678833 -4.665609836578369 0.01834999956190586 3.858500003814697 -5.051300048828125
          <InformationKey name="L2_NORM_FINITE_RANGE" location="vtkDataArray" length="2">
            <Value index="0">
              3.1299992731
            </Value>
            <Value index="1">
              6.7711447516
            </Value>
          </InformationKey>
          <InformationKey name="L2_NORM_RANGE" location="vtkDataArray" length="2">
            <Value index="0">
              3.1299992731
            </Value>
            <Value index="1">
              6.7711447516
            </Value>
          </InformationKey>
        </DataArray>
      </Points>
      <Cells>
        <DataArray type="Int64" Name="connectivity" format="ascii" RangeMin="0" RangeMax="293">
          0 1 2 3 0 1
          0 2 4 0 5 4
          6 0 5 6 3 0
          1 7 2 8 1 7
          9 8 1 9 3 1
          7 10 2 10 11 2
          11 2 4 10 12 13
          14 10 12 10 13 11
          7 14 10 12 13 15
          12 15 16 12 16 17
          14 12 17 13 15 18
          13 18 19 13 11 19
          15 18 20 18 20 21
          18 19 22 18 22 21
          23 24 25 23 26 24
          5 24 25 5 24 4
          24 4 27 26 24 27
          28 5 25 29 28 25
          30 31 32 30 17 31
          16 30 17 33 17 31
          19 22 27 11 19 27
          34 14 33 7 34 14
          8 7 34 14 33 17
          35 36 22 35 22 27
          36 22 21 37 35 36
          35 26 27 28 6 5
          11 4 27 38 39 40
          38 40 41 42 38 41
          39 40 43 39 44 43
          40 45 41 44 46 43
          44 47 46 48 45 41
          42 48 41 49 50 51
          50 52 51 50 53 52
          52 54 51 53 52 55
          52 55 54 53 56 55
          57 58 59 58 60 59
          58 61 60 60 59 62
          60 62 63 60 64 63
          61 60 64 65 62 63
          66 64 63 61 67 64
          67 66 64 68 65 63
          66 68 63 66 68 69
          67 70 66 70 66 71
          66 69 71 72 73 74
          72 75 73 73 76 74
          73 77 76 75 73 78
          73 78 77 79 80 81
          77 76 82 83 84 85
          81 83 84 86 83 85
          87 86 83 87 79 83
          79 81 83 78 84 85
          78 88 84 88 84 89
          81 84 89 78 77 85
          86 77 85 75 78 88
          86 77 90 91 87 86
          91 86 90 77 90 82
          92 93 94 95 96 93
          96 97 93 97 92 93
          98 99 94 92 99 94
          100 101 102 100 101 103
          104 100 105 100 105 103
          101 102 106 101 103 106
          102 107 108 102 108 106
          109 95 96 109 96 110
          96 110 111 96 111 97
          112 113 114 113 114 115
          113 116 115 114 98 115
          98 115 99 97 107 108
          111 97 107 97 108 92
          108 92 106 117 115 99
          116 117 115 92 99 118
          99 103 118 117 99 103
          119 104 105 119 117 105
          117 105 103 92 106 118
          103 106 118 116 119 117
          120 121 122 123 121 122
          120 124 122 123 124 122
          120 125 121 125 126 121
          127 120 124 120 125 128
          127 129 120 129 120 128
          130 131 126 131 126 132
          131 133 132 134 127 124
          125 126 132 125 128 132
          135 128 132 133 135 132
          127 136 129 135 137 128
          133 138 135 138 135 137
          129 137 128 139 140 141
          139 141 142 143 139 142
          141 144 142 136 141 144
          138 145 137 144 129 137
          136 144 129 145 144 142
          145 143 142 145 144 137
          146 147 148 146 147 149
          150 147 151 147 151 149
          146 152 149 153 149 154
          151 149 154 153 152 149
          153 155 154 156 157 158
          159 156 158 160 159 156
          157 158 161 162 158 161
          163 162 158 159 163 158
          157 164 161 165 166 167
          168 166 167 169 165 167
          170 169 167 171 172 166
          171 172 173 174 171 166
          171 173 175 174 171 175
          165 172 166 172 173 161
          162 172 161 162 165 172
          174 168 166 164 173 161
          164 173 176 173 175 176
          177 162 165 163 177 162
          177 169 165 175 176 178
          179 174 175 179 174 180
          174 181 180 179 182 175
          182 175 178 183 179 182
          183 179 184 179 184 180
          184 185 180 181 185 180
          181 186 185 187 188 189
          187 189 190 187 191 188
          192 187 190 193 189 194
          193 195 189 193 196 194
          188 189 194 195 189 190
          188 194 197 198 199 200
          201 198 199 198 202 200
          203 198 204 198 204 205
          198 202 205 201 203 198
          188 199 200 191 188 199
          191 201 199 188 197 200
          206 197 200 206 207 200
          202 207 200 192 195 190
          208 209 210 208 204 210
          204 205 210 203 208 204
          211 212 213 211 213 205
          213 202 207 213 202 205
          214 215 216 214 217 215
          218 214 216 214 219 217
          215 220 216 221 215 222
          217 221 215 215 222 223
          215 223 220 218 224 216
          224 220 216 225 226 227
          228 226 227 225 229 227
          225 226 230 226 231 230
          232 226 231 232 228 226
          233 234 235 233 236 234
          237 233 236 237 238 233
          234 235 225 234 225 230
          234 221 230 236 234 221
          235 225 229 219 237 236
          221 222 230 217 236 221
          222 231 230 222 239 231
          232 240 231 240 239 231
          222 223 239 219 217 236
          241 242 243 244 241 243
          245 244 241 242 246 243
          244 246 243 247 248 249
          247 250 248 247 251 249
          252 247 251 253 247 250
          253 252 247 250 248 254
          255 242 246 255 246 256
          244 257 246 257 246 256
          253 250 256 250 255 256
          250 254 255 258 259 260
          258 261 259 259 262 260
          261 259 263 259 263 257
          259 257 262 262 264 260
          262 253 252 262 252 264
          257 253 256 257 262 253
          244 263 257 265 244 263
          265 245 244 261 265 263
          266 267 268 266 268 269
          266 270 269 267 271 268
          268 269 272 268 273 272
          271 268 273 270 274 269
          275 269 272 274 275 269
          276 277 278 279 276 277
          276 278 280 279 281 276
          281 276 282 276 282 280
          283 278 280 273 272 282
          271 273 283 273 282 280
          273 283 280 284 272 282
          275 284 272 285 279 281
          285 286 279 287 285 288
          287 288 289 287 290 285
          285 288 281 288 281 284
          288 284 291 288 289 291
          281 284 282 290 285 286
          290 286 292 290 293 292
        </DataArray>
        <DataArray type="Int64" Name="offsets" format="ascii" RangeMin="3" RangeMax="1116">
          3 6 9 12 15 18
          21 24 27 30 33 36
          39 42 45 48 51 54
          57 60 63 66 69 72
          75 78 81 84 87 90
          93 96 99 102 105 108
          111 114 117 120 123 126
          129 132 135 138 141 144
          147 150 153 156 159 162
          165 168 171 174 177 180
          183 186 189 192 195 198
          201 204 207 210 213 216
          219 222 225 228 231 234
          237 240 243 246 249 252
          255 258 261 264 267 270
          273 276 279 282 285 288
          291 294 297 300 303 306
          309 312 315 318 321 324
          327 330 333 336 339 342
          345 348 351 354 357 360
          363 366 369 372 375 378
          381 384 387 390 393 396
          399 402 405 408 411 414
          417 420 423 426 429 432
          435 438 441 444 447 450
          453 456 459 462 465 468
          471 474 477 480 483 486
          489 492 495 498 501 504
          507 510 513 516 519 522
          525 528 531 534 537 540
          543 546 549 552 555 558
          561 564 567 570 573 576
          579 582 585 588 591 594
          597 600 603 606 609 612
          615 618 621 624 627 630
          633 636 639 642 645 648
          651 654 657 660 663 666
          669 672 675 678 681 684
          687 690 693 696 699 702
          705 708 711 714 717 720
          723 726 729 732 735 738
          741 744 747 750 753 756
          759 762 765 768 771 774
          777 780 783 786 789 792
          795 798 801 804 807 810
          813 816 819 822 825 828
          831 834 837 840 843 846
          849 852 855 858 861 864
          867 870 873 876 879 882
          885 888 891 894 897 900
          903 906 909 912 915 918
          921 924 927 930 933 936
          939 942 945 948 951 954
          957 960 963 966 969 972
          975 978 981 984 987 990
          993 996 999 1002 1005 1008
          1011 1014 1017 1020 1023 1026
          1029 1032 1035 1038 1041 1044
          1047 1050 1053 1056 1059 1062
          1065 1068 1071 1074 1077 1080
          1083 1086 1089 1092 1095 1098
          1101 1104 1107 1110 1113 1116
        </DataArray>
        <DataArray type="UInt8" Name="types" format="ascii" RangeMin="5" RangeMax="5">
          5 5 5 5 5 5
          5 5 5 5 5 5
          5 5 5 5 5 5
          5 5 5 5 5 5
          5 5 5 5 5 5
          5 5 5 5 5 5
          5 5 5 5 5 5
          5 5 5 5 5 5
          5 5 5 5 5 5
          5 5 5 5 5 5
          5 5 5 5 5 5
          5 5 5 5 5 5
          5 5 5 5 5 5
          5 5 5 5 5 5
          5 5 5 5 5 5
          5 5 5 5 5 5
          5 5 5 5 5 5
          5 5 5 5 5 5
          5 5 5 5 5 5
          5 5 5 5 5 5
          5 5 5 5 5 5
          5 5 5 5 5 5
          5 5 5 5 5 5
          5 5 5 5 5 5
          5 5 5 5 5 5
          5 5 5 5 5 5
          5 5 5 5 5 5
          5 5 5 5 5 5
          5 5 5 5 5 5
          5 5 5 5 5 5
          5 5 5 5 5 5
          5 5 5 5 5 5
          5 5 5 5 5 5
          5 5 5 5 5 5
          5 5 5 5 5 5
          5 5 5 5 5 5
          5 5 5 5 5 5
          5 5 5 5 5 5
          5 5 5 5 5 5
          5 5 5 5 5 5
          5 5 5 5 5 5
          5 5 5 5 5 5
          5 5 5 5 5 5
          5 5 5 5 5 5
          5 5 5 5 5 5
          5 5 5 5 5 5
          5 5 5 5 5 5
          5 5 5 5 5 5
          5 5 5 5 5 5
          5 5 5 5 5 5
          5 5 5 5 5 5
          5 5 5 5 5 5
          5 5 5 5 5 5
          5 5 5 5 5 5
          5 5 5 5 5 5
          5 5 5 5 5 5
          5 5 5 5 5 5
          5 5 5 5 5 5
          5 5 5 5 5 5
          5 5 5 5 5 5
          5 5 5 5 5 5
          5 5 5 5 5 5
        </DataArray>
      </Cells>
    </Piece>
  </UnstructuredGrid>
</VTKFile>
