<VTKFile type="UnstructuredGrid" version="0.1" byte_order="BigEndian"><UnstructuredGrid><Piece NumberOfPoints="10" NumberOfCells="9"><Points><DataArray type="Float32" NumberOfComponents="3" Format="ascii">0.0 3.13 0.0
0.0011451720161734773 3.1226071673556546 -0.22475644235559933
0.006270238112182833 3.1157426298357995 -0.4516342714928567
0.0061543494495708 3.1145864057777106 -0.6767133764813797
0.006233567648543173 3.1099393206895014 -0.9014926674331206
0.006225975448725892 3.094856542066089 -1.12548438444481
0.006096319123272893 3.08196281096583 -1.3499111905637147
0.006607358104854053 3.07174785957049 -1.5740551149877424
0.18713199535364963 3.030532873443352 -1.9930776245022779
-0.18413935768949508 3.0453481921941 -1.8011491847368126</DataArray></Points><Cells><DataArray type="Int32" Name="connectivity" Format="ascii">0 1
1 2
2 3
3 4
4 5
5 6
6 7
7 8
7 9</DataArray><DataArray Name="types" Format="ascii" type="Int32">3
3
3
3
3
3
3
3
3</DataArray><DataArray Name="offsets" type="Int32" Format="ascii">2
4
6
8
10
12
14
16
18</DataArray></Cells></Piece></UnstructuredGrid></VTKFile>