<VTKFile type="UnstructuredGrid" version="0.1" byte_order="BigEndian"><UnstructuredGrid><Piece NumberOfPoints="1238" NumberOfCells="1237"><Points><DataArray type="Float32" NumberOfComponents="3" Format="ascii">3e-05 1.13 0.0
0.0003122758531203376 1.1281333470561883 -0.18744313406179888
0.0011635565630606338 1.1262924988182337 -0.374984108446191
0.0018609998780471392 1.1246055913362742 -0.5624942158093756
-0.04187191700498641 1.1215088619808682 -0.7553923766975275
-0.01912632564098881 1.1215689360939032 -0.9400813547757965
0.003372870934500033 1.1158000243816986 -1.1246105112513904
0.0032439555359293575 1.1109448141043445 -1.311976678111957
0.13129730356658206 1.0996362794518324 -1.4647205818448659
0.2640651247855696 1.0892709740209803 -1.618524684020082
-0.12511520949037286 1.1049359291532623 -1.4646584430247878
-0.3286563960398704 1.0875644222676404 -1.6305240841406246
0.32799598103588873 1.0831720575636288 -1.7210035492761895
0.3892240372712618 1.0736073095996355 -1.8228327868365426
0.4519102049732143 1.060255728855072 -1.9237720895687165
0.5147216997453705 1.0467833844185508 -2.0247610725789795
0.3546051614541956 1.0821312257019229 -1.697775813003848
0.45921283342477387 1.067311664811145 -1.749045121310664
0.5748235595491311 1.0470403675451196 -1.771345862988524
0.6907415498023975 1.0239607292599457 -1.7777906966503485
-0.3127919867206593 1.0872559112776778 -1.7188098653145352
-0.2952543294775615 1.0839745562647736 -1.8186200184041876
-0.2764522806289597 1.080453767057813 -1.9256795807881828
-0.29439341193747887 1.0720397998242068 -2.0436522295643282
-0.31804548764052165 1.0876634333426742 -1.692566419281077
-0.31220318962389804 1.0871499173735333 -1.7220828175154537
-0.3051451367183613 1.0858295253030377 -1.76224792501818
-0.29464459372184354 1.0838638143813306 -1.822027660363505
0.5614837491832868 1.035015063879892 -2.135012763953326
0.6077679462853454 1.0233198530024898 -2.2451271091614546
0.6532003791851293 1.009481673194065 -2.3550038708358794
0.6977292413812455 0.9913858562136945 -2.4646976322691154
0.5915183562391796 1.0317325771144228 -2.11610171901354
0.6878356035345937 1.009679200669029 -2.1827468726173493
0.7955095102741406 0.9772257275406271 -2.2216093229253486
0.945285809459065 0.9303193178572291 -2.2484084934821364
0.893862765568723 0.976502065055911 -1.7535517158596365
1.004657987407104 0.9377071246437263 -1.755580421469998
1.116136416567169 0.8988614377602703 -1.7551732141869214
1.2237202757772574 0.8506644980510296 -1.7530107970675686
0.8834438180005256 0.9811368890829438 -1.7209140442134037
0.8755031444403876 0.9846135355107685 -1.6978723473117754
-0.32301580792100565 1.0632825590137136 -2.1596407432137292
-0.3511999956842649 1.0557833937226342 -2.2757978293964998
-0.3829692033267871 1.047850938182816 -2.3925960465117004
-0.41397263703661424 1.0399644295472326 -2.5088975407471863
-0.2879449377007426 1.0671525788527718 -2.1633785737390197
-0.2497578883382375 1.0670911109187957 -2.2770120908278546
-0.15253548041022116 1.061261157351069 -2.5600116269428814
-0.08842280770838871 1.0643435829824262 -2.5489015096275676
0.7581274172306423 0.9701267233431167 -2.5660597997078956
0.8185891785616811 0.9488510848177654 -2.6674438761960153
0.8794543996208795 0.9289596777077511 -2.7689862710251365
0.9358908084414316 0.8995654447950966 -2.8696860002534135
0.7260558739497264 0.9767078503358445 -2.580182344456478
0.7228675750066421 0.9691916671529532 -2.699514444845452
0.6896079936775887 0.9700236289527107 -2.8152182607118257
0.6432465779231786 0.9744185427328645 -2.926073088755568
1.0739764622503645 0.8927502508808141 -2.240768902805842
1.1728685440702458 0.8511264772250939 -2.231828966350926
1.0704862633136651 0.8906273443084757 -2.2762186525092485
1.1569014977846133 0.8518951801193752 -2.3339302084696265
1.2035875243195662 0.822630535323273 -2.4160162209860467
1.2259882570079415 0.8065764846122353 -2.5099728095840868
1.4586348328139807 0.7291587023297594 -1.7500213278651955
1.4543702135424275 0.7298969570962236 -1.7845856108919746
-0.4603377588054804 1.0296669536820549 -2.619091900070171
-0.5052778242242848 1.0159303272203235 -2.728956292848411
-0.5496355095361076 0.9997893324269334 -2.8389474468257476
-0.5933253296404118 0.9837854461892133 -2.949065678605325
-0.4265270001175009 1.0319865619554198 -2.628009064866893
-0.40658061361227676 1.026627375479053 -2.7460891295791616
-0.35683934519326643 1.0243008193834626 -2.8552405454525545
-0.290287156737401 1.023874686624882 -2.955068772956888
-0.023582397298048976 1.0643312340006783 -2.5374883923726674
0.07495808735427072 1.060316880944533 -2.6051782229878184
0.17702981425725303 1.0501346388165174 -2.6661256426166196
0.2812994329864325 1.0377646160552856 -2.72393695235961
0.002579859862042488 1.0643262519044079 -2.532883337062801
0.11436613149158796 1.0613877915959915 -2.57529062882815
0.23212733164161362 1.0520428455030821 -2.592397377776024
0.34995752923494394 1.0412101836133125 -2.582566263082087
0.9661520454720328 0.8776575387750961 -2.9817560519323556
0.9937914867830275 0.8571711599797093 -3.0960415705853124
1.0193580170483787 0.8387990225535529 -3.2115241376844765
1.0567354985611495 0.8165553713765294 -3.3239019850513265
0.9924102989635154 0.8683863532684082 -2.9633761199515893
1.0840715180675276 0.8256240573492767 -3.0298192763304432
1.1873463776414248 0.7814244146850706 -3.0694336652787237
1.2900490618826417 0.7307613152539553 -3.0963840085740393
0.5682603448713178 0.9823120226110138 -3.019083935918204
0.48822949571559743 0.9897475149243015 -3.10606594763961
0.39718659319558614 1.0005575685075139 -3.1791831518875697
0.3059617352184335 1.0097914801831347 -3.2524564268734473
0.5982936269537864 0.9749103250622986 -3.0371030618444164
0.5854187535063076 0.9666802324478466 -3.154654134783744
0.6025356062807543 0.95504634001941 -3.2708125811376845
0.6329781026739485 0.9433974700301548 -3.3840200817220705
1.2663781389043574 0.7798775460702498 -2.618436546741874
1.3069208945075184 0.7530911016297509 -2.7269434224346862
1.3440224433978367 0.7209362829307947 -2.8348675608774525
1.399261220616397 0.6746960680408294 -2.9283296115756157
1.292766488999014 0.7657473568599654 -2.599452490539867
1.3785376245791983 0.7151503090386577 -2.6643612787984945
1.4856193950144532 0.6330983779653954 -2.707940692366654
1.5872571330485228 0.5583271739043371 -2.7226904947759802
-0.6199462247952859 0.9714380391991221 -3.065149657407385
-0.6477157598573855 0.958915157413243 -3.1811906675869297
-0.6753528964290233 0.946418225111622 -3.2972782204376454
-0.7010125193081118 0.9284943781287898 -3.413041803396262
-0.6518867133500953 0.9653351211994843 -3.051127073293212
-0.6967704566368913 0.952930359643847 -3.099452681951807
-0.6992457822634607 0.9525542211481794 -3.0966455278082767
-0.7064570386613331 0.9515213188616185 -3.0873502035922193
-0.19919417308707735 1.027151492084318 -3.03265804127109
-0.1083293615819817 1.0304373350118894 -3.1097661347427827
-0.01952781080075026 1.0241902740408086 -3.1865997456926523
0.05052824959476032 1.014972121628006 -3.278833276521372
-0.2261312986473487 1.023684596177853 -3.056066367264869
-0.19105804810297022 1.0203735508014269 -3.1708241741958862
-0.1854817027819765 1.0143803228558204 -3.2905354453386684
-0.20076462103155376 1.0044674979359876 -3.4091060565480023
0.3912397677418414 1.0259803495633928 -2.7693521488145465
0.5006730720538544 1.0135794206867292 -2.8147762265434086
0.3728332099380777 1.0248639246139943 -2.799896828356554
0.4402824086159977 1.0149052859684247 -2.898146188620047
0.4555811593298351 1.0301956218101793 -2.530113829419624
0.5611520610613311 1.0192064658975428 -2.477165603054005
0.46648505848366917 1.0275687058704048 -2.563763268935856
0.582312259015677 1.0107911765923205 -2.5772735274203318
1.1083272159014719 0.7894557930701063 -3.4300193526635865
1.157785048008701 0.7584999770285 -3.5355372827789213
1.2085264931519375 0.7242375550955494 -3.6414591983389384
1.1886463899888675 0.7269341649184532 -3.7301458074051865
1.07525180272556 0.8025762515572146 -3.441567700718012
1.0616412044068269 0.7974261291364679 -3.560576699185309
1.020723798263434 0.803794171236535 -3.6730584814968363
0.9541884303012539 0.8213165871719691 -3.771827127827973
1.3898812412358372 0.6643552361011746 -3.088435800817213
1.487292496323505 0.5996136107790877 -3.0801658640046363
1.5700341131342304 0.5239019107401897 -3.0955417603643944
1.639977933440236 0.43621292209693197 -3.12321539378728
1.3858403777950814 0.6634081253815708 -3.123318455354127
1.4669276350189362 0.6026791879715576 -3.1806163018226266
1.5270511053254063 0.5485514566340102 -3.2617628818666637
1.5598726503728642 0.49468875667666157 -3.358983539637507
0.21196640608153586 1.007206613964353 -3.326133392410273
0.1175016303360524 1.0046493055005847 -3.399566323956198
0.04296051664965174 1.000010274575471 -3.4971509947418435
-0.015589316924872046 0.9938297023854344 -3.6021200712908588
0.21697419924747766 1.0073359103406943 -3.322335404461233
0.1303354287884543 1.0049713184130764 -3.3899742748620088
0.08360904017550377 0.9987711294899553 -3.500934534873444
0.07753590244395864 0.9911057636978392 -3.6190949479997903
0.6759820722624238 0.9286742736047867 -3.51089459212398
0.6387692375972659 0.9308935749861801 -3.601805546185554
0.6003450088335264 0.9326201119773848 -3.6950775799123865
0.5594337368157969 0.9291170854852905 -3.7914062538711475
0.6851039262340082 0.9281156666643403 -3.4888883566970468
0.7640551524065115 0.8991702164215556 -3.5749928376435833
0.8461307953025271 0.8697310111274174 -3.657473511124404
1.6541510331195042 0.4843060216563595 -2.6924418654722735
1.699915011643259 0.43110024262928615 -2.655831205073512
1.7751064104008103 0.34049593350967666 -2.6209046053598364
1.818167503315867 0.24925257318894764 -2.5806435192302954
1.652951656362829 0.48143302988677295 -2.7271908865100434
1.7228913880070889 0.3882069179971666 -2.7655700612984355
1.780583135579961 0.3034814184193997 -2.8240166804874183
1.792250550777736 0.2308575352900414 -2.8988799717906164
-0.7097048727919786 0.9167087901485147 -3.531865031840273
-0.7176365836308296 0.9040620776972577 -3.6506232690807283
-0.7228997709421381 0.8921843328071613 -3.7696315918787646
-0.7274187621220354 0.8805214393432853 -3.8887050190044614
-0.7427497637737305 0.9076914587529572 -3.522944161283184
-1.0063408958289546 0.8162198865830829 -3.653483101195988
-0.9969556249984297 0.8155473729621502 -3.712490946493323
-0.9895149746816418 0.814500189501324 -3.749523366368871
-0.22269543509389939 0.9948189854394764 -3.5266471340944787
-0.24474224213624204 0.9851522153426716 -3.6442431732602523
-0.29253663404525915 0.972615735690334 -3.7535826416394533
-0.35511166037960884 0.9548741404883967 -3.854321553593064
-0.2562316438693747 0.9911574634756843 -3.514574068563045
-0.3382256118191055 0.9755112909485587 -3.600807137263612
-0.4389698230961904 0.957897748103608 -3.6634526185921885
-0.5509883147205632 0.9368914565253125 -3.7007870416064517
1.1695570780404776 0.726821261141423 -3.8089359953569213
1.146414954136276 0.7261154329249041 -3.901763092254381
1.1718168400105076 0.6939468617529154 -4.017589087401028
1.1878672244298587 0.6672307375480218 -4.133717582296175
1.1639726521843052 0.7267876783582884 -3.8304324039234348
1.1374657639312253 0.7259475445226441 -3.9369655343438055
1.1413543959868548 0.7056936355180717 -4.0560063745577155
1.1270841266660427 0.6963825852150015 -4.174984542437857
0.8858480702770171 0.8398285972096734 -3.868359468966157
0.8154386382413406 0.8515434397048794 -3.963888009453238
0.7418858404814432 0.861512118107523 -4.059419833588035
0.6949712158128701 0.8621009079313391 -4.1703348907775695
0.8629005298875166 0.8495743779131334 -3.8431404455044067
0.7542387977629212 0.8752007137545788 -3.8849116321373414
1.7094644290298027 0.3503272765639907 -3.141758698071057
1.7545347697085596 0.2535233275526254 -3.157591462268395
1.790137243634718 0.11958262319711699 -3.1726774563010816
1.8088158026082175 0.03464557906153165 -3.2129591203795367
1.700580563731485 0.3564528100705501 -3.174712522037991
1.734060330320808 0.28517949059407965 -3.251609397884729
1.738709783907902 0.22667983401359654 -3.345608192321967
1.7389984853574703 0.1795843547021152 -3.4481885860952697
1.52790533765898 0.5205997846421138 -3.430308221521255
1.500755090894397 0.5375010681534741 -3.522808338940641
1.4725902747295685 0.5507897279312038 -3.624459885179737
1.4360057920794065 0.5638522545832543 -3.7293718171075763
1.52179905281662 0.5245727199426043 -3.450038428170615
1.491793575014784 0.5431385180577222 -3.5529721555885136
1.4606060155718863 0.5549609534569023 -3.6598506863096576
1.4227459828066045 0.5685729200688115 -3.767527243541505
-0.027724428061324583 0.9822550372134995 -3.720323729197622
-0.041008040192196726 0.9707519187785154 -3.8391050501720407
-0.050547166491954544 0.961032652183307 -3.9583477491537704
-0.04256372520805329 0.9514816723205206 -4.077984991090631
-0.06192681264115651 0.9825655823445119 -3.71236351709312
-0.13598539736789567 0.9724709778993018 -3.8066487258492323
-0.23040486974915544 0.9652818326104962 -3.8801427024831914
-0.2992135125007417 0.9511129565399731 -3.975878841219068
0.12150516922733426 0.9827764276604354 -3.7288839050750076
0.1656257096446071 0.9733953672251603 -3.8389060028025717
0.23497709654144214 0.9621844080336636 -3.9345799106742643
0.3228328121556419 0.9424720577834567 -4.0125670102563396
0.5124082096212446 0.9252238220652538 -3.9007528703323193
0.4755956562500582 0.9194434406767305 -4.01461246386483
0.4747698760676433 0.9095082584895635 -4.133781238040751
0.49777558517241804 0.8962497414849864 -4.250959514321666
0.5163228660038344 0.9255102680106096 -3.8920396465250935
0.5316004664216841 0.9119245056401971 -4.010098492453083
0.5795973649385044 0.8949207297814682 -4.118554567884452
1.856481435678804 0.11772158391014947 -2.551099491606979
1.8819551480128345 0.02967250348091409 -2.5242508235992496
1.8881887325983695 -0.03987999291020183 -2.4970027142559283
1.8840229795152301 -0.10955452881151352 -2.467378457872665
1.8565757964632654 0.12738693850584173 -2.5223174417261998
1.8802865506561801 0.06296561927920177 -2.4402660647016043
1.8976179338984913 0.028772897412660276 -2.3400418542698755
1.9106688238660472 0.014291329156402383 -2.229408852419643
1.7979371493926666 0.1799859115275182 -2.9728467123563123
1.814973680482631 0.08251698376774393 -3.0556082974568644
1.7909063385562383 0.19646238631026303 -2.9924434267644107
-0.7466039503581337 0.8629251567568054 -4.004188629384684
-0.7628959973560255 0.8458404558426026 -4.120096564807721
-0.7886407505146374 0.8260827902350273 -4.236436110634344
-0.653609270794766 0.8568561815117438 -4.35467064771449
-0.7140783510737135 0.8726912123646389 -4.007663022970989
-0.6720016884688843 0.8744682557403224 -4.120565643458657
-0.6548645036520916 0.8699498949103469 -4.219795991159224
-0.6530829240393305 0.8623419467597896 -4.301482311655871
-0.9885337389566726 0.8143023949505857 -3.754223060608144
-0.9841055885720549 0.8134259825967103 -3.775280808740228
-0.9733121970283007 0.8113132582880714 -3.826388843347783
-0.9576331755467853 0.8082459616358258 -3.900614582173649
-0.9826794948869102 0.8131760571323249 -3.7817608639032354
-0.9718670213255602 0.8110470843097125 -3.833076019529104
-0.9576159337508384 0.8082409333248949 -3.900711652126568
-1.0309126649241738 0.7680178366864246 -3.9857593301256293
1.2167759552064155 0.6369345352624363 -4.245915314441671
1.2456133143991057 0.6066491937392819 -4.35834898767121
1.2782743571299442 0.5674010302555479 -4.466720813777102
1.3058737773335254 0.5176894316170059 -4.571743055942204
1.0785699445552916 0.7101999827580154 -4.283738140881052
1.0273225975017577 0.7167880504209388 -4.390541138693201
0.9683646868281143 0.7248440714777303 -4.5006773027740135
0.8984542818786652 0.739866027782402 -4.60062608029924
1.1081430512873542 0.6923317358134027 -4.293222765605505
1.1197878015160405 0.6698459200526471 -4.410051443852573
1.1557774517872104 0.6335403706885171 -4.518700218778553
1.1624547593264352 0.6129929201038637 -4.6373055763000135
0.6519105458687169 0.8620530071437718 -4.281576768471275
0.6082419261410328 0.8557666173593654 -4.392307169022926
0.5893003378463849 0.8435833376839121 -4.51102058313916
0.5838874960902258 0.8325176446774849 -4.630790772693467
0.6845515620371287 0.8541876556493907 -4.289664112218288
0.7065115689697481 0.8344594525777286 -4.40812625460576
0.754057139389927 0.8102021637791176 -4.516209762651678
1.8108001542288665 -0.030514540988961933 -3.2528892542602015
1.7994020117141927 -0.09575542102956017 -3.29830156484259
1.7843901830034405 -0.18856267271531127 -3.3486443073858676
1.7585292407543405 -0.28388052603881697 -3.4009663349181705
1.8081575264500802 -0.01830651130630038 -3.2825604351096884
1.791710171944782 -0.07946695965897604 -3.3711870755043623
1.7747431850936215 -0.11466595406914568 -3.470751674636079
1.7536278893138992 -0.12356048583178536 -3.57808136065756
1.7263157272445167 0.17270968395869798 -3.5610943370872836
1.7133021174081056 0.1656484189196167 -3.676413280035982
1.6974041311530705 0.1655631665727966 -3.7930936077184483
1.6801051132115032 0.16483332359803024 -3.910575575919022
1.7362009926330073 0.1406827359216105 -3.554754867708982
1.7430362799089416 0.0740559981015653 -3.647038562436649
1.7511428230995414 -0.013487386435666415 -3.71841147019105
1.7305585937993375 -0.08004612839098416 -3.8046246456733614
1.3904369795856955 0.5778088673365236 -3.8820332916407096
1.358396514661447 0.5868376389271661 -3.9968267765289798
1.3519513524288205 0.5727880379001117 -4.1152715056275335
1.3627469829544594 0.5375052026928357 -4.225551574144814
1.4139966531472647 0.5564421208762188 -3.8854982936027715
1.4190598349120878 0.5251036215176483 -3.996581173652621
1.4395183690417637 0.48574268139221277 -4.0959103065598645
1.4938845445463658 0.41344288411161595 -4.179814921103174
-0.031616046168667165 0.9397869913688589 -4.195935407597926
-0.022712761683062653 0.9270382018970676 -4.314076989905471
-0.007824277411527789 0.918118984508599 -4.432826506804349
0.006343200677246414 0.9101331642620022 -4.551713529049609
0.0013007134463087903 0.9404203552262584 -4.185336391557719
0.08282392456542215 0.9297140307855505 -4.274052274529143
0.18283848254385332 0.9210761445753561 -4.340773635311973
0.2890228791769147 0.9136292416698014 -4.395465594007251
-0.326662471712737 0.9355250781864483 -4.090119575592463
-0.35410670845425857 0.9198220285417246 -4.204890081786909
-0.3814192926806324 0.9034316802960891 -4.319924847178974
-0.37341229679923194 0.8937947579300193 -4.43868431586328
-0.3590617534271511 0.932049396196242 -4.0760854707310665
-0.44713444583898615 0.9105935096011156 -4.156167514485786
0.46899478284172397 0.8863718940837281 -4.366802976611927
0.4398286217591236 0.8770901508055075 -4.482999252150627
0.3803059362094238 0.8799116456677589 -4.587403530732954
0.31553959455297237 0.8767901249586981 -4.687665733598651
1.8595852341624144 -0.37347754286411505 -2.4122775611973695
1.8651329519777051 -0.37384602650910775 -2.3668103107028196
1.8706957639849873 -0.37341553132999156 -2.322055314854343
1.8748238585506354 -0.3685314752409073 -2.2760638890329075
1.8556799685432126 -0.37360855169746987 -2.4438758613450897
1.8535734792732195 -0.3745103042396091 -2.460051429416817
1.8477245833215525 -0.37432693551995605 -2.5077726908435243
1.8278496223201228 -0.45256477267516465 -2.5795951359555107
1.9233026938754565 0.0008314434420119358 -2.116619189232069
1.9301785049520161 -0.011527217250503421 -2.001210312082363
1.9382862220137638 -0.0036447071889546545 -1.8855122687002335
1.946098968926851 -0.0011414662157068936 -1.7683723052569442
1.9173777175240592 0.027149361044145098 -2.112774021386436
1.917012134629998 0.060901342873846034 -2.002226390697906
1.8710094410317 0.28370557494078236 -1.8993430512254361
-0.6501590419126559 0.8440603739297954 -4.473763100105095
-0.6466814753212935 0.8274983797258473 -4.592421944368581
-0.6415916965147814 0.8112271306416182 -4.7115917383229995
-0.6366921456611528 0.7949417299240847 -4.83056341137666
-0.6502734771012495 0.8446837168303956 -4.469322645037089
-0.6469853311937624 0.828959731658808 -4.581956682310255
-0.6941240061159374 0.802548659172196 -4.689504813414257
-0.7700287144999192 0.7721310078793572 -4.777851188288931
-1.1119267986373575 0.7166301308071996 -4.057094651195611
-1.192321042992478 0.6645730104385957 -4.128306675876674
-1.2761339588329217 0.6090411003702276 -4.205094804265309
-1.3470133448584845 0.5423853581174937 -4.276319062151775
-1.0885174101441923 0.7266572426088007 -4.0819604505631055
-1.1196108755439516 0.6966969474945206 -4.193203547863692
-1.1242842723735373 0.6800824467127031 -4.311395585597977
-1.1165065402374843 0.6709487307411198 -4.430467920061452
1.323269361217296 0.4804009195209449 -4.683484262257989
1.351192357058655 0.4334721632816358 -4.802644546586929
1.371279171575887 0.3954514296379663 -4.914804407507542
1.3597200460432444 0.3429100487581765 -5.02312753563128
1.346543188903179 0.4600261500879364 -4.666540636527919
1.4141382485816165 0.38045129595548016 -4.743888386476887
1.4700453985809916 0.29771234958502185 -4.779863660601862
1.4911384593284076 0.24048821103830847 -4.7909393100391195
0.8338021343173083 0.7582744848097893 -4.700097090796345
0.7693311306334794 0.7693727666403024 -4.796687767103788
0.7017227339702318 0.7761019165880609 -4.894825442629255
0.6567374332976958 0.7729159926578384 -5.004869233668756
0.8110647342139526 0.7710800135596944 -4.675790135430031
0.7051666918841117 0.7968085043967624 -4.718693122054148
1.1566806982036417 0.6018593404144884 -4.755619552268727
1.144429897364911 0.5844453295254779 -4.873196072899284
1.1315944253201573 0.5683635989525562 -4.991254326792303
1.0950492344837324 0.5727788060874628 -5.10591580422392
1.12901545727326 0.6172150391216726 -4.75158777812683
1.06603144217089 0.636498606029869 -4.852165846989259
0.981775538552774 0.663576405654051 -4.9328673521163555
0.8835379733825091 0.6935818199333165 -4.994082296137241
0.5293133948496741 0.8339608381781328 -4.73865044585681
0.47481821678751096 0.8337475068957321 -4.84572864501125
0.4402318600937309 0.8261292497730773 -4.960199561926613
0.3755998907134555 0.825313051418803 -5.060833366554521
0.5621430382000008 0.8256649488406407 -4.749042647191416
0.5722866663403237 0.8089045753327699 -4.867481219422231
1.7311894690614071 -0.37124547414961706 -3.46884333669232
1.703353425136759 -0.4599428176276099 -3.5381900043987033
1.6786912143111372 -0.5497435981987845 -3.6092995618424712
1.6343653159886113 -0.6333205339594403 -3.6774343378736
1.7338046716571534 -0.3876875435950898 -3.4391066830178967
1.7136202499891349 -0.4981820995898595 -3.4461086290932728
1.683104577147511 -0.6029453746578329 -3.421282450772093
1.6480330844714042 -0.7025398688449498 -3.381396627121194
1.651061665751174 0.19823487128711292 -4.023548398874883
1.6214074813865071 0.22673552756775905 -4.135204783236389
1.5999081494467287 0.22485537162887165 -4.251857379954929
1.5883067396561592 0.19683308899463772 -4.365903033844036
1.6783174470513695 0.10290291895323786 -4.030413709851178
1.676951350236349 0.03684087162448407 -4.1432326899356555
1.6687638115451013 -0.018256020542777047 -4.242138227907591
1.6507386684036487 -0.04679619562342544 -4.325120266912311
1.7186503283089285 -0.05901309139525375 -3.901035779198158
1.7042374588589544 -0.04596434757584293 -4.008026313180268
1.7179451177937548 -0.04999475831845157 -3.9128205242500766
1.703057310096471 -0.03386186656853554 -4.025411166491084
1.4177033561120913 0.4639194911217327 -4.311440749076854
1.4701815261286624 0.39290746632638257 -4.396796169005219
1.5087116581284667 0.33570418179753264 -4.495622686392958
1.5129038471163117 0.28692800815007063 -4.608492836329976
1.3961268780863452 0.4809600761706208 -4.3308645560101775
1.4059213835429505 0.4455991361224703 -4.445942130132878
1.5492759422886415 0.3411103382656539 -4.257157971677361
0.03740534919854046 0.8969882710307289 -4.666548867991923
0.0679219868123277 0.8804974433057187 -4.780495394413868
0.09800547867529268 0.8639602460725934 -4.895011529137541
0.10113609885483857 0.8490190496224457 -5.01383692475795
0.0018589216479866532 0.8986254406121108 -4.670851594420268
-0.03548774600324452 0.8864429010559571 -4.78378960955974
-0.09910208826288122 0.8717441161673054 -4.883998781011688
-0.1761889423907138 0.853900380251835 -4.973223413323005
-0.3589900318698029 0.885760436238082 -4.556272054166912
-0.3663011668988572 0.8743609897828061 -4.6725037160055445
-0.3735064329376385 0.8602888156775048 -4.788750668242024
-0.3798833228891707 0.8406021516646324 -4.903794287522946
-0.35815617458079585 0.8870495608065724 -4.543140686251746
-0.36380172505183034 0.8783043381497379 -4.632242288978614
-0.3680372334005928 0.8717567929126749 -4.698936800876449
-0.37350192923962383 0.8611296657307543 -4.783639290515962
0.24769275606157165 0.868764359602622 -4.785665330354824
0.2219331240527235 0.8734391975640581 -4.761579519980872
1.8767412788590045 -0.36890394309652647 -2.2396035738867757
1.8804376371464742 -0.36835332422415223 -2.175776189387688
1.8853059901710747 -0.3675890089579173 -2.091910384815583
1.9069481501175434 -0.29388588915739633 -1.9949264444411188
1.8785983058058593 -0.3683892328180066 -2.2087494147853683
1.8827373181228761 -0.36754984000527946 -2.138413112248892
1.9013961499878038 -0.29453081287426197 -2.0579880545372276
1.9061551248741428 -0.2947836222190977 -2.0030662294987405
1.8034344701704508 -0.5102714712606989 -2.6717751713629756
1.7716018780470293 -0.566647217331579 -2.765714837852526
1.7396766297957302 -0.6243913022765875 -2.8615897732380398
1.6661033215873757 -0.7835345457994477 -2.9490867896236965
1.7977424611830628 -0.53418428685074 -2.648250442237167
1.754932816452504 -0.6287781670002816 -2.688330746203256
1.6187648524121756 -0.937119574380492 -2.7237609499167417
1.6212890313738566 -0.9401590063454769 -2.6947809998131005
-0.620286288447879 0.785958322699489 -4.949076757648806
-0.6052719756295676 0.7763434568467705 -5.072034461229327
-0.5894964661384628 0.7672528909417059 -5.191801519727592
-0.583317289523938 0.7504068511834703 -5.3089510015014385
-0.655170232033421 0.777758077179116 -4.947868177843148
-0.7043789274057013 0.7543598545573568 -5.054846832163959
-0.7731821228786018 0.7116964733471596 -5.142937899351169
-1.008928953053655 0.6016178613646468 -5.255607087624222
-0.8472427834030856 0.7339555814683612 -4.860069783857721
-0.9174361978449354 0.6879465028225755 -4.941408594130645
-1.001942051197646 0.6375692018932801 -5.017651420347483
-0.8673154554467625 0.7299903426754465 -4.831027478260293
-0.9685514632236659 0.6793853478586239 -4.850727022720437
-1.073260066726766 0.6321666832377356 -4.843292060004547
-1.1634259296423743 0.5798802026344225 -4.810381699772221
-1.388638796324002 0.4842079848113982 -4.354156063403592
-1.419271666093041 0.4412178857120497 -4.427392405305616
-1.466756992686095 0.37898108610069065 -4.514037780824233
-1.4782260172995543 0.35409653387531226 -4.595239814408178
-1.4046771175343415 0.47350036268636575 -4.324249558565456
-1.5443122800536482 0.32306492918232815 -4.376409463790685
-1.0841110895932384 0.6764328460294302 -4.541443755160651
-1.049840252039918 0.6781150836968093 -4.652824868763602
-1.082845317154513 0.6767159628229917 -4.5451710200907005
-1.0477183713465876 0.6780084845287307 -4.658749499604124
1.3681920913480348 0.29878101271524576 -5.125726399239543
1.381355910975565 0.24371588660906718 -5.230708212981212
1.3873050399719216 0.19395098920578988 -5.332474541545382
1.3775289557708494 0.1470803197443726 -5.430549598432027
1.3549418427028894 0.32479965597552973 -5.138616108942965
1.3434222831966687 0.32085010603717107 -5.256940311232016
1.2997610220503943 0.32881628213593056 -5.366148366241482
1.2455579963093135 0.35688689767975396 -5.467022337326586
1.5086790042590754 0.2082321288803215 -4.756143367442778
1.5611176386929924 0.06635851406020404 -4.722399389094927
1.5882822985984903 -0.011733913490181566 -4.6879493191115005
1.588992668747109 -0.08009159887697098 -4.645688120878683
1.501381405391285 0.2105026378402266 -4.787863639132138
1.5044578440966396 0.19859170917792895 -4.79143253621518
1.5491259559282742 0.008558409167265801 -4.86968781244471
1.5371333141267882 -0.03580759251506436 -4.922717105372626
0.6102792433173636 0.7692915166942952 -5.114232291042509
0.5639965117552306 0.7634072464175394 -5.223837071574064
0.5156693011871901 0.7554658331392805 -5.333046372929324
0.48870315348707427 0.7415992462511752 -5.44889738572225
0.6438025987150114 0.7611462498683041 -5.122873602678808
0.6623355862313951 0.7387900893252058 -5.238930290124604
0.7069672855912087 0.709420541775234 -5.345636851601776
0.7726530561069196 0.6652752438618457 -5.446967290374207
1.0397156351081593 0.589347677045205 -5.219457093654683
1.0384200913798787 0.5708445469811307 -5.325349781232125
1.0357556474184657 0.5455511107366399 -5.431797441973463
1.0290469246817884 0.5167892845703036 -5.5303830940677985
1.0395217717923817 0.5929543504876366 -5.199849471383721
1.0387784682933408 0.5816147821508634 -5.264628105828528
1.039005076863295 0.5669705798424802 -5.345538500169717
1.035822939845147 0.543241350612101 -5.438653323733988
0.8099327049524905 0.7078209216696741 -5.092497913385412
0.7884315499774505 0.7201761368613392 -5.069461425023059
0.28190516719458325 0.8237794479879709 -5.134429557495007
0.18884574530776038 0.8202976720737374 -5.208285327957389
0.1196639043459284 0.8088684824589497 -5.302801816129263
0.06755418438756611 0.7942598738129993 -5.40724647522149
0.3074952022252183 0.8193146589546796 -5.158859347578099
0.2680662419402965 0.8080305310609035 -5.271085624655049
0.25801463155364246 0.7917023794336172 -5.388952474527727
0.275094052611302 0.7758129421616377 -5.506035512499942
1.585411968683845 -0.7159826186836918 -3.7621224322873554
1.5420853806664871 -0.7864208522594389 -3.8429089403341385
1.4964770133885192 -0.8456483788747229 -3.918176426662566
1.4444544759769808 -0.8984140698957506 -3.9907203603371846
1.583125903352358 -0.7353231547588023 -3.7339674814771993
1.5349163857011836 -0.8295129776299974 -3.754542196702869
1.4833038944494743 -0.9171390742915486 -3.73796617971223
1.430012066806667 -1.002657409770854 -3.7047459894448256
1.6141992887814778 -0.7946749841874312 -3.30896487907738
1.6257358503217016 -0.7950347699799382 -3.2469514289221038
1.6392499870461998 -0.7942255836018568 -3.1776659889777377
1.6491902907665743 -0.7926890946443361 -3.1096148584419883
1.6081698814807155 -0.7953811737796888 -3.3389350590957863
1.4677495714276405 -1.0404173241587213 -3.3594180979463864
1.467534681196547 -1.043615397589252 -3.343638697624032
1.4677726866401424 -1.045614810449643 -3.3304767396200408
1.5990826529776874 0.09722323591504209 -4.479914173823742
1.6064059584364878 0.08086837986923881 -4.467039825050701
1.6161891961878019 0.003113318115209695 -4.548234188676579
1.629534237959731 -0.1051408180535475 -4.405768305673009
1.602974478001193 -0.16015295877811084 -4.492844398073016
1.632412332019268 -0.12232599050990892 -4.377622749749538
1.614901062209017 -0.2033940313691394 -4.40201055369167
1.5938948651440927 -0.3274607916276309 -4.400505743147566
1.5768433222817215 -0.442548754077303 -4.387687750622784
0.05168076619049338 0.8387069098844104 -5.122905381839542
0.0024081790404115056 0.8235055943015541 -5.230891538659918
-0.0768881306522309 0.8120650441308966 -5.320121153057089
-0.17633729895076194 0.8024036129244819 -5.384692264225277
0.08591926372980502 0.8355838330058838 -5.132070722071391
-0.25800164886382937 0.830387279879873 -5.055873416380618
-0.34603545681919806 0.8060490169782129 -5.145912056052975
-0.42187560584466777 0.7844546441077016 -5.240501136211082
-0.46496060456864696 0.7643328224627904 -5.348139674384285
-0.27939773362231207 0.8324486814395607 -5.027544821270044
-0.40093216048706043 0.8130247350621898 -5.056008197058171
1.6211217662417587 -0.9519996751087235 -2.6319126958835595
1.6224052386252026 -0.9623971599580643 -2.549358319819791
1.623898315253202 -0.9744899211534596 -2.453339564713444
1.597573806718582 -1.0305844393835557 -2.353594933524794
1.6206609553944835 -0.9482986341645424 -2.661346915833326
1.6210594885190297 -0.9515014929628467 -2.635877786039141
1.6212381923303194 -0.952939948743618 -2.624442674138451
1.62180592484354 -0.957532986741434 -2.5879652875504524
-0.6095366057834442 0.7256204262466922 -5.420236188707158
-0.5610618045064025 0.715392981760417 -5.549451750997402
-0.5792824973033314 0.6935877225501866 -5.6652203833956065
-0.5958578986045381 0.6689229933367113 -5.779783963403056
-0.571320438818416 0.733800550356224 -5.4245432473621165
-0.5576665381125104 0.718853872267855 -5.531610683907197
-0.5715903597876751 0.7021679041763432 -5.620220229523261
-0.582350334650652 0.6894625907074589 -5.687523480465522
-0.9960450635946385 0.5975373411153676 -5.310583404576559
-0.9769213810766562 0.5915695319101946 -5.386765712565072
-1.01014916518563 0.5425993220387275 -5.488797075157362
-1.034177658331864 0.49882764843694216 -5.595600341893375
-1.2487881746158371 0.5164171274942089 -4.77784050297741
-1.3686241482760775 0.4266531666233873 -4.738238909448409
-1.445950375479759 0.3583562334299061 -4.717871491348841
-1.4599958685859085 0.31482400851867637 -4.726755035744899
-1.2378848140847016 0.528312022339486 -4.747668300278011
-1.3408787845151768 0.4647256420760683 -4.662817175808428
1.3717326011186923 0.05661674698444698 -5.547181696408408
1.3550100904648044 0.02113553203764825 -5.647292835341144
1.3308800669799685 0.017782720917168413 -5.734926948836614
1.3044563083855176 -0.03810949593290414 -5.839154164432382
1.2133412084257635 0.3377683329949856 -5.647003778835471
1.1523262553316571 0.3895503673980472 -5.710607017308046
1.209382684460422 0.34110157054824053 -5.653083514175005
1.136881420696261 0.3968905150696883 -5.721633023381856
1.0544220940451667 0.43315211528644715 -5.797908611801617
0.9711808013032237 0.47023099309363947 -5.872092094819288
1.577113321651398 -0.14718412478974172 -4.653092577834491
1.553243723702126 -0.28916836229122217 -4.659812473896952
1.533522337799103 -0.4012045825192622 -4.67136198716202
1.500308636718705 -0.49141410850510864 -4.707950047775311
1.5816777609498391 -0.14504466025262025 -4.623360461834418
1.523799183806506 -0.0695697749131788 -4.970020685173772
1.5101110637353088 -0.09067370553844031 -5.025095510996886
1.4935746697979808 -0.09933587348026132 -5.087074973408736
1.4765639192638413 -0.09796106566340637 -5.156532731899753
1.5206566388338887 -0.051446563892900345 -4.994356498599427
1.5026788058438454 -0.03861082632110085 -5.081770620681892
1.4816681605548438 0.011137204050626473 -5.174060051705614
1.4449837974051911 0.05295431385276776 -5.2719446832467
0.45756460664241727 0.7275353744476114 -5.563571227055448
0.186741944184147 0.7467481648581105 -5.7417298814700946
0.21139486068492774 0.7287205454323054 -5.84132535648533
0.23462521809691222 0.7035654347437742 -5.940974464151981
0.5303297620639571 0.708053325821641 -5.584345611496417
0.5828921590319117 0.6749607118292781 -5.7046879639043055
0.6310480413811294 0.647264758752526 -5.814637395321149
0.6743828577539808 0.6094547615960181 -5.917475692987254
0.8333524797302219 0.6288383447080471 -5.51266368104812
0.8582299478353024 0.6054969947502798 -5.561652755162212
0.8612302370177938 0.5887289964298256 -5.607025812385594
0.841958305084845 0.5794162389373542 -5.680233386982462
0.8137371822246995 0.6332565228364542 -5.538609420237171
0.8061736750623766 0.6130138704291933 -5.63010764910924
0.7739264573647262 0.6070797023245794 -5.733446428024289
0.005332807532948554 0.7818003542678886 -5.5093164414237075
-0.05636265602754647 0.769449324980384 -5.611076152034711
-0.11792328380862656 0.7531150393368055 -5.7123777002786955
-0.20067335594652963 0.7361806281379382 -5.796001492571378
0.038072766597524066 0.7792412363712902 -5.5227753833568425
0.1565291704082555 0.7643775272021576 -5.613853432592085
1.3910114909523221 -0.9483451871384698 -4.084762094918569
1.3752012621189023 -0.9471247033674842 -4.189670820204803
1.3532969691700354 -0.9543722375175235 -4.296413914623927
1.3307823560859433 -0.9618124126845664 -4.406171348409366
1.380089225441781 -0.9699646725112743 -4.060226672229615
1.3128854867007416 -1.0588033903642922 -4.1000814794816325
1.2387936870093261 -1.1425901850132167 -4.132120882580838
1.1580548643795423 -1.219504529283452 -4.149021161839392
1.4585689914392506 -0.9855046214286128 -3.6271997022439906
1.4642640131746998 -1.005685594682618 -3.5332510930437677
1.4567928592903934 -0.9792661500304852 -3.6563154561195446
1.457355264083228 -0.9810292664804064 -3.6478019434643456
1.4557878557250414 -0.9755457667928114 -3.673423467357996
1.3905808584504542 -1.051720004705755 -3.7274303226675545
1.651410982623029 -0.7914043991611976 -3.088960758118146
1.468115303317339 -1.0522499465106958 -3.2907578296173803
1.4684395969624606 -1.0637171485643688 -3.2244848469599665
1.4765130903274937 -1.0851659757378356 -3.034413006193471
1.4319531044464087 -1.1648300668308913 -2.9681035076379136
1.4679654733390148 -1.0463705231778153 -3.3245915143266345
1.4680763288330607 -1.0509616368044314 -3.2982259206914133
1.4680647241502822 -1.050998537288306 -3.2981246463702245
1.4679846566374914 -1.0465919926676805 -3.323197170686612
1.5480468902967763 -0.5488129254366663 -4.385362289970128
1.5046212646476969 -0.6523336811779534 -4.382439512429127
1.453316384269062 -0.7540827132031805 -4.371707109222981
1.5553013752548093 -0.54361724235088 -4.3510076277890795
1.5341386796026342 -0.6286092804812785 -4.279501481051472
1.522665199133125 -0.6966887948847512 -4.186634495707612
1.5156163791624524 -0.7566229001097401 -4.085707186582489
-0.28973981012551653 0.7828442582032066 -5.415782443355783
-0.27479009743827776 0.7808330823577159 -5.447504269526446
-0.35061695967069617 0.7538350479865366 -5.534378698474918
-0.4553595833370699 0.7470300343699356 -5.465507024596367
1.5837910979876675 -1.067295735286728 -2.2421308275947007
1.5680156872010633 -1.101860459714659 -2.1296421507815317
1.5531865441275894 -1.1362365050229257 -2.0165364221562667
1.5858481485590201 -1.116069126875029 -1.8512023341665955
1.5634953159370455 -1.0908924906440098 -2.25741597672333
1.5109137047418808 -1.1644596681398027 -2.1827900339702433
1.4453692854848694 -1.2492186310101017 -2.1334499972112715
1.3756868911298827 -1.3374130446433816 -2.098699916285893
-0.6100584978574997 0.6350162510248756 -5.893142718781622
-0.6255709803407967 0.600533839507567 -6.006502348846556
-0.6371248834993932 0.5677549789823979 -6.119996620081075
-0.6488872105520739 0.5363191315985274 -6.233054172510994
-0.6100783950621507 0.6359785830706325 -5.889165572480471
-0.6243118395021109 0.6035280573077173 -5.996501129067634
-0.6822745376154284 0.5565224480432468 -6.084887268837949
-0.8175657536235692 0.4781508019758343 -6.16794484735117
-1.1068016581784643 0.42055418888436613 -5.71265110511394
-1.132840290214584 0.3680212629132716 -5.805670251747824
-1.1325155688673747 0.3050741186941775 -5.890560884003297
-1.2559050624185815 -0.014746904230336182 -6.012753513078258
-1.0869986460699907 0.43085623945632556 -5.728839956341792
-1.0883572010499334 0.40188286908242093 -5.852913145758884
-1.0452740933581728 0.3961847920612769 -5.963728527034781
-0.9907653226294302 0.40916581747308445 -6.069162633418224
-1.458345692299831 0.3039941171095197 -4.754896941190111
-1.4478743892146881 0.3025743541668079 -4.80809694111886
-1.4318656667489227 0.30464252268921505 -4.883864246115776
-1.4126924662040186 0.30660016487116076 -4.9756607293015565
-1.4531144835875056 0.30513773552256207 -4.778022623620796
-1.4416115235220242 0.3017231401151599 -4.8408486687956325
-1.426838638202524 0.3004540677991008 -4.916838743401972
-1.4077453197250376 0.31010750639478657 -4.993659408787801
1.2755663607264087 -0.06163446436261458 -5.929221153518982
1.2495607757491458 -0.05657357696127109 -6.017448890094695
1.2181252505417852 -0.03835986160419905 -6.11025288745503
1.186730675809881 -0.013735591640173241 -6.208233681694449
1.272433654384224 -0.047019922886021935 -5.945233010903832
1.2401452104652608 -0.02830824996496388 -6.052973064184905
1.2052656534406672 -0.0005155577258178249 -6.162012480817688
1.1659368036804751 0.002324445969540609 -6.269679618732241
0.8919141048411374 0.4896664268669217 -5.953088153395306
0.8110515909448647 0.5094412656931147 -6.034410675014871
0.7544683368768201 0.5127996073004946 -6.139470832462791
0.7174797416905379 0.5051764247424765 -6.2527406846103695
0.8749611952570384 0.5050524315199145 -5.927199576570473
1.4559050898710364 -0.5773492007597889 -4.753937839788023
1.4760085981292996 -0.5120954480249559 -4.772401666850173
1.4569033071129494 -0.5087821321243992 -4.852260086474141
1.4428653214486478 -0.4813716339058325 -4.952763416105509
1.4338778017001421 -0.4441957615369597 -5.061741629235745
1.445656331309883 -0.17757932783846642 -5.240307124349169
1.4146508823454529 -0.25736400443308827 -5.32439240968269
1.3768155752044473 -0.33610134216216675 -5.4068107219057735
1.333412045916568 -0.40984357635048113 -5.4885764778471025
1.4264833499735907 0.020463985489110745 -5.38779519331221
1.4343759334909916 0.0028148212460276725 -5.377471974626673
1.4161806590165387 -0.020280694409447266 -5.444448382645677
0.2564896128848715 0.6800294662112127 -6.034119509431688
0.2254844055213666 0.6595764804988151 -6.149878575078888
0.2005144813135909 0.6383857106036386 -6.266160395860783
0.17891538894396913 0.6181556822871168 -6.382948458951773
0.2600034361174066 0.6762600291140581 -6.049028865007525
0.2553042356538111 0.6512426591042229 -6.167489013393758
0.27655474356749365 0.6239330764969777 -6.28257230854166
0.3294221749610002 0.5946153661436389 -6.390150583219878
0.6671645490815065 0.5832269143728742 -6.031669625227449
0.6977841186052974 0.5693352010574135 -6.025338352124234
-0.27374372060804497 0.7090485831584346 -5.885621790592585
-0.34535361561662103 0.6810222703184255 -5.975499041274583
-0.4258321376516133 0.6505300531322409 -6.068288071224943
-0.46657213110627715 0.6243226370820409 -6.176177840740453
-0.29710188063627996 0.7094156741395353 -5.859522089280605
1.3034565467969295 -0.9641318470765156 -4.509734677649193
1.2711971709574044 -0.965205826198005 -4.617311305485604
1.218486466125837 -0.9926021040967185 -4.723233745604847
1.1685436755887613 -1.0158752984697017 -4.830907242927943
1.300644103005579 -0.9640466693453353 -4.519600570882741
1.2666063887352124 -0.9652003278532827 -4.633051715676381
1.2257581433805698 -0.9748828713552496 -4.746596959528122
1.1986971166725509 -0.9659364399991108 -4.863665224788649
1.0686543172793246 -1.2913658370234173 -4.139493525783694
0.8676934903655342 -1.4412278443758073 -4.166439493041672
0.8610559977992521 -1.453583007054298 -4.130949941037812
0.8569582257258889 -1.4643046557293407 -4.094566953275264
1.0681475292134468 -1.2864163040556749 -4.173608127740625
0.9848094520278562 -1.3433504775992102 -4.228855644792019
0.8817687233591819 -1.4037067300227322 -4.294655310899064
0.8061800523500109 -1.4342717724257674 -4.377331009172598
1.3209668375552928 -1.1348824110422022 -3.762898943516688
1.2450639658461555 -1.2138525427700668 -3.7975794596569683
1.1544839631250126 -1.2789047685561425 -3.829915551031133
1.0664786636492012 -1.3497782949666601 -3.8278565880317013
1.327075172612967 -1.1217708714262717 -3.7937814273784354
1.271417741275472 -1.1696999142007651 -3.883420100857553
1.2253635225656443 -1.1917821780663365 -3.987923559461089
1.373227090070823 -1.2313652251053466 -2.903219472649463
1.3112732080596292 -1.3009912569116928 -2.837825849778848
1.169645660136957 -1.4272649623757172 -2.8862227519086705
1.1068588957608745 -1.4961898812525087 -2.8122099225663333
1.3692316333250465 -1.2357839826679484 -2.899388082252791
1.3052154216315393 -1.3077911499552244 -2.831475285502785
1.1631523136296125 -1.4343668622980097 -2.8788056134902953
1.1005160622216712 -1.5031432602811796 -2.804819239011964
1.5514380682500362 -1.172889207618864 -1.755320353264589
1.5110763629304274 -1.2279176087534824 -1.6592836400940998
1.479013620639585 -1.274506357766083 -1.5540795554011964
1.5211040569198973 -1.2359224735827368 -1.4651431666997772
1.5550400220058842 -1.1678969060424313 -1.7647101393169677
1.5221827369348317 -1.2128248563970587 -1.6852126235100757
1.4952202208494167 -1.2496437968396772 -1.6204671589620379
1.5157577281775103 -1.238123842315602 -1.503589378354821
1.299502724122614 -1.4169149395651288 -2.061472997413019
1.2136543872666443 -1.4867395208580578 -2.0221937440077236
1.1282749932582983 -1.5562863525235198 -1.9822469340931215
1.0429219752335825 -1.6258020647977536 -1.9423944485435507
1.292620447469017 -1.4181040444607214 -2.096345870277478
1.201757248151215 -1.4836412036821496 -2.125585119472606
1.120152152479886 -1.5388552236280402 -2.1834316000377845
1.0421226044422498 -1.5900164921960664 -2.2528972102950537
-0.809711434594021 0.43614224799580564 -6.3796009647095895
-0.7937885948966076 0.4210738656620987 -6.4816651944107075
-0.6443641835210848 0.51354298288615 -6.348337441045669
-0.7707583287723516 0.42655980636566193 -6.502013007564271
-0.7380866229573827 0.4062826966938771 -6.6139478488955294
-0.6934975396235686 0.38772764324837233 -6.7224134095003
-0.9051185501608521 0.42780251201895364 -6.228185906050989
-0.940479638731482 0.35369750873181877 -6.268130712254501
-0.9900279822382451 0.2734200510971938 -6.283752675900383
-1.1337389342640096 0.010313635901265222 -6.344521043100583
-0.9191580254377881 0.4287933432349606 -6.195556517327781
-1.383309883818878 0.3223213601164164 -5.092239901060694
1.126580353159379 0.003553380975552606 -6.3783261020488995
1.1215427044048585 0.020658890356224584 -6.374933760972856
1.082691642217688 0.04435356784560082 -6.458502443397662
1.02888086665931 0.04987053040440933 -6.550681706232023
0.9820372546888965 0.0511700508290857 -6.651331661865791
0.6846707585527585 0.4939253361469855 -6.364048566378088
0.6518787201270176 0.4771521515983735 -6.475274538394739
0.6100231844245776 0.46281818368380184 -6.586730602778227
0.5687209410158796 0.4465862161155431 -6.69824039858495
0.7153947360317817 0.4792940450967425 -6.368922698883187
0.7408861362617273 0.43758295727468055 -6.479266338547363
0.7902529024555601 0.3870305314885796 -6.577610719767181
0.8124797287377573 0.3162051662572099 -6.649447524183689
1.4153048105132713 -0.4287404156796118 -5.175789899144045
1.3957126936314654 -0.414021334725923 -5.289843980391127
1.4040570794449556 -0.4583694819758982 -5.17423700803457
1.3631954277179785 -0.49399991634327783 -5.27225704031422
1.3156225622358286 -0.5424777365073862 -5.359014820569778
1.2635998423096257 -0.6152816023064013 -5.436772163581767
1.289665896512556 -0.48127214908934357 -5.572631105421242
1.2453247051820113 -0.5502041155424099 -5.657148026049438
1.191058824024404 -0.5963015442303194 -5.7513370948433895
1.141058221250554 -0.6278389601945175 -5.853130117589836
1.2890710464536341 -0.45243134901257026 -5.590693203155743
1.2597713035197857 -0.46660317852324407 -5.707093072656583
1.2293583664773555 -0.4421987859570115 -5.81969522628107
1.2092592087025604 -0.39354840718561374 -5.927834335786405
0.1414523056165365 0.5972972081092155 -6.4953925415233495
0.10277953214771145 0.5761879877929743 -6.609416882137558
0.06513234354918604 0.555250049777411 -6.722117391498072
0.02839384427131317 0.5239182927135877 -6.828687511915886
0.1762081960502156 0.5917162505476482 -6.500348315548043
0.20455086558299235 0.5618764340347732 -6.615043668654125
0.260837211533442 0.5279439860737879 -6.717403962403186
0.43917281714031065 0.4185730322202488 -6.941222392719947
0.3885513208718285 0.5654990694678715 -6.492135539219957
0.4453050384242489 0.532437439142694 -6.591670098274902
0.4165061101321414 0.5658905179713625 -6.469698721251704
0.5152525954641459 0.5244694841430175 -6.517391851907947
-0.4522987648184706 0.6045382480644739 -6.291551299642981
-0.4345505748466929 0.5777744189987531 -6.405733749974146
-0.4107052798627368 0.5485869161111908 -6.535840822154692
-0.33149856239495906 0.5536976722725062 -6.61676976845437
-0.484086555163693 0.5945247622292785 -6.286474785688104
-0.5271179015117498 0.5511317478796757 -6.382288518223606
1.1307231446137846 -1.0231362900306193 -4.944939287274818
1.0872530067727302 -1.037606356115808 -5.059799189944467
1.0420037667452604 -1.0566024370630316 -5.170248093400855
0.9884224872979931 -1.066261836573962 -5.271516088213727
1.1126077186251955 -1.0508001111913043 -4.9317393603557935
1.0376465175402132 -1.109957261087334 -5.0144848424845065
0.948922622012969 -1.1596055824067604 -5.065782859671328
0.8360909135025142 -1.2328276958613635 -5.0931556468624315
1.2039562496116183 -0.919538336137665 -4.975055059684867
1.2098358216061225 -0.8737073884203757 -5.086958239458328
1.2348019651375306 -0.8125303985540341 -5.18725568771743
1.2491015035984612 -0.733099788030281 -5.272498689756653
0.8530060966370001 -1.475021636591254 -4.040609255894477
0.8406221188861803 -1.4927003995896195 -3.964556239848938
0.8256911874865609 -1.5139458220886375 -3.8733036235476113
0.7602632115975475 -1.5581981798941633 -3.785112325750522
0.85809251925707 -1.4675982469773485 -4.072881582314519
0.8516172120163692 -1.4769837335084568 -4.032211269731582
0.841477380159762 -1.491446838951102 -3.970016824513401
0.8341357274543943 -1.502159078133587 -3.9234517919994807
0.7490959851755611 -1.4411214649622148 -4.478026148529564
0.6952649029448198 -1.445138239395347 -4.580412502574801
0.6311070022967964 -1.4530962864629484 -4.682395192278682
0.5712676062666504 -1.4587306613038844 -4.783356629695107
0.7273703296950302 -1.4546301761170237 -4.458537013605096
0.630940304644879 -1.4868652371553412 -4.514426520192141
0.5329951362161949 -1.5248624969106894 -4.544200236725882
0.430908703774273 -1.5510974154063268 -4.552584930430683
0.982492343885703 -1.4207299012894277 -3.8101826148815294
0.9937147241644457 -1.4181285069317653 -3.7781904952866
0.9389223755582697 -1.4773836379955623 -3.7019074563537546
0.8831743004918754 -1.5270423582426866 -3.6180322674861767
0.8480912519134353 -1.5598266126425826 -3.5158952520630726
1.0329320364038441 -1.5522411693581915 -2.728547572708005
0.9587934633547066 -1.6024927079341287 -2.6549627395773365
0.8770823265164438 -1.656250226591692 -2.5859755323148113
0.7996528464475102 -1.7070557580377197 -2.517136480570914
1.0319148900598833 -1.5528748443141314 -2.72795318679064
0.9589439565123735 -1.6024790577595567 -2.654454170106247
0.89596376344383 -1.6485589818577011 -2.5666887032400783
0.859988914924044 -1.6823023069853782 -2.461287602090266
1.5331786499262077 -1.2309333105109828 -1.378488131210924
1.5448887635735005 -1.224467491149206 -1.2797813717949302
1.5542278084755885 -1.213924611952131 -1.1732894753458665
1.5407315237472874 -1.2372300022423297 -1.0530518526816972
1.5359710757496996 -1.2297783039687917 -1.3584598554453402
1.5476469846873262 -1.2213849121139468 -1.2472702851010091
1.557773421021463 -1.2099139465838593 -1.1331314888081714
1.5536729597526044 -1.2195245080616977 -1.0106553074806177
0.9446009381442514 -1.683663521401739 -1.9186602099869703
0.8320274996212716 -1.7442579859339742 -1.8966732095624619
0.7395711603393533 -1.7929128203841405 -1.8708691427190538
0.6508663652367644 -1.823203172643678 -1.8412843650407578
0.9564841027202914 -1.679406201225427 -1.8853414648610451
0.8647650778135475 -1.7326031925625662 -1.8052826446824322
0.8052294917864236 -1.7715624402236434 -1.7057514151759379
0.7931625536282126 -1.786207931281386 -1.5939603252570684
0.9640876290827695 -1.6436136271869826 -2.322656607796984
0.9823689430734877 -1.6275374784136158 -2.3478203643234163
-0.6592580271131312 0.35512906262023447 -6.832410719479131
-0.6246618468879005 0.3228129010293643 -6.9426485848087225
-0.6401084342872811 0.381283313839036 -6.829329410621473
-0.5681485065725883 0.3842916234275275 -6.919781346294187
-0.4748769508100413 0.3876477011874744 -6.987103331165891
-0.37910325040608245 0.392114779899615 -7.0483978862903385
0.9574300989675766 -0.010767409784414803 -6.771325469386958
0.9093382946393432 -0.002458121712370755 -6.880635768966168
0.9612025761943634 -0.015289720772834959 -6.76083438385098
0.9203998971064599 -0.008105352436815625 -6.853643453840513
0.8835343700928489 -0.0060038770011532575 -6.93532366332447
0.8295309929845525 0.0016148815897716526 -7.023087156972668
0.6343306502588605 0.3807355983391219 -6.819520915574489
0.6539278828555803 0.33477225465895133 -6.923881639427943
0.6556787805196981 0.2664679889929656 -7.00618440433198
0.6623743905701585 0.19432286265191978 -7.079606711351609
0.6197900112026752 0.3869344138342315 -6.8199818663642215
0.6202864220817741 0.3509599220901589 -6.927647880191673
0.5881855171318262 0.32035165587689596 -6.988276755309033
0.8253548314446684 0.26367501359826373 -6.695235970371521
0.8067930055472872 0.26409370018734807 -6.733620648997842
0.7878477988971427 0.22073710822941678 -6.83349025459368
1.2070830740374612 -0.7114416996094663 -5.478607065766885
1.1404416853858586 -0.7989549841331 -5.515698991094309
1.210134401292002 -0.6931458035311356 -5.509087622111028
1.148607023833 -0.7380759394758755 -5.595982403606791
1.0983865326107782 -0.7615506619578647 -5.702412054053423
1.050898554530027 -0.7891027282688621 -5.804430243843175
1.0972518624905956 -0.6363649348276963 -5.962550341920756
1.0509760225305904 -0.6431459652663333 -6.071136829268468
0.999732355857127 -0.648086835513998 -6.177892494988224
0.9478063122048513 -0.6537001752278032 -6.285327370509401
1.0871331622949683 -0.6672768939072465 -5.950843265023887
1.0125984653846265 -0.7203789062380822 -6.0246534572642405
0.9305696366080485 -0.7870398918687267 -6.073985212785328
0.8467918866272204 -0.8618874030877808 -6.107185401605266
1.21244691756568 -0.3148598023058587 -6.019056165377494
1.193533811022696 -0.2321764364267118 -6.102391376556147
1.1226494128819575 -0.37748156750036754 -6.218884303870251
1.0932038860273487 -0.365677904806929 -6.315372226470758
1.1962341752136063 -0.34156710871969226 -6.03499798230057
1.1405330134896283 -0.3863584034887228 -6.151175011430032
1.1103493936326603 -0.3710881322488211 -6.265830234928094
1.0677535128329723 -0.35418142095794136 -6.373623621663201
-0.010376313021836822 0.4538157325904188 -7.037129677719409
-0.010914162541997313 0.45384054905352783 -7.037163531974068
-0.011434225145955351 0.45392522463840296 -7.037021336113458
-0.012033679807088714 0.454013928506685 -7.036883084897037
-0.045012191165606556 0.45789582153748354 -7.03215461212228
-0.10755973596936218 0.46521124672787173 -7.02332210496175
-0.18217653593967897 0.46032984799280624 -7.00637600460892
-0.27026146150408714 0.4442554878506032 -6.983887768684566
0.40803768047166666 0.41982780904372297 -6.974718026765158
0.3557855163715391 0.4259678013952743 -7.018807193784832
0.2963957096848247 0.4215743437392597 -7.069961983315775
0.22029259633331422 0.40961892301723074 -7.119340683781059
0.43392107466150615 0.4168336970288275 -6.952735860124137
0.40846068162839183 0.4198743875123249 -6.974071732454527
0.38489678669237104 0.42255728343356186 -6.994212945964925
0.34854205719832543 0.4267823867327994 -7.025028970243503
-0.25733565388332125 0.54305631819178 -6.687597770953983
-0.17633215083405177 0.531080192027135 -6.760261728717319
-0.2496056337315992 0.5417587466845433 -6.695140959790716
-0.16385896709243483 0.5290887392805007 -6.772030703189038
0.8046352716677874 -1.192839762935258 -5.353639715397742
0.7860809952021667 -1.1822504598775485 -5.446286796425006
0.7626023106412338 -1.1658643708409633 -5.5346839657385845
0.7381103642703065 -1.1495483544091416 -5.624419483716308
0.802467438633417 -1.1915137157799403 -5.3656396638980866
0.776819371855324 -1.1763196613885052 -5.4794584022256005
0.747041314463917 -1.1553485163413615 -5.5921737633420285
0.7021597890524149 -1.1429335811493888 -5.700903149090868
0.7360861658892665 -1.2973149477270842 -5.123644248875546
0.6387376873122299 -1.3415455312643572 -5.15028875465463
0.5366659434666327 -1.3757899810962952 -5.175148641184357
0.4274739929482049 -1.4078628922599228 -5.199448611577144
0.7370206325176372 -1.304964967134718 -5.089006177312639
0.6519668732076689 -1.3636021005799492 -5.0504063961370225
0.577033616025234 -1.4050306306808258 -4.982443698615372
0.5084152150693747 -1.4483950984823621 -4.905807924164071
0.688464298068204 -1.604087360222461 -3.7022541425543336
0.6143488762335346 -1.6511780944726429 -3.6164842591936894
0.5390586009657439 -1.692690565520068 -3.5311299359792305
0.45242403157138483 -1.7226464458747763 -3.461902911951081
0.7158215699401491 -1.594641783856519 -3.681165661940699
0.6971201063473814 -1.6210422570451843 -3.5630320592753724
0.7069742108903254 -1.6358142935607007 -3.4433341445111862
0.6905321242841088 -1.660464409402461 -3.3266310257952063
0.19485129010091637 -1.5990632653837713 -4.5771061252484175
0.19403686049521127 -1.6016316395695445 -4.565911197792119
0.19198408073137552 -1.6043087016759927 -4.554594582642195
0.18992691548893542 -1.6073128762543856 -4.541823111764673
0.9198410912546465 -1.5492470508489053 -3.286402384227474
0.8754979327733615 -1.5856150150538626 -3.243298489723284
0.8457892548717428 -1.609775271801758 -3.2160802603717404
0.8281192969411751 -1.6196604703723936 -3.1981783886928232
0.9058746490528271 -1.5606219711035247 -3.2734703370171614
0.6948593194269027 -1.7475856277428936 -2.490837982716402
0.588211339667057 -1.7888003006184157 -2.4648531972000884
0.48242429531418496 -1.8240723483744181 -2.4358616252206455
0.37586472258000025 -1.851058653864616 -2.4059267910625137
0.707013466360424 -1.744327864231529 -2.459215581312837
0.639167512913553 -1.7733416435201552 -2.375540303218659
0.578031127336778 -1.8005084708141956 -2.2755745226691197
0.5375298172793372 -1.8240658889238646 -2.1612680202222956
0.8331901104235108 -1.7013293659963005 -2.3514781705205947
0.806487153558027 -1.7164308608601229 -2.236561836315464
0.7660478810181457 -1.746421611855088 -2.128856769613293
0.7314166213714857 -1.7742644681195594 -2.0215459938460363
1.568049416400225 -1.201976149361224 -0.8915224252664095
1.583362519517677 -1.1851108112250615 -0.7739613030544807
1.5991261847855907 -1.1686440549072552 -0.6575060802490571
1.6145677048991482 -1.1541211050503144 -0.5392645477116303
1.5478678551974412 -1.231574342874474 -0.8901248645080884
1.5246874908677042 -1.2700327325856948 -0.7789590750821626
1.4836745475623947 -1.3232741851165921 -0.6839586893445919
1.4299872130035287 -1.375951625538823 -0.6014759877856559
0.5483482378028739 -1.8578043698479647 -1.7979293550763398
0.4447669051360139 -1.8927614074935832 -1.754163543448308
0.33872576688432 -1.9156110148000762 -1.709331867648973
0.23225045954980394 -1.9318234726650516 -1.6633565814486346
0.539861818737713 -1.8577605879725632 -1.8319152495143065
0.4296124451191168 -1.8895393415232395 -1.8554750885597164
0.3264136424346056 -1.9051395520239798 -1.9070861610228997
0.23067368922588868 -1.9130514395934648 -1.9701732027609176
0.796924682048246 -1.792935501141044 -1.4755040736474567
0.8020723428482459 -1.7978244968131605 -1.3568719109525111
0.8039453882849404 -1.8015044253696062 -1.237651020743242
0.8060273775314142 -1.8051135627159853 -1.1184042747943432
0.7965719755002377 -1.7925837990491085 -1.4828219025780698
0.7731909798898461 0.004069276518574383 -7.108447628397429
0.6848163865525665 0.026031653138378165 -7.223126087717472
0.7677490799108476 0.0006741234649019837 -7.120546444946996
0.9820656286364198 -0.8164860731484699 -5.892705170712979
0.9751660589677679 -0.8373144668326892 -5.867716453420238
0.8927084511132514 -0.9026467612202038 -5.902898479774515
0.8085263228454669 -0.9724465017368424 -5.93317755331555
0.7297179006844479 -1.0523030168613485 -5.935600087210246
0.905944702002158 -0.6443384743760731 -6.397469317312581
0.8612462577264122 -0.6305099180350517 -6.506503882943968
0.8773932160614448 -0.5207841267887846 -6.63028410811706
0.8455431181674042 -0.477873903984607 -6.741396342718937
0.8921000226533532 -0.6752568435070081 -6.38878451490861
0.8143612021956581 -0.7119897779952271 -6.467992146700111
0.6171672481255157 -0.8670632339383076 -6.533495078739321
0.6038284572541823 -0.8585016961609807 -6.577884573370803
0.7599788370113836 -0.9312902388477793 -6.136972338307315
0.6577400520383443 -1.0015675657352465 -6.164661340469155
0.5556571415584002 -1.050901895427261 -6.195007236252912
0.4698272286815214 -1.0698251850850216 -6.2396594470074245
0.7646753986147027 -0.9433515903909571 -6.104098063116433
0.6888286467396088 -1.022552922543401 -6.068697678619364
0.6228078866615369 -1.08017345723839 -6.001395888350501
0.5376402621042468 -1.129725839932653 -5.952919392735431
1.0222334574047678 -0.33242432882282313 -6.478350217120094
0.9711146084905375 -0.3396594214618415 -6.581663641733358
0.9327388025161312 -0.3210224521698677 -6.671716375294978
0.9079879768001211 -0.28753302430856525 -6.742438222786967
1.021516109138503 -0.3329170571810583 -6.479623433229544
0.9635487559553467 -0.3657130954206668 -6.585678009132266
0.17858606165681393 0.40251746440677394 -7.147985851588127
0.1667866328743924 0.363979399617455 -7.261397348287273
0.1411134959044018 0.3231843643249866 -7.36729665645918
0.20035996234716225 0.3719506205914403 -7.231838562024856
0.19053369454062957 0.3187107656472297 -7.326014270850972
0.20261610028195282 0.2535571219837334 -7.404879547129901
0.21392850668154992 0.18970016096524545 -7.472952991270103
0.6717607861704166 -1.1221676850709896 -5.813921504302539
0.3311690176041276 -1.4196901338719334 -5.261619700183296
0.23462577656343903 -1.4185812631405246 -5.322346286495445
0.13604917775758038 -1.4176090999180637 -5.384122207104205
0.03641172175160657 -1.4168323236805844 -5.446647203216018
0.32559438314423184 -1.4293296601662366 -5.22974421829454
0.2187344787855082 -1.4477625953933129 -5.225272919015605
0.11810365233012178 -1.471575431022362 -5.19074360663186
0.018571406625111062 -1.488944026852196 -5.140403766288946
0.4057818846725571 -1.492314912663356 -4.871776724484435
0.30640629306037687 -1.5257314492490124 -4.835228509074078
0.20560925498763497 -1.5495357625127717 -4.794431359419693
-0.07593979789087221 -1.5667963879989768 -4.776351146597003
0.4212229842950596 -1.49479684416867 -4.841914079590036
0.36408196267889553 -1.527601012183927 -4.756835893032592
0.3326963681113442 -1.5538312307705666 -4.655418903545581
0.3823092438075216 -1.7389733341327562 -3.4610599729787292
0.335419569387659 -1.743915471537311 -3.5020661568033464
0.27821846644394294 -1.7499303117416223 -3.552188112045619
0.2148397469886175 -1.7549807706212948 -3.6104933400232704
0.37704749350514544 -1.7501563668404139 -3.3917354954157175
0.3247916844188404 -1.7755516232612105 -3.2991070686854536
0.2785684118804467 -1.7943772197673764 -3.1975782425318564
0.23613916851922453 -1.807521247355159 -3.089754154079755
0.7371259641516695 -1.662445404508295 -3.123639337235677
0.6644413462126253 -1.696627260496945 -3.0640618215941533
0.6177422514673888 -1.7290377499071887 -2.958462712270122
0.5639990288882372 -1.7628365112739623 -2.8566919089178864
0.1834227109703536 -1.6155245257389383 -4.5014918586570944
0.17559454865077728 -1.6272208432525253 -4.435518027842415
0.16561802286919575 -1.6421850411851848 -4.351062223994209
0.08517068852650993 -1.6609443886732649 -4.261495160595366
0.18843325345896417 -1.609058801565097 -4.534487938589733
0.18373755626704052 -1.6151117367135093 -4.503771199679136
0.1809550599928973 -1.6192185781178565 -4.480649319387327
0.1746898630254288 -1.6286091334494948 -4.427656181609835
0.8299117304663235 -1.6188316427787752 -3.199556677645896
0.2662817850446008 -1.8764044300972604 -2.3933076079815643
0.1561239815230139 -1.885072101032209 -2.3827383418042136
0.04388587731202823 -1.8899577458377428 -2.372032664896644
-0.07258763900310855 -1.895002303304037 -2.3580765743602603
0.27601525673335947 -1.878790235199579 -2.359421968334701
0.19034103450787004 -1.8873327492755434 -2.2822356016068297
0.12540805185746337 -1.893444515798665 -2.1851371037462983
0.0728574647647976 -1.9071231446412824 -2.0801514473724074
0.49854241745313915 -1.8533684088451843 -2.05138535702914
0.5276734577218598 -1.8446678805160939 -2.042227210058003
1.6200686631668066 -1.154268926423365 -0.4192260360092287
1.6243724928924363 -1.1537182764496177 -0.2991717784676053
1.6294161699328806 -1.1521487488733473 -0.17739064060647194
1.6312810522036596 -1.147303575149868 -0.057417901172123316
1.6393052858449972 -1.1252586161229683 -0.42586188703609895
1.6783891284655554 -1.0717992876371287 -0.32717134725189395
1.7266171959285548 -0.9981617798262675 -0.24775322353902215
1.7699555999459387 -0.9102024323724779 -0.18195752455876227
1.3718013089738565 -1.433038411722424 -0.5135028001888667
1.3138660258942678 -1.4901759683999136 -0.42501390261752836
1.2585683620941681 -1.549220691785487 -0.3368395904040651
1.1924965169983874 -1.5941320643002987 -0.2487919137244915
1.3558837601739777 -1.4484873479709166 -0.5412801145938785
1.2734768515665704 -1.529031708912306 -0.5111223491851034
1.1819806755735003 -1.6023297831217942 -0.51103960057725
1.0817604586055134 -1.661659730394841 -0.5241520456227055
0.1306396246586903 -1.948495830690459 -1.601156162008607
0.03120977072391227 -1.9546692540610096 -1.5385564099609936
-0.06266364992860766 -1.9536897300533593 -1.4753705969305033
-0.1493862142452253 -1.953236324621076 -1.4122944086571863
0.12029662663503898 -1.947650954301674 -1.633624807804238
0.00601087631457969 -1.949042049852267 -1.636917015757934
-0.10656926916946792 -1.942255955920741 -1.671893984569048
-0.2090992889074927 -1.9351140398768358 -1.7180990155560527
0.828784993638 -1.801276430708399 -1.0087685040005867
0.8495031498009545 -1.79220808803316 -0.8961202805128158
0.8713293008754124 -1.7821799662804592 -0.7817137055061206
0.8742178455735682 -1.7830317839663732 -0.6613842786035325
0.797734628846441 -0.4590486586491764 -6.842223373692735
0.7358870059658942 -0.4591435711185205 -6.940982964031534
0.6942168336099562 -0.432234035289925 -7.042470166505638
0.649991940847578 -0.40232829648656127 -7.143655134466319
0.8021910653775064 -0.447590381665216 -6.849943956618905
0.7312113091882504 -0.4533351074582494 -6.955984075058689
0.6868805582928637 -0.4251199528022065 -7.063416621687182
0.6357974572435805 -0.39476255045967806 -7.163147591770345
0.599836694917603 -0.8518611744057202 -6.6004112736351335
0.5953434907811997 -0.8307435492399768 -6.645587703997725
0.5763777010093869 -0.8032305944677482 -6.71306298703575
0.5026601366807291 -0.7915734905306789 -6.800250535494378
0.3998039347296971 -1.0823642595785354 -6.272026525669435
0.3273868898233338 -1.0902125506749145 -6.319430122577025
0.29524942616481037 -1.0762134964194077 -6.388035788960817
0.2596616327515322 -1.06068369786561 -6.464082668796716
0.40096147009731026 -1.093352983269684 -6.24102699198594
0.3040373743258342 -1.1393485035084407 -6.207900524353434
0.2340186157196914 -1.1849075890506249 -6.150415384233148
0.17347623170578913 -1.2186218537627407 -6.075042772870296
0.3868413092198442 -1.1955045986849697 -5.943764057079005
0.2744939194504294 -1.247606054126672 -5.928251661138384
0.20217837559681712 -1.27749160620225 -5.868999650958901
0.1029308968699793 -1.3156990551852643 -5.784338746858487
0.39608234230757833 -1.2020901423412491 -5.914514515512339
0.30592904872100063 -1.2643732513768713 -5.844575965827409
0.22433915388701414 -1.308050731320336 -5.7401290095151625
0.17989529054783587 -1.3451393234113622 -5.626690118705854
0.2684794411540069 -0.006659107827765761 -7.653187728288075
0.2928245977626606 -0.011450670631045169 -7.631506705158163
-0.041034872814673794 -1.3936743131219993 -5.520286315342861
-0.0983644792157983 -1.3676662269275006 -5.598512250455447
-0.13980596162069386 -1.3400976927990673 -5.682625708635388
-0.32626780985080217 -1.2684795345878197 -5.810352150544657
-0.05427335345909834 -1.399761486335208 -5.491100735148197
-0.16208582492441964 -1.3876841206683934 -5.497996520061568
-0.2699538184469566 -1.3800868903278736 -5.482094441199058
-0.37412762049192505 -1.359234566844626 -5.447856614469297
-0.09741133872863576 -1.504986249076526 -5.054798557342733
-0.0922411147804442 -1.52350414710829 -4.982706124906231
-0.08611050398727606 -1.542908041729512 -4.907439152359034
-0.09967363403566565 -1.497699205191212 -5.083080148832103
-0.09873879455318733 -1.5008226118076953 -5.070944537966974
-0.10068477837142026 -1.4952474177476243 -5.092499403621796
-0.10556412427710347 -1.4819651026814757 -5.143757878949102
-0.07645167520783923 -1.5657650662468867 -4.782331799950957
0.1344036160883792 -1.7450216758926071 -3.677320248233491
0.048188863539777714 -1.7346325492815022 -3.74655561577301
-0.06920510113861793 -1.7257902612573812 -3.7963732541911646
-0.17725509558632613 -1.7141127803076655 -3.8480027782507737
0.14908953946596767 -1.7468757002389328 -3.6648198050661307
0.10074264295763961 -1.7409179917697428 -3.7047495533025834
0.03607664337524913 -1.7331264724851383 -3.7566723279204286
-0.08758824397310211 -1.728939577600234 -3.766172340604696
0.18182427691901062 -1.8216381575380123 -2.99180119770357
-0.1326961412251672 -1.8451535992457746 -2.934892372488702
-0.1475157952531352 -1.851706132187611 -2.837119663792134
-0.24111657188655083 -1.8499236637497098 -2.7516047377743673
0.20960500562172352 -1.822485934308984 -2.975334955105783
0.19705981683228155 -1.8406735624223294 -2.852402935787593
0.1866898842135066 -1.8566872602941038 -2.7335565081036712
0.18036307760965306 -1.8658147797713371 -2.6133789179660174
0.47032528823891356 -1.78806705512849 -2.7885753308066685
0.361998164762684 -1.8168590665721995 -2.717298140301663
0.4942499877207731 -1.7838233143318045 -2.763178350412909
0.4547942610266744 -1.8013090900515265 -2.6527696415494417
0.032200302163988 -1.6799431916915093 -4.157503474260319
-0.014777779811102731 -1.6921307773412395 -4.052906683602501
-0.054682434684052275 -1.7061095655347864 -3.9496200501691145
0.0048142060064670904 -1.6750551301157568 -4.178240606057038
-0.08784183289342862 -1.6766615189380354 -4.121496269044165
-0.20413964642636565 -1.6729969603201442 -4.090347212747917
-0.3203046302239497 -1.6682260301662666 -4.07031103127568
-0.1862563210854236 -1.890339464670331 -2.360674417668462
-0.2982050172023957 -1.8740740530709803 -2.3618358826033083
-0.41400202397444164 -1.846197238519772 -2.3638921104370425
-0.5305224638293852 -1.8179235076809857 -2.3654932184259767
-0.18221469166812124 -1.8937555985593821 -2.325938188873716
-0.27600696279506975 -1.886660647214336 -2.2625970124574013
-0.34931760502758863 -1.8737847420580223 -2.1749953487173745
-0.414344143584026 -1.8621672375730174 -2.078262933078559
-0.020432486422940675 -1.919866660057469 -2.0096227236446866
-0.11384880203899048 -1.9267833901445368 -1.938493013950247
-0.20662264676592482 -1.9260043410468 -1.8715978204594899
-0.3049553272926923 -1.9107010694705895 -1.8344485572254348
0.0050807664349659335 -1.9220896697051644 -1.9851262221882555
-0.03355654861976837 -1.9347628561097507 -1.8750040493458109
1.8578565037363568 -0.7276232795336356 -0.16601745983518662
1.8629051958075535 -0.7184472118491412 -0.11539851355608428
1.868134329245102 -0.7089290228763041 -0.06322674103439453
1.8739183157555181 -0.6984028595058269 -0.0054832666664423905
1.8606652016766123 -0.7225100381813337 -0.13800889800471758
1.868637294192667 -0.7080257457828096 -0.05798730017540664
1.1337149217854712 -1.6333111459243852 -0.14805539047635577
1.0761330375829998 -1.6716544280253276 -0.04810279134195503
1.1130104813842143 -1.6488024098202305 -0.17205895860930256
1.0240037334512706 -1.7107145417554117 -0.12288474537622297
0.9246694331413223 -1.770885281568478 -0.10459218474639738
0.8167247577232577 -1.8135633863369034 -0.09986158787421302
0.9870372633993727 -1.7178428981409637 -0.5703889584613855
0.9796024206973419 -1.7221332769408804 -0.5363894524059241
0.8805182298148604 -1.7806839699884742 -0.5157309482911516
0.7819215065191988 -1.8343721589790263 -0.4886539379999475
0.6806356043385835 -1.8654399626182274 -0.44107703681756616
-0.25571404098060746 -1.9503575375831104 -1.3623342901783915
-0.35713479018483735 -1.9301456633647762 -1.3137316645605994
-0.45798892888313336 -1.9061357752868837 -1.2654744485157579
-0.5697287672759427 -1.8766414210962739 -1.217116670082229
-0.24096988140808584 -1.9534479643287643 -1.3322338211189146
-0.30042203173788357 -1.9462595197736148 -1.234898890974373
-0.3320174828854878 -1.9407200617908407 -1.126503339640138
-0.34899850149322875 -1.9452758699772696 -1.0155190450677956</DataArray></Points><Cells><DataArray type="Int32" Name="connectivity" Format="ascii">0 1
1 2
2 3
3 4
4 5
5 6
6 7
7 8
8 9
7 10
10 11
9 12
12 13
13 14
14 15
9 16
16 17
17 18
18 19
11 20
20 21
21 22
22 23
11 24
24 25
25 26
26 27
15 28
28 29
29 30
30 31
15 32
32 33
33 34
34 35
19 36
36 37
37 38
38 39
19 40
40 41
23 42
42 43
43 44
44 45
23 46
46 47
47 48
48 49
31 50
50 51
51 52
52 53
31 54
54 55
55 56
56 57
35 58
58 59
35 60
60 61
61 62
62 63
39 64
39 65
45 66
66 67
67 68
68 69
45 70
70 71
71 72
72 73
49 74
74 75
75 76
76 77
49 78
78 79
79 80
80 81
53 82
82 83
83 84
84 85
53 86
86 87
87 88
88 89
57 90
90 91
91 92
92 93
57 94
94 95
95 96
96 97
63 98
98 99
99 100
100 101
63 102
102 103
103 104
104 105
69 106
106 107
107 108
108 109
69 110
110 111
111 112
112 113
73 114
114 115
115 116
116 117
73 118
118 119
119 120
120 121
77 122
122 123
77 124
124 125
81 126
126 127
81 128
128 129
85 130
130 131
131 132
132 133
85 134
134 135
135 136
136 137
89 138
138 139
139 140
140 141
89 142
142 143
143 144
144 145
93 146
146 147
147 148
148 149
93 150
150 151
151 152
152 153
97 154
154 155
155 156
156 157
97 158
158 159
159 160
105 161
161 162
162 163
163 164
105 165
165 166
166 167
167 168
109 169
169 170
170 171
171 172
109 173
173 174
174 175
175 176
121 177
177 178
178 179
179 180
121 181
181 182
182 183
183 184
133 185
185 186
186 187
187 188
133 189
189 190
190 191
191 192
137 193
193 194
194 195
195 196
137 197
197 198
141 199
199 200
200 201
201 202
141 203
203 204
204 205
205 206
145 207
207 208
208 209
209 210
145 211
211 212
212 213
213 214
149 215
215 216
216 217
217 218
149 219
219 220
220 221
221 222
153 223
223 224
224 225
225 226
157 227
227 228
228 229
229 230
157 231
231 232
232 233
164 234
234 235
235 236
236 237
164 238
238 239
239 240
240 241
168 242
242 243
168 244
172 245
245 246
246 247
247 248
172 249
249 250
250 251
251 252
176 253
253 254
254 255
255 256
176 257
257 258
258 259
259 260
188 261
261 262
262 263
263 264
192 265
265 266
266 267
267 268
192 269
269 270
270 271
271 272
196 273
273 274
274 275
275 276
196 277
277 278
278 279
202 280
280 281
281 282
282 283
202 284
284 285
285 286
286 287
206 288
288 289
289 290
290 291
206 292
292 293
293 294
294 295
214 296
296 297
297 298
298 299
214 300
300 301
301 302
302 303
218 304
304 305
305 306
306 307
218 308
308 309
309 310
310 311
222 312
312 313
313 314
314 315
222 316
316 317
230 318
318 319
319 320
320 321
237 322
322 323
323 324
324 325
237 326
326 327
327 328
328 329
241 330
330 331
331 332
332 333
241 334
334 335
335 336
248 337
337 338
338 339
339 340
248 341
341 342
342 343
343 344
260 345
345 346
346 347
347 348
260 349
349 350
350 351
351 352
264 353
353 354
354 355
355 356
264 357
357 358
358 359
359 360
268 361
361 362
362 363
363 364
268 365
365 366
272 367
367 368
368 369
369 370
272 371
371 372
372 373
373 374
276 375
375 376
376 377
377 378
276 379
379 380
283 381
381 382
382 383
383 384
283 385
385 386
386 387
387 388
291 389
389 390
390 391
391 392
291 393
393 394
394 395
395 396
295 397
397 398
295 399
399 400
299 401
401 402
402 403
403 404
299 405
405 406
303 407
307 408
408 409
409 410
410 411
307 412
412 413
413 414
414 415
315 416
416 417
417 418
418 419
315 420
420 421
421 422
422 423
321 424
321 425
325 426
426 427
427 428
428 429
325 430
430 431
431 432
432 433
329 434
434 435
435 436
436 437
329 438
438 439
439 440
440 441
340 442
442 443
443 444
444 445
340 446
446 447
447 448
448 449
344 450
450 451
451 452
344 453
453 454
454 455
455 456
348 457
457 458
458 459
459 460
348 461
461 462
352 463
463 464
352 465
465 466
356 467
467 468
468 469
469 470
356 471
471 472
472 473
473 474
360 475
475 476
476 477
477 478
360 479
479 480
480 481
481 482
364 483
483 484
484 485
485 486
364 487
487 488
488 489
489 490
370 491
491 492
492 493
493 494
370 495
495 496
496 497
497 498
374 499
374 500
378 501
501 502
502 503
503 504
378 505
505 506
506 507
507 508
384 509
509 510
510 511
511 512
384 513
513 514
514 515
515 516
388 517
517 518
518 519
519 520
388 521
521 522
522 523
523 524
392 525
392 526
526 527
396 528
528 529
396 530
530 531
531 532
532 533
411 534
534 535
535 536
536 537
411 538
415 539
539 540
540 541
541 542
415 543
543 544
441 545
545 546
546 547
547 548
441 549
549 550
550 551
551 552
445 553
553 554
554 555
555 556
445 557
557 558
558 559
559 560
449 561
561 562
562 563
563 564
456 565
565 566
566 567
567 568
456 569
569 570
470 571
571 572
572 573
573 574
474 575
575 576
474 577
577 578
578 579
579 580
478 581
581 582
582 583
583 584
478 585
482 586
586 587
587 588
588 589
482 590
590 591
591 592
592 593
486 594
594 595
595 596
596 597
486 598
598 599
599 600
600 601
490 602
602 603
603 604
604 605
490 606
606 607
607 608
504 609
609 610
610 611
611 612
504 613
613 614
512 615
615 616
616 617
617 618
512 619
619 620
620 621
621 622
516 623
623 624
516 625
625 626
626 627
627 628
520 629
524 630
630 631
631 632
632 633
524 634
634 635
635 636
636 637
533 638
638 639
639 640
533 641
641 642
642 643
643 644
537 645
537 646
646 647
542 648
548 649
649 650
650 651
651 652
548 653
653 654
654 655
655 656
556 657
657 658
658 659
659 660
556 661
661 662
662 663
663 664
564 665
665 666
666 667
667 668
564 669
669 670
670 671
671 672
568 673
673 674
674 675
675 676
568 677
677 678
678 679
679 680
574 681
681 682
682 683
683 684
574 685
685 686
686 687
687 688
580 689
689 690
690 691
691 692
580 693
584 694
584 695
695 696
696 697
697 698
589 699
699 700
700 701
701 702
593 703
593 704
704 705
597 706
706 707
707 708
708 709
597 710
710 711
711 712
712 713
601 714
601 715
612 716
716 717
717 718
718 719
612 720
618 721
721 722
722 723
723 724
618 725
725 726
726 727
727 728
622 729
729 730
730 731
731 732
622 733
733 734
734 735
735 736
628 737
737 738
738 739
739 740
628 741
741 742
742 743
633 744
744 745
745 746
746 747
633 748
748 749
749 750
750 751
652 752
752 753
753 754
754 755
652 756
756 757
757 758
758 759
656 760
760 761
761 762
762 763
656 764
764 765
765 766
766 767
660 768
768 769
660 770
770 771
771 772
772 773
664 774
774 775
775 776
776 777
664 778
680 779
688 780
688 781
781 782
782 783
783 784
692 785
785 786
786 787
787 788
692 789
789 790
790 791
791 792
698 793
793 794
698 795
795 796
796 797
797 798
702 799
799 800
800 801
801 802
702 803
803 804
804 805
805 806
709 807
807 808
808 809
809 810
709 811
811 812
812 813
813 814
713 815
815 816
713 817
817 818
719 819
819 820
820 821
821 822
719 823
823 824
724 825
825 826
826 827
827 828
724 829
829 830
830 831
831 832
728 833
833 834
834 835
835 836
732 837
837 838
838 839
839 840
732 841
841 842
842 843
843 844
736 845
845 846
846 847
847 848
736 849
849 850
850 851
851 852
740 853
740 854
854 855
855 856
856 857
751 858
858 859
859 860
860 861
751 862
862 863
863 864
864 865
755 866
866 867
867 868
868 869
755 870
870 871
871 872
872 873
763 874
874 875
875 876
876 877
763 878
878 879
879 880
880 881
767 882
767 883
773 884
884 885
773 886
886 887
887 888
888 889
784 890
890 891
784 892
892 893
893 894
894 895
788 896
896 897
897 898
898 899
788 900
900 901
901 902
792 903
792 904
904 905
798 906
906 907
798 908
908 909
909 910
910 911
802 912
912 913
913 914
914 915
802 916
916 917
917 918
918 919
806 920
920 921
921 922
922 923
806 924
924 925
925 926
926 927
810 928
928 929
929 930
930 931
810 932
932 933
933 934
934 935
814 936
936 937
937 938
938 939
814 940
940 941
941 942
942 943
822 944
944 945
822 946
946 947
828 948
948 949
949 950
950 951
828 952
952 953
953 954
954 955
832 956
956 957
957 958
958 959
832 960
960 961
961 962
962 963
840 964
964 965
965 966
966 967
840 968
968 969
969 970
970 971
852 972
972 973
973 974
974 975
857 976
976 977
977 978
978 979
857 980
861 981
981 982
982 983
983 984
861 985
985 986
986 987
987 988
865 989
989 990
990 991
991 992
873 993
993 994
994 995
995 996
873 997
997 998
998 999
999 1000
877 1001
1001 1002
1002 1003
1003 1004
877 1005
1005 1006
1006 1007
1007 1008
881 1009
1009 1010
1010 1011
1011 1012
881 1013
895 1014
1014 1015
895 1016
911 1017
911 1018
1018 1019
1019 1020
1020 1021
915 1022
1022 1023
1023 1024
1024 1025
915 1026
1026 1027
1027 1028
1028 1029
919 1030
1030 1031
1031 1032
1032 1033
919 1034
1034 1035
1035 1036
1036 1037
927 1038
1038 1039
1039 1040
1040 1041
927 1042
1042 1043
939 1044
1044 1045
1045 1046
939 1047
1047 1048
1048 1049
1049 1050
955 1051
959 1052
1052 1053
1053 1054
1054 1055
959 1056
1056 1057
1057 1058
1058 1059
963 1060
1060 1061
1061 1062
1062 1063
963 1064
1064 1065
1065 1066
967 1067
1067 1068
1068 1069
1069 1070
967 1071
1071 1072
1072 1073
1073 1074
971 1075
1075 1076
1076 1077
1077 1078
975 1079
1079 1080
1080 1081
1081 1082
975 1083
1083 1084
1084 1085
1085 1086
979 1087
984 1088
1088 1089
1089 1090
1090 1091
984 1092
1092 1093
1093 1094
1094 1095
988 1096
988 1097
996 1098
1098 1099
1099 1100
1100 1101
996 1102
1102 1103
1103 1104
1104 1105
1000 1106
1106 1107
1107 1108
1108 1109
1000 1110
1110 1111
1111 1112
1112 1113
1004 1114
1114 1115
1115 1116
1116 1117
1004 1118
1118 1119
1119 1120
1120 1121
1012 1122
1122 1123
1123 1124
1124 1125
1025 1126
1126 1127
1127 1128
1128 1129
1025 1130
1130 1131
1131 1132
1132 1133
1029 1134
1134 1135
1135 1136
1136 1137
1033 1138
1138 1139
1139 1140
1140 1141
1033 1142
1142 1143
1143 1144
1144 1145
1037 1146
1146 1147
1147 1148
1148 1149
1037 1150
1150 1151
1151 1152
1152 1153
1050 1154
1050 1155
1055 1156
1156 1157
1157 1158
1158 1159
1055 1160
1160 1161
1161 1162
1162 1163
1059 1164
1164 1165
1165 1166
1059 1167
1167 1168
1168 1169
1169 1170
1063 1171
1070 1172
1172 1173
1173 1174
1174 1175
1070 1176
1176 1177
1177 1178
1178 1179
1074 1180
1180 1181
1181 1182
1182 1183
1074 1184
1184 1185
1185 1186
1186 1187
1078 1188
1188 1189
1078 1190
1190 1191
1082 1192
1192 1193
1193 1194
1082 1195
1195 1196
1196 1197
1197 1198
1091 1199
1199 1200
1200 1201
1201 1202
1091 1203
1203 1204
1204 1205
1205 1206
1095 1207
1207 1208
1208 1209
1209 1210
1095 1211
1211 1212
1105 1213
1213 1214
1214 1215
1215 1216
1105 1217
1217 1218
1109 1219
1219 1220
1109 1221
1221 1222
1222 1223
1223 1224
1113 1225
1113 1226
1226 1227
1227 1228
1228 1229
1117 1230
1230 1231
1231 1232
1232 1233
1117 1234
1234 1235
1235 1236
1236 1237</DataArray><DataArray Name="types" Format="ascii" type="Int32">3
3
3
3
3
3
3
3
3
3
3
3
3
3
3
3
3
3
3
3
3
3
3
3
3
3
3
3
3
3
3
3
3
3
3
3
3
3
3
3
3
3
3
3
3
3
3
3
3
3
3
3
3
3
3
3
3
3
3
3
3
3
3
3
3
3
3
3
3
3
3
3
3
3
3
3
3
3
3
3
3
3
3
3
3
3
3
3
3
3
3
3
3
3
3
3
3
3
3
3
3
3
3
3
3
3
3
3
3
3
3
3
3
3
3
3
3
3
3
3
3
3
3
3
3
3
3
3
3
3
3
3
3
3
3
3
3
3
3
3
3
3
3
3
3
3
3
3
3
3
3
3
3
3
3
3
3
3
3
3
3
3
3
3
3
3
3
3
3
3
3
3
3
3
3
3
3
3
3
3
3
3
3
3
3
3
3
3
3
3
3
3
3
3
3
3
3
3
3
3
3
3
3
3
3
3
3
3
3
3
3
3
3
3
3
3
3
3
3
3
3
3
3
3
3
3
3
3
3
3
3
3
3
3
3
3
3
3
3
3
3
3
3
3
3
3
3
3
3
3
3
3
3
3
3
3
3
3
3
3
3
3
3
3
3
3
3
3
3
3
3
3
3
3
3
3
3
3
3
3
3
3
3
3
3
3
3
3
3
3
3
3
3
3
3
3
3
3
3
3
3
3
3
3
3
3
3
3
3
3
3
3
3
3
3
3
3
3
3
3
3
3
3
3
3
3
3
3
3
3
3
3
3
3
3
3
3
3
3
3
3
3
3
3
3
3
3
3
3
3
3
3
3
3
3
3
3
3
3
3
3
3
3
3
3
3
3
3
3
3
3
3
3
3
3
3
3
3
3
3
3
3
3
3
3
3
3
3
3
3
3
3
3
3
3
3
3
3
3
3
3
3
3
3
3
3
3
3
3
3
3
3
3
3
3
3
3
3
3
3
3
3
3
3
3
3
3
3
3
3
3
3
3
3
3
3
3
3
3
3
3
3
3
3
3
3
3
3
3
3
3
3
3
3
3
3
3
3
3
3
3
3
3
3
3
3
3
3
3
3
3
3
3
3
3
3
3
3
3
3
3
3
3
3
3
3
3
3
3
3
3
3
3
3
3
3
3
3
3
3
3
3
3
3
3
3
3
3
3
3
3
3
3
3
3
3
3
3
3
3
3
3
3
3
3
3
3
3
3
3
3
3
3
3
3
3
3
3
3
3
3
3
3
3
3
3
3
3
3
3
3
3
3
3
3
3
3
3
3
3
3
3
3
3
3
3
3
3
3
3
3
3
3
3
3
3
3
3
3
3
3
3
3
3
3
3
3
3
3
3
3
3
3
3
3
3
3
3
3
3
3
3
3
3
3
3
3
3
3
3
3
3
3
3
3
3
3
3
3
3
3
3
3
3
3
3
3
3
3
3
3
3
3
3
3
3
3
3
3
3
3
3
3
3
3
3
3
3
3
3
3
3
3
3
3
3
3
3
3
3
3
3
3
3
3
3
3
3
3
3
3
3
3
3
3
3
3
3
3
3
3
3
3
3
3
3
3
3
3
3
3
3
3
3
3
3
3
3
3
3
3
3
3
3
3
3
3
3
3
3
3
3
3
3
3
3
3
3
3
3
3
3
3
3
3
3
3
3
3
3
3
3
3
3
3
3
3
3
3
3
3
3
3
3
3
3
3
3
3
3
3
3
3
3
3
3
3
3
3
3
3
3
3
3
3
3
3
3
3
3
3
3
3
3
3
3
3
3
3
3
3
3
3
3
3
3
3
3
3
3
3
3
3
3
3
3
3
3
3
3
3
3
3
3
3
3
3
3
3
3
3
3
3
3
3
3
3
3
3
3
3
3
3
3
3
3
3
3
3
3
3
3
3
3
3
3
3
3
3
3
3
3
3
3
3
3
3
3
3
3
3
3
3
3
3
3
3
3
3
3
3
3
3
3
3
3
3
3
3
3
3
3
3
3
3
3
3
3
3
3
3
3
3
3
3
3
3
3
3
3
3
3
3
3
3
3
3
3
3
3
3
3
3
3
3
3
3
3
3
3
3
3
3
3
3
3
3
3
3
3
3
3
3
3
3
3
3
3
3
3
3
3
3
3
3
3
3
3
3
3
3
3
3
3
3
3
3
3
3
3
3
3
3
3
3
3
3
3
3
3
3
3
3
3
3
3
3
3
3
3
3
3
3
3
3
3
3
3
3
3
3
3
3
3
3
3
3
3
3
3
3
3
3
3
3
3
3
3
3
3
3
3
3
3
3
3
3
3
3
3
3
3
3
3
3
3
3
3
3
3
3
3
3
3
3
3
3
3
3
3
3
3
3
3
3
3
3
3
3
3
3
3
3
3
3
3
3
3
3
3
3
3
3
3
3
3
3
3
3
3
3
3
3
3
3
3
3
3
3
3
3
3
3
3
3
3
3
3
3
3
3
3
3
3
3
3
3
3
3
3
3
3
3
3
3
3
3
3
3
3
3
3
3
3
3
3
3
3
3
3
3
3
3
3
3
3
3
3
3
3
3
3
3
3
3
3
3
3
3
3
3
3
3
3
3
3
3
3
3
3
3
3
3
3
3
3
3
3
3
3
3
3
3
3
3
3
3
3
3
3
3
3
3
3
3
3
3
3
3
3
3
3
3
3
3
3
3
3
3
3
3
3
3
3
3
3
3
3
3
3
3
3
3
3
3
3
3
3
3
3
3
3
3
3
3
3
3
3
3
3
3
3
3
3
3
3
3
3
3
3
3
3
3
3
3
3
3
3
3
3
3
3
3
3
3
3
3</DataArray><DataArray Name="offsets" type="Int32" Format="ascii">2
4
6
8
10
12
14
16
18
20
22
24
26
28
30
32
34
36
38
40
42
44
46
48
50
52
54
56
58
60
62
64
66
68
70
72
74
76
78
80
82
84
86
88
90
92
94
96
98
100
102
104
106
108
110
112
114
116
118
120
122
124
126
128
130
132
134
136
138
140
142
144
146
148
150
152
154
156
158
160
162
164
166
168
170
172
174
176
178
180
182
184
186
188
190
192
194
196
198
200
202
204
206
208
210
212
214
216
218
220
222
224
226
228
230
232
234
236
238
240
242
244
246
248
250
252
254
256
258
260
262
264
266
268
270
272
274
276
278
280
282
284
286
288
290
292
294
296
298
300
302
304
306
308
310
312
314
316
318
320
322
324
326
328
330
332
334
336
338
340
342
344
346
348
350
352
354
356
358
360
362
364
366
368
370
372
374
376
378
380
382
384
386
388
390
392
394
396
398
400
402
404
406
408
410
412
414
416
418
420
422
424
426
428
430
432
434
436
438
440
442
444
446
448
450
452
454
456
458
460
462
464
466
468
470
472
474
476
478
480
482
484
486
488
490
492
494
496
498
500
502
504
506
508
510
512
514
516
518
520
522
524
526
528
530
532
534
536
538
540
542
544
546
548
550
552
554
556
558
560
562
564
566
568
570
572
574
576
578
580
582
584
586
588
590
592
594
596
598
600
602
604
606
608
610
612
614
616
618
620
622
624
626
628
630
632
634
636
638
640
642
644
646
648
650
652
654
656
658
660
662
664
666
668
670
672
674
676
678
680
682
684
686
688
690
692
694
696
698
700
702
704
706
708
710
712
714
716
718
720
722
724
726
728
730
732
734
736
738
740
742
744
746
748
750
752
754
756
758
760
762
764
766
768
770
772
774
776
778
780
782
784
786
788
790
792
794
796
798
800
802
804
806
808
810
812
814
816
818
820
822
824
826
828
830
832
834
836
838
840
842
844
846
848
850
852
854
856
858
860
862
864
866
868
870
872
874
876
878
880
882
884
886
888
890
892
894
896
898
900
902
904
906
908
910
912
914
916
918
920
922
924
926
928
930
932
934
936
938
940
942
944
946
948
950
952
954
956
958
960
962
964
966
968
970
972
974
976
978
980
982
984
986
988
990
992
994
996
998
1000
1002
1004
1006
1008
1010
1012
1014
1016
1018
1020
1022
1024
1026
1028
1030
1032
1034
1036
1038
1040
1042
1044
1046
1048
1050
1052
1054
1056
1058
1060
1062
1064
1066
1068
1070
1072
1074
1076
1078
1080
1082
1084
1086
1088
1090
1092
1094
1096
1098
1100
1102
1104
1106
1108
1110
1112
1114
1116
1118
1120
1122
1124
1126
1128
1130
1132
1134
1136
1138
1140
1142
1144
1146
1148
1150
1152
1154
1156
1158
1160
1162
1164
1166
1168
1170
1172
1174
1176
1178
1180
1182
1184
1186
1188
1190
1192
1194
1196
1198
1200
1202
1204
1206
1208
1210
1212
1214
1216
1218
1220
1222
1224
1226
1228
1230
1232
1234
1236
1238
1240
1242
1244
1246
1248
1250
1252
1254
1256
1258
1260
1262
1264
1266
1268
1270
1272
1274
1276
1278
1280
1282
1284
1286
1288
1290
1292
1294
1296
1298
1300
1302
1304
1306
1308
1310
1312
1314
1316
1318
1320
1322
1324
1326
1328
1330
1332
1334
1336
1338
1340
1342
1344
1346
1348
1350
1352
1354
1356
1358
1360
1362
1364
1366
1368
1370
1372
1374
1376
1378
1380
1382
1384
1386
1388
1390
1392
1394
1396
1398
1400
1402
1404
1406
1408
1410
1412
1414
1416
1418
1420
1422
1424
1426
1428
1430
1432
1434
1436
1438
1440
1442
1444
1446
1448
1450
1452
1454
1456
1458
1460
1462
1464
1466
1468
1470
1472
1474
1476
1478
1480
1482
1484
1486
1488
1490
1492
1494
1496
1498
1500
1502
1504
1506
1508
1510
1512
1514
1516
1518
1520
1522
1524
1526
1528
1530
1532
1534
1536
1538
1540
1542
1544
1546
1548
1550
1552
1554
1556
1558
1560
1562
1564
1566
1568
1570
1572
1574
1576
1578
1580
1582
1584
1586
1588
1590
1592
1594
1596
1598
1600
1602
1604
1606
1608
1610
1612
1614
1616
1618
1620
1622
1624
1626
1628
1630
1632
1634
1636
1638
1640
1642
1644
1646
1648
1650
1652
1654
1656
1658
1660
1662
1664
1666
1668
1670
1672
1674
1676
1678
1680
1682
1684
1686
1688
1690
1692
1694
1696
1698
1700
1702
1704
1706
1708
1710
1712
1714
1716
1718
1720
1722
1724
1726
1728
1730
1732
1734
1736
1738
1740
1742
1744
1746
1748
1750
1752
1754
1756
1758
1760
1762
1764
1766
1768
1770
1772
1774
1776
1778
1780
1782
1784
1786
1788
1790
1792
1794
1796
1798
1800
1802
1804
1806
1808
1810
1812
1814
1816
1818
1820
1822
1824
1826
1828
1830
1832
1834
1836
1838
1840
1842
1844
1846
1848
1850
1852
1854
1856
1858
1860
1862
1864
1866
1868
1870
1872
1874
1876
1878
1880
1882
1884
1886
1888
1890
1892
1894
1896
1898
1900
1902
1904
1906
1908
1910
1912
1914
1916
1918
1920
1922
1924
1926
1928
1930
1932
1934
1936
1938
1940
1942
1944
1946
1948
1950
1952
1954
1956
1958
1960
1962
1964
1966
1968
1970
1972
1974
1976
1978
1980
1982
1984
1986
1988
1990
1992
1994
1996
1998
2000
2002
2004
2006
2008
2010
2012
2014
2016
2018
2020
2022
2024
2026
2028
2030
2032
2034
2036
2038
2040
2042
2044
2046
2048
2050
2052
2054
2056
2058
2060
2062
2064
2066
2068
2070
2072
2074
2076
2078
2080
2082
2084
2086
2088
2090
2092
2094
2096
2098
2100
2102
2104
2106
2108
2110
2112
2114
2116
2118
2120
2122
2124
2126
2128
2130
2132
2134
2136
2138
2140
2142
2144
2146
2148
2150
2152
2154
2156
2158
2160
2162
2164
2166
2168
2170
2172
2174
2176
2178
2180
2182
2184
2186
2188
2190
2192
2194
2196
2198
2200
2202
2204
2206
2208
2210
2212
2214
2216
2218
2220
2222
2224
2226
2228
2230
2232
2234
2236
2238
2240
2242
2244
2246
2248
2250
2252
2254
2256
2258
2260
2262
2264
2266
2268
2270
2272
2274
2276
2278
2280
2282
2284
2286
2288
2290
2292
2294
2296
2298
2300
2302
2304
2306
2308
2310
2312
2314
2316
2318
2320
2322
2324
2326
2328
2330
2332
2334
2336
2338
2340
2342
2344
2346
2348
2350
2352
2354
2356
2358
2360
2362
2364
2366
2368
2370
2372
2374
2376
2378
2380
2382
2384
2386
2388
2390
2392
2394
2396
2398
2400
2402
2404
2406
2408
2410
2412
2414
2416
2418
2420
2422
2424
2426
2428
2430
2432
2434
2436
2438
2440
2442
2444
2446
2448
2450
2452
2454
2456
2458
2460
2462
2464
2466
2468
2470
2472
2474</DataArray></Cells></Piece></UnstructuredGrid></VTKFile>