<VTKFile type="UnstructuredGrid" version="0.1" byte_order="BigEndian"><UnstructuredGrid><Piece NumberOfPoints="12" NumberOfCells="11"><Points><DataArray type="Float32" NumberOfComponents="3" Format="ascii">3e-05 1.13 0.0
0.0003122758531203376 1.1281333470561883 -0.18744313406179888
0.0011635565630606338 1.1262924988182337 -0.374984108446191
0.0018609998780471392 1.1246055913362742 -0.5624942158093756
-0.04187191700498641 1.1215088619808682 -0.7553923766975275
-0.01912632564098881 1.1215689360939032 -0.9400813547757965
0.003372870934500033 1.1158000243816986 -1.1246105112513904
0.0032439555359293575 1.1109448141043445 -1.311976678111957
0.13129730356658206 1.0996362794518324 -1.4647205818448659
0.2640651247855696 1.0892709740209803 -1.618524684020082
-0.12511520949037286 1.1049359291532623 -1.4646584430247878
-0.3286563960398704 1.0875644222676404 -1.6305240841406246</DataArray></Points><Cells><DataArray type="Int32" Name="connectivity" Format="ascii">0 1
1 2
2 3
3 4
4 5
5 6
6 7
7 8
8 9
7 10
10 11</DataArray><DataArray Name="types" Format="ascii" type="Int32">3
3
3
3
3
3
3
3
3
3
3</DataArray><DataArray Name="offsets" type="Int32" Format="ascii">2
4
6
8
10
12
14
16
18
20
22</DataArray></Cells></Piece></UnstructuredGrid></VTKFile>