# vtk DataFile Version 2.0
ellipsoidal, Created by Gmsh
ASCII
DATASET UNSTRUCTURED_GRID
POINTS 50 double
0.569 0 0
0 0 -2.01
0.221 0 0
0 0 -1.836
0.4023437584951455 0.4023437584951455 0
1.110223024625157e-16 0.569 0
-0.4023437584951454 0.4023437584951456 0
-0.569 1.665334536937735e-16 0
-0.4023437584951456 -0.4023437584951454 0
-2.220446049250313e-16 -0.569 0
0.4023437584951453 -0.4023437584951457 0
0.156270598642227 0.156270598642227 0
4.163336342344337e-17 0.221 0
-0.1562705986422269 0.156270598642227 0
-0.221 8.326672684688674e-17 0
-0.1562705986422271 -0.1562705986422269 0
-1.110223024625157e-16 -0.221 0
0.1562705986422269 -0.1562705986422271 0
0.530409770554133 0 -0.7276160453532142
0.3960378353411317 0 -1.443216605987666
0.1900271642512306 0 -0.937359424534827
0.3750563455664282 0.3750563455664281 -0.7276160453532151
0.2800410389761558 0.2800410389761558 -1.443216605987665
1.03492643190746e-16 0.530409770554133 -0.7276160453532142
7.727422204190352e-17 0.3960378353411317 -1.443216605987666
-0.375056345566428 0.3750563455664282 -0.7276160453532154
-0.2800410389761556 0.2800410389761557 -1.443216605987665
-0.530409770554133 1.55238964786119e-16 -0.7276160453532142
-0.3960378353411317 1.159113330628553e-16 -1.443216605987666
-0.3750563455664284 -0.3750563455664281 -0.727616045353213
-0.2800410389761566 -0.2800410389761563 -1.443216605987661
-2.06985286381492e-16 -0.530409770554133 -0.7276160453532142
-1.54548444083807e-16 -0.3960378353411317 -1.443216605987666
0.3750563455664281 -0.3750563455664285 -0.727616045353213
0.2800410389761563 -0.2800410389761566 -1.443216605987661
0.134369497141253 0.134369497141253 -0.9373594108903742
3.579850674026178e-17 0.1900271642512306 -0.937359424534827
-0.134369496451695 0.1343694964516951 -0.937359424534827
-0.1900271642512306 7.159701348052355e-17 -0.937359424534827
-0.1343694964516952 -0.134369496451695 -0.9373594245348263
-9.546268464069808e-17 -0.1900271642512306 -0.937359424534827
0.134369496451695 -0.1343694964516951 -0.9373594245348273
-0.3536811352031023 -0.1464995229566371 0
-0.3536811352031021 0.1464995229566373 0
-0.1464995229566372 0.3536811352031023 -0
0.1464995229566373 0.3536811352031022 0
0.3536811352031022 0.1464995229566372 0
0.3536811352031021 -0.1464995229566373 0
0.1464995229566371 -0.3536811352031023 0
-0.1464995229566374 -0.3536811352031021 0

CELLS 125 625
4 36 28 22 3
4 36 28 3 37
4 20 32 41 3
4 1 3 34 19
4 28 26 3 1
4 22 3 1 19
4 26 24 3 1
4 47 10 33 0
4 10 9 48 33
4 44 6 5 23
4 7 42 8 29
4 45 5 4 23
4 29 8 9 49
4 4 46 21 18
4 45 4 21 23
4 30 28 3 1
4 32 30 3 1
4 3 32 1 34
4 24 22 3 1
4 25 7 27 43
4 9 31 48 33
4 31 29 9 49
4 7 27 42 29
4 25 7 43 6
4 0 46 4 18
4 33 47 0 18
4 25 6 44 23
4 11 45 21 23
4 46 11 21 18
4 27 14 42 29
4 31 29 49 16
4 31 16 48 33
4 25 27 13 43
4 47 33 2 18
4 25 44 13 23
4 20 32 3 19
4 19 3 20 22
4 27 14 13 43
4 11 12 45 23
4 13 44 12 23
4 12 5 45 23
4 12 5 23 44
4 49 29 15 16
4 11 46 2 18
4 17 47 33 2
4 48 16 17 33
4 14 42 29 15
4 30 38 3 28
4 3 40 30 32
4 4 11 45 21
4 4 11 21 46
4 10 17 33 48
4 8 15 49 29
4 10 17 47 33
4 8 15 29 42
4 16 9 49 31
4 16 9 31 48
4 14 7 43 27
4 14 7 27 42
4 3 35 20 22
4 3 35 22 36
4 21 36 11 23
4 20 21 11 18
4 3 39 30 40
4 38 30 3 39
4 3 38 37 28
4 32 41 3 40
4 13 6 25 43
4 13 6 44 25
4 2 0 18 46
4 2 0 47 18
4 31 40 16 33
4 29 14 38 27
4 39 29 31 16
4 27 37 25 13
4 21 20 11 35
4 36 21 11 35
4 2 33 20 18
4 37 25 13 23
4 37 27 38 14
4 37 27 14 13
4 40 39 31 16
4 36 13 12 23
4 23 36 11 12
4 2 41 33 17
4 41 2 33 20
4 38 15 29 39
4 15 38 29 14
4 40 41 17 33
4 16 40 17 33
4 36 13 23 37
4 18 11 20 2
4 29 39 15 16
4 18 20 22 19
4 37 28 25 26
4 25 24 37 26
4 20 18 34 19
4 23 21 36 22
4 20 21 18 22
4 20 34 32 19
4 37 24 28 26
4 30 28 27 38
4 30 32 40 31
4 32 41 33 34
4 32 33 40 31
4 27 37 28 25
4 36 23 22 24
4 29 30 39 31
4 38 29 27 30
4 21 20 35 22
4 36 21 35 22
4 37 23 24 25
4 20 33 34 18
4 36 28 24 22
4 37 27 28 38
4 39 30 40 31
4 28 26 24 3
4 3 32 34 19
4 41 32 33 40
4 23 37 24 36
4 33 20 34 41
4 38 29 30 39
4 34 20 32 41
4 28 36 24 37
4 22 28 24 3

CELL_TYPES 125
10
10
10
10
10
10
10
10
10
10
10
10
10
10
10
10
10
10
10
10
10
10
10
10
10
10
10
10
10
10
10
10
10
10
10
10
10
10
10
10
10
10
10
10
10
10
10
10
10
10
10
10
10
10
10
10
10
10
10
10
10
10
10
10
10
10
10
10
10
10
10
10
10
10
10
10
10
10
10
10
10
10
10
10
10
10
10
10
10
10
10
10
10
10
10
10
10
10
10
10
10
10
10
10
10
10
10
10
10
10
10
10
10
10
10
10
10
10
10
10
10
10
10
10
10
