<?xml version="1.0"?>
<VTKFile type="UnstructuredGrid"  version="0.1"  >
<UnstructuredGrid>
<Piece  NumberOfPoints="257" NumberOfCells="1637">
<Points>
<DataArray  type="Float64"  NumberOfComponents="3"  format="ascii">-0.4668352359426251 -19.13687404117979 -10.08134456023078  -0.4923421272164555 -19.03691401752458 -10.09577412545191  -0.3094407297055115 -19.00050155108726 -9.989411775048508  -0.2595528016046894 -19.08911904475326 -10.10450436267379  -0.08036577173313764 -18.71824929989807 -10.78492741006399  -0.1583992273839787 -18.68998229102433 -10.74128742046237  -0.1197362889616489 -18.5683642401965 -10.78184003054379  -0.06180720112658881 -18.63628498924504 -10.71012417524719  -0.4075831467135766 -18.68718385296497 -9.688593505134293  -0.3587372693503415 -18.7185132791573 -9.663794387168991  -0.5036918295331633 -18.6775442514875 -9.626046622864605  -0.5185386025735916 -18.70616198266113 -9.604068460972645  -0.4886126373980693 -18.87232908938149 -9.562380935303368  -0.5161273004683673 -18.91543271007856 -9.682099773627584  -0.3642082009409449 -18.76358642297395 -9.728837123106636  -0.3276313550821948 -18.83669558104211 -9.683295941766907  -0.02670593020306247 -19.26489406524467 -10.40867999036077  0.0794096566951093 -19.33066598686135 -10.48428245430633  -0.01742126402667367 -19.45302058048645 -10.35673090478973  -0.1568376746832239 -19.41383906729829 -10.51565781905355  -0.5564059825660513 -18.85874173534237 -9.840873305616885  -0.5640632655929597 -18.78627812393206 -9.79484293298912  -0.4672739680422686 -18.87795573125014 -9.854560235797699  -0.446609157668921 -18.75313741728297 -9.848029959329597  -0.1838030718960792 -18.83502677535772 -10.38215490605301  -0.1373611732747486 -18.97864350222805 -10.38195168981554  -0.2891293560442144 -18.95924542858779 -10.52912162625279  -0.1162099929271565 -18.90580069088993 -10.43053784584827  -0.5549466963028173 -18.84405794961825 -10.01757405616753  -0.5151471510189557 -18.93323998583212 -10.12562574106697  -0.4446323191121116 -18.8603479230789 -9.987137796766586  -0.4744226868896864 -18.78465411318236 -10.08183665967154  -0.4711933797571912 -18.7070657184808 -10.30990805624123  -0.5241051687442427 -18.83079217467008 -10.18762623543036  -0.4658724396942988 -18.8760643753717 -10.29822973405237  -0.443959860050926 -18.75758562527104 -10.19359061388373  -0.3833732657976022 -19.30078402805521 -10.20539937823584  -0.4165458999971978 -19.15775166930993 -10.22482704689988  -0.1788435277936659 -19.21218841925399 -10.22115614219383  -0.4330382098903114 -19.18862437001894 -10.15273213062287  -0.1790821452282523 -18.54904091309727 -10.6996414449604  -0.1876057846051603 -18.60854526824693 -10.72510442994707  -0.1298322768277153 -18.5775611114057 -10.67967562660902  -0.1718883487851147 -18.59466982091563 -10.66388093777332  -0.4994963238778213 -18.67375517849985 -9.659579667133167  -0.5131196558451026 -18.68178125842718 -9.707687748298547  -0.5287166671286399 -18.70933556755193 -9.660034435472481  -0.4864726195148366 -18.69755520637057 -9.692351327950341  -0.4477088690142439 -18.66070648419319 -9.686513457453918  -0.4107561643931615 -18.68347281682261 -9.738141822154047  -0.5506786882763457 -18.74488266295646 -9.72211435179082  -0.4894527516593213 -18.73095662728977 -9.772924940519788  -0.3662012922477063 -19.19330024789691 -10.31310476847962  -0.2159439033525838 -19.07523376680655 -10.22103518332823  -0.5029464084015823 -19.06191413651998 -9.967481132206315  -0.2782681955069296 -19.13330348974148 -9.950473407734068  -0.3136943952133021 -19.00416859323292 -9.867304509731692  -0.2550317027339105 -19.00389308128728 -10.18181613639169  -0.4100507546204444 -19.08713794700972 -10.28715576684173  -0.5592223548373502 -18.74436184140783 -9.81165034337797  -0.5123509814840753 -18.67864700377636 -9.806096069842047  -0.1338039262370645 -18.77009914395595 -10.4620855310682  -0.1202558715806608 -18.83982902886698 -10.45132024300891  -0.245205794594135 -18.82548190420596 -10.62137795511036  -0.285661655464433 -18.8680581779373 -10.56410135785901  -0.1239294366728716 -18.6450639871421 -10.65767278789383  -0.285197851304609 -19.35929677017915 -10.37172148792424  -0.0995145255605098 -19.31093685121822 -10.30880199719579  -0.1445968909011007 -19.42364622670192 -10.17530941404075  -0.1465901247280123 -18.68649709182188 -10.4826788672303  -0.2499096624137916 -18.75116188261848 -10.64161652365525  -0.3138550281105765 -18.75824920791865 -10.57057497843039  -0.3890621401368006 -18.75203783173796 -9.937542300000501  -0.540889557051853 -18.87857831094252 -9.745216461807173  -0.3530304324863843 -18.82946142955734 -9.779954880527741  -0.3825370629491497 -18.75325783414767 -9.793689897346098  -0.2196174485734782 -18.59270220152717 -10.67300763725271  -0.2221026773273438 -18.65477363897048 -10.69250400069774  -0.1770751511454374 -18.62181691895774 -10.61766223111965  0.1355025821524545 -18.42540042681992 -10.90808792036531  0.04201674865122508 -18.54566090274588 -10.88189770457723  0.0003356595707837536 -18.47529016778417 -10.84057612152637  0.09398821351945244 -18.55751563797128 -10.79351472907065  -0.0383127895050942 -18.76688819030138 -10.54330611624103  -0.01965804872667189 -18.85774886801203 -10.53070054639709  -0.1881402775444727 -18.88344408342644 -10.65465470355705  -0.1444733244483395 -18.86624914359026 -10.69654332419496  -0.1552108682012853 -18.76824669009872 -10.72101810557422  -0.2028638699957958 -18.73514390302263 -10.68949513321953  -0.09419703677696116 -18.72245714753642 -10.51544602252892  0.06894064159370426 -18.70259408603254 -10.62846900061553  -0.04031317358548062 -18.6856660180777 -10.81737612182358  0.06388432627042216 -18.58581286705095 -10.65901685802296  -0.4469814513263415 -19.17306702060388 -9.685873609665846  -0.4844328739355588 -19.01938719924212 -9.663747963007815  -0.2836764303138132 -19.05461646893348 -9.734526224939557  -0.4855458644929891 -19.09743396148617 -9.775327398683503  -0.1891539512650382 -19.56974920844875 -10.42258230669896  0.05960107161446733 -18.93257667664523 -10.56557781379789  -0.01753579197226565 -18.94367069760537 -10.50899641310861  -0.1244667900298935 -18.94951092219695 -10.68655013210702  -0.4635875338779792 -19.18420315787249 -10.01561379787018  -0.4352170965492613 -19.24449196476028 -10.08775827026898  -0.440426578855229 -19.28123446076571 -9.993206759859188  -0.535340943130025 -18.7572602149566 -9.615190621427834  -0.1371723485107009 -18.82161648653659 -10.71797376202533  -0.1119369519924006 -18.80181333638773 -10.74034324703268  0.04253086553877295 -18.80603016439615 -10.5860990288212  -0.5617603129332132 -18.80789101122511 -9.756758025275778  -0.2755950045219615 -19.14093239219213 -9.820315102715574  -0.2264663788047891 -19.20541142321215 -9.663920253677087  -0.4246515364246379 -19.31901731794563 -9.769710548117928  -0.3721091496846766 -18.797379958561 -9.847222534784809  -0.4050588092200753 -18.69515643375474 -10.17809864026708  -0.347734993256921 -18.73354759042501 -10.17602259770807  -0.06295305561362816 -19.1065591006941 -10.420108887698  -0.1947262277225277 -19.13345592682271 -10.56814620462689  0.01809056861427404 -19.03985111613626 -10.51038678660488  -0.06555260301317029 -18.9790099592582 -10.45644736139078  -0.01527232478196294 -18.56165100547734 -10.75305127612777  -0.06879828942142052 -18.88908254731617 -10.48051992726556  -0.293086521429054 -18.96295301451877 -10.11083911326321  -0.3398716339373054 -18.86288258712755 -10.04177201050231  -0.08189501240145847 -18.80369952761181 -10.49769303360003  -0.2307621340899064 -18.89565070815838 -10.61281084768489  -0.1906618494089872 -18.95995249186943 -10.62866288391978  -0.4782393287911277 -18.67442840861347 -9.767474778937391  -0.1579900430990897 -19.08443404998667 -10.31404743986167  -0.3064693192747172 -19.17656399707448 -10.41869913993469  -0.1074734434338889 -19.17789484697641 -10.34525180929737  -0.2251825828951631 -19.27192797129755 -10.05975004314003  -0.3889107301200684 -18.74900189928065 -9.849729596949297  -0.09873765799596118 -18.58675733854939 -10.56156360511149  -0.02834447133706527 -18.58805807796055 -10.60982623755254  -0.06337024843071414 -18.66973662815899 -10.55681934193255  -0.5146757093322309 -18.98945531916614 -9.77019236130705  -0.1926965250160316 -18.80081643549743 -10.67825227725905  0.3758945873052472 -19.28546237246756 -10.847005154839  0.2399054905049884 -19.3008991828316 -10.5890774947916  0.4863697370010853 -19.27301243818826 -10.6785217345699  0.342541408851279 -19.09655608230784 -10.66100184267935  -0.1320739109248224 -18.51166523876574 -10.66482324112417  -0.259414536601294 -19.05522344415486 -10.52693935201205  -0.3280966325901125 -19.0339209681082 -10.44935319895533  -0.3832906396353193 -18.64207175374765 -9.584589474473047  -0.3740481712891193 -18.67064944133446 -9.623538883971795  -0.4114171431264773 -18.63802053414999 -9.621810617935777  -0.4282997961847008 -18.68489916993323 -9.579806884038897  -0.5223682987400776 -18.96491919473592 -10.03263170078904  -0.3235410111251976 -18.63537685824386 -10.54696728765318  -0.290993622312298 -18.6915438862275 -10.61777160305194  -0.2465393142059535 -18.66668463679302 -10.52338762282494  -0.1835343786302872 -18.71872306485721 -10.43219192355585  -0.3681208311030123 -19.08866304938174 -10.36277489456755  0.1454859670677734 -19.51921081922321 -10.48488231304779  -0.0297962389975801 -19.55450165096665 -10.59152798126874  -0.3641443518271555 -18.75899032814967 -10.09162581553404  -0.4159522788869225 -19.07993472348897 -9.517739869146236  -0.25900514361873 -18.97234193712503 -9.599733654051683  -0.4420707830099264 -19.2963359736791 -9.883293521698953  -0.4772785179913475 -19.15418336179262 -9.874869952470988  -0.5414252119502792 -18.81630019356913 -9.678248767336743  -0.3848678825478666 -19.30670169318228 -9.597173646972546  -0.5039860441909164 -18.72622531639652 -9.557131930065442  -0.4098175740898783 -18.73839863876933 -9.487297153876876  -0.2170772553540098 -19.24879463602195 -10.50470915605988  0.05910704239954956 -19.18400145996604 -10.50382172300719  -0.07843094240714761 -18.87288709411264 -10.7396041278395  -0.07096642590241403 -18.79254678875255 -10.76900337079322  0.04001598699043599 -18.8125437247568 -10.82008954090867  0.141404434803772 -18.66071814472372 -10.66975060587034  -0.3185491305430463 -18.93109177378817 -9.751479144496271  -0.3464616510908363 -18.63890614306264 -9.540880195427048  -0.3332692844962493 -18.70164439806483 -9.590931180630898  -0.3951573398656365 -18.66725208168094 -9.648292328219293  -0.4442405854494024 -18.66592086266775 -9.645633404432035  -0.3280396413610557 -18.80979585751514 -10.1387194462906  -0.306818673031743 -18.87593260955377 -10.14513631460927  -0.2635466277979459 -19.12948666467168 -10.49482668411516  0.1618973336214314 -19.28074274657412 -10.77064772492078  0.2904558961681248 -19.47592666108143 -10.79000238795359  -0.2445394143182596 -18.93990965060507 -10.58309417779028  -0.1797733560348874 -18.65266802408792 -10.46523615103938  -0.2092602827348977 -18.65810761301331 -10.4340342034268  -0.2097081367712998 -18.59981083170897 -10.49326516465866  -0.2509102652165669 -18.7064158375482 -10.35635345246045  -0.2953680276100569 -18.74760276848663 -10.4385774004534  -0.3420540483459916 -18.84457293288771 -10.34339876791285  -0.4110470050499304 -19.40321385286339 -9.869728458120832  -0.2358948774266528 -19.31029100307493 -9.87196530732885  -0.1335714121524253 -19.06589005049034 -10.64259188300784  0.0007926447554989357 -19.05139515664392 -10.73967411743117  -0.1157552090402086 -18.75488465287295 -10.75216094826153  -0.005415677426965327 -18.70693468137659 -10.58527363151002  -0.4888598986523908 -18.9226511151038 -10.21504156696494  0.0799569369017048 -19.46436188370332 -10.68913384623853  -0.2837496449712236 -18.81202629642849 -10.24097109350832  -0.1932097497533932 -18.54261382140233 -10.61825616128043  -0.2649994481065431 -18.6170109719135 -10.61860098239559  0.2008086860419568 -18.84682818985968 -10.65204344928948  -0.550563818694827 -18.74143594200226 -9.773968941237712  -0.5324576958571563 -18.69752676350053 -9.75358170162669  -0.4542206130837304 -18.6339067670201 -9.508956591153694  -0.5027390264567678 -18.67829389680045 -9.594705219570336  -0.507286092521077 -19.05361487983535 -9.866451792023419  -0.06376723654315973 -19.2846020284093 -10.63442278052876  -0.2201193116118754 -19.01859877877479 -10.58158552718201  -0.02952049601082681 -18.56231915709742 -10.84950188174098  -0.3055458964204634 -19.58271133625606 -10.21011349837277  0.004692743740686864 -18.63878531020549 -10.84879944234843  -0.003041405228804643 -18.48899487885491 -10.67512614390726  -0.2714994592412087 -18.92500821567431 -10.19341471447929  -0.454793283164817 -19.10136163938397 -10.16290962434135  -0.383676075873725 -18.83874323646811 -10.45065967066895  -0.4139296648146426 -18.98594905000599 -10.34079305567806  -0.4587766890933264 -18.96352346900691 -10.26215482404075  -0.3446241048754616 -18.88882974545493 -9.885737986517643  -0.4419754528189354 -19.07817724900386 -10.22261876513232  -0.4711616860909367 -18.64810679370557 -9.621437997637376  0.4216216884243796 -19.4506878876213 -10.63334254680455  -0.401905545107047 -19.37736555799945 -10.07358729511725  -0.1992242844296268 -19.41420890614778 -10.00447934414526  0.2355720778469367 -19.04829688444062 -10.8405489130837  0.1470000137297143 -19.06734176676642 -10.58629587398559  -0.1180253458005879 -18.64115658377868 -10.52523532131432  -0.4678685470247943 -18.64820135777443 -9.663218017302752  -0.4166694718401098 -18.69518526623554 -10.10156118658608  -0.2200926541120011 -18.9597920020435 -10.27516663234562  0.1521988273319654 -18.63531831413944 -10.9004102939016  -0.4189245463569435 -19.37443104056297 -9.958437670404383  -0.4719006830448316 -19.00970950243959 -10.19375460148638  -0.1287268963747067 -18.53493491496063 -10.6105886407429  -0.3783919220137771 -18.68812270604452 -10.48843427452601  -0.5352060665401498 -18.94466749416418 -9.918433462443318  -0.4660694606509262 -18.64350130109405 -9.580106061932964  -0.2529915672361365 -18.68969370310529 -10.65929519306652  -0.1702193194433952 -18.61410553221041 -10.5075644263063  -0.4679896377089939 -19.19588965304399 -9.947760927750688  -0.4069024881801215 -18.67395854586784 -9.669817267926312  0.3121591852705901 -19.54533216110266 -10.57180717435283  -0.4402548742196775 -19.02459728435779 -10.26105937242198  -0.4582232232801275 -19.2144715570165 -9.803760978520728  -0.4334124772995116 -18.64690575879697 -9.656380574398383  -0.4574570963779245 -18.67933805636878 -10.18123843907603  -0.5247552230165203 -18.70375238965662 -9.632853443459325  -0.4345852400440912 -18.62501643885481 -9.547304535502755  -0.301132961180162 -18.80782965116547 -9.595772254425425  -0.1701344781333245 -18.57742376432628 -10.55172220459068  -0.5503830017894429 -18.73700059235418 -9.673607746963194  -0.2749353425504138 -18.74275766339038 -9.517215384618455  -0.4144522433412199 -18.69402869195314 -9.819897406014125  -0.3850369386565247 -19.4917132082142 -9.975586981052002  -0.5255169437934607 -18.71446650425292 -10.12329796418432  -0.2455520223773715 -18.61898123047883 -10.4401481088313  -0.4771160738195453 -18.66666777234205 -9.526905739493888  0.1425992109220849 -18.50630704819975 -10.70877880230316  -0.4778906192522483 -18.65284546563692 -9.646024436448963  </DataArray>
</Points>
<Cells>
<DataArray  type="UInt32"  Name="connectivity"  format="ascii">0 1 2  0 1 3  0 54 1  0 1 212  0 2 3  0 54 2  101 0 2  0 39 3  101 0 3  0 102 3  0 3 212  0 102 39  0 39 212  101 0 54  101 0 102  1 2 3  54 1 2  1 2 121  1 2 122  148 1 2  1 3 121  1 3 212  1 29 121  1 29 122  148 1 29  1 29 230  54 148 1  1 121 122  1 121 212  1 121 230  148 1 122  1 212 230  2 55 3  101 2 3  2 3 121  2 122 30  148 2 30  2 216 30  233 2 30  54 2 55  54 2 56  101 54 2  54 148 2  54 233 2  2 55 56  101 2 55  2 56 216  233 2 56  2 121 122  148 2 122  2 216 122  233 148 2  233 2 216  36 3 37  36 3 38  36 39 3  36 102 3  36 3 130  3 37 38  39 3 37  3 37 53  57 3 37  3 212 37  3 217 37  3 38 53  3 38 130  102 39 3  39 3 212  57 3 53  101 55 3  102 55 3  55 3 130  57 3 121  57 3 217  101 102 3  102 3 130  3 121 212  3 121 217  3 217 212  4 5 6  4 5 7  192 4 5  4 6 7  4 6 91  4 90 7  4 91 7  192 4 7  4 193 7  4 90 91  168 4 90  4 169 90  4 90 193  4 169 91  168 4 169  192 168 4  168 4 193  192 4 193  5 6 7  5 6 41  5 6 65  5 7 65  192 5 7  5 41 65  5 77 41  5 77 65  87 5 65  5 88 65  192 5 65  5 77 88  87 5 88  87 192 5  6 7 65  6 91 7  6 119 7  133 6 7  40 6 41  40 6 42  40 6 141  6 41 42  6 41 65  6 65 42  133 6 42  6 141 42  133 6 65  6 81 119  6 81 207  6 210 81  6 91 119  6 209 91  133 6 119  6 207 119  6 209 119  6 210 119  133 6 141  133 6 210  6 209 207  133 7 65  192 7 65  193 7 65  90 91 7  90 92 7  90 133 7  90 193 7  91 92 7  91 119 7  92 119 7  133 92 7  133 119 7  193 133 7  192 193 7  8 9 10  8 9 11  49 8 9  104 8 9  161 8 9  8 9 175  238 8 9  8 10 11  8 10 47  8 10 175  8 10 244  104 8 11  8 11 244  48 8 47  49 8 47  104 8 47  161 8 47  8 175 47  8 244 47  48 49 8  48 8 175  48 238 8  161 49 8  161 104 8  104 8 244  238 8 175  9 10 11  9 10 147  9 10 175  104 9 11  9 11 147  9 163 11  12 9 14  12 9 15  12 104 9  161 12 9  12 9 163  12 9 164  12 9 246  9 14 15  49 9 14  161 9 14  9 246 15  161 49 9  161 104 9  104 9 163  9 145 147  9 173 145  9 145 174  9 163 147  9 164 147  9 173 147  9 174 147  9 147 175  9 163 164  9 173 164  9 246 164  9 246 173  9 174 175  238 9 174  238 9 175  10 11 147  203 10 11  10 11 244  44 10 47  44 10 175  44 10 244  44 256 10  10 175 47  10 244 47  10 147 175  203 10 147  218 10 147  218 10 175  256 10 175  218 203 10  256 218 10  104 163 11  104 11 244  163 11 147  203 11 147  163 203 11  12 13 14  12 13 15  12 13 94  161 12 13  12 14 15  161 12 14  12 94 15  12 158 15  12 246 15  157 12 94  12 158 94  161 12 104  12 104 163  157 12 158  12 246 158  12 163 164  12 246 164  13 14 15  73 13 14  74 13 14  161 13 14  74 13 15  13 94 15  171 13 15  73 74 13  73 13 135  161 73 13  74 13 135  74 171 13  13 135 94  171 13 94  171 13 135  74 14 15  49 14 51  49 75 14  161 49 14  75 14 51  108 14 51  161 14 51  73 74 14  73 75 14  108 73 14  161 73 14  74 75 14  108 75 14  161 108 14  74 171 15  158 94 15  171 94 15  171 158 15  246 158 15  16 17 18  16 17 19  16 166 17  16 17 205  16 18 19  16 18 67  16 67 19  165 16 19  16 205 19  16 129 67  165 16 67  16 115 129  165 16 115  16 166 115  165 16 129  165 16 166  165 16 205  16 166 205  17 18 19  17 154 18  17 18 155  17 155 19  17 205 19  17 154 138  166 17 138  17 179 138  17 138 195  17 154 155  17 154 195  17 155 195  17 155 205  166 17 179  166 17 205  17 179 195  17 179 205  17 205 195  66 18 19  18 67 19  18 97 19  18 155 19  66 18 67  66 18 68  66 18 97  18 67 68  18 68 97  18 155 97  154 18 155  66 67 19  66 97 19  66 165 19  165 67 19  155 97 19  155 205 19  165 205 19  20 21 22  20 21 23  20 59 21  108 20 21  20 22 23  28 20 22  72 20 22  73 20 22  108 20 22  20 135 22  233 20 22  20 59 23  72 20 23  72 28 20  233 28 20  72 20 59  108 73 20  73 20 135  233 20 135  21 22 23  108 21 22  112 21 22  21 51 23  59 21 23  112 21 23  59 21 51  108 21 51  112 21 51  200 21 51  200 59 21  108 112 21  108 200 21  72 22 23  112 22 23  28 30 22  72 28 22  233 28 22  72 30 22  216 30 22  233 30 22  72 112 22  72 216 22  73 74 22  108 73 22  73 112 22  73 135 22  112 74 22  74 135 22  216 74 22  108 112 22  112 216 22  216 135 22  233 135 22  233 216 22  59 51 23  60 51 23  75 51 23  112 51 23  250 51 23  59 60 23  72 59 23  72 60 23  60 250 23  72 112 23  72 131 23  72 250 23  112 75 23  75 131 23  75 250 23  112 131 23  131 250 23  24 25 26  24 25 27  24 25 143  24 227 25  24 26 27  24 26 64  24 143 26  24 181 26  24 213 26  24 62 27  24 181 27  24 61 62  24 61 64  24 61 71  152 24 61  24 62 64  24 62 181  24 71 64  24 181 64  24 213 64  152 24 71  24 71 186  24 213 71  24 143 187  24 213 143  24 227 143  152 24 185  152 24 186  24 185 186  24 185 187  24 185 196  24 186 187  24 213 186  24 196 187  24 213 187  24 227 187  24 227 196  25 26 27  25 142 26  25 143 26  25 118 27  25 142 27  25 115 118  127 25 115  25 115 142  25 115 178  25 142 118  127 25 143  127 25 178  127 227 25  25 142 143  25 142 178  25 178 143  227 25 143  142 26 27  181 26 27  206 26 27  181 26 64  213 26 64  142 143 26  206 142 26  213 143 26  206 181 26  62 27 120  62 181 27  118 27 120  142 118 27  206 118 27  181 27 120  206 27 120  206 142 27  206 181 27  28 29 30  28 29 31  28 29 33  148 28 29  28 30 31  72 28 30  148 28 30  233 28 30  28 33 31  72 28 31  252 28 31  252 28 33  72 252 28  233 148 28  29 30 31  29 122 30  148 29 30  29 156 30  29 33 31  29 156 31  29 33 156  29 33 176  29 33 194  29 121 122  29 121 177  29 121 230  148 29 122  29 156 122  29 176 122  29 177 122  29 176 156  29 176 177  29 176 194  29 194 177  29 177 230  29 194 230  72 30 31  156 30 31  72 122 30  72 156 30  72 216 30  148 122 30  156 122 30  216 122 30  233 148 30  233 216 30  33 35 31  33 156 31  252 33 31  156 35 31  226 35 31  252 35 31  72 156 31  226 72 31  72 252 31  226 156 31  226 252 31  32 33 34  32 33 35  252 32 33  32 34 35  32 34 187  32 34 213  113 32 35  32 114 35  32 35 187  32 196 35  243 32 35  252 32 35  113 32 114  243 113 32  32 114 196  32 185 186  32 185 187  32 185 196  32 232 185  32 186 187  32 213 186  32 232 186  32 196 187  32 213 187  32 232 213  243 252 32  33 34 35  33 34 176  33 34 194  33 156 35  33 176 35  252 33 35  33 176 156  33 176 194  34 176 35  34 35 187  34 196 35  34 176 177  34 176 194  34 176 196  34 194 177  34 177 196  34 177 211  34 177 215  34 196 187  34 211 187  34 213 187  34 214 187  34 194 215  34 196 211  34 214 211  34 211 215  34 214 213  34 214 215  113 114 35  113 156 35  113 226 35  243 113 35  156 114 35  176 114 35  114 196 35  176 156 35  226 156 35  176 196 35  196 35 187  243 226 35  226 252 35  243 252 35  36 37 38  36 39 37  36 37 52  36 52 38  36 66 38  36 38 68  36 38 130  36 102 39  36 66 52  36 66 68  36 66 208  36 68 130  36 68 208  220 36 68  36 102 130  220 36 102  220 36 130  220 36 208  37 52 38  37 38 53  39 212 37  37 52 53  37 58 52  57 37 53  37 58 53  57 37 58  57 217 37  217 37 58  217 212 37  52 38 53  66 52 38  127 52 38  128 52 38  127 38 53  66 38 67  66 38 68  66 128 38  66 129 38  38 67 68  129 38 67  38 68 130  127 128 38  127 129 38  128 129 38  40 41 42  40 41 43  40 76 41  40 42 43  40 141 42  231 40 42  40 76 43  197 40 43  231 40 43  197 40 76  231 40 141  231 197 40  41 42 43  41 65 42  41 65 43  76 41 43  77 41 43  77 41 65  76 77 41  65 42 43  231 42 43  133 65 42  231 65 42  133 141 42  231 133 42  231 141 42  77 65 43  78 65 43  231 65 43  76 77 43  76 78 43  197 76 43  77 78 43  197 78 43  231 78 43  231 197 43  44 45 46  44 45 47  44 48 45  44 46 47  44 46 244  44 48 47  44 175 47  44 244 47  44 48 175  225 44 48  225 44 175  44 256 175  225 44 256  45 46 47  45 46 248  48 45 47  49 45 47  50 45 47  45 51 47  45 248 47  48 49 45  49 45 51  49 45 126  50 45 51  50 45 201  50 45 248  45 126 51  45 201 51  45 201 126  46 104 47  46 244 47  46 248 47  46 104 244  46 104 248  48 49 47  48 175 47  49 51 47  161 49 47  50 51 47  161 50 47  50 248 47  161 51 47  161 104 47  104 244 47  104 248 47  161 248 47  225 48 175  48 238 175  48 242 175  225 48 242  48 238 242  49 75 51  49 126 51  161 49 51  49 250 51  49 75 250  49 126 250  108 50 51  161 50 51  50 200 51  50 201 51  161 108 50  108 50 200  161 50 248  50 200 201  59 60 51  200 59 51  60 126 51  200 60 51  60 201 51  60 250 51  108 75 51  112 75 51  75 250 51  108 112 51  161 108 51  108 200 51  201 126 51  126 250 51  200 201 51  58 52 53  127 52 53  153 52 53  58 153 52  66 128 52  127 128 52  127 153 52  128 153 52  57 58 53  227 57 53  58 153 53  227 58 53  127 153 53  127 227 53  227 153 53  54 55 56  101 54 55  54 55 160  54 55 237  54 56 160  54 56 204  54 233 56  101 54 237  54 233 148  54 160 204  54 237 160  54 233 204  55 56 109  55 56 160  101 102 55  101 55 103  101 55 237  102 55 103  102 55 130  55 103 130  55 159 103  55 103 189  55 237 103  55 159 109  55 160 109  55 109 189  55 189 130  55 159 160  55 159 189  55 237 159  55 237 160  56 95 96  56 109 95  56 171 95  56 109 96  56 135 96  56 160 96  56 171 96  56 96 204  56 160 109  56 171 135  56 135 204  56 216 135  233 56 135  56 160 204  56 216 171  233 56 204  233 56 216  57 58 214  57 217 58  227 57 58  57 58 240  57 121 211  57 121 217  57 121 240  57 214 211  227 57 211  57 211 240  227 57 214  57 214 240  57 217 240  58 153 214  227 58 153  227 58 214  58 214 240  217 58 240  72 59 60  200 59 60  72 60 250  60 201 126  60 126 250  200 60 201  61 62 63  61 62 64  61 62 123  61 63 64  69 61 63  61 63 71  61 89 63  61 123 63  61 71 64  69 61 71  69 61 89  69 152 61  152 61 71  61 123 89  62 63 64  62 123 63  62 63 124  62 64 124  62 181 64  62 123 120  62 124 120  62 181 120  62 123 124  62 181 124  63 71 64  63 64 124  69 70 63  69 63 71  69 89 63  70 63 71  70 89 63  70 136 63  123 63 85  63 85 124  136 63 85  123 89 63  136 89 63  123 63 124  136 123 63  213 71 64  181 64 124  77 78 65  77 88 65  88 78 65  132 78 65  224 78 65  231 78 65  87 88 65  87 89 65  87 134 65  87 192 65  87 193 65  88 89 65  88 224 65  134 89 65  89 224 65  132 133 65  132 134 65  132 224 65  231 132 65  133 134 65  193 133 65  231 133 65  193 134 65  134 224 65  192 193 65  66 67 68  66 129 67  66 165 67  66 68 97  66 68 208  66 97 208  66 128 129  66 165 128  66 165 129  165 129 67  68 97 208  220 68 130  221 68 130  220 68 208  221 68 208  220 221 68  69 70 71  69 70 89  69 70 151  69 70 235  69 71 151  69 152 71  69 89 224  69 235 89  69 152 151  182 69 151  69 224 151  69 235 151  69 236 151  182 69 152  182 69 236  69 235 224  69 236 224  70 150 71  70 71 151  88 70 89  88 70 136  88 70 235  70 136 89  70 235 89  70 150 151  70 235 150  70 235 151  149 150 71  149 71 151  149 232 71  150 71 151  152 71 151  71 151 186  232 71 151  152 71 186  213 71 186  232 71 186  232 213 71  72 112 131  72 112 216  72 156 122  72 216 122  72 131 250  226 72 156  226 72 252  73 74 75  73 112 74  73 74 135  108 73 75  73 112 75  108 73 112  161 108 73  112 74 75  112 216 74  74 171 135  216 74 135  216 74 171  108 112 75  112 75 131  75 131 250  76 77 78  198 76 77  197 76 78  198 76 78  197 198 76  77 88 78  198 77 78  77 235 78  77 88 235  198 77 235  88 224 78  88 235 78  197 132 78  132 224 78  231 132 78  132 247 78  198 78 151  224 78 151  235 78 151  236 78 151  197 198 78  231 197 78  197 247 78  198 235 78  198 236 78  198 247 78  235 224 78  236 224 78  224 247 78  236 247 78  79 80 81  79 80 82  228 79 80  79 81 82  79 255 81  228 79 82  79 255 82  80 81 82  80 81 207  80 207 82  209 80 82  228 80 82  209 80 207  209 228 80  81 82 119  81 207 82  210 81 82  255 81 82  81 207 119  210 81 119  255 210 81  92 82 119  170 92 82  209 92 82  210 92 82  255 92 82  207 82 119  209 82 119  210 82 119  209 170 82  228 170 82  255 170 82  209 207 82  209 228 82  255 210 82  83 84 85  83 84 86  83 107 84  83 84 123  83 85 86  83 123 85  83 136 85  105 83 86  83 107 86  83 136 86  87 83 89  105 87 83  106 87 83  87 83 134  87 83 136  87 193 83  83 123 89  83 134 89  83 136 89  105 106 83  105 83 107  105 83 136  106 83 107  106 193 83  193 83 107  83 136 123  193 83 134  84 85 86  84 85 100  84 85 120  84 123 85  84 86 100  107 84 86  84 98 99  84 98 100  107 84 98  84 99 100  84 99 120  107 84 100  84 100 120  84 123 120  85 86 100  136 85 86  85 100 120  125 85 100  123 85 120  85 124 120  125 85 120  123 85 124  136 123 85  125 85 124  107 86 100  167 86 100  105 107 86  105 136 86  105 167 86  167 107 86  87 88 89  87 88 136  87 134 89  87 136 89  105 106 87  105 87 136  106 87 192  106 87 193  87 193 134  87 192 193  88 136 89  88 89 224  88 235 89  88 235 224  136 123 89  134 89 224  235 89 224  90 91 92  169 90 91  90 91 170  90 133 92  90 170 92  168 90 107  169 90 107  90 193 107  90 107 199  90 193 133  168 169 90  168 90 193  169 90 170  169 90 199  90 170 199  91 92 119  91 170 92  209 91 92  209 91 119  169 91 170  169 209 91  209 91 170  133 92 119  209 92 119  210 92 119  133 210 92  209 170 92  255 170 92  255 210 92  93 94 95  93 94 96  93 157 94  93 95 96  93 109 95  93 95 110  93 157 95  93 109 96  93 96 241  93 109 110  93 109 111  93 109 241  93 110 111  93 157 110  162 93 110  162 93 111  93 111 241  162 93 157  94 95 96  157 94 95  158 94 95  171 94 95  135 94 96  171 94 96  171 135 94  157 158 94  171 158 94  109 95 96  171 95 96  109 95 110  157 95 110  158 95 110  157 158 95  171 158 95  160 109 96  109 96 241  171 135 96  135 96 204  160 96 204  160 96 241  98 99 100  98 99 117  190 98 99  107 98 100  167 98 100  190 98 100  191 98 100  167 107 98  169 107 98  107 98 199  190 98 117  191 98 117  98 117 223  167 169 98  167 191 98  169 191 98  169 98 199  190 191 98  191 98 199  191 98 223  98 223 199  99 100 120  125 99 100  190 99 100  99 117 118  190 99 117  99 118 120  190 99 118  206 99 118  125 99 120  206 99 120  190 125 99  125 206 99  190 206 99  167 107 100  125 100 120  190 125 100  167 191 100  190 191 100  101 102 103  101 237 103  102 103 130  220 102 103  220 102 130  103 189 130  220 103 130  229 103 130  159 103 189  229 159 103  237 159 103  229 103 189  220 229 103  161 104 248  105 106 107  105 106 167  105 167 107  106 167 107  106 168 107  106 193 107  106 168 167  106 192 168  106 168 193  106 192 193  168 167 107  167 169 107  168 169 107  168 193 107  169 107 199  109 110 111  109 110 189  159 109 111  109 189 111  109 111 241  159 160 109  159 109 189  159 109 241  160 109 241  162 110 111  110 189 111  157 158 110  162 157 110  188 159 111  159 189 111  159 111 241  188 189 111  113 156 114  113 226 156  243 113 226  176 156 114  176 114 196  115 116 117  115 116 118  115 142 116  165 115 116  166 115 116  115 178 116  115 117 118  166 115 117  115 142 118  127 115 129  127 115 178  165 115 129  115 129 178  115 142 178  165 166 115  165 115 178  116 117 118  166 116 117  190 116 117  142 116 118  190 116 118  206 116 118  142 178 116  206 142 116  165 166 116  165 178 116  165 116 205  190 166 116  166 116 205  190 116 205  190 206 116  190 117 118  190 166 117  166 191 117  166 117 223  190 191 117  191 117 223  206 118 120  206 142 118  190 206 118  133 210 119  209 207 119  123 124 120  125 124 120  181 124 120  125 181 120  125 206 120  206 181 120  121 177 122  121 177 211  121 177 230  121 211 230  121 211 240  121 217 212  121 212 230  121 217 230  121 217 240  121 230 240  176 156 122  176 177 122  125 181 124  125 206 181  190 125 206  127 128 129  127 128 143  127 128 153  127 128 178  127 129 178  127 153 143  127 178 143  127 227 143  127 227 153  165 128 129  128 129 178  128 153 143  128 178 143  165 128 178  165 129 178  221 189 130  229 189 130  220 221 130  220 229 130  221 229 130  132 133 134  231 132 133  132 134 224  231 197 132  197 132 247  132 224 247  193 133 134  231 133 141  216 171 135  233 135 204  233 216 135  137 138 139  137 138 140  179 137 138  137 138 180  137 138 219  137 139 140  137 219 139  179 137 140  222 137 140  179 137 180  179 222 137  137 219 180  138 139 140  138 219 139  179 138 140  138 223 140  154 138 195  154 138 239  166 179 138  166 138 223  179 138 180  179 138 195  179 138 223  138 180 195  138 219 180  138 180 239  138 239 195  138 219 239  179 222 140  179 223 140  222 199 140  223 199 140  222 223 140  142 178 143  153 214 143  227 153 143  213 143 187  214 143 187  227 143 187  214 213 143  227 214 143  144 145 146  144 145 147  144 173 145  144 146 147  144 146 234  172 144 147  144 173 147  144 234 147  245 144 147  172 144 173  245 172 144  245 144 234  145 146 147  145 174 146  173 145 147  145 174 147  174 146 147  146 147 175  146 218 147  146 234 147  174 146 175  242 174 146  146 218 175  242 146 175  146 234 218  242 146 218  163 164 147  163 203 147  163 234 147  163 254 147  172 164 147  173 164 147  202 164 147  254 164 147  172 173 147  172 202 147  245 172 147  174 147 175  218 147 175  245 202 147  202 254 147  218 203 147  234 203 147  234 218 147  245 234 147  254 234 147  245 254 147  149 150 151  149 198 150  184 149 151  149 198 151  149 232 151  149 253 151  184 149 198  184 149 253  149 253 232  198 150 151  235 150 151  198 235 150  182 152 151  152 183 151  152 151 186  182 183 151  182 184 151  182 236 151  183 184 151  183 151 186  183 253 151  184 198 151  184 236 151  184 253 151  232 151 186  253 151 186  198 235 151  198 236 151  235 224 151  236 224 151  253 232 151  182 152 183  152 183 185  152 183 186  152 185 186  227 153 214  154 155 195  154 239 195  155 205 195  237 159 160  159 160 241  188 159 189  229 188 159  229 159 189  163 254 164  163 234 203  163 254 234  172 173 164  172 202 164  172 249 164  246 173 164  249 173 164  202 254 164  249 246 164  165 166 205  166 191 179  166 179 205  166 179 223  190 166 191  190 166 205  166 191 205  166 191 223  168 167 169  167 169 191  192 168 193  169 170 199  169 209 170  169 228 170  169 191 199  169 191 222  169 222 199  169 228 199  169 209 228  228 170 199  209 228 170  172 249 173  245 172 202  249 246 173  238 174 175  242 174 175  238 242 174  242 218 175  256 218 175  225 242 175  225 256 175  238 242 175  242 256 175  176 194 177  176 177 196  194 177 215  194 177 230  177 196 211  177 211 215  177 211 230  177 215 230  179 180 195  191 179 205  191 179 222  191 179 223  179 205 195  179 222 223  180 239 195  219 180 239  182 183 184  182 184 236  183 184 253  183 185 186  183 253 185  183 253 186  184 198 236  185 186 187  232 185 186  253 185 186  185 196 187  253 232 185  213 186 187  232 213 186  253 232 186  196 211 187  227 196 187  214 211 187  227 211 187  214 213 187  227 214 187  221 188 189  229 188 189  221 229 188  221 251 188  229 251 188  221 229 189  190 191 205  191 222 199  191 223 199  191 222 223  194 215 230  227 196 211  197 198 247  198 236 247  222 223 199  245 202 254  234 218 203  220 221 208  220 251 208  221 251 208  214 211 215  227 214 211  214 211 240  211 215 230  211 215 240  211 230 240  217 212 230  214 215 240  215 230 240  217 230 240  242 256 218  220 221 229  220 221 251  220 229 251  221 229 251  236 224 247  225 242 256  243 226 252  245 254 234  </DataArray>
<DataArray  type="UInt32"  Name="offsets"  format="ascii">3 6 9 12 15 18 21 24 27 30 33 36 39 42 45 48 51 54 57 60 63 66 69 72 75 78 81 84 87 90 93 96 99 102 105 108 111 114 117 120 123 126 129 132 135 138 141 144 147 150 153 156 159 162 165 168 171 174 177 180 183 186 189 192 195 198 201 204 207 210 213 216 219 222 225 228 231 234 237 240 243 246 249 252 255 258 261 264 267 270 273 276 279 282 285 288 291 294 297 300 303 306 309 312 315 318 321 324 327 330 333 336 339 342 345 348 351 354 357 360 363 366 369 372 375 378 381 384 387 390 393 396 399 402 405 408 411 414 417 420 423 426 429 432 435 438 441 444 447 450 453 456 459 462 465 468 471 474 477 480 483 486 489 492 495 498 501 504 507 510 513 516 519 522 525 528 531 534 537 540 543 546 549 552 555 558 561 564 567 570 573 576 579 582 585 588 591 594 597 600 603 606 609 612 615 618 621 624 627 630 633 636 639 642 645 648 651 654 657 660 663 666 669 672 675 678 681 684 687 690 693 696 699 702 705 708 711 714 717 720 723 726 729 732 735 738 741 744 747 750 753 756 759 762 765 768 771 774 777 780 783 786 789 792 795 798 801 804 807 810 813 816 819 822 825 828 831 834 837 840 843 846 849 852 855 858 861 864 867 870 873 876 879 882 885 888 891 894 897 900 903 906 909 912 915 918 921 924 927 930 933 936 939 942 945 948 951 954 957 960 963 966 969 972 975 978 981 984 987 990 993 996 999 1002 1005 1008 1011 1014 1017 1020 1023 1026 1029 1032 1035 1038 1041 1044 1047 1050 1053 1056 1059 1062 1065 1068 1071 1074 1077 1080 1083 1086 1089 1092 1095 1098 1101 1104 1107 1110 1113 1116 1119 1122 1125 1128 1131 1134 1137 1140 1143 1146 1149 1152 1155 1158 1161 1164 1167 1170 1173 1176 1179 1182 1185 1188 1191 1194 1197 1200 1203 1206 1209 1212 1215 1218 1221 1224 1227 1230 1233 1236 1239 1242 1245 1248 1251 1254 1257 1260 1263 1266 1269 1272 1275 1278 1281 1284 1287 1290 1293 1296 1299 1302 1305 1308 1311 1314 1317 1320 1323 1326 1329 1332 1335 1338 1341 1344 1347 1350 1353 1356 1359 1362 1365 1368 1371 1374 1377 1380 1383 1386 1389 1392 1395 1398 1401 1404 1407 1410 1413 1416 1419 1422 1425 1428 1431 1434 1437 1440 1443 1446 1449 1452 1455 1458 1461 1464 1467 1470 1473 1476 1479 1482 1485 1488 1491 1494 1497 1500 1503 1506 1509 1512 1515 1518 1521 1524 1527 1530 1533 1536 1539 1542 1545 1548 1551 1554 1557 1560 1563 1566 1569 1572 1575 1578 1581 1584 1587 1590 1593 1596 1599 1602 1605 1608 1611 1614 1617 1620 1623 1626 1629 1632 1635 1638 1641 1644 1647 1650 1653 1656 1659 1662 1665 1668 1671 1674 1677 1680 1683 1686 1689 1692 1695 1698 1701 1704 1707 1710 1713 1716 1719 1722 1725 1728 1731 1734 1737 1740 1743 1746 1749 1752 1755 1758 1761 1764 1767 1770 1773 1776 1779 1782 1785 1788 1791 1794 1797 1800 1803 1806 1809 1812 1815 1818 1821 1824 1827 1830 1833 1836 1839 1842 1845 1848 1851 1854 1857 1860 1863 1866 1869 1872 1875 1878 1881 1884 1887 1890 1893 1896 1899 1902 1905 1908 1911 1914 1917 1920 1923 1926 1929 1932 1935 1938 1941 1944 1947 1950 1953 1956 1959 1962 1965 1968 1971 1974 1977 1980 1983 1986 1989 1992 1995 1998 2001 2004 2007 2010 2013 2016 2019 2022 2025 2028 2031 2034 2037 2040 2043 2046 2049 2052 2055 2058 2061 2064 2067 2070 2073 2076 2079 2082 2085 2088 2091 2094 2097 2100 2103 2106 2109 2112 2115 2118 2121 2124 2127 2130 2133 2136 2139 2142 2145 2148 2151 2154 2157 2160 2163 2166 2169 2172 2175 2178 2181 2184 2187 2190 2193 2196 2199 2202 2205 2208 2211 2214 2217 2220 2223 2226 2229 2232 2235 2238 2241 2244 2247 2250 2253 2256 2259 2262 2265 2268 2271 2274 2277 2280 2283 2286 2289 2292 2295 2298 2301 2304 2307 2310 2313 2316 2319 2322 2325 2328 2331 2334 2337 2340 2343 2346 2349 2352 2355 2358 2361 2364 2367 2370 2373 2376 2379 2382 2385 2388 2391 2394 2397 2400 2403 2406 2409 2412 2415 2418 2421 2424 2427 2430 2433 2436 2439 2442 2445 2448 2451 2454 2457 2460 2463 2466 2469 2472 2475 2478 2481 2484 2487 2490 2493 2496 2499 2502 2505 2508 2511 2514 2517 2520 2523 2526 2529 2532 2535 2538 2541 2544 2547 2550 2553 2556 2559 2562 2565 2568 2571 2574 2577 2580 2583 2586 2589 2592 2595 2598 2601 2604 2607 2610 2613 2616 2619 2622 2625 2628 2631 2634 2637 2640 2643 2646 2649 2652 2655 2658 2661 2664 2667 2670 2673 2676 2679 2682 2685 2688 2691 2694 2697 2700 2703 2706 2709 2712 2715 2718 2721 2724 2727 2730 2733 2736 2739 2742 2745 2748 2751 2754 2757 2760 2763 2766 2769 2772 2775 2778 2781 2784 2787 2790 2793 2796 2799 2802 2805 2808 2811 2814 2817 2820 2823 2826 2829 2832 2835 2838 2841 2844 2847 2850 2853 2856 2859 2862 2865 2868 2871 2874 2877 2880 2883 2886 2889 2892 2895 2898 2901 2904 2907 2910 2913 2916 2919 2922 2925 2928 2931 2934 2937 2940 2943 2946 2949 2952 2955 2958 2961 2964 2967 2970 2973 2976 2979 2982 2985 2988 2991 2994 2997 3000 3003 3006 3009 3012 3015 3018 3021 3024 3027 3030 3033 3036 3039 3042 3045 3048 3051 3054 3057 3060 3063 3066 3069 3072 3075 3078 3081 3084 3087 3090 3093 3096 3099 3102 3105 3108 3111 3114 3117 3120 3123 3126 3129 3132 3135 3138 3141 3144 3147 3150 3153 3156 3159 3162 3165 3168 3171 3174 3177 3180 3183 3186 3189 3192 3195 3198 3201 3204 3207 3210 3213 3216 3219 3222 3225 3228 3231 3234 3237 3240 3243 3246 3249 3252 3255 3258 3261 3264 3267 3270 3273 3276 3279 3282 3285 3288 3291 3294 3297 3300 3303 3306 3309 3312 3315 3318 3321 3324 3327 3330 3333 3336 3339 3342 3345 3348 3351 3354 3357 3360 3363 3366 3369 3372 3375 3378 3381 3384 3387 3390 3393 3396 3399 3402 3405 3408 3411 3414 3417 3420 3423 3426 3429 3432 3435 3438 3441 3444 3447 3450 3453 3456 3459 3462 3465 3468 3471 3474 3477 3480 3483 3486 3489 3492 3495 3498 3501 3504 3507 3510 3513 3516 3519 3522 3525 3528 3531 3534 3537 3540 3543 3546 3549 3552 3555 3558 3561 3564 3567 3570 3573 3576 3579 3582 3585 3588 3591 3594 3597 3600 3603 3606 3609 3612 3615 3618 3621 3624 3627 3630 3633 3636 3639 3642 3645 3648 3651 3654 3657 3660 3663 3666 3669 3672 3675 3678 3681 3684 3687 3690 3693 3696 3699 3702 3705 3708 3711 3714 3717 3720 3723 3726 3729 3732 3735 3738 3741 3744 3747 3750 3753 3756 3759 3762 3765 3768 3771 3774 3777 3780 3783 3786 3789 3792 3795 3798 3801 3804 3807 3810 3813 3816 3819 3822 3825 3828 3831 3834 3837 3840 3843 3846 3849 3852 3855 3858 3861 3864 3867 3870 3873 3876 3879 3882 3885 3888 3891 3894 3897 3900 3903 3906 3909 3912 3915 3918 3921 3924 3927 3930 3933 3936 3939 3942 3945 3948 3951 3954 3957 3960 3963 3966 3969 3972 3975 3978 3981 3984 3987 3990 3993 3996 3999 4002 4005 4008 4011 4014 4017 4020 4023 4026 4029 4032 4035 4038 4041 4044 4047 4050 4053 4056 4059 4062 4065 4068 4071 4074 4077 4080 4083 4086 4089 4092 4095 4098 4101 4104 4107 4110 4113 4116 4119 4122 4125 4128 4131 4134 4137 4140 4143 4146 4149 4152 4155 4158 4161 4164 4167 4170 4173 4176 4179 4182 4185 4188 4191 4194 4197 4200 4203 4206 4209 4212 4215 4218 4221 4224 4227 4230 4233 4236 4239 4242 4245 4248 4251 4254 4257 4260 4263 4266 4269 4272 4275 4278 4281 4284 4287 4290 4293 4296 4299 4302 4305 4308 4311 4314 4317 4320 4323 4326 4329 4332 4335 4338 4341 4344 4347 4350 4353 4356 4359 4362 4365 4368 4371 4374 4377 4380 4383 4386 4389 4392 4395 4398 4401 4404 4407 4410 4413 4416 4419 4422 4425 4428 4431 4434 4437 4440 4443 4446 4449 4452 4455 4458 4461 4464 4467 4470 4473 4476 4479 4482 4485 4488 4491 4494 4497 4500 4503 4506 4509 4512 4515 4518 4521 4524 4527 4530 4533 4536 4539 4542 4545 4548 4551 4554 4557 4560 4563 4566 4569 4572 4575 4578 4581 4584 4587 4590 4593 4596 4599 4602 4605 4608 4611 4614 4617 4620 4623 4626 4629 4632 4635 4638 4641 4644 4647 4650 4653 4656 4659 4662 4665 4668 4671 4674 4677 4680 4683 4686 4689 4692 4695 4698 4701 4704 4707 4710 4713 4716 4719 4722 4725 4728 4731 4734 4737 4740 4743 4746 4749 4752 4755 4758 4761 4764 4767 4770 4773 4776 4779 4782 4785 4788 4791 4794 4797 4800 4803 4806 4809 4812 4815 4818 4821 4824 4827 4830 4833 4836 4839 4842 4845 4848 4851 4854 4857 4860 4863 4866 4869 4872 4875 4878 4881 4884 4887 4890 4893 4896 4899 4902 4905 4908 4911 </DataArray>
<DataArray  type="UInt8"  Name="types"  format="ascii">5 5 5 5 5 5 5 5 5 5 5 5 5 5 5 5 5 5 5 5 5 5 5 5 5 5 5 5 5 5 5 5 5 5 5 5 5 5 5 5 5 5 5 5 5 5 5 5 5 5 5 5 5 5 5 5 5 5 5 5 5 5 5 5 5 5 5 5 5 5 5 5 5 5 5 5 5 5 5 5 5 5 5 5 5 5 5 5 5 5 5 5 5 5 5 5 5 5 5 5 5 5 5 5 5 5 5 5 5 5 5 5 5 5 5 5 5 5 5 5 5 5 5 5 5 5 5 5 5 5 5 5 5 5 5 5 5 5 5 5 5 5 5 5 5 5 5 5 5 5 5 5 5 5 5 5 5 5 5 5 5 5 5 5 5 5 5 5 5 5 5 5 5 5 5 5 5 5 5 5 5 5 5 5 5 5 5 5 5 5 5 5 5 5 5 5 5 5 5 5 5 5 5 5 5 5 5 5 5 5 5 5 5 5 5 5 5 5 5 5 5 5 5 5 5 5 5 5 5 5 5 5 5 5 5 5 5 5 5 5 5 5 5 5 5 5 5 5 5 5 5 5 5 5 5 5 5 5 5 5 5 5 5 5 5 5 5 5 5 5 5 5 5 5 5 5 5 5 5 5 5 5 5 5 5 5 5 5 5 5 5 5 5 5 5 5 5 5 5 5 5 5 5 5 5 5 5 5 5 5 5 5 5 5 5 5 5 5 5 5 5 5 5 5 5 5 5 5 5 5 5 5 5 5 5 5 5 5 5 5 5 5 5 5 5 5 5 5 5 5 5 5 5 5 5 5 5 5 5 5 5 5 5 5 5 5 5 5 5 5 5 5 5 5 5 5 5 5 5 5 5 5 5 5 5 5 5 5 5 5 5 5 5 5 5 5 5 5 5 5 5 5 5 5 5 5 5 5 5 5 5 5 5 5 5 5 5 5 5 5 5 5 5 5 5 5 5 5 5 5 5 5 5 5 5 5 5 5 5 5 5 5 5 5 5 5 5 5 5 5 5 5 5 5 5 5 5 5 5 5 5 5 5 5 5 5 5 5 5 5 5 5 5 5 5 5 5 5 5 5 5 5 5 5 5 5 5 5 5 5 5 5 5 5 5 5 5 5 5 5 5 5 5 5 5 5 5 5 5 5 5 5 5 5 5 5 5 5 5 5 5 5 5 5 5 5 5 5 5 5 5 5 5 5 5 5 5 5 5 5 5 5 5 5 5 5 5 5 5 5 5 5 5 5 5 5 5 5 5 5 5 5 5 5 5 5 5 5 5 5 5 5 5 5 5 5 5 5 5 5 5 5 5 5 5 5 5 5 5 5 5 5 5 5 5 5 5 5 5 5 5 5 5 5 5 5 5 5 5 5 5 5 5 5 5 5 5 5 5 5 5 5 5 5 5 5 5 5 5 5 5 5 5 5 5 5 5 5 5 5 5 5 5 5 5 5 5 5 5 5 5 5 5 5 5 5 5 5 5 5 5 5 5 5 5 5 5 5 5 5 5 5 5 5 5 5 5 5 5 5 5 5 5 5 5 5 5 5 5 5 5 5 5 5 5 5 5 5 5 5 5 5 5 5 5 5 5 5 5 5 5 5 5 5 5 5 5 5 5 5 5 5 5 5 5 5 5 5 5 5 5 5 5 5 5 5 5 5 5 5 5 5 5 5 5 5 5 5 5 5 5 5 5 5 5 5 5 5 5 5 5 5 5 5 5 5 5 5 5 5 5 5 5 5 5 5 5 5 5 5 5 5 5 5 5 5 5 5 5 5 5 5 5 5 5 5 5 5 5 5 5 5 5 5 5 5 5 5 5 5 5 5 5 5 5 5 5 5 5 5 5 5 5 5 5 5 5 5 5 5 5 5 5 5 5 5 5 5 5 5 5 5 5 5 5 5 5 5 5 5 5 5 5 5 5 5 5 5 5 5 5 5 5 5 5 5 5 5 5 5 5 5 5 5 5 5 5 5 5 5 5 5 5 5 5 5 5 5 5 5 5 5 5 5 5 5 5 5 5 5 5 5 5 5 5 5 5 5 5 5 5 5 5 5 5 5 5 5 5 5 5 5 5 5 5 5 5 5 5 5 5 5 5 5 5 5 5 5 5 5 5 5 5 5 5 5 5 5 5 5 5 5 5 5 5 5 5 5 5 5 5 5 5 5 5 5 5 5 5 5 5 5 5 5 5 5 5 5 5 5 5 5 5 5 5 5 5 5 5 5 5 5 5 5 5 5 5 5 5 5 5 5 5 5 5 5 5 5 5 5 5 5 5 5 5 5 5 5 5 5 5 5 5 5 5 5 5 5 5 5 5 5 5 5 5 5 5 5 5 5 5 5 5 5 5 5 5 5 5 5 5 5 5 5 5 5 5 5 5 5 5 5 5 5 5 5 5 5 5 5 5 5 5 5 5 5 5 5 5 5 5 5 5 5 5 5 5 5 5 5 5 5 5 5 5 5 5 5 5 5 5 5 5 5 5 5 5 5 5 5 5 5 5 5 5 5 5 5 5 5 5 5 5 5 5 5 5 5 5 5 5 5 5 5 5 5 5 5 5 5 5 5 5 5 5 5 5 5 5 5 5 5 5 5 5 5 5 5 5 5 5 5 5 5 5 5 5 5 5 5 5 5 5 5 5 5 5 5 5 5 5 5 5 5 5 5 5 5 5 5 5 5 5 5 5 5 5 5 5 5 5 5 5 5 5 5 5 5 5 5 5 5 5 5 5 5 5 5 5 5 5 5 5 5 5 5 5 5 5 5 5 5 5 5 5 5 5 5 5 5 5 5 5 5 5 5 5 5 5 5 5 5 5 5 5 5 5 5 5 5 5 5 5 5 5 5 5 5 5 5 5 5 5 5 5 5 5 5 5 5 5 5 5 5 5 5 5 5 5 5 5 5 5 5 5 5 5 5 5 5 5 5 5 5 5 5 5 5 5 5 5 5 5 5 5 5 5 5 5 5 5 5 5 5 5 5 5 5 5 5 5 5 5 5 5 5 5 5 5 5 5 5 5 5 5 5 5 5 5 5 5 5 5 5 5 5 5 5 5 5 5 5 5 5 5 5 5 5 5 5 5 5 5 5 5 5 5 5 5 5 5 5 5 5 5 5 5 5 5 5 5 5 5 5 5 5 5 5 5 5 5 5 5 5 5 5 5 5 5 5 5 5 5 5 5 5 5 5 5 5 5 5 5 5 5 5 5 5 5 5 5 5 5 5 5 5 5 5 5 5 5 5 5 5 5 5 5 5 5 5 5 5 5 5 5 5 5 5 5 5 5 5 5 5 5 5 5 5 5 5 5 5 5 5 5 5 5 5 5 5 5 5 5 5 5 5 5 5 5 5 5 5 5 5 5 5 5 5 5 5 5 5 5 5 5 5 5 5 5 5 5 5 5 5 5 5 5 5 5 5 5 5 5 5 5 5 5 5 5 5 5 5 5 5 5 5 5 5 5 5 5 5 5 5 5 5 5 5 5 5 5 5 5 5 5 5 5 5 5 5 5 5 5 5 5 5 5 5 5 5 5 5 5 5 5 5 5 5 5 5 5 5 5 5 5 5 5 5 5 5 5 5 5 5 5 5 5 5 5 5 5 5 5 5 5 5 5 5 5 5 5 5 5 5 5 5 5 5 5 5 5 5 5 5 5 5 5 5 5 5 5 5 5 5 5 5 5 </DataArray>
</Cells>
<CellData  Scalars="f">
<DataArray  type="Float64"  Name="f"  format="ascii">0 0 0 0 0 0 0 0 0 0 0 0 0 0 0 0 0 0 0 0 0 0 0 0 0 0 0 0 0 0 0 0 0 0 0 0 0 0 0 0 0 0 0 0 0 0 0 0 0 0 0 0 0 0 0 0 0 0 0 0 0 0 0 0 0 0 0 0 0 0 0 0 0 0 0 0 0 0 0 0 0 0 0 0 0 0 0 0 0 0 0 0 0 0 0 0 0 0 0 0 0 0 0 0 0 0 0 0 0 0 0 0 0 0 0 0 0 0 0 0 0 0 0 0 0 0 0 0 0 0 0 0 0 0 0 0 0 0 0 0 0 0 0 0 0 0 0 0 0 0 0 0 0 0 0 0 0 0 0 0 0 0 0 0 0 0 0 0 0 0 0 0 0 0 0 0 0 0 0 0 0 0 0 0 0 0 0 0 0 0 0 0 0 0 0 0 0 0 0 0 0 0 0 0 0 0 0 0 0 0 0 0 0 0 0 0 0 0 0 0 0 0 0 0 0 0 0 0 0 0 0 0 0 0 0 0 0 0 0 0 0 0 0 0 0 0 0 0 0 0 0 0 0 0 0 0 0 0 0 0 0 0 0 0 0 0 0 0 0 0 0 0 0 0 0 0 0 0 0 0 0 0 0 0 0 0 0 0 0 0 0 0 0 0 0 0 0 0 0 0 0 0 0 0 0 0 0 0 0 0 0 0 0 0 0 0 0 0 0 0 0 0 0 0 0 0 0 0 0 0 0 0 0 0 0 0 0 0 0 0 0 0 0 0 0 0 0 0 0 0 0 0 0 0 0 0 0 0 0 0 0 0 0 0 0 0 0 0 0 0 0 0 0 0 0 0 0 0 0 0 0 0 0 0 0 0 0 0 0 0 0 0 0 0 0 0 0 0 0 0 0 0 0 0 0 0 0 0 0 0 0 0 0 0 0 0 0 0 0 0 0 0 0 0 0 0 0 0 0 0 0 0 0 0 0 0 0 0 0 0 0 0 0 0 0 0 0 0 0 0 0 0 0 0 0 0 0 0 0 0 0 0 0 0 0 0 0 0 0 0 0 0 0 0 0 0 0 0 0 0 0 0 0 0 0 0 0 0 0 0 0 0 0 0 0 0 0 0 0 0 0 0 0 0 0 0 0 0 0 0 0 0 0 0 0 0 0 0 0 0 0 0 0 0 0 0 0 0 0 0 0 0 0 0 0 0 0 0 0 0 0 0 0 0 0 0 0 0 0 0 0 0 0 0 0 0 0 0 0 0 0 0 0 0 0 0 0 0 0 0 0 0 0 0 0 0 0 0 0 0 0 0 0 0 0 0 0 0 0 0 0 0 0 0 0 0 0 0 0 0 0 0 0 0 0 0 0 0 0 0 0 0 0 0 0 0 0 0 0 0 0 0 0 0 0 0 0 0 0 0 0 0 0 0 0 0 0 0 0 0 0 0 0 0 0 0 0 0 0 0 0 0 0 0 0 0 0 0 0 0 0 0 0 0 0 0 0 0 0 0 0 0 0 0 0 0 0 0 0 0 0 0 0 0 0 0 0 0 0 0 0 0 0 0 0 0 0 0 0 0 0 0 0 0 0 0 0 0 0 0 0 0 0 0 0 0 0 0 0 0 0 0 0 0 0 0 0 0 0 0 0 0 0 0 0 0 0 0 0 0 0 0 0 0 0 0 0 0 0 0 0 0 0 0 0 0 0 0 0 0 0 0 0 0 0 0 0 0 0 0 0 0 0 0 0 0 0 0 0 0 0 0 0 0 0 0 0 0 0 0 0 0 0 0 0 0 0 0 0 0 0 0 0 0 0 0 0 0 0 0 0 0 0 0 0 0 0 0 0 0 0 0 0 0 0 0 0 0 0 0 0 0 0 0 0 0 0 0 0 0 0 0 0 0 0 0 0 0 0 0 0 0 0 0 0 0 0 0 0 0 0 0 0 0 0 0 0 0 0 0 0 0 0 0 0 0 0 0 0 0 0 0 0 0 0 0 0 0 0 0 0 0 0 0 0 0 0 0 0 0 0 0 0 0 0 0 0 0 0 0 0 0 0 0 0 0 0 0 0 0 0 0 0 0 0 0 0 0 0 0 0 0 0 0 0 0 0 0 0 0 0 0 0 0 0 0 0 0 0 0 0 0 0 0 0 0 0 0 0 0 0 0 0 0 0 0 0 0 0 0 0 0 0 0 0 0 0 0 0 0 0 0 0 0 0 0 0 0 0 0 0 0 0 0 0 0 0 0 0 0 0 0 0 0 0 0 0 0 0 0 0 0 0 0 0 0 0 0 0 0 0 0 0 0 0 0 0 0 0 0 0 0 0 0 0 0 0 0 0 0 0 0 0 0 0 0 0 0 0 0 0 0 0 0 0 0 0 0 0 0 0 0 0 0 0 0 0 0 0 0 0 0 0 0 0 0 0 0 0 0 0 0 0 0 0 0 0 0 0 0 0 0 0 0 0 0 0 0 0 0 0 0 0 0 0 0 0 0 0 0 0 0 0 0 0 0 0 0 0 0 0 0 0 0 0 0 0 0 0 0 0 0 0 0 0 0 0 0 0 0 0 0 0 0 0 0 0 0 0 0 0 0 0 0 0 0 0 0 0 0 0 0 0 0 0 0 0 0 0 0 0 0 0 0 0 0 0 0 0 0 0 0 0 0 0 0 0 0 0 0 0 0 0 0 0 0 0 0 0 0 0 0 0 0 0 0 0 0 0 0 0 0 0 0 0 0 0 0 0 0 0 0 0 0 0 0 0 0 0 0 0 0 0 0 0 0 0 0 0 0 0 0 0 0 0 0 0 0 0 0 0 0 0 0 0 0 0 0 0 0 0 0 0 0 0 0 0 0 0 0 0 0 0 0 0 0 0 0 0 0 0 0 0 0 0 0 0 0 0 0 0 0 0 0 0 0 0 0 0 0 0 0 0 0 0 0 0 0 0 0 0 0 0 0 0 0 0 0 0 0 0 0 0 0 0 0 0 0 0 0 0 0 0 0 0 0 0 0 0 0 0 0 0 0 0 0 0 0 0 0 0 0 0 0 0 0 0 0 0 0 0 0 0 0 0 0 0 0 0 0 0 0 0 0 0 0 0 0 0 0 0 0 0 0 0 0 0 0 0 0 0 0 0 0 0 0 0 0 0 0 0 0 0 0 0 0 0 0 0 0 0 0 0 0 0 0 0 0 0 0 0 0 0 0 0 0 0 0 0 0 0 0 0 0 0 0 0 0 0 0 0 0 0 0 0 0 0 0 0 0 0 0 0 0 0 0 0 0 0 0 0 0 0 0 0 0 0 0 0 0 0 0 0 0 0 0 0 0 0 0 0 0 0 0 0 0 0 0 0 0 0 0 0 0 0 0 0 0 0 0 0 0 0 0 0 0 0 0 0 0 0 0 0 0 0 0 0 0 0 0 0 0 0 0 0 0 0 0 0 0 0 0 0 0 0 0 0 0 0 0 0 0 0 0 0 0 0 0 0 0 0 0 0 0 0 0 0 0 0 0 0 0 0 0 0 0 0 0 0 0 0 0 0 0 0 0 0 0 0 0 0 0 0 0 0 0 0 0 0 0 0 0 0 0 0 0 0 0 0 0 0 0 0 0 0 0 0 0 0 0 0 0 0 0 0 0 0 0 0 0 0 0 0 0 0 0 0 0 0 0 0 0 0 0 0 0 0 </DataArray>
</CellData>
</Piece>
</UnstructuredGrid>
</VTKFile>