<?xml version="1.0"?>
<VTKFile type="UnstructuredGrid"  version="0.1"  >
<UnstructuredGrid>
<Piece  NumberOfPoints="273" NumberOfCells="1664">
<Points>
<DataArray  type="Float64"  NumberOfComponents="3"  format="ascii">17.77445955579797 -200.1084192117088 -93.41183509747447  18.16741443274012 -200.8675098655986 -95.04736720650641  17.14543102227705 -201.8249370317991 -93.57455449316083  20.01880077266422 -198.9624288309508 -92.56903845038484  29.35186607398954 -197.5284709630653 -94.94417400007453  27.33876785233137 -190.0805921070292 -97.33639624870062  23.25384330712326 -191.7290930389757 -97.29370267516128  25.17050095204474 -194.5944053570031 -101.730800774332  19.12423896789551 -194.1390533447266 -90.90467071533203  18.4754820587384 -198.8358404085571 -87.07878030368569  17.06120441565267 -198.4230551239644 -92.68256204548865  18.10654843434207 -197.0868600574584 -105.1478795836494  20.93794140111619 -195.4105743696373 -108.7410677724203  18.51506295872027 -195.7382367198933 -108.6768614873537  19.35347456025223 -194.1220449268084 -107.8673952063606  21.45991792477854 -195.497807933971 -105.0044041615058  16.5570059678903 -197.1279309593548 -106.0393345993321  17.89546119955288 -198.1000087027489 -109.6910719646491  10.16222461234516 -201.2509289760898 -105.7179765053598  12.08651797561193 -200.5118583501764 -106.0684517726703  12.35310343943853 -202.3030291335547 -105.3409570743016  10.58202698471305 -201.3477687280884 -108.6046094519665  19.31823768059813 -199.3499331227035 -99.04698735507432  19.58170133053052 -198.2128717998502 -97.6512135729017  19.03505523357914 -199.8501449704525 -97.68028743403873  21.19947254363598 -198.0944335328272 -97.85584144557058  16.92996489142327 -195.5782087155147 -105.7606198387206  15.06425206169715 -194.6945465063829 -106.5047596966866  17.24065817416995 -193.9832749741475 -108.3795484632114  15.93822647482757 -195.7891039232888 -108.9371990609807  16.40621604098517 -200.5102445070911 -92.09873903915306  27.78937925543471 -210.6933207323657 -112.4297103976932  26.80205595626077 -206.1191066609678 -120.1133247315672  25.32756290408031 -204.5670745067566 -118.6487080453486  23.9864338137345 -207.6508231920046 -119.7088137903065  19.23072653885106 -195.1376532524293 -98.28404288918055  18.47639823266678 -193.0257201988334 -99.06001763293739  19.30446172780734 -194.5215228906311 -100.6396195155209  21.26207590251526 -193.4822259811465 -100.9711268159208  14.13294740544705 -202.6363343250149 -104.6651526735129  11.15752181393252 -203.3109502257104 -108.6114152697866  13.03587061163525 -203.9619741236308 -104.0465714701162  14.43373833485562 -205.9880650396888 -105.8142396982754  20.83538657476198 -204.2824523714454 -97.82496594398106  18.49665202317431 -200.4309919482336 -100.6164658113706  21.89503557529303 -198.9692206797538 -102.2393793803102  12.38796527310961 -200.9923554565542 -109.0748928639519  14.20708557801775 -199.3511409854158 -109.2665252008707  13.70149198421929 -199.4393046997876 -106.3099906603014  11.93683946800784 -198.5549932491381 -106.5801188978922  32.57009896472779 -206.9377093893264 -111.7153636260446  33.46270795384745 -200.359687675408 -119.2092362766501  29.73593273981957 -199.8392000068176 -117.4240424275245  31.15045048629461 -202.9769134985299 -120.1800881184535  36.2658645036899 -202.8623538659913 -108.6767262838994  36.92488513279012 -201.3262810556682 -120.248264282485  15.55677076640265 -198.0683400360663 -109.2252140866263  19.7036479993731 -197.2318973006362 -109.8764817324644  23.92940308644882 -209.6171317886904 -108.2123550088747  27.31964390454666 -206.1830702630398 -109.4348008912159  23.10301240292975 -204.4689561955116 -104.3197234482306  19.31180642141914 -202.1320134195679 -113.9893771394251  25.75635451135003 -199.9089892777053 -103.62964209864  23.76707510778573 -194.3634190350244 -109.1743211654664  21.97984436624187 -196.651583432793 -110.6779364917971  20.77487388528521 -198.2497919677645 -106.5326878067349  19.02190948394015 -207.3754509796436 -100.2099676873696  12.54716540024148 -205.5061566187943 -102.4112988316276  12.544431027602 -209.5786118154277 -105.9911014542574  19.08050001313277 -204.525671721978 -115.7041583247981  17.18574907520804 -203.1242087014627 -112.9364725490436  11.83617085350898 -198.1267771704377 -109.1198839703165  10.39174329749952 -208.3025812705543 -86.1561583674336  8.156756784818183 -207.2722732391553 -89.22044808646444  9.44645920974131 -204.1716233380232 -88.62736278489378  10.7531010253573 -205.051372372781 -92.00963556013329  15.30040945590883 -201.9197415118821 -110.4419343531382  13.56329256725576 -201.2345209089701 -105.6938668326487  29.46641113066974 -201.3095960556685 -107.2702132879804  26.88839138312737 -196.0115456339359 -113.3563092336981  26.6053037851952 -194.1622164991666 -111.2280692193582  28.86592122545044 -194.4937312275548 -112.827373570904  14.87141072768909 -213.462478469003 -93.02663740429641  12.51389323952424 -204.7884241173108 -86.33559009201181  12.20865596499879 -206.0932777512345 -92.53232056636423  13.55250523423717 -205.5938641450294 -92.94925284613431  17.84402331696387 -208.1155876530731 -94.19417782921997  16.10052395969724 -211.4169069129958 -98.84159361747112  12.13821446017574 -207.2974680846141 -96.65650760998942  17.22212335554235 -209.185891871299 -79.89123332384261  20.64904500748285 -208.2262220013655 -89.31370489571097  23.65235208336783 -211.7227195535158 -84.87465239925083  23.93765899330609 -206.180519236812 -88.20981014355684  16.45802424949546 -203.9787958425451 -84.02630414721554  14.30369289686126 -201.3673582735494 -86.88564571388693  14.98949312917223 -202.3426821450362 -91.54358189663847  15.30831913581678 -204.2912247011735 -95.76835200901485  15.79837488259475 -203.558668738031 -97.66476914437763  18.38516509013808 -212.2136680221828 -88.94149917510229  21.8911294602868 -204.1888004244974 -92.69246136502952  16.26884706740609 -202.2405886512327 -92.46841491083399  29.62066381134829 -196.5636049619718 -114.9394602782767  27.44805313508018 -198.1494394091323 -115.3754593665086  27.63056533210018 -203.1405250382215 -118.7399407493575  29.784823108648 -205.7991978428798 -121.2843254614233  34.00217838510194 -204.388732827514 -121.8101955343556  31.88266282537264 -213.0793030936806 -114.1363510816586  36.64169651952576 -211.5515628124736 -112.8708523460972  24.51505420327099 -202.3649208332456 -117.082271665823  26.27306660162334 -200.2365785898205 -116.3861687659247  23.35823368682724 -199.9546315156663 -114.9532697613849  24.40001712509329 -191.7750276751385 -105.0409546840631  24.04045989563761 -191.2847212655173 -102.8304556838468  21.33524974281148 -193.814222668217 -103.3770102896619  24.26048637857931 -192.872849664573 -107.2259739905078  27.54827151656753 -191.1629551717511 -107.1404765503431  19.11404841094161 -199.1037238684823 -96.14763447982826  18.38241222862787 -198.9200866816243 -94.22433578080131  18.59551505731933 -197.0119787743512 -95.05027495744295  33.0160032868057 -197.0444862914125 -116.3052312207125  32.06009432534074 -194.3684211336102 -113.5753213611652  14.41839142772448 -205.2070077844784 -94.20206153480599  15.905206242109 -203.5302492222895 -93.56349011501763  25.14580000130116 -198.0846947603978 -114.2840564185534  20.30647780535543 -210.3543357455475 -103.7745019418724  17.16009741166501 -204.4800210034705 -106.5796513206441  13.17800267964737 -205.7431039492514 -100.2864545504406  11.54926877774516 -206.8689657018903 -101.123625435067  12.09909924449282 -207.0387967296475 -98.99987283776569  20.89013963051685 -200.3085396950527 -113.5860260099507  22.64853754750546 -198.1778224399509 -112.827274568455  26.46562679782711 -192.7279755020379 -109.0332026293584  26.85778534883765 -201.8400741298923 -90.08781170492981  24.67639624372172 -194.766847570695 -89.01224080646567  20.22876689400475 -198.531102568545 -111.3311547502172  18.62065777925665 -198.7380070370708 -104.2058262844472  17.22854147311963 -200.6825687059841 -104.0907715069301  18.23014156281907 -200.3967127312077 -111.5047400614436  25.39642215432098 -190.7188476920409 -100.6555447672238  26.84631874458901 -190.4097365327294 -103.8700720269176  29.1012611802654 -188.795518290043 -101.2113571498182  19.18593570144778 -196.5736851278454 -103.7218922982694  22.48001959379544 -204.6220629607378 -117.5795269409678  10.51950476303044 -206.9910235652039 -93.33194373177824  12.62040257134905 -206.8069430396051 -94.38820998006217  19.6787740332072 -198.4068252486945 -100.8367952396952  19.75625297987077 -196.4541772524983 -101.8878113216061  21.58534773354111 -196.0727136885527 -101.202410856881  6.541574645797191 -210.1143507082023 -90.09261664390618  8.25887809264378 -211.1281596712066 -86.56930997824044  18.42374246490015 -195.239443075533 -104.3625960456417  21.49835649225426 -193.8313857715664 -107.3701039356194  12.98118939801668 -204.3377522117829 -91.5541504619766  14.71187883884991 -204.3727726322018 -92.54489878017483  20.24264228873848 -192.114308928663 -94.0577022394654  18.57104540899508 -195.2286856699742 -96.21253751257989  17.81772707458251 -195.1114175346021 -94.86858940001615  21.24985081894152 -195.6456304605133 -95.13123995487933  8.573262324155674 -201.0918598195311 -108.1242572169389  10.21768629003149 -199.4634195446827 -106.2727926563329  8.364988532852349 -202.5731929519276 -104.8905898337385  8.035271961279042 -205.9503928320822 -106.744595856471  10.70558418960765 -203.4982777269574 -104.8271515137183  9.091401636324751 -203.6681462788524 -107.5481911650824  10.64096430956248 -205.9104453806881 -108.6878780658018  14.65109057201715 -204.7564680438474 -97.39654544944455  16.89081879586105 -202.6272062338951 -95.52688136471527  29.42439837014928 -197.1551478989987 -101.4430066412017  30.61180265889426 -189.1598847059397 -105.2824817236399  24.23690577800872 -196.1881369778146 -111.8842463089604  11.31319201595592 -204.9821511602039 -103.8755691833044  13.47193710423798 -205.8574832028266 -98.14388465501418  15.25979222729505 -196.4932738083759 -106.4837060398668  15.177062444631 -198.3021619975706 -106.3526362543741  15.83973563376892 -198.9679833622568 -91.68745447804221  21.67621587797422 -190.6009536165437 -100.8548556825316  21.96505087405555 -191.3707782309243 -103.7184394814088  18.61525678744922 -193.3229685357403 -102.1274741449038  17.50124158722875 -201.1525729367078 -102.3529629854055  18.68437982018514 -199.7588170437868 -102.5638279152455  18.21174549397392 -201.0494849666689 -96.84478176565642  10.68889776681769 -208.0440224468508 -95.01537758544421  8.390564160129822 -210.5267602439945 -94.4778241750807  18.23314437651646 -200.9174788597297 -98.72085479511168  17.13532262823428 -202.1659188258742 -98.12125509511419  16.5917684716059 -205.4948114630822 -114.3636902643436  17.2381375188303 -208.0819479950637 -116.3979796679475  16.4981948880134 -217.6925465352289 -88.6731976303204  10.60922285377884 -211.5594654193317 -83.59373982448747  8.836826546496766 -204.6641073494006 -103.9192975414114  24.37746400313145 -200.2446359467668 -97.39462746975018  19.57349238924035 -192.3950895518224 -106.8350426157925  17.57970321129801 -193.850175813311 -104.7309614903887  21.49677016685111 -202.2614527552775 -115.7045234227474  13.87430820942641 -205.708535953256 -96.12953206744916  34.44290984090353 -198.7197172954831 -105.3391001277213  29.49193319495392 -192.3335877285986 -110.6193428507396  18.15260006850002 -192.6711150188441 -107.6765547598081  16.40982857838425 -193.852625233522 -105.7351219289652  14.17235226172328 -214.4588612988055 -79.98589992381127  19.98020689665871 -216.1286846206704 -86.06810673352601  19.72494181324125 -222.1791844770726 -84.77337807727666  12.026697706783 -220.2215643902994 -80.40407403434578  13.39166534156446 -208.7034835214379 -82.99894636591702  17.28943345950503 -201.7556535368708 -100.2601361539099  15.84942037662999 -202.8880663275048 -101.5676755170445  16.08726593232215 -202.9719074593366 -99.81410658432384  19.15366835258263 -194.998650133331 -102.7367823663672  22.47664941963579 -217.466351754548 -83.32010737934314  24.85158042093729 -192.7851196387935 -93.17993486461417  29.95124972804323 -189.6754334155693 -93.23424873045353  10.70833892086255 -200.8991541506418 -88.00128981753267  12.85390261544672 -201.7549851433191 -90.86414341048297  10.90040095961213 -203.1463890509718 -91.27728027234662  19.79448291247513 -197.4766826132494 -98.78974449504712  19.8426358031644 -196.43349156309 -100.1006505130559  21.84593852430002 -196.1976389700535 -99.09012231569672  13.82555123368801 -196.9348591252181 -109.1882492282934  13.67625936780176 -197.5749114264218 -106.6853079627167  16.83912491733049 -199.0716371222378 -105.6225685616756  10.01517091427718 -199.3050255947243 -108.8597827302995  19.41424215556562 -196.9702966173691 -97.01388093087195  14.17871799202535 -204.3502332803565 -101.8515896191282  14.73864085291979 -204.3394708133262 -99.52782640525362  21.61986048327232 -192.2720664006975 -105.6276712176213  14.55314672264509 -199.7611742711618 -91.07438018461266  15.62866864021035 -201.1211751939335 -105.1340918000874  16.28862278038335 -199.6534953939396 -109.8051736051692  20.5882686788224 -191.044936389824 -104.7789952129471  18.46546933819887 -194.0026441360106 -103.4789904912682  8.488587967161664 -200.7207156187631 -105.655084700311  19.43554710095802 -198.1394564745161 -102.8254794703054  9.283012755397703 -203.9102520192471 -92.03622252425427  6.304830569860892 -202.7778515075201 -107.0161577352109  6.941151792833442 -200.9641108463198 -105.2057476588586  8.637101132626247 -205.5170419332161 -93.20052287924926  8.747855860825927 -207.3996891349722 -94.66473276120325  6.125088262168343 -206.2002774623873 -91.73372109696825  17.24382828394875 -196.2835335989347 -93.49064357597319  20.45312008900544 -207.4880955158017 -118.0416936722786  5.466479898557894 -208.8070412186804 -93.15281257090787  4.025851798918739 -205.2989643567892 -93.65313111502707  7.122784127246545 -205.9274621978405 -94.80578112034982  8.649867044633838 -215.7480447800813 -83.57317744449941  8.41128936361871 -220.8841987826882 -83.33584829163269  13.42888217377971 -203.612412484937 -110.035999402559  12.51721939491521 -205.8176544002024 -110.3714941599797  5.61863829183399 -218.7019020200987 -86.03172540709059  5.792143568164629 -214.3572520780572 -87.60112173863871  15.98526741930439 -202.0506623570345 -103.6484181631995  18.08697202107132 -193.3097871196396 -97.13615686563602  15.64032856938465 -223.292737232997 -88.73999288178057  10.49967174860507 -226.3956426904544 -81.5706359640333  14.78288117372257 -203.2554139446327 -103.2776381887274  17.98423098545581 -197.6332557415478 -93.84009535140108  20.62244522755453 -190.5104059120902 -97.37594097671145  15.0720571033574 -199.9498767519315 -105.9589166385108  3.900694138838633 -202.8124149870687 -91.98011941767732  6.949601894183297 -203.4816897624336 -93.15241202083612  6.703094587184092 -203.3646485679903 -90.25224464611787  6.735171940656652 -202.9548047835123 -104.1533194359618  16.62344063604999 -192.1085061942841 -104.9027877121228  33.6818009024731 -191.9318282182988 -110.7627872307294  31.52021422213107 -190.481389700946 -108.4210201543605  35.22598440526943 -189.813457100361 -106.9016360633474  14.82964971172373 -204.872851806918 -112.0672651409344  27.32283526450602 -209.4020844300422 -122.1268192873323  36.94568063183503 -197.8710091683737 -117.6068404887644  15.41347242508797 -197.8176500353613 -91.57475774875758  19.20587425693516 -190.3690863225477 -105.5366366405753  20.2149052153054 -189.8996336549861 -103.4904505975433  17.86341022933846 -192.608663319367 -103.4062018760379  18.41122269875117 -192.5849300020492 -100.6082511112685  </DataArray>
</Points>
<Cells>
<DataArray  type="UInt32"  Name="connectivity"  format="ascii">0 1 2  0 1 3  0 117 1  0 2 3  30 0 2  0 10 3  30 0 3  0 117 3  30 0 10  0 117 10  1 2 3  99 1 2  166 1 2  99 1 3  116 1 3  117 1 3  99 43 1  43 116 1  43 166 1  43 1 180  99 116 1  99 166 1  116 117 1  116 1 180  166 1 180  30 2 3  99 2 3  99 30 2  30 100 2  99 100 2  99 122 2  99 166 2  122 100 2  166 122 2  4 132 3  4 133 3  4 157 3  4 190 3  8 9 3  8 10 3  8 133 3  8 157 3  8 238 3  9 10 3  9 30 3  9 99 3  9 132 3  9 133 3  30 10 3  117 10 3  238 10 3  10 254 3  99 30 3  99 116 3  99 132 3  99 190 3  116 117 3  116 118 3  116 157 3  190 116 3  117 118 3  117 254 3  118 157 3  238 118 3  118 254 3  132 133 3  132 190 3  133 157 3  190 157 3  238 157 3  238 254 3  4 5 6  4 5 7  167 4 5  209 4 5  210 4 5  4 6 7  4 6 157  4 190 6  209 4 6  167 4 7  4 190 7  4 132 133  4 132 190  4 133 157  209 4 133  210 4 133  4 190 157  209 4 157  167 4 190  209 210 4  5 6 7  5 6 138  209 5 6  5 138 7  5 140 7  167 5 7  5 138 140  167 5 140  209 210 5  6 38 7  6 138 7  190 6 7  6 7 216  35 6 36  35 6 38  35 6 157  35 6 216  35 6 250  6 36 38  175 6 36  6 250 36  255 6 36  6 138 38  175 6 38  6 38 216  175 6 138  154 6 157  209 154 6  154 6 250  154 255 6  190 6 157  209 6 157  6 157 216  6 250 157  175 255 6  190 6 216  255 6 250  45 15 7  62 15 7  111 15 7  15 113 7  114 15 7  15 7 147  112 38 7  113 38 7  138 38 7  38 7 147  38 7 216  62 45 7  45 7 147  190 45 7  45 7 216  62 114 7  167 62 7  190 62 7  111 112 7  111 113 7  114 111 7  115 111 7  139 111 7  112 113 7  138 112 7  139 112 7  113 7 147  114 115 7  167 114 7  139 115 7  167 115 7  138 139 7  138 140 7  139 140 7  167 139 7  167 140 7  7 147 216  167 190 7  190 7 216  8 9 10  8 9 133  8 238 10  8 133 157  8 209 133  8 154 156  8 154 157  8 209 154  8 156 157  8 156 238  8 209 157  8 238 157  9 30 10  9 10 174  9 268 10  9 30 95  9 99 30  9 30 100  9 30 174  9 225 30  9 90 92  93 9 90  9 90 95  9 90 99  9 90 100  93 9 92  9 99 92  9 132 92  93 9 94  93 9 95  9 94 95  9 94 225  9 95 100  9 225 95  9 99 100  9 99 132  9 132 133  9 225 174  9 268 174  9 268 225  30 10 174  117 10 254  268 10 174  238 10 254  11 12 13  11 12 14  11 12 15  11 12 57  11 12 65  11 13 14  16 11 13  11 13 17  26 11 13  11 57 13  11 14 15  26 11 14  11 14 150  11 15 65  11 141 15  11 150 15  16 11 17  26 16 11  16 11 219  11 57 17  11 17 65  11 135 17  11 17 219  26 11 150  11 57 65  11 135 65  11 141 65  11 135 141  11 135 219  11 141 150  12 13 14  12 57 13  12 14 15  151 12 14  63 12 15  12 15 65  151 12 15  64 12 57  12 57 65  63 64 12  63 12 65  151 63 12  64 12 65  26 13 14  13 14 28  16 13 17  26 16 13  16 13 29  13 17 29  57 13 17  26 13 28  26 13 29  13 28 29  14 150 15  151 14 15  191 14 15  26 14 28  26 14 150  26 14 192  26 14 197  14 28 197  191 14 150  14 192 150  191 151 14  191 14 192  191 14 197  14 197 192  62 45 15  45 15 65  141 45 15  146 45 15  45 15 147  62 63 15  62 15 65  62 114 15  63 15 65  114 63 15  151 63 15  141 15 65  111 15 113  114 111 15  224 111 15  146 15 113  15 113 147  150 15 113  207 15 113  224 15 113  151 114 15  224 114 15  141 146 15  141 150 15  141 207 15  146 15 147  207 146 15  191 150 15  207 150 15  224 150 15  191 151 15  151 224 15  191 224 15  16 17 29  16 17 56  16 17 173  16 17 219  26 16 29  26 16 172  16 29 56  16 172 29  16 172 56  16 56 173  16 172 173  16 219 173  17 29 56  17 56 173  227 17 56  57 17 65  57 17 134  17 134 65  135 17 65  137 17 65  137 17 134  135 137 17  135 17 219  137 17 219  137 227 17  17 219 173  227 17 173  227 17 219  18 19 20  18 19 21  18 19 159  18 20 21  18 20 40  162 18 20  18 40 21  158 18 21  18 21 159  158 18 40  162 18 40  18 40 163  158 18 159  158 18 163  158 18 230  18 159 230  160 162 18  160 18 163  160 18 230  162 18 163  18 163 230  19 20 21  77 19 20  46 19 21  49 19 21  77 19 21  19 21 159  46 48 19  46 49 19  46 77 19  48 49 19  77 48 19  49 19 159  20 40 21  77 20 21  39 20 40  39 20 41  39 77 20  20 40 41  77 20 40  162 20 40  162 20 41  46 40 21  77 40 21  158 40 21  46 49 21  46 77 21  220 46 21  49 21 159  220 49 21  158 21 159  158 220 21  220 21 159  22 23 24  22 23 25  214 22 23  22 24 25  43 22 24  22 183 24  190 22 24  22 45 25  22 145 25  190 22 25  214 22 25  43 44 22  43 22 45  43 22 183  190 43 22  44 22 45  44 22 145  44 22 183  22 145 45  190 22 45  214 22 145  23 24 25  23 24 116  23 116 25  214 23 25  221 23 25  221 23 116  221 214 23  24 116 25  190 24 25  43 24 116  43 24 180  43 183 24  190 43 24  24 116 180  190 24 116  183 24 180  145 45 25  190 45 25  45 25 216  116 157 25  190 116 25  221 116 25  214 145 25  145 25 216  190 157 25  157 25 216  221 157 25  190 25 216  214 25 216  221 214 25  221 25 216  26 27 28  26 27 29  26 172 27  26 27 198  26 28 29  26 28 197  26 28 198  26 172 29  26 192 150  26 197 192  26 192 198  26 197 198  27 28 29  27 28 198  172 27 29  28 197 198  172 29 56  217 29 56  172 217 29  30 95 100  225 30 95  99 30 100  225 30 174  31 32 33  31 32 34  31 50 32  31 32 103  106 31 32  31 266 32  31 33 34  31 59 33  31 33 103  31 142 33  31 142 34  31 34 239  31 266 34  31 59 50  31 50 103  106 31 50  31 58 59  31 58 142  31 58 239  31 59 103  31 59 142  106 31 266  31 142 239  32 33 34  32 33 103  266 32 34  50 32 103  50 32 104  106 50 32  32 103 104  106 32 104  266 32 104  106 266 32  142 33 34  59 33 103  59 33 108  59 142 33  33 103 108  142 33 108  142 34 239  35 36 37  35 36 38  35 250 36  35 37 38  35 37 215  35 37 216  35 38 216  155 35 157  155 221 35  155 35 250  35 157 216  221 35 157  35 250 157  35 214 215  35 214 216  221 35 214  35 215 216  221 35 216  36 37 38  36 37 272  175 36 38  36 272 38  175 255 36  175 36 272  255 250 36  37 146 38  37 38 147  177 37 38  37 207 38  37 38 216  37 272 38  37 146 147  37 207 146  37 146 215  37 215 147  37 147 216  177 37 207  177 37 272  37 215 216  112 113 38  138 112 38  175 112 38  176 112 38  146 113 38  113 38 147  176 113 38  177 113 38  207 113 38  175 138 38  146 38 147  207 146 38  38 147 216  175 176 38  175 177 38  175 272 38  176 177 38  177 207 38  177 272 38  39 40 41  39 40 42  39 77 40  39 40 245  39 41 42  253 39 41  39 125 42  39 245 42  253 39 42  76 39 77  76 39 125  76 39 226  76 39 245  39 226 77  39 77 245  39 226 125  39 245 125  39 249 125  253 39 125  39 249 226  253 39 249  40 41 42  162 40 41  164 40 41  164 40 42  40 245 42  246 40 42  46 77 40  46 40 245  77 40 245  158 40 163  162 40 163  164 162 40  164 40 163  164 246 40  246 40 245  67 41 42  164 41 42  170 41 42  222 41 42  253 41 42  67 170 41  67 222 41  164 162 41  162 170 41  164 170 41  253 222 41  66 67 42  66 68 42  124 66 42  66 125 42  66 222 42  66 253 42  67 68 42  67 170 42  67 222 42  124 68 42  164 68 42  170 68 42  246 68 42  265 68 42  124 125 42  124 265 42  245 125 42  253 125 42  265 125 42  164 170 42  164 246 42  253 222 42  246 245 42  265 245 42  265 246 42  43 44 45  60 43 44  43 44 178  43 44 183  43 44 204  60 43 45  190 43 45  60 66 43  60 43 178  60 190 43  86 66 43  66 43 96  66 43 97  66 43 178  66 43 204  66 43 206  86 43 96  86 99 43  86 43 166  43 96 97  43 96 166  43 97 166  43 97 184  43 97 206  99 43 116  99 43 166  99 190 43  43 116 180  190 43 116  43 166 180  43 166 184  43 204 178  43 183 180  43 184 180  43 183 184  43 204 183  43 204 184  43 184 206  43 204 206  60 44 45  44 145 45  44 179 45  60 44 178  60 44 179  44 145 179  44 178 179  44 204 178  44 204 183  60 62 45  60 45 65  60 135 45  60 179 45  60 190 45  62 45 65  190 62 45  135 45 65  141 45 65  135 141 45  135 179 45  135 231 45  141 146 45  141 231 45  145 146 45  145 45 147  145 179 45  145 45 216  231 145 45  146 45 147  231 146 45  45 147 216  231 179 45  190 45 216  46 47 48  46 47 49  46 71 47  46 76 47  46 47 77  46 48 49  46 77 48  46 71 49  220 46 49  220 46 71  46 76 77  46 76 245  46 77 245  47 48 49  47 77 48  47 48 173  47 48 218  47 256 48  71 47 49  47 49 218  47 56 173  47 217 56  47 56 218  47 227 56  71 47 217  71 47 218  76 47 77  76 47 227  47 227 77  47 256 77  47 173 218  47 227 173  47 256 173  47 217 218  47 227 256  48 49 218  256 77 48  48 173 218  256 48 173  71 49 218  220 71 49  220 49 159  50 51 52  50 51 53  54 50 51  50 55 51  50 105 51  50 52 53  54 50 52  59 50 52  78 50 52  50 103 52  50 103 53  50 53 104  50 105 53  54 50 55  78 54 50  50 55 105  59 78 50  59 50 103  50 103 104  50 105 104  106 50 104  106 50 105  107 50 105  106 107 50  51 52 53  54 51 52  51 52 119  105 51 53  54 55 51  54 51 119  54 51 267  55 105 51  55 51 267  51 267 119  103 52 53  78 54 52  54 52 119  59 78 52  59 103 52  59 52 109  78 101 52  78 52 102  78 52 109  78 52 119  101 52 102  101 52 119  52 109 102  103 52 109  103 53 104  105 53 104  54 55 267  78 54 119  78 54 120  195 78 54  54 119 120  54 267 119  195 54 120  172 56 173  172 217 56  172 56 218  56 173 218  227 56 173  217 56 218  64 57 65  64 57 134  57 134 65  58 59 60  58 59 61  58 59 69  58 59 142  58 60 61  58 60 70  124 58 60  58 60 125  58 61 69  58 61 70  58 69 70  58 69 142  58 69 185  58 69 186  58 69 239  58 70 125  58 185 70  58 265 70  124 58 125  124 58 265  58 265 125  58 142 239  58 185 186  58 265 185  58 239 186  59 60 61  59 60 78  59 60 129  59 60 130  59 61 69  59 61 129  59 61 193  59 69 142  59 69 193  59 78 109  59 78 123  59 78 130  59 103 108  59 103 109  59 108 109  59 110 108  59 142 108  59 193 108  59 110 109  59 123 109  59 123 110  59 129 110  59 130 110  59 193 110  59 123 130  59 129 130  59 193 129  59 193 142  60 61 70  60 61 129  60 61 137  60 62 65  60 78 62  60 62 130  60 62 134  60 190 62  60 134 65  60 135 65  60 137 65  124 60 66  60 66 125  60 66 178  60 66 249  60 70 125  60 70 137  60 78 130  124 60 125  60 137 125  60 226 125  60 249 125  60 129 130  60 129 134  60 129 137  60 130 134  60 137 134  60 135 136  60 135 137  60 135 179  60 136 137  60 178 136  60 136 179  60 226 136  60 249 136  60 226 137  60 178 179  60 249 178  60 249 226  61 69 70  61 69 193  61 70 137  61 129 137  61 193 129  62 63 64  62 63 65  78 62 63  62 114 63  62 63 131  62 169 63  62 64 65  62 130 64  62 64 134  62 169 64  62 134 65  78 62 130  78 62 131  78 167 62  78 62 169  62 114 131  167 62 114  62 130 134  62 130 169  167 62 131  167 190 62  63 64 65  169 63 64  78 63 80  78 63 131  78 169 63  63 131 80  169 63 80  114 63 131  151 114 63  64 134 65  130 64 134  130 169 64  137 134 65  135 137 65  135 141 65  66 67 68  87 66 67  66 126 67  66 67 222  87 66 68  124 66 68  86 87 66  86 66 96  86 66 165  124 87 66  87 66 126  87 66 165  87 66 171  66 96 97  66 96 165  66 97 165  66 97 206  66 97 223  124 66 125  66 249 125  66 253 125  66 126 171  66 126 222  66 126 223  66 171 165  66 223 165  66 223 171  66 204 178  66 178 205  66 249 178  66 204 205  66 204 206  66 205 206  66 205 222  66 205 223  66 249 205  66 253 205  66 223 206  66 222 223  66 253 222  66 253 249  87 67 68  67 127 68  67 170 68  87 126 67  87 67 127  126 67 127  126 67 222  124 87 68  87 127 68  124 265 68  164 161 68  161 170 68  164 170 68  164 246 68  265 246 68  69 185 70  69 193 142  69 142 239  69 185 186  69 239 186  70 76 125  70 76 137  265 70 76  70 137 125  265 70 125  265 185 70  71 217 218  72 73 74  72 73 75  72 73 84  149 72 73  72 74 75  72 74 83  72 83 75  72 75 84  82 72 83  82 72 84  82 98 72  82 149 72  72 83 84  98 72 83  203 72 83  149 72 84  98 149 72  98 188 72  98 203 72  188 149 72  188 203 72  73 74 75  73 74 232  73 74 259  73 75 84  73 143 75  73 232 75  73 235 75  73 143 84  149 73 84  148 73 143  149 73 143  73 235 143  73 143 237  148 149 73  148 73 237  73 235 232  73 237 232  73 259 232  73 235 237  73 237 259  74 83 75  74 213 75  74 232 75  211 74 83  74 83 213  211 74 213  74 213 232  74 259 232  83 75 84  83 75 152  83 213 75  143 75 84  75 152 84  235 143 75  213 75 152  213 232 75  235 232 75  76 226 77  76 227 77  76 77 245  76 137 125  76 226 125  76 245 125  265 76 125  76 226 137  76 137 227  76 226 227  265 76 245  226 227 77  226 256 77  227 256 77  78 79 80  78 79 81  78 101 79  78 102 79  78 123 79  78 79 169  78 80 81  78 131 80  78 169 80  78 196 80  78 101 81  78 120 81  78 196 81  78 101 102  78 101 119  78 101 120  78 109 102  78 123 102  78 123 109  78 119 120  195 78 120  78 120 196  78 123 130  78 123 169  78 130 169  78 167 131  195 78 131  78 196 131  195 78 167  195 78 196  79 80 81  79 169 80  101 79 81  101 102 79  123 102 79  123 79 169  196 80 81  196 131 80  101 120 81  120 196 81  82 83 84  82 83 85  82 98 83  82 84 85  82 143 84  82 84 144  82 149 84  82 86 85  82 98 85  82 144 85  82 86 87  82 86 88  82 86 98  82 86 144  82 87 88  82 88 144  82 88 181  82 98 149  82 187 98  82 143 144  82 148 143  82 149 143  82 143 181  82 143 182  82 181 144  82 148 149  82 148 182  82 148 248  82 187 149  82 149 248  82 181 182  82 187 248  83 84 85  83 152 84  90 83 85  98 83 85  83 152 85  83 153 85  93 90 83  90 83 95  98 90 83  90 83 153  90 203 83  93 94 83  93 83 95  93 203 83  94 83 95  211 94 83  94 83 212  83 95 152  83 95 153  83 212 95  98 203 83  83 152 153  83 212 152  83 213 152  211 83 212  211 83 213  83 212 213  84 144 85  152 84 85  143 84 144  149 143 84  86 90 85  86 98 85  86 121 85  86 144 85  86 153 85  98 90 85  90 153 85  121 144 85  121 153 85  152 153 85  86 87 88  86 87 165  86 87 194  86 88 144  86 88 194  86 98 90  86 90 99  86 90 122  86 90 153  86 96 121  86 96 122  86 96 165  86 96 166  86 96 194  86 99 122  86 99 166  86 121 122  86 121 144  86 121 153  86 194 121  86 153 122  86 166 122  86 194 144  86 194 165  87 88 128  87 88 171  87 88 194  87 126 127  87 126 128  87 126 171  87 127 128  87 128 171  87 171 165  87 194 165  87 171 194  88 128 171  88 181 144  88 194 144  88 171 194  89 90 91  89 90 92  89 93 90  89 98 90  89 90 203  89 91 92  89 98 91  89 200 91  89 91 208  89 93 92  89 93 203  199 89 98  89 98 200  89 98 203  199 89 200  199 89 203  199 89 208  89 200 208  90 91 92  98 90 91  93 90 92  90 99 92  93 90 95  93 90 203  90 95 100  90 95 122  90 95 153  98 90 203  90 99 100  90 99 122  90 122 100  90 153 122  98 200 91  200 91 208  99 132 92  93 94 95  94 212 95  94 225 95  211 94 212  94 212 225  95 122 100  95 153 122  95 152 153  212 95 152  212 225 95  96 97 165  96 97 166  96 121 122  96 194 121  96 166 122  96 194 165  97 223 165  97 166 184  97 184 206  97 223 206  187 98 149  98 188 149  187 98 188  199 187 98  187 98 200  199 98 188  98 188 203  199 98 200  199 98 203  99 122 100  99 190 116  99 166 122  99 132 190  101 119 120  123 109 102  103 108 109  106 105 104  106 266 104  106 107 105  110 108 109  193 110 108  193 142 108  123 110 109  123 130 110  129 130 110  193 129 110  111 112 113  139 111 112  111 176 112  111 176 113  224 111 113  114 115 111  224 114 111  139 115 111  224 111 176  176 112 113  138 139 112  175 138 112  175 176 112  146 113 147  207 146 113  207 150 113  224 150 113  229 150 113  176 177 113  224 176 113  228 176 113  177 207 113  228 177 113  177 229 113  229 207 113  224 228 113  224 229 113  228 229 113  114 115 131  167 114 115  167 114 131  151 224 114  167 115 131  195 115 131  196 115 131  167 139 115  168 139 115  167 168 115  195 167 115  167 263 115  263 168 115  195 196 115  195 263 115  196 263 115  116 117 118  116 118 157  221 116 118  190 116 157  221 116 157  117 118 254  155 156 118  155 118 157  155 221 118  156 118 157  156 238 118  221 118 157  238 118 157  238 118 254  195 120 196  195 120 262  120 262 196  121 153 122  194 121 144  123 130 169  124 265 125  226 137 125  249 226 125  265 245 125  253 249 125  126 127 128  126 128 171  126 223 171  126 222 223  129 130 134  129 137 134  195 167 131  195 196 131  209 133 157  209 210 133  135 136 137  135 136 179  135 136 219  135 137 219  135 141 231  135 231 179  136 137 219  226 136 137  178 136 179  249 178 136  226 136 219  249 226 136  226 137 219  137 227 219  226 137 227  138 139 140  167 139 140  168 139 140  167 168 139  167 168 140  141 207 146  141 231 146  141 207 150  143 181 144  148 149 143  148 143 182  148 236 143  148 143 237  143 181 182  236 143 181  236 143 182  235 236 143  235 143 237  236 143 237  145 146 147  145 146 215  231 145 146  145 215 147  145 147 216  231 145 179  214 145 215  214 145 216  145 215 216  146 215 147  215 147 216  148 149 248  148 236 182  240 148 182  148 236 237  240 148 236  240 148 237  187 188 149  187 243 149  187 149 248  243 188 149  243 149 248  191 192 150  191 224 150  191 229 150  229 192 150  229 207 150  224 229 150  191 151 224  212 213 152  154 155 156  154 155 157  154 155 250  154 156 157  209 154 157  154 250 157  154 255 250  155 156 157  155 221 157  155 250 157  156 238 157  190 157 216  221 157 216  158 220 159  158 159 230  158 163 230  158 233 163  158 233 230  160 161 162  160 161 163  160 161 189  233 160 161  160 260 161  160 162 163  160 162 189  160 163 230  233 160 163  160 260 189  233 160 230  160 234 230  233 160 234  233 160 260  160 260 234  161 162 163  164 161 162  161 162 170  161 162 189  164 161 163  233 161 163  164 161 170  161 189 170  260 161 189  233 260 161  164 162 163  164 162 170  162 189 170  233 163 230  171 194 165  223 171 165  166 184 180  167 263 168  167 264 168  195 167 263  195 167 264  167 263 264  263 264 168  172 173 218  172 217 218  227 219 173  256 219 173  227 256 173  268 225 174  175 176 177  175 270 176  175 270 177  175 177 272  228 176 177  270 176 177  224 228 176  270 228 176  177 229 207  228 177 229  270 228 177  228 177 271  177 271 229  270 177 271  204 178 205  249 178 205  183 184 180  236 181 182  240 236 182  204 183 184  204 184 206  199 187 188  187 243 188  199 187 200  202 199 187  199 187 243  201 187 200  202 187 200  201 202 187  201 251 187  202 187 243  202 187 244  251 202 187  187 243 244  187 243 247  187 243 248  187 244 247  251 187 244  187 247 248  199 188 203  199 243 188  191 197 192  191 229 192  191 192 261  269 191 192  191 197 261  191 224 229  269 191 224  269 191 229  269 191 261  197 192 198  197 192 261  192 261 198  269 229 192  271 229 192  269 192 261  271 192 261  269 271 192  195 262 196  195 196 263  195 262 263  195 262 264  195 263 264  262 196 263  197 261 198  202 199 200  199 200 208  202 199 208  202 199 243  201 202 200  201 200 208  202 200 208  201 202 208  201 251 202  201 252 202  201 251 252  202 243 244  251 202 244  252 202 244  251 252 202  204 205 206  205 223 206  205 222 223  253 205 222  253 249 205  211 212 213  214 215 216  221 214 216  226 227 219  226 256 219  227 256 219  224 228 229  269 224 228  269 224 229  226 227 256  269 228 229  228 271 229  269 270 228  269 228 271  270 228 271  269 271 229  233 234 230  235 237 232  235 258 232  258 237 232  237 259 232  258 259 232  233 260 234  235 236 237  242 235 236  242 235 237  235 258 237  242 235 258  240 236 237  242 236 237  240 242 236  240 241 237  240 242 237  241 242 237  257 241 237  241 258 237  242 258 237  257 258 237  257 237 259  258 237 259  240 241 242  241 242 258  257 241 258  243 244 247  243 247 248  251 252 244  265 246 245  257 258 259  269 271 261  262 263 264  269 270 271  </DataArray>
<DataArray  type="UInt32"  Name="offsets"  format="ascii">3 6 9 12 15 18 21 24 27 30 33 36 39 42 45 48 51 54 57 60 63 66 69 72 75 78 81 84 87 90 93 96 99 102 105 108 111 114 117 120 123 126 129 132 135 138 141 144 147 150 153 156 159 162 165 168 171 174 177 180 183 186 189 192 195 198 201 204 207 210 213 216 219 222 225 228 231 234 237 240 243 246 249 252 255 258 261 264 267 270 273 276 279 282 285 288 291 294 297 300 303 306 309 312 315 318 321 324 327 330 333 336 339 342 345 348 351 354 357 360 363 366 369 372 375 378 381 384 387 390 393 396 399 402 405 408 411 414 417 420 423 426 429 432 435 438 441 444 447 450 453 456 459 462 465 468 471 474 477 480 483 486 489 492 495 498 501 504 507 510 513 516 519 522 525 528 531 534 537 540 543 546 549 552 555 558 561 564 567 570 573 576 579 582 585 588 591 594 597 600 603 606 609 612 615 618 621 624 627 630 633 636 639 642 645 648 651 654 657 660 663 666 669 672 675 678 681 684 687 690 693 696 699 702 705 708 711 714 717 720 723 726 729 732 735 738 741 744 747 750 753 756 759 762 765 768 771 774 777 780 783 786 789 792 795 798 801 804 807 810 813 816 819 822 825 828 831 834 837 840 843 846 849 852 855 858 861 864 867 870 873 876 879 882 885 888 891 894 897 900 903 906 909 912 915 918 921 924 927 930 933 936 939 942 945 948 951 954 957 960 963 966 969 972 975 978 981 984 987 990 993 996 999 1002 1005 1008 1011 1014 1017 1020 1023 1026 1029 1032 1035 1038 1041 1044 1047 1050 1053 1056 1059 1062 1065 1068 1071 1074 1077 1080 1083 1086 1089 1092 1095 1098 1101 1104 1107 1110 1113 1116 1119 1122 1125 1128 1131 1134 1137 1140 1143 1146 1149 1152 1155 1158 1161 1164 1167 1170 1173 1176 1179 1182 1185 1188 1191 1194 1197 1200 1203 1206 1209 1212 1215 1218 1221 1224 1227 1230 1233 1236 1239 1242 1245 1248 1251 1254 1257 1260 1263 1266 1269 1272 1275 1278 1281 1284 1287 1290 1293 1296 1299 1302 1305 1308 1311 1314 1317 1320 1323 1326 1329 1332 1335 1338 1341 1344 1347 1350 1353 1356 1359 1362 1365 1368 1371 1374 1377 1380 1383 1386 1389 1392 1395 1398 1401 1404 1407 1410 1413 1416 1419 1422 1425 1428 1431 1434 1437 1440 1443 1446 1449 1452 1455 1458 1461 1464 1467 1470 1473 1476 1479 1482 1485 1488 1491 1494 1497 1500 1503 1506 1509 1512 1515 1518 1521 1524 1527 1530 1533 1536 1539 1542 1545 1548 1551 1554 1557 1560 1563 1566 1569 1572 1575 1578 1581 1584 1587 1590 1593 1596 1599 1602 1605 1608 1611 1614 1617 1620 1623 1626 1629 1632 1635 1638 1641 1644 1647 1650 1653 1656 1659 1662 1665 1668 1671 1674 1677 1680 1683 1686 1689 1692 1695 1698 1701 1704 1707 1710 1713 1716 1719 1722 1725 1728 1731 1734 1737 1740 1743 1746 1749 1752 1755 1758 1761 1764 1767 1770 1773 1776 1779 1782 1785 1788 1791 1794 1797 1800 1803 1806 1809 1812 1815 1818 1821 1824 1827 1830 1833 1836 1839 1842 1845 1848 1851 1854 1857 1860 1863 1866 1869 1872 1875 1878 1881 1884 1887 1890 1893 1896 1899 1902 1905 1908 1911 1914 1917 1920 1923 1926 1929 1932 1935 1938 1941 1944 1947 1950 1953 1956 1959 1962 1965 1968 1971 1974 1977 1980 1983 1986 1989 1992 1995 1998 2001 2004 2007 2010 2013 2016 2019 2022 2025 2028 2031 2034 2037 2040 2043 2046 2049 2052 2055 2058 2061 2064 2067 2070 2073 2076 2079 2082 2085 2088 2091 2094 2097 2100 2103 2106 2109 2112 2115 2118 2121 2124 2127 2130 2133 2136 2139 2142 2145 2148 2151 2154 2157 2160 2163 2166 2169 2172 2175 2178 2181 2184 2187 2190 2193 2196 2199 2202 2205 2208 2211 2214 2217 2220 2223 2226 2229 2232 2235 2238 2241 2244 2247 2250 2253 2256 2259 2262 2265 2268 2271 2274 2277 2280 2283 2286 2289 2292 2295 2298 2301 2304 2307 2310 2313 2316 2319 2322 2325 2328 2331 2334 2337 2340 2343 2346 2349 2352 2355 2358 2361 2364 2367 2370 2373 2376 2379 2382 2385 2388 2391 2394 2397 2400 2403 2406 2409 2412 2415 2418 2421 2424 2427 2430 2433 2436 2439 2442 2445 2448 2451 2454 2457 2460 2463 2466 2469 2472 2475 2478 2481 2484 2487 2490 2493 2496 2499 2502 2505 2508 2511 2514 2517 2520 2523 2526 2529 2532 2535 2538 2541 2544 2547 2550 2553 2556 2559 2562 2565 2568 2571 2574 2577 2580 2583 2586 2589 2592 2595 2598 2601 2604 2607 2610 2613 2616 2619 2622 2625 2628 2631 2634 2637 2640 2643 2646 2649 2652 2655 2658 2661 2664 2667 2670 2673 2676 2679 2682 2685 2688 2691 2694 2697 2700 2703 2706 2709 2712 2715 2718 2721 2724 2727 2730 2733 2736 2739 2742 2745 2748 2751 2754 2757 2760 2763 2766 2769 2772 2775 2778 2781 2784 2787 2790 2793 2796 2799 2802 2805 2808 2811 2814 2817 2820 2823 2826 2829 2832 2835 2838 2841 2844 2847 2850 2853 2856 2859 2862 2865 2868 2871 2874 2877 2880 2883 2886 2889 2892 2895 2898 2901 2904 2907 2910 2913 2916 2919 2922 2925 2928 2931 2934 2937 2940 2943 2946 2949 2952 2955 2958 2961 2964 2967 2970 2973 2976 2979 2982 2985 2988 2991 2994 2997 3000 3003 3006 3009 3012 3015 3018 3021 3024 3027 3030 3033 3036 3039 3042 3045 3048 3051 3054 3057 3060 3063 3066 3069 3072 3075 3078 3081 3084 3087 3090 3093 3096 3099 3102 3105 3108 3111 3114 3117 3120 3123 3126 3129 3132 3135 3138 3141 3144 3147 3150 3153 3156 3159 3162 3165 3168 3171 3174 3177 3180 3183 3186 3189 3192 3195 3198 3201 3204 3207 3210 3213 3216 3219 3222 3225 3228 3231 3234 3237 3240 3243 3246 3249 3252 3255 3258 3261 3264 3267 3270 3273 3276 3279 3282 3285 3288 3291 3294 3297 3300 3303 3306 3309 3312 3315 3318 3321 3324 3327 3330 3333 3336 3339 3342 3345 3348 3351 3354 3357 3360 3363 3366 3369 3372 3375 3378 3381 3384 3387 3390 3393 3396 3399 3402 3405 3408 3411 3414 3417 3420 3423 3426 3429 3432 3435 3438 3441 3444 3447 3450 3453 3456 3459 3462 3465 3468 3471 3474 3477 3480 3483 3486 3489 3492 3495 3498 3501 3504 3507 3510 3513 3516 3519 3522 3525 3528 3531 3534 3537 3540 3543 3546 3549 3552 3555 3558 3561 3564 3567 3570 3573 3576 3579 3582 3585 3588 3591 3594 3597 3600 3603 3606 3609 3612 3615 3618 3621 3624 3627 3630 3633 3636 3639 3642 3645 3648 3651 3654 3657 3660 3663 3666 3669 3672 3675 3678 3681 3684 3687 3690 3693 3696 3699 3702 3705 3708 3711 3714 3717 3720 3723 3726 3729 3732 3735 3738 3741 3744 3747 3750 3753 3756 3759 3762 3765 3768 3771 3774 3777 3780 3783 3786 3789 3792 3795 3798 3801 3804 3807 3810 3813 3816 3819 3822 3825 3828 3831 3834 3837 3840 3843 3846 3849 3852 3855 3858 3861 3864 3867 3870 3873 3876 3879 3882 3885 3888 3891 3894 3897 3900 3903 3906 3909 3912 3915 3918 3921 3924 3927 3930 3933 3936 3939 3942 3945 3948 3951 3954 3957 3960 3963 3966 3969 3972 3975 3978 3981 3984 3987 3990 3993 3996 3999 4002 4005 4008 4011 4014 4017 4020 4023 4026 4029 4032 4035 4038 4041 4044 4047 4050 4053 4056 4059 4062 4065 4068 4071 4074 4077 4080 4083 4086 4089 4092 4095 4098 4101 4104 4107 4110 4113 4116 4119 4122 4125 4128 4131 4134 4137 4140 4143 4146 4149 4152 4155 4158 4161 4164 4167 4170 4173 4176 4179 4182 4185 4188 4191 4194 4197 4200 4203 4206 4209 4212 4215 4218 4221 4224 4227 4230 4233 4236 4239 4242 4245 4248 4251 4254 4257 4260 4263 4266 4269 4272 4275 4278 4281 4284 4287 4290 4293 4296 4299 4302 4305 4308 4311 4314 4317 4320 4323 4326 4329 4332 4335 4338 4341 4344 4347 4350 4353 4356 4359 4362 4365 4368 4371 4374 4377 4380 4383 4386 4389 4392 4395 4398 4401 4404 4407 4410 4413 4416 4419 4422 4425 4428 4431 4434 4437 4440 4443 4446 4449 4452 4455 4458 4461 4464 4467 4470 4473 4476 4479 4482 4485 4488 4491 4494 4497 4500 4503 4506 4509 4512 4515 4518 4521 4524 4527 4530 4533 4536 4539 4542 4545 4548 4551 4554 4557 4560 4563 4566 4569 4572 4575 4578 4581 4584 4587 4590 4593 4596 4599 4602 4605 4608 4611 4614 4617 4620 4623 4626 4629 4632 4635 4638 4641 4644 4647 4650 4653 4656 4659 4662 4665 4668 4671 4674 4677 4680 4683 4686 4689 4692 4695 4698 4701 4704 4707 4710 4713 4716 4719 4722 4725 4728 4731 4734 4737 4740 4743 4746 4749 4752 4755 4758 4761 4764 4767 4770 4773 4776 4779 4782 4785 4788 4791 4794 4797 4800 4803 4806 4809 4812 4815 4818 4821 4824 4827 4830 4833 4836 4839 4842 4845 4848 4851 4854 4857 4860 4863 4866 4869 4872 4875 4878 4881 4884 4887 4890 4893 4896 4899 4902 4905 4908 4911 4914 4917 4920 4923 4926 4929 4932 4935 4938 4941 4944 4947 4950 4953 4956 4959 4962 4965 4968 4971 4974 4977 4980 4983 4986 4989 4992 </DataArray>
<DataArray  type="UInt8"  Name="types"  format="ascii">5 5 5 5 5 5 5 5 5 5 5 5 5 5 5 5 5 5 5 5 5 5 5 5 5 5 5 5 5 5 5 5 5 5 5 5 5 5 5 5 5 5 5 5 5 5 5 5 5 5 5 5 5 5 5 5 5 5 5 5 5 5 5 5 5 5 5 5 5 5 5 5 5 5 5 5 5 5 5 5 5 5 5 5 5 5 5 5 5 5 5 5 5 5 5 5 5 5 5 5 5 5 5 5 5 5 5 5 5 5 5 5 5 5 5 5 5 5 5 5 5 5 5 5 5 5 5 5 5 5 5 5 5 5 5 5 5 5 5 5 5 5 5 5 5 5 5 5 5 5 5 5 5 5 5 5 5 5 5 5 5 5 5 5 5 5 5 5 5 5 5 5 5 5 5 5 5 5 5 5 5 5 5 5 5 5 5 5 5 5 5 5 5 5 5 5 5 5 5 5 5 5 5 5 5 5 5 5 5 5 5 5 5 5 5 5 5 5 5 5 5 5 5 5 5 5 5 5 5 5 5 5 5 5 5 5 5 5 5 5 5 5 5 5 5 5 5 5 5 5 5 5 5 5 5 5 5 5 5 5 5 5 5 5 5 5 5 5 5 5 5 5 5 5 5 5 5 5 5 5 5 5 5 5 5 5 5 5 5 5 5 5 5 5 5 5 5 5 5 5 5 5 5 5 5 5 5 5 5 5 5 5 5 5 5 5 5 5 5 5 5 5 5 5 5 5 5 5 5 5 5 5 5 5 5 5 5 5 5 5 5 5 5 5 5 5 5 5 5 5 5 5 5 5 5 5 5 5 5 5 5 5 5 5 5 5 5 5 5 5 5 5 5 5 5 5 5 5 5 5 5 5 5 5 5 5 5 5 5 5 5 5 5 5 5 5 5 5 5 5 5 5 5 5 5 5 5 5 5 5 5 5 5 5 5 5 5 5 5 5 5 5 5 5 5 5 5 5 5 5 5 5 5 5 5 5 5 5 5 5 5 5 5 5 5 5 5 5 5 5 5 5 5 5 5 5 5 5 5 5 5 5 5 5 5 5 5 5 5 5 5 5 5 5 5 5 5 5 5 5 5 5 5 5 5 5 5 5 5 5 5 5 5 5 5 5 5 5 5 5 5 5 5 5 5 5 5 5 5 5 5 5 5 5 5 5 5 5 5 5 5 5 5 5 5 5 5 5 5 5 5 5 5 5 5 5 5 5 5 5 5 5 5 5 5 5 5 5 5 5 5 5 5 5 5 5 5 5 5 5 5 5 5 5 5 5 5 5 5 5 5 5 5 5 5 5 5 5 5 5 5 5 5 5 5 5 5 5 5 5 5 5 5 5 5 5 5 5 5 5 5 5 5 5 5 5 5 5 5 5 5 5 5 5 5 5 5 5 5 5 5 5 5 5 5 5 5 5 5 5 5 5 5 5 5 5 5 5 5 5 5 5 5 5 5 5 5 5 5 5 5 5 5 5 5 5 5 5 5 5 5 5 5 5 5 5 5 5 5 5 5 5 5 5 5 5 5 5 5 5 5 5 5 5 5 5 5 5 5 5 5 5 5 5 5 5 5 5 5 5 5 5 5 5 5 5 5 5 5 5 5 5 5 5 5 5 5 5 5 5 5 5 5 5 5 5 5 5 5 5 5 5 5 5 5 5 5 5 5 5 5 5 5 5 5 5 5 5 5 5 5 5 5 5 5 5 5 5 5 5 5 5 5 5 5 5 5 5 5 5 5 5 5 5 5 5 5 5 5 5 5 5 5 5 5 5 5 5 5 5 5 5 5 5 5 5 5 5 5 5 5 5 5 5 5 5 5 5 5 5 5 5 5 5 5 5 5 5 5 5 5 5 5 5 5 5 5 5 5 5 5 5 5 5 5 5 5 5 5 5 5 5 5 5 5 5 5 5 5 5 5 5 5 5 5 5 5 5 5 5 5 5 5 5 5 5 5 5 5 5 5 5 5 5 5 5 5 5 5 5 5 5 5 5 5 5 5 5 5 5 5 5 5 5 5 5 5 5 5 5 5 5 5 5 5 5 5 5 5 5 5 5 5 5 5 5 5 5 5 5 5 5 5 5 5 5 5 5 5 5 5 5 5 5 5 5 5 5 5 5 5 5 5 5 5 5 5 5 5 5 5 5 5 5 5 5 5 5 5 5 5 5 5 5 5 5 5 5 5 5 5 5 5 5 5 5 5 5 5 5 5 5 5 5 5 5 5 5 5 5 5 5 5 5 5 5 5 5 5 5 5 5 5 5 5 5 5 5 5 5 5 5 5 5 5 5 5 5 5 5 5 5 5 5 5 5 5 5 5 5 5 5 5 5 5 5 5 5 5 5 5 5 5 5 5 5 5 5 5 5 5 5 5 5 5 5 5 5 5 5 5 5 5 5 5 5 5 5 5 5 5 5 5 5 5 5 5 5 5 5 5 5 5 5 5 5 5 5 5 5 5 5 5 5 5 5 5 5 5 5 5 5 5 5 5 5 5 5 5 5 5 5 5 5 5 5 5 5 5 5 5 5 5 5 5 5 5 5 5 5 5 5 5 5 5 5 5 5 5 5 5 5 5 5 5 5 5 5 5 5 5 5 5 5 5 5 5 5 5 5 5 5 5 5 5 5 5 5 5 5 5 5 5 5 5 5 5 5 5 5 5 5 5 5 5 5 5 5 5 5 5 5 5 5 5 5 5 5 5 5 5 5 5 5 5 5 5 5 5 5 5 5 5 5 5 5 5 5 5 5 5 5 5 5 5 5 5 5 5 5 5 5 5 5 5 5 5 5 5 5 5 5 5 5 5 5 5 5 5 5 5 5 5 5 5 5 5 5 5 5 5 5 5 5 5 5 5 5 5 5 5 5 5 5 5 5 5 5 5 5 5 5 5 5 5 5 5 5 5 5 5 5 5 5 5 5 5 5 5 5 5 5 5 5 5 5 5 5 5 5 5 5 5 5 5 5 5 5 5 5 5 5 5 5 5 5 5 5 5 5 5 5 5 5 5 5 5 5 5 5 5 5 5 5 5 5 5 5 5 5 5 5 5 5 5 5 5 5 5 5 5 5 5 5 5 5 5 5 5 5 5 5 5 5 5 5 5 5 5 5 5 5 5 5 5 5 5 5 5 5 5 5 5 5 5 5 5 5 5 5 5 5 5 5 5 5 5 5 5 5 5 5 5 5 5 5 5 5 5 5 5 5 5 5 5 5 5 5 5 5 5 5 5 5 5 5 5 5 5 5 5 5 5 5 5 5 5 5 5 5 5 5 5 5 5 5 5 5 5 5 5 5 5 5 5 5 5 5 5 5 5 5 5 5 5 5 5 5 5 5 5 5 5 5 5 5 5 5 5 5 5 5 5 5 5 5 5 5 5 5 5 5 5 5 5 5 5 5 5 5 5 5 5 5 5 5 5 5 5 5 5 5 5 5 5 5 5 5 5 5 5 5 5 5 5 5 5 5 5 5 5 5 5 5 5 5 5 5 5 5 5 5 5 5 5 5 5 5 5 5 5 5 5 5 5 5 5 5 5 5 5 5 5 5 5 5 5 5 5 5 5 5 5 5 5 5 5 5 5 5 5 5 5 5 5 5 5 5 5 5 5 5 5 5 5 5 5 5 5 5 5 5 5 5 5 5 5 5 5 5 5 5 5 5 5 5 5 5 5 5 5 5 5 5 5 5 5 5 5 5 5 5 5 5 5 5 5 5 5 5 5 5 5 5 5 5 5 5 5 5 5 5 5 5 </DataArray>
</Cells>
<CellData  Scalars="f">
<DataArray  type="Float64"  Name="f"  format="ascii">0 0 0 0 0 0 0 0 0 0 0 0 0 0 0 0 0 0 0 0 0 0 0 0 0 0 0 0 0 0 0 0 0 0 0 0 0 0 0 0 0 0 0 0 0 0 0 0 0 0 0 0 0 0 0 0 0 0 0 0 0 0 0 0 0 0 0 0 0 0 0 0 0 0 0 0 0 0 0 0 0 0 0 0 0 0 0 0 0 0 0 0 0 0 0 0 0 0 0 0 0 0 0 0 0 0 0 0 0 0 0 0 0 0 0 0 0 0 0 0 0 0 0 0 0 0 0 0 0 0 0 0 0 0 0 0 0 0 0 0 0 0 0 0 0 0 0 0 0 0 0 0 0 0 0 0 0 0 0 0 0 0 0 0 0 0 0 0 0 0 0 0 0 0 0 0 0 0 0 0 0 0 0 0 0 0 0 0 0 0 0 0 0 0 0 0 0 0 0 0 0 0 0 0 0 0 0 0 0 0 0 0 0 0 0 0 0 0 0 0 0 0 0 0 0 0 0 0 0 0 0 0 0 0 0 0 0 0 0 0 0 0 0 0 0 0 0 0 0 0 0 0 0 0 0 0 0 0 0 0 0 0 0 0 0 0 0 0 0 0 0 0 0 0 0 0 0 0 0 0 0 0 0 0 0 0 0 0 0 0 0 0 0 0 0 0 0 0 0 0 0 0 0 0 0 0 0 0 0 0 0 0 0 0 0 0 0 0 0 0 0 0 0 0 0 0 0 0 0 0 0 0 0 0 0 0 0 0 0 0 0 0 0 0 0 0 0 0 0 0 0 0 0 0 0 0 0 0 0 0 0 0 0 0 0 0 0 0 0 0 0 0 0 0 0 0 0 0 0 0 0 0 0 0 0 0 0 0 0 0 0 0 0 0 0 0 0 0 0 0 0 0 0 0 0 0 0 0 0 0 0 0 0 0 0 0 0 0 0 0 0 0 0 0 0 0 0 0 0 0 0 0 0 0 0 0 0 0 0 0 0 0 0 0 0 0 0 0 0 0 0 0 0 0 0 0 0 0 0 0 0 0 0 0 0 0 0 0 0 0 0 0 0 0 0 0 0 0 0 0 0 0 0 0 0 0 0 0 0 0 0 0 0 0 0 0 0 0 0 0 0 0 0 0 0 0 0 0 0 0 0 0 0 0 0 0 0 0 0 0 0 0 0 0 0 0 0 0 0 0 0 0 0 0 0 0 0 0 0 0 0 0 0 0 0 0 0 0 0 0 0 0 0 0 0 0 0 0 0 0 0 0 0 0 0 0 0 0 0 0 0 0 0 0 0 0 0 0 0 0 0 0 0 0 0 0 0 0 0 0 0 0 0 0 0 0 0 0 0 0 0 0 0 0 0 0 0 0 0 0 0 0 0 0 0 0 0 0 0 0 0 0 0 0 0 0 0 0 0 0 0 0 0 0 0 0 0 0 0 0 0 0 0 0 0 0 0 0 0 0 0 0 0 0 0 0 0 0 0 0 0 0 0 0 0 0 0 0 0 0 0 0 0 0 0 0 0 0 0 0 0 0 0 0 0 0 0 0 0 0 0 0 0 0 0 0 0 0 0 0 0 0 0 0 0 0 0 0 0 0 0 0 0 0 0 0 0 0 0 0 0 0 0 0 0 0 0 0 0 0 0 0 0 0 0 0 0 0 0 0 0 0 0 0 0 0 0 0 0 0 0 0 0 0 0 0 0 0 0 0 0 0 0 0 0 0 0 0 0 0 0 0 0 0 0 0 0 0 0 0 0 0 0 0 0 0 0 0 0 0 0 0 0 0 0 0 0 0 0 0 0 0 0 0 0 0 0 0 0 0 0 0 0 0 0 0 0 0 0 0 0 0 0 0 0 0 0 0 0 0 0 0 0 0 0 0 0 0 0 0 0 0 0 0 0 0 0 0 0 0 0 0 0 0 0 0 0 0 0 0 0 0 0 0 0 0 0 0 0 0 0 0 0 0 0 0 0 0 0 0 0 0 0 0 0 0 0 0 0 0 0 0 0 0 0 0 0 0 0 0 0 0 0 0 0 0 0 0 0 0 0 0 0 0 0 0 0 0 0 0 0 0 0 0 0 0 0 0 0 0 0 0 0 0 0 0 0 0 0 0 0 0 0 0 0 0 0 0 0 0 0 0 0 0 0 0 0 0 0 0 0 0 0 0 0 0 0 0 0 0 0 0 0 0 0 0 0 0 0 0 0 0 0 0 0 0 0 0 0 0 0 0 0 0 0 0 0 0 0 0 0 0 0 0 0 0 0 0 0 0 0 0 0 0 0 0 0 0 0 0 0 0 0 0 0 0 0 0 0 0 0 0 0 0 0 0 0 0 0 0 0 0 0 0 0 0 0 0 0 0 0 0 0 0 0 0 0 0 0 0 0 0 0 0 0 0 0 0 0 0 0 0 0 0 0 0 0 0 0 0 0 0 0 0 0 0 0 0 0 0 0 0 0 0 0 0 0 0 0 0 0 0 0 0 0 0 0 0 0 0 0 0 0 0 0 0 0 0 0 0 0 0 0 0 0 0 0 0 0 0 0 0 0 0 0 0 0 0 0 0 0 0 0 0 0 0 0 0 0 0 0 0 0 0 0 0 0 0 0 0 0 0 0 0 0 0 0 0 0 0 0 0 0 0 0 0 0 0 0 0 0 0 0 0 0 0 0 0 0 0 0 0 0 0 0 0 0 0 0 0 0 0 0 0 0 0 0 0 0 0 0 0 0 0 0 0 0 0 0 0 0 0 0 0 0 0 0 0 0 0 0 0 0 0 0 0 0 0 0 0 0 0 0 0 0 0 0 0 0 0 0 0 0 0 0 0 0 0 0 0 0 0 0 0 0 0 0 0 0 0 0 0 0 0 0 0 0 0 0 0 0 0 0 0 0 0 0 0 0 0 0 0 0 0 0 0 0 0 0 0 0 0 0 0 0 0 0 0 0 0 0 0 0 0 0 0 0 0 0 0 0 0 0 0 0 0 0 0 0 0 0 0 0 0 0 0 0 0 0 0 0 0 0 0 0 0 0 0 0 0 0 0 0 0 0 0 0 0 0 0 0 0 0 0 0 0 0 0 0 0 0 0 0 0 0 0 0 0 0 0 0 0 0 0 0 0 0 0 0 0 0 0 0 0 0 0 0 0 0 0 0 0 0 0 0 0 0 0 0 0 0 0 0 0 0 0 0 0 0 0 0 0 0 0 0 0 0 0 0 0 0 0 0 0 0 0 0 0 0 0 0 0 0 0 0 0 0 0 0 0 0 0 0 0 0 0 0 0 0 0 0 0 0 0 0 0 0 0 0 0 0 0 0 0 0 0 0 0 0 0 0 0 0 0 0 0 0 0 0 0 0 0 0 0 0 0 0 0 0 0 0 0 0 0 0 0 0 0 0 0 0 0 0 0 0 0 0 0 0 0 0 0 0 0 0 0 0 0 0 0 0 0 0 0 0 0 0 0 0 0 0 0 0 0 0 0 0 0 0 0 0 0 0 0 0 0 0 0 0 0 0 0 0 0 0 0 0 0 0 0 0 0 0 0 0 0 0 0 0 0 0 0 0 0 0 0 0 0 0 0 0 0 0 0 0 0 0 0 0 0 0 0 0 0 0 0 0 0 0 0 0 0 0 0 0 0 0 0 0 0 0 0 0 0 0 0 0 0 0 0 0 0 0 0 0 0 0 0 0 0 0 0 0 0 0 0 0 0 0 0 0 0 0 0 0 0 0 0 0 0 0 0 0 0 </DataArray>
</CellData>
</Piece>
</UnstructuredGrid>
</VTKFile>