<?xml version="1.0"?>
<VTKFile type="UnstructuredGrid"  version="0.1"  >
<UnstructuredGrid>
<Piece  NumberOfPoints="289" NumberOfCells="1819">
<Points>
<DataArray  type="Float64"  NumberOfComponents="3"  format="ascii">2.062244522755453 -19.05104059120902 -9.737594097671145  1.752564418204553 -19.17956197045679 -9.783956197466667  1.847639823266678 -19.30257201988334 -9.906001763293739  1.758281837931008 -19.1127788074667 -9.990942102969669  0.7704150395486838 -18.11617125289167 -9.109577400937606  0.7973612461314881 -18.24854362535149 -9.081680362836158  0.8780901757395032 -18.17926670373919 -9.151636284701198  0.7278732739806927 -18.22261210935401 -9.303777232684926  0.8056396512593583 -17.94646886050169 -9.361128488288029  0.8310088770575436 -17.92960951090011 -9.29088263012309  0.7684790519680664 -17.96421236227835 -9.309009843132458  0.8544250600773067 -17.97083335179013 -9.333718832177334  1.378121827195166 -18.30440448016239 -9.874007392893901  1.456054958587924 -18.3998147781533 -9.839624191715167  1.242400509588078 -18.4772395167267 -9.871069009021404  1.42229904306884 -18.347216558512 -9.957060790055662  1.543156503650708 -18.57516060094417 -9.59906047229855  1.436860793839477 -18.56400912272973 -9.447977994452687  1.363501529317622 -18.69375143224444 -9.682001044354275  1.399632333574934 -18.78658568959764 -9.599876940594745  1.399835020194198 -18.44111559520582 -9.584445882367215  1.50942784765601 -18.48872633626797 -9.722023438320882  1.302999730349134 -18.58204309190878 -9.768035693180542  1.066288672468915 -18.41711686148936 -9.535710720743053  1.302883571183949 -18.4353161812987 -9.430048323117424  1.213170564046289 -18.31920507584206 -9.422695325276891  1.120155899468137 -18.53116795626518 -9.491070495945795  1.296149526479084 -18.35240663003584 -9.525953312976613  1.755839121954702 -19.02744388578116 -9.282575541265565  1.449840582754484 -19.10122290061892 -9.345748014548274  1.572801916478524 -19.15491618819599 -9.454755310327881  1.482728410598872 -18.99285809958063 -9.479722619784365  0.9505221312553136 -18.05351075166468 -9.66507967581704  1.099561556787353 -17.9519821679141 -9.543985032155735  1.117408887509059 -17.91973070422929 -9.624724051714129  1.13920249779764 -18.00618784733344 -9.58907257532266  1.295352200664496 -18.55658743235632 -9.282358153654354  1.180291836156054 -18.64898680966662 -9.113736618257271  1.226878559973051 -18.85758074258751 -9.31141482439277  1.142095581620758 -18.72588994988917 -9.340242972399649  1.170693552566299 -17.99531641860677 -9.697464423157015  0.9567582117331928 -17.99407581557996 -9.725760475895553  1.13520382550166 -17.89678965689295 -9.708885651318166  1.062185914583888 -17.9544486258382 -9.810828831039132  0.9854253227957855 -18.07236918674013 -9.759823491805854  0.9840623499272522 -17.9821103583599 -9.326711434706812  0.9146764116052819 -17.92470457641256 -9.330513229846533  0.8932141762689352 -17.95377646936464 -9.265146280666162  1.184488458948822 -18.40517033848969 -9.309185632578133  1.004336515350111 -18.44245940744618 -9.43122862721035  1.181584036287699 -18.64299276947731 -9.455162722503285  1.245273187609983 -18.76215335216324 -9.41100763992517  1.150231670748807 -18.48316922690178 -9.597024265486096  1.603871416879275 -19.1366475861678 -9.054480222484731  1.42783517601825 -19.23863833960067 -9.240534446613463  1.549478043234942 -19.26648063265728 -9.344842905084732  0.9846199604657517 -18.3793763913769 -9.142217961150029  0.8269345898903645 -18.38805145569247 -9.048526179064735  0.815287056835635 -18.48406696468491 -9.256805399892686  0.9898335275555543 -18.52393034325654 -9.07519476313905  1.254695976993541 -18.12278344977406 -9.849695639027798  1.061721523294165 -18.21245064948574 -9.855646266786913  1.123975705100338 -18.31207363776111 -9.897779460332547  1.267440913021753 -18.16879275167652 -9.782585468717821  1.29484582435724 -18.70409985696379 -9.540085050004597  1.42132153558984 -19.40311712497235 -8.845713702086698  1.295741159450241 -19.23382992538435 -9.146809182002249  1.376787185129725 -19.389918444512 -9.142218562718577  1.173639227687971 -19.37074302516217 -9.047447465460809  1.600487422783346 -18.7277728848609 -9.437526480632341  1.848041915061875 -18.88000568907583 -9.608826780679554  1.599588227495921 -19.08463222427737 -9.566976288502358  1.561371942685386 -18.96845592222104 -9.643707217209084  1.423707217813304 -18.80018268781249 -9.168276847349977  1.44141353866006 -18.65410646402293 -9.334985586642402  1.361463685369511 -18.85331438944046 -9.45887680725691  1.042515095214045 -17.93469665665307 -9.469766387546436  1.099757451637275 -18.00565962025685 -9.49640092185993  0.9027250688034658 -18.03976379371812 -9.56806541407286  0.7982102748250217 -18.73415244697958 -9.140376211882439  0.8064384872383674 -18.58760124290172 -8.973809597004943  0.7139530981030173 -18.60308176352615 -9.165425969775058  0.8789615946911266 -18.64105406702388 -9.214782974838945  1.035349908756748 -18.92434264884012 -8.896974435091058  1.197572623433953 -18.82165470102001 -9.00939048665602  1.297799378799654 -19.01656809796014 -8.943850169745984  1.054283159957886 -19.07709215738749 -9.086264191091642  0.9314316646905688 -17.97074360939099 -9.409567526285624  1.184079560868621 -17.92738610198923 -9.921065765146958  1.110021387356786 -17.85140280695236 -9.871879418935402  1.109310246525998 -17.86317992711698 -10.00257290810406  1.081387093943076 -17.96767336564567 -9.931986236330658  1.015374441345613 -18.71523098795357 -8.989499439959848  0.8179621372154339 -18.82738470990702 -8.891793787295416  0.7951449962440912 -18.86587421186642 -9.090504311226445  0.9290360783444301 -18.77378841165022 -9.171807318687513  1.075065302015677 -18.81815926295846 -9.223356365069412  0.9667854313189326 -18.92090010006382 -9.118024909834453  1.182147404920404 -17.92790704805616 -10.01524784571867  1.170722973636696 -17.92531561821238 -9.80360439428987  1.216718094467576 -18.02628872534798 -9.885180791105904  1.216533451929108 -18.02234559082663 -9.994159758539594  0.6568829085553304 -18.72910453464746 -9.111127930404939  0.9696386185971693 -18.18877116161638 -9.593601951236453  1.17001182274691 -18.19796972245981 -9.46263633407302  1.206593998641846 -18.16052965619876 -9.583476202141194  1.152352826208418 -18.08962129431634 -9.536409360398403  1.511704272242063 -19.39374885947807 -9.2422954411657  1.455906004493939 -19.56510447557982 -9.147662617414891  1.286207357736143 -18.51703741770421 -9.976854320540589  1.456529117044341 -18.38201275352785 -10.04659787562677  1.499266660368919 -18.42913207842119 -9.94743892211968  1.021339041596123 -18.67453071876209 -9.279821816828433  0.6889713229043737 -18.16305222510478 -9.061122875733105  0.6185210790459434 -18.24181726982865 -9.240278400254301  1.35796024478248 -18.59398103584134 -10.0161539359473  1.407813974454337 -18.67278921714856 -9.863324033084055  1.32027469370802 -18.56635949888826 -9.890319186211794  1.606440672091118 -18.57432598532607 -9.742828833691242  1.536725662425988 -18.81472456633722 -9.902130383805989  1.711636851301697 -18.64011689587267 -9.854597842920464  1.24853627590581 -18.26773169948443 -9.545226645928052  1.118335466639344 -18.38624230372976 -9.671003527345219  1.260672053726618 -18.22201982247015 -9.641352138206031  1.070515382614375 -18.30226773995868 -9.686882161331438  1.2363806542997 -18.59501407870416 -9.593876191611686  1.200963123096266 -18.48197686666874 -9.709210074872509  1.411713193583249 -18.39299849140286 -9.709136488260143  1.067877685495677 -17.85525172568015 -9.68620158953162  1.024932770187271 -17.90273748773546 -9.738979161553969  1.010675514326086 -17.91049827318406 -9.659415845790686  0.9151013801740695 -18.11760085965673 -9.548657614415379  1.808933510267241 -18.74344382891823 -9.827378182944337  1.950743911986941 -18.87409980381593 -9.921429671067145  1.698871558136643 -19.06184160643348 -9.843786216664929  1.047495569587895 -17.99473656858705 -9.404857639396594  1.037886480176767 -18.06426084171194 -9.354596522114738  0.8704946069474655 -18.08574312607394 -9.491287103634111  1.271538859301899 -18.13949000941608 -9.957955041872104  1.033235073019134 -18.13732586646728 -9.98933353144418  1.088392431795276 -18.24713696209362 -9.995138931722455  0.6410392104972495 -18.45070364564436 -8.974377633487412  0.5803145283030983 -18.56469996985124 -9.148651128840966  1.207296087595464 -18.03219754854013 -9.795280191971287  0.4986933664166776 -18.24306181939282 -9.200534139938904  0.5615836874058789 -18.10690968951613 -9.216315084897834  0.5654270617404559 -18.21203828191677 -9.120669807159745  1.013346479249177 -18.12048769634712 -9.292874928406478  0.9124789123703393 -18.25653776428087 -9.456861941157616  0.8362324794958401 -18.25000187125485 -9.377673336771002  0.849084279351369 -18.1659429602883 -9.428059931400336  0.5490976093859835 -18.3861139639153 -9.188399995006463  0.4373148894380079 -18.27636061419618 -9.087850789541099  1.069977008433372 -18.58334151405272 -9.385303125997069  0.922283890145552 -17.98008578416924 -9.636325023047787  0.979657181388557 -17.93806461236717 -9.555853729740054  1.128867346040203 -18.93856104497788 -9.18575956143389  0.4898429971319065 -18.48652889085338 -8.946860239817775  0.5049744392957038 -18.31745509681396 -8.981504807236806  0.4150653070243617 -18.36667124004402 -9.169228690630005  0.9111867732938524 -18.43569613636633 -9.345438657784946  0.8237076607155841 -18.34985412032668 -9.322719657114357  0.6551502706214466 -18.06745946978474 -9.118078866557179  0.6500476592838893 -18.11931677311524 -9.187167051848327  1.219821721235889 -18.43593678416101 -10.00781195420599  1.181971577600467 -18.39284902779015 -9.919361100472507  1.345065640449372 -18.25254886889713 -9.959037458128817  1.212219116635243 -19.08415057271433 -9.159773370900934  1.157301018304687 -19.20825402902135 -9.082150625153323  1.020326160204964 -17.86498701960076 -9.618009919132552  0.9314401082675037 -17.89805940346416 -9.590994661953209  1.044345359510581 -18.21954769753158 -9.276355375486508  0.9196101913426542 -18.34697956807757 -9.407489116630387  1.190525305583607 -18.084942731433 -9.644501362314683  0.9838164931579162 -18.13298658593914 -9.680661395150835  0.9893017343021286 -18.05056576237851 -9.299032786138895  0.820817851282464 -18.06499480687544 -9.429371458421752  0.9368920547284522 -18.00760586359333 -9.267132633210309  0.9739611947489755 -17.90733237272632 -9.446136822403224  0.9035094980262933 -17.89923766880457 -9.487228083111138  0.9178377526438196 -17.90844657738459 -9.399043407906959  0.8978294707494503 -17.96196905567408 -9.473350562503402  0.9455375621877246 -18.10869492406494 -9.612826903729678  0.9477864182351102 -17.91222349272707 -9.68530521888338  0.9992192477494876 -17.85811389347381 -9.723511532967708  1.107388274036437 -19.15967423472853 -8.825658284295704  0.9692095422471976 -19.26985979266539 -9.007856473236783  0.8204724166531577 -19.11228484741245 -8.809039759376358  0.9862035876158967 -18.33970559378547 -9.490715855182215  1.094786882524793 -18.16758857125049 -9.370350884879228  1.350372227379274 -18.9608140395331 -9.34852108400333  1.248106611723079 -18.9766051101575 -9.244057071583631  1.344019396010763 -19.08356345918225 -9.256104819953828  0.9756095547425995 -17.99233948105758 -9.83506337274261  1.22153148371018 -18.09031622939056 -9.745769396301098  1.242069857977996 -18.15786810004996 -9.69373965289175  1.093468187679622 -18.29694976404807 -9.770591411166725  1.299610846673821 -18.23868054961209 -9.736920068669427  1.912423896789551 -19.41390533447266 -9.090467071533203  1.652989660603793 -19.41908765603733 -9.371699101482267  1.781772707458251 -19.51114175346021 -9.486858940001616  1.724382828394875 -19.62835335989347 -9.349064357597319  1.595217610203857 -18.52895100936937 -9.873926985820377  0.6719864872497415 -18.28024207643989 -9.024004868060755  0.7036610049783277 -18.35722792939592 -9.249162503274979  0.9599014554566501 -18.54276526539265 -9.319733602555258  1.12923643916163 -18.48197202292131 -9.193334914658241  0.5810483296787041 -18.69022641889432 -8.908471473638457  1.012421155361999 -18.10030321549594 -9.872260922396443  1.033174593239428 -18.22310729882919 -9.707438783177247  0.9137137820851864 -18.17750376855887 -9.506013839120786  0.9610307258102978 -18.25224202047056 -9.527274654443607  0.6802410318806742 -18.47449319324825 -9.201645367787961  0.8066248728097936 -19.06789313409565 -9.028731477324108  1.146645881039316 -18.34054336033379 -10.02161554256011  1.163270976457049 -18.3856522939637 -10.13600914797293  1.314926999638923 -18.21744267186783 -10.06975188816611  1.382148242951166 -18.30233698021152 -10.04078176440463  0.9953826130970325 -18.03240432798165 -9.957115366304151  0.9801762741680697 -17.92417155805874 -9.932007733675878  1.057199121904775 -17.89915733297582 -9.553127956229892  0.9905551516356721 -17.88414762212859 -9.521265175895246  1.45860917401949 -18.70714896516831 -9.985848087483152  0.4773197333685872 -18.70628203772849 -9.106546008667921  0.5714097364656705 -18.9157924137021 -9.059384371264864  0.9608698278818747 -18.16719337413271 -9.220445417521086  0.8103588335313111 -17.97837238854307 -9.419701449040653  0.8630714633258831 -17.96250962510531 -9.404327912967499  2.024264228873848 -19.2114308928663 -9.40577022394654  1.857104540899508 -19.52286856699742 -9.621253751257989  1.808697202107132 -19.33097871196396 -9.713615686563603  1.748166983736532 -19.37678494865352 -9.536959036679393  1.103091184372298 -18.08637690778745 -9.442454253392482  0.9012921465296309 -18.30507047109307 -9.11975368182326  1.159858509040869 -18.38578828120412 -9.808781271388566  1.310422624962751 -18.21720861591337 -9.847686462789358  1.32325399814184 -18.31676362012428 -9.647437804561301  0.984192088270617 -18.27834947320916 -9.193048233705129  0.9874558664677142 -17.92813805315024 -9.389603189267367  0.7607653419128182 -18.02547850128278 -9.363424265976548  0.9454918319479582 -18.07328711205761 -9.246363245282174  0.7289379192247654 -18.04865970668737 -9.218539572350405  0.8903445643665274 -17.94396726871166 -9.555182474517903  0.8765376107295243 -18.01130109426313 -9.213665245429452  1.598475237852869 -19.53489815361721 -9.260113895468294  0.6387980469490041 -18.93508937815153 -8.852284357884699  1.016873605821438 -18.14597388954779 -9.775455124139116  0.9755568128733287 -17.94562815402102 -10.03466560018412  1.132922623443844 -18.27401151839602 -9.346761968104191  0.7731303629803851 -17.97157291714138 -9.235184509799955  0.8084277693536143 -17.99145524309897 -9.172009911392095  0.7506781315325024 -18.0245424958449 -9.158572157526958  0.8045579346340306 -17.99457495867942 -9.246442138834261  0.7991702556610107 -17.94394073486328 -9.22682113647461  1.360863242435016 -18.31010376810087 -9.77748565671337  1.033982018306058 -17.84836562778566 -9.924990422568241  0.9910748899563043 -17.86694170916595 -9.822195481802886  1.083012772198956 -17.85210052018795 -9.758343395152702  1.689449689011165 -19.2119214979049 -9.589775026862659  0.8929465932405405 -18.10022038556982 -9.191727182059324  0.8315954451616823 -18.06631814754465 -9.161793235144909  0.781490949732034 -18.13911421287735 -9.367882246151517  1.079875839146511 -18.34770918362785 -9.237286361380191  1.564346989790273 -18.48371304210585 -10.02924611040867  0.8479395872266235 -17.98338372177133 -9.490956016727086  0.9561304782098535 -17.93670299519021 -9.772076455810485  1.638260223081339 -19.27616738467297 -9.448768556846877  1.494253448325677 -18.82098263279262 -9.742413664614823  1.606295144381789 -18.93921017725529 -9.805298753384928  1.260843456634589 -18.49499176850402 -10.0998310434773  1.690662065938224 -18.68141331193549 -9.675038076429917  1.466476573231213 -18.88196972212059 -9.583355868848253  0.4087673262844123 -18.19732413069041 -9.160767776253756  0.6850502407704249 -18.10947071224941 -9.298013402977316  1.657627194794133 -19.07919962432493 -9.692243146258527  1.083740454442232 -18.27715662204218 -10.1555879842324  1.031367083901097 -18.30396691254711 -9.598357837077758  0.6715156595649611 -18.01266947050319 -9.221165814189382  0.8654566614325566 -17.91367016013857 -9.35054598233379  0.8514281449157644 -17.92422423019829 -9.416847120223853  0.5306471604374449 -18.14992833433808 -9.035450416765043  0.4314763793951524 -18.52346004573079 -9.143319724575463  1.00045170831827 -19.44974838585088 -8.763615616272807  0.7213572928344845 -18.00700999697563 -9.29229374300292  1.706120441565267 -19.84230551239644 -9.268256204548866  1.612976549547518 -19.67227315780054 -9.227496637220034  1.007963007125966 -17.87329096224999 -10.00022664315494  1.84754820587384 -19.88358404085571 -8.707878030368569  1.541347242508797 -19.78176500353613 -9.157475774875758  </DataArray>
</Points>
<Cells>
<DataArray  type="UInt32"  Name="connectivity"  format="ascii">0 1 2  0 1 3  70 0 1  0 1 134  0 1 230  0 1 258  0 2 3  0 230 2  0 134 3  70 133 0  70 0 134  70 228 0  70 0 258  133 0 134  228 0 230  228 0 258  0 258 230  1 2 3  1 230 2  1 134 3  70 1 134  70 1 258  70 1 274  1 274 134  1 258 230  1 258 274  4 5 6  4 5 7  113 4 5  4 5 114  4 6 7  4 6 260  4 7 114  4 7 260  4 7 273  113 4 114  113 4 162  113 4 163  4 114 163  4 114 273  4 162 163  4 162 241  4 251 162  4 163 241  4 273 163  4 251 241  4 260 241  4 273 241  4 260 251  4 260 273  5 6 7  5 233 6  5 7 114  5 204 7  5 233 7  5 57 203  5 57 204  5 233 57  113 5 114  113 5 203  5 203 114  5 204 114  5 203 204  5 233 204  6 7 149  161 6 7  233 6 7  6 7 260  6 7 261  161 6 149  6 225 149  237 6 149  6 149 261  233 161 6  237 161 6  237 6 225  6 225 259  6 225 261  237 233 6  6 259 260  6 259 261  6 260 261  204 7 114  7 114 273  161 7 149  7 149 261  161 204 7  233 161 7  233 204 7  7 260 261  7 260 273  7 273 261  8 9 10  8 9 11  8 278 9  8 10 11  8 239 10  8 226 11  8 227 11  8 239 11  8 278 11  8 226 227  8 239 226  8 279 226  8 278 227  8 279 227  8 278 279  9 10 11  249 9 10  9 10 252  9 46 11  9 47 11  9 252 11  278 9 11  9 46 47  278 9 46  9 47 252  253 9 47  249 9 252  253 249 9  253 9 252  239 10 11  10 252 11  239 10 252  239 10 283  249 10 252  249 10 283  10 283 252  45 46 11  45 47 11  45 11 87  45 176 11  45 177 11  46 47 11  46 11 87  278 46 11  47 177 11  243 47 11  47 252 11  176 11 87  227 11 87  278 11 87  176 177 11  176 226 11  176 227 11  239 176 11  239 177 11  243 177 11  226 227 11  239 226 11  278 227 11  243 239 11  239 252 11  243 252 11  12 13 14  12 13 15  254 12 13  12 14 15  12 14 164  12 14 165  12 14 234  254 12 14  12 164 15  12 166 15  12 164 165  12 164 166  12 165 166  12 234 165  12 165 235  12 166 235  12 234 235  254 12 234  254 12 235  13 14 15  13 14 22  13 109 14  13 117 14  13 127 14  254 13 14  13 109 15  13 111 15  21 13 22  21 13 116  21 13 127  21 202 13  13 116 22  13 117 22  13 127 22  13 109 111  13 117 109  13 116 111  13 117 111  202 13 111  13 116 117  202 13 116  254 13 127  109 14 15  14 164 15  117 14 22  126 14 22  127 14 22  117 109 14  109 14 164  126 127 14  126 14 234  126 254 14  254 127 14  14 164 165  14 234 165  254 14 234  109 110 15  109 111 15  109 164 15  110 111 15  164 110 15  217 110 15  164 166 15  164 217 15  217 166 15  16 17 18  16 17 19  20 16 17  69 16 17  16 18 19  20 16 18  16 21 18  118 16 18  16 267 18  69 16 19  16 267 19  270 16 19  20 16 21  118 16 21  69 270 16  118 16 267  270 118 16  270 16 267  17 18 19  20 17 18  17 64 18  17 125 18  17 64 19  69 17 19  74 17 19  20 17 24  20 17 125  36 17 24  17 24 50  17 24 125  36 17 50  36 74 17  17 50 64  74 17 50  17 50 125  74 17 64  17 64 125  69 74 17  64 18 19  267 18 19  20 21 18  20 22 18  20 125 18  21 22 18  21 116 18  118 21 18  116 22 18  125 22 18  64 125 18  118 116 18  267 116 18  118 267 18  74 64 19  75 64 19  69 74 19  69 75 19  69 270 19  69 271 19  74 75 19  271 75 19  270 267 19  267 271 19  270 271 19  20 21 22  20 21 127  20 125 22  20 126 22  20 127 22  27 20 24  20 24 125  27 20 125  27 20 126  236 27 20  20 126 125  20 126 127  236 20 126  236 20 127  21 116 22  21 127 22  118 21 116  21 202 116  118 21 202  116 117 22  126 125 22  126 127 22  23 24 25  23 24 26  27 23 24  23 52 24  23 25 26  27 23 25  23 25 49  121 23 25  23 188 25  23 276 25  23 49 26  23 52 26  27 23 52  121 27 23  27 23 122  23 188 49  23 52 122  121 23 122  121 23 276  23 276 122  23 276 188  24 25 26  27 24 25  24 25 48  24 48 26  24 50 26  52 24 26  24 125 26  27 52 24  27 24 125  36 24 48  36 24 50  24 48 50  24 50 125  52 24 125  25 48 26  25 49 26  121 27 25  25 48 49  248 25 48  188 25 49  248 25 49  104 121 25  104 188 25  104 248 25  104 276 25  121 276 25  188 248 25  276 188 25  48 49 26  48 50 26  48 26 153  49 26 153  50 125 26  50 26 153  52 125 26  27 52 122  27 52 125  27 52 126  121 27 122  121 236 27  27 122 126  236 27 122  27 126 125  236 27 126  28 29 30  28 29 31  28 53 29  28 55 29  28 69 29  73 28 29  28 30 31  28 55 30  28 30 71  28 30 258  28 30 266  28 69 31  28 31 71  28 53 55  73 28 53  198 28 53  28 53 199  28 55 199  28 55 266  28 70 69  28 69 71  73 28 69  28 70 71  28 70 228  28 70 258  28 258 71  198 28 199  198 28 228  28 228 199  28 266 199  28 228 258  28 228 266  28 266 258  29 30 31  55 29 30  69 29 31  29 190 31  53 54 29  53 55 29  73 53 29  53 29 192  54 55 29  54 29 192  73 69 29  69 29 190  73 29 190  73 29 192  29 190 192  30 31 71  55 30 266  30 258 71  30 266 258  69 31 71  69 31 72  69 31 75  69 190 31  69 31 271  31 71 72  31 72 271  190 31 75  31 271 75  32 33 34  32 33 35  32 33 78  32 33 155  32 33 182  32 34 35  32 40 34  32 41 34  32 34 154  32 34 155  32 40 35  174 32 35  32 35 182  32 40 41  44 32 40  174 32 40  44 32 41  32 41 154  44 174 32  32 154 78  32 78 155  32 78 182  32 154 155  174 32 182  33 34 35  33 34 155  220 33 34  33 77 35  33 35 182  76 33 77  76 33 78  76 33 155  76 220 33  33 77 78  33 77 182  33 78 155  33 78 182  220 33 155  40 34 35  40 41 34  40 34 42  41 34 42  41 34 130  41 34 154  34 42 128  34 42 130  34 128 130  34 169 128  34 154 130  34 155 130  34 169 130  34 154 155  34 169 155  220 34 155  220 34 169  173 40 35  174 40 35  77 35 106  77 35 182  173 35 106  174 35 106  35 106 182  173 174 35  174 35 182  36 37 38  36 37 39  73 36 37  36 37 206  36 38 39  36 38 51  73 36 38  36 74 38  36 50 39  36 39 51  36 153 39  36 206 39  36 48 50  36 48 153  36 48 206  36 50 51  36 74 50  36 50 153  36 74 51  73 36 74  36 206 153  37 38 39  73 37 38  84 37 38  37 38 96  37 96 39  37 39 112  37 206 39  92 37 59  37 59 112  37 59 206  73 84 37  92 84 37  84 37 96  92 37 96  92 37 112  37 96 112  37 206 112  38 39 51  38 96 39  74 38 51  38 75 51  73 74 38  73 38 75  73 84 38  73 190 38  73 38 191  74 38 75  190 38 75  84 38 96  84 156 38  84 38 191  156 38 96  156 38 191  190 38 191  50 39 51  50 153 39  96 39 112  153 39 112  206 39 112  206 153 39  40 41 42  40 41 43  44 40 41  40 42 43  99 40 42  44 40 43  99 40 43  143 40 43  143 44 40  44 174 40  246 44 40  143 99 40  143 194 40  143 246 40  173 174 40  194 173 40  173 246 40  246 174 40  194 246 40  41 42 43  41 42 129  41 42 130  44 41 43  41 129 43  193 41 43  41 265 43  193 44 41  41 129 130  41 183 129  41 265 129  41 154 130  41 183 130  41 183 154  41 265 183  193 41 265  99 42 43  42 129 43  257 42 43  257 99 42  42 128 129  42 128 130  257 42 128  42 129 130  257 42 129  143 44 43  193 44 43  44 208 43  89 91 43  89 99 43  89 255 43  89 256 43  257 89 43  99 91 43  143 91 43  193 91 43  208 91 43  219 91 43  255 91 43  143 99 43  257 99 43  256 129 43  257 129 43  265 129 43  143 208 43  193 208 43  193 219 43  193 256 43  193 265 43  219 255 43  219 256 43  255 256 43  257 256 43  265 256 43  143 44 208  143 246 44  246 44 174  193 44 208  246 44 208  45 46 47  45 46 87  45 46 238  45 47 177  45 135 87  45 137 87  45 176 87  45 238 87  45 135 136  45 135 137  45 135 238  45 136 137  45 136 175  45 175 137  45 176 137  45 175 176  45 175 177  45 176 177  46 180 87  46 238 87  278 46 87  46 238 180  278 46 180  243 47 177  243 47 252  253 243 47  253 47 252  48 49 153  205 48 49  248 48 49  48 262 49  48 50 153  205 48 153  48 206 153  205 48 206  205 48 262  48 206 262  248 48 262  205 49 153  160 49 172  160 205 49  160 262 49  188 49 172  248 49 172  262 49 172  188 248 49  205 262 49  248 262 49  50 64 51  74 50 51  74 50 64  50 64 125  74 64 51  75 64 51  74 75 51  52 122 126  52 126 125  53 54 55  53 54 66  53 54 67  53 54 107  53 54 192  53 55 107  53 55 199  53 65 66  53 65 67  53 65 85  53 65 107  198 53 65  53 66 67  53 85 66  53 66 192  53 67 107  73 53 85  73 53 192  53 85 192  198 53 107  53 107 199  198 53 199  54 55 107  54 66 67  54 66 192  54 67 107  55 107 199  55 266 199  56 57 58  56 57 59  56 233 57  56 58 59  56 160 58  56 58 161  56 58 205  56 233 58  56 205 59  56 59 206  56 160 161  56 160 205  237 56 160  56 160 262  56 233 161  237 56 161  56 205 206  56 205 262  56 206 262  237 56 233  237 56 262  57 58 59  57 58 81  57 58 82  57 58 204  57 58 212  233 57 58  57 59 80  57 59 82  57 80 81  57 80 82  57 141 80  57 81 82  57 141 81  57 212 81  57 141 203  57 141 212  57 203 204  57 203 212  57 212 204  233 57 204  58 59 82  58 205 59  58 81 82  58 212 81  58 205 82  160 58 161  160 58 205  58 161 204  233 58 161  58 212 204  233 58 204  79 59 80  79 59 82  92 79 59  79 95 59  59 80 82  92 59 80  95 59 82  59 82 112  205 59 82  92 95 59  92 59 112  95 59 112  205 59 112  59 206 112  205 59 206  60 61 62  60 61 63  60 61 100  60 61 138  143 60 61  60 194 61  60 62 63  60 62 138  60 62 235  60 194 63  60 235 63  60 138 100  143 60 100  60 138 235  143 60 194  61 62 63  61 62 138  61 62 140  61 196 62  194 61 63  61 196 63  61 138 100  61 100 139  143 61 100  61 100 208  61 138 139  61 138 140  61 139 140  61 208 139  143 194 61  143 61 208  143 246 61  194 61 196  194 209 61  194 246 61  209 61 196  246 61 208  246 209 61  196 62 63  62 234 63  62 235 63  62 138 140  62 138 166  62 138 235  62 166 140  214 62 140  62 165 166  214 62 165  62 234 165  62 165 235  214 62 166  62 166 235  196 62 234  62 234 235  194 195 63  194 196 63  195 196 63  195 63 197  196 63 197  196 234 63  234 63 197  235 63 197  234 235 63  74 75 64  65 66 67  65 66 68  65 85 66  65 67 68  65 67 107  65 67 108  65 85 68  65 185 68  65 282 68  65 85 185  65 107 108  198 65 107  198 65 108  65 108 285  65 108 288  65 185 282  198 65 285  198 287 65  287 65 285  65 288 285  287 65 288  66 67 68  85 66 68  66 168 68  85 66 167  85 66 168  85 66 192  66 167 168  66 167 192  67 107 108  85 168 68  85 185 68  168 185 68  168 186 68  185 186 68  185 282 68  282 186 68  70 69 71  70 69 72  70 69 270  69 71 72  69 270 72  69 72 271  73 69 74  73 69 75  73 69 190  69 74 75  69 190 75  69 271 75  69 270 271  70 71 72  70 258 71  70 274 71  70 268 72  70 270 72  70 274 72  70 132 133  70 132 134  70 132 268  70 270 132  70 133 134  70 268 134  70 274 134  70 228 258  70 258 274  70 270 268  70 268 274  274 71 72  258 274 71  268 267 72  270 267 72  267 72 271  270 268 72  268 274 72  270 72 271  73 74 75  73 190 75  73 84 85  73 84 191  73 85 191  73 85 192  73 190 191  73 190 192  73 192 191  76 77 78  131 76 77  76 135 77  76 78 87  131 76 78  76 137 78  76 78 155  76 78 181  76 135 87  76 137 87  76 178 87  76 181 87  76 238 87  131 76 135  131 76 137  76 135 137  76 135 238  76 178 155  76 155 181  76 220 155  76 221 155  76 178 181  76 221 178  76 178 238  76 221 220  131 77 78  77 78 182  131 77 106  77 106 182  232 77 106  131 135 77  131 77 182  131 232 77  135 232 77  137 78 87  78 181 87  131 137 78  131 78 182  137 78 181  264 137 78  154 78 155  242 154 78  78 155 181  242 78 155  242 78 181  264 78 181  264 242 78  79 80 81  79 80 82  92 79 80  93 79 80  79 80 102  79 81 82  79 81 102  79 95 82  92 93 79  92 79 94  92 79 95  93 79 94  93 79 102  79 94 95  79 94 102  80 81 82  80 81 102  141 80 81  92 93 80  93 80 102  207 93 80  141 80 102  207 80 102  207 141 80  141 81 102  142 81 102  141 142 81  141 212 81  212 142 81  95 82 112  205 82 112  83 84 85  83 84 86  83 92 84  83 84 97  83 85 86  83 85 185  83 86 97  83 86 185  83 86 187  83 86 213  83 92 93  83 92 97  83 93 97  83 93 187  83 93 213  83 97 213  83 185 187  83 187 213  84 85 86  84 85 156  84 85 191  84 86 97  84 86 156  92 84 96  92 84 97  84 96 97  84 156 96  84 156 97  84 156 191  85 86 156  85 167 86  85 168 86  85 86 185  85 167 156  85 156 191  85 167 168  85 167 191  85 167 192  85 168 185  85 192 191  86 156 97  86 97 213  167 86 156  167 168 86  168 86 185  168 86 186  86 185 186  86 185 187  86 186 187  86 186 213  86 187 213  135 137 87  135 238 87  176 137 87  137 181 87  176 181 87  176 227 87  178 180 87  178 181 87  178 238 87  180 181 87  180 227 87  238 180 87  278 180 87  227 181 87  278 227 87  88 89 90  88 89 91  88 89 99  88 90 91  88 98 90  88 98 91  88 99 91  88 100 91  101 88 91  101 88 98  88 99 100  101 88 100  89 90 91  89 255 90  89 99 91  89 255 91  257 89 99  89 255 256  257 89 256  98 90 91  255 90 91  90 286 91  255 90 286  101 98 91  99 100 91  143 99 91  101 100 91  100 139 91  143 100 91  100 208 91  101 139 91  208 139 91  218 139 91  143 208 91  193 208 91  193 218 91  193 219 91  218 208 91  218 219 91  218 247 91  219 247 91  219 255 91  219 286 91  247 286 91  255 286 91  92 93 94  92 93 97  92 94 95  92 94 97  92 95 96  92 95 97  92 95 112  92 96 97  92 96 112  93 94 97  93 94 102  93 94 213  93 94 245  93 97 213  207 93 102  93 245 102  93 187 213  93 187 245  207 93 245  93 213 245  94 95 97  94 97 213  94 224 102  94 245 102  94 213 224  94 213 245  94 245 224  95 96 97  95 96 112  156 96 97  143 99 100  101 138 100  101 100 139  138 100 139  100 208 139  143 100 208  101 138 139  141 142 102  207 141 102  207 142 102  142 102 223  207 102 223  207 224 102  207 245 102  224 102 223  245 224 102  103 104 105  103 104 106  103 104 211  103 104 232  103 104 276  103 105 106  103 105 174  103 105 209  103 105 276  131 103 106  103 174 106  103 106 182  103 232 106  131 103 182  131 210 103  131 103 232  103 174 182  103 174 209  103 276 209  210 103 211  210 103 232  103 232 211  103 276 211  104 105 106  104 105 121  104 105 276  104 232 106  104 121 276  104 188 189  104 188 211  104 188 248  104 276 188  104 189 211  104 189 232  104 189 248  104 232 211  104 276 211  105 173 106  105 174 106  105 121 123  105 121 124  105 121 276  105 123 124  105 195 123  105 195 124  105 209 124  105 276 124  105 173 174  105 195 173  105 173 209  105 174 209  105 195 209  105 276 209  131 106 182  131 232 106  173 174 106  174 106 182  198 107 108  107 108 244  198 107 199  198 107 244  107 199 244  198 108 244  198 108 285  108 244 285  108 288 285  109 110 111  115 109 110  109 164 110  109 269 110  115 109 111  117 109 111  115 117 109  115 109 269  109 164 269  115 110 111  263 110 111  263 115 110  115 269 110  164 217 110  164 269 110  269 217 110  115 116 111  115 117 111  115 222 111  263 115 111  116 117 111  202 116 111  116 222 111  202 222 111  263 202 111  263 222 111  205 153 112  206 153 112  205 206 112  113 114 146  113 114 163  113 203 114  113 162 146  113 146 163  113 203 146  113 280 146  113 162 163  113 280 162  113 203 280  144 114 145  144 114 146  151 144 114  114 145 146  114 145 163  114 145 273  151 114 146  114 146 163  203 114 146  203 151 114  204 151 114  114 273 163  203 204 114  115 116 117  115 116 222  263 115 222  118 119 116  118 116 120  118 202 116  118 267 116  119 116 120  119 116 222  119 267 116  202 116 120  116 222 120  202 116 222  118 119 120  118 119 267  270 118 119  118 202 120  270 118 120  270 118 267  132 119 120  119 222 120  270 119 120  132 119 268  270 132 119  119 268 267  270 119 267  270 119 268  270 132 120  202 222 120  121 122 123  121 122 124  121 236 122  121 276 122  121 123 124  121 236 123  121 276 124  122 123 124  122 196 123  122 123 197  236 122 123  122 196 124  276 122 124  122 126 234  236 122 126  122 196 197  122 196 234  122 234 197  236 122 197  236 122 234  195 123 124  196 123 124  195 196 123  195 123 197  196 123 197  236 123 197  195 196 124  195 209 124  209 196 124  276 209 124  236 126 127  126 254 127  236 126 234  126 254 234  236 126 254  236 254 127  128 129 130  184 128 129  257 128 129  169 128 130  184 128 130  169 184 128  257 184 128  183 129 130  184 129 130  183 184 129  265 183 129  256 184 129  257 184 129  265 184 129  257 256 129  265 256 129  154 155 130  170 154 130  183 154 130  169 155 130  170 155 130  169 170 130  169 183 130  169 184 130  183 170 130  183 184 130  131 135 136  131 135 137  131 135 232  131 136 137  131 210 136  131 136 232  131 210 137  131 210 232  132 133 134  132 268 134  270 132 268  268 274 134  135 136 137  135 136 232  136 150 137  136 175 137  210 136 137  136 147 148  136 147 150  136 175 147  189 136 147  136 148 150  189 136 148  210 136 148  136 175 150  210 136 150  210 189 136  189 136 232  210 136 232  175 150 137  176 150 137  210 150 137  175 176 137  176 137 181  264 176 137  264 137 181  138 139 140  138 166 140  216 138 140  216 138 166  138 166 235  218 208 139  214 166 140  216 166 140  214 216 140  214 275 140  275 216 140  141 151 142  157 141 142  207 141 142  141 212 142  157 141 151  141 158 151  141 203 151  141 212 151  157 141 158  157 207 141  141 203 158  141 203 212  157 151 142  212 151 142  151 142 281  157 207 142  157 142 223  157 142 281  207 142 223  142 281 223  143 194 246  143 246 208  144 145 146  144 272 145  151 144 146  144 146 152  144 272 146  151 144 152  151 144 159  144 159 152  144 272 152  144 159 272  145 162 146  145 146 163  272 145 146  280 145 146  145 162 163  145 162 277  280 145 162  145 273 163  145 277 163  280 272 145  145 277 273  151 146 152  158 151 146  203 151 146  158 146 152  272 146 152  280 146 152  203 158 146  158 280 146  162 146 163  280 162 146  203 280 146  280 272 146  147 148 149  147 148 150  171 147 148  189 147 148  147 149 150  171 147 149  147 225 149  175 147 150  147 225 150  147 240 150  189 171 147  171 147 225  175 147 240  147 240 225  148 149 150  171 148 149  172 148 149  210 148 150  171 172 148  189 171 148  188 172 148  189 172 148  188 189 148  188 148 211  210 189 148  189 148 211  210 148 211  225 149 150  149 150 261  161 172 149  237 161 149  171 172 149  171 225 149  237 171 149  237 172 149  237 225 149  225 149 261  175 176 150  175 240 150  240 176 150  176 150 261  240 225 150  225 150 261  240 150 261  158 151 152  151 159 152  157 158 151  157 151 159  157 151 281  158 151 159  203 158 151  151 159 281  203 204 151  203 212 151  212 204 151  158 159 152  158 280 152  159 272 152  280 272 152  205 206 153  170 154 155  242 154 155  183 170 154  242 170 154  169 170 155  220 169 155  221 169 155  179 170 155  221 170 155  242 170 155  178 179 155  178 155 181  221 178 155  179 155 181  221 179 155  179 242 155  242 155 181  221 220 155  167 156 191  157 158 159  157 159 281  157 207 223  157 281 223  203 158 280  160 161 172  237 160 161  237 160 172  160 262 172  160 205 262  237 160 262  237 161 172  233 161 204  237 233 161  162 163 241  162 277 163  251 162 241  162 277 241  251 162 277  273 163 241  277 163 241  277 273 163  164 165 166  214 164 165  214 164 166  164 217 166  214 215 164  214 164 217  215 164 217  215 164 269  164 269 217  214 165 166  165 166 235  234 165 235  214 216 166  214 217 166  216 217 166  167 192 191  168 185 186  169 183 170  221 169 170  169 183 184  221 220 169  221 179 170  179 242 170  189 171 172  237 171 172  248 171 172  171 262 172  189 248 171  237 171 225  237 171 262  248 171 262  188 189 172  188 248 172  189 248 172  237 262 172  248 262 172  173 174 209  173 246 174  194 195 173  194 173 209  194 173 246  195 173 209  173 246 209  246 174 209  175 176 177  175 240 176  175 240 177  239 176 177  240 176 177  176 227 181  264 176 181  176 226 227  239 176 226  264 176 226  264 176 227  240 239 176  239 176 261  240 176 261  240 239 177  243 239 177  240 243 177  178 179 180  178 179 181  221 178 179  178 180 181  178 238 180  179 180 181  279 179 180  179 242 181  264 179 181  279 179 181  264 179 242  279 264 179  180 227 181  279 180 181  278 180 227  279 180 227  278 279 180  264 227 181  279 227 181  264 242 181  279 264 181  265 183 184  257 256 184  265 256 184  185 186 187  185 282 186  185 282 187  186 187 213  282 186 187  187 213 245  188 189 211  188 189 248  276 188 211  210 189 211  210 189 232  189 232 211  190 192 191  193 218 208  193 218 219  193 219 256  193 265 256  194 195 196  194 195 209  194 209 196  194 246 209  195 196 197  195 209 196  196 234 197  234 235 197  236 234 197  254 234 197  254 235 197  236 254 197  198 199 200  198 199 201  198 228 199  198 199 244  198 200 201  198 228 200  198 201 244  198 201 284  198 201 285  198 244 285  198 284 285  198 287 284  198 287 285  199 200 201  228 199 200  199 231 200  199 201 244  228 199 231  228 266 199  266 199 231  228 229 200  228 231 200  229 231 200  201 244 285  201 284 285  263 202 222  203 212 204  205 206 262  207 224 223  207 245 224  210 232 211  213 245 224  214 215 216  214 215 217  214 215 275  214 216 217  214 275 216  215 216 217  215 275 216  215 269 217  218 219 247  219 247 286  219 255 256  219 255 286  240 225 259  240 225 261  225 259 261  264 226 227  279 226 227  279 264 226  279 264 227  278 279 227  228 229 230  228 229 231  228 230 231  228 258 230  228 258 231  228 266 231  228 266 258  229 230 231  258 230 231  266 258 231  254 234 235  236 254 234  240 243 239  240 239 261  239 252 241  239 260 241  239 273 241  239 283 241  243 239 252  243 239 260  243 239 261  239 260 252  239 283 252  239 260 261  239 260 273  239 273 261  239 273 283  240 243 259  240 243 261  240 259 261  249 251 241  249 252 241  249 277 241  249 283 241  251 252 241  260 251 241  251 277 241  260 252 241  283 252 241  260 273 241  277 273 241  273 283 241  277 283 241  250 243 252  253 250 243  250 243 260  253 243 252  243 260 252  243 259 260  243 259 261  243 260 261  249 250 251  249 250 252  253 249 250  249 251 252  249 251 277  253 249 252  249 283 252  249 277 283  250 251 252  250 260 251  253 250 252  250 260 252  260 251 252  259 260 261  260 273 261  270 268 267  270 267 271  277 273 283  287 284 285  288 284 285  287 288 284  287 288 285  </DataArray>
<DataArray  type="UInt32"  Name="offsets"  format="ascii">3 6 9 12 15 18 21 24 27 30 33 36 39 42 45 48 51 54 57 60 63 66 69 72 75 78 81 84 87 90 93 96 99 102 105 108 111 114 117 120 123 126 129 132 135 138 141 144 147 150 153 156 159 162 165 168 171 174 177 180 183 186 189 192 195 198 201 204 207 210 213 216 219 222 225 228 231 234 237 240 243 246 249 252 255 258 261 264 267 270 273 276 279 282 285 288 291 294 297 300 303 306 309 312 315 318 321 324 327 330 333 336 339 342 345 348 351 354 357 360 363 366 369 372 375 378 381 384 387 390 393 396 399 402 405 408 411 414 417 420 423 426 429 432 435 438 441 444 447 450 453 456 459 462 465 468 471 474 477 480 483 486 489 492 495 498 501 504 507 510 513 516 519 522 525 528 531 534 537 540 543 546 549 552 555 558 561 564 567 570 573 576 579 582 585 588 591 594 597 600 603 606 609 612 615 618 621 624 627 630 633 636 639 642 645 648 651 654 657 660 663 666 669 672 675 678 681 684 687 690 693 696 699 702 705 708 711 714 717 720 723 726 729 732 735 738 741 744 747 750 753 756 759 762 765 768 771 774 777 780 783 786 789 792 795 798 801 804 807 810 813 816 819 822 825 828 831 834 837 840 843 846 849 852 855 858 861 864 867 870 873 876 879 882 885 888 891 894 897 900 903 906 909 912 915 918 921 924 927 930 933 936 939 942 945 948 951 954 957 960 963 966 969 972 975 978 981 984 987 990 993 996 999 1002 1005 1008 1011 1014 1017 1020 1023 1026 1029 1032 1035 1038 1041 1044 1047 1050 1053 1056 1059 1062 1065 1068 1071 1074 1077 1080 1083 1086 1089 1092 1095 1098 1101 1104 1107 1110 1113 1116 1119 1122 1125 1128 1131 1134 1137 1140 1143 1146 1149 1152 1155 1158 1161 1164 1167 1170 1173 1176 1179 1182 1185 1188 1191 1194 1197 1200 1203 1206 1209 1212 1215 1218 1221 1224 1227 1230 1233 1236 1239 1242 1245 1248 1251 1254 1257 1260 1263 1266 1269 1272 1275 1278 1281 1284 1287 1290 1293 1296 1299 1302 1305 1308 1311 1314 1317 1320 1323 1326 1329 1332 1335 1338 1341 1344 1347 1350 1353 1356 1359 1362 1365 1368 1371 1374 1377 1380 1383 1386 1389 1392 1395 1398 1401 1404 1407 1410 1413 1416 1419 1422 1425 1428 1431 1434 1437 1440 1443 1446 1449 1452 1455 1458 1461 1464 1467 1470 1473 1476 1479 1482 1485 1488 1491 1494 1497 1500 1503 1506 1509 1512 1515 1518 1521 1524 1527 1530 1533 1536 1539 1542 1545 1548 1551 1554 1557 1560 1563 1566 1569 1572 1575 1578 1581 1584 1587 1590 1593 1596 1599 1602 1605 1608 1611 1614 1617 1620 1623 1626 1629 1632 1635 1638 1641 1644 1647 1650 1653 1656 1659 1662 1665 1668 1671 1674 1677 1680 1683 1686 1689 1692 1695 1698 1701 1704 1707 1710 1713 1716 1719 1722 1725 1728 1731 1734 1737 1740 1743 1746 1749 1752 1755 1758 1761 1764 1767 1770 1773 1776 1779 1782 1785 1788 1791 1794 1797 1800 1803 1806 1809 1812 1815 1818 1821 1824 1827 1830 1833 1836 1839 1842 1845 1848 1851 1854 1857 1860 1863 1866 1869 1872 1875 1878 1881 1884 1887 1890 1893 1896 1899 1902 1905 1908 1911 1914 1917 1920 1923 1926 1929 1932 1935 1938 1941 1944 1947 1950 1953 1956 1959 1962 1965 1968 1971 1974 1977 1980 1983 1986 1989 1992 1995 1998 2001 2004 2007 2010 2013 2016 2019 2022 2025 2028 2031 2034 2037 2040 2043 2046 2049 2052 2055 2058 2061 2064 2067 2070 2073 2076 2079 2082 2085 2088 2091 2094 2097 2100 2103 2106 2109 2112 2115 2118 2121 2124 2127 2130 2133 2136 2139 2142 2145 2148 2151 2154 2157 2160 2163 2166 2169 2172 2175 2178 2181 2184 2187 2190 2193 2196 2199 2202 2205 2208 2211 2214 2217 2220 2223 2226 2229 2232 2235 2238 2241 2244 2247 2250 2253 2256 2259 2262 2265 2268 2271 2274 2277 2280 2283 2286 2289 2292 2295 2298 2301 2304 2307 2310 2313 2316 2319 2322 2325 2328 2331 2334 2337 2340 2343 2346 2349 2352 2355 2358 2361 2364 2367 2370 2373 2376 2379 2382 2385 2388 2391 2394 2397 2400 2403 2406 2409 2412 2415 2418 2421 2424 2427 2430 2433 2436 2439 2442 2445 2448 2451 2454 2457 2460 2463 2466 2469 2472 2475 2478 2481 2484 2487 2490 2493 2496 2499 2502 2505 2508 2511 2514 2517 2520 2523 2526 2529 2532 2535 2538 2541 2544 2547 2550 2553 2556 2559 2562 2565 2568 2571 2574 2577 2580 2583 2586 2589 2592 2595 2598 2601 2604 2607 2610 2613 2616 2619 2622 2625 2628 2631 2634 2637 2640 2643 2646 2649 2652 2655 2658 2661 2664 2667 2670 2673 2676 2679 2682 2685 2688 2691 2694 2697 2700 2703 2706 2709 2712 2715 2718 2721 2724 2727 2730 2733 2736 2739 2742 2745 2748 2751 2754 2757 2760 2763 2766 2769 2772 2775 2778 2781 2784 2787 2790 2793 2796 2799 2802 2805 2808 2811 2814 2817 2820 2823 2826 2829 2832 2835 2838 2841 2844 2847 2850 2853 2856 2859 2862 2865 2868 2871 2874 2877 2880 2883 2886 2889 2892 2895 2898 2901 2904 2907 2910 2913 2916 2919 2922 2925 2928 2931 2934 2937 2940 2943 2946 2949 2952 2955 2958 2961 2964 2967 2970 2973 2976 2979 2982 2985 2988 2991 2994 2997 3000 3003 3006 3009 3012 3015 3018 3021 3024 3027 3030 3033 3036 3039 3042 3045 3048 3051 3054 3057 3060 3063 3066 3069 3072 3075 3078 3081 3084 3087 3090 3093 3096 3099 3102 3105 3108 3111 3114 3117 3120 3123 3126 3129 3132 3135 3138 3141 3144 3147 3150 3153 3156 3159 3162 3165 3168 3171 3174 3177 3180 3183 3186 3189 3192 3195 3198 3201 3204 3207 3210 3213 3216 3219 3222 3225 3228 3231 3234 3237 3240 3243 3246 3249 3252 3255 3258 3261 3264 3267 3270 3273 3276 3279 3282 3285 3288 3291 3294 3297 3300 3303 3306 3309 3312 3315 3318 3321 3324 3327 3330 3333 3336 3339 3342 3345 3348 3351 3354 3357 3360 3363 3366 3369 3372 3375 3378 3381 3384 3387 3390 3393 3396 3399 3402 3405 3408 3411 3414 3417 3420 3423 3426 3429 3432 3435 3438 3441 3444 3447 3450 3453 3456 3459 3462 3465 3468 3471 3474 3477 3480 3483 3486 3489 3492 3495 3498 3501 3504 3507 3510 3513 3516 3519 3522 3525 3528 3531 3534 3537 3540 3543 3546 3549 3552 3555 3558 3561 3564 3567 3570 3573 3576 3579 3582 3585 3588 3591 3594 3597 3600 3603 3606 3609 3612 3615 3618 3621 3624 3627 3630 3633 3636 3639 3642 3645 3648 3651 3654 3657 3660 3663 3666 3669 3672 3675 3678 3681 3684 3687 3690 3693 3696 3699 3702 3705 3708 3711 3714 3717 3720 3723 3726 3729 3732 3735 3738 3741 3744 3747 3750 3753 3756 3759 3762 3765 3768 3771 3774 3777 3780 3783 3786 3789 3792 3795 3798 3801 3804 3807 3810 3813 3816 3819 3822 3825 3828 3831 3834 3837 3840 3843 3846 3849 3852 3855 3858 3861 3864 3867 3870 3873 3876 3879 3882 3885 3888 3891 3894 3897 3900 3903 3906 3909 3912 3915 3918 3921 3924 3927 3930 3933 3936 3939 3942 3945 3948 3951 3954 3957 3960 3963 3966 3969 3972 3975 3978 3981 3984 3987 3990 3993 3996 3999 4002 4005 4008 4011 4014 4017 4020 4023 4026 4029 4032 4035 4038 4041 4044 4047 4050 4053 4056 4059 4062 4065 4068 4071 4074 4077 4080 4083 4086 4089 4092 4095 4098 4101 4104 4107 4110 4113 4116 4119 4122 4125 4128 4131 4134 4137 4140 4143 4146 4149 4152 4155 4158 4161 4164 4167 4170 4173 4176 4179 4182 4185 4188 4191 4194 4197 4200 4203 4206 4209 4212 4215 4218 4221 4224 4227 4230 4233 4236 4239 4242 4245 4248 4251 4254 4257 4260 4263 4266 4269 4272 4275 4278 4281 4284 4287 4290 4293 4296 4299 4302 4305 4308 4311 4314 4317 4320 4323 4326 4329 4332 4335 4338 4341 4344 4347 4350 4353 4356 4359 4362 4365 4368 4371 4374 4377 4380 4383 4386 4389 4392 4395 4398 4401 4404 4407 4410 4413 4416 4419 4422 4425 4428 4431 4434 4437 4440 4443 4446 4449 4452 4455 4458 4461 4464 4467 4470 4473 4476 4479 4482 4485 4488 4491 4494 4497 4500 4503 4506 4509 4512 4515 4518 4521 4524 4527 4530 4533 4536 4539 4542 4545 4548 4551 4554 4557 4560 4563 4566 4569 4572 4575 4578 4581 4584 4587 4590 4593 4596 4599 4602 4605 4608 4611 4614 4617 4620 4623 4626 4629 4632 4635 4638 4641 4644 4647 4650 4653 4656 4659 4662 4665 4668 4671 4674 4677 4680 4683 4686 4689 4692 4695 4698 4701 4704 4707 4710 4713 4716 4719 4722 4725 4728 4731 4734 4737 4740 4743 4746 4749 4752 4755 4758 4761 4764 4767 4770 4773 4776 4779 4782 4785 4788 4791 4794 4797 4800 4803 4806 4809 4812 4815 4818 4821 4824 4827 4830 4833 4836 4839 4842 4845 4848 4851 4854 4857 4860 4863 4866 4869 4872 4875 4878 4881 4884 4887 4890 4893 4896 4899 4902 4905 4908 4911 4914 4917 4920 4923 4926 4929 4932 4935 4938 4941 4944 4947 4950 4953 4956 4959 4962 4965 4968 4971 4974 4977 4980 4983 4986 4989 4992 4995 4998 5001 5004 5007 5010 5013 5016 5019 5022 5025 5028 5031 5034 5037 5040 5043 5046 5049 5052 5055 5058 5061 5064 5067 5070 5073 5076 5079 5082 5085 5088 5091 5094 5097 5100 5103 5106 5109 5112 5115 5118 5121 5124 5127 5130 5133 5136 5139 5142 5145 5148 5151 5154 5157 5160 5163 5166 5169 5172 5175 5178 5181 5184 5187 5190 5193 5196 5199 5202 5205 5208 5211 5214 5217 5220 5223 5226 5229 5232 5235 5238 5241 5244 5247 5250 5253 5256 5259 5262 5265 5268 5271 5274 5277 5280 5283 5286 5289 5292 5295 5298 5301 5304 5307 5310 5313 5316 5319 5322 5325 5328 5331 5334 5337 5340 5343 5346 5349 5352 5355 5358 5361 5364 5367 5370 5373 5376 5379 5382 5385 5388 5391 5394 5397 5400 5403 5406 5409 5412 5415 5418 5421 5424 5427 5430 5433 5436 5439 5442 5445 5448 5451 5454 5457 </DataArray>
<DataArray  type="UInt8"  Name="types"  format="ascii">5 5 5 5 5 5 5 5 5 5 5 5 5 5 5 5 5 5 5 5 5 5 5 5 5 5 5 5 5 5 5 5 5 5 5 5 5 5 5 5 5 5 5 5 5 5 5 5 5 5 5 5 5 5 5 5 5 5 5 5 5 5 5 5 5 5 5 5 5 5 5 5 5 5 5 5 5 5 5 5 5 5 5 5 5 5 5 5 5 5 5 5 5 5 5 5 5 5 5 5 5 5 5 5 5 5 5 5 5 5 5 5 5 5 5 5 5 5 5 5 5 5 5 5 5 5 5 5 5 5 5 5 5 5 5 5 5 5 5 5 5 5 5 5 5 5 5 5 5 5 5 5 5 5 5 5 5 5 5 5 5 5 5 5 5 5 5 5 5 5 5 5 5 5 5 5 5 5 5 5 5 5 5 5 5 5 5 5 5 5 5 5 5 5 5 5 5 5 5 5 5 5 5 5 5 5 5 5 5 5 5 5 5 5 5 5 5 5 5 5 5 5 5 5 5 5 5 5 5 5 5 5 5 5 5 5 5 5 5 5 5 5 5 5 5 5 5 5 5 5 5 5 5 5 5 5 5 5 5 5 5 5 5 5 5 5 5 5 5 5 5 5 5 5 5 5 5 5 5 5 5 5 5 5 5 5 5 5 5 5 5 5 5 5 5 5 5 5 5 5 5 5 5 5 5 5 5 5 5 5 5 5 5 5 5 5 5 5 5 5 5 5 5 5 5 5 5 5 5 5 5 5 5 5 5 5 5 5 5 5 5 5 5 5 5 5 5 5 5 5 5 5 5 5 5 5 5 5 5 5 5 5 5 5 5 5 5 5 5 5 5 5 5 5 5 5 5 5 5 5 5 5 5 5 5 5 5 5 5 5 5 5 5 5 5 5 5 5 5 5 5 5 5 5 5 5 5 5 5 5 5 5 5 5 5 5 5 5 5 5 5 5 5 5 5 5 5 5 5 5 5 5 5 5 5 5 5 5 5 5 5 5 5 5 5 5 5 5 5 5 5 5 5 5 5 5 5 5 5 5 5 5 5 5 5 5 5 5 5 5 5 5 5 5 5 5 5 5 5 5 5 5 5 5 5 5 5 5 5 5 5 5 5 5 5 5 5 5 5 5 5 5 5 5 5 5 5 5 5 5 5 5 5 5 5 5 5 5 5 5 5 5 5 5 5 5 5 5 5 5 5 5 5 5 5 5 5 5 5 5 5 5 5 5 5 5 5 5 5 5 5 5 5 5 5 5 5 5 5 5 5 5 5 5 5 5 5 5 5 5 5 5 5 5 5 5 5 5 5 5 5 5 5 5 5 5 5 5 5 5 5 5 5 5 5 5 5 5 5 5 5 5 5 5 5 5 5 5 5 5 5 5 5 5 5 5 5 5 5 5 5 5 5 5 5 5 5 5 5 5 5 5 5 5 5 5 5 5 5 5 5 5 5 5 5 5 5 5 5 5 5 5 5 5 5 5 5 5 5 5 5 5 5 5 5 5 5 5 5 5 5 5 5 5 5 5 5 5 5 5 5 5 5 5 5 5 5 5 5 5 5 5 5 5 5 5 5 5 5 5 5 5 5 5 5 5 5 5 5 5 5 5 5 5 5 5 5 5 5 5 5 5 5 5 5 5 5 5 5 5 5 5 5 5 5 5 5 5 5 5 5 5 5 5 5 5 5 5 5 5 5 5 5 5 5 5 5 5 5 5 5 5 5 5 5 5 5 5 5 5 5 5 5 5 5 5 5 5 5 5 5 5 5 5 5 5 5 5 5 5 5 5 5 5 5 5 5 5 5 5 5 5 5 5 5 5 5 5 5 5 5 5 5 5 5 5 5 5 5 5 5 5 5 5 5 5 5 5 5 5 5 5 5 5 5 5 5 5 5 5 5 5 5 5 5 5 5 5 5 5 5 5 5 5 5 5 5 5 5 5 5 5 5 5 5 5 5 5 5 5 5 5 5 5 5 5 5 5 5 5 5 5 5 5 5 5 5 5 5 5 5 5 5 5 5 5 5 5 5 5 5 5 5 5 5 5 5 5 5 5 5 5 5 5 5 5 5 5 5 5 5 5 5 5 5 5 5 5 5 5 5 5 5 5 5 5 5 5 5 5 5 5 5 5 5 5 5 5 5 5 5 5 5 5 5 5 5 5 5 5 5 5 5 5 5 5 5 5 5 5 5 5 5 5 5 5 5 5 5 5 5 5 5 5 5 5 5 5 5 5 5 5 5 5 5 5 5 5 5 5 5 5 5 5 5 5 5 5 5 5 5 5 5 5 5 5 5 5 5 5 5 5 5 5 5 5 5 5 5 5 5 5 5 5 5 5 5 5 5 5 5 5 5 5 5 5 5 5 5 5 5 5 5 5 5 5 5 5 5 5 5 5 5 5 5 5 5 5 5 5 5 5 5 5 5 5 5 5 5 5 5 5 5 5 5 5 5 5 5 5 5 5 5 5 5 5 5 5 5 5 5 5 5 5 5 5 5 5 5 5 5 5 5 5 5 5 5 5 5 5 5 5 5 5 5 5 5 5 5 5 5 5 5 5 5 5 5 5 5 5 5 5 5 5 5 5 5 5 5 5 5 5 5 5 5 5 5 5 5 5 5 5 5 5 5 5 5 5 5 5 5 5 5 5 5 5 5 5 5 5 5 5 5 5 5 5 5 5 5 5 5 5 5 5 5 5 5 5 5 5 5 5 5 5 5 5 5 5 5 5 5 5 5 5 5 5 5 5 5 5 5 5 5 5 5 5 5 5 5 5 5 5 5 5 5 5 5 5 5 5 5 5 5 5 5 5 5 5 5 5 5 5 5 5 5 5 5 5 5 5 5 5 5 5 5 5 5 5 5 5 5 5 5 5 5 5 5 5 5 5 5 5 5 5 5 5 5 5 5 5 5 5 5 5 5 5 5 5 5 5 5 5 5 5 5 5 5 5 5 5 5 5 5 5 5 5 5 5 5 5 5 5 5 5 5 5 5 5 5 5 5 5 5 5 5 5 5 5 5 5 5 5 5 5 5 5 5 5 5 5 5 5 5 5 5 5 5 5 5 5 5 5 5 5 5 5 5 5 5 5 5 5 5 5 5 5 5 5 5 5 5 5 5 5 5 5 5 5 5 5 5 5 5 5 5 5 5 5 5 5 5 5 5 5 5 5 5 5 5 5 5 5 5 5 5 5 5 5 5 5 5 5 5 5 5 5 5 5 5 5 5 5 5 5 5 5 5 5 5 5 5 5 5 5 5 5 5 5 5 5 5 5 5 5 5 5 5 5 5 5 5 5 5 5 5 5 5 5 5 5 5 5 5 5 5 5 5 5 5 5 5 5 5 5 5 5 5 5 5 5 5 5 5 5 5 5 5 5 5 5 5 5 5 5 5 5 5 5 5 5 5 5 5 5 5 5 5 5 5 5 5 5 5 5 5 5 5 5 5 5 5 5 5 5 5 5 5 5 5 5 5 5 5 5 5 5 5 5 5 5 5 5 5 5 5 5 5 5 5 5 5 5 5 5 5 5 5 5 5 5 5 5 5 5 5 5 5 5 5 5 5 5 5 5 5 5 5 5 5 5 5 5 5 5 5 5 5 5 5 5 5 5 5 5 5 5 5 5 5 5 5 5 5 5 5 5 5 5 5 5 5 5 5 5 5 5 5 5 5 5 5 5 5 5 5 5 5 5 5 5 5 5 5 5 5 5 5 5 5 5 5 5 5 5 5 5 5 5 5 5 5 5 5 5 5 5 5 5 5 5 5 5 5 5 5 5 5 5 5 5 5 5 5 5 5 5 5 5 5 5 5 5 5 5 5 5 5 5 5 5 5 5 5 5 5 5 5 5 5 5 5 5 5 5 5 5 5 5 5 5 5 5 5 5 5 5 5 5 5 5 5 5 5 5 5 5 5 5 5 5 5 5 5 5 5 5 5 5 5 5 5 5 5 5 5 5 5 5 5 5 5 5 5 5 5 5 5 5 5 5 5 5 5 5 5 5 5 5 5 5 5 5 5 5 5 5 5 5 5 5 5 5 5 5 5 5 5 5 5 5 5 5 5 5 5 5 5 5 5 5 5 5 5 5 5 5 5 5 5 </DataArray>
</Cells>
<CellData  Scalars="f">
<DataArray  type="Float64"  Name="f"  format="ascii">0 0 0 0 0 0 0 0 0 0 0 0 0 0 0 0 0 0 0 0 0 0 0 0 0 0 0 0 0 0 0 0 0 0 0 0 0 0 0 0 0 0 0 0 0 0 0 0 0 0 0 0 0 0 0 0 0 0 0 0 0 0 0 0 0 0 0 0 0 0 0 0 0 0 0 0 0 0 0 0 0 0 0 0 0 0 0 0 0 0 0 0 0 0 0 0 0 0 0 0 0 0 0 0 0 0 0 0 0 0 0 0 0 0 0 0 0 0 0 0 0 0 0 0 0 0 0 0 0 0 0 0 0 0 0 0 0 0 0 0 0 0 0 0 0 0 0 0 0 0 0 0 0 0 0 0 0 0 0 0 0 0 0 0 0 0 0 0 0 0 0 0 0 0 0 0 0 0 0 0 0 0 0 0 0 0 0 0 0 0 0 0 0 0 0 0 0 0 0 0 0 0 0 0 0 0 0 0 0 0 0 0 0 0 0 0 0 0 0 0 0 0 0 0 0 0 0 0 0 0 0 0 0 0 0 0 0 0 0 0 0 0 0 0 0 0 0 0 0 0 0 0 0 0 0 0 0 0 0 0 0 0 0 0 0 0 0 0 0 0 0 0 0 0 0 0 0 0 0 0 0 0 0 0 0 0 0 0 0 0 0 0 0 0 0 0 0 0 0 0 0 0 0 0 0 0 0 0 0 0 0 0 0 0 0 0 0 0 0 0 0 0 0 0 0 0 0 0 0 0 0 0 0 0 0 0 0 0 0 0 0 0 0 0 0 0 0 0 0 0 0 0 0 0 0 0 0 0 0 0 0 0 0 0 0 0 0 0 0 0 0 0 0 0 0 0 0 0 0 0 0 0 0 0 0 0 0 0 0 0 0 0 0 0 0 0 0 0 0 0 0 0 0 0 0 0 0 0 0 0 0 0 0 0 0 0 0 0 0 0 0 0 0 0 0 0 0 0 0 0 0 0 0 0 0 0 0 0 0 0 0 0 0 0 0 0 0 0 0 0 0 0 0 0 0 0 0 0 0 0 0 0 0 0 0 0 0 0 0 0 0 0 0 0 0 0 0 0 0 0 0 0 0 0 0 0 0 0 0 0 0 0 0 0 0 0 0 0 0 0 0 0 0 0 0 0 0 0 0 0 0 0 0 0 0 0 0 0 0 0 0 0 0 0 0 0 0 0 0 0 0 0 0 0 0 0 0 0 0 0 0 0 0 0 0 0 0 0 0 0 0 0 0 0 0 0 0 0 0 0 0 0 0 0 0 0 0 0 0 0 0 0 0 0 0 0 0 0 0 0 0 0 0 0 0 0 0 0 0 0 0 0 0 0 0 0 0 0 0 0 0 0 0 0 0 0 0 0 0 0 0 0 0 0 0 0 0 0 0 0 0 0 0 0 0 0 0 0 0 0 0 0 0 0 0 0 0 0 0 0 0 0 0 0 0 0 0 0 0 0 0 0 0 0 0 0 0 0 0 0 0 0 0 0 0 0 0 0 0 0 0 0 0 0 0 0 0 0 0 0 0 0 0 0 0 0 0 0 0 0 0 0 0 0 0 0 0 0 0 0 0 0 0 0 0 0 0 0 0 0 0 0 0 0 0 0 0 0 0 0 0 0 0 0 0 0 0 0 0 0 0 0 0 0 0 0 0 0 0 0 0 0 0 0 0 0 0 0 0 0 0 0 0 0 0 0 0 0 0 0 0 0 0 0 0 0 0 0 0 0 0 0 0 0 0 0 0 0 0 0 0 0 0 0 0 0 0 0 0 0 0 0 0 0 0 0 0 0 0 0 0 0 0 0 0 0 0 0 0 0 0 0 0 0 0 0 0 0 0 0 0 0 0 0 0 0 0 0 0 0 0 0 0 0 0 0 0 0 0 0 0 0 0 0 0 0 0 0 0 0 0 0 0 0 0 0 0 0 0 0 0 0 0 0 0 0 0 0 0 0 0 0 0 0 0 0 0 0 0 0 0 0 0 0 0 0 0 0 0 0 0 0 0 0 0 0 0 0 0 0 0 0 0 0 0 0 0 0 0 0 0 0 0 0 0 0 0 0 0 0 0 0 0 0 0 0 0 0 0 0 0 0 0 0 0 0 0 0 0 0 0 0 0 0 0 0 0 0 0 0 0 0 0 0 0 0 0 0 0 0 0 0 0 0 0 0 0 0 0 0 0 0 0 0 0 0 0 0 0 0 0 0 0 0 0 0 0 0 0 0 0 0 0 0 0 0 0 0 0 0 0 0 0 0 0 0 0 0 0 0 0 0 0 0 0 0 0 0 0 0 0 0 0 0 0 0 0 0 0 0 0 0 0 0 0 0 0 0 0 0 0 0 0 0 0 0 0 0 0 0 0 0 0 0 0 0 0 0 0 0 0 0 0 0 0 0 0 0 0 0 0 0 0 0 0 0 0 0 0 0 0 0 0 0 0 0 0 0 0 0 0 0 0 0 0 0 0 0 0 0 0 0 0 0 0 0 0 0 0 0 0 0 0 0 0 0 0 0 0 0 0 0 0 0 0 0 0 0 0 0 0 0 0 0 0 0 0 0 0 0 0 0 0 0 0 0 0 0 0 0 0 0 0 0 0 0 0 0 0 0 0 0 0 0 0 0 0 0 0 0 0 0 0 0 0 0 0 0 0 0 0 0 0 0 0 0 0 0 0 0 0 0 0 0 0 0 0 0 0 0 0 0 0 0 0 0 0 0 0 0 0 0 0 0 0 0 0 0 0 0 0 0 0 0 0 0 0 0 0 0 0 0 0 0 0 0 0 0 0 0 0 0 0 0 0 0 0 0 0 0 0 0 0 0 0 0 0 0 0 0 0 0 0 0 0 0 0 0 0 0 0 0 0 0 0 0 0 0 0 0 0 0 0 0 0 0 0 0 0 0 0 0 0 0 0 0 0 0 0 0 0 0 0 0 0 0 0 0 0 0 0 0 0 0 0 0 0 0 0 0 0 0 0 0 0 0 0 0 0 0 0 0 0 0 0 0 0 0 0 0 0 0 0 0 0 0 0 0 0 0 0 0 0 0 0 0 0 0 0 0 0 0 0 0 0 0 0 0 0 0 0 0 0 0 0 0 0 0 0 0 0 0 0 0 0 0 0 0 0 0 0 0 0 0 0 0 0 0 0 0 0 0 0 0 0 0 0 0 0 0 0 0 0 0 0 0 0 0 0 0 0 0 0 0 0 0 0 0 0 0 0 0 0 0 0 0 0 0 0 0 0 0 0 0 0 0 0 0 0 0 0 0 0 0 0 0 0 0 0 0 0 0 0 0 0 0 0 0 0 0 0 0 0 0 0 0 0 0 0 0 0 0 0 0 0 0 0 0 0 0 0 0 0 0 0 0 0 0 0 0 0 0 0 0 0 0 0 0 0 0 0 0 0 0 0 0 0 0 0 0 0 0 0 0 0 0 0 0 0 0 0 0 0 0 0 0 0 0 0 0 0 0 0 0 0 0 0 0 0 0 0 0 0 0 0 0 0 0 0 0 0 0 0 0 0 0 0 0 0 0 0 0 0 0 0 0 0 0 0 0 0 0 0 0 0 0 0 0 0 0 0 0 0 0 0 0 0 0 0 0 0 0 0 0 0 0 0 0 0 0 0 0 0 0 0 0 0 0 0 0 0 0 0 0 0 0 0 0 0 0 0 0 0 0 0 0 0 0 0 0 0 0 0 0 0 0 0 0 0 0 0 0 0 0 0 0 0 0 0 0 0 0 0 0 0 0 0 0 0 0 0 0 0 0 0 0 0 0 0 0 0 0 0 0 0 0 0 0 0 0 0 0 0 0 0 0 0 0 0 0 0 0 0 0 0 0 0 0 0 0 0 0 0 0 0 0 0 0 0 0 0 0 0 0 0 0 0 0 0 0 0 0 0 0 0 0 0 0 0 0 0 0 0 0 0 0 0 0 0 0 0 0 0 0 0 0 0 0 0 0 0 0 0 0 0 0 0 0 0 0 0 0 0 0 0 0 0 0 0 0 0 0 0 0 0 0 0 0 0 0 0 0 0 0 0 0 0 0 0 0 0 0 0 0 0 0 0 0 0 0 0 0 0 0 0 0 0 0 0 </DataArray>
</CellData>
</Piece>
</UnstructuredGrid>
</VTKFile>