<?xml version="1.0"?>
<VTKFile type="UnstructuredGrid"  version="0.1"  >
<UnstructuredGrid>
<Piece  NumberOfPoints="290" NumberOfCells="1813">
<Points>
<DataArray  type="Float64"  NumberOfComponents="3"  format="ascii">0.7852043697867427 -19.3894993133955 -10.93206605156937  0.5811939332255792 -19.30031261548908 -10.89836271381764  0.7026266266267067 -19.11621635177167 -10.91751113304413  0.7338618256007807 -19.33126251819026 -10.71692690458651  0.8573262324155675 -20.10918598195311 -10.81242572169389  1.001517091427718 -19.93050255947243 -10.88597827302995  0.8090871295865437 -19.9101300126984 -10.61040796194993  1.021768629003149 -19.94634195446827 -10.62727926563329  1.793100083083821 -18.84897142544151 -10.51490142455017  1.747238605707199 -18.92220968331189 -10.63265296800651  1.613603263017777 -19.04705371229595 -10.44338382564877  1.536937734543015 -18.90131069670344 -10.39914780539596  1.034447156884768 -18.98063062003331 -10.90636958285484  0.9210016661384999 -19.16143756438643 -10.93447907949021  0.9772629172618121 -19.00176452602188 -10.7138201918854  1.059784380154717 -19.15835372078862 -10.72584493763838  1.193373118410645 -18.45756124362073 -10.23333007224581  1.260843456634589 -18.49499176850402 -10.0998310434773  1.383184574022284 -18.3219069564327 -10.15586659362411  1.430760766557948 -18.3986382228012 -10.25546180593686  1.635456310962034 -18.77432432945016 -10.59985860895337  0.5668800148186309 -19.44563847475228 -10.67388239451607  0.4863697370010853 -19.27301243818826 -10.6785217345699  1.278601104597663 -18.38313543315448 -10.47905951081316  1.137054697328048 -18.2847027186726 -10.54763279242393  1.206271269917362 -18.24847519356429 -10.42789985792428  1.086589812928365 -18.41352199784485 -10.3590058806396  1.166244028587991 -18.11932283003109 -10.36767279005513  1.248471906443134 -18.22422656836966 -10.32615947589168  1.008708939222254 -18.21314917934021 -10.26424510107141  0.9842189687828565 -18.27851715696833 -10.37278194127427  1.121838582174803 -18.15734547925517 -10.47555503813996  1.119337511164162 -17.98787851053903 -10.35926644356464  0.9531489778212164 -18.08478914243964 -10.26438517775269  1.001112131472702 -18.00516478734842 -10.37054175069852  1.62336494671225 -18.5411574493569 -10.1409389130781  1.497098802057636 -18.76368831915142 -10.20435742897291  1.663938534391792 -18.60619891138846 -10.28166867864028  1.528599498868527 -18.48864169341614 -10.27517531995351  0.2355720778469367 -19.04829688444062 -10.8405489130837  0.2008086860419568 -18.84682818985968 -10.65204344928948  0.4255680038838939 -18.89532839288618 -10.70146103179247  0.342541408851279 -19.09655608230784 -10.66100184267935  2.167621587797422 -19.06009536165437 -10.08548556825316  1.758281837931008 -19.1127788074667 -9.990942102969669  1.792466952404938 -19.18029926512445 -10.18039147332736  1.841122269875117 -19.25849300020492 -10.06082511112685  1.901005660149735 -18.83312553181084 -10.29095048203862  1.981567973742237 -18.89296389822175 -10.14961095573352  1.691571623900685 -19.00038357993461 -10.14950712203494  1.183265793618242 -19.60902801130229 -10.69987747714867  0.9307840987397351 -19.54091115794188 -10.70724614084464  0.971663747308022 -19.63942240971433 -10.93389171920355  1.188594165190424 -19.5389897927398 -10.94264928186988  0.4641943691974862 -19.10675370498395 -10.88703894858226  0.5420714494507347 -19.96242967396829 -10.79270127043554  0.6941151792833442 -20.09641108463198 -10.52057476588586  0.8488587967161664 -20.07207156187631 -10.5655084700311  1.163270976457049 -18.3856522939637 -10.13600914797293  1.083740454442232 -18.27715662204218 -10.1555879842324  1.314926999638923 -18.21744267186783 -10.06975188816611  1.289099831113991 -18.22486768946925 -10.21367517016827  1.460079020190191 -18.75264627465158 -10.69963861977089  1.422205050743175 -18.86484983368972 -10.78630481935614  1.359165828462336 -18.98429045504892 -10.60967767735647  1.236680697515768 -18.86494523690045 -10.60971966573383  0.7394396130328009 -18.88012498695225 -10.90484128780013  0.6769555032081908 -18.89576976341141 -10.71812259409096  0.8315718890846129 -18.99683072736737 -10.72304722265352  0.7465981288751214 -19.10274987252238 -10.72681604969532  1.088670106466504 -18.33992709575811 -10.25876276196776  1.341692992047864 -18.32180589355905 -10.28987660253148  0.8379244894704203 -19.02662006474067 -10.91837725985192  0.8386432362583816 -18.83144311677341 -10.69901744572918  0.9434539103693915 -18.17415568163661 -10.35388328775165  0.9217026327607055 -18.84377887842797 -10.8836841773772  0.4752690277368956 -18.42357304451257 -10.93363808340631  0.587314436677067 -18.32861246481643 -10.90806454291704  0.5536356196284846 -18.35401435462182 -10.70942170380737  0.5080317006635141 -18.30133965839304 -10.82636544534976  0.5659092115522538 -19.10019308006082 -10.70998051867975  0.6266520493686004 -18.70295209523769 -10.90689208487111  0.7281399424273762 -18.67806506539836 -10.69110222733374  0.8077812609280861 -18.69752107740396 -10.87588630437322  0.7363321778159917 -18.58885128489328 -10.87825387901625  0.5974355278957706 -18.51501491442256 -10.70014009707234  1.371238009591922 -19.31722387182028 -10.68421457188681  1.162298648725212 -19.41589773658183 -10.71939799064342  1.386359222862173 -19.43927654949686 -10.92589688118078  1.260271733279472 -19.30518931989874 -10.93970290085618  1.815260006850002 -19.26711150188441 -10.76765547598081  1.662344063604999 -19.21085061942841 -10.49027877121228  1.548521041805584 -19.29828886211892 -10.61016936676318  1.640982857838425 -19.3852625233522 -10.57351219289652  1.382555123368801 -19.69348591252181 -10.91882492282934  1.378738739577641 -19.59892656105038 -10.68154908656744  1.367625936780176 -19.75749114264218 -10.66853079627167  0.7786528097512392 -19.82115619643499 -10.87988171465393  0.9770338213318486 -19.75204930604769 -10.67055152085567  1.183617085350898 -19.81267771704377 -10.91198839703165  1.193683946800784 -19.85549932491381 -10.65801188978922  1.168511260973841 -18.03428704619261 -10.26997909244671  1.218477786762586 -18.13398030516331 -10.2527800100892  1.398688655373625 -18.68618301836522 -10.28173621099618  1.550601563559849 -18.56124048615581 -10.40518580862445  1.468581210685132 -18.78616760476791 -10.33977610720621  1.370717396735606 -18.73864335154604 -10.41389175633044  1.911784143594158 -18.92647109241479 -10.43988468214407  1.648533630083385 -18.98096204887549 -10.29499527447224  1.718932114020765 -19.11349288194586 -10.32498255167763  1.506425206169715 -19.46945465063829 -10.65047596966866  1.530479408973484 -19.3541531270049 -10.89229286839795  1.607353913699098 -18.90486845810132 -10.72401170801038  1.495097277772956 -18.98363931049872 -10.52140462898217  1.497126662811659 -19.13657934814976 -10.59372654490538  1.525183827360941 -19.02568252550361 -10.82070186828167  0.7990861114027139 -18.51966125402112 -10.63660000733999  0.7289832955175123 -18.32803001018451 -10.85220655089514  0.8856061503466247 -18.30947264480774 -10.76342803045645  0.8555407472527539 -18.50632680408495 -10.8274160858921  0.6396626123715704 -18.18234887245366 -10.86181204186802  0.7776662640837652 -18.18901357417319 -10.80772576077271  0.7314682491493113 -18.07592478763855 -10.75778645076598  0.7447068875285515 -18.22767168686246 -10.72004345274467  1.004065439454622 -19.31891190750749 -10.73186206669944  0.8985258070346527 -19.15870626967986 -10.73259232579843  1.029258967068493 -18.11786809480039 -10.5731544963616  0.8951958351163256 -18.27440321377941 -10.47820745876688  0.7317317824897223 -19.72218296286497 -10.64920994344623  0.6840733835098916 -19.5450268350585 -10.67968475723104  0.7727777436753964 -19.59387247847349 -10.91630984501439  0.5402885194609285 -19.88448361097873 -10.55843087974078  1.920587425693516 -19.03690863225477 -10.55366366405753  1.724065817416995 -19.39832749741475 -10.83795484632114  0.4682454407709771 -18.26746174138571 -10.90732322860314  1.293290395848485 -18.32380899165505 -10.3834705145159  1.640909596936736 -19.20953409828133 -10.82793071953207  1.320574382015024 -19.13433900495951 -10.67414778847244  1.166525268496806 -19.14510463842516 -10.93136904819937  1.412076474452886 -19.17980483520854 -10.8997597046979  1.18596929972305 -19.22660657957576 -10.71642949880165  1.382148242951166 -18.30233698021152 -10.04078176440463  1.557891429023179 -18.63721882239086 -10.51876874691812  1.40892495954254 -18.85813160142794 -10.49969553748203  1.732115875432526 -18.64139122966552 -10.16510144296087  1.847639823266678 -19.30257201988334 -9.906001763293739  1.016371456040898 -18.15634898639534 -10.16277153517018  1.055091811630277 -18.1979669380295 -10.07576385811375  1.253737927384349 -18.14726245108843 -10.15246958382357  1.111665282579002 -18.05744084108756 -10.09391921214175  1.109310246525998 -17.86317992711698 -10.00257290810406  1.007963007125966 -17.87329096224999 -10.00022664315494  1.081387093943076 -17.96767336564567 -9.931986236330658  1.041020628079571 -17.88713235413291 -10.04785710638718  0.9765114784044168 -18.39073695463084 -10.46616517483023  0.31104387225419 -18.49784990745662 -10.9395335110873  0.4278867001135322 -18.42114482388304 -10.73769995562626  0.3904818454209403 -18.36583216282635 -10.84253209414718  1.132298977167314 -17.88931761512133 -10.10931710200155  1.020405299231541 -17.86335863757812 -10.09570217774814  0.4315840776561801 -18.56164998014369 -10.72437574702738  0.3517837816643647 -18.70206907626435 -10.71066329997178  0.4640867575457526 -18.79096960279093 -10.91237426244439  0.3236146276130134 -18.6893850164215 -10.91664903142724  0.1521988273319654 -18.63531831413944 -10.9004102939016  0.224329096909453 -18.65026818945916 -10.69621873538536  0.2622661857507969 -18.82841600331694 -10.88560451115009  1.564346989790273 -18.48371304210585 -10.02924611040867  1.425745187526831 -18.67271017608959 -10.12248527900755  1.35796024478248 -18.59398103584134 -10.0161539359473  1.45860917401949 -18.70714896516831 -9.985848087483152  1.318550264515627 -18.58099857322212 -10.21219449810895  0.1425992109220849 -18.50630704819975 -10.70877880230316  0.09398821351945244 -18.55751563797128 -10.79351472907065  0.2632357369835738 -18.52365039135104 -10.82651205988888  0.9746486374854957 -18.04343987757729 -10.15284756822884  1.417274369726961 -18.53901563211808 -10.52534959727376  0.9398732699625614 -18.68349735216129 -10.63676647102129  1.109947166628807 -18.63477344933221 -10.53130836784367  1.048303051257207 -18.57323779456356 -10.76897177650146  1.116579564222586 -18.75290024095601 -10.60141996625245  1.240918191128736 -18.09568456368197 -10.0755883266887  1.170060249874881 -19.01166092330612 -10.6862905260057  1.692198281003537 -18.69207948985074 -10.43028893192334  1.817425473913606 -18.79295711908028 -10.39576224753504  1.580483956686679 -18.86646038298473 -10.22485328150901  1.013335280895868 -17.92204379630397 -10.42920897134302  1.020884539843029 -17.98333046392774 -10.53055990585889  0.9297766454705206 -18.01082656349318 -10.46503605856502  0.9073476802978887 -18.13521149756523 -10.70220806239276  0.8218950072088028 -18.19350964130863 -10.52226250554428  0.8948136898091574 -18.08491286454684 -10.56914508296406  0.8076647002844741 -18.14198745934331 -10.64503209806908  1.208553798893409 -18.07347206543981 -10.18273994249112  1.007472195251144 -18.26251368684194 -10.65946247240249  0.6091974350550546 -18.2667180857312 -10.77687245115629  0.3703761128484244 -18.9613971247132 -10.88529330750148  0.04001598699043599 -18.8125437247568 -10.82008954090867  0.3758945873052472 -19.28546237246756 -10.847005154839  0.4216216884243796 -19.4506878876213 -10.63334254680455  0.5541761925197785 -19.50813827302873 -10.87709107303025  0.2904558961681248 -19.47592666108143 -10.79000238795359  1.136273380013218 -17.93820439389625 -10.27022169317741  1.16677132002231 -17.96380349374787 -10.18748006359228  1.043584314782408 -17.97279004512286 -10.25518368255974  1.786341022933846 -19.2608663319367 -10.34062018760379  1.076154881283464 -17.88169772076632 -10.19156285684938  1.037058779829221 -17.94488100591365 -10.14656532793578  1.321876009215082 -19.47959433730174 -10.69724165217237  0.487657956993337 -19.64257451897457 -10.61399351497521  0.6089384064466182 -19.72591426513762 -10.86437420908785  1.267912212492865 -18.94930113457359 -10.86901435513051  1.096844314144209 -18.8250659982205 -10.85400452310494  0.4490451485959338 -18.26517938085939 -10.75293446221787  1.233901193679366 -18.45170159072036 -10.59224105402038  1.256741511373877 -18.62566704134326 -10.3980104875137  1.100375933717889 -18.51548824801992 -10.44615607455204  0.4005362193262414 -19.69213170258077 -10.80394981890332  0.5590915713166699 -18.92266686436779 -10.9080399345783  0.5486436561950575 -18.70806801625692 -10.71445387496904  1.410703221782726 -18.44132266159328 -10.39577536336176  0.8831625911206875 -18.14513074154478 -10.43278178526091  1.694853177347474 -18.60164160202076 -10.00284722553274  1.528026901646484 -18.7827687030268 -10.08925501644716  1.609039470076631 -18.88238510048039 -10.06284988211527  0.9900625813382723 -18.03789136537385 -10.05555227786134  1.754898637019066 -19.08492615483577 -10.72250075517668  0.9755568128733287 -17.94562815402102 -10.03466560018412  1.182147404920404 -17.92790704805616 -10.01524784571867  0.5912532763678729 -18.21132725642632 -10.69363173621851  1.48103437430931 -18.65574182166289 -10.60492468445601  1.265090931121307 -18.74421524929261 -10.51376669844944  0.6946178336724573 -18.33138572506825 -10.6459761013667  0.8401377357293831 -18.34177448090922 -10.55638136189737  0.9676408911413779 -18.52266168875159 -10.55191943454794  1.00593767826599 -18.42399263954916 -10.72835875588943  0.9934368685231466 -18.6904950547519 -10.8311566435143  1.154381822501293 -18.52765963752259 -10.69527074966696  1.496458012332259 -18.43086571460977 -10.1528667044443  1.456529117044341 -18.38201275352785 -10.04659787562677  1.808933510267241 -18.74344382891823 -9.827378182944337  1.822960424914692 -18.71944230983897 -10.06740595576942  1.711636851301697 -18.64011689587267 -9.854597842920464  1.536725662425988 -18.81472456633722 -9.902130383805989  0.8049299575566761 -18.03383936561197 -10.53153521272438  0.8691251772232014 -17.9961393994068 -10.42417791589218  0.9175994200186516 -17.93782871294839 -10.51743763249219  0.7317462531307788 -18.16411029141963 -10.59902613050909  1.271538859301899 -18.13949000941608 -9.957955041872104  1.088392431795276 -18.24713696209362 -9.995138931722455  1.331572171109532 -18.60990843002958 -10.65585111202539  1.041106222515206 -18.85773936884556 -10.66955963616719  0.3874109294961137 -18.38395359719271 -10.94453775959615  0.2603910878355192 -18.30681914760285 -10.82614793083369  0.9327935312282142 -18.00497495151518 -10.61662802785071  0.7987021390047646 -18.00814030187369 -10.65259372658935  0.9560622295526451 -17.94496869236648 -10.22911658829582  0.6304830569860892 -20.27778515075201 -10.70161577352109  1.20067984008399 -18.52041401329664 -10.3324522708883  1.66037519423246 -18.96410825371874 -9.961613616259386  1.103614238807043 -18.38890283564759 -10.64537756132517  1.033605781359886 -19.35928477862079 -10.95079038619298  1.950743911986941 -18.87409980381593 -9.921429671067145  1.698871558136643 -19.06184160643348 -9.843786216664929  1.086415595885036 -18.04153751485273 -10.45722752583455  0.9001352595624049 -18.06819348275859 -10.37244789686978  1.041703210347856 -17.89569259795001 -10.30228507340698  0.9297216374592649 -17.96013461482404 -10.33098428628438  2.062244522755453 -19.05104059120902 -9.737594097671145  1.606295144381789 -18.93921017725529 -9.805298753384928  1.593822647482757 -19.57891039232888 -10.89371990609807  1.033235073019134 -18.13732586646728 -9.98933353144418  0.9953826130970325 -18.03240432798165 -9.957115366304151  0.6402075390432483 -18.49468177339713 -10.89550004129675  2.02149052153054 -18.98996336549861 -10.34904505975433  1.773308129476949 -18.70287613116217 -10.27796225029133  1.016199220889381 -18.11997631763639 -10.08669823568808  1.194580642409096 -17.99526537039498 -10.09870172766326  1.233047367226602 -18.72378525976421 -10.77657567990113  0.3030808559362797 -18.52614151825296 -10.72836947485192  1.216533451929108 -18.02234559082663 -9.994159758539594  0.4702205871949106 -18.5958986166529 -10.92522723403711  0.141404434803772 -18.66071814472372 -10.66975060587034  1.861525678744922 -19.33229685357403 -10.21274741449038  0.1355025821524545 -18.42540042681992 -10.90808792036531  1.595217610203857 -18.52895100936937 -9.873926985820377  1.957349238924035 -19.23950895518224 -10.68350426157925  1.525979222729505 -19.64932738083759 -10.64837060398668  0.9680635590707868 -17.93931738441302 -10.12746356134213  0.5121853977723081 -18.16992777130546 -10.80774238321066  </DataArray>
</Points>
<Cells>
<DataArray  type="UInt32"  Name="connectivity"  format="ascii">0 1 2  0 1 3  0 1 200  0 2 3  0 13 2  0 125 2  0 51 3  0 124 3  0 125 3  0 129 3  0 3 200  0 13 124  0 13 125  0 261 13  0 51 52  0 51 124  0 51 129  0 51 130  0 261 51  0 52 130  0 261 52  0 124 125  0 261 124  0 129 130  0 129 200  0 130 200  1 2 3  54 1 2  1 2 80  1 21 3  1 3 22  1 3 80  1 3 200  1 21 22  1 198 21  1 21 200  54 1 22  1 22 80  1 198 22  54 1 80  54 1 198  1 198 200  2 69 3  2 3 80  125 2 3  13 2 72  13 125 2  54 2 80  218 54 2  66 2 69  66 2 72  218 66 2  2 69 72  2 69 80  125 2 69  218 2 69  125 2 72  218 2 80  21 3 22  129 21 3  21 3 200  3 22 80  51 124 3  51 129 3  69 3 80  125 69 3  124 125 3  129 3 200  4 5 6  4 5 7  4 97 5  4 6 7  4 55 6  4 6 57  4 97 6  4 7 57  4 55 57  4 55 97  4 55 257  4 257 57  5 6 7  97 5 6  5 98 6  5 98 7  5 100 7  97 5 52  5 52 98  5 99 52  97 5 98  5 99 98  5 100 98  5 99 100  6 7 57  98 6 7  55 56 6  55 6 57  55 97 6  55 128 6  55 131 6  56 6 57  56 131 6  97 98 6  97 128 6  98 128 6  128 131 6  100 98 7  8 9 10  8 9 11  8 9 20  8 132 9  8 10 11  8 107 10  8 10 108  8 132 10  8 20 11  8 108 11  8 183 11  8 184 11  8 183 20  8 107 108  8 132 107  8 107 184  8 184 108  8 183 184  9 10 11  9 10 113  9 10 114  132 9 10  9 226 10  9 20 11  9 11 113  9 20 112  9 20 113  9 112 113  9 112 114  9 226 112  9 113 114  9 226 114  132 9 226  10 108 11  10 11 113  10 109 91  10 91 114  132 10 91  226 10 91  107 10 108  107 10 109  132 107 10  10 108 109  132 10 109  10 113 114  226 10 114  132 226 10  20 11 113  142 20 11  20 11 143  183 20 11  142 11 105  11 105 143  183 11 105  11 185 105  184 108 11  108 11 185  11 113 143  142 11 143  142 183 11  183 184 11  183 11 185  184 11 185  12 13 14  12 13 15  12 13 72  12 138 13  12 14 15  12 14 72  12 14 75  12 14 182  12 14 212  12 138 15  12 182 15  12 72 75  12 75 212  12 138 182  12 138 211  12 211 182  12 182 212  12 211 212  13 14 15  13 14 72  13 14 125  13 15 124  13 15 125  138 13 15  261 13 15  13 125 72  13 124 125  261 13 124  138 261 13  14 15 125  14 182 15  14 68 72  14 73 68  14 68 75  14 125 68  14 72 75  14 125 72  14 73 75  14 251 73  14 75 212  14 251 75  14 182 212  14 251 182  14 251 212  15 124 125  15 124 140  261 15 124  138 15 140  138 182 15  138 261 15  182 15 140  261 15 140  16 17 18  16 17 19  58 16 17  16 17 171  16 18 19  58 16 18  16 18 71  16 19 71  16 19 171  16 19 258  70 16 26  16 135 26  16 26 258  58 70 16  58 16 71  70 16 71  70 16 135  16 135 71  16 258 71  16 135 258  16 171 258  17 18 19  58 17 18  17 18 141  17 18 238  17 18 239  17 19 171  17 238 19  58 17 141  17 141 239  169 17 171  169 17 238  169 17 239  17 238 171  17 238 239  18 19 71  18 238 19  58 60 18  58 18 61  58 18 71  58 18 141  60 18 61  60 18 141  18 61 71  18 141 239  18 238 239  38 19 171  38 220 19  38 238 19  220 19 71  19 258 71  220 19 171  238 19 171  19 171 258  220 19 258  20 112 62  20 62 113  20 62 143  230 20 62  20 112 113  20 113 143  142 20 143  142 183 20  142 230 20  230 20 143  198 21 22  21 199 22  129 21 200  209 129 21  198 21 199  198 21 200  21 199 200  209 21 199  209 21 200  54 22 42  22 42 80  198 22 42  54 22 80  54 198 22  198 199 22  23 24 25  23 24 26  214 23 24  23 24 216  23 25 26  23 25 135  23 135 26  23 216 26  23 26 258  23 220 135  23 135 258  214 23 176  23 176 215  23 220 176  214 23 215  214 23 216  23 215 216  23 220 215  23 215 258  23 216 258  23 220 258  24 25 26  24 25 30  24 25 31  24 26 30  24 154 26  24 216 26  24 30 31  24 30 127  24 154 30  24 126 31  24 31 127  24 126 127  24 194 126  24 154 127  24 194 127  24 154 194  24 216 154  24 260 154  24 260 194  214 24 216  214 24 260  24 260 216  25 26 30  25 70 26  25 135 26  25 27 28  25 27 29  25 27 30  25 27 31  25 28 29  25 70 28  25 135 28  25 29 30  25 70 29  25 30 31  25 70 30  25 70 135  70 26 30  154 26 30  70 135 26  135 26 258  216 154 26  216 26 258  27 28 29  27 102 28  27 29 30  27 33 29  27 29 74  27 101 29  27 102 29  27 30 31  27 30 74  27 31 74  264 27 31  32 27 33  32 27 34  32 27 101  32 264 27  27 33 34  27 33 74  27 33 101  27 74 34  264 27 34  264 27 74  27 101 102  70 28 29  102 28 29  70 61 28  61 28 71  61 102 28  70 28 71  70 102 28  70 135 28  135 28 71  70 29 30  29 30 74  33 29 74  33 101 29  146 33 29  59 70 29  59 102 29  59 146 29  70 102 29  101 102 29  146 101 29  146 102 29  30 31 74  30 31 127  30 31 221  30 221 74  154 30 127  30 127 221  31 221 74  264 31 74  126 31 127  126 31 221  264 126 31  31 127 221  264 31 221  32 33 34  32 33 101  32 33 204  32 186 34  32 34 204  32 264 34  32 266 34  32 202 101  32 101 204  32 264 186  32 266 186  32 202 204  32 202 266  32 266 204  33 74 34  33 34 204  33 265 34  33 267 34  33 265 74  146 33 101  175 33 101  33 101 204  146 175 33  175 33 204  175 33 256  33 256 204  33 267 204  33 256 267  33 267 265  264 74 34  265 74 34  186 187 34  186 188 34  186 245 34  264 186 34  266 186 34  186 267 34  187 188 34  264 187 34  245 188 34  264 188 34  265 188 34  266 34 204  267 34 204  245 265 34  245 267 34  264 265 34  267 265 34  266 267 34  35 36 37  35 36 38  35 36 144  35 36 168  35 36 223  35 37 38  35 37 144  35 168 38  35 38 238  222 35 144  35 144 223  167 35 168  167 35 170  222 167 35  167 35 238  35 168 170  35 168 223  35 168 238  222 35 170  35 170 223  222 35 223  36 37 38  36 103 37  36 37 105  36 37 144  36 37 185  36 103 38  36 168 38  36 103 105  36 103 168  36 185 105  36 144 185  36 144 223  36 168 223  36 185 223  103 37 38  104 37 38  103 104 37  103 37 105  104 37 105  183 104 37  183 37 105  37 185 105  37 144 185  275 37 144  183 37 185  275 183 37  275 37 185  103 104 38  103 168 38  103 38 171  103 38 220  104 38 220  168 38 171  168 38 238  38 220 171  38 238 171  39 40 41  39 40 42  39 166 40  197 39 40  39 41 42  39 54 41  39 166 41  39 196 41  39 54 42  39 198 42  39 196 54  39 54 198  39 166 196  197 39 166  40 41 42  161 40 41  166 40 41  161 165 40  161 166 40  164 165 40  164 166 40  197 164 40  164 282 40  165 166 40  282 165 40  197 166 40  54 41 42  41 42 80  54 41 80  196 54 41  218 54 41  67 41 80  218 67 41  219 67 41  218 41 80  161 162 41  161 166 41  161 219 41  162 166 41  162 196 41  218 162 41  162 219 41  166 196 41  218 196 41  218 219 41  54 42 80  54 198 42  43 44 45  43 44 46  48 43 44  43 145 44  262 43 44  43 268 44  43 45 46  48 43 45  43 274 45  43 45 283  43 145 46  43 283 46  262 48 43  48 43 274  43 268 145  262 43 268  43 274 283  44 45 46  48 44 45  44 49 45  145 44 46  48 44 49  262 48 44  259 44 49  262 44 49  268 145 44  262 259 44  259 263 44  262 263 44  262 268 44  268 263 44  45 283 46  47 48 45  47 49 45  47 109 45  47 274 45  48 49 45  48 274 45  49 109 45  109 45 205  274 109 45  274 45 205  45 283 205  274 45 283  47 48 49  241 47 48  47 48 274  47 49 108  47 49 109  47 49 185  241 47 49  47 107 108  47 107 109  47 107 184  47 107 274  47 108 109  47 184 108  47 108 185  47 274 109  47 184 185  275 47 184  241 47 185  275 47 185  241 275 47  241 48 49  262 48 49  241 262 48  49 108 109  49 108 185  49 185 224  241 49 185  241 49 224  259 49 224  241 259 49  241 262 49  262 259 49  50 51 52  50 51 53  87 50 51  50 51 98  50 52 53  50 52 98  99 50 52  87 50 53  94 50 53  50 95 53  99 50 53  208 50 53  208 87 50  94 50 95  94 50 96  99 94 50  50 95 96  208 50 95  99 50 96  50 100 96  99 50 98  50 100 98  99 50 100  51 52 53  51 52 98  51 52 130  261 51 52  87 51 53  261 51 53  87 51 124  261 87 51  51 98 128  51 98 130  261 51 124  51 128 129  51 128 130  51 129 130  99 52 53  261 52 53  97 52 98  97 52 130  99 52 98  52 98 130  87 88 53  87 89 53  208 87 53  261 87 53  88 89 53  94 88 53  95 88 53  208 88 53  261 89 53  94 95 53  99 94 53  208 95 53  218 54 80  218 196 54  55 56 57  55 56 131  55 257 56  55 257 57  55 97 128  55 97 210  55 128 131  55 128 210  55 131 210  55 217 131  55 217 210  257 56 57  58 59 60  58 59 61  58 59 70  58 60 61  58 60 141  58 70 61  58 61 71  58 70 71  59 60 61  59 60 148  59 60 249  59 70 61  59 61 102  59 148 61  59 70 102  59 146 102  59 148 102  59 146 147  59 146 148  59 147 148  59 147 249  59 249 148  60 148 61  60 181 148  60 249 148  60 248 181  60 181 249  60 248 249  70 61 71  70 61 102  148 61 102  62 63 64  62 63 65  112 62 63  62 63 278  62 64 65  112 62 64  62 113 64  62 64 143  62 65 143  62 65 231  62 65 250  62 278 65  112 62 113  62 113 143  230 62 143  62 143 231  230 62 231  230 62 250  62 250 231  62 278 250  63 64 65  112 63 64  115 63 64  211 63 64  211 63 65  63 278 65  112 115 63  211 115 63  211 63 278  64 65 143  182 64 65  211 64 65  112 113 64  112 114 64  112 115 64  113 114 64  113 64 143  115 114 64  114 64 137  115 64 137  211 115 64  182 64 137  211 64 137  211 182 64  65 143 231  65 231 180  65 250 180  251 65 180  278 65 180  211 182 65  182 65 212  251 182 65  211 65 212  211 278 65  251 65 212  278 65 212  65 250 231  278 65 250  251 278 65  66 67 68  66 67 69  66 67 73  81 66 67  66 67 83  218 66 67  66 68 69  66 68 72  66 73 68  66 68 75  66 69 72  218 66 69  66 72 75  66 73 75  66 73 83  66 83 75  81 66 83  218 81 66  67 68 69  67 73 68  67 69 80  218 67 69  82 67 73  67 73 83  218 67 80  81 82 67  81 67 83  218 81 67  81 219 67  82 67 83  82 219 67  218 219 67  68 69 72  125 68 69  68 72 75  125 68 72  73 68 75  125 69 72  218 69 80  70 135 71  220 135 71  135 258 71  220 258 71  73 83 75  73 236 75  251 73 75  82 73 83  177 82 73  177 73 83  73 83 236  177 73 236  251 177 73  251 73 236  264 221 74  221 265 74  264 265 74  83 236 75  236 75 212  251 75 212  251 236 75  76 77 78  76 77 79  76 77 134  76 77 273  76 78 79  76 156 78  76 273 78  76 134 79  76 156 79  76 157 79  76 134 157  76 134 252  155 76 156  155 76 157  155 76 160  155 76 252  155 281 76  76 156 157  76 156 160  76 156 273  76 252 157  76 160 273  281 76 160  281 76 273  77 78 79  117 77 78  77 78 195  77 273 78  120 77 79  77 134 79  77 195 79  120 117 77  117 77 195  117 77 273  120 77 134  120 77 195  156 78 79  78 195 79  78 213 79  85 117 78  156 85 78  85 232 78  85 273 78  117 78 195  232 117 78  117 273 78  156 78 213  156 273 78  78 213 195  229 78 195  232 78 195  229 78 213  232 229 78  120 134 79  120 195 79  120 289 79  134 157 79  134 213 79  134 289 79  156 157 79  156 213 79  213 157 79  213 195 79  289 195 79  213 289 79  81 82 83  81 82 84  85 81 82  81 82 219  81 83 84  85 81 84  81 273 84  160 85 81  85 81 219  85 81 273  160 81 162  160 81 219  160 81 273  281 160 81  218 81 162  81 162 219  281 81 162  218 81 219  281 81 273  82 83 84  82 83 119  177 82 83  85 82 84  82 119 84  85 116 82  85 82 119  85 82 219  116 82 119  116 177 82  177 82 119  83 119 84  177 83 119  83 236 119  177 83 236  85 119 84  85 273 84  273 119 84  85 116 117  85 116 119  85 232 116  85 117 119  85 232 117  85 117 273  85 273 119  156 160 85  156 85 273  160 85 219  160 85 273  86 87 88  86 87 89  86 87 140  208 86 87  86 88 89  110 86 88  86 88 111  139 86 88  208 86 88  139 86 89  86 89 140  110 86 92  86 92 111  86 92 114  86 136 92  110 86 111  110 208 86  86 136 111  139 86 111  86 136 114  86 114 137  139 86 114  139 86 136  139 86 137  86 140 137  139 86 140  87 88 89  208 87 88  87 89 140  261 87 89  87 124 140  261 87 124  261 87 140  139 88 89  94 95 88  94 270 88  110 95 88  208 95 88  270 95 88  110 88 111  110 208 88  110 270 88  139 88 111  270 88 111  138 139 89  138 89 140  138 261 89  139 89 140  261 89 140  90 91 92  90 91 93  226 90 91  286 90 91  90 92 93  133 90 92  136 90 92  226 90 92  133 90 93  136 133 90  226 136 90  226 286 90  91 92 93  91 92 114  226 91 92  132 109 91  109 205 91  226 91 114  132 205 91  132 226 91  132 286 91  226 286 91  110 92 93  133 92 93  110 92 111  110 133 92  133 92 111  136 92 111  136 92 114  226 92 114  136 133 92  226 136 92  110 133 93  94 95 96  94 270 95  287 94 95  99 94 96  287 94 96  287 94 270  287 95 96  110 208 95  110 270 95  287 110 95  287 270 95  99 100 96  97 98 128  97 98 130  97 128 130  97 128 210  97 210 130  99 100 98  98 128 130  146 101 102  101 102 193  146 101 149  146 175 101  146 101 193  175 101 149  101 193 149  101 203 149  175 101 203  175 101 204  101 203 193  202 101 203  202 101 204  101 203 204  146 148 102  146 102 193  148 102 193  103 104 105  103 104 106  103 104 176  103 104 220  103 105 106  103 176 106  103 215 106  103 168 171  103 171 215  103 220 171  103 176 215  103 220 176  103 220 215  104 105 106  142 104 105  183 104 105  142 104 106  104 176 106  142 104 176  142 183 104  104 220 176  142 105 106  105 143 106  142 105 143  142 183 105  183 185 105  142 143 106  142 176 106  142 230 106  230 143 106  143 231 106  176 215 106  230 176 106  176 231 106  215 231 106  230 231 106  107 108 109  107 184 108  132 107 109  107 274 109  132 107 274  184 108 185  132 109 205  132 274 109  274 109 205  110 133 111  110 270 111  110 133 270  287 110 270  136 133 111  133 270 111  139 136 111  112 113 114  112 115 114  226 112 114  226 112 115  136 115 114  115 114 137  139 115 114  226 115 114  139 136 114  226 136 114  139 114 137  139 136 115  226 136 115  139 115 137  211 115 137  211 139 115  116 117 118  116 117 119  232 116 117  116 118 119  232 116 118  116 118 233  116 118 235  116 177 119  116 179 119  116 235 119  116 177 179  116 177 234  116 234 179  116 235 179  232 116 233  116 234 233  116 235 233  116 234 235  117 118 119  121 117 118  117 118 123  232 117 118  117 273 119  120 121 117  120 117 123  120 117 195  121 117 123  117 123 195  232 117 123  232 117 195  118 235 119  121 118 123  121 118 189  118 189 123  232 118 123  118 233 123  194 118 189  118 189 233  194 118 233  194 118 235  232 118 233  118 235 233  177 179 119  177 236 119  235 179 119  179 236 119  120 121 122  120 121 123  120 122 123  120 122 229  120 123 195  120 229 123  120 134 289  120 229 195  120 289 195  120 229 289  121 122 123  121 122 189  121 189 123  122 189 123  122 123 192  122 229 123  122 247 123  122 189 192  122 189 255  122 247 192  122 255 192  122 247 229  122 255 247  189 123 192  189 233 123  233 123 192  247 123 192  229 123 195  232 123 195  232 229 123  247 229 123  232 233 123  232 247 123  233 247 123  261 124 140  126 190 127  194 126 127  126 127 221  126 187 191  126 221 187  126 254 187  264 126 187  126 189 190  126 189 191  194 126 189  126 189 254  126 190 191  194 126 190  126 190 221  126 221 191  126 254 191  264 126 221  154 194 127  154 127 233  194 190 127  190 127 221  190 127 233  194 127 233  128 129 130  128 209 129  128 129 210  128 210 130  128 131 209  128 131 210  128 209 210  129 130 200  129 210 130  209 129 200  129 210 200  209 129 210  210 130 200  131 209 210  217 131 209  217 131 210  132 274 205  132 226 286  134 213 157  134 252 157  134 253 157  134 253 213  134 213 289  134 252 253  220 135 258  138 139 137  138 140 137  138 182 137  138 211 137  139 140 137  211 139 137  182 140 137  211 182 137  138 139 140  138 211 139  138 182 140  138 261 140  138 211 182  142 230 143  142 230 176  230 143 231  144 185 223  144 185 224  241 144 185  275 144 185  222 144 223  222 144 224  222 241 144  144 223 224  241 144 224  241 275 144  146 147 148  146 147 149  146 147 276  146 148 149  146 148 193  146 175 149  146 193 149  146 276 149  146 175 276  147 148 149  147 181 148  147 249 148  147 181 149  147 271 149  147 276 149  147 181 249  147 181 271  147 271 249  147 271 276  181 148 149  148 193 149  181 148 193  181 249 148  225 149 152  228 149 152  271 149 152  280 149 152  203 158 149  158 149 207  158 225 149  228 158 149  277 158 149  175 203 149  175 149 207  175 225 149  175 276 149  181 193 149  181 271 149  181 277 149  280 181 149  203 193 149  277 193 149  203 149 207  277 203 149  225 149 207  228 225 149  271 225 149  276 225 149  228 277 149  280 228 149  271 276 149  280 271 149  280 277 149  150 151 152  150 151 153  150 151 159  150 152 153  228 150 152  150 158 153  150 159 153  228 150 153  150 158 159  228 150 158  151 152 153  227 151 152  151 159 153  227 151 153  227 151 159  227 152 153  228 152 153  227 225 152  228 225 152  271 225 152  272 225 152  228 227 152  272 227 152  280 228 152  272 271 152  280 271 152  158 159 153  158 153 207  158 227 153  228 158 153  159 153 207  227 159 153  227 153 207  228 227 153  154 194 233  154 194 235  260 154 194  234 216 154  260 216 154  234 154 233  154 235 233  234 154 235  234 260 154  260 154 235  155 156 157  155 156 160  155 156 174  155 157 174  155 252 157  155 253 157  155 160 163  155 160 174  155 281 160  155 164 163  155 163 174  155 281 163  155 164 174  155 164 284  155 253 174  155 284 174  155 252 253  155 284 253  156 157 174  156 213 157  156 253 157  156 160 174  156 160 273  156 160 279  156 253 174  156 279 174  156 253 213  156 279 253  253 157 174  253 213 157  252 253 157  158 206 159  158 159 207  203 158 206  203 158 207  277 203 158  158 206 207  158 225 207  158 227 207  158 227 225  228 158 225  228 158 227  228 277 158  206 159 207  206 288 159  227 159 207  288 159 207  227 288 159  160 161 162  160 161 163  160 161 174  160 161 219  160 279 161  160 162 163  160 162 219  281 160 162  160 163 174  281 160 163  160 279 174  281 160 273  161 162 163  161 162 166  161 162 219  161 165 163  161 166 163  161 163 174  161 165 166  161 165 174  279 161 165  279 161 174  162 166 163  281 162 163  162 166 196  218 162 196  218 162 219  164 165 163  164 166 163  164 163 174  165 166 163  165 163 174  164 165 166  164 165 173  164 165 174  164 282 165  197 164 166  164 173 174  164 282 173  164 284 173  164 284 174  172 165 173  172 165 174  279 172 165  172 282 165  165 173 174  282 165 173  279 165 174  167 168 169  167 168 170  167 168 238  167 169 170  167 169 238  167 169 239  222 167 170  167 285 170  222 167 285  167 238 239  168 169 170  168 169 171  168 169 238  168 170 223  168 238 171  169 238 171  169 238 239  222 170 223  222 170 242  222 243 170  222 285 170  243 170 223  243 170 242  285 170 242  220 171 215  171 215 258  220 171 258  172 173 174  172 282 173  284 172 173  172 253 174  279 172 174  284 172 174  279 172 253  284 172 253  284 173 174  279 253 174  284 253 174  175 203 204  175 203 207  175 204 207  175 256 204  175 225 207  175 256 207  175 288 207  175 276 225  175 288 225  175 256 288  214 176 215  214 176 250  220 176 215  176 215 231  176 215 250  230 176 231  230 176 250  176 250 231  177 178 179  177 178 180  177 234 178  177 179 180  177 234 179  177 179 236  177 180 236  251 177 180  251 177 236  178 179 180  234 178 179  178 237 179  178 231 180  178 237 180  178 250 180  214 215 178  214 178 216  214 178 237  214 178 250  215 178 216  215 178 231  215 178 250  234 178 216  178 216 237  178 250 231  234 178 237  178 237 250  179 180 236  237 179 180  278 179 180  234 235 179  234 237 179  237 235 179  278 179 236  278 237 179  250 231 180  251 180 236  278 180 236  237 250 180  278 237 180  278 250 180  251 278 180  181 277 193  248 181 249  248 181 271  280 248 181  181 271 249  280 181 271  280 181 277  211 182 212  251 182 212  183 184 185  275 183 184  275 183 185  275 184 185  185 223 224  241 185 224  241 275 185  186 187 188  186 187 246  264 186 187  186 245 188  186 246 188  186 245 246  186 245 267  266 186 267  187 188 191  221 187 188  187 246 188  254 187 188  264 187 188  221 187 191  254 187 191  264 221 187  254 187 246  221 188 191  244 188 191  254 188 191  244 221 188  221 245 188  264 221 188  221 265 188  244 245 188  244 246 188  254 244 188  245 246 188  245 265 188  254 246 188  264 265 188  189 190 191  189 190 192  194 189 190  189 190 233  189 191 192  189 254 191  189 255 191  189 233 192  189 255 192  194 189 233  189 254 255  190 191 192  190 221 191  244 190 191  190 233 192  244 190 192  190 247 192  194 190 233  244 190 221  190 233 247  244 190 247  244 191 192  255 191 192  244 221 191  254 244 191  255 244 191  254 255 191  233 247 192  244 247 192  255 244 192  255 247 192  277 203 193  194 235 233  260 194 235  229 213 195  213 289 195  232 229 195  229 289 195  198 199 200  198 199 201  198 200 201  199 200 201  209 199 200  217 199 200  217 199 201  217 209 199  217 200 201  209 210 200  217 209 200  217 210 200  202 203 204  202 203 206  202 206 204  202 266 204  202 206 266  203 206 204  203 204 207  203 206 207  206 204 207  256 206 204  206 266 204  256 204 207  256 266 204  256 267 204  266 267 204  274 283 205  256 206 207  206 288 207  256 206 266  256 206 288  227 225 207  288 225 207  227 288 207  256 288 207  217 209 210  211 278 212  251 236 212  278 236 212  251 278 212  229 213 289  214 215 216  214 215 250  214 216 237  214 260 216  214 237 250  214 260 237  215 216 258  220 215 258  215 250 231  234 216 237  234 260 216  260 216 237  244 221 245  221 245 265  264 221 265  222 223 224  222 243 223  222 241 224  222 224 242  222 243 224  222 241 242  222 243 242  222 285 242  243 223 224  240 241 224  240 224 242  240 243 224  240 259 224  241 224 242  241 259 224  243 224 242  243 259 224  228 227 225  272 227 225  227 288 225  272 271 225  271 276 225  280 228 277  232 247 229  230 250 231  232 233 247  234 235 233  234 237 235  234 260 235  234 260 237  260 237 235  251 278 236  278 237 250  240 241 242  240 241 259  240 241 262  240 243 242  240 243 259  240 243 269  240 262 259  240 259 263  240 269 259  240 262 263  240 269 263  241 262 259  243 269 259  244 245 246  254 244 246  255 244 247  254 255 244  245 267 265  248 271 249  280 248 271  256 266 267  262 259 263  269 259 263  262 268 263  </DataArray>
<DataArray  type="UInt32"  Name="offsets"  format="ascii">3 6 9 12 15 18 21 24 27 30 33 36 39 42 45 48 51 54 57 60 63 66 69 72 75 78 81 84 87 90 93 96 99 102 105 108 111 114 117 120 123 126 129 132 135 138 141 144 147 150 153 156 159 162 165 168 171 174 177 180 183 186 189 192 195 198 201 204 207 210 213 216 219 222 225 228 231 234 237 240 243 246 249 252 255 258 261 264 267 270 273 276 279 282 285 288 291 294 297 300 303 306 309 312 315 318 321 324 327 330 333 336 339 342 345 348 351 354 357 360 363 366 369 372 375 378 381 384 387 390 393 396 399 402 405 408 411 414 417 420 423 426 429 432 435 438 441 444 447 450 453 456 459 462 465 468 471 474 477 480 483 486 489 492 495 498 501 504 507 510 513 516 519 522 525 528 531 534 537 540 543 546 549 552 555 558 561 564 567 570 573 576 579 582 585 588 591 594 597 600 603 606 609 612 615 618 621 624 627 630 633 636 639 642 645 648 651 654 657 660 663 666 669 672 675 678 681 684 687 690 693 696 699 702 705 708 711 714 717 720 723 726 729 732 735 738 741 744 747 750 753 756 759 762 765 768 771 774 777 780 783 786 789 792 795 798 801 804 807 810 813 816 819 822 825 828 831 834 837 840 843 846 849 852 855 858 861 864 867 870 873 876 879 882 885 888 891 894 897 900 903 906 909 912 915 918 921 924 927 930 933 936 939 942 945 948 951 954 957 960 963 966 969 972 975 978 981 984 987 990 993 996 999 1002 1005 1008 1011 1014 1017 1020 1023 1026 1029 1032 1035 1038 1041 1044 1047 1050 1053 1056 1059 1062 1065 1068 1071 1074 1077 1080 1083 1086 1089 1092 1095 1098 1101 1104 1107 1110 1113 1116 1119 1122 1125 1128 1131 1134 1137 1140 1143 1146 1149 1152 1155 1158 1161 1164 1167 1170 1173 1176 1179 1182 1185 1188 1191 1194 1197 1200 1203 1206 1209 1212 1215 1218 1221 1224 1227 1230 1233 1236 1239 1242 1245 1248 1251 1254 1257 1260 1263 1266 1269 1272 1275 1278 1281 1284 1287 1290 1293 1296 1299 1302 1305 1308 1311 1314 1317 1320 1323 1326 1329 1332 1335 1338 1341 1344 1347 1350 1353 1356 1359 1362 1365 1368 1371 1374 1377 1380 1383 1386 1389 1392 1395 1398 1401 1404 1407 1410 1413 1416 1419 1422 1425 1428 1431 1434 1437 1440 1443 1446 1449 1452 1455 1458 1461 1464 1467 1470 1473 1476 1479 1482 1485 1488 1491 1494 1497 1500 1503 1506 1509 1512 1515 1518 1521 1524 1527 1530 1533 1536 1539 1542 1545 1548 1551 1554 1557 1560 1563 1566 1569 1572 1575 1578 1581 1584 1587 1590 1593 1596 1599 1602 1605 1608 1611 1614 1617 1620 1623 1626 1629 1632 1635 1638 1641 1644 1647 1650 1653 1656 1659 1662 1665 1668 1671 1674 1677 1680 1683 1686 1689 1692 1695 1698 1701 1704 1707 1710 1713 1716 1719 1722 1725 1728 1731 1734 1737 1740 1743 1746 1749 1752 1755 1758 1761 1764 1767 1770 1773 1776 1779 1782 1785 1788 1791 1794 1797 1800 1803 1806 1809 1812 1815 1818 1821 1824 1827 1830 1833 1836 1839 1842 1845 1848 1851 1854 1857 1860 1863 1866 1869 1872 1875 1878 1881 1884 1887 1890 1893 1896 1899 1902 1905 1908 1911 1914 1917 1920 1923 1926 1929 1932 1935 1938 1941 1944 1947 1950 1953 1956 1959 1962 1965 1968 1971 1974 1977 1980 1983 1986 1989 1992 1995 1998 2001 2004 2007 2010 2013 2016 2019 2022 2025 2028 2031 2034 2037 2040 2043 2046 2049 2052 2055 2058 2061 2064 2067 2070 2073 2076 2079 2082 2085 2088 2091 2094 2097 2100 2103 2106 2109 2112 2115 2118 2121 2124 2127 2130 2133 2136 2139 2142 2145 2148 2151 2154 2157 2160 2163 2166 2169 2172 2175 2178 2181 2184 2187 2190 2193 2196 2199 2202 2205 2208 2211 2214 2217 2220 2223 2226 2229 2232 2235 2238 2241 2244 2247 2250 2253 2256 2259 2262 2265 2268 2271 2274 2277 2280 2283 2286 2289 2292 2295 2298 2301 2304 2307 2310 2313 2316 2319 2322 2325 2328 2331 2334 2337 2340 2343 2346 2349 2352 2355 2358 2361 2364 2367 2370 2373 2376 2379 2382 2385 2388 2391 2394 2397 2400 2403 2406 2409 2412 2415 2418 2421 2424 2427 2430 2433 2436 2439 2442 2445 2448 2451 2454 2457 2460 2463 2466 2469 2472 2475 2478 2481 2484 2487 2490 2493 2496 2499 2502 2505 2508 2511 2514 2517 2520 2523 2526 2529 2532 2535 2538 2541 2544 2547 2550 2553 2556 2559 2562 2565 2568 2571 2574 2577 2580 2583 2586 2589 2592 2595 2598 2601 2604 2607 2610 2613 2616 2619 2622 2625 2628 2631 2634 2637 2640 2643 2646 2649 2652 2655 2658 2661 2664 2667 2670 2673 2676 2679 2682 2685 2688 2691 2694 2697 2700 2703 2706 2709 2712 2715 2718 2721 2724 2727 2730 2733 2736 2739 2742 2745 2748 2751 2754 2757 2760 2763 2766 2769 2772 2775 2778 2781 2784 2787 2790 2793 2796 2799 2802 2805 2808 2811 2814 2817 2820 2823 2826 2829 2832 2835 2838 2841 2844 2847 2850 2853 2856 2859 2862 2865 2868 2871 2874 2877 2880 2883 2886 2889 2892 2895 2898 2901 2904 2907 2910 2913 2916 2919 2922 2925 2928 2931 2934 2937 2940 2943 2946 2949 2952 2955 2958 2961 2964 2967 2970 2973 2976 2979 2982 2985 2988 2991 2994 2997 3000 3003 3006 3009 3012 3015 3018 3021 3024 3027 3030 3033 3036 3039 3042 3045 3048 3051 3054 3057 3060 3063 3066 3069 3072 3075 3078 3081 3084 3087 3090 3093 3096 3099 3102 3105 3108 3111 3114 3117 3120 3123 3126 3129 3132 3135 3138 3141 3144 3147 3150 3153 3156 3159 3162 3165 3168 3171 3174 3177 3180 3183 3186 3189 3192 3195 3198 3201 3204 3207 3210 3213 3216 3219 3222 3225 3228 3231 3234 3237 3240 3243 3246 3249 3252 3255 3258 3261 3264 3267 3270 3273 3276 3279 3282 3285 3288 3291 3294 3297 3300 3303 3306 3309 3312 3315 3318 3321 3324 3327 3330 3333 3336 3339 3342 3345 3348 3351 3354 3357 3360 3363 3366 3369 3372 3375 3378 3381 3384 3387 3390 3393 3396 3399 3402 3405 3408 3411 3414 3417 3420 3423 3426 3429 3432 3435 3438 3441 3444 3447 3450 3453 3456 3459 3462 3465 3468 3471 3474 3477 3480 3483 3486 3489 3492 3495 3498 3501 3504 3507 3510 3513 3516 3519 3522 3525 3528 3531 3534 3537 3540 3543 3546 3549 3552 3555 3558 3561 3564 3567 3570 3573 3576 3579 3582 3585 3588 3591 3594 3597 3600 3603 3606 3609 3612 3615 3618 3621 3624 3627 3630 3633 3636 3639 3642 3645 3648 3651 3654 3657 3660 3663 3666 3669 3672 3675 3678 3681 3684 3687 3690 3693 3696 3699 3702 3705 3708 3711 3714 3717 3720 3723 3726 3729 3732 3735 3738 3741 3744 3747 3750 3753 3756 3759 3762 3765 3768 3771 3774 3777 3780 3783 3786 3789 3792 3795 3798 3801 3804 3807 3810 3813 3816 3819 3822 3825 3828 3831 3834 3837 3840 3843 3846 3849 3852 3855 3858 3861 3864 3867 3870 3873 3876 3879 3882 3885 3888 3891 3894 3897 3900 3903 3906 3909 3912 3915 3918 3921 3924 3927 3930 3933 3936 3939 3942 3945 3948 3951 3954 3957 3960 3963 3966 3969 3972 3975 3978 3981 3984 3987 3990 3993 3996 3999 4002 4005 4008 4011 4014 4017 4020 4023 4026 4029 4032 4035 4038 4041 4044 4047 4050 4053 4056 4059 4062 4065 4068 4071 4074 4077 4080 4083 4086 4089 4092 4095 4098 4101 4104 4107 4110 4113 4116 4119 4122 4125 4128 4131 4134 4137 4140 4143 4146 4149 4152 4155 4158 4161 4164 4167 4170 4173 4176 4179 4182 4185 4188 4191 4194 4197 4200 4203 4206 4209 4212 4215 4218 4221 4224 4227 4230 4233 4236 4239 4242 4245 4248 4251 4254 4257 4260 4263 4266 4269 4272 4275 4278 4281 4284 4287 4290 4293 4296 4299 4302 4305 4308 4311 4314 4317 4320 4323 4326 4329 4332 4335 4338 4341 4344 4347 4350 4353 4356 4359 4362 4365 4368 4371 4374 4377 4380 4383 4386 4389 4392 4395 4398 4401 4404 4407 4410 4413 4416 4419 4422 4425 4428 4431 4434 4437 4440 4443 4446 4449 4452 4455 4458 4461 4464 4467 4470 4473 4476 4479 4482 4485 4488 4491 4494 4497 4500 4503 4506 4509 4512 4515 4518 4521 4524 4527 4530 4533 4536 4539 4542 4545 4548 4551 4554 4557 4560 4563 4566 4569 4572 4575 4578 4581 4584 4587 4590 4593 4596 4599 4602 4605 4608 4611 4614 4617 4620 4623 4626 4629 4632 4635 4638 4641 4644 4647 4650 4653 4656 4659 4662 4665 4668 4671 4674 4677 4680 4683 4686 4689 4692 4695 4698 4701 4704 4707 4710 4713 4716 4719 4722 4725 4728 4731 4734 4737 4740 4743 4746 4749 4752 4755 4758 4761 4764 4767 4770 4773 4776 4779 4782 4785 4788 4791 4794 4797 4800 4803 4806 4809 4812 4815 4818 4821 4824 4827 4830 4833 4836 4839 4842 4845 4848 4851 4854 4857 4860 4863 4866 4869 4872 4875 4878 4881 4884 4887 4890 4893 4896 4899 4902 4905 4908 4911 4914 4917 4920 4923 4926 4929 4932 4935 4938 4941 4944 4947 4950 4953 4956 4959 4962 4965 4968 4971 4974 4977 4980 4983 4986 4989 4992 4995 4998 5001 5004 5007 5010 5013 5016 5019 5022 5025 5028 5031 5034 5037 5040 5043 5046 5049 5052 5055 5058 5061 5064 5067 5070 5073 5076 5079 5082 5085 5088 5091 5094 5097 5100 5103 5106 5109 5112 5115 5118 5121 5124 5127 5130 5133 5136 5139 5142 5145 5148 5151 5154 5157 5160 5163 5166 5169 5172 5175 5178 5181 5184 5187 5190 5193 5196 5199 5202 5205 5208 5211 5214 5217 5220 5223 5226 5229 5232 5235 5238 5241 5244 5247 5250 5253 5256 5259 5262 5265 5268 5271 5274 5277 5280 5283 5286 5289 5292 5295 5298 5301 5304 5307 5310 5313 5316 5319 5322 5325 5328 5331 5334 5337 5340 5343 5346 5349 5352 5355 5358 5361 5364 5367 5370 5373 5376 5379 5382 5385 5388 5391 5394 5397 5400 5403 5406 5409 5412 5415 5418 5421 5424 5427 5430 5433 5436 5439 </DataArray>
<DataArray  type="UInt8"  Name="types"  format="ascii">5 5 5 5 5 5 5 5 5 5 5 5 5 5 5 5 5 5 5 5 5 5 5 5 5 5 5 5 5 5 5 5 5 5 5 5 5 5 5 5 5 5 5 5 5 5 5 5 5 5 5 5 5 5 5 5 5 5 5 5 5 5 5 5 5 5 5 5 5 5 5 5 5 5 5 5 5 5 5 5 5 5 5 5 5 5 5 5 5 5 5 5 5 5 5 5 5 5 5 5 5 5 5 5 5 5 5 5 5 5 5 5 5 5 5 5 5 5 5 5 5 5 5 5 5 5 5 5 5 5 5 5 5 5 5 5 5 5 5 5 5 5 5 5 5 5 5 5 5 5 5 5 5 5 5 5 5 5 5 5 5 5 5 5 5 5 5 5 5 5 5 5 5 5 5 5 5 5 5 5 5 5 5 5 5 5 5 5 5 5 5 5 5 5 5 5 5 5 5 5 5 5 5 5 5 5 5 5 5 5 5 5 5 5 5 5 5 5 5 5 5 5 5 5 5 5 5 5 5 5 5 5 5 5 5 5 5 5 5 5 5 5 5 5 5 5 5 5 5 5 5 5 5 5 5 5 5 5 5 5 5 5 5 5 5 5 5 5 5 5 5 5 5 5 5 5 5 5 5 5 5 5 5 5 5 5 5 5 5 5 5 5 5 5 5 5 5 5 5 5 5 5 5 5 5 5 5 5 5 5 5 5 5 5 5 5 5 5 5 5 5 5 5 5 5 5 5 5 5 5 5 5 5 5 5 5 5 5 5 5 5 5 5 5 5 5 5 5 5 5 5 5 5 5 5 5 5 5 5 5 5 5 5 5 5 5 5 5 5 5 5 5 5 5 5 5 5 5 5 5 5 5 5 5 5 5 5 5 5 5 5 5 5 5 5 5 5 5 5 5 5 5 5 5 5 5 5 5 5 5 5 5 5 5 5 5 5 5 5 5 5 5 5 5 5 5 5 5 5 5 5 5 5 5 5 5 5 5 5 5 5 5 5 5 5 5 5 5 5 5 5 5 5 5 5 5 5 5 5 5 5 5 5 5 5 5 5 5 5 5 5 5 5 5 5 5 5 5 5 5 5 5 5 5 5 5 5 5 5 5 5 5 5 5 5 5 5 5 5 5 5 5 5 5 5 5 5 5 5 5 5 5 5 5 5 5 5 5 5 5 5 5 5 5 5 5 5 5 5 5 5 5 5 5 5 5 5 5 5 5 5 5 5 5 5 5 5 5 5 5 5 5 5 5 5 5 5 5 5 5 5 5 5 5 5 5 5 5 5 5 5 5 5 5 5 5 5 5 5 5 5 5 5 5 5 5 5 5 5 5 5 5 5 5 5 5 5 5 5 5 5 5 5 5 5 5 5 5 5 5 5 5 5 5 5 5 5 5 5 5 5 5 5 5 5 5 5 5 5 5 5 5 5 5 5 5 5 5 5 5 5 5 5 5 5 5 5 5 5 5 5 5 5 5 5 5 5 5 5 5 5 5 5 5 5 5 5 5 5 5 5 5 5 5 5 5 5 5 5 5 5 5 5 5 5 5 5 5 5 5 5 5 5 5 5 5 5 5 5 5 5 5 5 5 5 5 5 5 5 5 5 5 5 5 5 5 5 5 5 5 5 5 5 5 5 5 5 5 5 5 5 5 5 5 5 5 5 5 5 5 5 5 5 5 5 5 5 5 5 5 5 5 5 5 5 5 5 5 5 5 5 5 5 5 5 5 5 5 5 5 5 5 5 5 5 5 5 5 5 5 5 5 5 5 5 5 5 5 5 5 5 5 5 5 5 5 5 5 5 5 5 5 5 5 5 5 5 5 5 5 5 5 5 5 5 5 5 5 5 5 5 5 5 5 5 5 5 5 5 5 5 5 5 5 5 5 5 5 5 5 5 5 5 5 5 5 5 5 5 5 5 5 5 5 5 5 5 5 5 5 5 5 5 5 5 5 5 5 5 5 5 5 5 5 5 5 5 5 5 5 5 5 5 5 5 5 5 5 5 5 5 5 5 5 5 5 5 5 5 5 5 5 5 5 5 5 5 5 5 5 5 5 5 5 5 5 5 5 5 5 5 5 5 5 5 5 5 5 5 5 5 5 5 5 5 5 5 5 5 5 5 5 5 5 5 5 5 5 5 5 5 5 5 5 5 5 5 5 5 5 5 5 5 5 5 5 5 5 5 5 5 5 5 5 5 5 5 5 5 5 5 5 5 5 5 5 5 5 5 5 5 5 5 5 5 5 5 5 5 5 5 5 5 5 5 5 5 5 5 5 5 5 5 5 5 5 5 5 5 5 5 5 5 5 5 5 5 5 5 5 5 5 5 5 5 5 5 5 5 5 5 5 5 5 5 5 5 5 5 5 5 5 5 5 5 5 5 5 5 5 5 5 5 5 5 5 5 5 5 5 5 5 5 5 5 5 5 5 5 5 5 5 5 5 5 5 5 5 5 5 5 5 5 5 5 5 5 5 5 5 5 5 5 5 5 5 5 5 5 5 5 5 5 5 5 5 5 5 5 5 5 5 5 5 5 5 5 5 5 5 5 5 5 5 5 5 5 5 5 5 5 5 5 5 5 5 5 5 5 5 5 5 5 5 5 5 5 5 5 5 5 5 5 5 5 5 5 5 5 5 5 5 5 5 5 5 5 5 5 5 5 5 5 5 5 5 5 5 5 5 5 5 5 5 5 5 5 5 5 5 5 5 5 5 5 5 5 5 5 5 5 5 5 5 5 5 5 5 5 5 5 5 5 5 5 5 5 5 5 5 5 5 5 5 5 5 5 5 5 5 5 5 5 5 5 5 5 5 5 5 5 5 5 5 5 5 5 5 5 5 5 5 5 5 5 5 5 5 5 5 5 5 5 5 5 5 5 5 5 5 5 5 5 5 5 5 5 5 5 5 5 5 5 5 5 5 5 5 5 5 5 5 5 5 5 5 5 5 5 5 5 5 5 5 5 5 5 5 5 5 5 5 5 5 5 5 5 5 5 5 5 5 5 5 5 5 5 5 5 5 5 5 5 5 5 5 5 5 5 5 5 5 5 5 5 5 5 5 5 5 5 5 5 5 5 5 5 5 5 5 5 5 5 5 5 5 5 5 5 5 5 5 5 5 5 5 5 5 5 5 5 5 5 5 5 5 5 5 5 5 5 5 5 5 5 5 5 5 5 5 5 5 5 5 5 5 5 5 5 5 5 5 5 5 5 5 5 5 5 5 5 5 5 5 5 5 5 5 5 5 5 5 5 5 5 5 5 5 5 5 5 5 5 5 5 5 5 5 5 5 5 5 5 5 5 5 5 5 5 5 5 5 5 5 5 5 5 5 5 5 5 5 5 5 5 5 5 5 5 5 5 5 5 5 5 5 5 5 5 5 5 5 5 5 5 5 5 5 5 5 5 5 5 5 5 5 5 5 5 5 5 5 5 5 5 5 5 5 5 5 5 5 5 5 5 5 5 5 5 5 5 5 5 5 5 5 5 5 5 5 5 5 5 5 5 5 5 5 5 5 5 5 5 5 5 5 5 5 5 5 5 5 5 5 5 5 5 5 5 5 5 5 5 5 5 5 5 5 5 5 5 5 5 5 5 5 5 5 5 5 5 5 5 5 5 5 5 5 5 5 5 5 5 5 5 5 5 5 5 5 5 5 5 5 5 5 5 5 5 5 5 5 5 5 5 5 5 5 5 5 5 5 5 5 5 5 5 5 5 5 5 5 5 5 5 5 5 5 5 5 5 5 5 5 5 5 5 5 5 5 5 5 5 5 5 5 5 5 5 5 5 5 5 5 5 5 5 5 5 5 5 5 5 5 5 5 5 5 5 5 5 5 5 5 5 5 5 5 5 5 5 5 5 5 5 5 5 5 5 5 5 5 5 5 5 5 5 5 5 5 5 5 5 5 5 5 5 5 5 5 5 5 5 5 5 5 5 5 5 5 5 5 5 5 5 5 5 5 5 5 5 5 5 5 5 5 5 5 5 5 5 5 5 5 5 5 5 5 5 5 5 5 5 5 5 5 5 5 5 5 5 5 5 5 5 5 5 5 5 5 5 5 5 5 5 5 5 5 5 5 5 5 5 </DataArray>
</Cells>
<CellData  Scalars="f">
<DataArray  type="Float64"  Name="f"  format="ascii">0 0 0 0 0 0 0 0 0 0 0 0 0 0 0 0 0 0 0 0 0 0 0 0 0 0 0 0 0 0 0 0 0 0 0 0 0 0 0 0 0 0 0 0 0 0 0 0 0 0 0 0 0 0 0 0 0 0 0 0 0 0 0 0 0 0 0 0 0 0 0 0 0 0 0 0 0 0 0 0 0 0 0 0 0 0 0 0 0 0 0 0 0 0 0 0 0 0 0 0 0 0 0 0 0 0 0 0 0 0 0 0 0 0 0 0 0 0 0 0 0 0 0 0 0 0 0 0 0 0 0 0 0 0 0 0 0 0 0 0 0 0 0 0 0 0 0 0 0 0 0 0 0 0 0 0 0 0 0 0 0 0 0 0 0 0 0 0 0 0 0 0 0 0 0 0 0 0 0 0 0 0 0 0 0 0 0 0 0 0 0 0 0 0 0 0 0 0 0 0 0 0 0 0 0 0 0 0 0 0 0 0 0 0 0 0 0 0 0 0 0 0 0 0 0 0 0 0 0 0 0 0 0 0 0 0 0 0 0 0 0 0 0 0 0 0 0 0 0 0 0 0 0 0 0 0 0 0 0 0 0 0 0 0 0 0 0 0 0 0 0 0 0 0 0 0 0 0 0 0 0 0 0 0 0 0 0 0 0 0 0 0 0 0 0 0 0 0 0 0 0 0 0 0 0 0 0 0 0 0 0 0 0 0 0 0 0 0 0 0 0 0 0 0 0 0 0 0 0 0 0 0 0 0 0 0 0 0 0 0 0 0 0 0 0 0 0 0 0 0 0 0 0 0 0 0 0 0 0 0 0 0 0 0 0 0 0 0 0 0 0 0 0 0 0 0 0 0 0 0 0 0 0 0 0 0 0 0 0 0 0 0 0 0 0 0 0 0 0 0 0 0 0 0 0 0 0 0 0 0 0 0 0 0 0 0 0 0 0 0 0 0 0 0 0 0 0 0 0 0 0 0 0 0 0 0 0 0 0 0 0 0 0 0 0 0 0 0 0 0 0 0 0 0 0 0 0 0 0 0 0 0 0 0 0 0 0 0 0 0 0 0 0 0 0 0 0 0 0 0 0 0 0 0 0 0 0 0 0 0 0 0 0 0 0 0 0 0 0 0 0 0 0 0 0 0 0 0 0 0 0 0 0 0 0 0 0 0 0 0 0 0 0 0 0 0 0 0 0 0 0 0 0 0 0 0 0 0 0 0 0 0 0 0 0 0 0 0 0 0 0 0 0 0 0 0 0 0 0 0 0 0 0 0 0 0 0 0 0 0 0 0 0 0 0 0 0 0 0 0 0 0 0 0 0 0 0 0 0 0 0 0 0 0 0 0 0 0 0 0 0 0 0 0 0 0 0 0 0 0 0 0 0 0 0 0 0 0 0 0 0 0 0 0 0 0 0 0 0 0 0 0 0 0 0 0 0 0 0 0 0 0 0 0 0 0 0 0 0 0 0 0 0 0 0 0 0 0 0 0 0 0 0 0 0 0 0 0 0 0 0 0 0 0 0 0 0 0 0 0 0 0 0 0 0 0 0 0 0 0 0 0 0 0 0 0 0 0 0 0 0 0 0 0 0 0 0 0 0 0 0 0 0 0 0 0 0 0 0 0 0 0 0 0 0 0 0 0 0 0 0 0 0 0 0 0 0 0 0 0 0 0 0 0 0 0 0 0 0 0 0 0 0 0 0 0 0 0 0 0 0 0 0 0 0 0 0 0 0 0 0 0 0 0 0 0 0 0 0 0 0 0 0 0 0 0 0 0 0 0 0 0 0 0 0 0 0 0 0 0 0 0 0 0 0 0 0 0 0 0 0 0 0 0 0 0 0 0 0 0 0 0 0 0 0 0 0 0 0 0 0 0 0 0 0 0 0 0 0 0 0 0 0 0 0 0 0 0 0 0 0 0 0 0 0 0 0 0 0 0 0 0 0 0 0 0 0 0 0 0 0 0 0 0 0 0 0 0 0 0 0 0 0 0 0 0 0 0 0 0 0 0 0 0 0 0 0 0 0 0 0 0 0 0 0 0 0 0 0 0 0 0 0 0 0 0 0 0 0 0 0 0 0 0 0 0 0 0 0 0 0 0 0 0 0 0 0 0 0 0 0 0 0 0 0 0 0 0 0 0 0 0 0 0 0 0 0 0 0 0 0 0 0 0 0 0 0 0 0 0 0 0 0 0 0 0 0 0 0 0 0 0 0 0 0 0 0 0 0 0 0 0 0 0 0 0 0 0 0 0 0 0 0 0 0 0 0 0 0 0 0 0 0 0 0 0 0 0 0 0 0 0 0 0 0 0 0 0 0 0 0 0 0 0 0 0 0 0 0 0 0 0 0 0 0 0 0 0 0 0 0 0 0 0 0 0 0 0 0 0 0 0 0 0 0 0 0 0 0 0 0 0 0 0 0 0 0 0 0 0 0 0 0 0 0 0 0 0 0 0 0 0 0 0 0 0 0 0 0 0 0 0 0 0 0 0 0 0 0 0 0 0 0 0 0 0 0 0 0 0 0 0 0 0 0 0 0 0 0 0 0 0 0 0 0 0 0 0 0 0 0 0 0 0 0 0 0 0 0 0 0 0 0 0 0 0 0 0 0 0 0 0 0 0 0 0 0 0 0 0 0 0 0 0 0 0 0 0 0 0 0 0 0 0 0 0 0 0 0 0 0 0 0 0 0 0 0 0 0 0 0 0 0 0 0 0 0 0 0 0 0 0 0 0 0 0 0 0 0 0 0 0 0 0 0 0 0 0 0 0 0 0 0 0 0 0 0 0 0 0 0 0 0 0 0 0 0 0 0 0 0 0 0 0 0 0 0 0 0 0 0 0 0 0 0 0 0 0 0 0 0 0 0 0 0 0 0 0 0 0 0 0 0 0 0 0 0 0 0 0 0 0 0 0 0 0 0 0 0 0 0 0 0 0 0 0 0 0 0 0 0 0 0 0 0 0 0 0 0 0 0 0 0 0 0 0 0 0 0 0 0 0 0 0 0 0 0 0 0 0 0 0 0 0 0 0 0 0 0 0 0 0 0 0 0 0 0 0 0 0 0 0 0 0 0 0 0 0 0 0 0 0 0 0 0 0 0 0 0 0 0 0 0 0 0 0 0 0 0 0 0 0 0 0 0 0 0 0 0 0 0 0 0 0 0 0 0 0 0 0 0 0 0 0 0 0 0 0 0 0 0 0 0 0 0 0 0 0 0 0 0 0 0 0 0 0 0 0 0 0 0 0 0 0 0 0 0 0 0 0 0 0 0 0 0 0 0 0 0 0 0 0 0 0 0 0 0 0 0 0 0 0 0 0 0 0 0 0 0 0 0 0 0 0 0 0 0 0 0 0 0 0 0 0 0 0 0 0 0 0 0 0 0 0 0 0 0 0 0 0 0 0 0 0 0 0 0 0 0 0 0 0 0 0 0 0 0 0 0 0 0 0 0 0 0 0 0 0 0 0 0 0 0 0 0 0 0 0 0 0 0 0 0 0 0 0 0 0 0 0 0 0 0 0 0 0 0 0 0 0 0 0 0 0 0 0 0 0 0 0 0 0 0 0 0 0 0 0 0 0 0 0 0 0 0 0 0 0 0 0 0 0 0 0 0 0 0 0 0 0 0 0 0 0 0 0 0 0 0 0 0 0 0 0 0 0 0 0 0 0 0 0 0 0 0 0 0 0 0 0 0 0 0 0 0 0 0 0 0 0 0 0 0 0 0 0 0 0 0 0 0 0 0 0 0 0 0 0 0 0 0 0 0 0 0 0 0 0 0 0 0 0 0 0 0 0 0 0 0 0 0 0 0 0 0 0 0 0 0 0 0 0 0 0 0 0 0 0 0 0 0 0 0 0 0 0 0 0 0 0 0 0 0 0 0 0 0 0 0 0 0 0 0 0 0 0 0 0 0 0 0 0 0 0 0 0 0 0 0 0 0 0 0 0 0 0 0 0 0 0 0 0 0 0 0 0 0 0 0 0 0 0 0 0 0 0 0 0 0 0 0 0 0 0 0 0 0 0 0 0 0 0 0 0 0 0 0 0 0 0 0 0 0 0 0 0 0 0 0 0 0 0 0 </DataArray>
</CellData>
</Piece>
</UnstructuredGrid>
</VTKFile>