<?xml version="1.0"?>
<VTKFile type="UnstructuredGrid"  version="0.1"  >
<UnstructuredGrid>
<Piece  NumberOfPoints="296" NumberOfCells="1814">
<Points>
<DataArray  type="Float64"  NumberOfComponents="3"  format="ascii">3.444290984090353 -19.87197172954831 -10.53391001277213  3.752537913084758 -19.17757553812824 -11.01236099235066  4.132608961382117 -19.36020749344545 -11.18607405483847  4.144595927374279 -19.06500418462022 -10.68528374736252  4.450377781125566 -19.54520424592902 -8.781498025528746  4.026384282772891 -19.42252095296146 -8.848415150514816  4.480021731237347 -19.62911200319936 -9.299892103685865  4.449070817412797 -18.84425773150169 -9.086516616085502  2.995124972804323 -18.96754334155693 -9.323424873045353  3.176141592192153 -19.59280464190166 -9.811145284831131  2.733876785233137 -19.00805921070292 -9.733639624870063  3.23116821677126 -18.78191720213397 -9.74773366887514  3.358632255948644 -19.53337123003418 -9.428944501950438  4.973299868378432 -20.10815123057268 -9.273522083932551  4.675227167005612 -19.95609201167715 -9.682533055376947  5.261301048300708 -19.18247131372869 -9.526951688298324  5.336950374092023 -22.11116469882363 -10.08326468923942  5.50228210296254 -22.69166673352547 -9.695291655913199  5.086186057039249 -22.88408684132492 -10.18462912358362  6.133784272961783 -22.67316624506869 -10.7004655131304  5.716548915103708 -21.0867471329809 -8.148577906948709  5.392866634870673 -20.51617836640875 -8.143495426684749  6.569035476012101 -20.37061883370137 -8.227060386974603  6.306879412756055 -20.14015891665049 -7.617022230094822  4.84259786932069 -20.75669370132442 -10.30312992945218  5.151852772377715 -20.84707981020748 -9.909500936049492  5.268387919898242 -21.45483171624184 -10.06065195591118  5.940340735791074 -20.80841336426946 -10.78591024244645  5.27350557301309 -20.21539428783969 -11.16955169242674  5.574116425847735 -20.64016311893389 -11.1311796391553  5.639551047519049 -20.23632104181043 -10.76216486553672  4.032243335786423 -20.79102059064222 -6.990326122197695  3.739359629774263 -21.30149987399399 -6.90087102473735  4.008770524079254 -20.97395551519297 -5.913889369687327  3.457902422959121 -20.8231446473833 -6.134872621609173  4.741062739064635 -21.39141167889143 -10.68055583986903  4.412281018329795 -20.93783111960113 -10.81510656049209  5.83556108723413 -22.90271894186463 -8.873965258318416  5.944675390037507 -23.08755746187373 -8.470570171706671  6.650860518940263 -23.41526513726588 -9.386841274379515  6.936255205396748 -22.97408167754243 -9.086678362659816  5.717439760256678 -21.22159748789288 -8.780113483707401  5.49303038002018 -20.66384319864108 -8.59355812801396  6.795761672579528 -20.77905840539871 -8.527486107150432  3.83980603782098 -19.89063100712656 -7.774447552712127  4.25876048486206 -20.0934796402893 -7.442873926110706  3.814131757532341 -20.38278614279455 -7.290367899692288  3.806435301762439 -19.5056577106655 -7.094651275325517  4.491150689298038 -21.92863542842137 -10.94647095316492  4.848088493497395 -22.40628180258529 -10.60314623877326  5.402315775247785 -22.47778517076194 -11.55838272601027  4.992266544512994 -22.76216182483371 -11.78371088395629  5.963836449192882 -21.90790924980612 -7.804157952469305  7.056997666253768 -21.48426763661314 -7.773697063538586  7.094773650829298 -22.00814670942219 -7.19327521208594  7.19450486210195 -22.23528122452835 -7.750452365189297  2.365235208336783 -21.17227195535158 -8.487465239925085  2.730799686505561 -20.62802391185611 -8.465681479364955  2.393765899330609 -20.6180519236812 -8.820981014355684  2.104781294946605 -20.20903723107833 -8.180106222162179  5.948611820358646 -21.80808352145383 -11.05863240234758  5.611993759780017 -21.30530958841235 -11.3601853416136  6.157187934993555 -21.42975899927549 -10.73075605681412  4.389671289405836 -18.93312138683125 -10.17012212936228  4.792066221248535 -19.26648144245221 -10.57155933535281  4.26096809685401 -19.7160955328784 -9.890723589077004  5.061547352735876 -19.19408592709304 -10.04509433963282  4.504917088412182 -20.48026110817901 -10.4857433572721  3.615966221732156 -18.81108815592822 -9.205845821485715  3.87699138280083 -19.4290591195915 -9.44042806056857  4.36686557290359 -20.47219652235759 -7.136099095920589  4.108247826917458 -19.9243283847789 -6.521855255498199  3.81881089278191 -20.39673578999503 -6.234255673952368  5.121856098367477 -21.19223360027554 -11.77161377172019  5.14737345038666 -21.84214009510879 -11.84594493479585  3.664169651952576 -21.15515628124736 -11.28708523460972  3.623969237796379 -21.63557691274398 -11.38901750598073  4.235287125988616 -21.43123411793632 -11.07939176142186  4.441757804496891 -21.30971866653668 -12.23560235236517  1.84754820587384 -19.88358404085571 -8.707878030368569  2.480528481576561 -19.72974881968904 -8.420247231784288  3.466318536271585 -22.26965118627919 -11.40300170631639  3.699048832566345 -21.90098405303617 -12.57032218413289  3.891664019939644 -22.52350504536496 -12.44621793423132  3.41287931405861 -22.33998499598159 -12.59850877096065  5.317473473258772 -20.4791074127704 -8.980462502799833  5.120676446507828 -20.13653966781458 -8.626748918804413  5.698611212241435 -19.46202473321859 -9.261499751678585  3.601664969347455 -19.56308752553143 -10.00489618898201  4.054385248056323 -20.0068763334008 -10.44857346404348  5.600215331105721 -21.40272108807297 -9.370286232548787  5.489962418816567 -20.8790525459112 -9.149745616298157  6.645398199383347 -20.90625970162089 -9.545979370314031  4.743632003415033 -20.20072830593293 -7.485142162838407  4.413508033061754 -19.34595352927927 -7.209692383302547  4.832641724896476 -19.51519393209613 -6.99793414313958  4.388078506725674 -19.59619899420351 -6.837607929146326  3.75480441407295 -18.7793711843928 -9.878630347076092  3.667814176971078 -19.43137453949223 -11.37901126012075  3.206009432534074 -19.43684211336102 -11.35753213611652  3.36818009024731 -19.19318282182988 -11.07627872307294  5.588117769199122 -23.11500523794799 -9.229675331686039  5.364270174606744 -23.49859479099484 -9.145976360632156  5.12322915960904 -23.43273823906606 -9.624549410518993  6.169050499748266 -23.67387344282793 -9.917727499400877  4.76824099867165 -18.95365985519585 -9.670145728926338  3.38543233534921 -20.05337337244771 -8.010559365794649  3.028328586685574 -20.49734933050622 -8.036584231852826  3.097283746791372 -20.13802148763009 -8.465164032132767  2.603705819555954 -19.92938598452039 -7.878382173693163  4.575401160795753 -20.16655376300822 -10.1321240279099  4.942782133026856 -20.38531559647782 -9.819789063574289  5.323814288261179 -19.90304277180832 -10.83021490870419  3.62658645036899 -20.28623538659913 -10.86767262838994  3.896329455615306 -20.81602788063983 -11.07287486332033  4.024013509571539 -20.06514976233704 -11.91922464050185  3.692488513279013 -20.13262810556682 -12.0248264282485  5.503721253281388 -19.44333632745364 -9.813855269440483  4.483714926342987 -22.85862981575447 -12.06209059124588  3.89580397678289 -22.58375813122288 -11.19134608755748  3.868121502779311 -23.037407706652 -12.26059226756528  4.580189884003218 -20.98378157843563 -12.08049272034974  4.285407436550709 -20.49045107263218 -12.05046134652823  4.190504541462721 -19.55749635929716 -8.281459615227805  4.104393451982597 -18.9052324116326 -8.456564436606442  4.739851024375827 -19.76684242634 -8.38471211986799  4.994167920901319 -20.08236726616832 -8.011899220155961  5.571617933318684 -19.32399623577022 -8.572517910903043  3.378633444375073 -18.80546132380579 -10.22975106947773  2.91012611802654 -18.8795518290043 -10.12113571498182  5.676476154377278 -24.19193359223704 -9.709097127150478  5.680700969776492 -23.803253604668 -10.37485142613652  4.007238087200972 -22.05295872386164 -11.23667792022864  4.813928444344506 -22.32632334366391 -12.03389550382283  4.343825266670537 -22.56542620741517 -10.95279021185854  5.895449912051976 -21.63530668678414 -8.37359543449149  7.03388066545492 -21.89924798542754 -8.845190562407103  6.98542687411744 -21.30804247883455 -8.537995305396127  7.127980684101178 -21.85909269683005 -8.242355600212377  6.15632123182673 -19.91618803639708 -9.193463050758817  5.995402399727297 -19.67722040381289 -8.783756814715208  4.047282168016994 -20.44590328709077 -10.8005013853027  4.609799524549665 -22.99925247888433 -10.5767266839739  4.352474057603319 -23.50958088360304 -10.35691859978404  4.537721990549857 -23.7089565696182 -11.42057950667971  5.010299503853014 -23.56679436279235 -11.2374604789723  3.391409294323884 -20.35842425830939 -7.598837037962515  3.101665002843511 -20.81587261280856 -7.559128505406725  2.784880041144903 -20.07084984388378 -7.25075495079129  3.024794830962846 -20.29270553444694 -6.711654513723694  4.95524490016229 -19.67207249256371 -10.9844061308191  4.615548020334233 -19.69334173314815 -11.3029646849064  4.86719626753665 -18.99780619889055 -8.552644877583054  5.154658701123472 -19.07863962588532 -9.095565345107318  5.772467941031699 -21.84473794936206 -7.213654046945763  6.875640586471573 -21.32139254510815 -7.166932006913514  6.570321381327803 -20.44898363825478 -8.9887552307418  5.817534532664456 -21.83510170391705 -8.983189356368079  6.697913715783071 -21.49240604147027 -9.767744451943532  6.882496386336808 -22.0216866212185 -9.384485241204278  6.88098525406895 -21.41042715776688 -9.194263123374339  4.435201445520515 -20.03219070028824 -11.71390977358269  4.762987712128773 -20.57567195135168 -11.81227981932  4.624261599276042 -21.75246879598188 -12.1899405788462  4.798053602788545 -21.41199420107648 -12.04950804939499  4.107650748126296 -19.65066125410396 -11.54390425754644  5.604566548357671 -21.94818215260318 -9.600114666249988  6.462244439392177 -21.59265165279618 -10.27543513033811  3.583799786574585 -19.68678454604305 -8.396925635651044  3.48468734449699 -19.15967658645895 -8.035924663891819  3.163387603849919 -19.84498204036826 -8.869717318609109  2.970100599155439 -19.29733809673889 -8.541951547665501  2.467639624372172 -19.4766847570695 -8.901224080646568  6.130102445403514 -19.81294395836213 -8.279508211936568  6.638501543751902 -22.07988478908575 -9.965345197206979  3.438917063451866 -18.98303821642323 -8.666251305241188  4.777756974773392 -19.79126163600504 -8.87609248265691  3.504377477447729 -20.784610548663 -7.194217188364114  2.877209925844105 -20.81102858807751 -6.486955429106404  3.3583707804551 -20.40462294698254 -6.407370883842031  5.414039303546835 -19.68404510208771 -10.43624661677569  5.868557200660863 -21.51927527432918 -7.990491496937756  5.712003708379846 -21.38732455433432 -7.49045785311038  6.666247675229633 -20.62203048218237 -7.69954922907468  6.840712971239545 -21.01017204845027 -7.53128439716014  4.483877321848209 -19.81934931721971 -7.850867780950887  4.169715449990608 -19.13224801163265 -7.670359997413701  4.673017607409632 -19.06130379786916 -7.99840899805671  2.935186607398954 -19.75284709630653 -9.494417400007453  3.815485020812378 -18.87471737610626 -10.32551525935848  1.645802424949546 -20.39787958425451 -8.402630414721555  5.878735313393269 -19.8194469786043 -9.815963263395844  3.856452084610129 -20.46160422586493 -12.18269087395281  6.299064534475653 -20.0072011016145 -8.682077695656998  5.440954606975526 -20.83292108969898 -7.575275298263527  5.930116023488825 -20.40372933275631 -6.589714563203505  6.172785232232269 -20.28827122545416 -7.022840288505083  6.288920838051656 -20.75946380633999 -6.66335085636322  6.347238566259383 -20.97734064857498 -10.26449746187269  6.577554405286427 -20.7379243742783 -7.180708711599499  2.559763503298876 -20.54820978633963 -7.039267569461964  4.952274556963169 -21.98267366819175 -10.54578281326578  5.772870118811699 -20.02159367256731 -6.863918958318144  3.554913276663667 -20.02689995811746 -6.608936838723015  6.322695491216473 -20.35400047451294 -9.702219801665533  4.285074999592461 -23.34405702369965 -11.88923073045383  4.01312509847931 -23.16982305078806 -10.8746758686777  4.787956729050456 -23.24421285320936 -11.66201424670155  6.44812877644646 -22.68281838125978 -10.2231589287201  5.984065069029567 -22.43147786285612 -8.563364975344358  7.080653438829697 -22.83704492773992 -8.693241280867857  7.134754829224261 -23.00291929421086 -8.314654538239658  6.281771674165983 -22.07666034081393 -10.59918175933961  4.256675694064164 -21.18178480613704 -6.816140886994862  6.040505368023476 -22.49741263813509 -7.453451470030032  6.044166144769077 -22.25012140892048 -8.033999549588787  6.092603139941087 -22.82858518226996 -8.039612367102794  6.600786614730642 -21.14326100060857 -6.773670154926339  6.811127511291116 -21.64648680711698 -6.7345595197609  5.191757272588179 -21.0580451672317 -7.063230171769742  5.881687023405188 -20.87646382195272 -6.175977517875969  2.685778534883765 -20.18400741298923 -9.008781170492981  3.522598440526943 -18.9813457100361 -10.69016360633474  2.942439837014928 -19.71551478989987 -10.14430066412017  3.061180265889426 -18.91598847059397 -10.52824817236399  4.88296560465654 -19.26212734701986 -7.509819735002669  4.39313447067649 -20.38525227356076 -6.131133672767514  4.758182371590756 -19.92063576908241 -6.487559299675457  4.132322180307846 -21.54248834173842 -12.41018178088429  3.613961796296509 -21.26323839691261 -12.49215370446303  3.633951489244942 -19.26261536821297 -7.622754676337192  3.518332632171213 -22.94721929687111 -11.19562145330849  5.251918524181589 -20.61227706707985 -9.449335562652324  5.403158518902671 -21.10121370497998 -9.618232496321129  5.979024475909919 -20.26319248736492 -10.28993088354343  5.72837444004448 -19.53976448955339 -7.811488240500447  5.291632347859613 -19.86380273018133 -6.704693932651219  5.157950958116822 -20.69319306259078 -11.56207369646478  1.722212335554235 -20.9185891871299 -7.989123332384262  6.80480170663234 -20.9605759292815 -9.018963240906293  6.94022454269304 -23.39979023994564 -8.670269290138869  5.344683419810646 -21.59386712420633 -6.876501111976298  6.401169742695981 -21.38152603648906 -6.326334114469597  5.195621259757922 -19.20426630662751 -8.013790096190016  5.151930220494756 -20.40292143833743 -7.678821445283458  5.372270631728288 -19.56974567095276 -7.198565686462771  5.314159881490245 -19.34534077834126 -7.674257764191935  4.507597993658193 -19.37110987712659 -10.98787156045726  4.870608160572814 -20.11740383024018 -11.47020918791803  4.626857521706106 -20.93118914316322 -6.910020541706051  4.730117057958302 -20.88918046489389 -5.855291363361657  4.933435175615839 -20.44553053890882 -6.090658981441084  4.133249858824221 -18.78671367859699 -9.570700470113382  3.551521627753312 -19.51836771117248 -8.960512126373871  2.928335718900361 -19.52843443698732 -8.060629118978005  4.295455605478356 -22.13594583760201 -12.34823477057003  4.075361101629224 -20.97168370946727 -12.31218779802336  5.433295908351925 -20.29880098800985 -6.334533650424598  5.285452577153862 -20.79203245946916 -5.951469006829858  3.217889618204882 -19.83785901876781 -7.032679003027043  3.14995770629843 -19.58140592069558 -7.525612899851663  2.751317846016966 -21.08438048145265 -7.985247747441571  2.309997633274229 -20.44687690072011 -7.65585297722459  5.642283952254971 -21.94932487181257 -11.40723124315702  5.75646021201633 -22.88834345003118 -11.06195670292352  5.284426380088107 -23.08014430451032 -11.39883806462952  4.723202590368953 -24.06358166948638 -10.84104217448772  5.215906930792604 -23.84199511939176 -10.76647053028036  5.521549467738559 -23.42805231044274 -10.93861461713784  6.247114351301622 -23.97202120980169 -9.304715430531891  5.877503163333915 -22.29542743995872 -11.1160855555023  4.768198509494408 -21.52091256259044 -6.722217063382269  6.7698924956929 -22.69894450486727 -9.597861674540443  3.694568063183503 -19.78710091683737 -11.76068404887644  3.658316123579159 -20.78212769995042 -12.34061746741635  3.257009896472779 -20.69377093893264 -11.17153636260446  7.01518404608042 -22.45908308067842 -9.006810276558342  7.162523293268598 -22.38319623418406 -8.363273834244554  5.777823796283491 -22.40568322468729 -9.209234754376913  6.048155919636586 -23.24981161163313 -10.51414421752621  6.475647560513081 -23.17035743610681 -9.934120499013952  5.919048685113645 -19.85197506811481 -7.339601817523425  6.862287327684766 -20.91125544409278 -8.03219835686283  3.400217838510194 -20.4388732827514 -12.18101955343556  4.813342059911001 -23.35001510543789 -10.11532104638069  6.59817248656006 -23.81951059778914 -8.90227790961481  4.951284929755115 -20.57298243465619 -7.258035064903243  5.150061855339271 -24.17941413879564 -10.29877365472656  3.690843359129897 -23.47788224047938 -12.03762335926945  4.021550514009765 -23.81285097286162 -11.59438194502151  3.344430658038322 -23.83414287024602 -11.80194611976169  4.197707207232381 -24.04776421845763 -11.20600299943182  3.30160032868057 -19.70444862914125 -11.63052312207125  3.438858643945289 -22.73975251216086 -12.50320903371118  4.571431173067108 -23.70113754453053 -9.890249989435665  5.603121696176738 -23.5004374003105 -8.747130843307209  </DataArray>
</Points>
<Cells>
<DataArray  type="UInt32"  Name="connectivity"  format="ascii">0 1 2  0 1 3  0 98 1  0 100 1  0 1 222  0 2 3  0 89 2  0 98 2  0 113 2  88 0 3  0 89 3  0 3 222  88 0 89  88 0 222  88 0 223  0 113 89  0 98 99  0 98 100  0 113 98  0 99 100  0 113 99  0 100 222  0 223 222  1 2 3  98 1 2  1 3 222  98 100 1  100 1 222  89 2 3  2 3 247  113 89 2  141 89 2  89 151 2  89 2 247  113 98 2  165 98 2  113 141 2  113 165 2  141 151 2  141 165 2  151 165 2  151 2 247  63 64 3  63 65 3  63 88 3  63 3 189  64 65 3  64 89 3  64 3 247  65 88 3  65 89 3  88 89 3  88 3 189  88 3 222  89 3 247  3 222 189  4 5 6  4 5 7  4 5 123  4 5 124  4 6 7  4 6 153  176 4 6  4 124 7  4 152 7  4 7 153  4 123 124  125 4 123  4 123 152  4 124 152  125 4 152  176 125 4  4 152 153  176 4 152  176 4 153  5 6 7  5 69 6  68 5 7  5 69 7  5 124 7  68 5 69  68 5 124  68 5 175  68 5 253  5 253 69  5 123 124  5 123 168  5 168 124  5 124 175  5 168 175  5 253 168  5 253 175  69 6 7  6 7 105  6 7 153  252 6 7  13 14 6  13 6 15  13 176 6  14 6 15  65 14 6  14 6 105  6 105 15  6 15 153  176 6 15  65 69 6  65 6 105  252 65 6  252 69 6  6 105 153  252 6 105  176 6 153  68 69 7  68 124 7  68 252 7  252 69 7  7 105 153  252 7 105  124 152 7  152 7 153  8 9 10  8 9 11  8 12 9  8 188 9  8 10 11  8 188 10  8 12 11  8 68 11  8 68 12  8 12 170  8 12 188  8 253 12  8 68 175  8 68 253  8 170 171  8 170 172  8 170 188  8 253 170  8 172 171  8 171 175  8 253 171  8 188 172  8 253 175  9 10 11  9 10 129  188 9 10  223 9 10  12 9 11  88 9 11  9 11 128  9 11 129  12 88 9  12 188 9  88 9 128  88 223 9  88 9 224  9 128 129  9 224 128  223 9 129  9 224 129  223 188 9  223 9 224  10 11 129  223 10 129  223 188 10  68 12 11  69 12 11  12 88 11  68 69 11  68 11 97  69 88 11  69 11 97  88 11 97  88 11 128  11 97 128  11 128 129  68 69 12  68 253 12  69 12 88  253 69 12  12 170 188  253 12 170  13 14 15  111 13 14  13 14 117  13 87 15  13 15 117  13 176 15  85 86 13  85 13 87  232 85 13  86 13 87  86 13 176  13 87 117  13 176 87  13 191 87  232 13 87  111 13 117  111 13 191  111 232 13  13 191 117  232 13 191  14 66 15  14 105 15  14 15 117  65 14 66  65 14 105  110 65 14  14 105 66  110 14 66  14 66 117  14 180 66  110 111 14  110 14 180  111 14 117  111 14 180  14 180 117  105 66 15  66 15 117  87 15 117  87 15 153  176 87 15  105 15 153  176 15 153  16 17 18  16 17 19  16 166 17  16 17 208  16 18 19  16 18 49  16 49 19  16 19 208  16 19 212  16 19 270  16 26 60  16 26 62  16 166 26  16 26 167  201 16 26  201 16 49  16 49 270  16 60 62  201 16 60  16 60 212  16 270 60  16 167 62  16 212 62  16 166 167  16 166 174  16 166 208  16 167 174  16 167 212  16 174 208  16 174 212  201 16 270  16 212 208  16 270 212  17 18 19  17 18 103  17 18 131  17 18 279  17 19 208  17 19 279  101 17 103  101 17 104  278 101 17  101 17 280  17 103 104  17 103 131  17 104 131  17 104 279  17 104 280  17 131 279  166 17 208  166 278 17  278 17 208  17 279 208  17 280 208  278 17 280  17 279 280  18 49 19  18 19 264  18 19 279  18 49 142  18 49 264  18 103 131  18 284 103  18 131 268  18 131 279  18 284 131  18 142 264  18 142 268  18 142 284  18 264 268  18 264 279  18 268 279  18 284 268  49 19 264  49 19 270  19 212 208  19 279 208  19 270 212  19 270 264  19 264 279  20 21 22  20 21 23  20 42 21  20 194 21  20 22 23  20 42 22  20 22 43  20 22 183  20 22 282  20 183 23  20 194 23  41 20 42  41 20 43  135 41 20  20 42 43  135 20 43  20 181 43  20 282 43  135 20 181  20 181 182  20 181 183  20 181 282  20 182 183  20 182 194  20 194 183  20 183 282  21 22 23  42 21 22  21 22 173  21 23 173  194 21 23  21 23 235  21 23 281  42 86 21  42 21 173  86 21 126  86 21 173  86 21 235  21 126 235  21 126 244  21 235 173  194 21 244  194 21 281  21 244 235  21 235 281  21 244 281  22 23 173  22 183 23  42 22 43  42 22 156  42 22 173  42 22 193  22 156 43  22 282 43  22 156 193  22 193 173  22 183 282  23 235 173  194 183 23  183 23 199  194 23 196  194 23 199  194 23 281  23 196 199  23 196 281  23 235 281  24 25 26  24 25 27  24 25 30  24 111 25  24 26 27  24 26 35  24 27 29  24 27 30  24 35 27  28 24 29  28 24 30  28 24 36  28 67 24  28 24 112  24 29 30  24 35 29  24 36 29  24 111 30  24 30 112  24 35 36  67 24 36  67 24 110  67 24 112  24 110 111  24 110 112  24 111 112  25 26 27  25 233 26  25 27 30  25 233 27  25 234 27  111 25 30  25 234 30  111 232 25  111 25 234  232 25 233  232 25 234  25 233 234  26 35 27  26 27 61  26 27 62  26 198 27  233 26 27  26 35 60  26 35 61  201 26 35  26 60 61  26 60 62  201 26 60  26 61 62  26 167 62  26 198 62  166 26 90  26 90 167  26 90 198  233 26 90  166 26 167  26 167 198  233 26 198  27 29 30  35 27 29  27 29 61  234 27 30  35 27 61  27 61 62  198 27 62  233 198 27  198 234 27  233 234 27  28 29 30  28 36 29  28 237 29  28 30 112  28 67 36  28 237 36  28 36 248  28 67 112  150 28 67  28 67 248  150 28 112  150 28 248  28 237 248  35 36 29  35 29 61  237 35 29  237 36 29  237 29 61  111 30 112  111 180 30  111 234 30  180 30 112  180 234 30  31 32 33  31 32 34  31 32 177  213 31 32  31 33 34  31 33 72  213 31 33  31 33 226  31 72 34  31 177 34  31 34 179  31 70 46  31 46 71  31 46 177  31 46 203  31 70 71  31 70 226  249 31 70  31 71 72  31 71 203  31 71 226  31 72 179  31 203 72  31 72 226  31 177 179  31 177 203  31 203 179  213 31 226  249 213 31  249 31 226  32 33 34  213 32 33  32 177 34  33 72 34  33 72 226  213 33 226  213 33 250  33 250 226  72 34 179  177 178 34  177 34 179  178 34 179  73 35 36  35 77 36  237 35 36  48 73 35  48 74 35  48 35 77  48 201 35  48 35 263  35 60 61  201 35 60  35 60 263  73 35 61  74 35 61  237 35 61  35 263 61  73 74 35  73 35 77  237 73 35  74 35 263  201 35 263  67 141 36  67 36 248  73 77 36  73 36 162  237 73 36  77 114 36  77 36 162  114 141 36  114 36 162  141 36 162  141 36 248  237 36 162  36 248 162  237 36 248  37 38 39  37 38 40  37 209 38  37 38 269  37 38 276  37 295 38  37 39 40  37 101 39  37 39 269  37 39 272  37 39 280  37 40 272  37 276 40  37 101 269  37 278 101  37 101 280  37 101 295  37 209 276  37 209 278  37 295 269  37 276 272  37 278 272  37 272 280  37 278 276  37 278 280  38 39 40  38 39 240  38 39 269  38 39 285  38 40 210  38 240 40  38 276 40  209 38 210  209 38 211  209 38 216  209 38 276  38 210 211  38 240 210  38 276 210  38 216 211  38 240 211  38 285 240  38 269 285  295 38 269  39 240 40  39 40 272  101 39 104  101 39 269  101 39 280  39 104 269  39 104 280  39 285 240  39 269 285  39 272 280  240 40 210  276 40 210  276 40 272  41 42 43  41 42 91  41 42 156  135 41 43  41 156 43  41 43 239  41 90 91  41 90 92  157 41 90  41 90 160  41 91 92  41 91 156  41 92 156  41 160 92  41 92 239  157 135 41  135 41 160  135 41 239  41 156 239  157 41 160  41 160 239  42 156 43  85 42 86  85 42 91  85 42 139  85 42 140  42 86 140  42 86 173  42 91 139  42 91 156  42 139 140  42 139 156  42 139 193  42 140 173  42 140 193  42 156 193  42 193 173  135 43 137  135 181 43  135 43 239  181 43 137  43 239 137  282 43 137  156 43 239  181 282 43  44 45 46  44 45 47  44 45 94  185 44 45  44 46 47  44 46 146  44 46 259  44 94 47  44 186 47  44 47 230  44 47 259  44 260 47  185 44 94  44 186 94  44 146 106  44 168 106  44 106 169  44 106 260  123 44 168  123 44 169  185 123 44  123 44 186  44 146 259  44 146 260  44 168 169  44 186 169  44 169 230  44 260 169  185 44 186  44 186 230  44 260 230  44 260 259  45 46 47  45 70 46  45 46 71  45 71 47  45 94 47  45 96 47  45 70 71  45 70 93  45 70 96  45 96 71  45 93 94  45 93 96  185 45 93  45 94 96  185 45 94  46 71 47  46 47 203  46 47 259  70 46 71  46 71 203  46 146 177  46 146 259  46 177 203  46 177 259  46 203 259  96 71 47  71 47 203  94 96 47  186 94 47  186 47 230  47 203 259  260 47 230  260 47 259  48 49 50  48 49 51  48 49 134  48 201 49  48 50 51  48 74 50  48 133 50  48 201 50  48 50 263  48 133 51  48 134 51  48 73 74  48 73 77  48 73 164  48 74 133  48 74 163  48 74 164  48 74 263  132 48 77  48 77 163  48 77 164  132 48 133  132 48 134  132 48 163  48 133 134  48 133 163  48 163 164  48 201 263  49 50 51  201 49 50  49 264 50  49 50 265  49 270 50  49 134 51  49 265 51  49 142 134  49 134 265  49 142 264  49 142 265  201 49 270  49 264 265  49 270 264  133 50 51  50 265 51  74 133 50  74 50 263  201 50 263  201 270 50  270 50 263  264 50 265  270 264 50  133 118 51  118 134 51  118 207 51  133 134 51  134 207 51  134 265 51  265 207 51  52 53 54  52 53 55  52 53 138  52 53 155  52 181 53  52 54 55  52 154 54  52 54 155  52 214 54  52 55 138  52 214 55  52 215 55  135 52 138  135 52 181  135 52 215  52 181 138  52 215 138  52 154 155  52 154 182  52 154 214  52 181 155  52 182 155  52 181 182  52 214 215  53 54 55  53 54 155  53 55 138  53 137 138  181 53 137  282 53 137  181 53 138  181 53 155  53 155 184  181 53 184  181 282 53  282 53 184  214 54 55  154 54 155  154 214 54  154 54 218  54 155 218  215 55 138  55 277 138  214 215 55  214 216 55  215 216 55  215 55 277  216 55 277  56 57 58  56 57 59  261 56 57  56 57 262  56 58 59  238 56 58  238 56 59  56 59 262  238 56 262  261 56 262  57 58 59  57 58 80  221 57 58  57 59 80  107 57 59  57 59 262  107 57 80  108 57 80  221 57 80  107 108 57  261 107 57  107 57 262  221 108 57  261 57 262  79 58 59  58 59 80  190 58 59  238 58 59  79 58 80  190 79 58  79 221 58  221 58 80  238 190 58  79 59 80  190 79 59  107 59 80  109 59 80  107 109 59  107 59 262  109 59 262  238 190 59  238 59 262  60 61 62  60 263 61  60 212 62  201 60 263  201 270 60  270 60 212  270 60 263  73 74 61  237 73 61  74 263 61  167 198 62  167 212 62  63 64 65  63 64 66  63 65 66  63 65 88  63 65 97  63 65 105  252 63 65  63 105 66  63 88 97  63 88 189  63 97 189  252 63 97  252 63 105  64 65 66  64 65 89  64 110 65  64 110 66  64 180 66  64 110 89  64 150 89  64 89 247  64 150 110  64 110 180  64 150 180  64 150 247  65 105 66  110 65 66  65 69 88  65 69 97  252 65 69  65 88 89  65 88 97  110 65 89  252 65 97  252 65 105  110 180 66  180 66 117  67 110 89  67 141 89  150 67 89  67 89 151  67 110 112  150 67 110  150 67 112  67 141 151  67 141 248  150 67 151  150 67 248  67 151 248  68 69 97  68 252 69  68 253 69  68 252 97  68 124 175  68 253 175  69 88 97  252 69 97  70 96 71  70 71 226  70 71 227  70 93 96  70 93 227  286 70 93  70 96 227  70 226 227  249 70 226  249 70 227  286 70 227  249 286 70  71 203 72  71 72 226  96 71 227  71 226 227  203 72 179  73 74 164  73 77 121  73 77 162  73 77 164  73 162 121  73 121 164  237 73 162  74 133 163  74 163 164  75 76 77  75 76 78  75 76 229  75 76 256  75 77 78  75 77 114  75 77 121  75 121 78  75 256 78  75 114 121  75 114 122  75 114 192  75 114 275  75 122 121  75 256 121  75 192 122  75 256 122  75 192 256  75 192 274  75 275 192  75 192 283  75 229 256  75 274 229  75 274 256  75 283 274  75 275 283  76 77 78  132 76 77  76 77 163  76 163 78  76 228 78  76 256 78  81 76 82  81 132 76  81 76 255  76 82 228  76 82 229  76 255 82  132 76 163  132 76 255  76 228 163  76 255 163  76 228 229  76 255 228  76 228 256  76 229 256  77 121 78  77 163 78  77 164 78  77 114 121  77 114 162  77 162 121  77 121 164  132 77 163  77 163 164  121 164 78  256 121 78  163 164 78  228 163 78  228 256 78  79 172 80  79 221 80  79 221 172  107 108 80  107 109 80  108 109 80  170 108 80  108 80 171  221 108 80  108 80 254  109 80 254  170 80 171  170 172 80  170 221 80  172 80 171  80 171 254  221 172 80  81 82 83  81 82 84  81 255 82  81 83 84  81 119 83  81 83 120  81 255 83  81 83 293  81 84 293  81 119 120  81 132 119  81 231 119  81 119 255  81 231 120  81 293 120  81 132 255  82 83 84  255 82 83  82 228 229  255 82 228  83 84 293  118 119 83  118 83 120  118 255 83  119 83 120  119 255 83  83 293 120  85 86 87  85 86 140  85 139 87  85 140 87  232 85 87  85 91 139  232 85 91  85 139 140  232 85 139  86 87 127  86 140 87  86 176 87  86 125 126  86 125 127  86 176 125  86 126 127  86 126 235  86 140 127  86 127 173  86 176 127  86 127 235  86 140 173  86 235 173  191 87 117  140 87 127  87 127 153  176 87 127  139 140 87  191 139 87  232 139 87  176 87 153  232 191 87  88 97 128  88 97 189  88 128 189  88 222 128  88 224 128  88 222 189  88 223 222  88 222 224  88 223 224  150 110 89  113 141 89  141 89 151  150 89 151  150 89 247  89 151 247  90 91 92  233 90 91  90 158 92  90 160 92  90 198 92  233 90 92  157 90 158  157 90 160  166 157 90  90 158 160  166 90 158  90 158 167  90 158 198  166 90 167  90 167 198  233 90 198  91 92 156  91 204 92  233 91 92  91 139 156  91 204 139  232 91 139  91 204 156  232 91 204  233 91 204  232 233 91  204 92 156  92 156 239  158 160 92  158 198 92  160 92 239  198 204 92  233 198 92  233 204 92  93 94 95  93 94 96  185 93 94  93 94 225  93 95 96  93 95 225  93 95 227  93 95 236  93 95 245  93 96 227  185 126 93  126 93 225  126 244 93  126 93 246  185 93 225  93 225 245  93 225 246  93 227 236  286 93 227  244 93 236  93 245 236  286 93 236  244 93 245  244 93 246  286 244 93  93 245 246  94 95 96  94 95 225  185 186 94  185 94 225  186 94 225  95 96 227  95 225 245  95 227 236  95 245 236  97 128 189  98 99 100  113 98 99  98 292 99  113 165 98  113 273 98  113 98 292  165 273 98  273 98 292  113 292 99  101 102 103  101 102 104  101 102 269  101 295 102  101 103 104  101 104 269  101 104 280  101 295 269  278 101 280  102 103 104  102 103 130  102 104 130  102 104 269  102 269 130  295 102 269  103 104 130  103 104 131  103 130 131  103 130 287  284 103 131  103 287 131  284 103 287  294 284 103  294 103 287  104 130 131  104 269 130  104 131 279  104 279 280  106 107 108  106 107 109  146 106 107  106 108 109  168 106 108  106 108 254  146 106 109  106 109 254  106 109 260  146 106 260  168 106 169  168 106 254  106 254 169  106 260 169  106 260 254  107 108 109  146 107 109  107 148 109  107 109 262  146 147 107  146 107 148  147 107 148  261 147 107  147 107 262  107 148 262  261 107 262  108 109 254  170 168 108  168 108 171  168 108 254  170 108 171  170 221 108  108 171 254  146 148 109  146 109 260  148 109 260  148 109 262  109 260 254  110 111 112  110 111 180  150 110 112  110 180 112  150 110 180  111 180 112  111 180 117  111 191 117  111 180 191  111 180 234  111 232 191  111 234 191  111 232 234  150 180 112  113 114 115  113 114 116  113 114 141  113 114 275  113 115 116  113 141 115  113 115 165  113 115 273  113 116 273  113 275 116  113 141 165  113 165 273  113 273 292  114 115 116  114 115 122  114 141 115  114 115 161  114 192 115  114 192 116  114 275 116  114 122 121  114 162 121  114 161 122  114 162 122  114 192 122  114 141 161  114 141 162  114 161 162  114 275 192  192 115 116  115 116 273  115 161 122  192 115 122  141 115 161  141 115 165  115 161 165  115 165 273  275 192 116  192 116 283  275 116 283  180 191 117  118 119 120  133 118 119  118 119 134  118 205 119  118 119 255  118 205 120  133 118 134  133 118 255  118 205 134  118 134 207  118 205 207  205 119 120  231 119 120  132 133 119  132 119 134  132 119 255  133 119 134  133 119 255  205 119 134  206 119 134  205 206 119  205 231 119  231 206 119  205 231 120  205 288 120  231 288 120  162 122 121  256 122 121  161 162 122  192 256 122  123 124 152  123 168 124  123 124 169  123 186 124  123 124 187  125 123 152  125 185 123  125 123 187  123 187 152  123 168 169  123 186 169  185 123 186  185 123 187  123 186 187  124 187 152  168 124 169  168 124 175  124 169 175  186 124 169  186 124 187  125 126 127  125 185 126  125 126 243  125 152 127  176 125 127  125 127 243  176 125 152  125 187 152  125 152 243  125 185 187  125 185 243  125 187 243  126 127 235  126 127 243  185 126 225  185 126 243  126 225 243  126 225 246  126 243 235  126 244 235  126 246 235  126 243 246  126 244 246  140 127 173  152 127 153  176 152 127  152 127 243  176 127 153  127 235 173  127 243 235  224 128 129  222 128 189  222 224 128  223 224 129  130 287 131  131 268 267  284 131 267  287 131 267  131 268 279  284 131 268  284 287 131  132 133 134  132 133 163  132 133 255  132 255 163  133 255 163  206 142 134  142 134 207  142 134 265  205 206 134  205 134 207  206 134 207  134 265 207  135 136 137  135 136 138  157 135 136  135 136 160  135 209 136  135 215 136  135 137 138  135 160 137  135 181 137  135 239 137  135 181 138  135 215 138  157 135 160  157 135 209  135 160 239  135 209 215  136 137 138  136 160 137  215 136 138  136 277 138  157 159 136  157 136 160  157 209 136  159 136 160  209 159 136  276 159 136  209 215 136  209 276 136  209 136 277  215 136 277  276 136 277  181 137 138  160 239 137  181 282 137  215 277 138  139 140 193  139 156 193  204 139 156  191 204 139  232 191 139  232 204 139  140 193 173  141 151 161  141 151 165  141 151 248  141 161 162  141 161 165  141 248 161  141 248 162  142 143 144  142 143 145  206 142 143  142 143 267  142 143 284  142 144 145  206 142 144  142 144 207  142 145 207  142 145 265  142 145 267  142 145 268  206 142 207  142 265 207  142 264 265  142 264 268  142 268 265  142 268 267  142 284 267  142 284 268  143 144 145  206 143 144  143 144 266  143 144 291  143 266 145  143 145 267  206 143 291  143 266 267  143 266 291  143 294 266  143 284 267  143 294 267  143 294 284  144 145 207  144 266 145  205 206 144  205 144 207  205 289 144  206 144 207  289 206 144  206 144 291  144 266 291  289 144 291  145 265 207  145 268 265  266 145 267  145 268 267  146 147 148  146 147 149  146 147 177  146 148 149  146 148 259  146 148 260  146 177 149  146 259 149  146 177 259  146 260 259  147 148 149  147 200 148  147 148 262  147 177 149  147 178 149  147 200 149  147 177 178  147 178 200  147 200 262  261 147 262  200 148 149  148 259 149  200 148 262  148 260 259  177 178 149  177 149 179  177 203 149  177 259 149  178 149 179  178 200 149  203 149 179  203 259 149  150 151 247  150 151 248  151 161 165  151 248 161  176 152 153  187 152 243  154 182 155  154 155 217  154 155 218  154 182 217  154 241 182  154 217 218  154 241 217  154 242 217  154 242 218  154 241 242  181 182 155  181 155 184  182 155 184  182 155 199  182 155 217  155 199 184  155 217 199  155 217 218  157 158 159  157 158 160  166 157 158  157 158 174  157 159 160  157 174 159  157 209 159  157 278 159  166 157 174  166 157 278  157 278 174  157 209 278  158 159 160  158 174 159  166 158 167  166 158 174  158 167 174  158 167 198  174 159 272  278 174 159  209 276 159  209 278 159  276 159 272  278 159 272  278 276 159  248 161 162  237 248 162  255 228 163  166 167 174  166 174 208  166 278 174  166 278 208  167 174 212  168 171 169  168 169 175  168 254 169  170 168 171  253 170 168  168 171 175  253 168 171  168 171 254  253 168 175  171 169 175  171 254 169  186 169 230  260 169 230  260 254 169  170 172 171  253 170 171  170 188 172  170 221 172  170 188 221  253 171 175  188 221 172  174 212 208  174 272 208  278 174 208  278 174 272  177 178 179  177 203 179  177 203 259  180 234 191  181 182 183  181 182 184  181 183 184  181 183 282  181 282 184  182 183 184  182 194 183  182 183 199  182 199 184  182 194 197  182 194 199  182 194 219  182 197 199  182 217 197  182 219 197  241 182 197  182 217 199  241 182 217  241 182 219  183 199 184  183 282 184  194 183 199  185 186 187  185 186 225  185 187 225  185 187 243  185 225 243  186 187 225  187 225 243  232 191 204  234 191 204  232 234 191  192 274 256  192 283 274  275 192 283  194 195 196  194 195 197  194 195 202  194 219 195  194 286 195  194 196 197  194 196 199  194 196 202  194 196 281  194 197 199  194 219 197  194 244 202  194 202 281  194 286 202  194 286 219  194 244 281  194 286 244  195 196 197  195 196 202  219 195 197  195 197 220  257 195 202  286 195 202  219 195 220  219 257 195  286 219 195  257 195 220  286 257 195  196 197 199  196 202 281  217 197 199  241 217 197  242 217 197  219 197 220  241 219 197  241 197 220  242 197 220  241 242 197  233 198 204  198 234 204  233 198 234  201 270 263  244 202 236  245 202 236  257 202 236  286 202 236  244 245 202  244 202 281  286 244 202  245 202 281  286 257 202  232 233 204  232 234 204  233 234 204  205 206 207  205 231 206  205 289 206  205 231 288  205 289 231  205 289 288  289 231 206  289 206 291  278 272 208  272 280 208  278 280 208  279 280 208  209 210 211  209 276 210  209 210 277  209 216 211  209 211 277  209 215 216  209 215 277  209 216 277  209 276 277  209 278 276  240 210 211  210 211 277  276 210 277  216 211 277  249 213 226  213 250 226  249 213 250  271 249 213  271 213 250  214 215 216  215 216 277  242 217 218  241 242 217  241 219 220  219 257 220  219 258 220  241 219 258  241 271 219  249 219 251  249 219 258  271 249 219  249 286 219  219 257 251  219 258 251  286 219 251  219 257 258  286 219 257  271 219 258  241 242 220  241 258 220  257 258 220  223 222 224  225 243 246  225 245 246  249 226 227  251 226 227  249 250 226  249 251 226  250 251 226  257 227 236  286 227 236  249 251 227  249 286 227  257 251 227  286 251 227  286 257 227  228 229 256  274 229 256  289 231 288  231 290 288  289 231 290  232 233 234  243 246 235  244 245 235  244 246 235  244 235 281  245 246 235  245 235 281  244 245 236  286 244 236  286 257 236  241 271 258  244 245 246  244 245 281  249 250 251  249 250 258  271 249 250  249 258 251  249 286 251  271 249 258  250 258 251  271 250 258  257 258 251  286 257 251  264 268 265  264 268 279  266 287 267  294 266 267  294 266 287  284 268 267  284 287 267  294 284 267  294 287 267  278 276 272  278 272 280  294 284 287  289 290 288  </DataArray>
<DataArray  type="UInt32"  Name="offsets"  format="ascii">3 6 9 12 15 18 21 24 27 30 33 36 39 42 45 48 51 54 57 60 63 66 69 72 75 78 81 84 87 90 93 96 99 102 105 108 111 114 117 120 123 126 129 132 135 138 141 144 147 150 153 156 159 162 165 168 171 174 177 180 183 186 189 192 195 198 201 204 207 210 213 216 219 222 225 228 231 234 237 240 243 246 249 252 255 258 261 264 267 270 273 276 279 282 285 288 291 294 297 300 303 306 309 312 315 318 321 324 327 330 333 336 339 342 345 348 351 354 357 360 363 366 369 372 375 378 381 384 387 390 393 396 399 402 405 408 411 414 417 420 423 426 429 432 435 438 441 444 447 450 453 456 459 462 465 468 471 474 477 480 483 486 489 492 495 498 501 504 507 510 513 516 519 522 525 528 531 534 537 540 543 546 549 552 555 558 561 564 567 570 573 576 579 582 585 588 591 594 597 600 603 606 609 612 615 618 621 624 627 630 633 636 639 642 645 648 651 654 657 660 663 666 669 672 675 678 681 684 687 690 693 696 699 702 705 708 711 714 717 720 723 726 729 732 735 738 741 744 747 750 753 756 759 762 765 768 771 774 777 780 783 786 789 792 795 798 801 804 807 810 813 816 819 822 825 828 831 834 837 840 843 846 849 852 855 858 861 864 867 870 873 876 879 882 885 888 891 894 897 900 903 906 909 912 915 918 921 924 927 930 933 936 939 942 945 948 951 954 957 960 963 966 969 972 975 978 981 984 987 990 993 996 999 1002 1005 1008 1011 1014 1017 1020 1023 1026 1029 1032 1035 1038 1041 1044 1047 1050 1053 1056 1059 1062 1065 1068 1071 1074 1077 1080 1083 1086 1089 1092 1095 1098 1101 1104 1107 1110 1113 1116 1119 1122 1125 1128 1131 1134 1137 1140 1143 1146 1149 1152 1155 1158 1161 1164 1167 1170 1173 1176 1179 1182 1185 1188 1191 1194 1197 1200 1203 1206 1209 1212 1215 1218 1221 1224 1227 1230 1233 1236 1239 1242 1245 1248 1251 1254 1257 1260 1263 1266 1269 1272 1275 1278 1281 1284 1287 1290 1293 1296 1299 1302 1305 1308 1311 1314 1317 1320 1323 1326 1329 1332 1335 1338 1341 1344 1347 1350 1353 1356 1359 1362 1365 1368 1371 1374 1377 1380 1383 1386 1389 1392 1395 1398 1401 1404 1407 1410 1413 1416 1419 1422 1425 1428 1431 1434 1437 1440 1443 1446 1449 1452 1455 1458 1461 1464 1467 1470 1473 1476 1479 1482 1485 1488 1491 1494 1497 1500 1503 1506 1509 1512 1515 1518 1521 1524 1527 1530 1533 1536 1539 1542 1545 1548 1551 1554 1557 1560 1563 1566 1569 1572 1575 1578 1581 1584 1587 1590 1593 1596 1599 1602 1605 1608 1611 1614 1617 1620 1623 1626 1629 1632 1635 1638 1641 1644 1647 1650 1653 1656 1659 1662 1665 1668 1671 1674 1677 1680 1683 1686 1689 1692 1695 1698 1701 1704 1707 1710 1713 1716 1719 1722 1725 1728 1731 1734 1737 1740 1743 1746 1749 1752 1755 1758 1761 1764 1767 1770 1773 1776 1779 1782 1785 1788 1791 1794 1797 1800 1803 1806 1809 1812 1815 1818 1821 1824 1827 1830 1833 1836 1839 1842 1845 1848 1851 1854 1857 1860 1863 1866 1869 1872 1875 1878 1881 1884 1887 1890 1893 1896 1899 1902 1905 1908 1911 1914 1917 1920 1923 1926 1929 1932 1935 1938 1941 1944 1947 1950 1953 1956 1959 1962 1965 1968 1971 1974 1977 1980 1983 1986 1989 1992 1995 1998 2001 2004 2007 2010 2013 2016 2019 2022 2025 2028 2031 2034 2037 2040 2043 2046 2049 2052 2055 2058 2061 2064 2067 2070 2073 2076 2079 2082 2085 2088 2091 2094 2097 2100 2103 2106 2109 2112 2115 2118 2121 2124 2127 2130 2133 2136 2139 2142 2145 2148 2151 2154 2157 2160 2163 2166 2169 2172 2175 2178 2181 2184 2187 2190 2193 2196 2199 2202 2205 2208 2211 2214 2217 2220 2223 2226 2229 2232 2235 2238 2241 2244 2247 2250 2253 2256 2259 2262 2265 2268 2271 2274 2277 2280 2283 2286 2289 2292 2295 2298 2301 2304 2307 2310 2313 2316 2319 2322 2325 2328 2331 2334 2337 2340 2343 2346 2349 2352 2355 2358 2361 2364 2367 2370 2373 2376 2379 2382 2385 2388 2391 2394 2397 2400 2403 2406 2409 2412 2415 2418 2421 2424 2427 2430 2433 2436 2439 2442 2445 2448 2451 2454 2457 2460 2463 2466 2469 2472 2475 2478 2481 2484 2487 2490 2493 2496 2499 2502 2505 2508 2511 2514 2517 2520 2523 2526 2529 2532 2535 2538 2541 2544 2547 2550 2553 2556 2559 2562 2565 2568 2571 2574 2577 2580 2583 2586 2589 2592 2595 2598 2601 2604 2607 2610 2613 2616 2619 2622 2625 2628 2631 2634 2637 2640 2643 2646 2649 2652 2655 2658 2661 2664 2667 2670 2673 2676 2679 2682 2685 2688 2691 2694 2697 2700 2703 2706 2709 2712 2715 2718 2721 2724 2727 2730 2733 2736 2739 2742 2745 2748 2751 2754 2757 2760 2763 2766 2769 2772 2775 2778 2781 2784 2787 2790 2793 2796 2799 2802 2805 2808 2811 2814 2817 2820 2823 2826 2829 2832 2835 2838 2841 2844 2847 2850 2853 2856 2859 2862 2865 2868 2871 2874 2877 2880 2883 2886 2889 2892 2895 2898 2901 2904 2907 2910 2913 2916 2919 2922 2925 2928 2931 2934 2937 2940 2943 2946 2949 2952 2955 2958 2961 2964 2967 2970 2973 2976 2979 2982 2985 2988 2991 2994 2997 3000 3003 3006 3009 3012 3015 3018 3021 3024 3027 3030 3033 3036 3039 3042 3045 3048 3051 3054 3057 3060 3063 3066 3069 3072 3075 3078 3081 3084 3087 3090 3093 3096 3099 3102 3105 3108 3111 3114 3117 3120 3123 3126 3129 3132 3135 3138 3141 3144 3147 3150 3153 3156 3159 3162 3165 3168 3171 3174 3177 3180 3183 3186 3189 3192 3195 3198 3201 3204 3207 3210 3213 3216 3219 3222 3225 3228 3231 3234 3237 3240 3243 3246 3249 3252 3255 3258 3261 3264 3267 3270 3273 3276 3279 3282 3285 3288 3291 3294 3297 3300 3303 3306 3309 3312 3315 3318 3321 3324 3327 3330 3333 3336 3339 3342 3345 3348 3351 3354 3357 3360 3363 3366 3369 3372 3375 3378 3381 3384 3387 3390 3393 3396 3399 3402 3405 3408 3411 3414 3417 3420 3423 3426 3429 3432 3435 3438 3441 3444 3447 3450 3453 3456 3459 3462 3465 3468 3471 3474 3477 3480 3483 3486 3489 3492 3495 3498 3501 3504 3507 3510 3513 3516 3519 3522 3525 3528 3531 3534 3537 3540 3543 3546 3549 3552 3555 3558 3561 3564 3567 3570 3573 3576 3579 3582 3585 3588 3591 3594 3597 3600 3603 3606 3609 3612 3615 3618 3621 3624 3627 3630 3633 3636 3639 3642 3645 3648 3651 3654 3657 3660 3663 3666 3669 3672 3675 3678 3681 3684 3687 3690 3693 3696 3699 3702 3705 3708 3711 3714 3717 3720 3723 3726 3729 3732 3735 3738 3741 3744 3747 3750 3753 3756 3759 3762 3765 3768 3771 3774 3777 3780 3783 3786 3789 3792 3795 3798 3801 3804 3807 3810 3813 3816 3819 3822 3825 3828 3831 3834 3837 3840 3843 3846 3849 3852 3855 3858 3861 3864 3867 3870 3873 3876 3879 3882 3885 3888 3891 3894 3897 3900 3903 3906 3909 3912 3915 3918 3921 3924 3927 3930 3933 3936 3939 3942 3945 3948 3951 3954 3957 3960 3963 3966 3969 3972 3975 3978 3981 3984 3987 3990 3993 3996 3999 4002 4005 4008 4011 4014 4017 4020 4023 4026 4029 4032 4035 4038 4041 4044 4047 4050 4053 4056 4059 4062 4065 4068 4071 4074 4077 4080 4083 4086 4089 4092 4095 4098 4101 4104 4107 4110 4113 4116 4119 4122 4125 4128 4131 4134 4137 4140 4143 4146 4149 4152 4155 4158 4161 4164 4167 4170 4173 4176 4179 4182 4185 4188 4191 4194 4197 4200 4203 4206 4209 4212 4215 4218 4221 4224 4227 4230 4233 4236 4239 4242 4245 4248 4251 4254 4257 4260 4263 4266 4269 4272 4275 4278 4281 4284 4287 4290 4293 4296 4299 4302 4305 4308 4311 4314 4317 4320 4323 4326 4329 4332 4335 4338 4341 4344 4347 4350 4353 4356 4359 4362 4365 4368 4371 4374 4377 4380 4383 4386 4389 4392 4395 4398 4401 4404 4407 4410 4413 4416 4419 4422 4425 4428 4431 4434 4437 4440 4443 4446 4449 4452 4455 4458 4461 4464 4467 4470 4473 4476 4479 4482 4485 4488 4491 4494 4497 4500 4503 4506 4509 4512 4515 4518 4521 4524 4527 4530 4533 4536 4539 4542 4545 4548 4551 4554 4557 4560 4563 4566 4569 4572 4575 4578 4581 4584 4587 4590 4593 4596 4599 4602 4605 4608 4611 4614 4617 4620 4623 4626 4629 4632 4635 4638 4641 4644 4647 4650 4653 4656 4659 4662 4665 4668 4671 4674 4677 4680 4683 4686 4689 4692 4695 4698 4701 4704 4707 4710 4713 4716 4719 4722 4725 4728 4731 4734 4737 4740 4743 4746 4749 4752 4755 4758 4761 4764 4767 4770 4773 4776 4779 4782 4785 4788 4791 4794 4797 4800 4803 4806 4809 4812 4815 4818 4821 4824 4827 4830 4833 4836 4839 4842 4845 4848 4851 4854 4857 4860 4863 4866 4869 4872 4875 4878 4881 4884 4887 4890 4893 4896 4899 4902 4905 4908 4911 4914 4917 4920 4923 4926 4929 4932 4935 4938 4941 4944 4947 4950 4953 4956 4959 4962 4965 4968 4971 4974 4977 4980 4983 4986 4989 4992 4995 4998 5001 5004 5007 5010 5013 5016 5019 5022 5025 5028 5031 5034 5037 5040 5043 5046 5049 5052 5055 5058 5061 5064 5067 5070 5073 5076 5079 5082 5085 5088 5091 5094 5097 5100 5103 5106 5109 5112 5115 5118 5121 5124 5127 5130 5133 5136 5139 5142 5145 5148 5151 5154 5157 5160 5163 5166 5169 5172 5175 5178 5181 5184 5187 5190 5193 5196 5199 5202 5205 5208 5211 5214 5217 5220 5223 5226 5229 5232 5235 5238 5241 5244 5247 5250 5253 5256 5259 5262 5265 5268 5271 5274 5277 5280 5283 5286 5289 5292 5295 5298 5301 5304 5307 5310 5313 5316 5319 5322 5325 5328 5331 5334 5337 5340 5343 5346 5349 5352 5355 5358 5361 5364 5367 5370 5373 5376 5379 5382 5385 5388 5391 5394 5397 5400 5403 5406 5409 5412 5415 5418 5421 5424 5427 5430 5433 5436 5439 5442 </DataArray>
<DataArray  type="UInt8"  Name="types"  format="ascii">5 5 5 5 5 5 5 5 5 5 5 5 5 5 5 5 5 5 5 5 5 5 5 5 5 5 5 5 5 5 5 5 5 5 5 5 5 5 5 5 5 5 5 5 5 5 5 5 5 5 5 5 5 5 5 5 5 5 5 5 5 5 5 5 5 5 5 5 5 5 5 5 5 5 5 5 5 5 5 5 5 5 5 5 5 5 5 5 5 5 5 5 5 5 5 5 5 5 5 5 5 5 5 5 5 5 5 5 5 5 5 5 5 5 5 5 5 5 5 5 5 5 5 5 5 5 5 5 5 5 5 5 5 5 5 5 5 5 5 5 5 5 5 5 5 5 5 5 5 5 5 5 5 5 5 5 5 5 5 5 5 5 5 5 5 5 5 5 5 5 5 5 5 5 5 5 5 5 5 5 5 5 5 5 5 5 5 5 5 5 5 5 5 5 5 5 5 5 5 5 5 5 5 5 5 5 5 5 5 5 5 5 5 5 5 5 5 5 5 5 5 5 5 5 5 5 5 5 5 5 5 5 5 5 5 5 5 5 5 5 5 5 5 5 5 5 5 5 5 5 5 5 5 5 5 5 5 5 5 5 5 5 5 5 5 5 5 5 5 5 5 5 5 5 5 5 5 5 5 5 5 5 5 5 5 5 5 5 5 5 5 5 5 5 5 5 5 5 5 5 5 5 5 5 5 5 5 5 5 5 5 5 5 5 5 5 5 5 5 5 5 5 5 5 5 5 5 5 5 5 5 5 5 5 5 5 5 5 5 5 5 5 5 5 5 5 5 5 5 5 5 5 5 5 5 5 5 5 5 5 5 5 5 5 5 5 5 5 5 5 5 5 5 5 5 5 5 5 5 5 5 5 5 5 5 5 5 5 5 5 5 5 5 5 5 5 5 5 5 5 5 5 5 5 5 5 5 5 5 5 5 5 5 5 5 5 5 5 5 5 5 5 5 5 5 5 5 5 5 5 5 5 5 5 5 5 5 5 5 5 5 5 5 5 5 5 5 5 5 5 5 5 5 5 5 5 5 5 5 5 5 5 5 5 5 5 5 5 5 5 5 5 5 5 5 5 5 5 5 5 5 5 5 5 5 5 5 5 5 5 5 5 5 5 5 5 5 5 5 5 5 5 5 5 5 5 5 5 5 5 5 5 5 5 5 5 5 5 5 5 5 5 5 5 5 5 5 5 5 5 5 5 5 5 5 5 5 5 5 5 5 5 5 5 5 5 5 5 5 5 5 5 5 5 5 5 5 5 5 5 5 5 5 5 5 5 5 5 5 5 5 5 5 5 5 5 5 5 5 5 5 5 5 5 5 5 5 5 5 5 5 5 5 5 5 5 5 5 5 5 5 5 5 5 5 5 5 5 5 5 5 5 5 5 5 5 5 5 5 5 5 5 5 5 5 5 5 5 5 5 5 5 5 5 5 5 5 5 5 5 5 5 5 5 5 5 5 5 5 5 5 5 5 5 5 5 5 5 5 5 5 5 5 5 5 5 5 5 5 5 5 5 5 5 5 5 5 5 5 5 5 5 5 5 5 5 5 5 5 5 5 5 5 5 5 5 5 5 5 5 5 5 5 5 5 5 5 5 5 5 5 5 5 5 5 5 5 5 5 5 5 5 5 5 5 5 5 5 5 5 5 5 5 5 5 5 5 5 5 5 5 5 5 5 5 5 5 5 5 5 5 5 5 5 5 5 5 5 5 5 5 5 5 5 5 5 5 5 5 5 5 5 5 5 5 5 5 5 5 5 5 5 5 5 5 5 5 5 5 5 5 5 5 5 5 5 5 5 5 5 5 5 5 5 5 5 5 5 5 5 5 5 5 5 5 5 5 5 5 5 5 5 5 5 5 5 5 5 5 5 5 5 5 5 5 5 5 5 5 5 5 5 5 5 5 5 5 5 5 5 5 5 5 5 5 5 5 5 5 5 5 5 5 5 5 5 5 5 5 5 5 5 5 5 5 5 5 5 5 5 5 5 5 5 5 5 5 5 5 5 5 5 5 5 5 5 5 5 5 5 5 5 5 5 5 5 5 5 5 5 5 5 5 5 5 5 5 5 5 5 5 5 5 5 5 5 5 5 5 5 5 5 5 5 5 5 5 5 5 5 5 5 5 5 5 5 5 5 5 5 5 5 5 5 5 5 5 5 5 5 5 5 5 5 5 5 5 5 5 5 5 5 5 5 5 5 5 5 5 5 5 5 5 5 5 5 5 5 5 5 5 5 5 5 5 5 5 5 5 5 5 5 5 5 5 5 5 5 5 5 5 5 5 5 5 5 5 5 5 5 5 5 5 5 5 5 5 5 5 5 5 5 5 5 5 5 5 5 5 5 5 5 5 5 5 5 5 5 5 5 5 5 5 5 5 5 5 5 5 5 5 5 5 5 5 5 5 5 5 5 5 5 5 5 5 5 5 5 5 5 5 5 5 5 5 5 5 5 5 5 5 5 5 5 5 5 5 5 5 5 5 5 5 5 5 5 5 5 5 5 5 5 5 5 5 5 5 5 5 5 5 5 5 5 5 5 5 5 5 5 5 5 5 5 5 5 5 5 5 5 5 5 5 5 5 5 5 5 5 5 5 5 5 5 5 5 5 5 5 5 5 5 5 5 5 5 5 5 5 5 5 5 5 5 5 5 5 5 5 5 5 5 5 5 5 5 5 5 5 5 5 5 5 5 5 5 5 5 5 5 5 5 5 5 5 5 5 5 5 5 5 5 5 5 5 5 5 5 5 5 5 5 5 5 5 5 5 5 5 5 5 5 5 5 5 5 5 5 5 5 5 5 5 5 5 5 5 5 5 5 5 5 5 5 5 5 5 5 5 5 5 5 5 5 5 5 5 5 5 5 5 5 5 5 5 5 5 5 5 5 5 5 5 5 5 5 5 5 5 5 5 5 5 5 5 5 5 5 5 5 5 5 5 5 5 5 5 5 5 5 5 5 5 5 5 5 5 5 5 5 5 5 5 5 5 5 5 5 5 5 5 5 5 5 5 5 5 5 5 5 5 5 5 5 5 5 5 5 5 5 5 5 5 5 5 5 5 5 5 5 5 5 5 5 5 5 5 5 5 5 5 5 5 5 5 5 5 5 5 5 5 5 5 5 5 5 5 5 5 5 5 5 5 5 5 5 5 5 5 5 5 5 5 5 5 5 5 5 5 5 5 5 5 5 5 5 5 5 5 5 5 5 5 5 5 5 5 5 5 5 5 5 5 5 5 5 5 5 5 5 5 5 5 5 5 5 5 5 5 5 5 5 5 5 5 5 5 5 5 5 5 5 5 5 5 5 5 5 5 5 5 5 5 5 5 5 5 5 5 5 5 5 5 5 5 5 5 5 5 5 5 5 5 5 5 5 5 5 5 5 5 5 5 5 5 5 5 5 5 5 5 5 5 5 5 5 5 5 5 5 5 5 5 5 5 5 5 5 5 5 5 5 5 5 5 5 5 5 5 5 5 5 5 5 5 5 5 5 5 5 5 5 5 5 5 5 5 5 5 5 5 5 5 5 5 5 5 5 5 5 5 5 5 5 5 5 5 5 5 5 5 5 5 5 5 5 5 5 5 5 5 5 5 5 5 5 5 5 5 5 5 5 5 5 5 5 5 5 5 5 5 5 5 5 5 5 5 5 5 5 5 5 5 5 5 5 5 5 5 5 5 5 5 5 5 5 5 5 5 5 5 5 5 5 5 5 5 5 5 5 5 5 5 5 5 5 5 5 5 5 5 5 5 5 5 5 5 5 5 5 5 5 5 5 5 5 5 5 5 5 5 5 5 5 5 5 5 5 5 5 5 5 5 5 5 5 5 5 5 5 5 5 5 5 5 5 5 5 5 5 5 5 5 5 5 5 5 5 5 5 5 5 5 5 5 5 5 5 5 5 5 5 5 5 5 5 5 5 5 5 5 5 5 5 5 5 5 5 5 5 5 5 5 5 5 5 5 5 5 5 5 5 5 5 5 5 5 5 5 5 5 5 5 5 5 5 5 5 5 5 5 5 5 5 5 5 5 5 5 5 5 5 5 5 5 5 5 5 5 5 5 5 5 5 5 5 5 5 5 5 5 5 5 5 </DataArray>
</Cells>
<CellData  Scalars="f">
<DataArray  type="Float64"  Name="f"  format="ascii">0 0 0 0 0 0 0 0 0 0 0 0 0 0 0 0 0 0 0 0 0 0 0 0 0 0 0 0 0 0 0 0 0 0 0 0 0 0 0 0 0 0 0 0 0 0 0 0 0 0 0 0 0 0 0 0 0 0 0 0 0 0 0 0 0 0 0 0 0 0 0 0 0 0 0 0 0 0 0 0 0 0 0 0 0 0 0 0 0 0 0 0 0 0 0 0 0 0 0 0 0 0 0 0 0 0 0 0 0 0 0 0 0 0 0 0 0 0 0 0 0 0 0 0 0 0 0 0 0 0 0 0 0 0 0 0 0 0 0 0 0 0 0 0 0 0 0 0 0 0 0 0 0 0 0 0 0 0 0 0 0 0 0 0 0 0 0 0 0 0 0 0 0 0 0 0 0 0 0 0 0 0 0 0 0 0 0 0 0 0 0 0 0 0 0 0 0 0 0 0 0 0 0 0 0 0 0 0 0 0 0 0 0 0 0 0 0 0 0 0 0 0 0 0 0 0 0 0 0 0 0 0 0 0 0 0 0 0 0 0 0 0 0 0 0 0 0 0 0 0 0 0 0 0 0 0 0 0 0 0 0 0 0 0 0 0 0 0 0 0 0 0 0 0 0 0 0 0 0 0 0 0 0 0 0 0 0 0 0 0 0 0 0 0 0 0 0 0 0 0 0 0 0 0 0 0 0 0 0 0 0 0 0 0 0 0 0 0 0 0 0 0 0 0 0 0 0 0 0 0 0 0 0 0 0 0 0 0 0 0 0 0 0 0 0 0 0 0 0 0 0 0 0 0 0 0 0 0 0 0 0 0 0 0 0 0 0 0 0 0 0 0 0 0 0 0 0 0 0 0 0 0 0 0 0 0 0 0 0 0 0 0 0 0 0 0 0 0 0 0 0 0 0 0 0 0 0 0 0 0 0 0 0 0 0 0 0 0 0 0 0 0 0 0 0 0 0 0 0 0 0 0 0 0 0 0 0 0 0 0 0 0 0 0 0 0 0 0 0 0 0 0 0 0 0 0 0 0 0 0 0 0 0 0 0 0 0 0 0 0 0 0 0 0 0 0 0 0 0 0 0 0 0 0 0 0 0 0 0 0 0 0 0 0 0 0 0 0 0 0 0 0 0 0 0 0 0 0 0 0 0 0 0 0 0 0 0 0 0 0 0 0 0 0 0 0 0 0 0 0 0 0 0 0 0 0 0 0 0 0 0 0 0 0 0 0 0 0 0 0 0 0 0 0 0 0 0 0 0 0 0 0 0 0 0 0 0 0 0 0 0 0 0 0 0 0 0 0 0 0 0 0 0 0 0 0 0 0 0 0 0 0 0 0 0 0 0 0 0 0 0 0 0 0 0 0 0 0 0 0 0 0 0 0 0 0 0 0 0 0 0 0 0 0 0 0 0 0 0 0 0 0 0 0 0 0 0 0 0 0 0 0 0 0 0 0 0 0 0 0 0 0 0 0 0 0 0 0 0 0 0 0 0 0 0 0 0 0 0 0 0 0 0 0 0 0 0 0 0 0 0 0 0 0 0 0 0 0 0 0 0 0 0 0 0 0 0 0 0 0 0 0 0 0 0 0 0 0 0 0 0 0 0 0 0 0 0 0 0 0 0 0 0 0 0 0 0 0 0 0 0 0 0 0 0 0 0 0 0 0 0 0 0 0 0 0 0 0 0 0 0 0 0 0 0 0 0 0 0 0 0 0 0 0 0 0 0 0 0 0 0 0 0 0 0 0 0 0 0 0 0 0 0 0 0 0 0 0 0 0 0 0 0 0 0 0 0 0 0 0 0 0 0 0 0 0 0 0 0 0 0 0 0 0 0 0 0 0 0 0 0 0 0 0 0 0 0 0 0 0 0 0 0 0 0 0 0 0 0 0 0 0 0 0 0 0 0 0 0 0 0 0 0 0 0 0 0 0 0 0 0 0 0 0 0 0 0 0 0 0 0 0 0 0 0 0 0 0 0 0 0 0 0 0 0 0 0 0 0 0 0 0 0 0 0 0 0 0 0 0 0 0 0 0 0 0 0 0 0 0 0 0 0 0 0 0 0 0 0 0 0 0 0 0 0 0 0 0 0 0 0 0 0 0 0 0 0 0 0 0 0 0 0 0 0 0 0 0 0 0 0 0 0 0 0 0 0 0 0 0 0 0 0 0 0 0 0 0 0 0 0 0 0 0 0 0 0 0 0 0 0 0 0 0 0 0 0 0 0 0 0 0 0 0 0 0 0 0 0 0 0 0 0 0 0 0 0 0 0 0 0 0 0 0 0 0 0 0 0 0 0 0 0 0 0 0 0 0 0 0 0 0 0 0 0 0 0 0 0 0 0 0 0 0 0 0 0 0 0 0 0 0 0 0 0 0 0 0 0 0 0 0 0 0 0 0 0 0 0 0 0 0 0 0 0 0 0 0 0 0 0 0 0 0 0 0 0 0 0 0 0 0 0 0 0 0 0 0 0 0 0 0 0 0 0 0 0 0 0 0 0 0 0 0 0 0 0 0 0 0 0 0 0 0 0 0 0 0 0 0 0 0 0 0 0 0 0 0 0 0 0 0 0 0 0 0 0 0 0 0 0 0 0 0 0 0 0 0 0 0 0 0 0 0 0 0 0 0 0 0 0 0 0 0 0 0 0 0 0 0 0 0 0 0 0 0 0 0 0 0 0 0 0 0 0 0 0 0 0 0 0 0 0 0 0 0 0 0 0 0 0 0 0 0 0 0 0 0 0 0 0 0 0 0 0 0 0 0 0 0 0 0 0 0 0 0 0 0 0 0 0 0 0 0 0 0 0 0 0 0 0 0 0 0 0 0 0 0 0 0 0 0 0 0 0 0 0 0 0 0 0 0 0 0 0 0 0 0 0 0 0 0 0 0 0 0 0 0 0 0 0 0 0 0 0 0 0 0 0 0 0 0 0 0 0 0 0 0 0 0 0 0 0 0 0 0 0 0 0 0 0 0 0 0 0 0 0 0 0 0 0 0 0 0 0 0 0 0 0 0 0 0 0 0 0 0 0 0 0 0 0 0 0 0 0 0 0 0 0 0 0 0 0 0 0 0 0 0 0 0 0 0 0 0 0 0 0 0 0 0 0 0 0 0 0 0 0 0 0 0 0 0 0 0 0 0 0 0 0 0 0 0 0 0 0 0 0 0 0 0 0 0 0 0 0 0 0 0 0 0 0 0 0 0 0 0 0 0 0 0 0 0 0 0 0 0 0 0 0 0 0 0 0 0 0 0 0 0 0 0 0 0 0 0 0 0 0 0 0 0 0 0 0 0 0 0 0 0 0 0 0 0 0 0 0 0 0 0 0 0 0 0 0 0 0 0 0 0 0 0 0 0 0 0 0 0 0 0 0 0 0 0 0 0 0 0 0 0 0 0 0 0 0 0 0 0 0 0 0 0 0 0 0 0 0 0 0 0 0 0 0 0 0 0 0 0 0 0 0 0 0 0 0 0 0 0 0 0 0 0 0 0 0 0 0 0 0 0 0 0 0 0 0 0 0 0 0 0 0 0 0 0 0 0 0 0 0 0 0 0 0 0 0 0 0 0 0 0 0 0 0 0 0 0 0 0 0 0 0 0 0 0 0 0 0 0 0 0 0 0 0 0 0 0 0 0 0 0 0 0 0 0 0 0 0 0 0 0 0 0 0 0 0 0 0 0 0 0 0 0 0 0 0 0 0 0 0 0 0 0 0 0 0 0 0 0 0 0 0 0 0 0 0 0 0 0 0 0 0 0 0 0 0 0 0 0 0 0 0 0 0 0 0 0 0 0 0 0 0 0 0 0 0 0 0 0 0 0 0 0 0 0 0 0 0 0 0 0 0 0 0 0 0 0 0 0 0 0 0 0 0 0 0 0 0 0 0 0 0 0 0 0 0 0 0 0 0 0 0 0 0 0 0 0 0 0 0 0 0 0 0 0 0 0 0 0 0 0 0 0 0 0 0 0 0 0 0 0 0 0 0 0 0 0 0 0 0 0 0 0 0 0 0 0 0 0 0 0 0 0 0 0 0 0 0 0 0 0 0 0 0 0 0 0 0 0 0 0 0 0 0 0 0 0 </DataArray>
</CellData>
</Piece>
</UnstructuredGrid>
</VTKFile>