<?xml version="1.0"?>
<VTKFile type="UnstructuredGrid"  version="0.1"  >
<UnstructuredGrid>
<Piece  NumberOfPoints="283" NumberOfCells="1705">
<Points>
<DataArray  type="Float64"  NumberOfComponents="3"  format="ascii">0.2568798590933053 -19.89623005392909 -9.341535597405747  0.1539853057418848 -19.80812282875224 -9.118273689652716  0.1512923656190039 -20.0171550967318 -9.226968282941405  -0.02346398524993165 -19.79065755223912 -9.273934322953824  0.04993512150627519 -20.02155572819317 -9.749716835867453  0.1383301630407791 -19.95861530677176 -9.509281927270454  -0.03755788878800385 -20.1950380734922 -9.618905761755954  -0.05285153155972717 -19.98147467940429 -9.432972847977288  -0.4110470050499304 -19.40321385286339 -9.869728458120832  -0.3658978523408715 -19.5314386820577 -9.768199460058767  -0.2358948774266528 -19.31029100307493 -9.87196530732885  -0.4246515364246379 -19.31901731794563 -9.769710548117928  -0.1973953532261535 -18.7847680752601 -9.138550580449282  -0.2371943019762311 -18.89024252789494 -9.192139463826612  -0.1513985839518773 -18.80051849427762 -9.376706875538963  -0.06416997209182271 -18.81768356537409 -9.300072983879945  -0.04342152305917441 -20.3117069237743 -10.00826539278218  0.1159283056569274 -20.50214789569077 -10.02286414143516  0.1989302806682345 -20.20139278560055 -10.09931580924493  0.01965197731998985 -20.33934272696484 -10.19353013259633  1.00045170831827 -19.44974838585088 -8.763615616272807  0.9692095422471976 -19.26985979266539 -9.007856473236783  0.8204724166531577 -19.11228484741245 -8.809039759376358  0.8226947769932815 -19.41986501663999 -8.985071620035002  -0.261345591455036 -18.75455449199478 -9.188717395170313  -0.1052386032928906 -18.71666296654872 -9.317782239598703  0.178153762620684 -20.22319470534317 -9.886516254035048  0.04588102159676037 -20.02735095858201 -10.05426098611526  -0.1263581644347092 -20.13024284056083 -10.1437627728712  1.84754820587384 -19.88358404085571 -8.707878030368569  1.268928817335242 -19.76112120648316 -8.76958621958827  1.430369289686126 -20.13673582735494 -8.688564571388694  1.455314672264509 -19.97611742711618 -9.107438018461266  0.1454859670677734 -19.51921081922321 -10.48488231304779  0.1774603459264737 -19.63076694130034 -10.71227299340596  0.2735998140874742 -19.75482848734994 -10.49386555446944  0.3121591852705901 -19.54533216110266 -10.57180717435283  -0.1524858575806539 -18.71307510291682 -9.096466144784548  -0.01005391833073929 -18.66384365156599 -9.022256822128949  0.01024607389097168 -18.63036236832372 -9.233192462923583  -0.01553924501287379 -18.73989597061538 -9.257387366321039  0.205143451995634 -19.68429936736179 -9.273699573440195  0.414900066108833 -19.77559387785973 -9.172721455965334  0.7122784127246545 -20.59274621978405 -9.480578112034982  0.3998103418757988 -20.74028147193652 -9.572391807237494  0.5539040274784964 -20.43043938043658 -9.503188413480192  0.5936992028438491 -20.59702104206589 -9.669108641036361  0.6798951016825294 -19.45639388998959 -8.794087168629126  0.3887399107982206 -19.41289983537417 -8.878962223253808  0.5734021796574288 -19.74134697790157 -8.865895254539593  0.580414963432866 -19.63892771997193 -9.055651228145251  -0.2079403048615451 -18.61828771680514 -9.383965163801504  -0.2211864279206833 -18.70631993706855 -9.428963627717071  -0.3847100550654231 -18.70268187339866 -9.316484915769573  -0.2381320392980179 -18.692858740683 -9.293463886991587  0.1049726094801958 -18.8780745993673 -8.973259322605623  0.1973739759456367 -18.66729387889145 -8.951473173500665  0.3597212666783889 -18.8479973304047 -9.097878013548151  0.188410056587541 -18.78694949957749 -9.154631926743056  -0.3185566637839905 -18.79070392684872 -9.25399665366983  -0.3104410602171987 -18.69401910609771 -9.227385702472525  0.1595890084584288 -19.50668152258432 -9.245787315106842  0.03692373451323138 -19.55463778318119 -9.380629757508697  0.03685567770549796 -19.59130304343743 -9.130796282689467  -0.1555423006563361 -19.53870600038618 -9.308339137691679  0.738624674675073 -20.04060379299941 -8.894163256512313  0.8234478662928972 -19.9831504903807 -9.092965767613093  1.022581083447321 -19.8677725239086 -9.034262359290947  1.052912129104365 -20.09866407991051 -9.079489586139189  -0.3704002261939626 -18.81272097100371 -9.324090768425201  -0.33725932069788 -18.77330012815414 -9.404013596431881  -0.1263946186161935 -19.13016759614572 -9.14782973946326  -0.09016754929265625 -18.92809801355608 -9.342319806480601  -0.1393269689178916 -19.10543833292141 -9.444127953119679  -0.2824696387091203 -19.02894188165092 -9.281259363412582  -0.0100541312177731 -19.05026306776516 -9.286955653008539  -0.3476450073882492 -19.05133869569784 -9.376947597719258  -0.2718573656425883 -19.2498179077487 -9.346233691799062  0.4261450030736626 -20.3999129229726 -9.644084273841761  -0.2909505968464643 -19.51349940661585 -9.515118630739176  -0.1036038420967151 -19.34333242146288 -9.480617875315438  -0.4159522788869225 -19.07993472348897 -9.517739869146236  -0.25900514361873 -18.97234193712503 -9.599733654051683  -0.4065282196471953 -18.9287978224635 -9.420131346326004  -0.1658816688951054 -18.69403030635781 -9.367147787312726  0.1943475836750722 -20.50489988530235 -10.2436284345776  0.3116162834778496 -20.34765476883943 -10.01199186669429  -0.01629361789233645 -19.82892484985175 -9.651598679684637  -0.189381685865206 -19.93085263155934 -9.647997255167617  -0.4047687376887368 -18.77474025153505 -9.36369366418522  -0.431622856707037 -18.73814048020204 -9.393579832377936  -0.4278194404143577 -18.7856908139537 -9.401888566105868  -0.2749353425504138 -18.74275766339038 -9.517215384618455  -0.2191059979270058 -18.80883132878699 -9.458670901264572  -0.4449614118745301 -18.72673759501844 -9.428992882753736  -0.4484527259124932 -18.68513106749159 -9.447200847975756  -0.4532989808576708 -18.72740574754611 -9.448125702611465  -0.4098175740898783 -18.73839863876933 -9.487297153876876  0.1805884485881926 -20.45313152058103 -9.586524916961988  0.028436880722443 -20.38227492796449 -9.806701573095362  0.2512258516328918 -20.63725074646759 -9.802145041282387  0.3149379940700988 -20.35367086800962 -9.808212112388048  -0.1872364079520426 -18.91194899497218 -9.447302374635035  1.541347242508797 -19.78176500353613 -9.157475774875758  -0.0732289873968867 -19.82912433045582 -9.901895000456916  -0.283675420750659 -19.8174541296299 -9.839369309505399  0.05148056398032065 -18.8829657305185 -9.223327682069533  -0.09404412813293955 -18.8732798425141 -9.078296579969573  0.03849403959127763 -19.08041635342432 -9.019124028125637  -0.189547707746644 -19.4780086148738 -9.871087454095443  -0.06491816710042 -18.54811747800124 -9.263172500098234  -0.03127161840970821 -18.54442113842139 -9.137448515594686  -0.1278974504154326 -18.61380545377517 -9.195464653437552  -0.09552623248743652 -19.36249293452209 -9.178787476347372  0.1526039794774788 -20.24530407382142 -9.393570794032687  -0.1602967575430392 -20.11100830913627 -9.878077021987359  -0.2430160856288321 -19.87401811548732 -10.1116400861895  -0.4689429226617646 -18.6828396849758 -9.487195081069229  -0.4632257391997248 -18.71384851274399 -9.469487184468658  -0.06629923957498624 -18.65329585636511 -9.280094378014104  0.5420714494507347 -19.96242967396829 -10.79270127043554  0.6304830569860892 -20.27778515075201 -10.70161577352109  0.6941151792833442 -20.09641108463198 -10.52057476588586  0.3725158250381023 -20.15318913907312 -10.66260000037238  0.9755468491382584 -19.47420378246862 -8.992024117491953  1.173639227687971 -19.37074302516217 -9.047447465460809  1.110049873211218 -19.56057741123312 -9.012824671434274  0.596653674740372 -19.43816551327185 -9.015826852154117  -0.3464616510908363 -18.63890614306264 -9.540880195427048  0.4025851798918739 -20.52989643567892 -9.365313111502706  0.4747749129015718 -20.24153341504345 -9.410528973282268  0.3722231772261944 -18.40934410289104 -8.957428918669061  0.2962782684526539 -18.50233943497366 -9.152074227352452  0.4150653070243617 -18.36667124004402 -9.169228690630005  0.4314763793951524 -18.52346004573079 -9.143319724575463  0.4865389629363434 -20.46102196053677 -10.557313129673  0.2466742369359283 -20.26735323586714 -10.52973890094205  0.4625031358411711 -20.15143282587474 -10.4035900151738  0.5402885194609285 -19.88448361097873 -10.55843087974078  0.3159606086178009 -19.95906373371992 -10.43217231774532  0.2774339714121952 -19.87294999464597 -10.71404262761679  0.08037976434878907 -19.76013233089086 -10.62160907695121  -0.3848678825478666 -19.30670169318228 -9.597173646972546  -0.2264663788047891 -19.20541142321215 -9.663920253677087  0.35096310855863 -19.04198725322937 -9.083332769405793  0.1525421759339498 -19.10749651289151 -9.174597727084199  0.2429556977660299 -19.12859537695826 -8.91799442673752  0.09020725228250277 -19.33429358972986 -9.020297194207519  0.2654631052580778 -19.66227360065655 -8.988939457032483  0.09811778202622776 -19.99897155556004 -10.55637875570689  0.1271808214484872 -19.91555702474414 -10.31024899266288  1.218575645598448 -19.9382494773455 -9.052063415094343  0.05591431328975238 -20.24199435367622 -10.36792719984638  0.3900694138838633 -20.28124149870687 -9.198011941767732  0.4140693153727193 -19.99199968018555 -9.026922382326603  0.4606078796791282 -20.02918312097427 -9.274025041165752  -0.1992242844296268 -19.41420890614778 -10.00447934414526  -0.3850369386565247 -19.4917132082142 -9.975586981052002  0.4704652315393307 -20.51685454147349 -9.899118448110322  0.3499876754611462 -20.79327834219883 -10.05788282207468  1.16800820324957 -19.72666263347571 -9.027102290442219  -0.1350925561414976 -19.62443629892007 -9.782336752444145  -0.1707428970782314 -19.44683226094766 -9.7004599702564  0.3486123565258984 -20.27064638888901 -10.22184192023105  0.6432704872913241 -20.63322608901272 -10.08502746283702  0.4296983510229533 -20.69447989942836 -10.36181808033278  0.4789153791888763 -20.44142390423053 -10.14471885280477  0.2565905492594001 -20.19957836106847 -9.610528128276492  0.3150564535182794 -20.08125916815627 -9.420602458029075  0.2772736239789363 -20.43959122092472 -10.42290031227891  -0.2827536911742277 -19.70325122946547 -9.647564435605284  -0.1846656858078435 -19.74149459500351 -9.464642385549373  -0.06991902639196625 -19.60436390481905 -9.565437182771198  0.07338107149734131 -19.76043260178442 -9.447285380087385  0.2152232975383024 -18.92858224531643 -9.138946184693671  0.5810483296787041 -18.69022641889432 -8.908471473638457  0.3704032029029993 -18.59455210484765 -8.93108479381371  0.395534548244545 -18.88223345730303 -8.887450644337566  0.4773197333685872 -18.70628203772849 -9.106546008667921  0.6387980469490041 -18.93508937815153 -8.852284357884699  0.5714097364656705 -18.9157924137021 -9.059384371264864  -0.027925446296899 -18.38728647467074 -9.146476577849668  -0.1685188746416054 -18.49036686842273 -9.149214005713027  0.8066248728097936 -19.06789313409565 -9.028731477324108  0.5195788077567276 -19.14626013848471 -8.835429280357891  0.7441918414106287 -19.26491395762865 -8.994274599372259  0.5344312104193255 -19.19742639865279 -9.024771912759311  0.09972554308419349 -18.59291368010602 -9.192364361975752  0.191884245156453 -18.62163029840339 -9.16120360547041  0.08677483442015231 -18.51065314271775 -9.089826659911486  -0.2500463232554948 -18.84705303625145 -9.520679859127746  -0.3343403833954693 -19.66861831055865 -9.980843930851439  0.9805403465536247 -19.6649799339834 -9.004122083962654  0.7780955332365118 -19.60674560270631 -9.006198098867271  0.944645920974131 -20.41716233380232 -8.862736278489377  0.6703094587184092 -20.33646485679903 -9.025224464611787  0.8672601904107327 -20.20143838487454 -9.15580273655902  0.9283012755397704 -20.39102520192471 -9.203622252425427  -0.06987585998306635 -19.61205655641125 -10.21798694777845  -0.1891539512650382 -19.56974920844875 -10.42258230669896  -0.3055458964204634 -19.58271133625606 -10.21011349837277  -0.2049461992721782 -19.76796652085391 -10.30425574844849  0.04480848782081859 -19.3912561961083 -9.31173667864631  -0.06675803351338104 -18.50748925420031 -9.049133173489563  0.3627466290470415 -19.55438580152702 -9.125239874733202  0.4131714340418872 -19.36494936838836 -9.066976893608397  0.2035264449096772 -19.33932282318992 -9.171840081144992  0.3257065050700532 -19.21557409759461 -9.091686099734126  0.08342293512269805 -18.7121757908609 -9.200345780258322  1.285390261544672 -20.17549851433191 -9.086414341048297  0.4005362193262414 -19.69213170258077 -10.80394981890332  0.487657956993337 -19.64257451897457 -10.61399351497521  0.6735171940656652 -20.29548047835123 -10.41533194359618  -0.4491668977630154 -18.815171881693 -9.449952563869894  -0.4823041744801201 -18.77997507091189 -9.501674656370076  -0.4658333907990586 -18.75253857451303 -9.465255367715926  -0.447652964562998 -18.75712460392541 -9.430445655141375  -0.1482284361957726 -19.59275393383278 -10.01303240763374  -0.1445968909011007 -19.42364622670192 -10.17530941404075  1.42132153558984 -19.40311712497235 -8.845713702086698  1.455906004493939 -19.56510447557982 -9.147662617414891  1.361910803642668 -19.76274247815191 -9.077170706949779  0.4898429971319065 -18.48652889085338 -8.946860239817775  -0.3248767517784379 -18.89359790583683 -9.288429179766489  -0.3447508235145354 -18.96267923248716 -9.339994613372889  -0.3690659783936844 -18.88669659789612 -9.347106508869414  1.090040095961213 -20.31463890509718 -9.127728027234662  0.6949601894183297 -20.34816897624336 -9.315241202083612  0.6604976345601042 -20.14094340100897 -9.221598912262875  -0.1655315700634278 -18.5471041309051 -9.315999748486966  -0.1682388550782925 -18.50268024102229 -9.278376025627429  -0.1930945590644977 -18.61260299167471 -9.239158373667161  0.6760129597008984 -19.79108544923262 -9.070135181388006  0.01072329977245583 -19.22746319596723 -9.301222331731466  0.1143392202214048 -18.57205058913472 -8.97915759270025  0.6730833752813666 -20.46695455179703 -10.30089274536601  0.5147701438442738 -20.32548942763354 -10.30976534131768  0.8606407976201723 -19.74285088417708 -8.791834789838678  1.070833892086255 -20.08991541506418 -8.800128981753266  0.0563844943463489 -19.7012302026015 -10.34557081906031  -0.06790552763340839 -19.78106903780799 -10.48310649239759  -0.1058607169680211 -19.96590030543203 -10.34133085154975  0.1577903452339875 -18.46341980816255 -9.173062733493721  0.1458073254621608 -18.32551916552824 -9.015495391781686  0.2065832899536597 -18.447652532982 -9.085197948771274  -0.2841175436999016 -18.56463740656476 -9.228974629707904  -0.4886126373980693 -18.87232908938149 -9.562380935303368  0.3290533866840165 -18.67308172695134 -9.126660029631001  0.6065062896948782 -19.95321468179901 -9.156436967311249  -0.301132961180162 -18.80782965116547 -9.595772254425425  0.05139322972402521 -18.51806096424947 -9.206204955713282  -0.0297962389975801 -19.55450165096665 -10.59152798126874  1.280283855882517 -19.55187162809441 -9.061726763896585  0.2800889737110737 -18.32490713553071 -9.161362104880229  -0.04571744834358421 -19.77869414678623 -10.14536525358445  0.2276363280813716 -20.09922298271016 -10.27360586399339  -0.2679020264532874 -18.67157549179079 -9.47579326869892  0.2247915480653022 -18.46869863994844 -8.960715142549631  -0.2250341315324298 -18.7095336924397 -9.150908059816645  -0.2170715029466424 -18.63304500297817 -9.14035932041546  0.4087673262844123 -18.19732413069041 -9.160767776253756  0.4373148894380079 -18.27636061419618 -9.087850789541099  -0.2667221218854828 -18.66210098262985 -9.180882291487073  0.858227314352744 -19.78373926563844 -9.030193558163045  0.4216216884243796 -19.4506878876213 -10.63334254680455  0.2904558961681248 -19.47592666108143 -10.79000238795359  -0.4801709209434074 -18.7196741670742 -9.499203012360917  -0.4060890222798896 -18.83388706296668 -9.383594098669993  0.5049744392957038 -18.31745509681396 -8.981504807236806  1.376787185129725 -19.389918444512 -9.142218562718577  -0.137424171354599 -18.61807201707769 -9.08694048240271  0.0799569369017048 -19.46436188370332 -10.68913384623853  0.330862120772783 -18.2752549123895 -8.990594665456753  0.3011913625503888 -18.37859165974883 -9.06278402911453  -0.01742126402667367 -19.45302058048645 -10.35673090478973  -0.4542206130837304 -18.6339067670201 -9.508956591153694  -0.4771160738195453 -18.66666777234205 -9.526905739493888  -0.128642594514261 -18.63447002622228 -9.320661570948113  0.6553260711532882 -20.71339225844682 -9.852303617321533  0.4160570372209452 -20.96111218767945 -9.786174621729765  0.5306471604374449 -18.14992833433808 -9.035450416765043  -0.5039860441909164 -18.72622531639652 -9.557131930065442  0.05072546725198493 -18.47550481009983 -9.002200063799384  </DataArray>
</Points>
<Cells>
<DataArray  type="UInt32"  Name="connectivity"  format="ascii">0 1 2  0 1 3  41 0 1  0 42 1  0 154 1  0 2 3  0 5 2  0 154 2  0 2 155  0 2 168  0 5 3  41 0 3  0 173 3  0 5 168  0 5 173  41 0 42  41 0 173  0 42 154  0 42 155  0 154 155  0 155 168  1 2 3  154 1 2  41 1 3  1 3 63  41 42 1  41 1 63  41 148 1  42 148 1  42 154 1  148 1 63  148 154 1  5 2 3  2 7 3  5 2 7  114 5 2  5 2 168  114 2 7  153 114 2  114 2 168  153 154 2  153 2 155  153 2 168  154 2 155  2 155 168  5 7 3  5 173 3  171 7 3  173 7 3  41 62 3  41 3 63  41 173 3  62 3 63  62 3 64  171 62 3  173 62 3  3 63 64  171 3 64  171 173 3  4 5 6  4 5 7  4 5 87  167 4 5  4 6 7  26 4 6  4 6 88  4 6 115  167 4 6  4 7 87  4 7 88  26 4 27  26 4 115  26 167 4  104 4 27  4 27 115  4 87 88  104 4 87  104 4 88  4 115 88  104 4 115  5 6 7  114 5 6  167 5 6  5 7 87  114 5 7  5 173 7  5 173 87  114 167 5  114 5 168  167 5 168  6 7 88  114 6 7  26 6 99  26 6 115  26 167 6  6 115 88  6 98 99  114 6 98  167 6 98  6 99 115  167 6 99  114 167 6  7 87 88  171 7 87  173 7 87  171 7 88  171 173 7  8 9 10  8 9 11  109 8 9  157 8 9  8 10 11  109 8 10  156 8 10  109 156 8  109 157 8  156 157 8  9 10 11  109 9 10  162 9 10  142 9 11  162 9 11  142 79 9  162 79 9  79 170 9  161 9 105  170 9 105  9 105 191  109 157 9  109 161 9  109 162 9  109 9 191  162 142 9  157 9 191  161 162 9  161 170 9  161 9 191  162 170 9  143 10 11  162 10 11  109 156 10  109 162 10  162 143 10  142 143 11  162 142 11  162 143 11  12 13 14  12 13 15  12 24 13  12 107 13  12 14 15  12 24 14  12 14 25  12 15 25  12 15 40  12 107 15  12 24 25  12 258 24  37 12 25  12 25 40  12 258 25  37 12 40  37 12 107  37 12 258  12 107 40  13 14 15  24 13 14  59 13 14  13 14 72  223 13 14  13 72 15  107 13 15  59 24 13  59 223 13  71 13 72  71 13 74  107 71 13  13 72 74  107 13 72  223 13 72  223 13 74  14 15 25  14 72 15  24 14 25  24 14 54  59 24 14  14 25 54  14 25 84  52 14 54  52 14 70  52 14 84  52 93 14  59 14 54  14 70 54  14 84 54  59 14 70  59 223 14  93 14 70  223 14 70  14 72 102  223 14 72  93 14 102  223 93 14  223 14 102  15 25 40  106 15 40  107 15 40  106 72 15  107 72 15  106 107 15  16 17 18  16 17 19  26 16 17  99 16 17  16 18 19  26 16 18  27 16 18  16 18 28  16 28 19  26 27 16  26 99 16  26 16 115  27 16 28  27 16 115  16 115 28  99 16 115  17 18 19  26 17 18  17 85 18  17 18 86  17 85 19  26 17 86  26 99 17  26 17 101  17 85 86  158 17 85  159 17 85  17 86 101  158 17 86  99 100 17  99 17 101  100 17 101  158 100 17  159 100 17  158 17 101  158 159 17  18 28 19  85 18 19  152 18 19  26 27 18  26 18 86  27 18 28  27 255 18  152 18 28  255 18 28  85 18 86  85 152 18  85 18 163  18 86 163  152 18 163  255 152 18  255 18 163  152 28 19  85 152 19  20 21 22  20 21 23  20 21 124  20 21 125  20 22 23  20 47 22  20 47 23  20 124 23  20 23 193  30 20 126  30 20 192  30 219 20  30 237 20  20 47 193  237 20 47  20 124 125  20 124 126  20 124 192  20 124 193  20 125 126  219 20 125  20 126 192  219 20 126  20 192 193  237 20 192  237 20 193  21 22 23  21 22 183  21 22 185  21 124 23  21 23 185  21 124 125  21 183 185  47 22 23  22 23 185  47 22 184  47 22 185  22 183 179  22 184 179  22 183 184  22 183 185  22 185 184  47 23 127  47 23 185  47 23 193  124 23 193  23 185 127  23 127 193  24 25 54  258 24 25  59 24 54  24 60 54  258 24 54  24 262 54  59 24 60  24 60 262  258 24 262  37 25 40  37 25 112  37 25 119  37 258 25  25 119 40  25 84 54  25 54 231  258 25 54  277 25 54  277 25 84  25 119 112  25 231 112  258 25 112  277 25 112  277 25 119  258 25 231  277 25 231  26 27 115  26 86 101  26 99 101  26 99 115  26 167 99  26 167 101  104 27 28  27 115 28  150 27 28  254 27 28  27 255 28  104 27 115  104 254 27  254 150 27  150 27 255  104 115 28  104 28 116  104 254 28  115 28 116  241 28 116  254 28 116  150 152 28  150 241 28  254 150 28  150 255 28  241 152 28  255 152 28  254 241 28  29 30 31  29 30 32  29 30 103  29 30 219  29 31 32  29 103 32  29 219 103  30 31 32  30 151 31  30 238 31  30 103 32  30 151 32  30 221 32  30 151 67  30 160 67  30 67 192  30 237 67  30 238 67  30 219 103  30 221 103  30 160 126  30 126 192  30 219 126  30 252 126  30 160 151  30 221 151  30 151 238  30 160 192  30 221 160  30 160 252  30 237 192  30 219 221  30 219 252  30 221 252  30 237 238  151 31 32  31 209 32  151 31 209  151 238 31  238 31 209  221 103 32  151 209 32  221 151 32  33 34 35  33 34 36  33 34 141  33 34 251  33 34 271  33 35 36  33 35 141  33 239 35  33 36 271  33 239 141  33 141 251  33 239 251  33 239 274  33 251 271  33 274 251  34 35 36  140 34 35  34 35 141  210 34 35  210 34 36  34 265 36  34 36 271  140 34 141  140 210 34  34 141 251  210 34 265  34 251 271  34 265 271  210 35 36  35 211 36  35 138 139  140 35 138  210 35 138  35 138 211  140 35 139  35 149 139  150 35 139  140 35 141  140 35 149  140 210 35  35 149 141  150 35 141  239 35 141  150 35 149  239 150 35  210 35 211  210 211 36  210 264 36  210 265 36  211 264 36  264 265 36  265 36 271  37 38 39  37 38 40  37 107 38  37 38 112  37 270 38  37 39 40  37 39 112  37 119 39  37 107 40  37 119 40  37 119 112  37 258 112  37 259 112  37 270 112  37 258 259  37 270 259  38 39 40  38 39 111  38 39 112  187 38 39  38 39 208  107 38 40  38 40 208  38 55 56  38 55 58  107 38 55  38 56 58  38 188 56  234 38 56  107 38 58  38 188 58  38 208 58  107 38 208  38 111 112  187 38 111  38 111 189  38 203 111  270 38 111  270 38 112  187 38 188  187 38 189  187 38 208  38 188 189  38 188 208  234 38 188  38 203 189  234 38 189  282 38 189  270 38 203  282 38 203  234 282 38  119 39 40  39 40 208  110 39 111  110 39 112  110 119 39  250 110 39  39 111 112  187 39 111  250 39 111  119 39 112  187 39 208  250 187 39  106 107 40  106 40 208  107 40 208  41 42 148  41 42 204  41 61 62  41 61 63  41 148 61  41 204 61  41 62 63  41 173 62  41 148 63  41 148 204  42 49 50  42 148 49  42 154 49  42 232 49  42 148 50  42 204 50  42 232 50  42 148 154  42 148 204  42 154 155  42 154 232  42 154 248  42 155 248  42 232 248  43 44 45  43 44 46  129 43 44  43 45 46  129 43 45  43 227 45  129 43 227  44 45 46  44 45 78  129 44 45  44 46 78  44 100 46  278 44 46  44 98 78  44 100 78  129 44 78  44 98 100  129 44 98  278 44 100  44 100 279  278 44 279  45 46 78  129 45 78  45 130 78  129 45 130  129 227 45  227 45 130  100 46 78  158 46 78  158 100 46  278 100 46  278 158 46  47 48 49  47 48 50  47 127 48  47 184 48  47 49 50  47 49 193  237 47 49  47 127 50  47 193 50  47 127 184  47 185 127  47 127 193  47 185 184  237 47 193  48 49 50  148 48 49  127 48 50  148 48 50  204 48 50  127 184 48  127 186 48  204 127 48  127 48 205  147 48 146  184 48 146  186 48 146  48 146 207  147 148 48  147 204 48  147 48 205  147 48 207  148 204 48  186 184 48  186 48 205  186 48 207  204 48 205  48 205 207  148 49 50  49 193 50  232 49 50  154 65 49  65 232 49  237 65 49  148 154 49  154 232 49  232 49 193  237 49 193  237 232 49  127 193 50  204 127 50  148 204 50  232 193 50  51 52 53  51 52 54  51 52 84  51 53 54  245 51 53  51 84 54  51 54 231  245 51 54  51 277 54  51 277 84  51 229 231  245 51 229  51 229 277  245 51 231  51 277 231  52 53 54  52 53 70  52 53 256  52 70 54  52 84 54  52 92 70  52 93 70  52 256 70  52 92 93  52 92 256  59 53 54  60 53 54  53 70 54  245 53 54  59 60 53  59 69 53  59 53 70  245 60 53  69 53 70  69 53 89  53 89 70  53 90 70  53 95 70  128 53 70  53 256 70  53 89 90  53 90 95  128 53 95  128 53 256  59 60 54  59 70 54  245 60 54  60 262 54  277 84 54  245 54 231  258 54 231  262 54 231  277 54 231  245 262 54  258 262 54  55 56 57  55 56 58  55 177 56  55 57 58  144 55 57  174 55 57  55 177 57  106 55 58  107 55 58  174 55 58  106 107 55  106 108 55  174 106 55  107 108 55  144 108 55  108 55 146  174 108 55  144 55 146  144 174 55  144 55 177  55 146 177  56 57 58  176 56 57  177 56 57  247 56 57  188 56 58  247 56 58  176 177 56  176 247 56  176 257 56  234 188 56  247 188 56  257 188 56  234 257 56  257 247 56  174 57 58  247 57 58  144 174 57  144 177 57  144 180 57  176 177 57  176 57 178  176 247 57  177 57 178  177 180 57  180 57 178  247 57 178  106 107 58  174 106 58  106 208 58  107 208 58  188 208 58  247 188 58  59 69 70  59 223 69  59 223 70  245 60 262  61 62 63  61 62 64  202 61 62  61 63 64  61 63 113  147 61 63  148 61 63  61 64 113  202 61 64  147 61 113  202 61 113  206 61 113  147 148 61  147 204 61  147 206 61  148 204 61  202 206 61  206 204 61  62 63 64  80 62 64  171 62 64  62 172 64  202 62 64  80 62 172  80 202 62  171 62 172  171 173 62  173 62 172  63 64 113  147 63 113  147 148 63  79 77 64  80 77 64  77 64 113  79 80 64  79 171 64  79 172 64  80 64 113  80 172 64  80 202 64  202 64 113  171 172 64  65 66 67  65 66 68  65 196 66  65 66 228  65 66 232  65 66 248  65 66 263  65 67 68  237 65 67  238 65 67  65 67 263  194 65 68  65 196 68  238 65 68  154 195 65  154 65 228  154 65 232  154 65 248  194 195 65  194 65 196  238 194 65  195 65 196  195 65 228  65 196 228  65 228 248  237 65 232  65 232 248  65 263 232  237 238 65  237 65 263  66 67 68  66 67 263  196 66 68  196 66 228  66 228 248  66 232 248  66 263 232  151 67 68  238 67 68  160 151 67  151 238 67  160 67 192  237 67 192  67 263 192  237 238 67  237 67 263  151 68 209  151 238 68  194 196 68  194 68 226  238 194 68  196 68 226  68 209 226  238 68 209  238 68 226  69 89 70  223 69 70  69 225 70  69 267 70  69 89 267  223 69 225  69 267 225  83 70 97  190 83 70  213 83 70  225 83 70  267 83 70  89 90 70  89 91 70  89 267 70  90 91 70  90 95 70  90 70 97  91 70 97  213 91 70  267 91 70  92 93 70  92 70 97  128 92 70  92 190 70  92 256 70  93 190 70  223 93 70  93 225 70  95 70 97  128 95 70  128 70 97  190 70 97  213 70 97  128 256 70  190 225 70  213 267 70  223 225 70  267 225 70  71 72 73  71 72 74  71 72 75  107 71 72  71 73 74  71 73 75  71 73 77  71 73 233  71 74 77  107 71 75  108 71 75  71 75 233  71 77 113  71 233 77  107 108 71  108 147 71  108 71 233  147 71 113  71 233 113  147 71 233  72 73 74  72 73 75  72 73 102  72 102 74  223 72 74  106 72 75  107 72 75  223 72 102  106 107 72  73 74 76  73 74 77  73 102 74  73 75 233  73 76 77  81 73 76  73 76 82  73 102 76  73 80 77  81 73 77  73 143 77  73 233 77  73 80 143  73 233 80  81 73 82  81 73 143  73 102 82  73 82 143  74 76 77  102 74 76  224 74 76  223 102 74  102 224 74  223 224 74  106 107 75  106 108 75  145 106 75  107 108 75  145 108 75  108 75 233  145 75 233  81 76 77  81 76 82  81 76 83  76 82 83  102 76 82  102 76 83  224 76 83  102 224 76  79 80 77  142 79 77  80 77 113  142 80 77  80 143 77  233 80 77  142 81 77  81 143 77  233 77 113  142 143 77  98 100 78  98 78 101  129 98 78  98 130 78  167 98 78  100 78 101  158 100 78  158 78 101  167 78 101  129 130 78  167 130 78  142 79 80  162 79 80  79 80 172  162 142 79  162 79 170  162 79 172  79 170 171  79 170 172  79 171 172  80 202 113  233 80 113  142 80 143  162 142 80  162 80 143  162 80 172  233 80 202  81 82 83  81 82 143  81 246 82  81 246 83  142 81 143  102 82 83  190 82 83  246 82 83  249 82 83  190 102 82  190 249 82  246 249 82  190 83 97  213 83 97  246 83 97  249 83 97  190 102 83  102 224 83  102 225 83  190 225 83  190 249 83  213 246 83  213 267 83  224 225 83  267 225 83  246 249 83  158 85 86  85 86 163  85 166 86  85 152 163  169 85 152  158 159 85  158 85 166  159 165 85  159 85 166  85 166 163  169 85 163  165 85 166  165 169 85  169 85 166  158 86 101  158 166 86  166 86 163  104 87 88  87 88 105  170 87 88  171 87 88  104 87 105  161 104 87  161 87 105  170 87 105  161 170 87  161 87 172  170 171 87  170 87 172  171 87 172  171 173 87  173 87 172  104 88 105  104 115 88  115 88 105  170 88 105  170 171 88  89 90 91  89 267 91  90 91 97  90 216 91  90 94 95  90 94 97  90 216 94  90 95 97  90 216 97  213 91 97  216 91 97  213 216 91  213 267 91  92 93 190  128 92 97  92 190 97  92 249 97  128 92 256  92 190 249  93 190 102  223 93 102  93 102 225  93 190 225  223 93 225  94 95 96  94 95 97  94 96 97  216 94 96  216 94 97  95 96 97  95 118 96  117 95 97  95 118 97  128 95 97  275 95 97  117 95 118  275 117 95  128 275 95  118 96 97  215 96 97  216 96 97  215 118 96  215 216 96  117 118 97  117 266 97  275 117 97  117 276 97  215 118 97  118 266 97  128 275 97  190 249 97  213 214 97  213 215 97  213 216 97  213 246 97  214 215 97  214 246 97  214 266 97  214 281 97  215 216 97  215 266 97  246 249 97  246 281 97  276 266 97  281 266 97  275 276 97  281 276 97  98 99 100  98 99 101  167 98 99  98 100 101  167 98 101  129 114 98  114 98 130  114 167 98  129 98 130  167 98 130  99 100 101  167 99 101  158 100 101  158 159 100  278 158 100  278 159 100  159 100 279  278 100 279  190 102 225  223 102 224  223 102 225  102 224 225  219 220 103  219 221 103  220 221 103  104 115 105  104 116 105  161 104 105  104 105 191  104 115 116  104 116 191  217 104 116  104 254 116  161 104 191  217 161 104  217 104 191  217 104 254  115 116 105  116 105 191  161 170 105  161 105 191  106 107 108  106 107 208  145 106 108  174 106 108  174 145 106  144 145 108  144 108 146  144 174 108  145 108 146  145 108 147  174 145 108  145 108 233  108 147 146  108 147 233  109 156 157  217 109 156  109 157 191  217 109 157  109 161 162  109 161 191  217 109 161  217 109 191  110 111 112  181 110 111  110 182 111  250 110 111  110 119 112  110 182 112  110 231 112  110 277 112  110 277 119  181 110 182  250 181 110  110 230 182  110 182 231  229 110 230  229 110 231  229 110 277  110 230 231  110 277 231  182 111 112  270 111 112  181 182 111  181 111 189  181 203 111  250 181 111  182 203 111  182 270 111  187 111 189  250 187 111  203 111 189  250 111 189  270 203 111  277 119 112  182 231 112  182 259 112  182 270 112  258 231 112  259 231 112  277 231 112  258 259 112  270 259 112  147 206 113  147 233 113  202 206 113  233 202 113  233 206 113  129 114 130  153 129 114  153 114 130  114 167 130  114 130 168  153 114 168  114 167 168  116 200 191  217 116 191  116 200 201  217 116 200  254 116 200  241 116 201  254 116 201  217 254 116  254 241 116  117 118 266  117 276 266  275 117 276  215 118 266  120 121 122  120 121 123  120 122 123  120 122 138  120 123 138  120 140 123  120 140 138  120 210 138  120 140 210  121 122 123  121 122 137  121 212 122  121 135 123  121 123 137  121 135 137  121 212 135  121 212 137  122 123 137  122 123 138  122 138 137  212 122 137  135 123 136  135 123 137  123 136 137  123 136 139  149 123 136  123 138 137  123 137 139  123 138 139  140 123 138  140 123 139  149 123 139  140 149 123  124 125 126  124 126 192  124 192 193  219 125 126  125 252 126  219 125 252  219 269 125  269 125 252  160 126 192  160 252 126  219 252 126  185 127 184  127 186 184  185 127 186  127 186 205  204 127 205  153 129 130  129 227 130  153 129 227  153 130 155  153 130 168  153 227 130  153 228 130  130 155 168  228 130 155  167 130 168  227 228 130  131 132 133  131 132 134  176 131 132  131 132 257  131 132 273  131 133 134  222 131 133  131 133 261  268 131 133  131 133 273  176 131 134  222 131 134  222 176 131  176 131 257  222 268 131  131 257 272  131 257 273  268 131 261  131 272 261  131 261 273  268 131 272  131 272 273  132 133 134  132 253 133  132 133 273  176 132 134  132 134 247  176 132 247  176 132 257  132 242 188  132 188 244  132 247 188  132 257 188  132 242 244  132 253 242  132 253 244  132 257 244  132 244 273  132 257 247  132 253 273  132 257 273  222 133 134  222 268 133  253 133 260  253 133 261  253 133 273  133 260 261  268 133 261  133 261 273  176 134 178  222 176 134  176 134 247  222 134 178  134 247 178  135 136 137  169 135 136  169 135 137  212 135 137  135 137 236  165 169 135  165 235 135  165 135 236  169 135 236  212 235 135  212 135 236  235 135 236  136 137 139  136 163 137  169 136 137  255 136 137  149 136 139  255 136 139  149 152 136  255 149 136  152 136 163  169 152 136  255 152 136  169 136 163  255 136 163  138 137 139  255 137 139  169 163 137  163 137 236  255 163 137  169 137 236  212 137 236  140 138 139  140 210 138  210 138 211  140 149 139  150 149 139  255 149 139  150 255 139  140 149 141  150 149 141  149 141 240  239 150 141  150 141 240  239 141 240  239 141 251  141 240 251  162 142 143  144 145 146  144 174 145  144 145 207  144 146 177  144 184 146  144 186 146  144 146 207  144 177 179  144 177 180  144 184 177  144 179 180  144 184 179  144 186 179  144 186 180  144 186 184  144 186 207  145 147 146  145 146 207  145 147 206  145 147 207  145 147 233  145 206 207  145 233 206  147 146 207  184 146 177  186 184 146  186 146 207  147 148 204  147 204 205  147 206 204  147 206 205  147 205 207  147 206 207  147 233 206  150 149 152  150 149 240  150 149 241  150 255 149  149 241 152  255 149 152  149 240 241  150 241 152  150 255 152  239 150 240  239 150 241  239 254 150  150 240 241  254 150 241  221 160 151  151 238 209  169 152 163  255 152 163  153 154 155  153 154 195  153 154 228  153 155 168  153 228 155  153 227 195  153 195 228  153 227 228  154 228 155  154 155 248  154 195 228  154 228 248  154 232 248  228 155 248  156 157 200  217 156 157  217 156 200  156 218 200  217 156 218  157 200 191  217 157 191  217 157 200  158 164 159  158 159 166  278 158 159  158 164 166  278 158 164  164 159 165  164 159 166  278 164 159  159 165 166  278 159 279  221 160 252  161 162 170  161 162 172  161 170 172  217 161 191  162 170 172  169 166 163  166 163 236  169 163 236  164 165 166  164 165 235  164 166 235  165 169 166  165 166 235  165 166 236  165 169 236  165 235 236  169 166 236  166 235 236  170 171 172  171 173 172  175 176 177  175 176 178  222 175 176  175 177 178  175 177 179  175 177 180  175 180 178  222 175 178  175 179 180  176 177 178  222 176 178  176 247 178  176 257 247  177 180 178  177 179 180  184 177 179  183 179 180  186 179 180  183 184 179  183 186 179  186 184 179  183 186 180  181 182 203  181 203 189  181 242 189  181 243 189  250 181 189  181 282 189  181 282 203  181 242 243  250 181 242  181 243 282  182 270 203  230 182 231  245 230 182  245 182 231  182 259 231  245 182 259  182 270 259  183 185 184  183 186 184  183 185 186  185 186 184  186 205 207  187 188 189  187 188 208  242 187 188  242 187 189  250 187 189  250 242 187  234 188 189  242 188 189  188 189 244  257 188 189  234 257 188  242 188 244  257 188 244  257 247 188  282 203 189  234 257 189  234 282 189  242 243 189  242 189 244  250 242 189  243 189 244  243 257 189  243 282 189  257 189 244  282 257 189  217 200 191  237 192 193  263 192 193  237 263 192  237 232 193  263 232 193  237 263 193  194 195 196  194 195 197  194 196 197  194 196 226  194 226 197  238 194 226  195 196 197  227 195 196  195 196 228  227 195 197  227 195 228  196 226 197  227 196 197  227 196 228  198 199 200  198 199 201  198 218 199  239 198 199  274 198 199  198 200 201  217 198 200  198 218 200  254 198 200  239 198 201  254 198 201  217 198 218  217 254 198  274 198 218  239 254 198  239 274 198  199 200 201  218 199 200  239 199 201  240 199 201  274 218 199  239 240 199  239 251 199  239 274 199  240 251 199  274 251 199  254 200 201  217 218 200  217 254 200  239 240 201  239 241 201  239 254 201  240 241 201  254 241 201  233 202 206  206 204 205  206 205 207  238 209 226  210 211 264  210 264 265  212 235 236  213 214 215  213 214 246  213 215 216  214 215 266  214 246 281  214 281 266  219 220 221  219 220 252  219 269 220  219 221 252  219 269 252  220 221 252  269 220 252  223 224 225  229 230 231  245 229 230  245 229 231  229 277 231  245 230 231  245 259 231  245 262 231  258 259 231  258 262 231  259 262 231  237 263 232  234 282 257  239 240 241  239 240 251  239 254 241  239 274 251  242 243 244  253 242 243  253 242 244  253 243 244  243 257 244  243 244 273  253 243 272  253 243 273  243 257 272  243 257 273  243 282 257  243 272 273  253 244 273  257 244 273  245 259 262  253 260 261  253 272 260  253 272 261  253 261 273  253 272 273  257 272 273  258 259 262  272 260 261  280 260 261  280 272 260  268 272 261  268 280 261  272 261 273  280 272 261  281 276 266  268 280 272  </DataArray>
<DataArray  type="UInt32"  Name="offsets"  format="ascii">3 6 9 12 15 18 21 24 27 30 33 36 39 42 45 48 51 54 57 60 63 66 69 72 75 78 81 84 87 90 93 96 99 102 105 108 111 114 117 120 123 126 129 132 135 138 141 144 147 150 153 156 159 162 165 168 171 174 177 180 183 186 189 192 195 198 201 204 207 210 213 216 219 222 225 228 231 234 237 240 243 246 249 252 255 258 261 264 267 270 273 276 279 282 285 288 291 294 297 300 303 306 309 312 315 318 321 324 327 330 333 336 339 342 345 348 351 354 357 360 363 366 369 372 375 378 381 384 387 390 393 396 399 402 405 408 411 414 417 420 423 426 429 432 435 438 441 444 447 450 453 456 459 462 465 468 471 474 477 480 483 486 489 492 495 498 501 504 507 510 513 516 519 522 525 528 531 534 537 540 543 546 549 552 555 558 561 564 567 570 573 576 579 582 585 588 591 594 597 600 603 606 609 612 615 618 621 624 627 630 633 636 639 642 645 648 651 654 657 660 663 666 669 672 675 678 681 684 687 690 693 696 699 702 705 708 711 714 717 720 723 726 729 732 735 738 741 744 747 750 753 756 759 762 765 768 771 774 777 780 783 786 789 792 795 798 801 804 807 810 813 816 819 822 825 828 831 834 837 840 843 846 849 852 855 858 861 864 867 870 873 876 879 882 885 888 891 894 897 900 903 906 909 912 915 918 921 924 927 930 933 936 939 942 945 948 951 954 957 960 963 966 969 972 975 978 981 984 987 990 993 996 999 1002 1005 1008 1011 1014 1017 1020 1023 1026 1029 1032 1035 1038 1041 1044 1047 1050 1053 1056 1059 1062 1065 1068 1071 1074 1077 1080 1083 1086 1089 1092 1095 1098 1101 1104 1107 1110 1113 1116 1119 1122 1125 1128 1131 1134 1137 1140 1143 1146 1149 1152 1155 1158 1161 1164 1167 1170 1173 1176 1179 1182 1185 1188 1191 1194 1197 1200 1203 1206 1209 1212 1215 1218 1221 1224 1227 1230 1233 1236 1239 1242 1245 1248 1251 1254 1257 1260 1263 1266 1269 1272 1275 1278 1281 1284 1287 1290 1293 1296 1299 1302 1305 1308 1311 1314 1317 1320 1323 1326 1329 1332 1335 1338 1341 1344 1347 1350 1353 1356 1359 1362 1365 1368 1371 1374 1377 1380 1383 1386 1389 1392 1395 1398 1401 1404 1407 1410 1413 1416 1419 1422 1425 1428 1431 1434 1437 1440 1443 1446 1449 1452 1455 1458 1461 1464 1467 1470 1473 1476 1479 1482 1485 1488 1491 1494 1497 1500 1503 1506 1509 1512 1515 1518 1521 1524 1527 1530 1533 1536 1539 1542 1545 1548 1551 1554 1557 1560 1563 1566 1569 1572 1575 1578 1581 1584 1587 1590 1593 1596 1599 1602 1605 1608 1611 1614 1617 1620 1623 1626 1629 1632 1635 1638 1641 1644 1647 1650 1653 1656 1659 1662 1665 1668 1671 1674 1677 1680 1683 1686 1689 1692 1695 1698 1701 1704 1707 1710 1713 1716 1719 1722 1725 1728 1731 1734 1737 1740 1743 1746 1749 1752 1755 1758 1761 1764 1767 1770 1773 1776 1779 1782 1785 1788 1791 1794 1797 1800 1803 1806 1809 1812 1815 1818 1821 1824 1827 1830 1833 1836 1839 1842 1845 1848 1851 1854 1857 1860 1863 1866 1869 1872 1875 1878 1881 1884 1887 1890 1893 1896 1899 1902 1905 1908 1911 1914 1917 1920 1923 1926 1929 1932 1935 1938 1941 1944 1947 1950 1953 1956 1959 1962 1965 1968 1971 1974 1977 1980 1983 1986 1989 1992 1995 1998 2001 2004 2007 2010 2013 2016 2019 2022 2025 2028 2031 2034 2037 2040 2043 2046 2049 2052 2055 2058 2061 2064 2067 2070 2073 2076 2079 2082 2085 2088 2091 2094 2097 2100 2103 2106 2109 2112 2115 2118 2121 2124 2127 2130 2133 2136 2139 2142 2145 2148 2151 2154 2157 2160 2163 2166 2169 2172 2175 2178 2181 2184 2187 2190 2193 2196 2199 2202 2205 2208 2211 2214 2217 2220 2223 2226 2229 2232 2235 2238 2241 2244 2247 2250 2253 2256 2259 2262 2265 2268 2271 2274 2277 2280 2283 2286 2289 2292 2295 2298 2301 2304 2307 2310 2313 2316 2319 2322 2325 2328 2331 2334 2337 2340 2343 2346 2349 2352 2355 2358 2361 2364 2367 2370 2373 2376 2379 2382 2385 2388 2391 2394 2397 2400 2403 2406 2409 2412 2415 2418 2421 2424 2427 2430 2433 2436 2439 2442 2445 2448 2451 2454 2457 2460 2463 2466 2469 2472 2475 2478 2481 2484 2487 2490 2493 2496 2499 2502 2505 2508 2511 2514 2517 2520 2523 2526 2529 2532 2535 2538 2541 2544 2547 2550 2553 2556 2559 2562 2565 2568 2571 2574 2577 2580 2583 2586 2589 2592 2595 2598 2601 2604 2607 2610 2613 2616 2619 2622 2625 2628 2631 2634 2637 2640 2643 2646 2649 2652 2655 2658 2661 2664 2667 2670 2673 2676 2679 2682 2685 2688 2691 2694 2697 2700 2703 2706 2709 2712 2715 2718 2721 2724 2727 2730 2733 2736 2739 2742 2745 2748 2751 2754 2757 2760 2763 2766 2769 2772 2775 2778 2781 2784 2787 2790 2793 2796 2799 2802 2805 2808 2811 2814 2817 2820 2823 2826 2829 2832 2835 2838 2841 2844 2847 2850 2853 2856 2859 2862 2865 2868 2871 2874 2877 2880 2883 2886 2889 2892 2895 2898 2901 2904 2907 2910 2913 2916 2919 2922 2925 2928 2931 2934 2937 2940 2943 2946 2949 2952 2955 2958 2961 2964 2967 2970 2973 2976 2979 2982 2985 2988 2991 2994 2997 3000 3003 3006 3009 3012 3015 3018 3021 3024 3027 3030 3033 3036 3039 3042 3045 3048 3051 3054 3057 3060 3063 3066 3069 3072 3075 3078 3081 3084 3087 3090 3093 3096 3099 3102 3105 3108 3111 3114 3117 3120 3123 3126 3129 3132 3135 3138 3141 3144 3147 3150 3153 3156 3159 3162 3165 3168 3171 3174 3177 3180 3183 3186 3189 3192 3195 3198 3201 3204 3207 3210 3213 3216 3219 3222 3225 3228 3231 3234 3237 3240 3243 3246 3249 3252 3255 3258 3261 3264 3267 3270 3273 3276 3279 3282 3285 3288 3291 3294 3297 3300 3303 3306 3309 3312 3315 3318 3321 3324 3327 3330 3333 3336 3339 3342 3345 3348 3351 3354 3357 3360 3363 3366 3369 3372 3375 3378 3381 3384 3387 3390 3393 3396 3399 3402 3405 3408 3411 3414 3417 3420 3423 3426 3429 3432 3435 3438 3441 3444 3447 3450 3453 3456 3459 3462 3465 3468 3471 3474 3477 3480 3483 3486 3489 3492 3495 3498 3501 3504 3507 3510 3513 3516 3519 3522 3525 3528 3531 3534 3537 3540 3543 3546 3549 3552 3555 3558 3561 3564 3567 3570 3573 3576 3579 3582 3585 3588 3591 3594 3597 3600 3603 3606 3609 3612 3615 3618 3621 3624 3627 3630 3633 3636 3639 3642 3645 3648 3651 3654 3657 3660 3663 3666 3669 3672 3675 3678 3681 3684 3687 3690 3693 3696 3699 3702 3705 3708 3711 3714 3717 3720 3723 3726 3729 3732 3735 3738 3741 3744 3747 3750 3753 3756 3759 3762 3765 3768 3771 3774 3777 3780 3783 3786 3789 3792 3795 3798 3801 3804 3807 3810 3813 3816 3819 3822 3825 3828 3831 3834 3837 3840 3843 3846 3849 3852 3855 3858 3861 3864 3867 3870 3873 3876 3879 3882 3885 3888 3891 3894 3897 3900 3903 3906 3909 3912 3915 3918 3921 3924 3927 3930 3933 3936 3939 3942 3945 3948 3951 3954 3957 3960 3963 3966 3969 3972 3975 3978 3981 3984 3987 3990 3993 3996 3999 4002 4005 4008 4011 4014 4017 4020 4023 4026 4029 4032 4035 4038 4041 4044 4047 4050 4053 4056 4059 4062 4065 4068 4071 4074 4077 4080 4083 4086 4089 4092 4095 4098 4101 4104 4107 4110 4113 4116 4119 4122 4125 4128 4131 4134 4137 4140 4143 4146 4149 4152 4155 4158 4161 4164 4167 4170 4173 4176 4179 4182 4185 4188 4191 4194 4197 4200 4203 4206 4209 4212 4215 4218 4221 4224 4227 4230 4233 4236 4239 4242 4245 4248 4251 4254 4257 4260 4263 4266 4269 4272 4275 4278 4281 4284 4287 4290 4293 4296 4299 4302 4305 4308 4311 4314 4317 4320 4323 4326 4329 4332 4335 4338 4341 4344 4347 4350 4353 4356 4359 4362 4365 4368 4371 4374 4377 4380 4383 4386 4389 4392 4395 4398 4401 4404 4407 4410 4413 4416 4419 4422 4425 4428 4431 4434 4437 4440 4443 4446 4449 4452 4455 4458 4461 4464 4467 4470 4473 4476 4479 4482 4485 4488 4491 4494 4497 4500 4503 4506 4509 4512 4515 4518 4521 4524 4527 4530 4533 4536 4539 4542 4545 4548 4551 4554 4557 4560 4563 4566 4569 4572 4575 4578 4581 4584 4587 4590 4593 4596 4599 4602 4605 4608 4611 4614 4617 4620 4623 4626 4629 4632 4635 4638 4641 4644 4647 4650 4653 4656 4659 4662 4665 4668 4671 4674 4677 4680 4683 4686 4689 4692 4695 4698 4701 4704 4707 4710 4713 4716 4719 4722 4725 4728 4731 4734 4737 4740 4743 4746 4749 4752 4755 4758 4761 4764 4767 4770 4773 4776 4779 4782 4785 4788 4791 4794 4797 4800 4803 4806 4809 4812 4815 4818 4821 4824 4827 4830 4833 4836 4839 4842 4845 4848 4851 4854 4857 4860 4863 4866 4869 4872 4875 4878 4881 4884 4887 4890 4893 4896 4899 4902 4905 4908 4911 4914 4917 4920 4923 4926 4929 4932 4935 4938 4941 4944 4947 4950 4953 4956 4959 4962 4965 4968 4971 4974 4977 4980 4983 4986 4989 4992 4995 4998 5001 5004 5007 5010 5013 5016 5019 5022 5025 5028 5031 5034 5037 5040 5043 5046 5049 5052 5055 5058 5061 5064 5067 5070 5073 5076 5079 5082 5085 5088 5091 5094 5097 5100 5103 5106 5109 5112 5115 </DataArray>
<DataArray  type="UInt8"  Name="types"  format="ascii">5 5 5 5 5 5 5 5 5 5 5 5 5 5 5 5 5 5 5 5 5 5 5 5 5 5 5 5 5 5 5 5 5 5 5 5 5 5 5 5 5 5 5 5 5 5 5 5 5 5 5 5 5 5 5 5 5 5 5 5 5 5 5 5 5 5 5 5 5 5 5 5 5 5 5 5 5 5 5 5 5 5 5 5 5 5 5 5 5 5 5 5 5 5 5 5 5 5 5 5 5 5 5 5 5 5 5 5 5 5 5 5 5 5 5 5 5 5 5 5 5 5 5 5 5 5 5 5 5 5 5 5 5 5 5 5 5 5 5 5 5 5 5 5 5 5 5 5 5 5 5 5 5 5 5 5 5 5 5 5 5 5 5 5 5 5 5 5 5 5 5 5 5 5 5 5 5 5 5 5 5 5 5 5 5 5 5 5 5 5 5 5 5 5 5 5 5 5 5 5 5 5 5 5 5 5 5 5 5 5 5 5 5 5 5 5 5 5 5 5 5 5 5 5 5 5 5 5 5 5 5 5 5 5 5 5 5 5 5 5 5 5 5 5 5 5 5 5 5 5 5 5 5 5 5 5 5 5 5 5 5 5 5 5 5 5 5 5 5 5 5 5 5 5 5 5 5 5 5 5 5 5 5 5 5 5 5 5 5 5 5 5 5 5 5 5 5 5 5 5 5 5 5 5 5 5 5 5 5 5 5 5 5 5 5 5 5 5 5 5 5 5 5 5 5 5 5 5 5 5 5 5 5 5 5 5 5 5 5 5 5 5 5 5 5 5 5 5 5 5 5 5 5 5 5 5 5 5 5 5 5 5 5 5 5 5 5 5 5 5 5 5 5 5 5 5 5 5 5 5 5 5 5 5 5 5 5 5 5 5 5 5 5 5 5 5 5 5 5 5 5 5 5 5 5 5 5 5 5 5 5 5 5 5 5 5 5 5 5 5 5 5 5 5 5 5 5 5 5 5 5 5 5 5 5 5 5 5 5 5 5 5 5 5 5 5 5 5 5 5 5 5 5 5 5 5 5 5 5 5 5 5 5 5 5 5 5 5 5 5 5 5 5 5 5 5 5 5 5 5 5 5 5 5 5 5 5 5 5 5 5 5 5 5 5 5 5 5 5 5 5 5 5 5 5 5 5 5 5 5 5 5 5 5 5 5 5 5 5 5 5 5 5 5 5 5 5 5 5 5 5 5 5 5 5 5 5 5 5 5 5 5 5 5 5 5 5 5 5 5 5 5 5 5 5 5 5 5 5 5 5 5 5 5 5 5 5 5 5 5 5 5 5 5 5 5 5 5 5 5 5 5 5 5 5 5 5 5 5 5 5 5 5 5 5 5 5 5 5 5 5 5 5 5 5 5 5 5 5 5 5 5 5 5 5 5 5 5 5 5 5 5 5 5 5 5 5 5 5 5 5 5 5 5 5 5 5 5 5 5 5 5 5 5 5 5 5 5 5 5 5 5 5 5 5 5 5 5 5 5 5 5 5 5 5 5 5 5 5 5 5 5 5 5 5 5 5 5 5 5 5 5 5 5 5 5 5 5 5 5 5 5 5 5 5 5 5 5 5 5 5 5 5 5 5 5 5 5 5 5 5 5 5 5 5 5 5 5 5 5 5 5 5 5 5 5 5 5 5 5 5 5 5 5 5 5 5 5 5 5 5 5 5 5 5 5 5 5 5 5 5 5 5 5 5 5 5 5 5 5 5 5 5 5 5 5 5 5 5 5 5 5 5 5 5 5 5 5 5 5 5 5 5 5 5 5 5 5 5 5 5 5 5 5 5 5 5 5 5 5 5 5 5 5 5 5 5 5 5 5 5 5 5 5 5 5 5 5 5 5 5 5 5 5 5 5 5 5 5 5 5 5 5 5 5 5 5 5 5 5 5 5 5 5 5 5 5 5 5 5 5 5 5 5 5 5 5 5 5 5 5 5 5 5 5 5 5 5 5 5 5 5 5 5 5 5 5 5 5 5 5 5 5 5 5 5 5 5 5 5 5 5 5 5 5 5 5 5 5 5 5 5 5 5 5 5 5 5 5 5 5 5 5 5 5 5 5 5 5 5 5 5 5 5 5 5 5 5 5 5 5 5 5 5 5 5 5 5 5 5 5 5 5 5 5 5 5 5 5 5 5 5 5 5 5 5 5 5 5 5 5 5 5 5 5 5 5 5 5 5 5 5 5 5 5 5 5 5 5 5 5 5 5 5 5 5 5 5 5 5 5 5 5 5 5 5 5 5 5 5 5 5 5 5 5 5 5 5 5 5 5 5 5 5 5 5 5 5 5 5 5 5 5 5 5 5 5 5 5 5 5 5 5 5 5 5 5 5 5 5 5 5 5 5 5 5 5 5 5 5 5 5 5 5 5 5 5 5 5 5 5 5 5 5 5 5 5 5 5 5 5 5 5 5 5 5 5 5 5 5 5 5 5 5 5 5 5 5 5 5 5 5 5 5 5 5 5 5 5 5 5 5 5 5 5 5 5 5 5 5 5 5 5 5 5 5 5 5 5 5 5 5 5 5 5 5 5 5 5 5 5 5 5 5 5 5 5 5 5 5 5 5 5 5 5 5 5 5 5 5 5 5 5 5 5 5 5 5 5 5 5 5 5 5 5 5 5 5 5 5 5 5 5 5 5 5 5 5 5 5 5 5 5 5 5 5 5 5 5 5 5 5 5 5 5 5 5 5 5 5 5 5 5 5 5 5 5 5 5 5 5 5 5 5 5 5 5 5 5 5 5 5 5 5 5 5 5 5 5 5 5 5 5 5 5 5 5 5 5 5 5 5 5 5 5 5 5 5 5 5 5 5 5 5 5 5 5 5 5 5 5 5 5 5 5 5 5 5 5 5 5 5 5 5 5 5 5 5 5 5 5 5 5 5 5 5 5 5 5 5 5 5 5 5 5 5 5 5 5 5 5 5 5 5 5 5 5 5 5 5 5 5 5 5 5 5 5 5 5 5 5 5 5 5 5 5 5 5 5 5 5 5 5 5 5 5 5 5 5 5 5 5 5 5 5 5 5 5 5 5 5 5 5 5 5 5 5 5 5 5 5 5 5 5 5 5 5 5 5 5 5 5 5 5 5 5 5 5 5 5 5 5 5 5 5 5 5 5 5 5 5 5 5 5 5 5 5 5 5 5 5 5 5 5 5 5 5 5 5 5 5 5 5 5 5 5 5 5 5 5 5 5 5 5 5 5 5 5 5 5 5 5 5 5 5 5 5 5 5 5 5 5 5 5 5 5 5 5 5 5 5 5 5 5 5 5 5 5 5 5 5 5 5 5 5 5 5 5 5 5 5 5 5 5 5 5 5 5 5 5 5 5 5 5 5 5 5 5 5 5 5 5 5 5 5 5 5 5 5 5 5 5 5 5 5 5 5 5 5 5 5 5 5 5 5 5 5 5 5 5 5 5 5 5 5 5 5 5 5 5 5 5 5 5 5 5 5 5 5 5 5 5 5 5 5 5 5 5 5 5 5 5 5 5 5 5 5 5 5 5 5 5 5 5 5 5 5 5 5 5 5 5 5 5 5 5 5 5 5 5 5 5 5 5 5 5 5 5 5 5 5 5 5 5 5 5 5 5 5 5 5 5 5 5 5 5 5 5 5 5 5 5 5 5 5 5 5 5 5 5 5 5 5 5 5 5 5 5 5 5 5 5 5 5 5 5 5 5 5 5 5 5 5 5 5 5 5 5 5 5 5 5 5 5 5 5 5 5 5 5 5 5 5 5 5 5 5 5 5 5 5 5 5 5 5 5 5 5 5 5 5 5 5 5 5 5 5 5 5 5 5 5 5 5 5 5 5 5 5 5 5 5 5 5 5 </DataArray>
</Cells>
<CellData  Scalars="f">
<DataArray  type="Float64"  Name="f"  format="ascii">0 0 0 0 0 0 0 0 0 0 0 0 0 6 6 6 6 0 6 0 6 5 5 0 5 0 0 0 0 0 5 5 0 5 0 0 0 5 5 0 5 0 0 0 0 0 0 5 0 0 0 0 0 0 0 0 5 5 0 0 0 6 6 0 0 0 0 0 0 0 6 0 6 6 0 0 6 0 0 0 0 0 0 0 0 0 6 0 0 6 5 5 0 0 0 5 5 5 0 5 0 0 0 0 0 5 0 0 5 0 5 0 0 0 0 0 0 0 0 0 5 0 5 0 5 0 5 5 0 0 0 0 0 5 0 0 0 0 0 0 6 6 6 0 0 0 0 0 5 5 0 0 0 0 0 0 0 5 0 0 0 0 5 5 0 0 0 0 0 0 0 0 5 5 0 5 5 0 0 0 5 6 6 0 0 0 0 6 0 0 6 6 0 0 0 0 0 0 0 6 0 6 0 0 6 6 0 6 0 0 0 5 0 5 0 0 0 0 5 0 0 0 0 0 5 5 0 0 0 0 5 0 0 0 0 0 5 0 0 5 0 0 0 5 0 0 0 0 0 6 6 0 6 0 0 0 0 0 6 0 0 6 5 5 0 0 0 0 0 5 0 0 0 0 0 5 5 0 5 0 0 0 0 0 0 0 0 0 0 0 0 0 0 6 6 6 6 0 0 5 0 0 5 0 0 0 0 0 0 6 6 6 0 0 0 0 0 0 5 5 5 0 0 0 0 6 0 0 0 0 6 0 0 0 0 6 0 0 0 6 0 0 0 6 0 0 0 0 0 0 6 6 6 0 0 0 5 5 0 0 0 0 0 5 0 0 3 0 0 3 0 0 0 0 0 3 0 0 0 0 0 0 0 0 0 0 0 0 0 0 0 0 0 0 0 0 0 0 0 0 5 0 0 0 0 0 6 6 6 0 0 0 0 0 6 0 6 0 0 0 0 6 0 0 0 0 0 0 0 0 0 5 5 5 5 5 5 0 6 6 0 0 6 0 0 6 0 0 0 0 0 0 0 6 0 0 0 0 6 0 0 0 0 5 0 5 0 0 0 0 0 0 0 0 0 5 5 0 0 0 0 0 0 0 5 0 5 0 0 5 0 0 0 0 0 0 0 0 0 0 0 0 0 0 0 0 0 0 0 5 5 5 6 6 0 0 6 6 0 0 0 0 6 6 0 6 0 0 6 6 0 0 6 0 6 0 0 0 0 0 0 0 6 6 0 0 0 0 0 6 6 0 0 0 6 0 6 0 0 0 0 0 0 0 0 0 0 5 5 0 5 0 6 0 6 0 0 6 0 6 0 0 6 5 0 0 5 0 0 5 0 0 0 0 0 0 0 0 5 0 0 0 0 0 0 0 5 5 0 0 5 0 0 0 0 0 0 0 0 0 0 0 0 5 0 5 5 0 0 0 0 6 6 0 6 4 0 6 0 4 0 0 0 0 6 0 4 6 0 0 0 0 4 0 0 0 0 0 6 6 0 0 0 0 5 5 0 5 0 5 0 0 0 0 0 5 5 4 4 0 0 0 0 0 0 0 0 0 0 0 0 0 5 0 0 0 0 0 0 0 0 0 0 5 0 5 0 0 0 0 5 0 0 0 0 0 0 5 0 5 0 0 0 5 0 6 6 6 0 6 0 0 0 0 0 6 6 0 6 6 0 6 6 0 5 0 5 0 0 6 0 0 0 0 0 0 0 0 0 0 0 0 0 6 6 0 0 0 0 0 6 6 0 0 6 5 5 5 5 0 5 0 5 0 0 0 0 0 0 0 0 0 0 0 0 0 0 0 0 0 0 0 0 5 0 0 0 5 0 5 0 0 0 0 0 0 0 5 0 6 6 6 6 6 6 6 6 0 6 0 6 0 6 0 0 6 0 0 0 0 6 6 0 0 0 0 0 0 5 5 5 0 0 0 0 0 0 0 0 0 0 0 0 0 0 0 0 0 0 0 0 0 0 0 0 0 0 0 0 0 0 0 0 0 0 0 0 0 0 0 0 5 0 0 0 5 0 5 5 0 5 0 0 0 6 6 0 0 6 0 0 0 0 0 0 6 0 0 0 0 0 0 0 0 6 6 0 0 6 6 5 0 5 0 0 5 0 0 6 0 0 0 6 5 0 5 0 0 0 5 0 0 5 0 0 0 0 5 0 0 0 0 0 0 0 0 0 0 6 6 0 6 0 0 0 0 0 0 5 0 0 0 0 0 0 6 6 6 0 0 0 5 0 0 0 0 0 6 6 0 0 0 0 0 0 0 0 0 0 5 5 5 5 0 0 0 0 0 5 0 0 5 0 0 0 0 5 0 6 6 6 0 0 0 0 0 6 0 0 0 6 0 0 0 0 6 0 0 5 5 5 5 5 0 5 5 0 5 0 0 0 0 5 5 6 0 0 0 6 6 6 0 0 0 0 4 0 0 5 0 0 4 0 0 0 0 4 4 4 0 0 0 5 5 0 0 0 0 0 0 0 0 0 0 0 0 0 0 0 0 0 0 0 0 0 0 0 0 5 0 0 0 0 5 0 0 0 0 0 0 0 0 0 0 5 0 0 0 0 0 0 0 6 0 0 0 0 0 0 0 0 0 6 0 6 5 5 0 0 0 0 0 0 6 0 0 0 0 0 0 0 5 0 0 6 0 0 6 0 6 0 0 0 0 0 0 0 0 0 6 4 4 4 0 4 0 6 0 0 0 0 0 0 0 0 0 0 0 0 0 0 0 0 0 0 0 0 0 0 0 0 0 0 0 0 0 0 5 0 0 0 0 0 5 0 5 0 0 5 0 0 0 4 4 4 5 0 5 0 0 0 5 0 0 5 0 0 0 5 0 0 0 0 0 0 6 6 5 0 0 0 5 0 0 0 0 0 0 5 6 6 6 0 6 0 0 6 6 6 0 0 0 6 6 6 0 0 0 0 0 0 0 6 6 6 6 0 0 0 0 0 0 0 0 0 0 0 0 5 5 5 8 0 0 0 0 8 0 6 6 0 0 6 0 0 6 0 6 0 0 6 0 0 0 0 0 0 0 0 6 0 0 0 0 0 0 0 0 0 6 0 5 0 0 0 5 0 0 0 0 0 0 0 0 0 0 0 0 5 0 0 5 0 0 0 6 6 0 6 6 0 6 0 0 0 0 0 0 6 5 0 5 0 0 0 0 5 0 0 6 6 0 0 0 0 0 0 0 0 0 0 6 0 6 0 0 0 0 0 6 6 0 5 0 0 0 0 0 0 0 0 0 0 0 0 0 5 0 5 0 0 0 0 6 0 0 6 0 0 0 0 5 0 0 0 0 0 0 0 0 0 0 0 6 0 0 0 0 6 5 0 0 0 0 0 6 6 0 0 0 0 0 6 0 6 0 0 0 0 6 0 0 0 6 0 0 0 0 0 0 6 0 0 5 0 5 0 5 0 0 0 0 0 0 0 0 0 0 5 0 0 0 0 0 6 4 0 0 0 0 0 4 4 4 4 4 0 4 0 0 4 4 0 0 6 0 6 0 6 6 0 0 6 0 0 0 0 0 0 0 0 0 0 0 0 0 0 0 0 0 0 0 0 0 6 0 0 6 0 0 0 0 0 0 0 0 0 0 0 0 6 6 6 0 0 0 0 0 0 0 0 0 0 0 6 6 6 6 6 5 0 0 5 0 0 0 0 5 0 0 0 0 0 0 0 5 0 6 6 6 0 0 0 6 5 5 5 5 5 5 0 0 0 0 0 6 6 5 0 4 0 0 0 0 0 0 0 0 0 5 0 0 0 0 0 4 0 0 0 0 4 0 8 0 8 0 0 0 8 0 4 0 0 0 0 5 0 0 4 0 0 0 0 4 8 </DataArray>
</CellData>
</Piece>
</UnstructuredGrid>
</VTKFile>