<?xml version="1.0"?>
<VTKFile type="UnstructuredGrid"  version="0.1"  >
<UnstructuredGrid>
<Piece  NumberOfPoints="273" NumberOfCells="1695">
<Points>
<DataArray  type="Float64"  NumberOfComponents="3"  format="ascii">3.178377778760381 -22.0617949701974 -7.130911088318498  2.255644089627927 -21.88311290039416 -6.820578468213211  2.190941232963611 -22.38872478521702 -6.882718309486916  2.645419304347559 -22.2193814638776 -6.407315449728888  3.904833891976974 -23.22452155591959 -7.013880121832054  3.437245740861863 -23.09015054569531 -6.123125348717247  3.942275984555355 -23.12605042178666 -5.959305035612525  3.639219363482318 -23.64869139950864 -6.292705847948387  2.700370710583906 -22.60414960978331 -7.674880316357992  1.794190529075633 -22.42445834764653 -7.380760829179206  2.100259896147992 -22.91531823306536 -7.116911796337809  3.045941600412773 -22.58296613121339 -7.302017801114648  5.603121696176738 -23.5004374003105 -8.747130843307209  6.247114351301622 -23.97202120980169 -9.304715430531891  6.254267002960027 -24.23630153312689 -8.724466876098784  5.894372824182486 -24.33041979007339 -9.116612536020556  4.416895036850817 -24.04101622503198 -9.201327598685811  4.685590376464639 -24.70351112744564 -9.489624735382341  4.860212828692302 -24.83063156731207 -8.891589316128224  4.202849806697139 -24.87218337246795 -9.076541610673619  2.749479320418956 -22.08840311355715 -7.573819155151391  2.393788994769574 -22.18864266308192 -8.039579298881298  4.586928803878835 -22.1893933825009 -6.649865782291235  4.505265304725095 -21.39533476507163 -5.721151107244297  4.922024804388521 -21.79622609031511 -5.61455836939176  4.475522493948287 -22.13641161116613 -5.666793638608587  5.417929102205104 -24.08551622877524 -7.272132024805344  5.370609793872486 -24.15203198730803 -7.823172187521597  5.735591386654454 -24.77916918140249 -7.862108631137554  5.340846852397717 -24.82485559188443 -7.213717935640955  4.0946489946239 -24.03939901167745 -7.555816258414277  4.229445174457412 -23.67929712398506 -7.113976456800948  3.61378015128821 -24.19181688219821 -6.799915038205498  4.17178628774723 -24.54402938188118 -6.965216046448396  3.179964715067068 -23.72777109266065 -6.62981732131955  5.025839766637469 -22.85310007569419 -6.626868525440457  4.877397942322109 -23.4766319386699 -6.797435093741938  4.462574440227718 -23.19996526283042 -6.822554452789778  4.359546307502494 -23.37489481011981 -5.923004868767725  2.567954535202297 -21.48912427998414 -6.537160469046198  3.042917448445417 -21.77050716646565 -6.120451266444537  1.417235226172328 -21.44588612988055 -7.998589992381127  1.722212335554235 -20.9185891871299 -7.989123332384262  2.247664941963579 -21.7466351754548 -8.332010737934315  1.819878149843771 -21.34396347297507 -7.677756283553217  5.280566069701267 -23.99666782124243 -8.383714306775474  5.709589571218558 -24.62217395527089 -8.637186747793368  6.141791085067208 -24.49353809643006 -8.22910083253417  5.133233825173192 -24.88329937536128 -8.345599616937321  5.249416444809825 -24.76115039794934 -8.785955237314557  5.364270174606744 -23.49859479099484 -9.145976360632156  5.676476154377278 -24.19193359223704 -9.709097127150478  3.445156310504511 -23.49297098800029 -10.87017416181279  3.805809772705108 -23.73342539037434 -10.43060301778494  4.01312509847931 -23.16982305078806 -10.8746758686777  4.197707207232381 -24.04776421845763 -11.20600299943182  5.511252173189373 -23.22899316611035 -6.724925924420423  5.874280889171209 -23.59748706112398 -7.143267798582686  5.364074496677821 -23.76224211257603 -6.890185645631798  5.83317630507663 -24.0418219705534 -5.994551677559631  5.792818414658239 -23.88984788822853 -7.603098545944753  3.122775941966716 -22.27648981471875 -6.086205028903156  4.67545376114959 -23.84290025716948 -9.465580375944754  4.560842395565825 -24.48405169834487 -10.18152155029521  5.138096741164757 -24.42835194106441 -9.796412043577043  5.944675390037507 -23.08755746187373 -8.470570171706671  6.59817248656006 -23.81951059778914 -8.90227790961481  6.642215645919975 -24.025908878571 -8.305049417465012  4.126646872529558 -23.82254560960736 -10.06462369370428  3.889067542281131 -24.62636077183776 -10.27322329403802  4.063829614342013 -24.35280061238495 -10.78495153364135  3.615631343359638 -23.91245708467364 -7.721103194694  3.188628951990854 -24.14965891736695 -7.076774686149832  3.46055144091093 -24.52671548656323 -7.462533993679599  2.967732222200496 -22.95609673478576 -7.504603219796785  2.431992609550637 -23.39013189469179 -7.022208314078731  2.5273009899641 -22.94357955722817 -6.671185079761262  1.392957682539901 -24.19321906140986 -8.905212182384551  1.950051087936655 -23.66207331848427 -9.024109125080244  1.913046884597941 -24.25137340528187 -8.389878346340174  1.583781968309855 -23.87138416345428 -8.236126237186234  4.204960012681579 -23.9876799865931 -9.587235227024228  3.643349257742141 -24.04945658030163 -9.828705181888786  2.743872660631074 -21.70743773676963 -7.652036735345302  2.502109966415692 -21.5643005586992 -8.098689652905204  2.130478689406992 -20.9487364973249 -7.470930470645854  2.14879033219562 -21.45395779291961 -7.096163598220736  2.941576753831757 -21.21805431039522 -7.546050792978929  2.427724300217872 -21.03881382006296 -6.873247553083461  4.196773888126583 -21.61137669953353 -6.738288661889509  4.038509668836983 -21.73877246592469 -5.755730291866818  4.008770524079254 -20.97395551519297 -5.913889369687327  2.728280677441483 -23.93648686204278 -8.574729212027565  2.237418069619991 -23.52978267249958 -8.584651372170921  2.748866062707636 -23.58886756998515 -8.135458111821873  2.239167476721451 -24.09853037468644 -7.845006062098705  2.833454554456916 -23.83024637824016 -7.014609312793849  2.330258464723333 -23.75755642533009 -7.417637501543055  4.047993065955598 -24.77095876115979 -9.689151958957508  4.790268738422331 -23.61139957577412 -5.893790442507134  2.507459518885212 -24.67357148963754 -10.15956011483011  3.142765934090209 -23.92733466117265 -10.36885381093614  2.457048617942866 -23.86021339699178 -10.44802974958272  2.506867421975338 -24.04849295674126 -9.965959515792145  6.088213290449499 -23.22057942525503 -7.599094254067255  6.774198493526658 -24.02757941191815 -7.722863986998374  4.082201244802886 -24.20249581316136 -6.517033985322356  5.878339262952728 -23.58254478826929 -8.098996777572077  3.889170618573049 -24.16817572337615 -9.16840591877051  3.392883184664452 -24.21683007501224 -8.731123628915576  3.331132957245117 -24.17951466570642 -9.344126708422611  3.613198256222031 -24.85086864329532 -9.237512946097603  3.440536691139334 -24.79804263827715 -9.71135231194906  2.894907032993314 -24.76628946311509 -9.652799287296522  3.134599054442653 -24.80428683002319 -9.286939302705283  2.955737298327631 -24.13244975275435 -9.711840588121227  1.824922638861273 -23.53806736824303 -7.74537725096469  2.408726323304053 -22.97187299818791 -8.112890573787785  3.961690291692567 -24.24228849255377 -8.195028986583972  3.709009794755638 -24.87797633383664 -8.649678145989514  3.872357977120775 -24.83651066976477 -8.0339280302424  4.429835107783741 -24.92898396713027 -8.45795637910331  4.963049081813395 -23.88498839573523 -8.995038852501217  4.678091567457633 -24.20356328764724 -8.455862897553123  3.398883002953218 -21.63860543061157 -7.002497635416444  3.524134960385796 -21.39276278729847 -5.937655365119686  3.081156856545773 -21.2486105026039 -6.180385244376556  1.2026697706783 -22.02215643902994 -8.040407403434578  1.602897569067765 -21.96977055085277 -7.671065442650911  1.972494181324125 -22.21791844770726 -8.477337807727666  5.23268673275741 -22.08478379280013 -6.675159169006256  4.948090951088696 -22.53489720628881 -5.602210063874502  5.421442132906417 -22.1104680221135 -5.569660422761777  3.131094843355604 -23.46653667623378 -7.668445242694933  4.256675694064164 -21.18178480613704 -6.816140886994862  3.739359629774263 -21.30149987399399 -6.90087102473735  5.714690208341326 -22.57564259486327 -6.845021520411632  5.954228302431035 -23.08633192191134 -7.086045870075101  6.997265257430141 -22.3678475733681 -6.733803425953494  6.827073659637616 -22.78152720166831 -6.325394402668277  5.57309000999248 -22.6180344496952 -5.563875847030145  5.180747185575364 -23.07578454527146 -5.645125186020694  5.677203257896907 -23.1123376767675 -5.627957133465015  4.021550514009765 -23.81285097286162 -11.59438194502151  7.032774397256034 -23.01889171061851 -6.757758625534038  6.953304752680821 -23.63979684800213 -6.879635668614462  7.122681209602206 -23.23001676107234 -7.34838402526961  3.375260817843674 -23.03242755205724 -7.202756007794844  2.795105618406932 -23.44608066020459 -6.716831036083211  2.855815760010182 -24.14516333647915 -9.150492164791723  3.195076012054535 -24.80609502203591 -8.810683244991834  4.855231495069664 -23.93525525442148 -7.075987552126129  4.870160954846807 -24.63377215344582 -6.76460522935447  4.982825951756071 -24.43753644505113 -6.421189507157198  4.701169800927407 -24.27851885410515 -7.865011402673423  4.550749024797118 -22.89430557786454 -5.743860611080607  4.138869080730781 -23.78357449577349 -6.165218450923373  4.598116229115107 -24.25777606953696 -6.346704040144058  3.038760392467873 -21.68088410073746 -7.281901895061821  4.068941473430153 -22.22241679244583 -6.751803319180245  4.265938481287603 -22.71985923418147 -6.766573299218587  3.508793772107371 -22.62889061617824 -5.971928742024861  4.048427399561873 -22.47990023485227 -5.788485336336706  3.655384876647852 -23.5911441515964 -7.35500378787952  6.583813788095608 -23.13494000659217 -6.014929586204851  6.455161293736513 -23.63549034018864 -6.022452551752059  4.919647504563558 -24.22387115184934 -7.509647301414244  4.689864987118257 -24.81772960650696 -7.354617947568183  5.116130314169823 -24.90661744183224 -7.767283803846526  1.049967174860507 -22.63956426904544 -8.157063596403331  1.636051034920813 -22.72569903968769 -8.822151780718087  2.009752187663515 -22.91165052826809 -8.487062959667938  2.01771442827246 -24.6097551449849 -9.817638258361143  2.01512411649816 -23.90937902862349 -9.54024653093153  2.082918791379021 -23.89610465977356 -10.07153813082331  2.491772064445409 -24.49095383942203 -8.231545931974269  2.837615627896248 -24.43859842937301 -7.784229287244114  6.346301585176146 -21.88772961355072 -6.013988645239376  5.963948819468122 -22.13356214041491 -5.689621715968727  6.040505368023476 -22.49741263813509 -7.453451470030032  7.167114519273733 -22.65518933961077 -7.261011506787341  7.094773650829298 -22.00814670942219 -7.19327521208594  7.19450486210195 -22.23528122452835 -7.750452365189297  4.352474057603319 -23.50958088360304 -10.35691859978404  6.964471783473897 -23.74389173978775 -7.392520726132408  3.017272169144612 -22.73554863460389 -6.225791823436009  3.882383893836131 -24.25002869276605 -8.67793927113607  3.218718274798909 -24.72932825216213 -8.186784819338163  5.325633130188843 -24.58278015084982 -9.229544897664153  3.699154149127193 -21.99876556920895 -6.847314994503975  3.531284903588138 -22.04236383733106 -5.890777369332164  6.127220538261473 -24.44896538349757 -6.498873680806401  5.442603103588872 -24.57059470583117 -6.52662155414841  6.387741170374529 -24.42478618945193 -7.756335207621882  6.65469807296672 -24.23163344859829 -7.083409616875527  4.768198509494408 -21.52091256259044 -6.722217063382269  2.632857404721751 -24.71060696564616 -9.056393972616434  2.450115105401923 -24.70116714651692 -9.588225664197674  2.194585624686744 -24.62522212969961 -9.27079285483952  5.344683419810646 -21.59386712420633 -6.876501111976298  5.576246250269708 -21.19393030283585 -5.842580934012233  5.991136320095528 -21.50920286474444 -5.901756877481338  5.881687023405188 -20.87646382195272 -6.175977517875969  6.092603139941087 -22.82858518226996 -8.039612367102794  7.134754829224261 -23.00291929421086 -8.314654538239658  7.037531532356883 -23.49581677457172 -7.981359918891664  7.198587388918468 -22.82158585146436 -7.820509696438979  5.12322915960904 -23.43273823906606 -9.624549410518993  4.572265569767294 -24.91038463946952 -7.89765325491035  2.48236722805843 -24.08794413003459 -9.542917958190449  6.024005936836829 -24.68136186568231 -7.136230927796885  4.730117057958302 -20.88918046489389 -5.855291363361657  2.790889229145846 -24.15251094777452 -7.410627750507928  3.07124164258078 -23.26696630230194 -6.394126638354039  4.078886441269277 -24.74596289979424 -7.535223388539257  2.770129505410867 -24.55145464229004 -10.6973055886586  5.47303718395824 -23.58657503326922 -5.760531968435124  3.567222452565436 -22.53647786350388 -6.955044070950414  6.837020017636823 -23.38887882803586 -6.387950354194612  5.201582484558871 -24.13603308106829 -6.087514791821754  6.608141304773724 -23.97971230649259 -6.396223804735558  6.464868651367894 -22.4393085973197 -5.957416394811203  6.683462559964639 -22.07877441836094 -6.309121148997411  3.622342059149372 -24.15606766763648 -11.31481651418123  3.344430658038322 -23.83414287024602 -11.80194611976169  2.958525410135312 -24.10136701469131 -11.53135889060255  3.162761282200582 -24.41639644842618 -10.98520312795209  2.82760588510813 -23.63231445423168 -10.82415053366788  2.05460309675284 -23.3110929090939 -7.368950180918501  4.571431173067108 -23.70113754453053 -9.890249989435665  4.723202590368953 -24.06358166948638 -10.84104217448772  3.240655298317398 -21.22531960854128 -7.201190999731819  3.101665002843511 -20.81587261280856 -7.559128505406725  2.877209925844105 -20.81102858807751 -6.486955429106404  2.559763503298876 -20.54820978633963 -7.039267569461964  3.504377477447729 -20.784610548663 -7.194217188364114  3.233980762343183 -23.97730922058799 -8.130223026844051  2.751317846016966 -21.08438048145265 -7.985247747441571  3.457902422959121 -20.8231446473833 -6.134872621609173  1.945247394800069 -21.90752073389727 -7.239406711992743  4.502792682278957 -24.0923019517373 -7.393210237696556  2.173810213497151 -22.58993705425426 -8.272866412007637  1.413374131174573 -22.56729716340177 -7.806142406029503  1.175922595980431 -23.24803362677121 -8.201351029223884  1.815057088547893 -23.25584512263282 -8.821493293453699  3.159610579586335 -24.70707799667333 -10.20946190958793  6.94022454269304 -23.39979023994564 -8.670269290138869  5.150061855339271 -24.17941413879564 -10.29877365472656  3.451244160785174 -24.51352499252963 -10.72008458742137  2.336172792740051 -23.94320286069737 -9.039072830033676  1.698752451393507 -24.46888459584507 -9.31330370620835  1.629464437792191 -23.50134820498183 -9.334951003635954  1.722543142156206 -23.0027425479914 -7.577679561302799  2.060182108894425 -24.5586913491734 -10.40443241057531  2.765619091656186 -23.13668467166495 -7.807549614601865  2.309997633274229 -20.44687690072011 -7.65585297722459  5.285452577153862 -20.79203245946916 -5.951469006829858  5.101539595608474 -21.26278172876779 -5.72550245915243  5.772467941031699 -21.84473794936206 -7.213654046945763  6.401169742695981 -21.38152603648906 -6.326334114469597  6.811127511291116 -21.64648680711698 -6.7345595197609  5.554963011390425 -21.66085072470553 -5.668395527717355  3.088196364848983 -23.18832783981997 -11.15354489903187  6.103257695530985 -22.81093924879073 -5.691503122946433  6.064527635971181 -23.40828046335456 -5.761127914198886  3.518332632171213 -22.94721929687111 -11.19562145330849  4.313063704652422 -24.18915953171953 -8.784457845454128  7.162523293268598 -22.38319623418406 -8.363273834244554  1.609788112413418 -24.48023301568488 -10.02345164841823  2.13388879402975 -24.52040423104273 -8.788903038526701  2.740163946584545 -24.68057050152005 -8.593080817910902  1.121846112614185 -23.74029034516053 -8.589502698682454  2.365235208336783 -21.17227195535158 -8.487465239925085  </DataArray>
</Points>
<Cells>
<DataArray  type="UInt32"  Name="connectivity"  format="ascii">0 1 2  0 1 3  0 20 1  0 1 39  0 83 1  0 158 1  0 2 3  0 11 2  0 20 2  0 11 3  0 39 3  0 3 40  0 3 61  0 185 3  0 20 11  0 11 185  0 11 217  0 20 83  0 39 40  0 124 39  0 158 39  0 61 40  0 124 40  189 0 40  0 185 61  189 0 61  0 217 61  0 158 83  0 124 158  189 0 124  0 217 185  189 0 217  1 2 3  20 1 2  239 1 2  1 39 3  20 83 1  20 239 1  1 86 39  158 1 39  83 1 86  158 83 1  83 239 1  158 1 86  239 1 86  11 2 3  2 3 76  8 2 9  8 2 10  11 8 2  20 8 2  2 9 10  20 2 9  239 2 9  11 2 10  2 10 76  20 11 2  11 2 76  20 239 2  11 3 76  11 185 3  39 3 40  3 61 40  185 3 61  185 3 76  4 5 6  4 5 7  147 4 5  160 4 5  4 5 213  217 4 5  4 6 7  37 4 6  160 4 6  4 31 7  4 7 32  4 7 34  37 4 7  4 213 7  4 31 32  37 4 31  163 4 31  4 32 34  163 4 32  147 4 34  163 4 34  4 213 34  160 37 4  163 147 4  147 4 213  147 217 4  160 217 4  5 6 7  160 5 6  5 161 6  5 213 7  147 5 185  147 5 213  147 217 5  160 5 161  160 217 5  5 185 161  217 5 161  5 213 185  217 5 185  37 6 7  6 156 7  37 6 38  37 6 155  37 6 156  160 37 6  6 155 38  6 156 38  160 6 155  6 155 162  160 161 6  160 6 162  161 6 162  31 7 32  37 31 7  31 106 7  31 156 7  7 32 34  106 7 32  213 7 34  37 156 7  156 106 7  8 9 10  20 8 9  21 8 9  8 117 9  8 9 252  11 8 10  74 8 10  8 228 10  8 10 252  20 11 8  74 11 8  20 21 8  21 8 117  74 8 228  74 8 254  8 117 228  8 117 252  8 254 117  8 228 252  8 254 228  9 10 252  20 21 9  20 239 9  21 117 9  21 128 9  21 239 9  21 241 9  241 117 9  117 9 252  239 128 9  241 128 9  128 9 242  241 9 242  241 9 252  9 252 242  74 11 10  11 10 76  74 75 10  74 10 76  74 228 10  75 10 76  75 228 10  228 10 252  74 11 76  74 147 11  147 11 76  11 185 76  147 11 185  147 11 217  11 217 185  12 13 14  12 13 15  12 50 13  12 65 13  12 14 15  12 45 14  12 65 14  12 107 14  12 45 15  12 50 15  12 122 15  12 107 45  12 122 45  12 122 50  12 65 107  13 14 15  65 13 14  13 66 14  50 13 15  13 51 15  50 13 51  65 13 66  45 14 15  46 14 15  45 46 14  45 14 47  107 45 14  46 14 47  14 47 67  107 14 47  65 66 14  65 14 67  65 107 14  66 14 67  107 14 67  45 46 15  122 45 15  45 188 15  46 188 15  50 51 15  122 50 15  122 51 15  51 188 15  122 188 15  16 17 18  16 17 19  62 16 17  81 16 17  16 17 98  16 122 17  16 18 19  16 122 18  16 266 18  16 19 98  16 108 19  16 266 19  62 81 16  62 16 122  81 16 98  81 16 108  16 108 98  16 108 266  16 266 122  17 18 19  122 17 18  17 18 188  17 19 98  62 63 17  62 17 64  62 81 17  62 122 17  63 17 64  81 63 17  63 17 98  122 17 64  17 188 64  81 17 98  122 17 188  18 19 121  266 18 19  48 18 49  48 18 121  123 48 18  122 18 49  123 18 49  18 188 49  123 18 121  266 18 121  122 123 18  122 18 188  266 122 18  266 123 18  108 19 98  111 19 98  108 111 19  108 186 19  108 266 19  111 119 19  186 111 19  119 19 121  186 119 19  186 19 121  266 19 121  266 186 19  20 21 83  20 21 239  20 83 239  21 43 44  21 84 43  21 43 128  21 129 43  21 83 44  21 84 44  21 128 44  21 239 44  21 83 84  21 83 239  21 241 117  21 129 128  21 239 128  21 241 128  21 129 241  22 23 24  22 23 25  89 22 23  22 90 23  195 22 23  22 24 25  130 22 24  22 131 24  195 22 24  22 90 25  22 131 25  22 25 155  22 25 162  130 22 35  22 35 131  22 35 155  22 35 160  89 22 90  89 22 159  195 89 22  22 159 90  22 90 162  130 22 131  195 130 22  22 131 155  22 160 155  22 155 162  22 159 160  22 159 162  22 160 162  23 24 25  195 23 24  23 257 24  90 23 25  89 90 23  89 91 23  89 134 23  195 89 23  90 91 23  134 91 23  91 23 211  195 134 23  134 23 211  195 23 211  195 23 257  23 211 257  131 24 25  130 131 24  130 132 24  195 130 24  130 257 24  130 261 24  131 132 24  261 132 24  195 257 24  261 257 24  90 25 162  131 25 155  25 155 162  26 27 28  26 27 29  60 26 27  166 26 27  26 28 29  60 26 28  26 28 210  26 152 29  166 26 29  26 192 29  26 210 29  57 26 58  57 60 26  57 26 191  57 26 210  151 26 58  26 58 153  26 58 191  26 58 192  60 26 210  151 26 152  151 26 153  151 166 26  26 152 153  166 26 152  26 152 192  26 192 153  26 191 192  26 191 210  26 210 192  27 28 29  27 46 28  27 28 47  27 48 28  60 27 28  27 28 168  166 27 29  27 29 168  45 27 46  45 27 47  45 27 48  107 45 27  154 45 27  27 46 47  27 46 48  60 27 47  107 27 47  154 27 48  27 48 168  60 107 27  166 154 27  154 27 168  166 27 168  28 29 168  28 210 29  46 28 47  46 48 28  60 28 47  28 47 193  48 28 168  60 28 193  60 28 210  28 193 210  166 152 29  152 167 29  152 192 29  166 167 29  166 29 168  167 29 168  210 192 29  30 31 32  30 31 33  163 30 31  240 30 31  30 32 33  71 30 32  30 32 73  163 30 32  30 33 73  30 214 33  240 30 33  71 30 73  71 30 118  71 163 30  30 118 73  30 214 73  154 30 118  30 118 214  154 30 214  240 154 30  240 30 214  31 32 33  31 106 32  163 31 32  31 106 33  151 31 33  240 31 33  36 37 31  36 31 106  151 36 31  36 31 156  37 31 156  151 31 106  31 156 106  151 240 31  32 33 73  106 32 33  32 34 72  163 32 34  71 32 72  71 32 73  71 163 32  32 72 73  163 32 72  214 33 73  151 106 33  106 157 33  151 152 33  151 157 33  151 240 33  157 152 33  152 33 167  240 152 33  214 33 167  240 33 167  240 214 33  96 34 72  163 34 72  147 96 34  96 148 34  163 96 34  147 148 34  163 147 34  147 213 34  213 148 34  35 36 37  35 36 38  35 56 36  35 36 99  35 37 38  35 37 155  35 160 37  35 99 38  35 155 38  35 56 99  136 35 56  35 56 142  35 56 216  35 56 263  35 141 99  35 99 155  35 216 99  130 35 131  136 130 35  130 35 140  35 140 131  35 131 141  35 131 155  136 35 140  136 35 263  35 140 141  35 140 142  35 140 263  35 141 142  35 141 155  35 141 216  35 142 216  35 263 142  35 160 155  36 37 38  36 37 156  36 99 38  36 156 38  56 36 58  56 36 99  36 58 99  151 36 58  36 58 153  36 58 219  36 156 99  36 99 157  36 219 99  151 36 106  36 156 106  36 106 157  151 36 153  151 36 157  36 157 153  36 219 153  36 156 157  36 219 157  37 155 38  37 156 38  160 37 155  99 155 38  156 99 38  124 39 40  39 40 126  86 39 88  158 86 39  158 39 88  231 39 88  39 88 233  124 39 126  124 158 39  124 231 39  231 39 126  39 233 126  158 231 39  231 39 233  189 61 40  61 190 40  124 125 40  124 40 126  189 124 40  125 40 126  189 125 40  125 190 40  189 190 40  41 42 43  41 42 44  41 43 44  127 41 43  41 43 128  41 128 44  127 41 128  42 43 44  42 84 43  42 272 43  42 84 44  42 44 85  42 84 85  42 237 84  42 272 84  42 237 85  42 255 85  42 237 255  42 237 272  42 272 255  84 43 44  43 128 44  272 84 43  127 43 128  129 127 43  129 43 128  83 84 44  83 44 85  83 86 44  83 239 44  84 44 85  86 44 85  239 86 44  239 128 44  45 46 47  45 46 48  45 46 49  45 46 188  107 45 47  45 48 49  45 123 48  154 45 48  122 45 49  45 123 49  45 188 49  122 45 123  122 45 188  154 45 123  46 48 49  46 188 49  60 107 47  60 47 193  107 47 67  47 67 193  107 47 193  123 48 49  123 48 121  48 208 121  154 123 48  123 48 208  154 48 168  154 48 208  48 208 168  122 123 49  122 188 49  122 50 51  50 207 51  122 50 207  122 51 64  51 188 64  207 51 64  51 247 64  122 51 188  122 207 51  207 51 247  52 53 54  52 53 55  52 101 53  223 52 53  52 53 248  52 54 55  143 52 54  52 265 54  143 52 55  223 52 55  226 52 101  52 101 227  52 101 248  143 223 52  143 52 224  143 52 265  223 52 224  223 52 225  223 226 52  223 52 248  52 224 225  52 262 224  52 265 224  226 52 225  52 227 225  52 262 225  226 52 227  226 52 248  52 262 227  52 265 262  53 54 55  53 54 183  53 70 55  53 183 55  223 53 55  53 68 69  53 68 70  53 82 68  53 183 68  53 69 70  53 82 69  53 69 248  53 183 70  223 53 70  53 70 248  101 53 82  53 82 248  101 53 248  223 53 248  143 54 55  54 183 55  143 265 54  183 70 55  223 70 55  230 70 55  143 223 55  183 230 55  56 57 58  56 57 59  137 56 57  56 57 165  56 58 59  56 58 99  56 58 216  56 165 59  56 216 59  56 59 264  56 216 99  136 137 56  136 56 164  136 56 263  137 56 164  137 56 165  56 142 216  56 263 142  56 142 264  56 164 165  56 164 263  56 164 264  56 165 264  56 216 264  56 263 264  57 58 59  57 58 191  57 165 59  57 59 191  57 59 220  57 104 60  57 60 105  57 60 194  57 60 210  57 104 105  137 57 104  57 104 145  57 104 184  57 105 184  57 105 194  137 57 145  137 57 165  137 57 218  57 145 184  57 145 194  57 218 145  57 145 220  57 218 165  57 165 220  57 194 184  57 191 194  57 191 210  57 191 220  57 194 210  57 194 220  57 218 220  58 59 191  58 59 192  58 216 59  58 219 59  58 216 99  58 219 99  151 58 153  58 192 153  58 219 153  58 191 192  58 219 192  58 219 216  165 59 220  165 59 264  59 191 192  59 191 220  219 59 192  219 216 59  216 59 264  104 60 105  104 60 107  60 107 105  60 193 105  60 105 194  60 107 193  60 193 194  60 193 210  60 194 210  185 161 61  189 161 61  161 61 190  217 161 61  217 185 61  189 61 190  189 217 61  62 63 64  62 81 63  62 229 63  62 122 64  62 207 64  62 229 64  62 81 229  62 122 207  62 229 207  229 63 64  247 63 64  68 69 63  68 70 63  81 68 63  183 68 63  68 229 63  69 70 63  81 69 63  69 63 98  183 70 63  230 70 63  81 63 98  81 229 63  183 229 63  183 230 63  229 230 63  229 247 63  230 247 63  122 188 64  122 207 64  229 207 64  207 247 64  229 247 64  65 66 67  65 66 246  65 107 67  65 205 67  65 246 67  65 203 107  65 107 205  65 203 204  65 203 205  65 204 205  65 246 204  65 246 205  66 246 67  107 67 105  67 193 105  205 67 105  107 67 193  107 205 67  246 205 67  68 69 70  81 68 69  82 68 69  183 68 70  81 82 68  81 68 229  183 68 229  69 70 248  81 82 69  81 69 98  82 69 98  82 112 69  82 245 69  82 69 248  112 69 98  112 245 69  245 69 248  183 230 70  223 70 248  71 72 73  71 133 72  71 163 72  71 212 72  71 118 73  71 73 176  71 187 73  71 212 73  71 118 187  71 118 236  71 163 133  71 133 212  71 133 236  71 187 176  71 212 176  71 236 176  71 236 187  71 236 212  212 72 73  133 96 72  163 96 72  96 212 72  163 133 72  133 212 72  118 120 73  118 187 73  118 214 73  120 187 73  214 120 73  187 73 176  212 73 176  74 75 76  74 96 75  74 75 97  74 148 75  74 75 228  74 147 76  74 148 76  74 96 97  74 133 96  74 147 96  74 96 148  74 133 97  74 228 97  74 254 97  74 147 133  74 133 254  74 147 148  74 254 228  148 75 76  96 75 97  96 148 75  75 228 97  147 148 76  147 185 76  147 213 76  213 148 76  213 185 76  77 78 79  77 78 80  250 77 78  77 251 78  77 78 269  77 271 78  77 79 80  77 79 269  77 271 80  250 77 251  250 77 269  77 271 251  78 79 80  93 78 79  249 78 79  78 79 269  93 78 80  244 78 80  271 78 80  244 93 78  249 93 78  249 173 78  250 173 78  251 173 78  251 244 78  271 244 78  250 249 78  249 78 269  250 251 78  250 78 269  271 251 78  93 79 80  79 95 80  92 93 79  92 79 95  92 175 79  249 92 79  92 79 269  93 79 95  249 93 79  175 79 95  175 79 269  249 79 269  93 95 80  93 116 80  93 171 80  244 93 80  95 116 80  171 116 80  243 116 80  243 171 80  244 171 80  243 244 80  271 243 80  271 244 80  81 82 98  81 108 82  81 108 98  108 82 98  82 112 98  101 82 115  101 82 245  101 82 248  108 82 110  108 82 112  82 110 112  82 110 115  82 115 112  82 112 245  82 115 245  82 245 248  83 84 85  83 237 84  83 86 85  87 83 85  83 237 85  87 83 86  158 83 86  83 239 86  158 87 83  87 83 237  237 84 85  237 272 84  87 86 85  86 88 85  87 88 85  87 234 85  87 237 85  87 255 85  88 234 85  234 255 85  237 255 85  87 86 88  158 87 86  158 86 88  158 87 88  231 87 88  87 88 234  158 231 87  231 87 232  231 87 234  87 232 234  87 237 232  87 232 255  87 234 255  87 237 255  158 231 88  231 88 233  231 88 234  88 233 234  89 90 91  89 90 125  89 159 90  89 90 190  89 91 125  89 134 91  89 135 91  89 135 125  89 189 125  89 125 190  89 134 135  195 89 134  89 189 135  89 189 159  89 159 190  89 189 190  90 91 125  90 125 190  159 90 162  159 90 190  90 190 162  135 91 125  91 238 125  134 135 91  134 91 211  135 91 238  92 93 94  92 93 95  249 92 93  92 94 95  92 94 175  92 94 236  92 175 95  109 149 92  109 92 236  109 92 270  249 149 92  149 92 270  92 236 175  92 175 269  92 175 270  92 236 270  249 92 269  249 92 270  92 269 270  93 94 95  93 94 116  93 94 117  93 95 116  93 117 116  93 171 116  93 171 117  244 93 171  94 95 97  94 95 116  94 175 95  94 95 176  94 95 212  94 116 97  94 117 97  133 94 97  94 97 212  94 254 97  94 117 116  94 254 117  133 94 212  133 94 236  133 94 254  94 175 176  94 236 175  94 212 176  94 236 176  94 236 212  95 116 97  95 97 212  175 95 176  95 212 176  133 96 97  96 97 212  147 133 96  163 133 96  133 96 212  147 96 148  163 147 96  117 116 97  116 228 97  117 228 97  254 117 97  133 97 212  133 254 97  254 228 97  108 111 98  108 112 98  112 111 98  141 99 155  141 216 99  156 99 157  219 99 157  219 216 99  100 101 102  100 101 103  215 100 101  100 101 245  100 102 103  215 100 102  100 102 253  100 103 113  100 172 103  100 103 197  100 103 245  100 103 253  100 113 197  100 245 113  100 172 197  100 172 253  215 100 245  215 100 253  101 102 103  215 101 102  101 227 102  101 103 115  101 103 245  101 115 245  226 215 101  215 101 227  215 101 245  215 101 248  226 101 227  226 101 248  101 245 248  102 103 174  102 103 253  102 174 253  215 227 102  215 102 253  103 115 113  103 113 197  209 103 113  103 245 113  209 103 115  103 115 245  172 173 103  172 103 174  172 103 197  172 209 103  172 103 253  173 103 174  209 173 103  103 174 253  209 103 197  104 107 105  104 105 184  104 205 105  104 203 107  104 107 205  137 104 145  137 104 146  179 137 104  137 104 180  104 145 146  104 145 184  104 146 180  104 146 184  104 146 205  104 146 206  179 104 180  179 104 203  179 104 206  104 180 206  104 205 184  104 203 205  104 203 206  104 205 206  107 193 105  107 205 105  105 194 184  205 105 184  193 105 194  151 106 157  156 106 157  203 107 205  108 109 110  108 109 111  108 186 109  108 110 111  108 110 112  108 112 111  108 186 111  108 266 186  109 110 111  109 149 110  109 110 150  109 111 119  109 150 111  186 109 111  118 109 119  118 186 109  118 109 187  118 109 236  109 150 119  186 109 119  109 119 187  109 149 150  109 149 270  109 150 187  109 150 270  109 236 187  109 270 187  109 236 270  110 112 111  110 114 111  110 150 111  110 112 113  110 112 114  110 115 112  110 113 114  110 115 113  149 110 113  149 110 114  110 114 150  149 110 115  149 110 150  112 114 111  114 150 111  150 111 119  186 111 119  112 113 114  115 112 113  112 245 113  115 112 245  149 113 114  113 114 196  149 115 113  209 115 113  115 245 113  149 113 196  149 113 197  209 149 113  113 196 197  209 113 197  149 114 150  149 114 196  114 150 196  209 149 115  171 117 116  117 116 228  117 116 252  243 171 116  171 116 252  116 228 252  243 116 252  171 241 117  171 117 252  117 228 252  254 117 228  241 117 252  118 119 120  118 119 121  118 186 119  118 119 187  118 120 121  118 120 187  118 208 120  118 214 120  118 123 121  118 186 121  118 208 121  118 266 121  154 118 123  118 123 208  118 266 123  154 118 208  154 118 214  118 266 186  118 236 187  118 214 208  119 120 121  119 120 187  186 119 121  150 119 187  208 120 121  214 208 120  123 208 121  266 123 121  266 186 121  266 122 123  154 123 208  124 125 126  135 124 125  189 124 125  135 124 126  124 231 126  189 135 124  135 124 231  124 158 231  135 125 126  238 125 126  189 135 125  135 238 125  189 125 190  135 231 126  135 233 126  135 238 126  231 233 126  233 238 126  129 127 128  127 128 242  129 169 127  129 127 242  169 127 242  129 241 128  129 128 242  241 128 242  129 169 170  129 169 171  129 169 242  129 170 171  129 171 241  129 171 242  129 241 242  130 131 132  130 140 131  130 140 132  130 132 178  130 261 132  136 130 140  136 130 177  136 130 178  258 136 130  130 140 178  130 177 178  199 130 177  130 201 177  258 130 177  130 201 178  130 261 178  199 195 130  195 130 257  199 130 201  199 130 257  258 199 130  199 130 261  130 261 201  130 261 257  140 131 132  140 131 141  131 141 155  140 132 178  261 132 178  163 147 133  133 236 212  195 134 211  135 231 233  135 231 235  135 235 233  135 233 238  135 235 238  136 137 138  136 137 139  136 137 164  179 136 137  136 138 139  179 136 138  136 138 222  136 164 139  136 139 221  136 139 222  136 140 178  136 140 263  136 164 221  136 164 263  136 177 178  136 221 177  136 222 177  258 136 177  136 221 178  136 263 178  179 136 222  258 179 136  136 222 221  136 263 221  258 136 222  137 138 139  137 144 138  179 137 138  137 180 138  137 144 139  137 164 139  137 218 139  137 144 145  137 144 146  137 144 180  137 218 144  137 145 146  137 218 145  137 146 180  137 164 165  137 218 164  137 218 165  179 137 180  144 138 139  138 139 222  144 180 138  179 180 138  179 138 181  179 138 222  179 138 260  180 138 181  138 181 260  138 260 222  218 144 139  218 164 139  164 139 221  139 222 221  140 141 142  140 263 142  140 263 178  141 142 216  142 216 264  263 142 264  143 223 224  143 265 224  144 145 146  218 144 145  144 146 180  145 146 184  145 194 184  145 194 220  218 145 220  146 180 206  146 205 184  146 205 206  147 213 148  147 213 185  147 217 185  149 150 196  149 150 270  149 196 197  149 196 198  249 149 196  149 196 270  149 197 198  209 149 197  209 149 198  249 149 198  249 209 149  249 149 270  150 270 187  150 196 270  151 152 153  151 157 152  151 166 152  151 240 152  151 157 153  151 166 240  157 152 153  152 192 153  166 152 167  166 240 152  240 152 167  219 157 153  219 192 153  166 154 167  166 154 168  166 240 154  154 167 168  154 208 167  154 214 167  240 154 167  154 208 168  154 214 208  240 154 214  160 155 162  159 160 161  159 160 162  159 160 217  159 161 162  189 159 161  159 161 190  159 217 161  159 190 162  189 159 190  189 159 217  160 161 162  160 217 161  161 190 162  217 185 161  189 161 190  189 217 161  218 164 165  164 165 264  164 263 221  164 263 264  218 165 220  166 167 168  166 240 167  208 167 168  214 208 167  240 214 167  169 170 171  243 169 170  169 171 242  243 169 171  243 169 242  243 170 171  244 170 171  243 244 170  171 241 242  171 241 252  243 171 242  171 252 242  243 244 171  243 171 252  172 173 174  172 173 198  172 209 173  172 250 173  172 173 268  172 174 253  172 174 268  172 197 198  172 209 197  172 209 198  172 250 198  172 250 268  172 268 253  173 174 268  209 173 198  249 173 198  250 173 198  249 209 173  250 249 173  250 251 173  250 173 268  174 268 253  175 187 176  236 175 176  236 175 187  175 270 187  236 175 270  175 269 270  236 187 176  236 212 176  201 177 178  221 177 178  199 201 177  258 199 177  199 259 177  201 259 177  222 221 177  258 222 177  259 222 177  258 259 177  261 201 178  263 221 178  179 180 181  179 180 182  179 180 206  179 181 182  258 179 181  179 181 260  179 203 182  179 206 182  179 203 206  258 179 222  179 260 222  258 179 260  180 181 182  180 206 182  258 181 260  203 206 182  203 182 267  206 182 267  183 229 230  236 270 187  191 210 192  191 194 210  191 194 220  193 194 210  199 195 256  199 195 257  195 211 256  195 211 257  195 256 257  196 197 198  249 196 198  196 269 198  249 196 269  249 196 270  196 269 270  209 197 198  249 209 198  250 249 198  249 269 198  250 269 198  199 200 201  199 200 202  199 256 200  199 200 257  199 261 200  199 201 202  199 201 259  199 261 201  199 256 202  199 259 202  199 256 257  199 261 257  258 199 259  200 201 202  261 200 201  256 200 202  256 200 257  261 200 257  201 259 202  203 204 205  203 204 206  203 204 267  203 205 206  203 206 267  204 205 206  246 204 205  204 206 267  229 207 247  211 256 257  226 215 227  226 215 248  215 245 248  258 259 222  258 260 222  259 260 222  223 224 225  223 226 225  223 226 248  262 224 225  265 262 224  226 227 225  262 227 225  229 230 247  231 232 233  231 232 234  231 232 235  231 233 234  231 235 233  232 233 234  232 235 233  232 234 255  237 232 255  235 233 238  237 272 255  241 252 242  243 252 242  271 243 244  271 251 244  250 249 269  249 269 270  258 259 260  </DataArray>
<DataArray  type="UInt32"  Name="offsets"  format="ascii">3 6 9 12 15 18 21 24 27 30 33 36 39 42 45 48 51 54 57 60 63 66 69 72 75 78 81 84 87 90 93 96 99 102 105 108 111 114 117 120 123 126 129 132 135 138 141 144 147 150 153 156 159 162 165 168 171 174 177 180 183 186 189 192 195 198 201 204 207 210 213 216 219 222 225 228 231 234 237 240 243 246 249 252 255 258 261 264 267 270 273 276 279 282 285 288 291 294 297 300 303 306 309 312 315 318 321 324 327 330 333 336 339 342 345 348 351 354 357 360 363 366 369 372 375 378 381 384 387 390 393 396 399 402 405 408 411 414 417 420 423 426 429 432 435 438 441 444 447 450 453 456 459 462 465 468 471 474 477 480 483 486 489 492 495 498 501 504 507 510 513 516 519 522 525 528 531 534 537 540 543 546 549 552 555 558 561 564 567 570 573 576 579 582 585 588 591 594 597 600 603 606 609 612 615 618 621 624 627 630 633 636 639 642 645 648 651 654 657 660 663 666 669 672 675 678 681 684 687 690 693 696 699 702 705 708 711 714 717 720 723 726 729 732 735 738 741 744 747 750 753 756 759 762 765 768 771 774 777 780 783 786 789 792 795 798 801 804 807 810 813 816 819 822 825 828 831 834 837 840 843 846 849 852 855 858 861 864 867 870 873 876 879 882 885 888 891 894 897 900 903 906 909 912 915 918 921 924 927 930 933 936 939 942 945 948 951 954 957 960 963 966 969 972 975 978 981 984 987 990 993 996 999 1002 1005 1008 1011 1014 1017 1020 1023 1026 1029 1032 1035 1038 1041 1044 1047 1050 1053 1056 1059 1062 1065 1068 1071 1074 1077 1080 1083 1086 1089 1092 1095 1098 1101 1104 1107 1110 1113 1116 1119 1122 1125 1128 1131 1134 1137 1140 1143 1146 1149 1152 1155 1158 1161 1164 1167 1170 1173 1176 1179 1182 1185 1188 1191 1194 1197 1200 1203 1206 1209 1212 1215 1218 1221 1224 1227 1230 1233 1236 1239 1242 1245 1248 1251 1254 1257 1260 1263 1266 1269 1272 1275 1278 1281 1284 1287 1290 1293 1296 1299 1302 1305 1308 1311 1314 1317 1320 1323 1326 1329 1332 1335 1338 1341 1344 1347 1350 1353 1356 1359 1362 1365 1368 1371 1374 1377 1380 1383 1386 1389 1392 1395 1398 1401 1404 1407 1410 1413 1416 1419 1422 1425 1428 1431 1434 1437 1440 1443 1446 1449 1452 1455 1458 1461 1464 1467 1470 1473 1476 1479 1482 1485 1488 1491 1494 1497 1500 1503 1506 1509 1512 1515 1518 1521 1524 1527 1530 1533 1536 1539 1542 1545 1548 1551 1554 1557 1560 1563 1566 1569 1572 1575 1578 1581 1584 1587 1590 1593 1596 1599 1602 1605 1608 1611 1614 1617 1620 1623 1626 1629 1632 1635 1638 1641 1644 1647 1650 1653 1656 1659 1662 1665 1668 1671 1674 1677 1680 1683 1686 1689 1692 1695 1698 1701 1704 1707 1710 1713 1716 1719 1722 1725 1728 1731 1734 1737 1740 1743 1746 1749 1752 1755 1758 1761 1764 1767 1770 1773 1776 1779 1782 1785 1788 1791 1794 1797 1800 1803 1806 1809 1812 1815 1818 1821 1824 1827 1830 1833 1836 1839 1842 1845 1848 1851 1854 1857 1860 1863 1866 1869 1872 1875 1878 1881 1884 1887 1890 1893 1896 1899 1902 1905 1908 1911 1914 1917 1920 1923 1926 1929 1932 1935 1938 1941 1944 1947 1950 1953 1956 1959 1962 1965 1968 1971 1974 1977 1980 1983 1986 1989 1992 1995 1998 2001 2004 2007 2010 2013 2016 2019 2022 2025 2028 2031 2034 2037 2040 2043 2046 2049 2052 2055 2058 2061 2064 2067 2070 2073 2076 2079 2082 2085 2088 2091 2094 2097 2100 2103 2106 2109 2112 2115 2118 2121 2124 2127 2130 2133 2136 2139 2142 2145 2148 2151 2154 2157 2160 2163 2166 2169 2172 2175 2178 2181 2184 2187 2190 2193 2196 2199 2202 2205 2208 2211 2214 2217 2220 2223 2226 2229 2232 2235 2238 2241 2244 2247 2250 2253 2256 2259 2262 2265 2268 2271 2274 2277 2280 2283 2286 2289 2292 2295 2298 2301 2304 2307 2310 2313 2316 2319 2322 2325 2328 2331 2334 2337 2340 2343 2346 2349 2352 2355 2358 2361 2364 2367 2370 2373 2376 2379 2382 2385 2388 2391 2394 2397 2400 2403 2406 2409 2412 2415 2418 2421 2424 2427 2430 2433 2436 2439 2442 2445 2448 2451 2454 2457 2460 2463 2466 2469 2472 2475 2478 2481 2484 2487 2490 2493 2496 2499 2502 2505 2508 2511 2514 2517 2520 2523 2526 2529 2532 2535 2538 2541 2544 2547 2550 2553 2556 2559 2562 2565 2568 2571 2574 2577 2580 2583 2586 2589 2592 2595 2598 2601 2604 2607 2610 2613 2616 2619 2622 2625 2628 2631 2634 2637 2640 2643 2646 2649 2652 2655 2658 2661 2664 2667 2670 2673 2676 2679 2682 2685 2688 2691 2694 2697 2700 2703 2706 2709 2712 2715 2718 2721 2724 2727 2730 2733 2736 2739 2742 2745 2748 2751 2754 2757 2760 2763 2766 2769 2772 2775 2778 2781 2784 2787 2790 2793 2796 2799 2802 2805 2808 2811 2814 2817 2820 2823 2826 2829 2832 2835 2838 2841 2844 2847 2850 2853 2856 2859 2862 2865 2868 2871 2874 2877 2880 2883 2886 2889 2892 2895 2898 2901 2904 2907 2910 2913 2916 2919 2922 2925 2928 2931 2934 2937 2940 2943 2946 2949 2952 2955 2958 2961 2964 2967 2970 2973 2976 2979 2982 2985 2988 2991 2994 2997 3000 3003 3006 3009 3012 3015 3018 3021 3024 3027 3030 3033 3036 3039 3042 3045 3048 3051 3054 3057 3060 3063 3066 3069 3072 3075 3078 3081 3084 3087 3090 3093 3096 3099 3102 3105 3108 3111 3114 3117 3120 3123 3126 3129 3132 3135 3138 3141 3144 3147 3150 3153 3156 3159 3162 3165 3168 3171 3174 3177 3180 3183 3186 3189 3192 3195 3198 3201 3204 3207 3210 3213 3216 3219 3222 3225 3228 3231 3234 3237 3240 3243 3246 3249 3252 3255 3258 3261 3264 3267 3270 3273 3276 3279 3282 3285 3288 3291 3294 3297 3300 3303 3306 3309 3312 3315 3318 3321 3324 3327 3330 3333 3336 3339 3342 3345 3348 3351 3354 3357 3360 3363 3366 3369 3372 3375 3378 3381 3384 3387 3390 3393 3396 3399 3402 3405 3408 3411 3414 3417 3420 3423 3426 3429 3432 3435 3438 3441 3444 3447 3450 3453 3456 3459 3462 3465 3468 3471 3474 3477 3480 3483 3486 3489 3492 3495 3498 3501 3504 3507 3510 3513 3516 3519 3522 3525 3528 3531 3534 3537 3540 3543 3546 3549 3552 3555 3558 3561 3564 3567 3570 3573 3576 3579 3582 3585 3588 3591 3594 3597 3600 3603 3606 3609 3612 3615 3618 3621 3624 3627 3630 3633 3636 3639 3642 3645 3648 3651 3654 3657 3660 3663 3666 3669 3672 3675 3678 3681 3684 3687 3690 3693 3696 3699 3702 3705 3708 3711 3714 3717 3720 3723 3726 3729 3732 3735 3738 3741 3744 3747 3750 3753 3756 3759 3762 3765 3768 3771 3774 3777 3780 3783 3786 3789 3792 3795 3798 3801 3804 3807 3810 3813 3816 3819 3822 3825 3828 3831 3834 3837 3840 3843 3846 3849 3852 3855 3858 3861 3864 3867 3870 3873 3876 3879 3882 3885 3888 3891 3894 3897 3900 3903 3906 3909 3912 3915 3918 3921 3924 3927 3930 3933 3936 3939 3942 3945 3948 3951 3954 3957 3960 3963 3966 3969 3972 3975 3978 3981 3984 3987 3990 3993 3996 3999 4002 4005 4008 4011 4014 4017 4020 4023 4026 4029 4032 4035 4038 4041 4044 4047 4050 4053 4056 4059 4062 4065 4068 4071 4074 4077 4080 4083 4086 4089 4092 4095 4098 4101 4104 4107 4110 4113 4116 4119 4122 4125 4128 4131 4134 4137 4140 4143 4146 4149 4152 4155 4158 4161 4164 4167 4170 4173 4176 4179 4182 4185 4188 4191 4194 4197 4200 4203 4206 4209 4212 4215 4218 4221 4224 4227 4230 4233 4236 4239 4242 4245 4248 4251 4254 4257 4260 4263 4266 4269 4272 4275 4278 4281 4284 4287 4290 4293 4296 4299 4302 4305 4308 4311 4314 4317 4320 4323 4326 4329 4332 4335 4338 4341 4344 4347 4350 4353 4356 4359 4362 4365 4368 4371 4374 4377 4380 4383 4386 4389 4392 4395 4398 4401 4404 4407 4410 4413 4416 4419 4422 4425 4428 4431 4434 4437 4440 4443 4446 4449 4452 4455 4458 4461 4464 4467 4470 4473 4476 4479 4482 4485 4488 4491 4494 4497 4500 4503 4506 4509 4512 4515 4518 4521 4524 4527 4530 4533 4536 4539 4542 4545 4548 4551 4554 4557 4560 4563 4566 4569 4572 4575 4578 4581 4584 4587 4590 4593 4596 4599 4602 4605 4608 4611 4614 4617 4620 4623 4626 4629 4632 4635 4638 4641 4644 4647 4650 4653 4656 4659 4662 4665 4668 4671 4674 4677 4680 4683 4686 4689 4692 4695 4698 4701 4704 4707 4710 4713 4716 4719 4722 4725 4728 4731 4734 4737 4740 4743 4746 4749 4752 4755 4758 4761 4764 4767 4770 4773 4776 4779 4782 4785 4788 4791 4794 4797 4800 4803 4806 4809 4812 4815 4818 4821 4824 4827 4830 4833 4836 4839 4842 4845 4848 4851 4854 4857 4860 4863 4866 4869 4872 4875 4878 4881 4884 4887 4890 4893 4896 4899 4902 4905 4908 4911 4914 4917 4920 4923 4926 4929 4932 4935 4938 4941 4944 4947 4950 4953 4956 4959 4962 4965 4968 4971 4974 4977 4980 4983 4986 4989 4992 4995 4998 5001 5004 5007 5010 5013 5016 5019 5022 5025 5028 5031 5034 5037 5040 5043 5046 5049 5052 5055 5058 5061 5064 5067 5070 5073 5076 5079 5082 5085 </DataArray>
<DataArray  type="UInt8"  Name="types"  format="ascii">5 5 5 5 5 5 5 5 5 5 5 5 5 5 5 5 5 5 5 5 5 5 5 5 5 5 5 5 5 5 5 5 5 5 5 5 5 5 5 5 5 5 5 5 5 5 5 5 5 5 5 5 5 5 5 5 5 5 5 5 5 5 5 5 5 5 5 5 5 5 5 5 5 5 5 5 5 5 5 5 5 5 5 5 5 5 5 5 5 5 5 5 5 5 5 5 5 5 5 5 5 5 5 5 5 5 5 5 5 5 5 5 5 5 5 5 5 5 5 5 5 5 5 5 5 5 5 5 5 5 5 5 5 5 5 5 5 5 5 5 5 5 5 5 5 5 5 5 5 5 5 5 5 5 5 5 5 5 5 5 5 5 5 5 5 5 5 5 5 5 5 5 5 5 5 5 5 5 5 5 5 5 5 5 5 5 5 5 5 5 5 5 5 5 5 5 5 5 5 5 5 5 5 5 5 5 5 5 5 5 5 5 5 5 5 5 5 5 5 5 5 5 5 5 5 5 5 5 5 5 5 5 5 5 5 5 5 5 5 5 5 5 5 5 5 5 5 5 5 5 5 5 5 5 5 5 5 5 5 5 5 5 5 5 5 5 5 5 5 5 5 5 5 5 5 5 5 5 5 5 5 5 5 5 5 5 5 5 5 5 5 5 5 5 5 5 5 5 5 5 5 5 5 5 5 5 5 5 5 5 5 5 5 5 5 5 5 5 5 5 5 5 5 5 5 5 5 5 5 5 5 5 5 5 5 5 5 5 5 5 5 5 5 5 5 5 5 5 5 5 5 5 5 5 5 5 5 5 5 5 5 5 5 5 5 5 5 5 5 5 5 5 5 5 5 5 5 5 5 5 5 5 5 5 5 5 5 5 5 5 5 5 5 5 5 5 5 5 5 5 5 5 5 5 5 5 5 5 5 5 5 5 5 5 5 5 5 5 5 5 5 5 5 5 5 5 5 5 5 5 5 5 5 5 5 5 5 5 5 5 5 5 5 5 5 5 5 5 5 5 5 5 5 5 5 5 5 5 5 5 5 5 5 5 5 5 5 5 5 5 5 5 5 5 5 5 5 5 5 5 5 5 5 5 5 5 5 5 5 5 5 5 5 5 5 5 5 5 5 5 5 5 5 5 5 5 5 5 5 5 5 5 5 5 5 5 5 5 5 5 5 5 5 5 5 5 5 5 5 5 5 5 5 5 5 5 5 5 5 5 5 5 5 5 5 5 5 5 5 5 5 5 5 5 5 5 5 5 5 5 5 5 5 5 5 5 5 5 5 5 5 5 5 5 5 5 5 5 5 5 5 5 5 5 5 5 5 5 5 5 5 5 5 5 5 5 5 5 5 5 5 5 5 5 5 5 5 5 5 5 5 5 5 5 5 5 5 5 5 5 5 5 5 5 5 5 5 5 5 5 5 5 5 5 5 5 5 5 5 5 5 5 5 5 5 5 5 5 5 5 5 5 5 5 5 5 5 5 5 5 5 5 5 5 5 5 5 5 5 5 5 5 5 5 5 5 5 5 5 5 5 5 5 5 5 5 5 5 5 5 5 5 5 5 5 5 5 5 5 5 5 5 5 5 5 5 5 5 5 5 5 5 5 5 5 5 5 5 5 5 5 5 5 5 5 5 5 5 5 5 5 5 5 5 5 5 5 5 5 5 5 5 5 5 5 5 5 5 5 5 5 5 5 5 5 5 5 5 5 5 5 5 5 5 5 5 5 5 5 5 5 5 5 5 5 5 5 5 5 5 5 5 5 5 5 5 5 5 5 5 5 5 5 5 5 5 5 5 5 5 5 5 5 5 5 5 5 5 5 5 5 5 5 5 5 5 5 5 5 5 5 5 5 5 5 5 5 5 5 5 5 5 5 5 5 5 5 5 5 5 5 5 5 5 5 5 5 5 5 5 5 5 5 5 5 5 5 5 5 5 5 5 5 5 5 5 5 5 5 5 5 5 5 5 5 5 5 5 5 5 5 5 5 5 5 5 5 5 5 5 5 5 5 5 5 5 5 5 5 5 5 5 5 5 5 5 5 5 5 5 5 5 5 5 5 5 5 5 5 5 5 5 5 5 5 5 5 5 5 5 5 5 5 5 5 5 5 5 5 5 5 5 5 5 5 5 5 5 5 5 5 5 5 5 5 5 5 5 5 5 5 5 5 5 5 5 5 5 5 5 5 5 5 5 5 5 5 5 5 5 5 5 5 5 5 5 5 5 5 5 5 5 5 5 5 5 5 5 5 5 5 5 5 5 5 5 5 5 5 5 5 5 5 5 5 5 5 5 5 5 5 5 5 5 5 5 5 5 5 5 5 5 5 5 5 5 5 5 5 5 5 5 5 5 5 5 5 5 5 5 5 5 5 5 5 5 5 5 5 5 5 5 5 5 5 5 5 5 5 5 5 5 5 5 5 5 5 5 5 5 5 5 5 5 5 5 5 5 5 5 5 5 5 5 5 5 5 5 5 5 5 5 5 5 5 5 5 5 5 5 5 5 5 5 5 5 5 5 5 5 5 5 5 5 5 5 5 5 5 5 5 5 5 5 5 5 5 5 5 5 5 5 5 5 5 5 5 5 5 5 5 5 5 5 5 5 5 5 5 5 5 5 5 5 5 5 5 5 5 5 5 5 5 5 5 5 5 5 5 5 5 5 5 5 5 5 5 5 5 5 5 5 5 5 5 5 5 5 5 5 5 5 5 5 5 5 5 5 5 5 5 5 5 5 5 5 5 5 5 5 5 5 5 5 5 5 5 5 5 5 5 5 5 5 5 5 5 5 5 5 5 5 5 5 5 5 5 5 5 5 5 5 5 5 5 5 5 5 5 5 5 5 5 5 5 5 5 5 5 5 5 5 5 5 5 5 5 5 5 5 5 5 5 5 5 5 5 5 5 5 5 5 5 5 5 5 5 5 5 5 5 5 5 5 5 5 5 5 5 5 5 5 5 5 5 5 5 5 5 5 5 5 5 5 5 5 5 5 5 5 5 5 5 5 5 5 5 5 5 5 5 5 5 5 5 5 5 5 5 5 5 5 5 5 5 5 5 5 5 5 5 5 5 5 5 5 5 5 5 5 5 5 5 5 5 5 5 5 5 5 5 5 5 5 5 5 5 5 5 5 5 5 5 5 5 5 5 5 5 5 5 5 5 5 5 5 5 5 5 5 5 5 5 5 5 5 5 5 5 5 5 5 5 5 5 5 5 5 5 5 5 5 5 5 5 5 5 5 5 5 5 5 5 5 5 5 5 5 5 5 5 5 5 5 5 5 5 5 5 5 5 5 5 5 5 5 5 5 5 5 5 5 5 5 5 5 5 5 5 5 5 5 5 5 5 5 5 5 5 5 5 5 5 5 5 5 5 5 5 5 5 5 5 5 5 5 5 5 5 5 5 5 5 5 5 5 5 5 5 5 5 5 5 5 5 5 5 5 5 5 5 5 5 5 5 5 5 5 5 5 5 5 5 5 5 5 5 5 5 5 5 5 5 5 5 5 5 5 5 5 5 5 5 5 5 5 5 5 5 5 5 5 5 5 5 5 5 5 5 5 5 5 5 5 5 5 5 5 5 5 5 5 5 5 5 5 5 5 5 5 5 5 5 5 5 5 5 5 5 5 5 5 5 5 5 5 5 5 5 5 5 5 5 5 5 5 5 5 5 5 5 5 5 5 5 5 5 5 5 5 5 5 5 5 5 5 5 5 5 5 5 5 5 5 5 5 5 5 5 5 5 5 5 5 5 5 5 5 5 5 5 5 5 5 5 5 5 5 5 5 5 5 5 5 5 5 5 5 5 5 5 5 5 5 5 </DataArray>
</Cells>
<CellData  Scalars="f">
<DataArray  type="Float64"  Name="f"  format="ascii">0 0 0 0 0 0 0 0 0 0 0 0 0 0 1 0 1 1 0 0 0 0 0 0 0 0 0 1 1 1 0 1 3 0 3 3 0 0 3 0 0 0 0 0 3 0 3 0 0 0 0 3 0 3 0 3 0 0 0 0 0 3 3 3 3 0 0 0 0 0 0 0 0 0 0 0 0 0 0 0 1 1 0 0 0 0 0 1 1 0 1 1 3 0 3 3 0 0 0 0 0 3 0 3 0 0 3 0 0 0 0 3 3 0 3 0 0 3 0 0 0 0 3 3 3 0 3 0 0 0 0 0 0 0 0 0 1 1 1 1 0 1 0 0 1 0 0 3 0 0 0 0 0 0 0 0 3 0 3 0 0 3 0 0 0 0 0 3 3 3 0 1 0 0 0 1 0 0 0 0 0 0 0 0 0 0 0 0 1 1 1 1 3 0 3 0 3 0 0 0 3 0 0 0 3 3 0 0 0 0 3 0 0 0 0 3 0 0 0 3 0 0 0 0 0 0 0 0 0 0 0 0 0 1 1 0 1 0 1 1 3 0 3 3 0 0 0 0 3 0 3 0 3 0 0 3 0 3 3 0 0 0 3 0 0 0 0 0 0 0 3 0 0 0 3 0 3 0 0 0 0 1 0 0 0 1 0 1 0 0 0 0 1 0 1 0 0 0 1 0 0 0 0 0 0 0 0 0 0 0 0 0 1 0 0 1 0 1 1 0 0 0 1 0 0 0 1 0 0 3 0 3 3 0 0 0 0 3 0 3 0 0 0 0 3 3 0 0 0 0 0 3 3 0 3 3 3 3 0 0 1 1 0 0 0 0 0 0 0 1 1 0 0 1 0 0 0 0 0 0 1 0 0 0 0 0 0 0 0 0 0 0 0 0 0 0 0 0 0 1 1 0 0 0 0 0 0 1 1 0 0 3 3 3 3 0 3 3 0 0 3 0 3 3 0 0 3 3 0 0 1 1 0 0 0 0 0 0 0 0 1 1 0 0 1 0 0 1 0 0 0 0 0 0 0 1 0 1 0 0 0 0 1 3 3 3 0 0 0 0 3 0 3 0 3 0 0 0 3 3 0 3 0 0 3 0 0 3 0 0 0 0 3 1 0 1 0 0 0 1 0 0 0 1 0 0 0 0 0 0 0 1 0 0 0 0 0 0 0 0 0 0 0 0 0 0 0 0 0 0 0 1 0 0 1 0 0 0 0 0 0 0 0 0 0 0 0 0 0 0 0 0 3 3 0 3 3 0 0 0 3 0 0 0 0 3 0 0 0 3 0 0 0 3 0 3 0 0 3 0 0 0 3 3 0 0 0 0 3 0 0 0 0 3 0 0 0 0 0 1 0 0 0 0 0 0 0 0 3 3 3 0 0 0 0 0 0 0 0 0 0 0 1 0 1 3 3 0 0 0 3 0 0 0 3 0 0 0 0 3 0 0 0 0 1 0 3 0 3 0 0 0 1 0 1 0 0 0 0 1 0 0 0 1 0 0 0 0 0 0 0 0 0 0 0 0 0 0 0 0 1 1 0 1 0 0 0 0 0 1 1 0 0 0 0 0 0 1 0 0 0 0 0 0 0 3 3 3 0 1 0 1 0 0 0 0 0 0 0 0 1 0 0 0 0 0 0 0 0 0 0 0 0 0 0 0 0 0 0 1 0 0 0 0 1 0 0 0 0 0 0 0 0 0 0 0 0 0 0 0 0 0 0 0 0 0 0 0 0 0 0 0 0 0 0 0 0 7 7 3 3 3 3 3 0 1 0 0 0 0 0 0 0 3 0 3 0 0 0 0 0 0 0 0 0 0 1 1 1 0 3 0 0 0 0 0 3 0 3 0 3 0 0 0 0 0 0 3 0 0 0 0 0 0 0 0 0 0 1 0 0 0 0 0 0 3 0 3 3 0 0 3 0 0 0 0 1 1 1 3 0 0 0 0 0 0 3 3 3 0 3 0 0 0 0 0 0 0 0 0 1 1 0 1 0 0 0 0 0 3 0 0 3 0 0 0 0 0 3 3 3 3 0 0 0 0 0 0 0 0 0 0 0 0 0 0 1 1 0 0 3 3 3 3 0 0 0 3 3 0 0 0 0 0 0 3 3 3 0 3 0 0 0 0 0 0 0 0 1 1 1 0 1 1 0 0 0 0 0 0 0 3 0 0 0 0 0 0 0 3 3 0 0 0 0 0 3 0 3 0 0 0 3 0 0 1 0 0 0 1 0 0 1 0 0 1 0 0 0 0 0 1 0 0 0 0 0 0 1 1 0 1 0 3 0 0 0 0 3 3 0 0 0 0 0 0 0 1 1 0 0 1 0 0 0 0 0 0 3 0 0 0 0 0 0 0 0 0 0 1 1 1 1 0 0 3 3 0 0 3 0 3 0 0 0 1 0 1 0 0 1 0 1 1 0 1 0 0 0 0 0 0 0 0 0 0 1 0 0 0 1 1 0 0 0 0 0 0 0 0 0 0 0 1 0 1 1 0 0 0 0 0 3 3 3 3 0 3 0 0 0 0 0 0 3 0 0 0 0 0 0 0 3 3 3 3 3 3 0 0 0 0 0 0 0 0 0 0 0 0 3 3 3 3 3 3 1 0 1 1 0 0 0 0 0 0 0 0 0 1 0 0 0 0 0 0 0 0 1 0 0 0 0 0 0 1 1 0 0 0 0 0 1 0 0 0 1 0 0 0 0 0 0 0 0 1 0 0 0 0 0 0 0 0 3 3 3 0 3 0 1 0 1 0 0 0 0 1 0 1 0 0 0 0 0 1 0 1 0 0 0 0 0 0 0 0 0 0 0 0 0 0 0 0 0 0 0 0 0 1 0 3 3 3 0 3 0 3 0 0 3 0 0 0 0 0 0 3 0 0 0 3 1 0 0 0 0 0 3 3 1 0 0 0 0 0 0 0 0 0 0 0 0 0 0 0 0 1 0 1 0 0 1 0 0 3 3 0 3 3 3 0 0 0 1 0 0 0 0 0 0 1 1 1 0 3 0 0 0 0 0 0 0 3 0 3 0 0 3 0 0 0 0 0 0 1 1 0 0 0 0 0 0 0 0 0 0 1 0 0 0 0 0 0 0 1 0 0 0 1 0 0 0 3 3 3 3 3 1 0 0 0 1 0 0 0 0 0 0 1 0 0 0 0 0 0 0 0 0 0 0 0 0 0 0 0 0 1 0 0 0 0 0 0 0 0 0 0 0 0 0 0 0 0 0 0 0 0 0 3 3 3 0 0 0 0 3 3 3 3 7 3 3 3 3 3 3 3 3 3 0 3 3 3 3 3 3 7 3 3 3 0 0 0 0 0 0 0 0 0 0 0 0 0 1 0 3 3 0 0 0 0 0 1 3 3 0 0 0 3 3 0 0 1 0 0 0 0 0 0 0 0 0 0 1 0 0 0 0 0 0 1 0 0 3 0 0 0 7 7 3 3 7 0 0 3 3 0 0 0 0 0 3 0 1 0 0 0 0 0 0 0 0 0 0 0 0 0 0 3 0 0 3 3 3 0 0 0 0 1 0 0 0 0 3 0 0 3 0 3 0 0 3 3 0 0 0 3 3 0 3 0 3 3 0 0 0 0 0 0 0 0 0 0 0 0 3 3 0 0 0 3 0 0 3 3 3 3 0 0 0 0 0 3 0 3 0 0 3 0 0 0 0 3 0 0 0 0 0 0 0 0 0 0 0 0 0 3 3 3 3 3 3 0 0 0 0 0 3 3 3 0 3 0 3 3 0 0 3 3 3 3 0 0 0 0 0 0 0 1 0 0 0 0 0 0 0 0 0 3 0 0 0 0 0 </DataArray>
</CellData>
</Piece>
</UnstructuredGrid>
</VTKFile>