<?xml version="1.0"?>
<VTKFile type="UnstructuredGrid"  version="0.1"  >
<UnstructuredGrid>
<Piece  NumberOfPoints="279" NumberOfCells="1777">
<Points>
<DataArray  type="Float64"  NumberOfComponents="3"  format="ascii">2.637275535899516 -22.78350412537757 -11.29879597386177  2.155300940699441 -22.88730909189213 -11.1201472122182  2.160681349107992 -23.18114880173786 -12.22653775585623  2.223270894637066 -23.62074589193984 -11.9932010996491  3.188266282537264 -21.30793030936806 -11.41363510816586  3.228231073518937 -20.9252212189355 -12.36687113244611  3.400217838510194 -20.4388732827514 -12.18101955343556  3.658316123579159 -20.78212769995042 -12.34061746741635  0.4729095515077544 -21.26766758502162 -9.154921001673713  0.5466479898557894 -20.88070412186804 -9.315281257090787  0.4380652061508594 -21.12792819049042 -9.497771277865054  0.8390564160129822 -21.05267602439945 -9.447782417508071  2.922383614865045 -21.3407872475442 -12.44397399126071  2.91221244552047 -21.79793413646888 -12.55741401714048  2.619635043357901 -21.61718324261269 -12.42434760958197  2.858413806846004 -21.41936391697144 -11.97586329145314  0.9920637199972776 -20.81400570171452 -10.00652234355893  0.8164655018443204 -20.7365579831857 -10.12427746034351  0.9687177394001285 -20.72695920605454 -10.18173387912538  0.7609950476659302 -20.91332793139791 -10.24157198232148  1.852879393075005 -22.19558922976733 -10.91685255430238  1.084709652281478 -22.35919686532668 -11.60290948313935  0.9278984216970388 -22.7205785293854 -11.46305723737492  1.253308171598755 -22.65846368216722 -11.7615861255581  2.226466319932568 -23.46723275452654 -10.83596157126183  2.457048617942866 -23.86021339699178 -10.44802974958272  2.020209171944725 -24.38609378597774 -10.92232489801406  2.45835765719705 -24.26473291234848 -11.27063106631289  1.286443882152321 -22.50900830408571 -9.397011631461908  0.3932400671998955 -22.50254365524533 -8.936765506726607  0.6386215005959613 -22.34500861065213 -8.55557387096678  0.4119400812631666 -22.12429044529545 -8.810180941111881  2.321375744036887 -22.23096894448521 -11.28915396356793  1.784015502251692 -22.05474094705668 -11.59369990076559  1.172514282530389 -22.0528282393717 -11.63706074965374  1.46593193874015 -21.72516361011895 -11.20448795265477  2.246081201673826 -21.82425165943712 -11.16334371888748  2.448252890467927 -21.07656252033629 -12.15387986077377  2.192023080491511 -21.37141036179 -12.15254078290183  2.132955693139169 -21.05817223200539 -11.98594225426922  2.529275847881231 -21.32999188501522 -12.29601176176119  2.318514106701451 -21.66592065163215 -12.30712843975871  1.964800452088255 -21.68568273582877 -12.12730874249196  2.570132115989274 -21.88042508584658 -11.96674875871558  1.689542032068535 -21.56272273789486 -10.25748142810694  1.610052395969724 -21.14169069129958 -9.884159361747113  1.2544431027602 -20.95786118154277 -10.59911014542574  1.104596177534739 -21.08757477657014 -10.09435635428343  1.871982095370165 -23.61043477253871 -10.43696704154537  2.082918791379021 -23.89610465977356 -10.07153813082331  1.506158779064743 -24.34749815824498 -10.61955816691175  1.234526853805216 -24.29419611529425 -10.19539852235185  0.5687577659811092 -23.63900887220827 -9.752211188241318  0.663143014276107 -23.74972269934179 -10.2992104793992  0.8809743110829932 -24.04160401399497 -9.991318424144481  0.8787611639683268 -23.28966499958408 -10.19819933268036  2.749712776793208 -21.56684974903461 -11.4053368742486  1.850429287134439 -21.34453465451844 -11.94206574685052  2.410617749500975 -21.37793888765497 -11.11624680279944  1.881893216159856 -21.01218561349749 -11.82701856615267  1.676063261673637 -21.1136461100001 -11.73665375155774  3.088196364848983 -23.18832783981997 -11.15354489903187  2.82760588510813 -23.63231445423168 -10.82415053366788  2.567351463266247 -23.24615847759988 -11.09198186581736  2.958525410135312 -24.10136701469131 -11.53135889060255  1.262514730476942 -22.55476673981348 -9.998281211554724  1.308812801749322 -22.00383027195523 -9.859479064198192  0.7887654898747404 -21.8721954494831 -10.2041324710725  0.6540098757397279 -22.31552197806051 -9.806985376420855  2.091868208925499 -21.41430362101426 -10.7262318940802  1.41847999516166 -21.03586371007587 -11.51210223008905  1.72381375188303 -20.80819479950637 -11.63979796679475  0.631009780637876 -21.9573942587464 -9.366850504285427  3.466318536271585 -22.26965118627919 -11.40300170631639  3.41287931405861 -22.33998499598159 -12.59850877096065  3.438858643945289 -22.73975251216086 -12.50320903371118  2.990549185585105 -22.32851366371845 -12.6025713323077  1.502152252197266 -22.07022552490234 -10.36534805297852  0.8851544378616304 -21.76423600728425 -10.78325387173066  0.8973207882206803 -21.45444035461957 -10.49364886669726  2.778937925543471 -21.06933207323657 -11.24297103976932  0.8451757383928785 -20.86286829541941 -9.832674337860714  0.6553260711532882 -20.71339225844682 -9.852303617321533  0.4160570372209452 -20.96111218767945 -9.786174621729765  0.6811487994382968 -21.07294789087961 -10.00138645179399  0.7574722865751128 -20.7649398911571 -9.652745032577625  0.3740935760091964 -22.01069801729064 -10.48867781664634  0.9258272396060688 -22.17560677014525 -10.74405755611984  0.9347552440082171 -21.61399106585683 -11.28696711510996  0.7570437939578096 -21.56081426956841 -11.07512084768344  1.277434898858515 -21.3126900908968 -11.00880513951896  1.487141072768909 -21.3462478469003 -9.302663740429642  1.350496094470627 -21.92436318574583 -9.28741664742231  0.5792143568164629 -21.43572520780572 -8.760112173863872  0.7824944613396924 -21.47294408817527 -9.409567723321899  1.730965703096959 -23.03851972880477 -10.78586187185216  1.117839764445206 -23.04290957427013 -11.62707334249279  0.6832698959842715 -22.03604173191013 -11.07016809137603  0.5237005479510758 -22.03697058460003 -10.80789923333415  1.45184649329783 -22.53536205274092 -10.50836171825855  0.7207478133633402 -22.56755832425823 -11.19684356302309  0.7042634189207498 -22.91739687659074 -11.15761098449323  3.123477009201461 -22.69566392999198 -11.35240862280254  3.433088984259471 -23.15247981459284 -12.32211753337321  2.98191771346637 -22.90264288966432 -12.48396161528324  2.855415049528544 -22.27019304230748 -11.44228292484999  1.322791163198193 -20.76074352860576 -11.25502646353959  1.482964971172373 -20.4872851806918 -11.20672651409344  2.479425258944732 -22.93505793468149 -12.40341062321954  1.511683915600934 -20.72240786109828 -11.41861985521201  0.6432704872913241 -20.63322608901272 -10.08502746283702  0.8072943379325669 -20.60442182945662 -10.26459538348724  0.7122784127246545 -20.59274621978405 -9.480578112034982  0.8747855860825928 -20.73996891349722 -9.466473276120325  1.328551293413245 -21.3694339576989 -11.56910789692686  0.4769187117861318 -21.05863789581537 -10.25510284537211  0.3499876754611462 -20.79327834219883 -10.05788282207468  0.7668250457698442 -20.78452097292752 -9.985099468786871  0.5928118629213464 -20.99980539122748 -10.49827883834298  0.4296983510229533 -20.69447989942836 -10.36181808033278  0.6399349349259769 -20.73477208144499 -10.53890547278861  1.154926877774516 -20.68689657018903 -10.1123625435067  0.6730833752813666 -20.46695455179703 -10.30089274536601  0.8836826546496767 -20.46641073494006 -10.39192975414114  1.12682165473537 -21.51074622576131 -11.44100753244317  1.321995411471509 -21.69004699857331 -11.66986464880125  0.4865389629363434 -20.46102196053677 -10.557313129673  3.518332632171213 -22.94721929687111 -11.19562145330849  3.114320071656396 -23.43229374643327 -12.19534929999034  0.4025106434809678 -21.18801795026605 -10.0057451372869  0.3994325817083822 -21.36043586140186 -10.22071924173635  0.7465739550419085 -21.18093675019113 -10.33564594086959  1.213821446017574 -20.72974680846141 -9.665650760998943  1.070662781153845 -20.82106297640499 -9.822051954317224  1.209909924449282 -20.70387967296475 -9.89998728377657  1.174870901191632 -21.12278898383509 -9.717572685686296  3.258786705020016 -21.95890851984035 -12.61961209881632  2.494831901338515 -22.01997008530456 -12.45187537944974  2.535535765900842 -22.50997874241867 -12.48667721293601  2.093048562544379 -22.31071061717493 -12.29010848456551  0.8611191796397231 -22.21014817390828 -11.34587641814307  0.8089386366938367 -21.83757406599442 -11.20293726072475  2.053938543154989 -23.95232771084816 -11.62925567592018  2.479231077006212 -23.9981172021452 -11.65905992755193  1.400001978970807 -21.54107777605851 -9.732717109206536  2.775376390792431 -23.7333066968273 -11.96443532825343  0.2315626933838932 -21.61836773401454 -9.681856852801676  0.1658938733096219 -21.94132648123106 -9.78600489679939  0.7288509815118893 -21.54845353168877 -9.87304884920988  0.281778992568035 -21.56722422315591 -10.00130708076792  0.25182836876677 -21.971545578134 -10.15425807844967  1.325010384727251 -23.43474989647518 -11.68439752795633  1.190787539327653 -23.78058499033713 -11.34034489477065  0.9348783870130891 -23.28317347896053 -11.39102329062904  0.3806797626366142 -23.14474373843891 -9.951003740722385  0.790682501930315 -23.01388924653575 -9.561066131297808  0.5618638291833989 -21.87019020200987 -8.603172540709059  0.4889343567683835 -21.35871165229229 -10.50105213170992  0.3299426918043569 -21.68546953285847 -10.3309439627412  0.5208521785093025 -23.07352642457034 -8.919588316701185  0.3167649774205515 -22.73700069766989 -9.258606046883321  0.3631057160824965 -23.03391739236262 -9.344679754456296  0.5637187475410189 -22.65077995228428 -10.89966068161757  0.8046470727364764 -22.62184495928178 -10.35637820399619  3.250197285506681 -21.260826956776 -12.48635763369518  3.267820469174156 -21.57768652190392 -12.56921434342852  0.9335772375199032 -20.86608523308715 -10.88433661386084  1.064096430956248 -20.59104453806881 -10.86878780658018  0.8035271961279042 -20.59503928320822 -10.6744595856471  0.1672425629368254 -21.88084591510256 -9.477900445729384  1.347578128492523 -23.13020347292186 -9.774533643747496  1.380733311540136 -22.28113675874203 -11.84043201945644  1.652042579753496 -22.58428606009142 -12.04584502993874  0.3998103418757988 -20.74028147193652 -9.572391807237494  0.8505545873297594 -21.13272812709923 -9.792236444478684  1.120839997446957 -20.79701606551132 -11.05823750496121  0.841128936361871 -22.08841987826882 -8.33358482916327  0.459163796621629 -21.72991941057518 -10.66263964753838  2.732283526450602 -20.94020844300422 -12.21268192873323  1.564032856938465 -22.3292737232997 -8.873999288178057  2.392940308644882 -20.96171317886904 -10.82123550088747  2.045312008900544 -20.74880955158017 -11.80416936722786  1.251721939491521 -20.58176544002024 -11.03714941599797  0.977062028690201 -20.85663188468109 -9.644014322383677  1.068889776681769 -20.80440224468508 -9.501537758544421  0.2123405005492081 -22.33061077427348 -9.413300653090365  1.042317352515169 -20.62620322738348 -10.29057765420334  1.131319201595592 -20.49821511602039 -10.38755691833044  0.5811738364107681 -21.49186880418125 -10.79928078115544  1.533337345773013 -21.37887381317097 -11.7324733158382  1.900306360490164 -23.3847560881915 -12.03477247265054  1.766083414602304 -23.01252759466998 -12.08843685784565  1.111232807479644 -24.01284801511314 -10.93152451121119  0.9095784078182931 -23.66068153869658 -11.1349775708563  1.121846112614185 -23.74029034516053 -8.589502698682454  1.629464437792191 -23.50134820498183 -9.334951003635954  1.482940057698142 -23.07937095147804 -9.179844570404985  1.815057088547893 -23.25584512263282 -8.821493293453699  1.254716540024148 -20.55061566187943 -10.24112988316276  1.194198556270803 -20.96950332005214 -11.2669548192019  1.878411875220586 -21.80031139672525 -10.71766504486958  0.2366593152106686 -22.00435411379467 -9.140703343826775  0.3703867378372787 -21.67208440912209 -8.965258640253394  0.2814666070530285 -21.54866367576113 -9.375197550581168  0.3507799380130909 -21.32942069970403 -9.730057446023284  0.518268037286319 -23.40707371681751 -9.268118933210863  0.3832104234417899 -23.19692863641653 -9.60512216556071  3.690843359129897 -23.47788224047938 -12.03762335926945  0.7403190180922357 -23.55449701750868 -8.930230983353137  0.283261793142799 -22.70520868883971 -9.687214669753892  1.428921007862483 -23.01213582190203 -11.87576965468231  1.006016927820845 -24.09238482044668 -10.48822159382756  2.606852011243588 -23.32643508698199 -12.26226464542264  2.060182108894425 -24.5586913491734 -10.40443241057531  1.439016082946188 -23.14482275794586 -10.30676052900338  0.7063278667820596 -23.34036951065135 -11.03536619639418  2.770129505410867 -24.55145464229004 -10.6973055886586  0.3640954158254025 -22.38104746801097 -10.3446677094748  1.574500005377159 -23.31915729145611 -11.89697519228722  3.16376566828309 -21.79237840174674 -11.48065026456003  3.623969237796379 -21.63557691274398 -11.38901750598073  3.613961796296509 -21.26323839691261 -12.49215370446303  0.6249989647437697 -22.3111885830845 -11.00993089075299  1.64981948880134 -21.76925465352289 -8.867319763032041  0.4752871448609203 -22.36370517252247 -10.68380218613857  0.3479887509056133 -22.71469066653974 -10.13918827946722  3.699048832566345 -21.90098405303617 -12.57032218413289  1.160674023975212 -21.21563576200843 -11.36470278684163  1.665583895893497 -23.64281535310118 -9.905045388200428  1.017296343675542 -24.10266315859163 -9.441510733700317  1.267290246383077 -24.32042557881969 -9.794661386191823  0.9415111225993873 -21.35810362624428 -11.20778560631708  0.9990580973788887 -21.06709841329299 -11.11086129227791  2.115534086601007 -21.94775914497313 -12.26263388251228  0.6380786922278734 -21.1962242614534 -10.68765492429887  0.7885164761129326 -21.19831313544489 -10.93177685852849  0.6283880433036968 -21.79612412687339 -10.96127504366249  1.609788112413418 -24.48023301568488 -10.02345164841823  2.01512411649816 -23.90937902862349 -9.54024653093153  1.911832753500233 -24.16052558371672 -11.30451189401659  1.049967174860507 -22.63956426904544 -8.157063596403331  1.636051034920813 -22.72569903968769 -8.822151780718087  0.7376599012831571 -22.84443044529384 -8.51601121505402  1.749056723858319 -23.61344045939738 -11.82855908258061  0.7328793106624591 -23.75710444546413 -9.273745454363155  1.972494181324125 -22.21791844770726 -8.477337807727666  0.7554341125363734 -20.92919362734001 -10.70038706831574  3.664169651952576 -21.15515628124736 -11.28708523460972  2.093011889810057 -22.75729898782824 -12.28949878632334  1.749640254006257 -22.06643926654387 -12.07003607062552  1.440959831101988 -21.97157835988465 -11.84127092065235  0.4248551703570206 -23.09468722258386 -10.30887625915641  0.5557377015189725 -23.41503721569902 -10.56454057789137  0.5348359739723675 -23.04423707453548 -10.75879444056757  1.542510303440736 -23.85382892893631 -11.52262007403188  0.4428553019924783 -22.70804660372582 -10.54160430341772  0.9830734191534738 -23.91542264916172 -9.019002870258118  3.868121502779311 -23.037407706652 -12.26059226756528  0.5936992028438491 -20.59702104206589 -9.669108641036361  0.8244547468423777 -23.27974165079693 -8.586251298677331  0.6541574645797191 -21.01143507082023 -9.009261664390619  0.2442506176700826 -22.28655229563389 -9.939203130058448  1.392957682539901 -24.19321906140986 -8.905212182384551  1.640686288067932 -21.72279003742416 -11.93019254078515  1.698752451393507 -24.46888459584507 -9.31330370620835  0.7486672927409118 -23.70827949303693 -10.76145364931841  2.9784823108648 -20.57991978428798 -12.12843254614233  1.546061906995356 -24.15693822397001 -11.12089099728439  1.175922595980431 -23.24803362677121 -8.201351029223884  2.030647780535543 -21.03543357455475 -10.37745019418724  0.6735171940656652 -20.29548047835123 -10.41533194359618  3.162761282200582 -24.41639644842618 -10.98520312795209  3.344430658038322 -23.83414287024602 -11.80194611976169  0.5006998581971702 -23.46350154445083 -10.15223983414206  1.032194849533092 -21.81786411254116 -11.43653956929699  1.65917684716059 -20.54948114630822 -11.43636902643436  0.4025851798918739 -20.52989643567892 -9.365313111502706  2.39864338137345 -20.76508231920046 -11.97088137903065  0.6304830569860892 -20.27778515075201 -10.70161577352109  </DataArray>
</Points>
<Cells>
<DataArray  type="UInt32"  Name="connectivity"  format="ascii">0 1 2  0 1 3  32 0 1  0 1 63  0 1 248  0 2 3  0 108 2  0 212 2  0 2 248  0 63 3  0 145 3  0 212 3  32 105 0  32 0 248  61 0 63  61 102 0  61 0 145  0 63 145  105 102 0  102 0 108  102 0 145  102 0 212  105 0 108  105 0 248  0 212 108  0 108 248  0 145 212  1 2 3  1 2 190  1 2 191  1 2 248  1 63 3  1 3 190  1 3 243  20 1 23  20 32 1  20 1 33  20 1 95  1 23 33  1 95 23  1 172 23  1 210 23  1 24 63  1 95 24  1 24 243  1 24 254  32 1 33  32 1 172  32 1 248  1 172 33  1 63 243  1 95 151  1 95 210  1 95 254  1 151 210  1 151 218  1 151 243  1 151 254  1 172 191  1 210 172  1 172 248  1 190 191  1 218 190  1 190 243  1 210 191  1 218 191  1 248 191  1 218 210  1 218 243  1 254 243  2 3 190  212 2 3  212 108 2  108 2 248  2 190 191  2 248 191  63 142 3  63 3 143  63 145 3  63 3 243  142 3 143  142 3 243  145 3 143  145 212 3  3 190 243  4 5 6  4 5 7  4 5 15  4 5 178  4 5 221  4 5 266  4 6 7  4 247 6  4 6 266  4 7 221  4 247 7  4 56 15  4 80 15  4 178 15  4 219 15  4 220 15  4 221 15  4 56 80  4 56 219  4 80 178  4 178 266  4 219 220  4 220 221  4 247 220  4 247 221  5 6 7  5 6 266  5 7 221  5 12 15  5 12 164  5 12 178  5 164 15  5 178 15  5 221 15  5 164 221  5 178 266  247 6 7  247 7 221  8 9 10  8 9 11  8 9 260  8 10 11  8 10 94  8 203 10  8 11 94  8 260 11  8 93 94  8 202 93  8 260 93  8 202 94  8 203 94  8 260 94  8 203 202  9 10 11  9 85 10  9 10 173  9 85 11  9 113 11  9 260 11  9 85 112  9 85 113  9 85 173  9 112 113  9 112 173  9 276 112  9 276 173  81 10 11  85 10 11  10 11 94  10 174 11  81 10 83  81 85 10  81 10 174  85 10 83  10 173 83  10 83 174  204 10 83  85 10 173  10 174 94  203 10 94  204 10 94  204 10 174  203 204 10  81 85 11  81 174 11  81 183 11  85 113 11  85 183 11  91 11 94  91 11 135  91 184 11  91 260 11  11 94 135  174 11 94  260 11 94  183 113 11  113 184 11  174 11 135  183 11 135  184 11 135  183 174 11  183 184 11  12 13 14  12 13 15  12 13 165  12 14 15  12 40 14  12 40 15  12 164 15  12 165 15  12 178 15  12 178 40  12 164 165  13 14 15  13 14 43  13 137 14  13 15 43  13 136 15  13 165 15  13 76 43  13 136 43  13 137 43  13 76 136  13 137 76  13 165 136  40 14 15  14 15 43  40 41 14  40 14 43  41 14 43  137 41 14  137 14 43  37 38 15  37 39 15  37 40 15  178 37 15  277 37 15  38 39 15  38 40 15  38 15 43  56 38 15  56 39 15  80 39 15  277 39 15  40 15 43  178 40 15  56 15 43  136 15 43  219 15 43  56 80 15  56 219 15  80 178 15  80 277 15  165 136 15  219 136 15  164 165 15  164 221 15  219 165 15  220 165 15  165 221 15  178 277 15  219 220 15  220 221 15  16 17 18  16 17 19  16 117 17  16 18 19  16 18 47  121 16 18  16 47 19  16 19 84  16 117 19  16 47 84  121 16 47  133 16 47  134 16 47  16 174 47  81 16 84  81 16 117  81 133 16  81 16 174  16 117 84  16 174 84  121 134 16  133 134 16  133 16 174  17 18 19  111 17 18  110 17 19  111 17 19  117 17 19  110 111 17  110 117 17  18 46 19  18 47 19  111 18 19  18 120 19  246 18 19  18 46 47  121 18 46  186 18 46  246 18 46  121 18 47  111 18 120  111 186 18  186 18 120  246 18 120  121 186 18  246 186 18  46 47 19  46 131 19  246 46 19  47 19 84  131 47 19  115 19 84  117 19 84  131 19 84  110 111 19  110 115 19  110 117 19  110 119 19  119 111 19  111 120 19  115 117 19  115 118 19  115 119 19  115 131 19  118 119 19  118 120 19  118 131 19  246 118 19  119 120 19  246 120 19  246 131 19  20 21 22  20 21 23  20 21 33  20 21 35  20 140 21  20 22 23  20 95 22  20 99 22  20 140 22  20 23 33  20 95 23  20 32 33  20 32 36  20 35 33  20 36 33  20 36 35  77 20 35  20 35 87  20 140 35  20 200 35  20 200 36  77 20 87  77 20 99  77 20 200  20 99 87  20 140 87  20 95 99  20 99 140  21 22 23  140 21 22  21 23 33  21 171 23  34 21 33  21 35 33  21 171 33  34 21 35  140 34 21  34 21 171  140 21 35  95 22 23  22 23 96  95 22 96  95 99 22  95 22 101  95 153 22  153 22 96  99 100 22  99 22 101  99 140 22  100 22 101  140 100 22  153 22 101  171 23 33  172 23 33  95 23 96  95 210 23  210 23 96  171 172 23  210 172 23  24 25 26  24 25 27  48 24 25  62 24 25  24 26 27  48 24 26  24 26 239  62 24 27  24 142 27  24 27 143  24 239 27  95 48 24  48 24 239  48 24 254  62 24 63  62 24 143  24 63 142  24 63 143  24 63 243  95 24 254  24 142 143  24 142 239  24 142 243  24 142 254  24 239 254  24 254 243  25 26 27  48 25 26  25 49 26  25 26 213  216 25 26  62 25 27  216 25 27  48 25 49  25 49 213  216 62 25  216 25 213  216 26 27  26 239 27  48 49 26  48 26 50  48 26 239  48 26 267  49 26 50  49 26 213  26 50 213  26 267 50  216 26 213  26 267 239  62 27 64  62 27 143  216 62 27  271 62 27  27 64 143  271 27 64  142 27 143  142 239 27  271 216 27  28 29 30  28 29 31  28 29 72  28 159 29  28 29 160  28 29 242  28 30 31  28 92 30  179 28 30  28 30 242  28 31 72  28 92 31  28 65 66  28 65 68  28 65 155  28 65 170  28 66 68  28 66 72  28 92 66  28 72 68  28 155 68  28 160 68  28 92 72  28 160 72  179 28 92  28 159 155  28 160 155  28 170 155  28 196 155  28 159 160  28 196 159  28 159 242  28 170 196  179 28 241  179 28 242  28 196 241  28 196 242  28 241 242  29 30 31  29 30 242  29 31 72  29 201 31  29 160 72  29 185 72  29 201 72  159 29 160  159 29 242  29 160 185  29 185 201  92 30 31  30 31 156  92 30 156  92 176 30  179 92 30  176 30 156  179 176 30  240 176 30  179 240 30  179 30 242  240 30 242  92 31 72  31 156 72  201 31 72  202 31 72  92 31 156  202 31 156  201 202 31  32 36 33  32 43 33  32 139 33  32 172 33  32 36 43  32 105 36  32 105 43  32 139 43  32 105 139  32 105 248  32 139 172  32 139 248  32 172 248  34 35 33  34 125 33  34 171 33  34 250 33  36 35 33  125 35 33  189 35 33  36 43 33  36 57 33  36 189 33  42 43 33  57 42 33  233 42 33  249 42 33  263 42 33  57 43 33  139 43 33  233 43 33  189 57 33  263 57 33  189 125 33  125 250 33  263 125 33  139 172 33  139 233 33  139 249 33  171 172 33  171 249 33  171 250 33  172 249 33  189 263 33  249 233 33  249 250 33  249 263 33  263 250 33  34 125 35  140 34 35  274 34 35  34 125 250  274 34 125  140 274 34  34 171 250  36 60 35  36 69 35  36 189 35  200 36 35  69 60 35  70 60 35  189 60 35  69 70 35  69 35 90  200 69 35  70 35 90  114 70 35  70 189 35  77 35 78  77 35 87  77 35 90  77 200 35  35 87 78  88 35 78  35 90 78  141 35 78  140 35 87  141 35 87  88 35 90  124 88 35  88 141 35  88 274 35  114 35 90  124 35 90  200 35 90  124 114 35  114 125 35  114 189 35  124 125 35  124 274 35  189 125 35  274 125 35  140 141 35  140 274 35  274 141 35  56 36 43  36 57 43  105 36 43  56 36 57  56 36 58  105 56 36  36 58 57  36 57 60  36 189 57  36 58 60  36 69 58  36 69 60  36 189 60  200 36 69  37 38 39  37 38 40  277 37 39  178 37 40  178 277 37  56 38 39  38 39 57  38 40 41  38 40 43  38 41 42  38 41 43  38 42 43  38 57 42  56 38 43  38 57 43  56 38 57  56 39 57  56 58 39  56 80 39  58 39 57  39 57 59  58 39 59  80 58 39  58 39 181  39 181 59  80 39 181  80 277 39  277 39 181  40 41 43  41 42 43  41 233 42  137 41 43  41 233 43  137 41 233  57 42 43  233 42 43  263 57 42  249 233 42  249 263 42  56 57 43  105 56 43  56 219 43  73 76 43  105 73 43  73 136 43  73 219 43  105 76 43  76 136 43  137 76 43  138 76 43  105 138 43  105 139 43  105 219 43  219 136 43  138 137 43  137 139 43  137 233 43  138 139 43  139 233 43  44 45 46  44 45 47  44 144 45  269 44 45  44 46 47  69 44 46  44 46 79  44 90 46  269 44 46  44 79 47  44 144 47  66 44 67  77 66 44  66 44 144  77 44 67  44 67 79  44 144 67  69 44 90  200 69 44  269 69 44  77 44 79  77 44 90  77 200 44  44 90 79  44 144 79  200 44 90  45 46 47  45 121 46  269 45 46  45 121 47  45 134 47  45 47 135  144 45 47  91 45 132  91 45 135  91 144 45  45 121 134  45 132 134  45 132 135  45 134 135  144 45 135  46 79 47  121 46 47  46 131 47  69 90 46  69 106 46  69 107 46  269 69 46  90 46 79  46 131 79  235 46 79  246 46 79  106 90 46  175 90 46  232 90 46  235 90 46  106 107 46  175 106 46  106 182 46  107 182 46  269 107 46  121 186 46  198 121 46  246 46 131  166 167 46  166 168 46  175 166 46  232 166 46  166 235 46  166 246 46  167 168 46  175 167 46  167 182 46  168 186 46  168 187 46  168 246 46  175 182 46  175 232 46  186 187 46  198 186 46  246 186 46  198 187 46  232 235 46  246 235 46  131 79 47  144 79 47  79 148 47  131 47 84  148 47 84  174 47 84  121 134 47  131 148 47  133 134 47  133 47 135  133 174 47  134 47 135  144 47 135  148 47 135  174 47 135  144 148 47  174 148 47  48 49 50  48 49 51  48 228 49  48 50 51  48 50 192  48 50 211  48 267 50  48 51 211  48 228 51  95 48 152  95 48 192  95 214 48  95 48 254  48 192 152  48 254 152  48 267 152  48 192 211  214 48 192  48 267 192  214 48 211  48 228 211  214 48 228  48 239 254  48 267 239  48 267 254  49 50 51  49 50 213  49 50 237  228 49 51  49 51 237  49 237 213  228 49 237  238 228 49  238 49 237  50 51 211  50 51 237  50 192 211  267 50 192  50 237 213  54 51 211  228 54 51  54 51 230  228 51 211  228 51 230  228 51 237  51 230 237  52 53 54  52 53 55  52 53 273  52 54 55  170 52 54  229 52 54  52 154 55  52 55 155  170 52 55  52 273 55  52 154 155  52 154 206  52 273 154  170 52 155  52 205 155  52 206 155  244 52 155  170 229 52  170 244 52  52 205 206  244 52 205  229 244 52  53 54 55  53 54 211  53 211 55  53 252 55  53 265 55  53 273 55  53 265 211  53 265 252  53 273 252  170 54 55  54 211 55  228 54 55  170 228 54  170 229 54  228 54 211  228 229 54  228 54 230  229 54 230  65 55 155  65 55 163  65 170 55  65 214 55  154 55 155  154 225 55  251 154 55  273 154 55  55 163 155  170 55 155  225 55 155  214 55 163  225 55 163  251 55 163  253 55 163  170 214 55  170 228 55  214 211 55  228 211 55  265 211 55  214 215 55  214 228 55  214 253 55  214 265 55  215 252 55  215 253 55  265 215 55  251 225 55  251 252 55  251 253 55  273 251 55  252 253 55  265 252 55  273 252 55  56 58 57  56 80 58  105 56 219  58 57 59  58 57 60  57 59 60  189 57 60  189 263 57  58 59 60  58 71 59  58 181 59  69 58 60  58 71 60  69 58 71  69 180 58  180 58 71  58 181 71  80 180 58  80 58 181  180 58 181  71 59 60  181 71 59  69 70 60  69 71 60  70 71 60  70 189 60  61 62 63  61 62 64  61 63 64  61 63 145  61 64 145  61 272 64  127 61 102  61 102 128  61 102 145  127 61 128  127 61 272  61 128 145  61 128 272  61 272 145  62 63 64  62 63 143  62 64 143  271 62 64  271 216 62  63 64 143  63 64 145  63 142 143  63 142 243  63 145 143  64 145 143  272 64 145  65 66 67  65 66 68  77 65 66  65 67 68  77 65 67  65 67 163  65 155 68  65 163 68  77 65 99  77 65 163  65 99 163  65 214 99  65 163 155  65 170 155  65 214 163  65 170 214  66 67 68  77 66 67  66 144 67  66 67 148  66 72 68  66 68 148  92 66 72  66 94 72  66 72 148  92 66 94  92 66 144  66 144 94  66 94 148  66 144 148  147 67 68  67 68 148  150 67 68  67 163 68  217 67 68  77 78 67  77 67 79  77 87 67  77 67 163  78 67 79  86 78 67  87 78 67  177 78 67  130 67 79  144 67 79  67 79 148  158 67 79  177 67 79  86 87 67  150 86 67  158 86 67  177 86 67  217 86 67  87 67 163  217 87 67  130 67 148  149 130 67  158 130 67  144 67 148  147 67 148  149 147 67  150 147 67  149 67 148  150 149 67  158 149 67  158 150 67  150 217 67  158 177 67  217 67 163  147 72 68  72 68 148  160 72 68  185 72 68  147 68 148  150 147 68  185 147 68  261 147 68  150 217 68  150 261 68  160 155 68  163 155 68  209 155 68  225 155 68  160 185 68  160 209 68  217 163 68  225 163 68  185 209 68  185 261 68  225 209 68  261 209 68  217 225 68  217 261 68  225 261 68  69 70 71  69 70 90  69 70 106  69 70 109  69 109 71  69 180 71  69 106 90  200 69 90  69 106 107  69 106 109  69 109 107  69 180 107  269 69 107  69 180 109  269 69 180  70 109 71  70 106 90  114 70 90  70 199 90  227 70 90  70 106 109  70 199 106  114 70 189  114 227 70  227 70 199  180 109 71  109 275 71  180 181 71  180 275 71  92 93 72  92 94 72  92 156 72  93 94 72  156 93 72  202 93 72  146 94 72  94 72 148  202 94 72  203 94 72  146 147 72  146 72 148  169 146 72  203 146 72  147 72 148  169 147 72  185 147 72  202 156 72  160 185 72  185 169 72  169 201 72  169 203 72  185 201 72  201 202 72  201 203 72  203 202 72  73 74 75  73 74 76  73 74 136  73 226 74  73 75 76  73 102 75  105 73 75  73 75 257  105 73 76  73 76 136  105 73 102  73 127 102  73 102 257  105 73 219  73 127 257  73 219 136  73 226 136  73 219 220  73 219 226  73 220 226  74 75 76  74 76 136  226 74 136  75 104 76  105 75 76  102 75 103  102 75 104  105 102 75  102 75 257  75 103 104  75 103 257  105 75 104  105 104 76  138 104 76  105 138 76  138 137 76  77 78 79  77 87 78  77 90 78  77 90 79  77 99 87  77 87 163  77 200 90  77 99 163  90 78 79  177 78 79  188 78 79  235 78 79  86 87 78  98 86 78  177 86 78  97 87 78  98 87 78  141 87 78  88 89 78  88 90 78  88 141 78  89 90 78  141 89 78  89 188 78  89 235 78  236 89 78  235 90 78  97 98 78  97 141 78  97 236 78  177 98 78  236 98 78  236 141 78  177 188 78  177 236 78  188 235 78  236 188 78  235 90 79  130 131 79  130 79 148  157 130 79  158 130 79  131 79 148  157 131 79  234 131 79  246 131 79  144 79 148  157 158 79  157 177 79  157 188 79  157 234 79  158 177 79  177 188 79  188 234 79  188 235 79  235 234 79  246 234 79  246 235 79  80 178 277  80 180 181  80 277 181  81 82 83  81 82 84  81 85 82  81 82 117  81 83 84  81 85 83  81 83 174  81 117 84  81 174 84  81 85 183  81 133 174  81 183 133  81 183 174  82 83 84  85 82 83  82 116 83  82 173 83  82 116 84  82 117 84  85 82 173  85 82 258  82 110 116  82 110 117  82 116 117  82 173 258  116 83 84  129 83 84  83 174 84  204 83 84  85 173 83  116 129 83  204 129 83  204 83 174  115 116 84  115 117 84  115 129 84  115 130 84  115 131 84  116 117 84  116 129 84  129 130 84  129 148 84  204 129 84  130 131 84  130 148 84  131 148 84  174 148 84  204 148 84  204 174 84  85 112 113  85 112 173  85 112 258  85 183 113  85 173 258  98 86 87  217 86 87  224 86 87  177 98 86  98 224 86  158 150 86  150 217 86  158 177 86  224 217 86  97 98 87  97 140 87  97 141 87  97 222 87  222 98 87  98 224 87  99 100 87  99 140 87  99 162 87  99 87 163  140 100 87  100 162 87  222 100 87  140 141 87  222 140 87  162 87 163  222 162 87  224 162 87  217 87 163  224 87 163  224 217 87  222 224 87  88 89 90  88 141 89  88 231 89  124 88 90  88 231 90  124 88 231  124 88 274  88 274 141  231 89 90  89 235 90  236 141 89  89 188 235  236 89 188  231 89 235  175 106 90  199 106 90  124 114 90  114 227 90  124 227 90  124 231 90  175 199 90  175 232 90  227 199 90  232 199 90  227 231 90  227 232 90  231 232 90  231 235 90  232 235 90  91 92 93  91 92 94  91 92 144  91 223 92  91 93 94  91 223 93  91 260 93  91 94 135  91 144 94  91 260 94  91 132 135  91 132 184  91 144 135  91 184 135  92 93 94  92 156 93  223 92 93  92 144 94  92 176 156  223 92 156  179 92 176  223 92 176  179 223 92  202 93 94  260 93 94  202 156 93  223 156 93  144 94 135  94 148 135  174 94 135  144 94 148  146 94 148  203 146 94  204 146 94  174 94 148  204 94 148  204 174 94  203 202 94  203 204 94  95 151 96  95 153 96  95 210 96  95 99 101  95 214 99  95 153 101  95 214 101  95 215 101  95 151 152  95 151 153  95 151 210  95 151 254  95 152 153  95 192 152  95 193 152  95 254 152  95 193 153  95 215 153  95 192 193  95 214 192  95 214 193  95 193 215  95 214 215  151 153 96  151 210 96  97 222 98  97 236 98  97 140 141  97 222 140  97 236 141  177 236 98  222 98 224  99 100 101  99 140 100  99 100 162  99 101 162  214 99 101  99 253 101  99 162 163  99 253 162  214 99 163  99 253 163  214 99 253  100 101 162  222 140 100  222 100 162  215 153 101  253 101 162  214 215 101  214 253 101  215 253 101  102 103 104  127 102 103  102 128 103  102 103 257  105 102 104  102 104 108  102 128 104  102 104 212  105 102 108  102 212 108  127 102 128  127 102 257  102 128 145  102 128 212  102 145 212  128 103 104  127 128 103  127 207 103  127 103 257  128 207 103  207 103 257  105 104 108  105 138 104  138 104 108  104 212 108  128 104 212  105 138 108  105 108 248  105 138 139  105 138 248  105 139 248  106 109 107  106 107 182  175 106 182  175 199 106  180 109 107  109 107 275  269 180 107  180 107 275  138 108 248  180 109 275  110 119 111  110 122 111  110 115 116  110 115 117  110 115 119  110 116 117  110 116 119  110 119 122  119 111 120  119 122 111  122 111 120  111 123 120  111 186 120  122 111 123  111 123 186  112 173 258  276 112 173  183 113 184  124 114 125  124 114 227  114 189 125  115 116 117  115 116 119  115 116 129  115 118 119  115 118 131  157 115 118  115 129 130  115 130 131  157 115 130  157 115 131  118 119 120  246 118 120  157 118 131  118 234 131  246 118 131  157 118 234  246 118 234  119 122 120  119 126 120  119 122 126  122 123 120  122 126 120  126 123 120  168 123 120  123 186 120  168 126 120  168 186 120  168 246 120  246 186 120  198 121 186  122 126 123  270 122 123  270 122 126  168 126 123  270 126 123  168 123 186  168 123 187  270 168 123  123 186 187  124 274 125  124 227 231  189 263 125  263 125 250  270 168 126  278 168 126  278 270 126  127 128 207  127 128 272  127 207 257  127 272 207  128 145 212  128 272 145  128 272 207  129 130 148  149 129 130  149 129 148  204 129 148  149 204 129  130 131 148  157 130 131  149 130 148  158 149 130  157 158 130  157 234 131  246 234 131  132 133 134  132 133 135  183 132 133  132 134 135  183 132 135  132 184 135  183 132 184  133 134 135  133 174 135  183 133 135  183 133 174  144 148 135  174 148 135  183 174 135  183 184 135  219 165 136  165 226 136  219 226 136  138 137 139  137 139 233  138 139 248  139 172 248  139 172 249  139 249 233  140 274 141  142 239 254  142 254 243  146 147 148  149 146 147  169 146 147  149 146 148  204 146 148  149 204 146  169 203 146  203 204 146  149 147 148  150 149 147  150 261 147  185 169 147  185 261 147  149 204 148  204 174 148  158 150 149  150 217 261  151 152 153  151 254 152  151 218 210  151 218 243  151 254 243  193 152 153  192 193 152  267 192 152  267 254 152  193 215 153  154 206 155  154 209 155  154 225 155  154 206 209  154 225 209  251 154 225  273 251 154  159 160 155  159 161 155  196 159 155  205 159 155  159 208 155  160 161 155  160 209 155  205 161 155  206 161 155  209 161 155  225 163 155  170 196 155  170 244 155  196 208 155  196 244 155  205 206 155  205 208 155  244 205 155  206 209 155  244 208 155  225 209 155  223 176 156  157 158 177  157 177 188  157 188 234  159 160 161  205 159 161  196 159 208  196 159 242  196 159 259  205 159 208  159 208 259  159 242 259  160 209 161  160 185 209  205 206 161  206 209 161  224 162 163  253 162 163  255 162 163  222 224 162  224 255 162  255 253 162  214 253 163  224 217 163  217 225 163  255 217 163  224 255 163  251 225 163  255 225 163  251 253 163  251 255 163  255 253 163  164 165 221  219 220 165  219 165 226  220 165 221  220 165 226  165 226 221  166 167 168  175 166 167  166 168 246  175 232 166  232 166 235  166 246 235  175 167 182  168 186 187  168 246 186  278 270 168  185 169 201  169 201 203  195 170 196  195 170 228  195 170 229  195 170 244  170 196 244  170 214 228  170 228 229  170 229 244  171 172 249  171 249 250  210 172 191  172 248 191  175 232 199  179 223 176  179 240 176  177 236 188  179 240 241  179 240 242  245 179 240  179 241 242  245 179 241  185 261 209  198 186 187  188 235 234  218 190 191  218 190 243  218 210 191  214 192 193  192 265 193  214 192 211  192 265 211  214 192 265  214 193 215  214 265 193  265 193 215  194 195 196  194 195 197  194 195 256  262 194 195  194 196 197  194 196 208  194 196 256  194 196 259  194 197 259  194 268 197  194 256 208  194 208 259  262 194 256  194 268 259  195 196 197  195 196 244  195 196 256  195 228 229  195 238 228  195 238 229  195 229 244  195 229 256  262 195 229  264 195 229  264 195 238  195 244 256  262 195 256  264 262 195  196 197 241  196 197 259  196 244 208  196 256 208  196 208 259  196 241 242  196 241 259  196 242 259  196 244 256  197 241 259  268 197 241  268 197 259  227 232 199  201 203 202  244 205 208  244 256 208  225 261 209  214 228 211  214 265 211  214 215 253  214 265 215  215 252 253  265 215 252  224 255 217  255 217 225  217 225 261  219 220 226  220 226 221  247 220 221  251 255 225  227 231 232  228 229 230  238 228 229  228 230 237  238 228 230  238 228 237  238 229 230  264 229 230  264 238 229  229 244 256  262 229 256  264 262 229  238 230 237  264 230 237  264 238 230  231 232 235  246 235 234  264 238 237  267 239 254  240 241 242  245 240 241  268 240 241  268 240 242  241 242 259  268 241 242  268 241 259  268 242 259  249 263 250  251 252 253  273 251 252  251 255 253  </DataArray>
<DataArray  type="UInt32"  Name="offsets"  format="ascii">3 6 9 12 15 18 21 24 27 30 33 36 39 42 45 48 51 54 57 60 63 66 69 72 75 78 81 84 87 90 93 96 99 102 105 108 111 114 117 120 123 126 129 132 135 138 141 144 147 150 153 156 159 162 165 168 171 174 177 180 183 186 189 192 195 198 201 204 207 210 213 216 219 222 225 228 231 234 237 240 243 246 249 252 255 258 261 264 267 270 273 276 279 282 285 288 291 294 297 300 303 306 309 312 315 318 321 324 327 330 333 336 339 342 345 348 351 354 357 360 363 366 369 372 375 378 381 384 387 390 393 396 399 402 405 408 411 414 417 420 423 426 429 432 435 438 441 444 447 450 453 456 459 462 465 468 471 474 477 480 483 486 489 492 495 498 501 504 507 510 513 516 519 522 525 528 531 534 537 540 543 546 549 552 555 558 561 564 567 570 573 576 579 582 585 588 591 594 597 600 603 606 609 612 615 618 621 624 627 630 633 636 639 642 645 648 651 654 657 660 663 666 669 672 675 678 681 684 687 690 693 696 699 702 705 708 711 714 717 720 723 726 729 732 735 738 741 744 747 750 753 756 759 762 765 768 771 774 777 780 783 786 789 792 795 798 801 804 807 810 813 816 819 822 825 828 831 834 837 840 843 846 849 852 855 858 861 864 867 870 873 876 879 882 885 888 891 894 897 900 903 906 909 912 915 918 921 924 927 930 933 936 939 942 945 948 951 954 957 960 963 966 969 972 975 978 981 984 987 990 993 996 999 1002 1005 1008 1011 1014 1017 1020 1023 1026 1029 1032 1035 1038 1041 1044 1047 1050 1053 1056 1059 1062 1065 1068 1071 1074 1077 1080 1083 1086 1089 1092 1095 1098 1101 1104 1107 1110 1113 1116 1119 1122 1125 1128 1131 1134 1137 1140 1143 1146 1149 1152 1155 1158 1161 1164 1167 1170 1173 1176 1179 1182 1185 1188 1191 1194 1197 1200 1203 1206 1209 1212 1215 1218 1221 1224 1227 1230 1233 1236 1239 1242 1245 1248 1251 1254 1257 1260 1263 1266 1269 1272 1275 1278 1281 1284 1287 1290 1293 1296 1299 1302 1305 1308 1311 1314 1317 1320 1323 1326 1329 1332 1335 1338 1341 1344 1347 1350 1353 1356 1359 1362 1365 1368 1371 1374 1377 1380 1383 1386 1389 1392 1395 1398 1401 1404 1407 1410 1413 1416 1419 1422 1425 1428 1431 1434 1437 1440 1443 1446 1449 1452 1455 1458 1461 1464 1467 1470 1473 1476 1479 1482 1485 1488 1491 1494 1497 1500 1503 1506 1509 1512 1515 1518 1521 1524 1527 1530 1533 1536 1539 1542 1545 1548 1551 1554 1557 1560 1563 1566 1569 1572 1575 1578 1581 1584 1587 1590 1593 1596 1599 1602 1605 1608 1611 1614 1617 1620 1623 1626 1629 1632 1635 1638 1641 1644 1647 1650 1653 1656 1659 1662 1665 1668 1671 1674 1677 1680 1683 1686 1689 1692 1695 1698 1701 1704 1707 1710 1713 1716 1719 1722 1725 1728 1731 1734 1737 1740 1743 1746 1749 1752 1755 1758 1761 1764 1767 1770 1773 1776 1779 1782 1785 1788 1791 1794 1797 1800 1803 1806 1809 1812 1815 1818 1821 1824 1827 1830 1833 1836 1839 1842 1845 1848 1851 1854 1857 1860 1863 1866 1869 1872 1875 1878 1881 1884 1887 1890 1893 1896 1899 1902 1905 1908 1911 1914 1917 1920 1923 1926 1929 1932 1935 1938 1941 1944 1947 1950 1953 1956 1959 1962 1965 1968 1971 1974 1977 1980 1983 1986 1989 1992 1995 1998 2001 2004 2007 2010 2013 2016 2019 2022 2025 2028 2031 2034 2037 2040 2043 2046 2049 2052 2055 2058 2061 2064 2067 2070 2073 2076 2079 2082 2085 2088 2091 2094 2097 2100 2103 2106 2109 2112 2115 2118 2121 2124 2127 2130 2133 2136 2139 2142 2145 2148 2151 2154 2157 2160 2163 2166 2169 2172 2175 2178 2181 2184 2187 2190 2193 2196 2199 2202 2205 2208 2211 2214 2217 2220 2223 2226 2229 2232 2235 2238 2241 2244 2247 2250 2253 2256 2259 2262 2265 2268 2271 2274 2277 2280 2283 2286 2289 2292 2295 2298 2301 2304 2307 2310 2313 2316 2319 2322 2325 2328 2331 2334 2337 2340 2343 2346 2349 2352 2355 2358 2361 2364 2367 2370 2373 2376 2379 2382 2385 2388 2391 2394 2397 2400 2403 2406 2409 2412 2415 2418 2421 2424 2427 2430 2433 2436 2439 2442 2445 2448 2451 2454 2457 2460 2463 2466 2469 2472 2475 2478 2481 2484 2487 2490 2493 2496 2499 2502 2505 2508 2511 2514 2517 2520 2523 2526 2529 2532 2535 2538 2541 2544 2547 2550 2553 2556 2559 2562 2565 2568 2571 2574 2577 2580 2583 2586 2589 2592 2595 2598 2601 2604 2607 2610 2613 2616 2619 2622 2625 2628 2631 2634 2637 2640 2643 2646 2649 2652 2655 2658 2661 2664 2667 2670 2673 2676 2679 2682 2685 2688 2691 2694 2697 2700 2703 2706 2709 2712 2715 2718 2721 2724 2727 2730 2733 2736 2739 2742 2745 2748 2751 2754 2757 2760 2763 2766 2769 2772 2775 2778 2781 2784 2787 2790 2793 2796 2799 2802 2805 2808 2811 2814 2817 2820 2823 2826 2829 2832 2835 2838 2841 2844 2847 2850 2853 2856 2859 2862 2865 2868 2871 2874 2877 2880 2883 2886 2889 2892 2895 2898 2901 2904 2907 2910 2913 2916 2919 2922 2925 2928 2931 2934 2937 2940 2943 2946 2949 2952 2955 2958 2961 2964 2967 2970 2973 2976 2979 2982 2985 2988 2991 2994 2997 3000 3003 3006 3009 3012 3015 3018 3021 3024 3027 3030 3033 3036 3039 3042 3045 3048 3051 3054 3057 3060 3063 3066 3069 3072 3075 3078 3081 3084 3087 3090 3093 3096 3099 3102 3105 3108 3111 3114 3117 3120 3123 3126 3129 3132 3135 3138 3141 3144 3147 3150 3153 3156 3159 3162 3165 3168 3171 3174 3177 3180 3183 3186 3189 3192 3195 3198 3201 3204 3207 3210 3213 3216 3219 3222 3225 3228 3231 3234 3237 3240 3243 3246 3249 3252 3255 3258 3261 3264 3267 3270 3273 3276 3279 3282 3285 3288 3291 3294 3297 3300 3303 3306 3309 3312 3315 3318 3321 3324 3327 3330 3333 3336 3339 3342 3345 3348 3351 3354 3357 3360 3363 3366 3369 3372 3375 3378 3381 3384 3387 3390 3393 3396 3399 3402 3405 3408 3411 3414 3417 3420 3423 3426 3429 3432 3435 3438 3441 3444 3447 3450 3453 3456 3459 3462 3465 3468 3471 3474 3477 3480 3483 3486 3489 3492 3495 3498 3501 3504 3507 3510 3513 3516 3519 3522 3525 3528 3531 3534 3537 3540 3543 3546 3549 3552 3555 3558 3561 3564 3567 3570 3573 3576 3579 3582 3585 3588 3591 3594 3597 3600 3603 3606 3609 3612 3615 3618 3621 3624 3627 3630 3633 3636 3639 3642 3645 3648 3651 3654 3657 3660 3663 3666 3669 3672 3675 3678 3681 3684 3687 3690 3693 3696 3699 3702 3705 3708 3711 3714 3717 3720 3723 3726 3729 3732 3735 3738 3741 3744 3747 3750 3753 3756 3759 3762 3765 3768 3771 3774 3777 3780 3783 3786 3789 3792 3795 3798 3801 3804 3807 3810 3813 3816 3819 3822 3825 3828 3831 3834 3837 3840 3843 3846 3849 3852 3855 3858 3861 3864 3867 3870 3873 3876 3879 3882 3885 3888 3891 3894 3897 3900 3903 3906 3909 3912 3915 3918 3921 3924 3927 3930 3933 3936 3939 3942 3945 3948 3951 3954 3957 3960 3963 3966 3969 3972 3975 3978 3981 3984 3987 3990 3993 3996 3999 4002 4005 4008 4011 4014 4017 4020 4023 4026 4029 4032 4035 4038 4041 4044 4047 4050 4053 4056 4059 4062 4065 4068 4071 4074 4077 4080 4083 4086 4089 4092 4095 4098 4101 4104 4107 4110 4113 4116 4119 4122 4125 4128 4131 4134 4137 4140 4143 4146 4149 4152 4155 4158 4161 4164 4167 4170 4173 4176 4179 4182 4185 4188 4191 4194 4197 4200 4203 4206 4209 4212 4215 4218 4221 4224 4227 4230 4233 4236 4239 4242 4245 4248 4251 4254 4257 4260 4263 4266 4269 4272 4275 4278 4281 4284 4287 4290 4293 4296 4299 4302 4305 4308 4311 4314 4317 4320 4323 4326 4329 4332 4335 4338 4341 4344 4347 4350 4353 4356 4359 4362 4365 4368 4371 4374 4377 4380 4383 4386 4389 4392 4395 4398 4401 4404 4407 4410 4413 4416 4419 4422 4425 4428 4431 4434 4437 4440 4443 4446 4449 4452 4455 4458 4461 4464 4467 4470 4473 4476 4479 4482 4485 4488 4491 4494 4497 4500 4503 4506 4509 4512 4515 4518 4521 4524 4527 4530 4533 4536 4539 4542 4545 4548 4551 4554 4557 4560 4563 4566 4569 4572 4575 4578 4581 4584 4587 4590 4593 4596 4599 4602 4605 4608 4611 4614 4617 4620 4623 4626 4629 4632 4635 4638 4641 4644 4647 4650 4653 4656 4659 4662 4665 4668 4671 4674 4677 4680 4683 4686 4689 4692 4695 4698 4701 4704 4707 4710 4713 4716 4719 4722 4725 4728 4731 4734 4737 4740 4743 4746 4749 4752 4755 4758 4761 4764 4767 4770 4773 4776 4779 4782 4785 4788 4791 4794 4797 4800 4803 4806 4809 4812 4815 4818 4821 4824 4827 4830 4833 4836 4839 4842 4845 4848 4851 4854 4857 4860 4863 4866 4869 4872 4875 4878 4881 4884 4887 4890 4893 4896 4899 4902 4905 4908 4911 4914 4917 4920 4923 4926 4929 4932 4935 4938 4941 4944 4947 4950 4953 4956 4959 4962 4965 4968 4971 4974 4977 4980 4983 4986 4989 4992 4995 4998 5001 5004 5007 5010 5013 5016 5019 5022 5025 5028 5031 5034 5037 5040 5043 5046 5049 5052 5055 5058 5061 5064 5067 5070 5073 5076 5079 5082 5085 5088 5091 5094 5097 5100 5103 5106 5109 5112 5115 5118 5121 5124 5127 5130 5133 5136 5139 5142 5145 5148 5151 5154 5157 5160 5163 5166 5169 5172 5175 5178 5181 5184 5187 5190 5193 5196 5199 5202 5205 5208 5211 5214 5217 5220 5223 5226 5229 5232 5235 5238 5241 5244 5247 5250 5253 5256 5259 5262 5265 5268 5271 5274 5277 5280 5283 5286 5289 5292 5295 5298 5301 5304 5307 5310 5313 5316 5319 5322 5325 5328 5331 </DataArray>
<DataArray  type="UInt8"  Name="types"  format="ascii">5 5 5 5 5 5 5 5 5 5 5 5 5 5 5 5 5 5 5 5 5 5 5 5 5 5 5 5 5 5 5 5 5 5 5 5 5 5 5 5 5 5 5 5 5 5 5 5 5 5 5 5 5 5 5 5 5 5 5 5 5 5 5 5 5 5 5 5 5 5 5 5 5 5 5 5 5 5 5 5 5 5 5 5 5 5 5 5 5 5 5 5 5 5 5 5 5 5 5 5 5 5 5 5 5 5 5 5 5 5 5 5 5 5 5 5 5 5 5 5 5 5 5 5 5 5 5 5 5 5 5 5 5 5 5 5 5 5 5 5 5 5 5 5 5 5 5 5 5 5 5 5 5 5 5 5 5 5 5 5 5 5 5 5 5 5 5 5 5 5 5 5 5 5 5 5 5 5 5 5 5 5 5 5 5 5 5 5 5 5 5 5 5 5 5 5 5 5 5 5 5 5 5 5 5 5 5 5 5 5 5 5 5 5 5 5 5 5 5 5 5 5 5 5 5 5 5 5 5 5 5 5 5 5 5 5 5 5 5 5 5 5 5 5 5 5 5 5 5 5 5 5 5 5 5 5 5 5 5 5 5 5 5 5 5 5 5 5 5 5 5 5 5 5 5 5 5 5 5 5 5 5 5 5 5 5 5 5 5 5 5 5 5 5 5 5 5 5 5 5 5 5 5 5 5 5 5 5 5 5 5 5 5 5 5 5 5 5 5 5 5 5 5 5 5 5 5 5 5 5 5 5 5 5 5 5 5 5 5 5 5 5 5 5 5 5 5 5 5 5 5 5 5 5 5 5 5 5 5 5 5 5 5 5 5 5 5 5 5 5 5 5 5 5 5 5 5 5 5 5 5 5 5 5 5 5 5 5 5 5 5 5 5 5 5 5 5 5 5 5 5 5 5 5 5 5 5 5 5 5 5 5 5 5 5 5 5 5 5 5 5 5 5 5 5 5 5 5 5 5 5 5 5 5 5 5 5 5 5 5 5 5 5 5 5 5 5 5 5 5 5 5 5 5 5 5 5 5 5 5 5 5 5 5 5 5 5 5 5 5 5 5 5 5 5 5 5 5 5 5 5 5 5 5 5 5 5 5 5 5 5 5 5 5 5 5 5 5 5 5 5 5 5 5 5 5 5 5 5 5 5 5 5 5 5 5 5 5 5 5 5 5 5 5 5 5 5 5 5 5 5 5 5 5 5 5 5 5 5 5 5 5 5 5 5 5 5 5 5 5 5 5 5 5 5 5 5 5 5 5 5 5 5 5 5 5 5 5 5 5 5 5 5 5 5 5 5 5 5 5 5 5 5 5 5 5 5 5 5 5 5 5 5 5 5 5 5 5 5 5 5 5 5 5 5 5 5 5 5 5 5 5 5 5 5 5 5 5 5 5 5 5 5 5 5 5 5 5 5 5 5 5 5 5 5 5 5 5 5 5 5 5 5 5 5 5 5 5 5 5 5 5 5 5 5 5 5 5 5 5 5 5 5 5 5 5 5 5 5 5 5 5 5 5 5 5 5 5 5 5 5 5 5 5 5 5 5 5 5 5 5 5 5 5 5 5 5 5 5 5 5 5 5 5 5 5 5 5 5 5 5 5 5 5 5 5 5 5 5 5 5 5 5 5 5 5 5 5 5 5 5 5 5 5 5 5 5 5 5 5 5 5 5 5 5 5 5 5 5 5 5 5 5 5 5 5 5 5 5 5 5 5 5 5 5 5 5 5 5 5 5 5 5 5 5 5 5 5 5 5 5 5 5 5 5 5 5 5 5 5 5 5 5 5 5 5 5 5 5 5 5 5 5 5 5 5 5 5 5 5 5 5 5 5 5 5 5 5 5 5 5 5 5 5 5 5 5 5 5 5 5 5 5 5 5 5 5 5 5 5 5 5 5 5 5 5 5 5 5 5 5 5 5 5 5 5 5 5 5 5 5 5 5 5 5 5 5 5 5 5 5 5 5 5 5 5 5 5 5 5 5 5 5 5 5 5 5 5 5 5 5 5 5 5 5 5 5 5 5 5 5 5 5 5 5 5 5 5 5 5 5 5 5 5 5 5 5 5 5 5 5 5 5 5 5 5 5 5 5 5 5 5 5 5 5 5 5 5 5 5 5 5 5 5 5 5 5 5 5 5 5 5 5 5 5 5 5 5 5 5 5 5 5 5 5 5 5 5 5 5 5 5 5 5 5 5 5 5 5 5 5 5 5 5 5 5 5 5 5 5 5 5 5 5 5 5 5 5 5 5 5 5 5 5 5 5 5 5 5 5 5 5 5 5 5 5 5 5 5 5 5 5 5 5 5 5 5 5 5 5 5 5 5 5 5 5 5 5 5 5 5 5 5 5 5 5 5 5 5 5 5 5 5 5 5 5 5 5 5 5 5 5 5 5 5 5 5 5 5 5 5 5 5 5 5 5 5 5 5 5 5 5 5 5 5 5 5 5 5 5 5 5 5 5 5 5 5 5 5 5 5 5 5 5 5 5 5 5 5 5 5 5 5 5 5 5 5 5 5 5 5 5 5 5 5 5 5 5 5 5 5 5 5 5 5 5 5 5 5 5 5 5 5 5 5 5 5 5 5 5 5 5 5 5 5 5 5 5 5 5 5 5 5 5 5 5 5 5 5 5 5 5 5 5 5 5 5 5 5 5 5 5 5 5 5 5 5 5 5 5 5 5 5 5 5 5 5 5 5 5 5 5 5 5 5 5 5 5 5 5 5 5 5 5 5 5 5 5 5 5 5 5 5 5 5 5 5 5 5 5 5 5 5 5 5 5 5 5 5 5 5 5 5 5 5 5 5 5 5 5 5 5 5 5 5 5 5 5 5 5 5 5 5 5 5 5 5 5 5 5 5 5 5 5 5 5 5 5 5 5 5 5 5 5 5 5 5 5 5 5 5 5 5 5 5 5 5 5 5 5 5 5 5 5 5 5 5 5 5 5 5 5 5 5 5 5 5 5 5 5 5 5 5 5 5 5 5 5 5 5 5 5 5 5 5 5 5 5 5 5 5 5 5 5 5 5 5 5 5 5 5 5 5 5 5 5 5 5 5 5 5 5 5 5 5 5 5 5 5 5 5 5 5 5 5 5 5 5 5 5 5 5 5 5 5 5 5 5 5 5 5 5 5 5 5 5 5 5 5 5 5 5 5 5 5 5 5 5 5 5 5 5 5 5 5 5 5 5 5 5 5 5 5 5 5 5 5 5 5 5 5 5 5 5 5 5 5 5 5 5 5 5 5 5 5 5 5 5 5 5 5 5 5 5 5 5 5 5 5 5 5 5 5 5 5 5 5 5 5 5 5 5 5 5 5 5 5 5 5 5 5 5 5 5 5 5 5 5 5 5 5 5 5 5 5 5 5 5 5 5 5 5 5 5 5 5 5 5 5 5 5 5 5 5 5 5 5 5 5 5 5 5 5 5 5 5 5 5 5 5 5 5 5 5 5 5 5 5 5 5 5 5 5 5 5 5 5 5 5 5 5 5 5 5 5 5 5 5 5 5 5 5 5 5 5 5 5 5 5 5 5 5 5 5 5 5 5 5 5 5 5 5 5 5 5 5 5 5 5 5 5 5 5 5 5 5 5 5 5 5 5 5 5 5 5 5 5 5 5 5 5 5 5 5 5 5 5 5 5 5 5 5 5 5 5 5 5 5 5 5 5 5 5 5 5 5 5 5 5 5 5 5 5 5 5 5 5 5 5 5 5 5 5 5 5 5 5 5 5 5 5 5 5 5 5 5 5 5 5 5 5 5 5 5 5 5 5 5 5 5 5 5 5 5 5 5 5 5 5 5 5 5 5 5 5 5 5 5 5 5 5 5 5 5 5 5 5 5 5 5 5 5 5 5 5 5 5 5 5 5 5 5 5 5 5 5 5 5 5 5 5 5 5 5 5 5 5 5 5 5 5 5 5 5 5 5 5 5 5 5 5 5 5 5 5 5 5 5 5 5 5 5 5 5 5 5 5 5 5 5 5 5 5 5 5 5 5 </DataArray>
</Cells>
<CellData  Scalars="f">
<DataArray  type="Float64"  Name="f"  format="ascii">0 0 1 1 0 0 0 0 0 0 0 0 1 0 1 1 0 0 1 0 0 0 0 0 0 0 0 0 0 0 0 0 0 0 0 1 0 1 0 0 0 0 1 1 0 0 0 0 0 0 0 0 0 0 0 0 0 0 0 0 0 0 0 0 0 0 0 0 0 0 3 3 3 3 3 3 0 0 0 0 3 3 3 3 3 0 0 0 0 0 0 0 0 0 0 0 0 0 0 0 0 0 1 1 0 0 1 0 1 0 3 3 3 0 3 3 0 0 0 3 3 0 0 5 0 5 0 0 5 0 0 0 3 3 0 0 0 3 0 0 5 0 0 0 0 0 0 0 0 0 5 0 0 0 0 0 0 0 0 5 0 5 0 0 0 0 0 5 0 0 0 0 0 0 0 0 0 0 0 0 0 0 0 0 0 0 0 3 0 3 0 3 0 0 0 0 3 3 0 0 3 0 0 0 0 0 0 3 3 3 0 0 3 0 0 3 0 0 0 0 0 0 0 0 0 0 0 0 0 0 0 0 0 0 0 0 0 0 0 0 0 0 0 0 0 0 0 0 6 0 6 0 0 6 0 0 0 0 0 0 0 0 0 6 6 0 0 0 6 6 0 0 6 0 0 0 6 6 0 0 0 0 0 0 0 0 0 0 0 6 0 0 6 0 0 0 0 0 0 0 0 0 0 0 0 0 0 0 0 0 0 0 0 0 0 0 0 0 0 0 0 0 0 0 0 0 0 0 0 0 0 1 0 0 0 0 0 0 0 2 0 2 2 0 0 1 0 3 3 0 3 0 0 0 0 3 3 0 0 3 0 0 0 0 3 0 0 0 3 3 3 0 0 0 0 3 3 3 0 0 1 1 0 0 0 0 0 0 0 1 0 0 1 0 0 0 0 0 0 0 0 0 0 0 0 0 0 0 0 0 0 1 0 0 0 3 3 0 0 0 0 0 0 3 3 3 3 0 0 0 0 3 3 3 3 3 0 0 0 0 0 0 0 0 0 0 0 0 2 0 0 1 0 0 2 0 0 0 0 0 2 0 0 0 0 0 0 0 1 1 0 1 0 0 3 3 0 3 0 0 0 3 3 3 3 0 3 0 0 0 3 0 3 0 0 3 0 0 0 0 0 3 3 0 0 0 0 0 1 0 0 0 0 0 0 0 0 0 0 0 0 0 0 0 0 0 0 0 0 0 0 0 0 0 0 0 0 0 0 0 0 0 0 0 0 0 0 0 0 0 0 0 0 0 3 3 3 3 0 0 0 0 0 0 0 0 0 0 0 0 0 0 0 0 0 0 0 0 0 0 0 0 0 0 0 0 0 0 0 0 0 0 0 0 0 0 0 0 0 0 0 0 1 1 0 0 0 0 2 0 0 2 3 3 3 3 3 0 3 3 0 3 0 0 3 0 0 0 0 0 0 0 3 0 0 0 3 0 0 3 0 0 3 0 0 3 0 0 3 3 3 0 0 0 0 0 0 0 0 0 0 0 0 0 0 0 0 0 0 0 0 0 0 2 2 0 0 0 0 0 0 0 0 2 2 0 0 0 0 2 2 0 0 2 0 0 0 0 0 0 0 0 0 0 0 0 2 0 0 0 0 0 0 0 0 0 0 0 0 0 0 0 0 0 0 0 0 0 0 0 0 0 0 0 0 0 0 0 0 0 0 0 0 0 0 0 0 0 0 0 0 0 0 0 0 0 0 0 0 0 0 0 0 0 0 0 0 0 0 0 0 0 0 0 1 0 0 0 0 0 0 0 0 1 0 0 0 0 0 0 0 0 0 1 0 0 0 0 0 0 0 0 0 0 1 0 3 3 3 3 3 3 0 3 0 0 0 3 3 0 3 0 0 3 0 0 0 0 0 3 3 0 0 0 0 0 0 3 3 3 0 3 0 0 0 0 3 3 3 0 0 0 0 0 0 0 0 3 0 0 0 0 0 0 0 0 0 0 0 0 0 0 0 0 0 0 0 0 0 0 0 0 0 0 0 0 0 0 0 0 0 0 0 1 1 0 0 3 3 3 0 0 0 0 0 0 2 0 0 2 0 0 3 3 0 0 3 3 1 0 0 0 0 0 1 0 0 0 0 0 0 0 0 0 0 0 0 0 0 0 0 0 3 3 0 0 2 0 0 0 0 0 2 0 0 1 0 0 0 1 0 0 0 0 0 0 0 0 0 0 2 0 0 0 0 0 0 0 0 0 0 0 0 0 0 0 0 0 0 0 0 0 0 0 0 0 0 0 0 0 0 0 0 0 0 0 0 0 0 0 0 0 0 0 0 0 0 0 0 0 0 0 0 0 0 0 0 0 0 0 0 0 0 0 0 0 0 0 0 0 0 0 0 0 0 0 0 0 0 0 0 0 2 3 0 0 0 0 3 3 3 3 3 0 3 0 0 0 0 0 0 0 0 0 0 0 0 0 0 0 0 0 0 0 0 0 0 0 0 0 0 0 0 0 0 0 0 0 0 0 0 0 0 1 1 0 1 0 0 0 1 0 0 3 3 3 3 0 0 0 0 0 3 3 0 0 3 0 3 0 0 0 0 0 0 0 0 0 0 0 0 0 0 0 0 0 0 0 0 0 0 0 0 0 0 0 0 0 0 0 0 0 0 0 0 0 0 0 0 0 0 0 0 0 0 0 0 0 0 0 0 0 0 0 0 0 0 0 0 0 0 0 6 6 0 0 0 0 0 6 0 6 0 0 0 0 0 0 0 0 6 0 6 0 0 0 0 0 0 0 5 5 0 0 0 0 0 0 0 0 0 0 0 0 0 0 0 0 0 6 0 6 6 0 0 0 0 3 3 3 3 3 3 0 0 0 0 0 0 0 0 0 0 0 0 0 0 0 0 0 0 0 0 0 0 0 3 3 0 0 3 3 3 0 0 3 3 3 3 0 0 0 0 0 0 0 0 0 0 0 0 0 0 0 0 0 2 2 0 0 0 0 0 0 0 0 0 0 0 0 0 0 0 0 0 0 2 0 0 3 0 0 0 0 0 0 0 0 0 0 0 0 0 0 0 0 0 1 0 0 0 0 0 0 0 0 0 0 0 0 0 0 0 0 0 0 3 3 3 3 3 3 3 3 3 0 0 0 0 0 0 0 0 0 0 0 3 3 3 3 3 0 0 3 0 0 0 0 0 0 0 0 0 0 0 0 0 0 0 3 0 0 0 3 3 0 0 3 3 3 0 0 0 0 0 5 5 5 5 0 5 0 0 3 0 0 6 0 0 0 0 0 0 0 0 0 0 0 6 6 0 0 6 3 3 3 0 5 5 5 0 5 5 0 5 0 5 5 0 0 0 5 5 0 5 0 0 0 0 0 0 5 0 5 0 6 0 6 0 0 0 0 0 0 6 3 3 3 3 0 5 0 0 0 0 0 3 3 3 0 5 0 0 5 0 0 0 5 5 0 0 6 0 6 0 0 0 6 0 0 0 0 0 0 0 0 0 3 0 3 3 3 3 3 3 3 3 3 0 3 3 0 0 5 3 5 0 3 3 3 3 0 0 3 3 3 3 3 3 3 3 3 3 3 3 0 0 0 3 3 3 3 0 0 0 0 0 0 0 0 0 0 0 0 0 0 0 0 0 0 0 0 0 0 5 5 5 3 3 0 0 0 3 3 3 3 3 3 3 0 0 0 3 3 3 0 0 0 0 0 0 0 0 0 0 3 0 0 0 0 3 5 5 5 5 5 5 5 0 0 0 3 3 1 1 0 0 0 1 0 0 3 3 3 3 5 0 0 3 0 0 0 0 1 3 6 5 3 3 3 0 3 0 3 0 0 0 3 0 0 0 0 0 0 0 0 0 0 3 3 3 3 1 0 0 0 1 0 0 0 0 0 0 0 0 0 1 0 0 0 0 0 0 0 0 0 0 0 3 3 3 3 3 0 0 0 0 3 3 3 3 3 0 0 0 3 3 0 0 0 0 0 0 3 0 3 3 3 0 3 0 3 5 0 3 0 0 0 3 0 0 0 3 3 3 3 3 </DataArray>
</CellData>
</Piece>
</UnstructuredGrid>
</VTKFile>