<?xml version="1.0"?>
<VTKFile type="UnstructuredGrid"  version="0.1"  >
<UnstructuredGrid>
<Piece  NumberOfPoints="289" NumberOfCells="772">
<Points>
<DataArray  type="Float64"  NumberOfComponents="3"  format="ascii">2.062244522755453 -19.05104059120902 -9.737594097671145  1.752564418204553 -19.17956197045679 -9.783956197466667  1.847639823266678 -19.30257201988334 -9.906001763293739  1.758281837931008 -19.1127788074667 -9.990942102969669  0.7704150395486838 -18.11617125289167 -9.109577400937606  0.7973612461314881 -18.24854362535149 -9.081680362836158  0.8780901757395032 -18.17926670373919 -9.151636284701198  0.7278732739806927 -18.22261210935401 -9.303777232684926  0.8056396512593583 -17.94646886050169 -9.361128488288029  0.8310088770575436 -17.92960951090011 -9.29088263012309  0.7684790519680664 -17.96421236227835 -9.309009843132458  0.8544250600773067 -17.97083335179013 -9.333718832177334  1.378121827195166 -18.30440448016239 -9.874007392893901  1.456054958587924 -18.3998147781533 -9.839624191715167  1.242400509588078 -18.4772395167267 -9.871069009021404  1.42229904306884 -18.347216558512 -9.957060790055662  1.543156503650708 -18.57516060094417 -9.59906047229855  1.436860793839477 -18.56400912272973 -9.447977994452687  1.363501529317622 -18.69375143224444 -9.682001044354275  1.399632333574934 -18.78658568959764 -9.599876940594745  1.399835020194198 -18.44111559520582 -9.584445882367215  1.50942784765601 -18.48872633626797 -9.722023438320882  1.302999730349134 -18.58204309190878 -9.768035693180542  1.066288672468915 -18.41711686148936 -9.535710720743053  1.302883571183949 -18.4353161812987 -9.430048323117424  1.213170564046289 -18.31920507584206 -9.422695325276891  1.120155899468137 -18.53116795626518 -9.491070495945795  1.296149526479084 -18.35240663003584 -9.525953312976613  1.755839121954702 -19.02744388578116 -9.282575541265565  1.449840582754484 -19.10122290061892 -9.345748014548274  1.572801916478524 -19.15491618819599 -9.454755310327881  1.482728410598872 -18.99285809958063 -9.479722619784365  0.9505221312553136 -18.05351075166468 -9.66507967581704  1.099561556787353 -17.9519821679141 -9.543985032155735  1.117408887509059 -17.91973070422929 -9.624724051714129  1.13920249779764 -18.00618784733344 -9.58907257532266  1.295352200664496 -18.55658743235632 -9.282358153654354  1.180291836156054 -18.64898680966662 -9.113736618257271  1.226878559973051 -18.85758074258751 -9.31141482439277  1.142095581620758 -18.72588994988917 -9.340242972399649  1.170693552566299 -17.99531641860677 -9.697464423157015  0.9567582117331928 -17.99407581557996 -9.725760475895553  1.13520382550166 -17.89678965689295 -9.708885651318166  1.062185914583888 -17.9544486258382 -9.810828831039132  0.9854253227957855 -18.07236918674013 -9.759823491805854  0.9840623499272522 -17.9821103583599 -9.326711434706812  0.9146764116052819 -17.92470457641256 -9.330513229846533  0.8932141762689352 -17.95377646936464 -9.265146280666162  1.184488458948822 -18.40517033848969 -9.309185632578133  1.004336515350111 -18.44245940744618 -9.43122862721035  1.181584036287699 -18.64299276947731 -9.455162722503285  1.245273187609983 -18.76215335216324 -9.41100763992517  1.150231670748807 -18.48316922690178 -9.597024265486096  1.603871416879275 -19.1366475861678 -9.054480222484731  1.42783517601825 -19.23863833960067 -9.240534446613463  1.549478043234942 -19.26648063265728 -9.344842905084732  0.9846199604657517 -18.3793763913769 -9.142217961150029  0.8269345898903645 -18.38805145569247 -9.048526179064735  0.815287056835635 -18.48406696468491 -9.256805399892686  0.9898335275555543 -18.52393034325654 -9.07519476313905  1.254695976993541 -18.12278344977406 -9.849695639027798  1.061721523294165 -18.21245064948574 -9.855646266786913  1.123975705100338 -18.31207363776111 -9.897779460332547  1.267440913021753 -18.16879275167652 -9.782585468717821  1.29484582435724 -18.70409985696379 -9.540085050004597  1.42132153558984 -19.40311712497235 -8.845713702086698  1.295741159450241 -19.23382992538435 -9.146809182002249  1.376787185129725 -19.389918444512 -9.142218562718577  1.173639227687971 -19.37074302516217 -9.047447465460809  1.600487422783346 -18.7277728848609 -9.437526480632341  1.848041915061875 -18.88000568907583 -9.608826780679554  1.599588227495921 -19.08463222427737 -9.566976288502358  1.561371942685386 -18.96845592222104 -9.643707217209084  1.423707217813304 -18.80018268781249 -9.168276847349977  1.44141353866006 -18.65410646402293 -9.334985586642402  1.361463685369511 -18.85331438944046 -9.45887680725691  1.042515095214045 -17.93469665665307 -9.469766387546436  1.099757451637275 -18.00565962025685 -9.49640092185993  0.9027250688034658 -18.03976379371812 -9.56806541407286  0.7982102748250217 -18.73415244697958 -9.140376211882439  0.8064384872383674 -18.58760124290172 -8.973809597004943  0.7139530981030173 -18.60308176352615 -9.165425969775058  0.8789615946911266 -18.64105406702388 -9.214782974838945  1.035349908756748 -18.92434264884012 -8.896974435091058  1.197572623433953 -18.82165470102001 -9.00939048665602  1.297799378799654 -19.01656809796014 -8.943850169745984  1.054283159957886 -19.07709215738749 -9.086264191091642  0.9314316646905688 -17.97074360939099 -9.409567526285624  1.184079560868621 -17.92738610198923 -9.921065765146958  1.110021387356786 -17.85140280695236 -9.871879418935402  1.109310246525998 -17.86317992711698 -10.00257290810406  1.081387093943076 -17.96767336564567 -9.931986236330658  1.015374441345613 -18.71523098795357 -8.989499439959848  0.8179621372154339 -18.82738470990702 -8.891793787295416  0.7951449962440912 -18.86587421186642 -9.090504311226445  0.9290360783444301 -18.77378841165022 -9.171807318687513  1.075065302015677 -18.81815926295846 -9.223356365069412  0.9667854313189326 -18.92090010006382 -9.118024909834453  1.182147404920404 -17.92790704805616 -10.01524784571867  1.170722973636696 -17.92531561821238 -9.80360439428987  1.216718094467576 -18.02628872534798 -9.885180791105904  1.216533451929108 -18.02234559082663 -9.994159758539594  0.6568829085553304 -18.72910453464746 -9.111127930404939  0.9696386185971693 -18.18877116161638 -9.593601951236453  1.17001182274691 -18.19796972245981 -9.46263633407302  1.206593998641846 -18.16052965619876 -9.583476202141194  1.152352826208418 -18.08962129431634 -9.536409360398403  1.511704272242063 -19.39374885947807 -9.2422954411657  1.455906004493939 -19.56510447557982 -9.147662617414891  1.286207357736143 -18.51703741770421 -9.976854320540589  1.456529117044341 -18.38201275352785 -10.04659787562677  1.499266660368919 -18.42913207842119 -9.94743892211968  1.021339041596123 -18.67453071876209 -9.279821816828433  0.6889713229043737 -18.16305222510478 -9.061122875733105  0.6185210790459434 -18.24181726982865 -9.240278400254301  1.35796024478248 -18.59398103584134 -10.0161539359473  1.407813974454337 -18.67278921714856 -9.863324033084055  1.32027469370802 -18.56635949888826 -9.890319186211794  1.606440672091118 -18.57432598532607 -9.742828833691242  1.536725662425988 -18.81472456633722 -9.902130383805989  1.711636851301697 -18.64011689587267 -9.854597842920464  1.24853627590581 -18.26773169948443 -9.545226645928052  1.118335466639344 -18.38624230372976 -9.671003527345219  1.260672053726618 -18.22201982247015 -9.641352138206031  1.070515382614375 -18.30226773995868 -9.686882161331438  1.2363806542997 -18.59501407870416 -9.593876191611686  1.200963123096266 -18.48197686666874 -9.709210074872509  1.411713193583249 -18.39299849140286 -9.709136488260143  1.067877685495677 -17.85525172568015 -9.68620158953162  1.024932770187271 -17.90273748773546 -9.738979161553969  1.010675514326086 -17.91049827318406 -9.659415845790686  0.9151013801740695 -18.11760085965673 -9.548657614415379  1.808933510267241 -18.74344382891823 -9.827378182944337  1.950743911986941 -18.87409980381593 -9.921429671067145  1.698871558136643 -19.06184160643348 -9.843786216664929  1.047495569587895 -17.99473656858705 -9.404857639396594  1.037886480176767 -18.06426084171194 -9.354596522114738  0.8704946069474655 -18.08574312607394 -9.491287103634111  1.271538859301899 -18.13949000941608 -9.957955041872104  1.033235073019134 -18.13732586646728 -9.98933353144418  1.088392431795276 -18.24713696209362 -9.995138931722455  0.6410392104972495 -18.45070364564436 -8.974377633487412  0.5803145283030983 -18.56469996985124 -9.148651128840966  1.207296087595464 -18.03219754854013 -9.795280191971287  0.4986933664166776 -18.24306181939282 -9.200534139938904  0.5615836874058789 -18.10690968951613 -9.216315084897834  0.5654270617404559 -18.21203828191677 -9.120669807159745  1.013346479249177 -18.12048769634712 -9.292874928406478  0.9124789123703393 -18.25653776428087 -9.456861941157616  0.8362324794958401 -18.25000187125485 -9.377673336771002  0.849084279351369 -18.1659429602883 -9.428059931400336  0.5490976093859835 -18.3861139639153 -9.188399995006463  0.4373148894380079 -18.27636061419618 -9.087850789541099  1.069977008433372 -18.58334151405272 -9.385303125997069  0.922283890145552 -17.98008578416924 -9.636325023047787  0.979657181388557 -17.93806461236717 -9.555853729740054  1.128867346040203 -18.93856104497788 -9.18575956143389  0.4898429971319065 -18.48652889085338 -8.946860239817775  0.5049744392957038 -18.31745509681396 -8.981504807236806  0.4150653070243617 -18.36667124004402 -9.169228690630005  0.9111867732938524 -18.43569613636633 -9.345438657784946  0.8237076607155841 -18.34985412032668 -9.322719657114357  0.6551502706214466 -18.06745946978474 -9.118078866557179  0.6500476592838893 -18.11931677311524 -9.187167051848327  1.219821721235889 -18.43593678416101 -10.00781195420599  1.181971577600467 -18.39284902779015 -9.919361100472507  1.345065640449372 -18.25254886889713 -9.959037458128817  1.212219116635243 -19.08415057271433 -9.159773370900934  1.157301018304687 -19.20825402902135 -9.082150625153323  1.020326160204964 -17.86498701960076 -9.618009919132552  0.9314401082675037 -17.89805940346416 -9.590994661953209  1.044345359510581 -18.21954769753158 -9.276355375486508  0.9196101913426542 -18.34697956807757 -9.407489116630387  1.190525305583607 -18.084942731433 -9.644501362314683  0.9838164931579162 -18.13298658593914 -9.680661395150835  0.9893017343021286 -18.05056576237851 -9.299032786138895  0.820817851282464 -18.06499480687544 -9.429371458421752  0.9368920547284522 -18.00760586359333 -9.267132633210309  0.9739611947489755 -17.90733237272632 -9.446136822403224  0.9035094980262933 -17.89923766880457 -9.487228083111138  0.9178377526438196 -17.90844657738459 -9.399043407906959  0.8978294707494503 -17.96196905567408 -9.473350562503402  0.9455375621877246 -18.10869492406494 -9.612826903729678  0.9477864182351102 -17.91222349272707 -9.68530521888338  0.9992192477494876 -17.85811389347381 -9.723511532967708  1.107388274036437 -19.15967423472853 -8.825658284295704  0.9692095422471976 -19.26985979266539 -9.007856473236783  0.8204724166531577 -19.11228484741245 -8.809039759376358  0.9862035876158967 -18.33970559378547 -9.490715855182215  1.094786882524793 -18.16758857125049 -9.370350884879228  1.350372227379274 -18.9608140395331 -9.34852108400333  1.248106611723079 -18.9766051101575 -9.244057071583631  1.344019396010763 -19.08356345918225 -9.256104819953828  0.9756095547425995 -17.99233948105758 -9.83506337274261  1.22153148371018 -18.09031622939056 -9.745769396301098  1.242069857977996 -18.15786810004996 -9.69373965289175  1.093468187679622 -18.29694976404807 -9.770591411166725  1.299610846673821 -18.23868054961209 -9.736920068669427  1.912423896789551 -19.41390533447266 -9.090467071533203  1.652989660603793 -19.41908765603733 -9.371699101482267  1.781772707458251 -19.51114175346021 -9.486858940001616  1.724382828394875 -19.62835335989347 -9.349064357597319  1.595217610203857 -18.52895100936937 -9.873926985820377  0.6719864872497415 -18.28024207643989 -9.024004868060755  0.7036610049783277 -18.35722792939592 -9.249162503274979  0.9599014554566501 -18.54276526539265 -9.319733602555258  1.12923643916163 -18.48197202292131 -9.193334914658241  0.5810483296787041 -18.69022641889432 -8.908471473638457  1.012421155361999 -18.10030321549594 -9.872260922396443  1.033174593239428 -18.22310729882919 -9.707438783177247  0.9137137820851864 -18.17750376855887 -9.506013839120786  0.9610307258102978 -18.25224202047056 -9.527274654443607  0.6802410318806742 -18.47449319324825 -9.201645367787961  0.8066248728097936 -19.06789313409565 -9.028731477324108  1.146645881039316 -18.34054336033379 -10.02161554256011  1.163270976457049 -18.3856522939637 -10.13600914797293  1.314926999638923 -18.21744267186783 -10.06975188816611  1.382148242951166 -18.30233698021152 -10.04078176440463  0.9953826130970325 -18.03240432798165 -9.957115366304151  0.9801762741680697 -17.92417155805874 -9.932007733675878  1.057199121904775 -17.89915733297582 -9.553127956229892  0.9905551516356721 -17.88414762212859 -9.521265175895246  1.45860917401949 -18.70714896516831 -9.985848087483152  0.4773197333685872 -18.70628203772849 -9.106546008667921  0.5714097364656705 -18.9157924137021 -9.059384371264864  0.9608698278818747 -18.16719337413271 -9.220445417521086  0.8103588335313111 -17.97837238854307 -9.419701449040653  0.8630714633258831 -17.96250962510531 -9.404327912967499  2.024264228873848 -19.2114308928663 -9.40577022394654  1.857104540899508 -19.52286856699742 -9.621253751257989  1.808697202107132 -19.33097871196396 -9.713615686563603  1.748166983736532 -19.37678494865352 -9.536959036679393  1.103091184372298 -18.08637690778745 -9.442454253392482  0.9012921465296309 -18.30507047109307 -9.11975368182326  1.159858509040869 -18.38578828120412 -9.808781271388566  1.310422624962751 -18.21720861591337 -9.847686462789358  1.32325399814184 -18.31676362012428 -9.647437804561301  0.984192088270617 -18.27834947320916 -9.193048233705129  0.9874558664677142 -17.92813805315024 -9.389603189267367  0.7607653419128182 -18.02547850128278 -9.363424265976548  0.9454918319479582 -18.07328711205761 -9.246363245282174  0.7289379192247654 -18.04865970668737 -9.218539572350405  0.8903445643665274 -17.94396726871166 -9.555182474517903  0.8765376107295243 -18.01130109426313 -9.213665245429452  1.598475237852869 -19.53489815361721 -9.260113895468294  0.6387980469490041 -18.93508937815153 -8.852284357884699  1.016873605821438 -18.14597388954779 -9.775455124139116  0.9755568128733287 -17.94562815402102 -10.03466560018412  1.132922623443844 -18.27401151839602 -9.346761968104191  0.7731303629803851 -17.97157291714138 -9.235184509799955  0.8084277693536143 -17.99145524309897 -9.172009911392095  0.7506781315325024 -18.0245424958449 -9.158572157526958  0.8045579346340306 -17.99457495867942 -9.246442138834261  0.7991702556610107 -17.94394073486328 -9.22682113647461  1.360863242435016 -18.31010376810087 -9.77748565671337  1.033982018306058 -17.84836562778566 -9.924990422568241  0.9910748899563043 -17.86694170916595 -9.822195481802886  1.083012772198956 -17.85210052018795 -9.758343395152702  1.689449689011165 -19.2119214979049 -9.589775026862659  0.8929465932405405 -18.10022038556982 -9.191727182059324  0.8315954451616823 -18.06631814754465 -9.161793235144909  0.781490949732034 -18.13911421287735 -9.367882246151517  1.079875839146511 -18.34770918362785 -9.237286361380191  1.564346989790273 -18.48371304210585 -10.02924611040867  0.8479395872266235 -17.98338372177133 -9.490956016727086  0.9561304782098535 -17.93670299519021 -9.772076455810485  1.638260223081339 -19.27616738467297 -9.448768556846877  1.494253448325677 -18.82098263279262 -9.742413664614823  1.606295144381789 -18.93921017725529 -9.805298753384928  1.260843456634589 -18.49499176850402 -10.0998310434773  1.690662065938224 -18.68141331193549 -9.675038076429917  1.466476573231213 -18.88196972212059 -9.583355868848253  0.4087673262844123 -18.19732413069041 -9.160767776253756  0.6850502407704249 -18.10947071224941 -9.298013402977316  1.657627194794133 -19.07919962432493 -9.692243146258527  1.083740454442232 -18.27715662204218 -10.1555879842324  1.031367083901097 -18.30396691254711 -9.598357837077758  0.6715156595649611 -18.01266947050319 -9.221165814189382  0.8654566614325566 -17.91367016013857 -9.35054598233379  0.8514281449157644 -17.92422423019829 -9.416847120223853  0.5306471604374449 -18.14992833433808 -9.035450416765043  0.4314763793951524 -18.52346004573079 -9.143319724575463  1.00045170831827 -19.44974838585088 -8.763615616272807  0.7213572928344845 -18.00700999697563 -9.29229374300292  1.706120441565267 -19.84230551239644 -9.268256204548866  1.612976549547518 -19.67227315780054 -9.227496637220034  1.007963007125966 -17.87329096224999 -10.00022664315494  1.84754820587384 -19.88358404085571 -8.707878030368569  1.541347242508797 -19.78176500353613 -9.157475774875758  </DataArray>
</Points>
<Cells>
<DataArray  type="UInt32"  Name="connectivity"  format="ascii">0 1 2 3  4 5 6 7  8 9 10 11  12 13 14 15  16 17 18 19  20 21 22 18  23 24 25 26  27 23 24 25  28 29 30 31  32 33 34 35  36 37 38 39  40 41 42 43  44 40 41 43  45 46 47 11  25 48 49 26  36 50 39 51  27 23 52 24  53 54 55 29  56 57 58 59  24 25 48 26  60 61 62 63  17 64 18 19  65 66 67 68  28 69 29 31  70 69 71 72  73 74 38 75  76 33 77 78  79 80 81 82  83 84 85 86  45 46 11 87  88 89 90 91  92 93 79 94  92 95 96 97  88 98 90 91  88 99 100 91  101 88 100 91  79 80 81 102  103 104 105 106  69 74 17 19  101 88 98 91  28 55 29 30  65 67 107 108  109 110 111 15  92 95 96 112  113 4 5 114  115 116 117 111  118 119 116 120  121 122 123 124  27 52 24 125  126 127 14 22  42 128 129 130  131 76 77 78  70 132 133 134  131 135 136 137  61 138 139 140  141 142 81 102  143 99 91 43  20 17 125 18  144 114 145 146  147 148 149 150  89 99 91 43  151 144 146 152  48 50 26 153  32 34 154 155  84 156 96 97  92 93 94 97  74 50 64 51  157 158 151 159  56 160 58 161  113 162 146 163  12 164 165 166  85 66 167 168  34 169 155 130  34 42 128 130  169 170 155 130  171 172 148 149  105 173 174 106  45 175 176 177  178 179 180 181  131 77 106 182  183 184 129 130  74 17 50 64  24 50 125 26  86 185 186 187  74 38 75 51  169 183 184 130  188 189 172 148  73 190 38 191  73 85 192 191  105 121 123 124  193 44 41 43  194 195 196 63  195 196 63 197  198 199 200 201  32 33 34 155  118 21 202 116  21 202 13 116  5 203 204 114  205 48 206 153  207 141 142 102  143 100 208 91  4 5 7 114  13 116 117 22  21 13 116 22  83 85 86 185  194 195 173 209  176 137 181 87  32 33 78 155  210 189 148 211  57 141 203 212  136 175 147 150  86 186 187 213  214 215 216 217  164 217 110 15  157 141 158 151  193 218 219 91  76 33 78 155  76 220 33 155  136 175 150 137  221 169 170 155  36 206 153 39  221 220 169 155  115 116 222 111  168 86 185 186  207 142 102 223  207 93 80 102  207 224 102 223  57 59 80 82  171 147 225 149  32 154 78 155  176 226 227 11  228 229 230 231  32 41 34 154  178 180 181 87  84 86 156 97  131 210 103 232  233 161 204 7  233 161 6 7  137 78 181 87  233 58 161 204  233 57 58 204  101 138 100 139  53 54 55 107  85 66 168 68  12 234 165 235  85 167 192 191  53 54 66 67  236 122 234 197  237 56 233 161  27 23 52 122  93 79 80 102  122 196 123 124  37 96 39 112  73 36 74 38  45 176 177 11  158 151 146 152  21 13 127 22  118 16 21 18  178 238 180 87  131 210 136 232  239 176 177 11  53 54 66 192  239 176 226 11  176 227 11 87  175 240 176 177  5 233 6 7  4 162 163 241  158 151 159 152  173 174 40 35  62 138 166 235  179 242 155 181  17 50 64 125  243 47 177 11  198 107 199 244  13 117 14 22  53 85 66 192  93 187 213 245  56 205 59 206  61 138 100 139  60 61 138 100  131 232 77 106  23 25 49 26  194 173 246 40  214 215 164 217  62 234 165 235  113 5 203 114  143 246 61 208  105 195 123 124  171 147 148 149  194 195 209 196  175 147 240 150  36 48 50 153  143 194 246 40  143 246 44 40  218 219 247 91  83 92 93 97  188 248 49 172  195 196 123 197  147 240 225 150  249 250 251 252  253 249 250 252  254 12 13 14  219 255 256 43  205 206 153 112  257 42 128 129  228 0 258 230  115 117 109 111  60 61 62 138  243 259 260 261  216 138 166 140  109 164 110 15  60 62 235 63  57 203 212 204  83 86 187 213  83 86 185 187  104 188 248 25  243 239 177 11  4 251 162 241  205 48 206 262  263 115 222 111  164 217 166 15  264 176 227 181  57 58 59 82  34 154 155 130  28 30 31 71  60 194 61 63  214 62 165 166  131 103 232 106  193 41 265 43  174 35 106 182  207 141 80 102  240 225 150 261  73 36 37 38  198 28 228 199  0 1 230 2  28 228 266 199  52 24 125 26  188 189 148 211  194 246 209 61  131 76 135 77  236 20 126 127  74 75 64 51  242 78 155 181  27 52 126 125  118 16 267 18  69 74 75 19  28 70 228 258  28 53 55 29  70 132 268 134  131 210 136 137  257 42 129 43  228 266 199 231  70 0 1 134  0 1 134 3  73 28 53 29  28 70 258 71  103 104 232 211  28 55 30 266  210 189 232 211  215 164 269 217  69 270 271 19  56 58 205 59  237 171 262 172  237 171 225 149  237 160 262 172  237 160 161 172  237 161 172 149  237 171 172 149  210 103 232 211  70 69 270 72  119 116 222 120  69 31 72 271  53 54 29 192  73 84 85 191  270 267 72 271  141 80 81 102  84 156 38 191  70 0 1 258  193 218 208 91  218 208 139 91  144 272 146 152  195 209 196 124  4 260 273 241  100 208 139 91  61 100 208 139  270 119 268 267  70 274 71 72  94 245 224 102  141 212 142 81  206 153 39 112  73 84 38 191  195 196 123 124  214 215 275 216  173 174 35 106  173 246 174 209  143 246 44 208  56 233 58 161  236 122 126 234  105 121 276 124  257 256 129 43  141 203 212 151  92 93 79 80  174 32 35 182  103 174 106 182  12 14 164 15  131 103 106 182  270 16 267 19  28 69 31 71  21 116 22 18  237 56 160 161  20 125 22 18  36 74 38 51  83 92 84 97  92 94 95 97  73 53 85 192  248 48 262 49  240 243 259 261  69 31 271 75  202 116 222 120  83 84 86 97  70 268 274 72  83 93 97 213  83 86 97 213  93 94 97 213  93 94 213 245  251 162 277 241  73 84 37 38  53 65 66 67  240 176 150 261  225 149 150 261  240 225 259 261  240 239 176 261  62 234 235 63  254 13 127 14  61 196 62 63  8 278 227 11  279 264 227 181  203 212 204 151  57 141 212 81  56 233 57 58  69 190 31 75  93 94 245 102  85 168 86 185  270 118 16 267  69 31 71 72  141 212 151 142  234 235 63 197  60 62 138 235  27 52 122 126  196 234 63 197  28 228 266 258  4 273 163 241  194 173 246 209  92 84 96 97  147 225 149 150  104 188 189 248  13 109 111 15  162 277 163 241  277 273 163 241  113 4 162 163  113 280 162 146  239 10 252 11  20 126 125 22  13 117 109 14  92 79 94 95  249 251 277 241  248 25 48 49  40 41 34 42  76 137 78 87  36 38 39 51  194 61 196 63  84 37 38 96  196 62 234 63  36 24 48 50  198 199 201 244  228 199 231 200  53 65 67 107  157 142 281 223  207 93 245 102  214 216 166 140  93 79 94 102  33 77 78 182  24 48 50 26  74 17 64 19  41 183 154 130  13 117 109 111  115 109 110 111  219 255 91 43  57 58 81 82  203 158 151 146  157 207 142 223  185 282 186 187  175 240 176 150  45 176 11 87  239 10 283 252  176 227 181 87  121 23 276 25  136 147 148 150  45 47 177 11  278 279 180 227  141 203 158 151  44 174 32 40  265 183 184 129  205 48 262 49  237 56 160 262  188 189 248 172  189 248 171 172  5 57 203 204  57 58 212 81  207 245 224 102  36 37 206 39  8 278 279 227  243 47 252 11  104 188 189 211  189 171 147 148  48 49 26 153  28 30 266 258  37 38 96 39  198 201 284 285  69 271 75 19  20 16 17 18  0 1 258 230  76 178 238 87  76 78 181 87  85 167 168 86  45 136 175 137  105 276 209 124  105 173 174 209  105 195 173 209  105 195 209 124  113 4 114 163  76 135 238 87  257 256 184 129  118 202 116 120  23 52 24 26  56 205 206 262  270 268 267 72  12 165 166 235  121 236 122 123  193 208 91 43  121 27 23 25  13 127 14 22  193 265 256 43  41 265 129 43  118 119 267 116  20 17 24 125  5 233 204 7  57 58 212 204  9 47 252 11  257 99 42 43  69 29 190 31  151 144 159 152  203 151 114 146  145 162 277 163  265 256 184 129  236 122 123 197  236 254 234 197  62 165 166 235  41 42 129 43  70 258 274 71  37 206 39 112  160 205 262 49  92 37 96 112  20 16 21 18  20 126 127 22  44 32 40 41  4 6 7 260  104 189 232 211  210 136 148 150  73 190 192 191  73 69 190 75  17 64 125 18  104 105 121 276  77 35 106 182  278 180 227 87  220 34 169 155  131 76 135 137  76 135 137 87  70 270 268 72  118 267 116 18  16 267 18 19  69 16 17 19  157 207 141 142  157 151 142 281  157 141 151 142  157 151 159 281  131 77 78 182  45 176 137 87  144 272 145 146  131 76 137 78  73 69 74 75  73 190 38 75  89 255 90 91  56 160 58 205  57 141 80 81  58 205 59 82  198 53 65 107  32 33 78 182  121 27 23 122  193 219 256 43  193 219 91 43  255 90 286 91  73 53 29 192  73 29 190 192  73 69 29 190  73 28 69 29  228 258 230 231  53 54 67 107  45 135 136 137  131 135 136 232  69 270 72 271  45 135 238 87  104 276 188 211  70 228 0 258  83 93 187 213  61 62 138 140  45 175 176 137  175 176 150 137  57 80 81 82  270 267 271 19  45 135 137 87  36 48 206 153  84 156 38 96  5 233 57 204  70 1 258 274  263 115 110 111  89 255 91 43  89 255 256 43  205 48 49 153  92 84 37 96  94 213 245 224  214 62 166 140  194 209 61 196  143 60 194 61  143 194 246 61  56 160 205 262  160 262 49 172  113 114 146 163  237 233 161 6  115 109 269 110  12 164 166 15  122 196 123 197  260 251 252 241  121 23 276 122  74 75 64 19  121 276 122 124  85 167 156 191  84 85 156 191  4 7 114 273  65 85 66 68  5 204 7 114  65 85 185 68  203 204 151 114  168 185 186 68  250 260 251 252  85 168 185 68  198 201 244 285  219 255 286 91  219 247 286 91  118 21 116 18  76 78 155 181  221 179 170 155  221 178 179 155  131 135 232 77  101 100 139 91  174 32 40 35  109 14 164 15  13 109 14 15  12 14 164 165  214 216 217 166  62 138 166 140  214 164 217 166  28 70 69 71  198 228 199 200  214 164 165 166  254 12 234 235  236 126 254 234  236 126 254 127  126 254 14 234  126 254 127 14  228 229 231 200  161 6 7 149  7 260 273 261  143 99 100 91  28 53 55 199  8 239 10 11  240 239 176 177  249 251 252 241  6 7 149 261  4 7 260 273  8 279 226 227  53 55 107 199  28 55 266 199  198 287 284 285  205 59 206 112  205 59 82 112  37 59 206 112  92 37 59 112  95 59 82 112  92 95 59 112  99 40 42 43  189 171 172 148  248 262 49 172  248 171 262 172  103 104 232 106  103 104 105 276  103 104 276 211  104 121 276 25  70 268 274 134  70 1 274 134  70 133 0 134  210 189 136 148  210 189 136 232  210 136 150 137  189 136 147 148  88 89 99 91  76 178 155 181  70 270 132 268  270 132 119 268  270 132 119 120  65 185 282 68  169 183 170 130  185 282 186 68  249 10 283 252  8 239 226 11  36 74 50 51  36 74 17 50  17 24 50 125  36 17 24 50  103 105 276 209  103 105 174 106  103 105 174 209  28 30 258 71  53 65 85 66  254 234 235 197  287 288 284 285  263 202 222 111  202 116 222 111  27 20 126 125  122 196 234 197  20 21 127 22  69 270 16 19  41 34 154 130  36 50 153 39  257 89 99 43  85 66 167 192  228 266 258 231  193 44 208 43  143 44 208 43  143 208 91 43  23 276 188 25  104 276 188 25  32 33 35 182  33 77 35 182  236 27 122 126  236 27 20 126  121 236 27 122  27 20 24 125  143 44 40 43  143 99 40 43  202 13 116 111  13 116 117 111  32 40 34 35  32 40 41 34  8 278 9 11  239 283 252 241  239 273 283 241  76 221 178 155  76 221 220 155  270 118 119 267  270 118 119 120  23 188 25 49  188 248 25 49  214 275 216 140  9 10 252 11  249 9 10 252  253 249 9 252  253 9 47 252  109 164 269 110  164 269 217 110  237 161 6 149  237 6 225 149  198 53 107 199  198 28 53 199  249 283 252 241  143 61 100 208  143 60 61 100  41 42 129 130  41 34 42 130  277 273 283 241  6 7 260 261  6 259 260 261  249 277 283 241  65 108 288 285  198 287 65 285  287 65 288 285  34 169 128 130  246 44 174 40  173 246 174 40  254 12 14 234  12 14 234 165  45 46 238 87  8 226 227 11  264 176 137 181  279 180 227 181  4 260 251 241  278 227 11 87  279 179 180 181  279 264 226 227  169 184 128 130  184 128 129 130  264 179 242 181  278 46 11 87  278 9 46 11  243 239 260 261  239 260 273 261  9 46 47 11  239 260 273 241  280 272 146 152  264 242 78 181  180 227 181 87  84 85 86 156  85 167 86 156  240 243 239 177  240 243 239 261  6 225 259 261  6 225 149 261  264 137 78 181  279 264 179 181  92 79 59 80  79 59 80 82  92 79 95 59  79 95 59 82  151 144 114 146  278 46 180 87  170 154 155 130  183 170 154 130  220 33 34 155  198 107 108 244  198 108 244 285  198 65 108 285  198 65 107 108  264 176 226 227  242 170 154 155  242 154 78 155  179 242 170 155  76 178 181 87  178 179 155 181  46 238 180 87  41 265 183 129  257 184 128 129  265 256 129 43  41 183 129 130  113 203 280 146  203 158 280 146  158 280 146 152  280 272 145 146  113 203 114 146  114 145 273 163  4 114 273 163  145 277 273 163  257 89 256 43  114 145 146 163  145 162 146 163  239 260 252 241  253 250 243 252  243 239 252 11  250 243 260 252  280 145 162 146  253 243 47 252  243 239 260 252  144 159 272 152  </DataArray>
<DataArray  type="UInt32"  Name="offsets"  format="ascii">4 8 12 16 20 24 28 32 36 40 44 48 52 56 60 64 68 72 76 80 84 88 92 96 100 104 108 112 116 120 124 128 132 136 140 144 148 152 156 160 164 168 172 176 180 184 188 192 196 200 204 208 212 216 220 224 228 232 236 240 244 248 252 256 260 264 268 272 276 280 284 288 292 296 300 304 308 312 316 320 324 328 332 336 340 344 348 352 356 360 364 368 372 376 380 384 388 392 396 400 404 408 412 416 420 424 428 432 436 440 444 448 452 456 460 464 468 472 476 480 484 488 492 496 500 504 508 512 516 520 524 528 532 536 540 544 548 552 556 560 564 568 572 576 580 584 588 592 596 600 604 608 612 616 620 624 628 632 636 640 644 648 652 656 660 664 668 672 676 680 684 688 692 696 700 704 708 712 716 720 724 728 732 736 740 744 748 752 756 760 764 768 772 776 780 784 788 792 796 800 804 808 812 816 820 824 828 832 836 840 844 848 852 856 860 864 868 872 876 880 884 888 892 896 900 904 908 912 916 920 924 928 932 936 940 944 948 952 956 960 964 968 972 976 980 984 988 992 996 1000 1004 1008 1012 1016 1020 1024 1028 1032 1036 1040 1044 1048 1052 1056 1060 1064 1068 1072 1076 1080 1084 1088 1092 1096 1100 1104 1108 1112 1116 1120 1124 1128 1132 1136 1140 1144 1148 1152 1156 1160 1164 1168 1172 1176 1180 1184 1188 1192 1196 1200 1204 1208 1212 1216 1220 1224 1228 1232 1236 1240 1244 1248 1252 1256 1260 1264 1268 1272 1276 1280 1284 1288 1292 1296 1300 1304 1308 1312 1316 1320 1324 1328 1332 1336 1340 1344 1348 1352 1356 1360 1364 1368 1372 1376 1380 1384 1388 1392 1396 1400 1404 1408 1412 1416 1420 1424 1428 1432 1436 1440 1444 1448 1452 1456 1460 1464 1468 1472 1476 1480 1484 1488 1492 1496 1500 1504 1508 1512 1516 1520 1524 1528 1532 1536 1540 1544 1548 1552 1556 1560 1564 1568 1572 1576 1580 1584 1588 1592 1596 1600 1604 1608 1612 1616 1620 1624 1628 1632 1636 1640 1644 1648 1652 1656 1660 1664 1668 1672 1676 1680 1684 1688 1692 1696 1700 1704 1708 1712 1716 1720 1724 1728 1732 1736 1740 1744 1748 1752 1756 1760 1764 1768 1772 1776 1780 1784 1788 1792 1796 1800 1804 1808 1812 1816 1820 1824 1828 1832 1836 1840 1844 1848 1852 1856 1860 1864 1868 1872 1876 1880 1884 1888 1892 1896 1900 1904 1908 1912 1916 1920 1924 1928 1932 1936 1940 1944 1948 1952 1956 1960 1964 1968 1972 1976 1980 1984 1988 1992 1996 2000 2004 2008 2012 2016 2020 2024 2028 2032 2036 2040 2044 2048 2052 2056 2060 2064 2068 2072 2076 2080 2084 2088 2092 2096 2100 2104 2108 2112 2116 2120 2124 2128 2132 2136 2140 2144 2148 2152 2156 2160 2164 2168 2172 2176 2180 2184 2188 2192 2196 2200 2204 2208 2212 2216 2220 2224 2228 2232 2236 2240 2244 2248 2252 2256 2260 2264 2268 2272 2276 2280 2284 2288 2292 2296 2300 2304 2308 2312 2316 2320 2324 2328 2332 2336 2340 2344 2348 2352 2356 2360 2364 2368 2372 2376 2380 2384 2388 2392 2396 2400 2404 2408 2412 2416 2420 2424 2428 2432 2436 2440 2444 2448 2452 2456 2460 2464 2468 2472 2476 2480 2484 2488 2492 2496 2500 2504 2508 2512 2516 2520 2524 2528 2532 2536 2540 2544 2548 2552 2556 2560 2564 2568 2572 2576 2580 2584 2588 2592 2596 2600 2604 2608 2612 2616 2620 2624 2628 2632 2636 2640 2644 2648 2652 2656 2660 2664 2668 2672 2676 2680 2684 2688 2692 2696 2700 2704 2708 2712 2716 2720 2724 2728 2732 2736 2740 2744 2748 2752 2756 2760 2764 2768 2772 2776 2780 2784 2788 2792 2796 2800 2804 2808 2812 2816 2820 2824 2828 2832 2836 2840 2844 2848 2852 2856 2860 2864 2868 2872 2876 2880 2884 2888 2892 2896 2900 2904 2908 2912 2916 2920 2924 2928 2932 2936 2940 2944 2948 2952 2956 2960 2964 2968 2972 2976 2980 2984 2988 2992 2996 3000 3004 3008 3012 3016 3020 3024 3028 3032 3036 3040 3044 3048 3052 3056 3060 3064 3068 3072 3076 3080 3084 3088 </DataArray>
<DataArray  type="UInt8"  Name="types"  format="ascii">10 10 10 10 10 10 10 10 10 10 10 10 10 10 10 10 10 10 10 10 10 10 10 10 10 10 10 10 10 10 10 10 10 10 10 10 10 10 10 10 10 10 10 10 10 10 10 10 10 10 10 10 10 10 10 10 10 10 10 10 10 10 10 10 10 10 10 10 10 10 10 10 10 10 10 10 10 10 10 10 10 10 10 10 10 10 10 10 10 10 10 10 10 10 10 10 10 10 10 10 10 10 10 10 10 10 10 10 10 10 10 10 10 10 10 10 10 10 10 10 10 10 10 10 10 10 10 10 10 10 10 10 10 10 10 10 10 10 10 10 10 10 10 10 10 10 10 10 10 10 10 10 10 10 10 10 10 10 10 10 10 10 10 10 10 10 10 10 10 10 10 10 10 10 10 10 10 10 10 10 10 10 10 10 10 10 10 10 10 10 10 10 10 10 10 10 10 10 10 10 10 10 10 10 10 10 10 10 10 10 10 10 10 10 10 10 10 10 10 10 10 10 10 10 10 10 10 10 10 10 10 10 10 10 10 10 10 10 10 10 10 10 10 10 10 10 10 10 10 10 10 10 10 10 10 10 10 10 10 10 10 10 10 10 10 10 10 10 10 10 10 10 10 10 10 10 10 10 10 10 10 10 10 10 10 10 10 10 10 10 10 10 10 10 10 10 10 10 10 10 10 10 10 10 10 10 10 10 10 10 10 10 10 10 10 10 10 10 10 10 10 10 10 10 10 10 10 10 10 10 10 10 10 10 10 10 10 10 10 10 10 10 10 10 10 10 10 10 10 10 10 10 10 10 10 10 10 10 10 10 10 10 10 10 10 10 10 10 10 10 10 10 10 10 10 10 10 10 10 10 10 10 10 10 10 10 10 10 10 10 10 10 10 10 10 10 10 10 10 10 10 10 10 10 10 10 10 10 10 10 10 10 10 10 10 10 10 10 10 10 10 10 10 10 10 10 10 10 10 10 10 10 10 10 10 10 10 10 10 10 10 10 10 10 10 10 10 10 10 10 10 10 10 10 10 10 10 10 10 10 10 10 10 10 10 10 10 10 10 10 10 10 10 10 10 10 10 10 10 10 10 10 10 10 10 10 10 10 10 10 10 10 10 10 10 10 10 10 10 10 10 10 10 10 10 10 10 10 10 10 10 10 10 10 10 10 10 10 10 10 10 10 10 10 10 10 10 10 10 10 10 10 10 10 10 10 10 10 10 10 10 10 10 10 10 10 10 10 10 10 10 10 10 10 10 10 10 10 10 10 10 10 10 10 10 10 10 10 10 10 10 10 10 10 10 10 10 10 10 10 10 10 10 10 10 10 10 10 10 10 10 10 10 10 10 10 10 10 10 10 10 10 10 10 10 10 10 10 10 10 10 10 10 10 10 10 10 10 10 10 10 10 10 10 10 10 10 10 10 10 10 10 10 10 10 10 10 10 10 10 10 10 10 10 10 10 10 10 10 10 10 10 10 10 10 10 10 10 10 10 10 10 10 10 10 10 10 10 10 10 10 10 10 10 10 10 10 10 10 10 10 10 10 10 10 10 10 10 10 10 10 10 10 10 10 10 10 10 10 10 10 10 10 10 10 10 10 10 10 10 10 10 10 10 10 10 10 10 10 10 10 10 10 10 10 10 10 10 10 10 10 10 10 10 10 10 10 10 10 10 10 10 10 10 10 10 10 10 10 10 10 10 10 10 10 10 10 10 10 10 10 10 10 10 10 10 10 10 10 10 10 10 </DataArray>
</Cells>
<PointData  Vectors="u_"> 
<DataArray  type="Float64"  Name="u_"  NumberOfComponents="3" format="ascii">-1.0812155341733692e-02 8.2201923868914142e-03 -2.5239647004568252e-02  -8.0068939497829356e-03 4.2165165128971241e-03 -2.3824310088661583e-02  -3.9896703385756448e-03 6.1752631842241865e-03 -2.8228492169064895e-02  -5.1742237418556311e-03 4.3761111146285517e-03 -2.4899955296148919e-02  8.2769275760590720e-05 -7.8542921081250800e-04 -3.4591789934888779e-04  -5.3674903535768335e-04 -1.3042439935530617e-03 -1.3159588050185309e-03  -1.7913057852223427e-04 -1.3248507037795679e-03 -1.1367387187070984e-03  -8.4553382723890019e-04 2.2403451526472283e-04 -7.9170768727949872e-04  0.0000000000000000e+00 0.0000000000000000e+00 0.0000000000000000e+00  0.0000000000000000e+00 0.0000000000000000e+00 0.0000000000000000e+00  0.0000000000000000e+00 0.0000000000000000e+00 0.0000000000000000e+00  1.0189612166917517e-04 -9.2273514094936559e-05 -1.6494738969897208e-05  -3.6640343695276303e-03 -1.0540642955810258e-03 -8.2749778703813791e-03  -4.8768128017413785e-03 -9.3857479075306629e-04 -1.0418280307554940e-02  -4.7557115759047416e-03 2.9878008779161501e-05 -9.3376068987467004e-03  -4.0969159301568235e-03 -5.5678125941370309e-04 -9.5483847451713118e-03  -6.6208178903786191e-03 -1.1123551378864761e-03 -1.3027579511642146e-02  -5.6207479739059547e-03 -1.4757312227565219e-03 -1.1413810516764161e-02  -7.2145990080332689e-03 -2.2242646313282052e-04 -1.2346951879086297e-02  -7.8888606663154309e-03 -1.7683355898893133e-04 -1.3076307966976942e-02  -4.8361202604360965e-03 -1.7793104884839305e-03 -9.8348816454551062e-03  -5.8968804404986438e-03 -1.1011948260033638e-03 -1.1969446070299226e-02  -6.1206980049176409e-03 -2.4531351363368028e-04 -1.0910102523575561e-02  -4.1585835823404168e-03 -1.0337445508387839e-04 -5.4178611228005808e-03  -4.0600174505791590e-03 -2.1657153205440561e-03 -8.3175601707658996e-03  -2.4455383588032013e-03 -2.0696877581187129e-03 -5.8241974687496152e-03  -5.3413681914061626e-03 -2.9198574970640230e-04 -7.1749426060692791e-03  -3.4575093807714123e-03 -2.0872547606910854e-03 -7.3681165438735175e-03  -8.9700955777798110e-03 3.3087550723466443e-03 -1.7485928305037955e-02  -9.1783320463409129e-03 1.5470241519993935e-03 -1.2216043035929401e-02  -9.8169159170672839e-03 2.6082185132524300e-03 -1.5585015084943161e-02  -8.9955522642252671e-03 8.7576317078222516e-04 -1.4141243786405395e-02  0.0000000000000000e+00 0.0000000000000000e+00 0.0000000000000000e+00  3.3833738481478786e-04 -8.4218738966083939e-04 -7.8522795766668456e-04  2.9087796183971469e-04 -7.4312117030103598e-04 -7.1075702856688769e-04  2.3479309115242004e-04 -1.2197372409012506e-03 -1.3552879267064717e-03  -4.5488259473532733e-03 -1.6885010558939137e-03 -9.2384542307576648e-03  -4.1671206420236815e-03 -1.1587603063557563e-03 -7.8862489331140533e-03  -7.1027886971391906e-03 -1.1538836591992789e-04 -9.4002747708398001e-03  -6.2774071233449788e-03 -3.4793097765948889e-04 -8.1754408221985046e-03  1.8083835367478375e-04 -1.1278284087773924e-03 -1.4829778033475629e-03  0.0000000000000000e+00 0.0000000000000000e+00 0.0000000000000000e+00  2.3314984651669608e-04 -5.8078139712382302e-04 -6.6235234265344084e-04  3.5043317481424874e-05 -2.3447134492905788e-04 -4.9752951615046983e-04  0.0000000000000000e+00 0.0000000000000000e+00 0.0000000000000000e+00  3.4928055457385276e-04 -6.9547068860035578e-04 -4.3074565749483815e-04  0.0000000000000000e+00 0.0000000000000000e+00 0.0000000000000000e+00  0.0000000000000000e+00 0.0000000000000000e+00 0.0000000000000000e+00  -2.9319937082546970e-03 -2.0396838457606647e-03 -6.4250368486372051e-03  -3.9616886067368445e-03 -5.1248983455822260e-05 -4.9123796139655101e-03  -6.3155991846825157e-03 -5.9194194381736130e-04 -8.6761907323161629e-03  -7.0680036721670813e-03 -3.0383181275060256e-04 -9.8231415082623043e-03  -5.0586153941321824e-03 -2.5659796988300546e-04 -7.3152440682439359e-03  -6.5152120043967792e-03 4.5449940808137915e-03 -1.2372035595997838e-02  -8.9419097647674747e-03 2.6438505509541071e-03 -9.2448889321432269e-03  -1.0539118523726802e-02 3.4080976597547332e-03 -1.3237356825852406e-02  -1.7835332895052901e-03 -1.8811028517307889e-03 -3.6885287824127023e-03  -1.4961721262687631e-03 -1.6442683595063207e-03 -2.5769707741450402e-03  -3.2403326121699886e-03 -3.2014580129362601e-05 -3.5070391094942747e-03  -2.8756419844445762e-03 -1.7399815979814068e-03 -4.9859388226703577e-03  -1.3773831155714361e-03 -1.1593839678682655e-03 -4.1909711786127877e-03  -2.0132024323557267e-03 3.8403963947129338e-04 -3.7938694186706785e-03  -3.0739127145250097e-03 2.3819123883512863e-04 -5.9028448915440122e-03  -1.6949220489617144e-03 -1.4817639385033146e-03 -4.9166053027804970e-03  -7.0655482717567339e-03 -4.3674090181238721e-04 -1.0828072024538843e-02  -3.5211148742854618e-03 5.8811924591987506e-03 -8.1512585007262610e-04  -6.9924519350351476e-03 1.9292787097340534e-03 -6.2110375554463087e-03  -7.9409470589030893e-03 3.9031487286900948e-03 -4.9070549386287816e-03  -5.0300501160836786e-03 1.7693099537470294e-03 -3.4224867299430407e-03  -7.4682465168972052e-03 -3.8863646817204192e-04 -1.5074412703951831e-02  -9.5839778754605656e-03 2.5715764002884191e-03 -1.9716413737675603e-02  -9.4438858321234855e-03 2.0302711076593139e-03 -1.7335090981603133e-02  -8.9376223519112858e-03 1.0442981545397284e-03 -1.7138659695853931e-02  -5.8996205219880504e-03 2.5341479802396964e-04 -1.1668816645080930e-02  -5.8988111373910850e-03 -1.0075763918396814e-03 -1.1922018300488330e-02  -8.0716431413202609e-03 -4.3323327971900877e-05 -1.1831653626859515e-02  2.9796273866342402e-04 -5.8977212245308437e-04 -4.2850855484481004e-04  2.6900620144755158e-04 -1.0230981831959834e-03 -1.1233760725894164e-03  0.0000000000000000e+00 0.0000000000000000e+00 0.0000000000000000e+00  -4.4493057995987663e-03 -4.9373817774335039e-04 -4.8678504537447110e-03  -2.6827370439204547e-03 -1.7680958082944241e-03 -3.8761063766266273e-03  -3.4297109434961622e-03 -2.5491453538919155e-04 -3.5825070064080646e-03  -4.3207814183869701e-03 -3.3013264238028153e-04 -4.9688159992226383e-03  -4.9047744369645025e-03 -2.8406337290387909e-04 -6.5690442679711405e-03  -4.8140815386346208e-03 1.2822234013155052e-04 -8.2353054495186082e-03  -5.1909097180004790e-03 2.3963504466893034e-03 -8.2106876259397648e-03  -5.6946432922979039e-03 7.6006968417127133e-05 -6.3099857838643404e-03  1.8297453400766125e-04 -2.4218415222195374e-04 -1.4619307587650088e-04  -1.5061475611680898e-04 -6.6090757450762601e-04 -1.0707609965620959e-03  0.0000000000000000e+00 0.0000000000000000e+00 0.0000000000000000e+00  0.0000000000000000e+00 0.0000000000000000e+00 0.0000000000000000e+00  -3.0602613942536485e-04 -1.9336763463567461e-04 -9.1418083664490256e-04  -3.9491775293781532e-03 -1.2800188826349243e-03 -6.1780364036495587e-03  -4.2010736301410423e-03 -1.5876257998637831e-03 -5.2712729849281022e-03  -4.8122548439989126e-03 -6.2326564234763105e-04 -5.2907099551761068e-03  -5.2233054943915669e-03 -4.7318584316802774e-04 -6.0065696992070827e-03  -6.0451589645864022e-03 -4.1012463442657550e-04 -7.5287961883125374e-03  -5.4225396648415114e-03 -4.9113693466706877e-04 -6.3856779548971164e-03  -2.9145671016507334e-04 -3.3253639411687095e-04 -1.0533168811018728e-03  5.7252125242850596e-05 -6.5732231285798941e-04 -1.0949305719241227e-03  -6.7734944196713818e-04 -1.0568584724225754e-03 -2.6981708103840400e-03  -8.4875475775206646e-04 -5.7679636810305821e-04 -2.7693935534389858e-03  -3.8614214743241614e-03 -5.4491187870484557e-04 -4.0925946360461929e-03  -1.3108094254188516e-03 1.8942627860943240e-04 -1.9900221978001661e-03  -1.0560297804462168e-03 -1.9417252461826234e-03 -3.7253202562643802e-03  -9.5405053659762431e-04 -1.8010491485289640e-03 -3.7604435987121042e-03  -1.6207693567763185e-04 -1.5264835471175409e-03 -2.3861024447985298e-03  -1.0293893230737462e-02 4.6097545676282714e-03 -1.0077991234089364e-02  -1.0561959214711723e-02 5.9256141163524989e-03 -7.4826763274234128e-03  -4.7526160295583699e-03 2.7570494087807254e-04 -1.0813757325793868e-02  -4.5813781361993752e-03 9.0827479936222535e-05 -1.0613596182675190e-02  -5.2483333847874042e-03 -3.0163901883733960e-04 -1.1530087441618661e-02  -5.3018545145351479e-03 -4.5188294458046920e-04 -6.5003754659739782e-03  -9.8018861387400220e-05 -7.7409162944379426e-04 -4.4908384395982414e-04  -9.1171137269722264e-04 3.4184926627146064e-04 -6.1580011194507453e-04  -5.0862328560966992e-03 4.7472584478757806e-04 -1.2899632258955757e-02  -6.4063684078365379e-03 1.8035469112798153e-04 -1.3754329697388845e-02  -5.4845189550629305e-03 1.3785643361232942e-04 -1.1448737411982242e-02  -6.9571387842387268e-03 -2.9743702954930593e-04 -1.4155104480896021e-02  -7.0657073886020256e-03 1.2240478904898540e-03 -1.7394974307481194e-02  -7.7341271081005497e-03 1.2275167435664086e-03 -1.6278693317341560e-02  -2.2898485541471064e-03 -2.0398552363648523e-03 -5.7191910449508592e-03  -3.9654489917102364e-03 -4.0684152564828493e-05 -6.0982160088475929e-03  -1.9640511309543212e-03 -1.8235580321236879e-03 -5.3293765460716361e-03  -2.8706081809253864e-03 1.6708467998068812e-04 -4.5806399018042399e-03  -6.2848851194591219e-03 -5.0667708520991820e-04 -9.5269356075379733e-03  -5.1478850920362628e-03 -2.8916902495912221e-04 -8.2757117055548713e-03  -4.6091508296238056e-03 -1.4936533378036650e-03 -9.5361639940941458e-03  0.0000000000000000e+00 0.0000000000000000e+00 0.0000000000000000e+00  7.2619695395919806e-05 -1.0058397073191162e-04 -1.2756877803491850e-04  1.0855360983453677e-04 -1.2771808512844899e-04 -1.1085290314894130e-04  -4.3230050751442544e-04 1.5253807189349210e-04 -6.7294173452557939e-04  -8.6226269660965634e-03 2.4597506267048084e-03 -1.8313188793221542e-02  -8.8899919154965361e-03 6.0972766945343610e-03 -2.1881483691233793e-02  -7.5979307323575619e-03 3.0221058881146671e-03 -2.2187963276093327e-02  3.9595366700633932e-04 -9.8370755948292408e-04 -7.6608564640867789e-04  3.0499313853331799e-04 -1.2822939732696575e-03 -1.1392200710580497e-03  0.0000000000000000e+00 0.0000000000000000e+00 0.0000000000000000e+00  -1.7800366812411321e-03 -8.9623977668000759e-04 -4.8021320757122669e-03  -1.3344898280020505e-03 2.8336680642833878e-04 -3.0438260922604704e-03  -2.2463621505740654e-03 2.1497887194214303e-04 -5.0155464285484893e-03  -1.5356324841718655e-03 -1.5052535964892476e-03 -1.9540011311775813e-03  -2.6298601147282342e-03 -1.1148850011345080e-04 -2.5203399030508528e-03  -4.9699565932725227e-04 -1.1376110109337025e-03 -2.5574244092541514e-03  -6.7507459000518306e-04 2.5966738465924927e-04 -3.3762623820207861e-04  0.0000000000000000e+00 0.0000000000000000e+00 0.0000000000000000e+00  -3.9172940087948814e-04 -8.4282717321801205e-05 -3.1407606943485879e-04  8.9426664132126674e-05 -1.4809026838804873e-03 -1.4845071927112458e-03  -1.6645043444066105e-03 2.4532871859326899e-04 -2.2066157235316303e-03  -1.3510442501820578e-03 1.9748419670750943e-04 -1.5516596750209987e-03  -6.7370176899279931e-04 1.9315698570204854e-04 -7.6678240349436621e-04  -1.5552750254692891e-03 2.1969964188553234e-04 -1.2136794295310031e-03  -3.7043946348637571e-04 -1.4108712403312616e-04 -2.2542942549346509e-04  -5.3195824420207271e-03 -4.8270982638894404e-04 -6.6463914331544331e-03  0.0000000000000000e+00 0.0000000000000000e+00 0.0000000000000000e+00  1.3734010724928108e-04 -2.0701198880298152e-04 -1.7930787683521129e-04  -6.3303904013790767e-03 -2.5389477845534284e-04 -7.8059329447273040e-03  -1.4977141122303522e-03 -1.3232432499888365e-03 -1.5684551913300396e-03  -5.0916044273582926e-04 -8.6023985464738168e-04 -6.1998721102466824e-04  -9.4331973409299101e-04 1.3318276311063707e-04 -5.4057627715416103e-04  -3.2978795643708869e-03 6.0850187767409601e-05 -3.8409808855324953e-03  -2.1558952710479086e-03 1.9068451763697223e-04 -2.4032983242496769e-03  0.0000000000000000e+00 0.0000000000000000e+00 0.0000000000000000e+00  -1.0894138708425632e-04 -1.9120750497901353e-05 -9.4314303024768992e-05  -3.8998865763100864e-03 2.5424759083694754e-04 -9.0673184638077817e-03  -3.8578145256668297e-03 1.2459321044971323e-04 -7.8001203659921522e-03  -3.0737149639005271e-03 -7.5472451344999044e-04 -7.2454864864464445e-03  -6.7250315381713281e-03 7.2367005638069388e-04 -7.4319950111658116e-03  -5.5017504244541339e-03 9.5652140297002519e-04 -5.3196276958726186e-03  0.0000000000000000e+00 0.0000000000000000e+00 0.0000000000000000e+00  0.0000000000000000e+00 0.0000000000000000e+00 0.0000000000000000e+00  -6.8991898824104789e-04 -1.8106853868381026e-03 -2.6639935264661223e-03  -2.6339359539286501e-03 1.7924564704969539e-04 -3.1511389381922951e-03  -3.4146442471252132e-04 -1.4856350669642255e-03 -2.7601097107692665e-03  -7.4306736267040101e-04 1.3737613913956433e-04 -1.3497092895997345e-03  3.0576830822800658e-04 -1.0404868112121228e-03 -7.9648341466910782e-04  0.0000000000000000e+00 0.0000000000000000e+00 0.0000000000000000e+00  2.8010363023686240e-04 -6.0819346170115412e-04 -3.6514079583710083e-04  0.0000000000000000e+00 0.0000000000000000e+00 0.0000000000000000e+00  0.0000000000000000e+00 0.0000000000000000e+00 0.0000000000000000e+00  0.0000000000000000e+00 0.0000000000000000e+00 0.0000000000000000e+00  6.6188679591196588e-05 -4.6263425007656077e-05 -2.8215706300181922e-05  -4.7626792321531642e-04 8.9081144316092981e-05 -7.3920984835750881e-04  0.0000000000000000e+00 0.0000000000000000e+00 0.0000000000000000e+00  0.0000000000000000e+00 0.0000000000000000e+00 0.0000000000000000e+00  -5.7859685734974325e-03 1.3505612686134883e-03 -6.0326179160995188e-03  -5.1708825950216022e-03 -6.0149870526831436e-05 -5.5748986386709963e-03  -5.5018182790890777e-03 -1.1274321098103353e-03 -5.9197511612834718e-03  -2.9063163632431703e-03 1.3877006133351341e-04 -3.7578885926912269e-03  -4.4188948522441414e-04 -1.7804701411012181e-03 -2.5904540825046874e-03  -8.1682925717389901e-03 5.0102392941628738e-04 -1.1111569992906772e-02  -7.1436732475763263e-03 3.4888739462980408e-04 -9.0353340240164563e-03  -8.0191317728543644e-03 1.0054411075715722e-03 -9.6023666364770457e-03  0.0000000000000000e+00 0.0000000000000000e+00 0.0000000000000000e+00  -6.9804924936423766e-04 -1.4724828380256699e-03 -3.3686781358144252e-03  -1.2264152887461455e-03 -1.6977537480717183e-03 -4.3937178778707580e-03  -2.8046789580669427e-03 2.5829110341608116e-04 -4.9891658693602863e-03  -2.3790199785419987e-03 -1.7109233587007174e-03 -6.1711332835293828e-03  -1.0696594018105144e-02 7.3503632701529906e-03 -1.6833453155032815e-02  -1.1713628639032959e-02 4.8669462660541288e-03 -1.5492889683116717e-02  -1.2469957357833806e-02 7.0408959977029230e-03 -2.1452283421547470e-02  -1.2412733795190341e-02 6.3942693298559630e-03 -1.9209211235004114e-02  -6.3764648206387905e-03 1.9276356106128726e-04 -1.3697164034894970e-02  -5.6339378747887121e-04 -1.1374516486211946e-03 -1.0078732679897919e-03  -1.8346461856007376e-03 2.2424519412565086e-04 -1.7873511393804136e-03  -4.3504331282340812e-03 -1.9656725256602848e-04 -5.1488993782813465e-03  -3.0907860864432288e-03 -1.8478359789197150e-03 -6.3208912784493820e-03  -2.9780552690267768e-03 -1.9548731452833719e-03 -3.3493932805466367e-03  -1.0302807933570879e-03 4.7079039853700620e-04 -1.7357021760855864e-03  -1.8173389448955183e-03 3.3009988316585228e-04 -3.2014457289398159e-03  -9.7902885041011782e-04 2.5649495757814201e-04 -1.3336818953913491e-03  -1.9143007268610040e-03 2.6453918808235969e-04 -2.6262052508787838e-03  -2.5264455462996982e-03 4.1250833851300379e-05 -2.4561392705689665e-03  -5.1317063469644179e-03 -8.4384411009149447e-04 -5.9165167661196201e-03  -2.9145575813815058e-03 2.0692422681868567e-04 -7.0003118973253073e-03  -2.9245108205995535e-03 1.2365127696358424e-04 -8.3072123291688515e-03  -2.7122906346094848e-03 -3.4359939073358751e-04 -6.6114797934671626e-03  -3.7089466873330180e-03 -1.8918991294420765e-04 -8.5679839080227624e-03  -5.7246103137127853e-04 2.3127883526519047e-04 -1.2240868170069865e-03  0.0000000000000000e+00 0.0000000000000000e+00 0.0000000000000000e+00  2.6735742160350739e-04 -4.8881547348525673e-04 -3.5855892636358467e-04  0.0000000000000000e+00 0.0000000000000000e+00 0.0000000000000000e+00  -5.9460455235761794e-03 9.1371763622383488e-04 -1.5491836905936404e-02  -2.9507450914198542e-03 -5.4236820402065117e-04 -3.0355297553177050e-03  -4.1827901458266672e-03 -1.0968152750335716e-03 -4.8122477125553814e-03  -8.9763352364874381e-05 -1.4430789479515519e-03 -1.5397497054686778e-03  0.0000000000000000e+00 0.0000000000000000e+00 0.0000000000000000e+00  6.4603800711998080e-05 -6.2042246893350612e-05 -2.8047196091617205e-05  -1.2675256911778066e-02 7.2529498811904911e-03 -2.2187684887909634e-02  -9.8823104281233424e-03 8.4249643631300070e-03 -2.5690620464224118e-02  -7.0297364166543733e-03 5.6876172174849110e-03 -2.6013954149426022e-02  -1.0630503424918926e-02 5.9246626540768324e-03 -2.0869482680926876e-02  8.7206313561109808e-05 -1.5745207563323291e-03 -1.8654278677937436e-03  -1.0441741117832371e-03 -1.6700673307732707e-03 -2.3356091048666160e-03  -3.8156590690195695e-03 6.5545088188683254e-05 -6.9451982298811442e-03  -2.4566512490054536e-03 -1.2372128335268978e-03 -6.1262633861998298e-03  -3.3701340525850152e-03 -1.8540198252123240e-03 -7.3487036118229541e-03  -9.6293980039849770e-04 -1.7804932823994681e-03 -2.7300451230995097e-03  3.9628461206613427e-04 -4.8556829059735377e-04 -2.3747966712404824e-04  0.0000000000000000e+00 0.0000000000000000e+00 0.0000000000000000e+00  2.6275405634181779e-04 -9.4880750170614687e-04 -6.5507833367026971e-04  7.5260771668777076e-05 -1.3625855878467949e-04 -1.9733880760757738e-05  0.0000000000000000e+00 0.0000000000000000e+00 0.0000000000000000e+00  2.4649765565429538e-04 -5.1011709899286537e-04 -2.6716323835529449e-04  -1.1857299419454553e-02 6.0838827702505418e-03 -1.2745200506769690e-02  -4.4048357947410180e-03 -2.2025528550531272e-03 -5.0241129180570929e-03  -1.0235875198759900e-03 3.0198956922658813e-04 -1.9303713746491975e-03  0.0000000000000000e+00 0.0000000000000000e+00 0.0000000000000000e+00  -1.5272295687305537e-03 -2.0482382880821714e-03 -4.2299174883003825e-03  0.0000000000000000e+00 0.0000000000000000e+00 0.0000000000000000e+00  0.0000000000000000e+00 0.0000000000000000e+00 0.0000000000000000e+00  0.0000000000000000e+00 0.0000000000000000e+00 0.0000000000000000e+00  9.9660178951513064e-05 -1.9451000585934112e-04 -6.3629817718674996e-05  0.0000000000000000e+00 0.0000000000000000e+00 0.0000000000000000e+00  -3.4936761032128951e-03 -1.4977527804805701e-03 -7.9840829755013672e-03  0.0000000000000000e+00 0.0000000000000000e+00 0.0000000000000000e+00  0.0000000000000000e+00 0.0000000000000000e+00 0.0000000000000000e+00  0.0000000000000000e+00 0.0000000000000000e+00 0.0000000000000000e+00  -9.4840009657335810e-03 3.1923938107154396e-03 -2.0228517965855279e-02  1.9018582938310150e-04 -1.0302663320563568e-03 -6.7504105310367795e-04  2.3857197922819596e-04 -6.3816150239932553e-04 -2.4184893825462408e-04  0.0000000000000000e+00 0.0000000000000000e+00 0.0000000000000000e+00  -1.8814835444570359e-03 -2.0390073480329556e-03 -4.4575046353017029e-03  -5.7507918878924166e-03 7.7229496359864963e-04 -1.3222874114204735e-02  0.0000000000000000e+00 0.0000000000000000e+00 0.0000000000000000e+00  0.0000000000000000e+00 0.0000000000000000e+00 0.0000000000000000e+00  -1.0752458284641823e-02 3.7309664840525399e-03 -1.6848682650368201e-02  -8.0422503292551430e-03 5.6346220618735292e-04 -1.5823272224093323e-02  -8.0128385252980043e-03 1.6425826804171983e-03 -1.9093021673260328e-02  -3.9549048934654800e-03 2.5067737946542922e-04 -1.0780007337058483e-02  -8.1665744833014017e-03 2.4874918588590653e-04 -1.6340588714413705e-02  -8.4079599125036486e-03 3.7460766010750999e-04 -1.4607253164984445e-02  0.0000000000000000e+00 0.0000000000000000e+00 0.0000000000000000e+00  0.0000000000000000e+00 0.0000000000000000e+00 0.0000000000000000e+00  -8.7119476142799180e-03 2.6678075715965686e-03 -2.0049752210452618e-02  -2.0829167326766032e-03 1.7521214846543174e-04 -6.0075709776529684e-03  -2.8025639672549806e-03 1.5213672031667743e-04 -3.9589209448985816e-03  0.0000000000000000e+00 0.0000000000000000e+00 0.0000000000000000e+00  0.0000000000000000e+00 0.0000000000000000e+00 0.0000000000000000e+00  0.0000000000000000e+00 0.0000000000000000e+00 0.0000000000000000e+00  0.0000000000000000e+00 0.0000000000000000e+00 0.0000000000000000e+00  -1.8667221479429438e-03 -8.8527131369225232e-05 -1.5311141630501509e-03  -7.2356666182978625e-03 1.4486500222240999e-04 -4.9880594656399931e-03  0.0000000000000000e+00 0.0000000000000000e+00 0.0000000000000000e+00  -1.7198550403714177e-02 7.7994416056415047e-03 -1.6754557289588603e-02  -1.3392860422433771e-02 6.8024301309097110e-03 -1.3666559585664026e-02  0.0000000000000000e+00 0.0000000000000000e+00 0.0000000000000000e+00  -2.2968357101125689e-02 1.0354186059648041e-02 -1.3575207955252478e-02  -1.5580825264707719e-02 6.6648807917682124e-03 -1.1672112261958361e-02  </DataArray> 
</PointData> 
</Piece>
</UnstructuredGrid>
</VTKFile>