<?xml version="1.0"?>
<VTKFile type="UnstructuredGrid"  version="0.1"  >
<UnstructuredGrid>
<Piece  NumberOfPoints="273" NumberOfCells="712">
<Points>
<DataArray  type="Float64"  NumberOfComponents="3"  format="ascii">3.178377778760381 -22.0617949701974 -7.130911088318498  2.255644089627927 -21.88311290039416 -6.820578468213211  2.190941232963611 -22.38872478521702 -6.882718309486916  2.645419304347559 -22.2193814638776 -6.407315449728888  3.904833891976974 -23.22452155591959 -7.013880121832054  3.437245740861863 -23.09015054569531 -6.123125348717247  3.942275984555355 -23.12605042178666 -5.959305035612525  3.639219363482318 -23.64869139950864 -6.292705847948387  2.700370710583906 -22.60414960978331 -7.674880316357992  1.794190529075633 -22.42445834764653 -7.380760829179206  2.100259896147992 -22.91531823306536 -7.116911796337809  3.045941600412773 -22.58296613121339 -7.302017801114648  5.603121696176738 -23.5004374003105 -8.747130843307209  6.247114351301622 -23.97202120980169 -9.304715430531891  6.254267002960027 -24.23630153312689 -8.724466876098784  5.894372824182486 -24.33041979007339 -9.116612536020556  4.416895036850817 -24.04101622503198 -9.201327598685811  4.685590376464639 -24.70351112744564 -9.489624735382341  4.860212828692302 -24.83063156731207 -8.891589316128224  4.202849806697139 -24.87218337246795 -9.076541610673619  2.749479320418956 -22.08840311355715 -7.573819155151391  2.393788994769574 -22.18864266308192 -8.039579298881298  4.586928803878835 -22.1893933825009 -6.649865782291235  4.505265304725095 -21.39533476507163 -5.721151107244297  4.922024804388521 -21.79622609031511 -5.61455836939176  4.475522493948287 -22.13641161116613 -5.666793638608587  5.417929102205104 -24.08551622877524 -7.272132024805344  5.370609793872486 -24.15203198730803 -7.823172187521597  5.735591386654454 -24.77916918140249 -7.862108631137554  5.340846852397717 -24.82485559188443 -7.213717935640955  4.0946489946239 -24.03939901167745 -7.555816258414277  4.229445174457412 -23.67929712398506 -7.113976456800948  3.61378015128821 -24.19181688219821 -6.799915038205498  4.17178628774723 -24.54402938188118 -6.965216046448396  3.179964715067068 -23.72777109266065 -6.62981732131955  5.025839766637469 -22.85310007569419 -6.626868525440457  4.877397942322109 -23.4766319386699 -6.797435093741938  4.462574440227718 -23.19996526283042 -6.822554452789778  4.359546307502494 -23.37489481011981 -5.923004868767725  2.567954535202297 -21.48912427998414 -6.537160469046198  3.042917448445417 -21.77050716646565 -6.120451266444537  1.417235226172328 -21.44588612988055 -7.998589992381127  1.722212335554235 -20.9185891871299 -7.989123332384262  2.247664941963579 -21.7466351754548 -8.332010737934315  1.819878149843771 -21.34396347297507 -7.677756283553217  5.280566069701267 -23.99666782124243 -8.383714306775474  5.709589571218558 -24.62217395527089 -8.637186747793368  6.141791085067208 -24.49353809643006 -8.22910083253417  5.133233825173192 -24.88329937536128 -8.345599616937321  5.249416444809825 -24.76115039794934 -8.785955237314557  5.364270174606744 -23.49859479099484 -9.145976360632156  5.676476154377278 -24.19193359223704 -9.709097127150478  3.445156310504511 -23.49297098800029 -10.87017416181279  3.805809772705108 -23.73342539037434 -10.43060301778494  4.01312509847931 -23.16982305078806 -10.8746758686777  4.197707207232381 -24.04776421845763 -11.20600299943182  5.511252173189373 -23.22899316611035 -6.724925924420423  5.874280889171209 -23.59748706112398 -7.143267798582686  5.364074496677821 -23.76224211257603 -6.890185645631798  5.83317630507663 -24.0418219705534 -5.994551677559631  5.792818414658239 -23.88984788822853 -7.603098545944753  3.122775941966716 -22.27648981471875 -6.086205028903156  4.67545376114959 -23.84290025716948 -9.465580375944754  4.560842395565825 -24.48405169834487 -10.18152155029521  5.138096741164757 -24.42835194106441 -9.796412043577043  5.944675390037507 -23.08755746187373 -8.470570171706671  6.59817248656006 -23.81951059778914 -8.90227790961481  6.642215645919975 -24.025908878571 -8.305049417465012  4.126646872529558 -23.82254560960736 -10.06462369370428  3.889067542281131 -24.62636077183776 -10.27322329403802  4.063829614342013 -24.35280061238495 -10.78495153364135  3.615631343359638 -23.91245708467364 -7.721103194694  3.188628951990854 -24.14965891736695 -7.076774686149832  3.46055144091093 -24.52671548656323 -7.462533993679599  2.967732222200496 -22.95609673478576 -7.504603219796785  2.431992609550637 -23.39013189469179 -7.022208314078731  2.5273009899641 -22.94357955722817 -6.671185079761262  1.392957682539901 -24.19321906140986 -8.905212182384551  1.950051087936655 -23.66207331848427 -9.024109125080244  1.913046884597941 -24.25137340528187 -8.389878346340174  1.583781968309855 -23.87138416345428 -8.236126237186234  4.204960012681579 -23.9876799865931 -9.587235227024228  3.643349257742141 -24.04945658030163 -9.828705181888786  2.743872660631074 -21.70743773676963 -7.652036735345302  2.502109966415692 -21.5643005586992 -8.098689652905204  2.130478689406992 -20.9487364973249 -7.470930470645854  2.14879033219562 -21.45395779291961 -7.096163598220736  2.941576753831757 -21.21805431039522 -7.546050792978929  2.427724300217872 -21.03881382006296 -6.873247553083461  4.196773888126583 -21.61137669953353 -6.738288661889509  4.038509668836983 -21.73877246592469 -5.755730291866818  4.008770524079254 -20.97395551519297 -5.913889369687327  2.728280677441483 -23.93648686204278 -8.574729212027565  2.237418069619991 -23.52978267249958 -8.584651372170921  2.748866062707636 -23.58886756998515 -8.135458111821873  2.239167476721451 -24.09853037468644 -7.845006062098705  2.833454554456916 -23.83024637824016 -7.014609312793849  2.330258464723333 -23.75755642533009 -7.417637501543055  4.047993065955598 -24.77095876115979 -9.689151958957508  4.790268738422331 -23.61139957577412 -5.893790442507134  2.507459518885212 -24.67357148963754 -10.15956011483011  3.142765934090209 -23.92733466117265 -10.36885381093614  2.457048617942866 -23.86021339699178 -10.44802974958272  2.506867421975338 -24.04849295674126 -9.965959515792145  6.088213290449499 -23.22057942525503 -7.599094254067255  6.774198493526658 -24.02757941191815 -7.722863986998374  4.082201244802886 -24.20249581316136 -6.517033985322356  5.878339262952728 -23.58254478826929 -8.098996777572077  3.889170618573049 -24.16817572337615 -9.16840591877051  3.392883184664452 -24.21683007501224 -8.731123628915576  3.331132957245117 -24.17951466570642 -9.344126708422611  3.613198256222031 -24.85086864329532 -9.237512946097603  3.440536691139334 -24.79804263827715 -9.71135231194906  2.894907032993314 -24.76628946311509 -9.652799287296522  3.134599054442653 -24.80428683002319 -9.286939302705283  2.955737298327631 -24.13244975275435 -9.711840588121227  1.824922638861273 -23.53806736824303 -7.74537725096469  2.408726323304053 -22.97187299818791 -8.112890573787785  3.961690291692567 -24.24228849255377 -8.195028986583972  3.709009794755638 -24.87797633383664 -8.649678145989514  3.872357977120775 -24.83651066976477 -8.0339280302424  4.429835107783741 -24.92898396713027 -8.45795637910331  4.963049081813395 -23.88498839573523 -8.995038852501217  4.678091567457633 -24.20356328764724 -8.455862897553123  3.398883002953218 -21.63860543061157 -7.002497635416444  3.524134960385796 -21.39276278729847 -5.937655365119686  3.081156856545773 -21.2486105026039 -6.180385244376556  1.2026697706783 -22.02215643902994 -8.040407403434578  1.602897569067765 -21.96977055085277 -7.671065442650911  1.972494181324125 -22.21791844770726 -8.477337807727666  5.23268673275741 -22.08478379280013 -6.675159169006256  4.948090951088696 -22.53489720628881 -5.602210063874502  5.421442132906417 -22.1104680221135 -5.569660422761777  3.131094843355604 -23.46653667623378 -7.668445242694933  4.256675694064164 -21.18178480613704 -6.816140886994862  3.739359629774263 -21.30149987399399 -6.90087102473735  5.714690208341326 -22.57564259486327 -6.845021520411632  5.954228302431035 -23.08633192191134 -7.086045870075101  6.997265257430141 -22.3678475733681 -6.733803425953494  6.827073659637616 -22.78152720166831 -6.325394402668277  5.57309000999248 -22.6180344496952 -5.563875847030145  5.180747185575364 -23.07578454527146 -5.645125186020694  5.677203257896907 -23.1123376767675 -5.627957133465015  4.021550514009765 -23.81285097286162 -11.59438194502151  7.032774397256034 -23.01889171061851 -6.757758625534038  6.953304752680821 -23.63979684800213 -6.879635668614462  7.122681209602206 -23.23001676107234 -7.34838402526961  3.375260817843674 -23.03242755205724 -7.202756007794844  2.795105618406932 -23.44608066020459 -6.716831036083211  2.855815760010182 -24.14516333647915 -9.150492164791723  3.195076012054535 -24.80609502203591 -8.810683244991834  4.855231495069664 -23.93525525442148 -7.075987552126129  4.870160954846807 -24.63377215344582 -6.76460522935447  4.982825951756071 -24.43753644505113 -6.421189507157198  4.701169800927407 -24.27851885410515 -7.865011402673423  4.550749024797118 -22.89430557786454 -5.743860611080607  4.138869080730781 -23.78357449577349 -6.165218450923373  4.598116229115107 -24.25777606953696 -6.346704040144058  3.038760392467873 -21.68088410073746 -7.281901895061821  4.068941473430153 -22.22241679244583 -6.751803319180245  4.265938481287603 -22.71985923418147 -6.766573299218587  3.508793772107371 -22.62889061617824 -5.971928742024861  4.048427399561873 -22.47990023485227 -5.788485336336706  3.655384876647852 -23.5911441515964 -7.35500378787952  6.583813788095608 -23.13494000659217 -6.014929586204851  6.455161293736513 -23.63549034018864 -6.022452551752059  4.919647504563558 -24.22387115184934 -7.509647301414244  4.689864987118257 -24.81772960650696 -7.354617947568183  5.116130314169823 -24.90661744183224 -7.767283803846526  1.049967174860507 -22.63956426904544 -8.157063596403331  1.636051034920813 -22.72569903968769 -8.822151780718087  2.009752187663515 -22.91165052826809 -8.487062959667938  2.01771442827246 -24.6097551449849 -9.817638258361143  2.01512411649816 -23.90937902862349 -9.54024653093153  2.082918791379021 -23.89610465977356 -10.07153813082331  2.491772064445409 -24.49095383942203 -8.231545931974269  2.837615627896248 -24.43859842937301 -7.784229287244114  6.346301585176146 -21.88772961355072 -6.013988645239376  5.963948819468122 -22.13356214041491 -5.689621715968727  6.040505368023476 -22.49741263813509 -7.453451470030032  7.167114519273733 -22.65518933961077 -7.261011506787341  7.094773650829298 -22.00814670942219 -7.19327521208594  7.19450486210195 -22.23528122452835 -7.750452365189297  4.352474057603319 -23.50958088360304 -10.35691859978404  6.964471783473897 -23.74389173978775 -7.392520726132408  3.017272169144612 -22.73554863460389 -6.225791823436009  3.882383893836131 -24.25002869276605 -8.67793927113607  3.218718274798909 -24.72932825216213 -8.186784819338163  5.325633130188843 -24.58278015084982 -9.229544897664153  3.699154149127193 -21.99876556920895 -6.847314994503975  3.531284903588138 -22.04236383733106 -5.890777369332164  6.127220538261473 -24.44896538349757 -6.498873680806401  5.442603103588872 -24.57059470583117 -6.52662155414841  6.387741170374529 -24.42478618945193 -7.756335207621882  6.65469807296672 -24.23163344859829 -7.083409616875527  4.768198509494408 -21.52091256259044 -6.722217063382269  2.632857404721751 -24.71060696564616 -9.056393972616434  2.450115105401923 -24.70116714651692 -9.588225664197674  2.194585624686744 -24.62522212969961 -9.27079285483952  5.344683419810646 -21.59386712420633 -6.876501111976298  5.576246250269708 -21.19393030283585 -5.842580934012233  5.991136320095528 -21.50920286474444 -5.901756877481338  5.881687023405188 -20.87646382195272 -6.175977517875969  6.092603139941087 -22.82858518226996 -8.039612367102794  7.134754829224261 -23.00291929421086 -8.314654538239658  7.037531532356883 -23.49581677457172 -7.981359918891664  7.198587388918468 -22.82158585146436 -7.820509696438979  5.12322915960904 -23.43273823906606 -9.624549410518993  4.572265569767294 -24.91038463946952 -7.89765325491035  2.48236722805843 -24.08794413003459 -9.542917958190449  6.024005936836829 -24.68136186568231 -7.136230927796885  4.730117057958302 -20.88918046489389 -5.855291363361657  2.790889229145846 -24.15251094777452 -7.410627750507928  3.07124164258078 -23.26696630230194 -6.394126638354039  4.078886441269277 -24.74596289979424 -7.535223388539257  2.770129505410867 -24.55145464229004 -10.6973055886586  5.47303718395824 -23.58657503326922 -5.760531968435124  3.567222452565436 -22.53647786350388 -6.955044070950414  6.837020017636823 -23.38887882803586 -6.387950354194612  5.201582484558871 -24.13603308106829 -6.087514791821754  6.608141304773724 -23.97971230649259 -6.396223804735558  6.464868651367894 -22.4393085973197 -5.957416394811203  6.683462559964639 -22.07877441836094 -6.309121148997411  3.622342059149372 -24.15606766763648 -11.31481651418123  3.344430658038322 -23.83414287024602 -11.80194611976169  2.958525410135312 -24.10136701469131 -11.53135889060255  3.162761282200582 -24.41639644842618 -10.98520312795209  2.82760588510813 -23.63231445423168 -10.82415053366788  2.05460309675284 -23.3110929090939 -7.368950180918501  4.571431173067108 -23.70113754453053 -9.890249989435665  4.723202590368953 -24.06358166948638 -10.84104217448772  3.240655298317398 -21.22531960854128 -7.201190999731819  3.101665002843511 -20.81587261280856 -7.559128505406725  2.877209925844105 -20.81102858807751 -6.486955429106404  2.559763503298876 -20.54820978633963 -7.039267569461964  3.504377477447729 -20.784610548663 -7.194217188364114  3.233980762343183 -23.97730922058799 -8.130223026844051  2.751317846016966 -21.08438048145265 -7.985247747441571  3.457902422959121 -20.8231446473833 -6.134872621609173  1.945247394800069 -21.90752073389727 -7.239406711992743  4.502792682278957 -24.0923019517373 -7.393210237696556  2.173810213497151 -22.58993705425426 -8.272866412007637  1.413374131174573 -22.56729716340177 -7.806142406029503  1.175922595980431 -23.24803362677121 -8.201351029223884  1.815057088547893 -23.25584512263282 -8.821493293453699  3.159610579586335 -24.70707799667333 -10.20946190958793  6.94022454269304 -23.39979023994564 -8.670269290138869  5.150061855339271 -24.17941413879564 -10.29877365472656  3.451244160785174 -24.51352499252963 -10.72008458742137  2.336172792740051 -23.94320286069737 -9.039072830033676  1.698752451393507 -24.46888459584507 -9.31330370620835  1.629464437792191 -23.50134820498183 -9.334951003635954  1.722543142156206 -23.0027425479914 -7.577679561302799  2.060182108894425 -24.5586913491734 -10.40443241057531  2.765619091656186 -23.13668467166495 -7.807549614601865  2.309997633274229 -20.44687690072011 -7.65585297722459  5.285452577153862 -20.79203245946916 -5.951469006829858  5.101539595608474 -21.26278172876779 -5.72550245915243  5.772467941031699 -21.84473794936206 -7.213654046945763  6.401169742695981 -21.38152603648906 -6.326334114469597  6.811127511291116 -21.64648680711698 -6.7345595197609  5.554963011390425 -21.66085072470553 -5.668395527717355  3.088196364848983 -23.18832783981997 -11.15354489903187  6.103257695530985 -22.81093924879073 -5.691503122946433  6.064527635971181 -23.40828046335456 -5.761127914198886  3.518332632171213 -22.94721929687111 -11.19562145330849  4.313063704652422 -24.18915953171953 -8.784457845454128  7.162523293268598 -22.38319623418406 -8.363273834244554  1.609788112413418 -24.48023301568488 -10.02345164841823  2.13388879402975 -24.52040423104273 -8.788903038526701  2.740163946584545 -24.68057050152005 -8.593080817910902  1.121846112614185 -23.74029034516053 -8.589502698682454  2.365235208336783 -21.17227195535158 -8.487465239925085  </DataArray>
</Points>
<Cells>
<DataArray  type="UInt32"  Name="connectivity"  format="ascii">0 1 2 3  4 5 6 7  8 2 9 10  0 11 2 3  12 13 14 15  16 17 18 19  20 21 8 9  22 23 24 25  26 27 28 29  30 31 32 33  4 7 32 34  35 36 37 38  0 39 3 40  41 42 43 44  45 46 14 47  45 46 48 49  50 13 51 15  52 53 54 55  56 57 58 59  60 26 27 28  0 3 61 40  62 63 17 64  65 66 14 67  68 69 70 63  71 32 72 73  74 75 10 76  77 78 79 80  81 82 68 69  0 1 39 3  83 84 44 85  0 20 1 2  83 86 44 85  87 83 86 85  87 86 88 85  89 90 91 23  92 93 94 95  74 96 75 97  81 82 69 98  35 56 36 99  100 101 102 103  57 104 60 105  31 106 7 32  104 60 107 105  108 109 110 111  110 112 113 114  110 115 112 113  93 94 95 116  93 94 117 116  94 117 116 97  118 119 120 121  122 123 18 49  122 45 123 49  124 125 40 126  127 41 43 128  129 127 43 128  130 131 132 24  74 133 96 97  89 134 135 91  136 137 138 139  35 140 141 142  143 52 54 55  137 144 145 146  74 147 96 148  11 8 2 10  149 110 114 150  27 46 48 28  11 2 3 76  151 26 152 153  154 45 123 48  37 6 155 38  36 156 106 157  158 86 39 88  159 160 161 162  160 161 6 162  163 133 96 72  137 56 164 165  166 154 167 168  160 5 161 6  129 169 170 171  172 173 103 174  94 175 95 176  124 39 40 126  136 130 177 178  147 96 148 34  179 180 181 182  53 183 68 70  57 104 105 184  0 185 3 61  109 150 111 119  108 186 109 111  186 109 111 119  109 150 119 187  118 109 119 187  122 45 188 49  89 189 159 190  26 58 191 192  107 47 67 193  57 105 194 184  163 4 32 34  0 20 11 2  195 130 22 24  149 196 197 198  21 43 128 44  199 200 201 202  203 204 205 206  93 171 117 116  122 207 51 64  122 45 188 15  118 208 120 121  45 46 188 49  57 58 59 191  107 14 47 67  209 149 197 198  12 50 13 15  122 17 188 64  22 159 160 162  60 193 105 194  60 193 194 210  134 91 23 211  133 96 97 212  53 183 70 55  118 186 119 121  118 186 109 119  65 107 14 67  123 48 18 121  147 5 213 185  36 37 31 156  154 118 214 208  57 26 191 210  154 208 167 168  74 148 75 76  159 90 190 162  163 32 34 72  71 163 133 72  215 100 101 102  35 141 216 99  130 22 35 131  35 56 216 99  22 35 131 155  163 147 4 34  36 156 99 38  147 217 5 185  56 58 216 59  137 218 144 145  137 57 218 145  36 219 157 153  57 191 194 220  104 146 180 206  136 221 177 178  136 222 221 177  223 52 224 225  147 11 217 185  151 36 106 157  226 215 101 227  74 75 228 97  183 229 230 63  231 232 233 234  231 232 235 233  82 110 115 112  236 175 187 176  92 94 175 95  83 237 84 85  89 159 90 190  124 158 231 39  135 238 125 126  21 83 239 44  42 84 44 85  158 87 83 86  151 157 152 33  60 27 28 47  240 152 33 167  151 166 26 152  166 240 154 167  149 113 196 197  129 171 241 242  243 244 171 80  244 93 78 80  163 147 96 34  74 147 11 76  82 112 245 69  65 66 246 67  229 207 247 64  82 245 69 248  249 209 173 198  250 251 173 78  172 209 173 103  250 77 251 78  16 17 19 98  81 63 17 98  129 169 171 242  171 241 252 242  195 89 22 23  240 30 31 33  58 219 216 59  26 28 210 29  26 152 192 29  136 130 35 140  56 57 165 59  137 56 57 165  189 124 125 40  100 172 103 253  8 117 9 252  215 101 227 102  74 147 133 96  133 94 254 97  249 93 78 79  87 234 255 85  250 249 173 198  179 180 138 181  166 27 29 168  57 165 59 220  104 205 105 184  87 83 237 85  147 213 148 34  0 217 185 61  109 149 110 150  195 211 256 257  179 136 138 222  133 94 97 212  136 164 139 221  166 240 152 167  231 88 233 234  130 22 131 24  137 218 164 165  108 82 110 112  118 123 208 121  101 103 115 245  45 27 46 48  179 104 203 206  108 111 19 98  12 122 50 15  258 259 260 222  94 95 212 176  71 187 73 176  151 166 240 152  137 218 164 139  151 36 157 153  199 130 261 257  159 161 190 162  60 107 47 193  104 203 107 205  37 6 156 38  166 152 167 29  122 17 18 188  21 129 43 128  223 226 52 225  226 52 227 225  124 231 39 126  136 138 139 222  258 259 222 177  89 90 125 190  199 201 259 177  130 140 132 178  89 134 91 23  35 56 142 216  179 136 137 138  57 26 58 191  8 9 10 252  104 145 146 184  52 262 224 225  163 4 31 32  12 107 45 14  172 250 173 198  137 144 138 139  189 61 190 40  56 164 263 264  30 32 33 73  12 122 45 15  122 50 51 15  57 60 26 210  163 147 133 96  223 53 70 55  137 104 145 146  209 149 115 113  115 112 245 113  45 46 14 15  110 112 114 111  20 8 2 9  52 265 262 224  217 5 185 161  217 185 161 61  4 213 7 34  151 31 106 33  151 36 31 106  151 106 157 33  241 117 9 252  22 131 25 155  22 25 155 162  117 116 228 97  254 117 228 97  60 107 193 105  60 28 193 210  130 261 132 178  20 239 2 9  129 169 127 242  21 239 128 44  93 171 116 80  21 239 128 9  158 83 1 86  135 231 233 126  151 240 31 33  122 18 188 49  107 67 193 105  22 90 23 25  35 141 142 216  56 216 59 264  56 142 216 264  118 119 120 187  147 217 4 5  22 35 160 155  36 219 99 157  179 203 206 182  35 160 37 155  160 6 155 162  130 35 140 131  130 261 132 24  199 130 201 177  243 169 171 242  118 266 186 121  266 123 18 121  163 30 31 32  107 205 67 105  57 104 145 184  258 136 222 177  189 0 124 40  101 82 115 245  16 266 122 18  71 236 187 176  102 103 174 253  53 68 69 70  56 164 165 264  203 204 206 267  151 240 152 33  243 171 252 242  243 171 116 80  94 95 116 97  89 90 91 125  199 195 130 257  71 118 236 187  226 215 101 248  53 69 70 248  215 101 245 248  101 53 82 248  158 231 39 88  158 231 87 88  172 174 268 253  74 147 148 76  0 11 217 185  71 163 30 32  57 145 194 220  35 56 263 142  81 68 69 63  58 219 59 192  57 191 194 210  266 122 123 18  58 59 191 192  35 37 155 38  35 99 155 38  137 57 104 145  65 203 107 205  110 114 150 111  108 266 186 19  199 261 200 257  199 256 200 202  249 92 79 269  92 175 79 95  249 78 79 269  109 150 270 187  77 78 79 269  250 77 78 269  183 68 229 63  183 68 70 63  183 230 70 63  229 230 247 63  189 0 217 61  100 101 103 245  243 171 116 252  143 52 265 54  215 100 101 245  199 261 200 201  179 180 206 182  271 244 78 80  223 53 70 248  52 101 53 248  250 249 78 269  226 52 101 248  223 52 53 248  22 90 25 162  223 226 52 248  35 141 99 155  22 131 24 25  22 159 90 162  104 203 205 206  93 95 116 80  118 266 123 121  71 133 212 72  31 106 32 33  35 140 131 141  81 16 17 98  62 122 17 64  0 11 185 3  147 11 185 76  118 214 120 73  154 214 208 167  118 120 187 73  154 30 118 214  118 214 208 120  31 156 106 7  108 82 112 98  117 116 228 252  94 254 117 97  8 228 10 252  8 254 117 228  8 117 228 252  26 191 210 192  104 107 205 105  60 26 28 210  57 60 194 210  258 199 130 177  130 261 201 178  199 201 259 202  199 130 261 201  258 199 259 177  189 0 61 40  89 189 125 190  189 161 61 190  60 28 47 193  77 271 251 78  271 251 244 78  135 233 238 126  195 89 134 23  241 128 9 242  108 112 111 98  154 45 27 48  166 26 27 29  166 154 27 168  154 27 48 168  27 48 28 168  143 223 52 55  143 223 52 224  143 52 265 224  183 230 70 55  20 83 239 1  20 239 1 2  20 21 239 9  62 229 207 64  62 122 207 64  93 78 79 80  236 175 270 187  74 254 228 97  231 87 232 234  92 93 79 95  93 79 95 80  42 237 272 84  42 237 84 85  151 36 58 153  36 58 219 153  42 237 272 255  107 45 27 47  60 107 27 47  27 46 28 47  45 27 46 47  42 237 255 85  41 43 128 44  129 127 128 242  89 135 91 125  231 39 233 126  107 45 14 47  27 28 29 168  26 210 192 29  149 113 114 196  108 110 112 111  108 186 111 19  231 39 88 233  135 124 231 126  154 48 208 168  123 48 18 49  104 146 205 184  160 217 4 5  179 104 180 206  83 239 1 86  258 179 181 260  137 144 146 180  137 104 146 180  179 138 260 222  0 124 39 40  0 124 158 39  57 60 105 194  81 68 229 63  244 93 171 80  147 213 148 76  11 2 10 76  166 167 29 168  56 165 59 264  151 26 58 153  179 138 181 260  36 156 99 157  35 36 99 38  163 96 34 72  240 214 33 167  240 154 214 167  240 154 30 214  62 229 63 64  241 9 252 242  21 83 84 44  243 169 170 171  130 140 131 132  82 112 69 98  149 150 196 270  71 30 118 73  240 30 214 33  92 175 79 269  160 217 5 161  160 37 6 155  195 23 211 257  215 100 102 253  137 57 218 165  130 261 257 24  123 48 208 121  172 173 174 268  103 115 245 113  172 209 103 197  186 111 119 19  71 212 73 176  21 84 43 44  172 103 174 253  195 134 23 211  195 22 23 24  195 23 257 24  179 137 104 180  87 237 255 85  74 11 8 10  87 237 232 255  11 185 3 76  45 123 48 49  36 37 156 38  22 160 155 162  122 50 207 51  151 157 152 153  36 31 156 106  160 4 5 6  12 45 14 15  266 18 19 121  62 16 122 17  83 239 86 44  171 241 117 252  149 114 150 196  249 92 93 79  172 209 173 198  71 133 236 212  136 56 164 263  35 140 263 142  136 35 140 263  136 35 56 263  136 140 263 178  136 130 140 178  71 212 72 73  81 69 63 98  71 236 212 176  30 118 214 73  30 214 33 73  118 109 236 187  81 108 82 98  16 108 19 98  81 16 108 98  57 218 145 220  57 218 165 220  58 219 192 153  136 164 263 221  137 218 144 139  195 130 257 24  158 87 86 88  136 139 222 221  109 149 92 270  209 149 113 197  133 96 212 72  94 95 97 212  92 175 269 270  92 236 175 270  249 149 196 198  109 92 236 270  186 119 19 121  62 81 63 17  53 82 68 69  266 186 19 121  53 82 69 248  136 263 221 178  136 137 56 164  171 117 116 252  16 266 18 19  16 122 17 18  158 1 86 39  71 30 32 73  71 163 32 72  147 213 185 76  207 51 247 64  4 31 7 32  35 131 141 155  37 31 156 7  37 4 31 7  135 235 233 238  77 271 78 80  271 243 244 80  20 21 83 239  20 11 8 2  231 87 88 234  89 22 90 23  0 158 1 39  122 51 188 15  45 46 188 15  56 263 142 264  4 5 213 7  21 241 128 9  129 241 128 242  258 136 130 177  136 137 164 139  87 88 234 85  223 52 53 55  147 4 213 34  147 4 5 213  104 146 205 206  21 129 241 128  258 179 136 222  130 201 177 178  189 159 161 190  243 244 170 171  109 236 270 187  250 249 269 198  109 149 150 270  249 196 269 198  57 145 194 184  57 59 191 220  89 22 159 90  26 152 192 153  26 58 192 153  87 232 234 255  53 54 183 55  89 189 135 125  101 82 245 248  189 135 124 125  189 125 190 40  135 231 235 233  135 124 125 126  166 26 152 29  71 118 187 73  109 110 150 111  62 81 16 17  226 52 101 227  133 94 236 212  82 115 112 245  94 236 212 176  100 102 103 253  100 172 103 197  52 262 227 225  16 108 266 19  62 81 229 63  258 179 260 222  203 206 182 267  160 37 4 6  159 160 217 161  249 209 149 198  250 249 173 78  172 209 197 198  229 247 63 64  74 11 10 76  172 250 173 268  135 91 238 125  189 159 217 161  189 217 161 61  56 58 216 99  56 36 58 99  58 219 216 99  36 58 219 99  122 51 188 64  42 84 43 44  42 272 84 43  65 203 204 205  65 246 204 205  0 158 83 1  0 20 83 1  100 103 245 113  100 103 113 197  209 103 115 113  209 103 113 197  65 107 205 67  65 246 205 67  154 123 48 208  154 118 123 208  74 75 228 10  74 133 254 97  74 8 228 10  74 8 254 228  149 110 113 114  149 110 115 113  179 137 180 138  137 144 180 138  37 4 6 7  37 6 156 7  21 8 117 9  21 241 117 9  74 96 148 75  199 195 256 257  199 256 200 257  249 149 196 270  249 196 269 270  249 149 92 270  249 92 269 270  94 236 175 176  92 94 236 175  12 65 107 14  12 65 13 14  65 13 66 14  </DataArray>
<DataArray  type="UInt32"  Name="offsets"  format="ascii">4 8 12 16 20 24 28 32 36 40 44 48 52 56 60 64 68 72 76 80 84 88 92 96 100 104 108 112 116 120 124 128 132 136 140 144 148 152 156 160 164 168 172 176 180 184 188 192 196 200 204 208 212 216 220 224 228 232 236 240 244 248 252 256 260 264 268 272 276 280 284 288 292 296 300 304 308 312 316 320 324 328 332 336 340 344 348 352 356 360 364 368 372 376 380 384 388 392 396 400 404 408 412 416 420 424 428 432 436 440 444 448 452 456 460 464 468 472 476 480 484 488 492 496 500 504 508 512 516 520 524 528 532 536 540 544 548 552 556 560 564 568 572 576 580 584 588 592 596 600 604 608 612 616 620 624 628 632 636 640 644 648 652 656 660 664 668 672 676 680 684 688 692 696 700 704 708 712 716 720 724 728 732 736 740 744 748 752 756 760 764 768 772 776 780 784 788 792 796 800 804 808 812 816 820 824 828 832 836 840 844 848 852 856 860 864 868 872 876 880 884 888 892 896 900 904 908 912 916 920 924 928 932 936 940 944 948 952 956 960 964 968 972 976 980 984 988 992 996 1000 1004 1008 1012 1016 1020 1024 1028 1032 1036 1040 1044 1048 1052 1056 1060 1064 1068 1072 1076 1080 1084 1088 1092 1096 1100 1104 1108 1112 1116 1120 1124 1128 1132 1136 1140 1144 1148 1152 1156 1160 1164 1168 1172 1176 1180 1184 1188 1192 1196 1200 1204 1208 1212 1216 1220 1224 1228 1232 1236 1240 1244 1248 1252 1256 1260 1264 1268 1272 1276 1280 1284 1288 1292 1296 1300 1304 1308 1312 1316 1320 1324 1328 1332 1336 1340 1344 1348 1352 1356 1360 1364 1368 1372 1376 1380 1384 1388 1392 1396 1400 1404 1408 1412 1416 1420 1424 1428 1432 1436 1440 1444 1448 1452 1456 1460 1464 1468 1472 1476 1480 1484 1488 1492 1496 1500 1504 1508 1512 1516 1520 1524 1528 1532 1536 1540 1544 1548 1552 1556 1560 1564 1568 1572 1576 1580 1584 1588 1592 1596 1600 1604 1608 1612 1616 1620 1624 1628 1632 1636 1640 1644 1648 1652 1656 1660 1664 1668 1672 1676 1680 1684 1688 1692 1696 1700 1704 1708 1712 1716 1720 1724 1728 1732 1736 1740 1744 1748 1752 1756 1760 1764 1768 1772 1776 1780 1784 1788 1792 1796 1800 1804 1808 1812 1816 1820 1824 1828 1832 1836 1840 1844 1848 1852 1856 1860 1864 1868 1872 1876 1880 1884 1888 1892 1896 1900 1904 1908 1912 1916 1920 1924 1928 1932 1936 1940 1944 1948 1952 1956 1960 1964 1968 1972 1976 1980 1984 1988 1992 1996 2000 2004 2008 2012 2016 2020 2024 2028 2032 2036 2040 2044 2048 2052 2056 2060 2064 2068 2072 2076 2080 2084 2088 2092 2096 2100 2104 2108 2112 2116 2120 2124 2128 2132 2136 2140 2144 2148 2152 2156 2160 2164 2168 2172 2176 2180 2184 2188 2192 2196 2200 2204 2208 2212 2216 2220 2224 2228 2232 2236 2240 2244 2248 2252 2256 2260 2264 2268 2272 2276 2280 2284 2288 2292 2296 2300 2304 2308 2312 2316 2320 2324 2328 2332 2336 2340 2344 2348 2352 2356 2360 2364 2368 2372 2376 2380 2384 2388 2392 2396 2400 2404 2408 2412 2416 2420 2424 2428 2432 2436 2440 2444 2448 2452 2456 2460 2464 2468 2472 2476 2480 2484 2488 2492 2496 2500 2504 2508 2512 2516 2520 2524 2528 2532 2536 2540 2544 2548 2552 2556 2560 2564 2568 2572 2576 2580 2584 2588 2592 2596 2600 2604 2608 2612 2616 2620 2624 2628 2632 2636 2640 2644 2648 2652 2656 2660 2664 2668 2672 2676 2680 2684 2688 2692 2696 2700 2704 2708 2712 2716 2720 2724 2728 2732 2736 2740 2744 2748 2752 2756 2760 2764 2768 2772 2776 2780 2784 2788 2792 2796 2800 2804 2808 2812 2816 2820 2824 2828 2832 2836 2840 2844 2848 </DataArray>
<DataArray  type="UInt8"  Name="types"  format="ascii">10 10 10 10 10 10 10 10 10 10 10 10 10 10 10 10 10 10 10 10 10 10 10 10 10 10 10 10 10 10 10 10 10 10 10 10 10 10 10 10 10 10 10 10 10 10 10 10 10 10 10 10 10 10 10 10 10 10 10 10 10 10 10 10 10 10 10 10 10 10 10 10 10 10 10 10 10 10 10 10 10 10 10 10 10 10 10 10 10 10 10 10 10 10 10 10 10 10 10 10 10 10 10 10 10 10 10 10 10 10 10 10 10 10 10 10 10 10 10 10 10 10 10 10 10 10 10 10 10 10 10 10 10 10 10 10 10 10 10 10 10 10 10 10 10 10 10 10 10 10 10 10 10 10 10 10 10 10 10 10 10 10 10 10 10 10 10 10 10 10 10 10 10 10 10 10 10 10 10 10 10 10 10 10 10 10 10 10 10 10 10 10 10 10 10 10 10 10 10 10 10 10 10 10 10 10 10 10 10 10 10 10 10 10 10 10 10 10 10 10 10 10 10 10 10 10 10 10 10 10 10 10 10 10 10 10 10 10 10 10 10 10 10 10 10 10 10 10 10 10 10 10 10 10 10 10 10 10 10 10 10 10 10 10 10 10 10 10 10 10 10 10 10 10 10 10 10 10 10 10 10 10 10 10 10 10 10 10 10 10 10 10 10 10 10 10 10 10 10 10 10 10 10 10 10 10 10 10 10 10 10 10 10 10 10 10 10 10 10 10 10 10 10 10 10 10 10 10 10 10 10 10 10 10 10 10 10 10 10 10 10 10 10 10 10 10 10 10 10 10 10 10 10 10 10 10 10 10 10 10 10 10 10 10 10 10 10 10 10 10 10 10 10 10 10 10 10 10 10 10 10 10 10 10 10 10 10 10 10 10 10 10 10 10 10 10 10 10 10 10 10 10 10 10 10 10 10 10 10 10 10 10 10 10 10 10 10 10 10 10 10 10 10 10 10 10 10 10 10 10 10 10 10 10 10 10 10 10 10 10 10 10 10 10 10 10 10 10 10 10 10 10 10 10 10 10 10 10 10 10 10 10 10 10 10 10 10 10 10 10 10 10 10 10 10 10 10 10 10 10 10 10 10 10 10 10 10 10 10 10 10 10 10 10 10 10 10 10 10 10 10 10 10 10 10 10 10 10 10 10 10 10 10 10 10 10 10 10 10 10 10 10 10 10 10 10 10 10 10 10 10 10 10 10 10 10 10 10 10 10 10 10 10 10 10 10 10 10 10 10 10 10 10 10 10 10 10 10 10 10 10 10 10 10 10 10 10 10 10 10 10 10 10 10 10 10 10 10 10 10 10 10 10 10 10 10 10 10 10 10 10 10 10 10 10 10 10 10 10 10 10 10 10 10 10 10 10 10 10 10 10 10 10 10 10 10 10 10 10 10 10 10 10 10 10 10 10 10 10 10 10 10 10 10 10 10 10 10 10 10 10 10 10 10 10 10 10 10 10 10 10 10 10 10 10 10 10 10 10 10 10 10 10 10 10 10 10 10 10 10 10 10 10 10 10 10 10 10 10 10 10 10 10 10 10 10 10 10 10 10 10 10 10 10 10 10 10 10 10 10 10 10 10 10 10 10 10 10 10 10 10 10 </DataArray>
</Cells>
<PointData  Vectors="u_"> 
<DataArray  type="Float64"  Name="u_"  NumberOfComponents="3" format="ascii">-8.6600677935493114e-02 -3.8965158496932330e-03 2.7929227536304507e-01  -3.4775778710281785e-02 -6.6660497411257149e-03 1.6066145217020597e-01  -4.3888592100095672e-02 -2.9714827851932992e-02 1.5088169375046315e-01  -3.4607298895119839e-04 -1.2724902700154809e-02 1.5952331467162464e-01  -7.3503955254645183e-03 -1.0399140967748102e-01 2.7058888975773743e-01  4.5219901057128753e-02 -3.8242219366974133e-02 1.5086783106810961e-01  7.4709934319261415e-02 -2.1889936486342659e-02 1.5086213486811176e-01  5.2025849824004336e-02 -5.3060560477809389e-02 1.4496008310491684e-01  -1.5058880386002699e-01 -7.2820224889928661e-02 2.4603837164105394e-01  -8.4662286164309916e-02 -3.1618561737300661e-02 1.2629560606324672e-01  -5.5750968843565722e-02 -5.6199616417688572e-02 1.3505736672092861e-01  -1.0321978422175554e-01 -5.9402891244061215e-02 2.6700190647814648e-01  2.4444971644533794e-01 -1.4029736013321131e-01 -3.8647094490166227e-02  1.3581172611643055e-01 -5.6544966962599190e-02 9.8633943923317462e-03  1.3789180976547083e-01 -5.3876328374513241e-02 4.1603074244299938e-02  1.3987970018916615e-01 -7.2354654790619657e-02 1.4925446649573701e-02  1.2687507296166220e-01 -2.3873614739162816e-01 -5.6370045424387734e-02  9.7665706115793186e-02 -1.2638514130505538e-01 -1.8467116521693586e-02  1.1448415119666298e-01 -1.1732585956054233e-01 2.2226292900309984e-02  7.9158298385334586e-02 -1.4215706441746551e-01 2.6333074140213117e-03  -1.5053284304530612e-01 -1.4332911111746897e-02 2.5797388756814571e-01  -1.9146924276178567e-01 -3.3122834857184265e-02 2.2869460169087280e-01  8.3589825312543525e-02 1.1573037606043670e-02 2.7603120626414140e-01  1.0199265762827281e-01 1.4924813271877328e-02 1.0708690414069441e-01  1.0831474485716254e-01 -1.5545985889550559e-03 8.9893139367746677e-02  9.2181898735145734e-02 3.1514579109913985e-03 1.2097860080539535e-01  1.4286314000019443e-01 -1.1110794177473055e-01 1.2379200158227023e-01  1.6051138070348445e-01 -1.5728526151018912e-01 6.8903757163701035e-02  1.2767317187357938e-01 -5.6078101630268738e-02 7.3337864964644769e-02  1.2110039925148892e-01 -4.5127516997159389e-02 1.0172479676243480e-01  2.7530066941908883e-02 -1.9104658344757761e-01 1.6854997940214544e-01  2.8270239949466366e-02 -1.4113648404391824e-01 2.3376173733484756e-01  4.2608926909802856e-02 -9.0493982705350792e-02 1.3949132777094556e-01  7.4916492406018484e-02 -9.3910617838910124e-02 1.2352377515467891e-01  2.0819124212849597e-02 -7.6802104200926702e-02 1.4078632882165776e-01  1.2438367649624080e-01 -3.3143334710469062e-02 2.4281271071333921e-01  9.3714625769894894e-02 -9.4380957268387536e-02 2.3179310596772770e-01  5.0997518598139092e-02 -8.5631670105629887e-02 2.7073630022321382e-01  8.7912991144684524e-02 -2.7153921711974838e-02 1.4468390427134578e-01  -4.4964649054610095e-03 1.2865330081661816e-02 1.6149088832962039e-01  3.5022077223408783e-02 7.7795753243638383e-03 1.5316429826970421e-01  -7.3626534169841176e-02 6.7772426377093724e-03 4.0813990508686900e-02  -8.1885367587519686e-02 3.5923621264928686e-02 7.1850528195158844e-02  -1.6865159775543134e-01 4.9679162056594115e-03 1.8448643169386619e-01  -9.1819765868362768e-02 2.5029177525020586e-02 1.1582543033004725e-01  1.9010291990332456e-01 -1.8657711099293484e-01 3.6784548992840221e-03  1.3879376003452204e-01 -7.6947584746708056e-02 4.0649776286681663e-02  1.3174254325965576e-01 -4.5549209918556051e-02 6.9291655313723777e-02  1.2150710371821190e-01 -9.8741654992002062e-02 5.8654074987110616e-02  1.2366824407046700e-01 -1.0430310443831542e-01 3.5283118502023841e-02  2.3057626387246533e-01 -1.5283080845770128e-01 -7.2086301495091321e-02  1.2987858114153444e-01 -7.7860606549921246e-02 -1.8787878974073590e-02  6.1058292481039361e-02 -1.4943358691368541e-01 -2.1466113923760824e-01  9.1385930704155183e-02 -1.8827364804115457e-01 -1.7681430319526856e-01  1.2656760581476639e-01 -1.2036753184231291e-01 -2.2716050955015482e-01  6.0912268743274635e-02 -6.4185497968533012e-02 -1.1270890799223955e-01  1.5794562849718935e-01 -4.5662408397940724e-02 1.8718026472876370e-01  1.7296907996585562e-01 -6.3607920537977369e-02 1.2583370262014323e-01  1.3581303865534519e-01 -8.2643005836049485e-02 1.6846385994404578e-01  1.0973895909860688e-01 -9.0157356669794443e-03 7.4757841025360636e-02  1.8300005989717044e-01 -1.0211991070470958e-01 8.5112078943388889e-02  3.1463660179469943e-02 -6.6123437602632496e-03 1.5183599281164059e-01  1.6607963222996869e-01 -2.1012209367674001e-01 -9.4945819681376192e-02  8.7299687868954354e-02 -1.1330530116378912e-01 -6.7618818643119485e-02  1.1516071591097993e-01 -1.0283791298297100e-01 -3.4139581924542077e-02  2.6524131088379144e-01 -7.8353726205480645e-02 -1.0222155884361603e-02  1.2190235445933209e-01 -3.4557633678878361e-02 3.6007304930958543e-02  1.1875647880006771e-01 -3.9346607552695936e-02 6.1981945635406890e-02  1.2206333806913991e-01 -1.9964262727714646e-01 -1.4363028366950931e-01  4.7064275851558375e-02 -1.2418528151624167e-01 -8.1350108311165251e-02  5.8143669304786719e-02 -9.1004684936624253e-02 -1.0381684920942731e-01  -1.7200209600955932e-02 -1.9021926951031620e-01 1.6614162218780137e-01  1.5292538696318173e-02 -1.0850922755445078e-01 1.2213410259096857e-01  2.4014926994124070e-02 -1.2048310526037666e-01 1.0118411118891582e-01  -1.1069781352661924e-01 -1.0441276556555440e-01 2.4606083970172601e-01  -3.1874176368652779e-02 -7.3393157950679425e-02 1.3282379386764612e-01  -1.6353688004210994e-02 -4.6148218801362384e-02 1.4948950340775122e-01  -9.0386431999108105e-02 -7.5369267542146637e-02 -1.6711714880544484e-02  -1.4425801464235610e-01 -1.6949551738796434e-01 3.9893826803867063e-02  -7.5124715501775241e-02 -9.9336232882156913e-02 2.7188966326433205e-02  -8.9602361302786815e-02 -8.5371957303867069e-02 3.5156435031321459e-02  1.1922737576234289e-01 -2.3167454582796562e-01 -9.5689354908613133e-02  6.3941093366189181e-02 -2.3928763828920480e-01 -1.0936587035159369e-01  -1.6128148146680432e-01 2.8709355125740750e-02 2.5489335586192441e-01  -1.8472057829073729e-01 4.2874648112084995e-02 2.2144660324392670e-01  -7.4613151769543890e-02 5.3185251819355080e-02 1.3930402134790112e-01  -5.8865856306828827e-02 1.5949692628657825e-02 1.6128293625502085e-01  -1.2542789772990756e-01 8.3966445128010492e-02 2.4418369354794645e-01  -2.3056382057082079e-02 3.7790881994201629e-02 1.5811601795952041e-01  4.7624386063904837e-02 5.3185985450274642e-02 2.7412004573784116e-01  8.0277575303709825e-02 1.0677951761087285e-02 1.2730896461998781e-01  8.8646736832570294e-02 2.8538541739234077e-02 1.2094644227546317e-01  -8.6517417038556421e-02 -2.0461833521388198e-01 8.5468684871218045e-02  -1.4700594659120983e-01 -1.7495768903891665e-01 1.1170141590666621e-01  -1.1050636540687603e-01 -1.7935514932126409e-01 1.5928416727771236e-01  -5.7921303615303434e-02 -1.0555132086865628e-01 7.3063179476611076e-02  -9.7624375175806542e-03 -9.2893002978211792e-02 1.3362803982657318e-01  -5.0071462673209693e-02 -9.8320442148687556e-02 1.1007254066247119e-01  6.3357209544721876e-02 -1.3790813206009869e-01 -4.2024359349069201e-02  1.0344739489938731e-01 -2.7790325882101469e-02 1.2671332360136092e-01  -4.7656985729805888e-02 -1.1474037032118806e-01 -7.4644542328498709e-02  1.6817252427575129e-02 -2.0720203912535867e-01 -1.5768983622758523e-01  -5.1911783458908366e-02 -1.7512410738047363e-01 -1.5580832796593364e-01  -5.8048480463786398e-02 -2.0507606824484143e-01 -9.9997329875399721e-02  2.2470071597032218e-01 -5.6798158401741253e-02 8.1647976750931467e-02  9.9274627323907572e-02 -2.0913098683177464e-02 7.5108418894811999e-02  7.5507508005618271e-02 -6.7446865910802553e-02 1.3538330477890459e-01  2.3238206725031949e-01 -1.0984929223607347e-01 2.7522729596743463e-02  6.5701434215912582e-02 -2.5459012145240101e-01 -3.7241181202424277e-02  -5.9105026121449231e-03 -2.3536765455631242e-01 3.9405381627807018e-02  8.7669690123318121e-03 -2.4926385693435046e-01 -3.7414639251056904e-02  4.2666574564150121e-02 -1.5263005955151804e-01 -2.0480046614868935e-02  2.4195478945386942e-02 -1.4444093230868590e-01 -5.4862513755410465e-02  -1.8289408068265893e-02 -1.4484706496547942e-01 -4.9464002019554011e-02  4.3730910356598275e-03 -1.4983188204644596e-01 -2.5823659743952454e-02  -1.4745710537938163e-02 -2.3572188708113398e-01 -7.7192836836482662e-02  -8.5794535478958781e-02 -7.8272192445803579e-02 8.6676814932985610e-02  -1.7165939241690614e-01 -1.2478619787019014e-01 2.0161524304105036e-01  3.6157778419658143e-02 -2.2322440860478227e-01 8.3969202546806218e-02  4.9220968244344035e-02 -1.4484622256722282e-01 2.0643516404172713e-02  5.3651890163767743e-02 -1.3032273640934225e-01 6.6078176875695713e-02  8.8830452714678210e-02 -1.2852130748057675e-01 4.8009720796969177e-02  1.8704594946929110e-01 -2.1126537787786037e-01 -5.7096969994074723e-02  1.2441554529782621e-01 -2.2325277845153968e-01 1.9048026189944237e-02  -5.0404672199508352e-02 4.0006234309595025e-02 2.7387248040613366e-01  6.6663788368455823e-02 2.0753224720148476e-02 1.3708057215415267e-01  4.1731425301456619e-02 1.8659448259801818e-02 1.4705074119983308e-01  -8.5087796251481343e-02 -1.6907986508771646e-02 3.7398688937251325e-02  -9.5927011679454610e-02 -9.0320973007725226e-03 9.8748306524160542e-02  -1.7454794865422968e-01 -4.6086840967142641e-02 1.6141406304472347e-01  1.5616434464112411e-01 2.6812671776030899e-02 2.0495695719468734e-01  1.1436321439547889e-01 3.7410048139537382e-03 1.0198755342854490e-01  1.0353401363825093e-01 -1.8827278326246388e-03 6.3724105634850800e-02  -8.4972788831193150e-02 -1.5895701672302406e-01 2.1171036389795261e-01  6.8708384714793569e-02 8.3673136007529070e-02 2.4339589997859126e-01  -3.3912128758365060e-03 7.3604199718395838e-02 2.6424415997164896e-01  1.8421260151845836e-01 -7.5122726390876486e-03 1.6017663676892765e-01  1.9792877165142753e-01 -3.8823664799556852e-02 1.2938768041040558e-01  7.9861037824648901e-02 -1.0625616184665216e-02 4.1764748560554635e-02  8.2016097111781941e-02 -9.3424071501001238e-03 3.6423669387774422e-02  1.0514454852240715e-01 -6.6887377268504741e-03 6.4730631898324661e-02  1.1307679136704615e-01 -1.1028218132234363e-02 9.2510066716697079e-02  1.1585495202342597e-01 -1.8553577479198363e-03 5.6717308855252266e-02  4.4651459433926184e-02 -4.6921048707203310e-02 -1.1607825807550991e-01  7.0572648837042978e-02 -9.9811752491214250e-03 4.6911856404194853e-02  6.8252541061883040e-02 -7.8059206442723525e-03 7.3431639707561960e-02  8.0902388268421929e-02 -1.7081217745605084e-02 5.3932112056203546e-02  -6.2932768406979450e-02 -9.7865750359881265e-02 2.6438867698328006e-01  4.8201412602748983e-04 -6.5771319690383787e-02 1.4021138428027516e-01  -4.7489725292244309e-02 -2.2851496225022327e-01 4.1236845739956573e-05  9.5876742444381251e-03 -1.4710348232055384e-01 9.7385783557357962e-03  9.1750118271463163e-02 -1.3584589363741068e-01 1.8628775847064327e-01  1.0997934088158218e-01 -5.2556027122001595e-02 1.1754429848411810e-01  1.1647839189499416e-01 -3.5734516071215972e-02 1.0505872638404111e-01  1.0009883398821463e-01 -2.0086400178840683e-01 8.8295549871125173e-02  1.0995246793654619e-01 -1.0000070486310325e-02 1.3068560623247344e-01  8.2016391170555855e-02 -3.9577569733943885e-02 1.3719111194150921e-01  1.0376028771528235e-01 -4.4993512125651190e-02 1.2118033080201726e-01  -1.0693492283306572e-01 3.5748088141245402e-02 2.6575152117532952e-01  2.2269401013919700e-02 -9.4866571652480337e-04 2.9570477185925298e-01  3.3707311692602729e-02 -4.5127251414344295e-02 2.9645768608835560e-01  4.9499178318131873e-02 -1.8086738804993292e-02 1.5133826636931083e-01  7.8363079421236312e-02 -7.5386051326448190e-03 1.4294898074943910e-01  -2.7155866159493537e-02 -1.5514503080330597e-01 2.2485649586444600e-01  9.9838563426468033e-02 -1.3286608698874259e-02 3.7966181374828815e-02  1.0313103055202150e-01 -1.0885436835174433e-02 7.2799854848449363e-02  1.1251344166938931e-01 -1.6411853588196615e-01 1.1963847658095172e-01  1.0042000845477113e-01 -9.1451683913333720e-02 1.0543191563418249e-01  1.2134952869974552e-01 -8.0718124215470921e-02 8.4095240362334164e-02  -9.8488843531232370e-02 -2.9555883660992172e-02 2.6902765242025770e-02  -1.9235223754043637e-01 -9.9746248673337271e-02 1.0119753177215521e-01  -1.8847700696789565e-01 -1.1888087475580612e-01 1.5346793579606477e-01  -7.0211134209545792e-02 -9.8618118715252973e-02 -6.0397724193396271e-02  -1.1752899605679641e-01 -1.7904452483620403e-01 -4.1072965262547230e-02  -9.6079629717396864e-02 -1.6811653104406712e-01 -1.0818890405842044e-01  -4.0006639792849935e-02 -1.1650361223035327e-01 4.2830612093229782e-02  -1.4025855931797350e-02 -1.1773499746131506e-01 7.4049344727091834e-02  8.2330606459192754e-02 -1.4246309200483523e-02 3.5636922666631862e-02  8.8292244204295239e-02 -6.0075112775281282e-03 3.8776812486158371e-02  2.4672666037806321e-01 -1.1101129898257995e-02 1.0049306668240710e-01  7.9340664899067076e-02 -2.1677506534262158e-02 5.2549904688610601e-02  8.5278933444526847e-02 -1.6204505242822395e-02 4.7783097399134528e-02  9.6800716979613718e-02 -2.2732518511430835e-02 5.2080297980822227e-02  1.5054911640628060e-01 -1.6101915898103053e-01 -1.7728020739094533e-01  8.3746995256219800e-02 -1.3504021221734781e-02 6.9783508896492333e-02  2.4209218181914301e-02 -3.2100741836755653e-02 1.5673767960078119e-01  4.8037437813344901e-02 -2.3851573072106158e-01 2.4611482174167622e-02  6.3320680900821168e-03 -1.3748635576852117e-01 5.4857068873008896e-02  1.2675501513972351e-01 -1.0118873221339847e-01 3.9311979036559062e-03  -1.9305478591957165e-02 1.0119672356532093e-02 2.9124994939635290e-01  5.1632587126206178e-02 1.7869887961815061e-03 1.4641680360568779e-01  9.4420520086159129e-02 1.2181487638273949e-02 6.3069248391380034e-02  1.1458756185611725e-01 -2.0271009204024318e-02 8.4798404534538616e-02  1.0981723584512297e-01 -2.9083702788135019e-02 8.8400504839260680e-02  7.9007170244851418e-02 7.3175155725030156e-03 7.4908503645569516e-02  1.1990429407327098e-01 6.0633814516919390e-02 2.3485607687687476e-01  -3.3402108912898978e-02 -1.3924940949009684e-01 -1.1533094155315790e-02  -4.8836903482820514e-02 -1.2634883271942424e-01 -4.6065651874793737e-02  -6.6477835389865694e-02 -1.1795091439219757e-01 -2.3194231145495812e-02  1.7899609112935280e-01 4.9382264906078874e-02 1.6658732606999002e-01  9.8951668976520024e-02 -7.5859396587405490e-04 5.0103175578515971e-02  9.1814943815014344e-02 -2.9045558184324352e-03 3.8409099540125599e-02  9.4313456184762459e-02 -9.0367967584996226e-04 4.3664826813192358e-02  2.6680702525989913e-01 -4.3357601855015887e-02 3.5531228966842465e-02  9.7570474929253984e-02 -3.3172988618234762e-02 5.1510132808899475e-02  9.3322306052725221e-02 -2.6036695810235072e-02 6.8478608285810663e-02  9.2068389531805753e-02 -2.0711715484242346e-02 4.6901339481869579e-02  2.2538218660419146e-01 -1.5537917396823803e-01 -1.1704641074293562e-01  9.8658528848635837e-02 -1.1420798439196322e-01 7.7619562226051750e-02  -7.0149483578458183e-02 -2.1026823012560569e-01 -4.7585267840396142e-02  1.0564690199075653e-01 -1.8208031940212987e-02 8.4497208385463304e-02  1.0410385165794483e-01 2.0202198940552238e-02 9.0301534802839006e-02  -1.9644653737242234e-02 -1.0650786207212587e-01 1.0857884455111025e-01  1.8937911277414399e-02 -5.0762103034949081e-02 1.4491396186718050e-01  6.4798121960520816e-02 -1.1935635274528822e-01 1.0391736485266212e-01  -2.0156335297584503e-02 -9.5099723454274768e-02 -1.0327381301422890e-01  1.1827944281862970e-01 -1.2343183625140693e-02 7.4158721844500938e-02  -4.1561507206483980e-02 -4.3381375149832500e-02 2.9243741751270719e-01  9.5679588410287994e-02 -4.5079277406127093e-03 6.5376897647020316e-02  1.2808631473114362e-01 -2.2749925936378815e-02 8.4163500717045356e-02  9.3057906019256648e-02 -2.0697820565492319e-03 7.3214938621368450e-02  8.5806016687778069e-02 -1.0129119412935978e-02 3.2612237088449285e-02  7.2791360285363704e-02 -1.6998916847153104e-02 4.1005121116404579e-02  2.9227443866984389e-02 -5.7605852026407132e-02 -1.2198818531448960e-01  1.7831008662865942e-02 -3.0831902734834927e-02 -1.1832013255911221e-01  -4.1286781360344712e-04 -5.3139974567871270e-02 -1.2203289790368040e-01  7.1675995390587961e-03 -8.2768514959448647e-02 -1.1849016389346025e-01  -7.0468989490376673e-03 -1.5617888724693102e-01 -2.0031956333018749e-01  -6.3754166707920903e-02 -7.3650454200767768e-02 1.1848477358487443e-01  1.6817594819671508e-01 -1.8421384621052536e-01 -1.3403871185254931e-01  8.7210496272708840e-02 -6.7301844071393627e-02 -9.3697297944782321e-02  -7.1994261367909776e-02 7.9214267001625302e-02 2.5636958305080104e-01  -9.4748694409516318e-02 1.2507068173051961e-01 2.2608580543600701e-01  2.3520500066279707e-02 3.6603441579445277e-02 1.5576492766744224e-01  -1.9823692210782985e-02 6.6105680060523794e-02 1.5343109496261997e-01  -2.5983428739059403e-02 1.1955058118114713e-01 2.3358601557842629e-01  -4.6592507429279187e-02 -2.0582874922806635e-01 1.2396642624966892e-01  -1.6389481581783955e-01 9.7878073185026157e-02 2.2156780711371651e-01  6.1553768618583554e-02 3.1060671912688364e-02 1.3359126960455417e-01  -7.3731984180830060e-02 -4.7263219049627795e-03 1.4517939790393156e-01  6.9985969163966197e-02 -1.7442322790549075e-01 1.5827381540985991e-01  -1.8842325483027833e-01 -8.4441360523125425e-02 1.9201204661287641e-01  -9.9148682820506442e-02 -3.9947813244398001e-02 7.4510145541712633e-02  -1.0855676493021477e-01 -5.6756101506226959e-02 3.0223874512413606e-02  -1.7847415403752440e-01 -1.4469024706653566e-01 8.6929483736361085e-02  2.3314374915886864e-03 -1.2503745837206148e-01 -8.6801109565873766e-02  1.1050731023463987e-01 -2.8579418466476849e-02 4.2936982946813126e-02  1.0592770681613213e-01 -8.5939982986562052e-02 -5.8386973327279108e-02  2.3801258521451103e-02 -1.0384384377926145e-01 -1.1247950585272609e-01  -1.0407367423528197e-01 -1.9825325686464404e-01 2.7005167717390137e-02  -8.3817140904843782e-02 -9.2136439505660847e-02 -4.0134883147761743e-02  -1.6253774562250270e-01 -1.4980765996381012e-01 -1.7039939727088393e-03  -8.6393657014838990e-02 -6.2647773164087761e-02 1.0128279977255200e-01  -6.0595942909426152e-02 -7.6633177287881757e-02 -8.8741652443853361e-02  -1.3296772014816180e-01 -1.3127812521185223e-01 2.1846313004110532e-01  -6.7476829696952415e-02 9.0725636858613373e-02 1.3104647436815489e-01  1.0890071077496605e-01 6.8186293351781445e-03 6.0324870222165011e-02  1.0873962256697416e-01 1.3647745883928232e-02 7.6643347762823402e-02  2.2834485090356962e-01 3.1292605979819262e-02 1.2640884428865512e-01  8.2890669033796549e-02 -6.7127163217493508e-03 4.8447475396310571e-02  7.7335689513188477e-02 -5.2314581913488105e-03 5.1791499756645619e-02  9.4462796508812272e-02 -2.1067711127627214e-03 5.7162847666107318e-02  3.0818816633228031e-02 -1.1088569967162763e-01 -2.4038600507074187e-01  1.1309782113209413e-01 3.3738090150735468e-03 2.6302472640207110e-02  1.0891159185123866e-01 -9.6847508674708044e-04 6.1064339627738017e-02  7.8269684589526697e-02 -9.3798215992982006e-02 -2.4983536728742559e-01  9.8255884934059276e-02 -2.4370821993473837e-01 -5.9057345670000937e-03  1.0929807416606134e-01 -1.7726695601623443e-02 4.2212109794476288e-02  -7.6181404825461665e-02 -7.1967235897945736e-02 -7.3962964909061346e-02  -6.0275703504754148e-02 -1.1783757942635495e-01 -1.4418639125392083e-03  -2.4062802611637683e-02 -1.3932577634305243e-01 2.4310547889933084e-02  -1.0109058869294492e-01 -5.8622407641342196e-02 8.0165860177689591e-04  -1.5229249294033279e-01 7.1391919469084603e-02 1.6370120620888229e-01  </DataArray> 
</PointData> 
</Piece>
</UnstructuredGrid>
</VTKFile>