<?xml version="1.0"?>
<VTKFile type="UnstructuredGrid"  version="0.1"  >
<UnstructuredGrid>
<Piece  NumberOfPoints="257" NumberOfCells="700">
<Points>
<DataArray  type="Float64"  NumberOfComponents="3"  format="ascii">-0.4668352359426251 -19.13687404117979 -10.08134456023078  -0.4923421272164555 -19.03691401752458 -10.09577412545191  -0.3094407297055115 -19.00050155108726 -9.989411775048508  -0.2595528016046894 -19.08911904475326 -10.10450436267379  -0.08036577173313764 -18.71824929989807 -10.78492741006399  -0.1583992273839787 -18.68998229102433 -10.74128742046237  -0.1197362889616489 -18.5683642401965 -10.78184003054379  -0.06180720112658881 -18.63628498924504 -10.71012417524719  -0.4075831467135766 -18.68718385296497 -9.688593505134293  -0.3587372693503415 -18.7185132791573 -9.663794387168991  -0.5036918295331633 -18.6775442514875 -9.626046622864605  -0.5185386025735916 -18.70616198266113 -9.604068460972645  -0.4886126373980693 -18.87232908938149 -9.562380935303368  -0.5161273004683673 -18.91543271007856 -9.682099773627584  -0.3642082009409449 -18.76358642297395 -9.728837123106636  -0.3276313550821948 -18.83669558104211 -9.683295941766907  -0.02670593020306247 -19.26489406524467 -10.40867999036077  0.0794096566951093 -19.33066598686135 -10.48428245430633  -0.01742126402667367 -19.45302058048645 -10.35673090478973  -0.1568376746832239 -19.41383906729829 -10.51565781905355  -0.5564059825660513 -18.85874173534237 -9.840873305616885  -0.5640632655929597 -18.78627812393206 -9.79484293298912  -0.4672739680422686 -18.87795573125014 -9.854560235797699  -0.446609157668921 -18.75313741728297 -9.848029959329597  -0.1838030718960792 -18.83502677535772 -10.38215490605301  -0.1373611732747486 -18.97864350222805 -10.38195168981554  -0.2891293560442144 -18.95924542858779 -10.52912162625279  -0.1162099929271565 -18.90580069088993 -10.43053784584827  -0.5549466963028173 -18.84405794961825 -10.01757405616753  -0.5151471510189557 -18.93323998583212 -10.12562574106697  -0.4446323191121116 -18.8603479230789 -9.987137796766586  -0.4744226868896864 -18.78465411318236 -10.08183665967154  -0.4711933797571912 -18.7070657184808 -10.30990805624123  -0.5241051687442427 -18.83079217467008 -10.18762623543036  -0.4658724396942988 -18.8760643753717 -10.29822973405237  -0.443959860050926 -18.75758562527104 -10.19359061388373  -0.3833732657976022 -19.30078402805521 -10.20539937823584  -0.4165458999971978 -19.15775166930993 -10.22482704689988  -0.1788435277936659 -19.21218841925399 -10.22115614219383  -0.4330382098903114 -19.18862437001894 -10.15273213062287  -0.1790821452282523 -18.54904091309727 -10.6996414449604  -0.1876057846051603 -18.60854526824693 -10.72510442994707  -0.1298322768277153 -18.5775611114057 -10.67967562660902  -0.1718883487851147 -18.59466982091563 -10.66388093777332  -0.4994963238778213 -18.67375517849985 -9.659579667133167  -0.5131196558451026 -18.68178125842718 -9.707687748298547  -0.5287166671286399 -18.70933556755193 -9.660034435472481  -0.4864726195148366 -18.69755520637057 -9.692351327950341  -0.4477088690142439 -18.66070648419319 -9.686513457453918  -0.4107561643931615 -18.68347281682261 -9.738141822154047  -0.5506786882763457 -18.74488266295646 -9.72211435179082  -0.4894527516593213 -18.73095662728977 -9.772924940519788  -0.3662012922477063 -19.19330024789691 -10.31310476847962  -0.2159439033525838 -19.07523376680655 -10.22103518332823  -0.5029464084015823 -19.06191413651998 -9.967481132206315  -0.2782681955069296 -19.13330348974148 -9.950473407734068  -0.3136943952133021 -19.00416859323292 -9.867304509731692  -0.2550317027339105 -19.00389308128728 -10.18181613639169  -0.4100507546204444 -19.08713794700972 -10.28715576684173  -0.5592223548373502 -18.74436184140783 -9.81165034337797  -0.5123509814840753 -18.67864700377636 -9.806096069842047  -0.1338039262370645 -18.77009914395595 -10.4620855310682  -0.1202558715806608 -18.83982902886698 -10.45132024300891  -0.245205794594135 -18.82548190420596 -10.62137795511036  -0.285661655464433 -18.8680581779373 -10.56410135785901  -0.1239294366728716 -18.6450639871421 -10.65767278789383  -0.285197851304609 -19.35929677017915 -10.37172148792424  -0.0995145255605098 -19.31093685121822 -10.30880199719579  -0.1445968909011007 -19.42364622670192 -10.17530941404075  -0.1465901247280123 -18.68649709182188 -10.4826788672303  -0.2499096624137916 -18.75116188261848 -10.64161652365525  -0.3138550281105765 -18.75824920791865 -10.57057497843039  -0.3890621401368006 -18.75203783173796 -9.937542300000501  -0.540889557051853 -18.87857831094252 -9.745216461807173  -0.3530304324863843 -18.82946142955734 -9.779954880527741  -0.3825370629491497 -18.75325783414767 -9.793689897346098  -0.2196174485734782 -18.59270220152717 -10.67300763725271  -0.2221026773273438 -18.65477363897048 -10.69250400069774  -0.1770751511454374 -18.62181691895774 -10.61766223111965  0.1355025821524545 -18.42540042681992 -10.90808792036531  0.04201674865122508 -18.54566090274588 -10.88189770457723  0.0003356595707837536 -18.47529016778417 -10.84057612152637  0.09398821351945244 -18.55751563797128 -10.79351472907065  -0.0383127895050942 -18.76688819030138 -10.54330611624103  -0.01965804872667189 -18.85774886801203 -10.53070054639709  -0.1881402775444727 -18.88344408342644 -10.65465470355705  -0.1444733244483395 -18.86624914359026 -10.69654332419496  -0.1552108682012853 -18.76824669009872 -10.72101810557422  -0.2028638699957958 -18.73514390302263 -10.68949513321953  -0.09419703677696116 -18.72245714753642 -10.51544602252892  0.06894064159370426 -18.70259408603254 -10.62846900061553  -0.04031317358548062 -18.6856660180777 -10.81737612182358  0.06388432627042216 -18.58581286705095 -10.65901685802296  -0.4469814513263415 -19.17306702060388 -9.685873609665846  -0.4844328739355588 -19.01938719924212 -9.663747963007815  -0.2836764303138132 -19.05461646893348 -9.734526224939557  -0.4855458644929891 -19.09743396148617 -9.775327398683503  -0.1891539512650382 -19.56974920844875 -10.42258230669896  0.05960107161446733 -18.93257667664523 -10.56557781379789  -0.01753579197226565 -18.94367069760537 -10.50899641310861  -0.1244667900298935 -18.94951092219695 -10.68655013210702  -0.4635875338779792 -19.18420315787249 -10.01561379787018  -0.4352170965492613 -19.24449196476028 -10.08775827026898  -0.440426578855229 -19.28123446076571 -9.993206759859188  -0.535340943130025 -18.7572602149566 -9.615190621427834  -0.1371723485107009 -18.82161648653659 -10.71797376202533  -0.1119369519924006 -18.80181333638773 -10.74034324703268  0.04253086553877295 -18.80603016439615 -10.5860990288212  -0.5617603129332132 -18.80789101122511 -9.756758025275778  -0.2755950045219615 -19.14093239219213 -9.820315102715574  -0.2264663788047891 -19.20541142321215 -9.663920253677087  -0.4246515364246379 -19.31901731794563 -9.769710548117928  -0.3721091496846766 -18.797379958561 -9.847222534784809  -0.4050588092200753 -18.69515643375474 -10.17809864026708  -0.347734993256921 -18.73354759042501 -10.17602259770807  -0.06295305561362816 -19.1065591006941 -10.420108887698  -0.1947262277225277 -19.13345592682271 -10.56814620462689  0.01809056861427404 -19.03985111613626 -10.51038678660488  -0.06555260301317029 -18.9790099592582 -10.45644736139078  -0.01527232478196294 -18.56165100547734 -10.75305127612777  -0.06879828942142052 -18.88908254731617 -10.48051992726556  -0.293086521429054 -18.96295301451877 -10.11083911326321  -0.3398716339373054 -18.86288258712755 -10.04177201050231  -0.08189501240145847 -18.80369952761181 -10.49769303360003  -0.2307621340899064 -18.89565070815838 -10.61281084768489  -0.1906618494089872 -18.95995249186943 -10.62866288391978  -0.4782393287911277 -18.67442840861347 -9.767474778937391  -0.1579900430990897 -19.08443404998667 -10.31404743986167  -0.3064693192747172 -19.17656399707448 -10.41869913993469  -0.1074734434338889 -19.17789484697641 -10.34525180929737  -0.2251825828951631 -19.27192797129755 -10.05975004314003  -0.3889107301200684 -18.74900189928065 -9.849729596949297  -0.09873765799596118 -18.58675733854939 -10.56156360511149  -0.02834447133706527 -18.58805807796055 -10.60982623755254  -0.06337024843071414 -18.66973662815899 -10.55681934193255  -0.5146757093322309 -18.98945531916614 -9.77019236130705  -0.1926965250160316 -18.80081643549743 -10.67825227725905  0.3758945873052472 -19.28546237246756 -10.847005154839  0.2399054905049884 -19.3008991828316 -10.5890774947916  0.4863697370010853 -19.27301243818826 -10.6785217345699  0.342541408851279 -19.09655608230784 -10.66100184267935  -0.1320739109248224 -18.51166523876574 -10.66482324112417  -0.259414536601294 -19.05522344415486 -10.52693935201205  -0.3280966325901125 -19.0339209681082 -10.44935319895533  -0.3832906396353193 -18.64207175374765 -9.584589474473047  -0.3740481712891193 -18.67064944133446 -9.623538883971795  -0.4114171431264773 -18.63802053414999 -9.621810617935777  -0.4282997961847008 -18.68489916993323 -9.579806884038897  -0.5223682987400776 -18.96491919473592 -10.03263170078904  -0.3235410111251976 -18.63537685824386 -10.54696728765318  -0.290993622312298 -18.6915438862275 -10.61777160305194  -0.2465393142059535 -18.66668463679302 -10.52338762282494  -0.1835343786302872 -18.71872306485721 -10.43219192355585  -0.3681208311030123 -19.08866304938174 -10.36277489456755  0.1454859670677734 -19.51921081922321 -10.48488231304779  -0.0297962389975801 -19.55450165096665 -10.59152798126874  -0.3641443518271555 -18.75899032814967 -10.09162581553404  -0.4159522788869225 -19.07993472348897 -9.517739869146236  -0.25900514361873 -18.97234193712503 -9.599733654051683  -0.4420707830099264 -19.2963359736791 -9.883293521698953  -0.4772785179913475 -19.15418336179262 -9.874869952470988  -0.5414252119502792 -18.81630019356913 -9.678248767336743  -0.3848678825478666 -19.30670169318228 -9.597173646972546  -0.5039860441909164 -18.72622531639652 -9.557131930065442  -0.4098175740898783 -18.73839863876933 -9.487297153876876  -0.2170772553540098 -19.24879463602195 -10.50470915605988  0.05910704239954956 -19.18400145996604 -10.50382172300719  -0.07843094240714761 -18.87288709411264 -10.7396041278395  -0.07096642590241403 -18.79254678875255 -10.76900337079322  0.04001598699043599 -18.8125437247568 -10.82008954090867  0.141404434803772 -18.66071814472372 -10.66975060587034  -0.3185491305430463 -18.93109177378817 -9.751479144496271  -0.3464616510908363 -18.63890614306264 -9.540880195427048  -0.3332692844962493 -18.70164439806483 -9.590931180630898  -0.3951573398656365 -18.66725208168094 -9.648292328219293  -0.4442405854494024 -18.66592086266775 -9.645633404432035  -0.3280396413610557 -18.80979585751514 -10.1387194462906  -0.306818673031743 -18.87593260955377 -10.14513631460927  -0.2635466277979459 -19.12948666467168 -10.49482668411516  0.1618973336214314 -19.28074274657412 -10.77064772492078  0.2904558961681248 -19.47592666108143 -10.79000238795359  -0.2445394143182596 -18.93990965060507 -10.58309417779028  -0.1797733560348874 -18.65266802408792 -10.46523615103938  -0.2092602827348977 -18.65810761301331 -10.4340342034268  -0.2097081367712998 -18.59981083170897 -10.49326516465866  -0.2509102652165669 -18.7064158375482 -10.35635345246045  -0.2953680276100569 -18.74760276848663 -10.4385774004534  -0.3420540483459916 -18.84457293288771 -10.34339876791285  -0.4110470050499304 -19.40321385286339 -9.869728458120832  -0.2358948774266528 -19.31029100307493 -9.87196530732885  -0.1335714121524253 -19.06589005049034 -10.64259188300784  0.0007926447554989357 -19.05139515664392 -10.73967411743117  -0.1157552090402086 -18.75488465287295 -10.75216094826153  -0.005415677426965327 -18.70693468137659 -10.58527363151002  -0.4888598986523908 -18.9226511151038 -10.21504156696494  0.0799569369017048 -19.46436188370332 -10.68913384623853  -0.2837496449712236 -18.81202629642849 -10.24097109350832  -0.1932097497533932 -18.54261382140233 -10.61825616128043  -0.2649994481065431 -18.6170109719135 -10.61860098239559  0.2008086860419568 -18.84682818985968 -10.65204344928948  -0.550563818694827 -18.74143594200226 -9.773968941237712  -0.5324576958571563 -18.69752676350053 -9.75358170162669  -0.4542206130837304 -18.6339067670201 -9.508956591153694  -0.5027390264567678 -18.67829389680045 -9.594705219570336  -0.507286092521077 -19.05361487983535 -9.866451792023419  -0.06376723654315973 -19.2846020284093 -10.63442278052876  -0.2201193116118754 -19.01859877877479 -10.58158552718201  -0.02952049601082681 -18.56231915709742 -10.84950188174098  -0.3055458964204634 -19.58271133625606 -10.21011349837277  0.004692743740686864 -18.63878531020549 -10.84879944234843  -0.003041405228804643 -18.48899487885491 -10.67512614390726  -0.2714994592412087 -18.92500821567431 -10.19341471447929  -0.454793283164817 -19.10136163938397 -10.16290962434135  -0.383676075873725 -18.83874323646811 -10.45065967066895  -0.4139296648146426 -18.98594905000599 -10.34079305567806  -0.4587766890933264 -18.96352346900691 -10.26215482404075  -0.3446241048754616 -18.88882974545493 -9.885737986517643  -0.4419754528189354 -19.07817724900386 -10.22261876513232  -0.4711616860909367 -18.64810679370557 -9.621437997637376  0.4216216884243796 -19.4506878876213 -10.63334254680455  -0.401905545107047 -19.37736555799945 -10.07358729511725  -0.1992242844296268 -19.41420890614778 -10.00447934414526  0.2355720778469367 -19.04829688444062 -10.8405489130837  0.1470000137297143 -19.06734176676642 -10.58629587398559  -0.1180253458005879 -18.64115658377868 -10.52523532131432  -0.4678685470247943 -18.64820135777443 -9.663218017302752  -0.4166694718401098 -18.69518526623554 -10.10156118658608  -0.2200926541120011 -18.9597920020435 -10.27516663234562  0.1521988273319654 -18.63531831413944 -10.9004102939016  -0.4189245463569435 -19.37443104056297 -9.958437670404383  -0.4719006830448316 -19.00970950243959 -10.19375460148638  -0.1287268963747067 -18.53493491496063 -10.6105886407429  -0.3783919220137771 -18.68812270604452 -10.48843427452601  -0.5352060665401498 -18.94466749416418 -9.918433462443318  -0.4660694606509262 -18.64350130109405 -9.580106061932964  -0.2529915672361365 -18.68969370310529 -10.65929519306652  -0.1702193194433952 -18.61410553221041 -10.5075644263063  -0.4679896377089939 -19.19588965304399 -9.947760927750688  -0.4069024881801215 -18.67395854586784 -9.669817267926312  0.3121591852705901 -19.54533216110266 -10.57180717435283  -0.4402548742196775 -19.02459728435779 -10.26105937242198  -0.4582232232801275 -19.2144715570165 -9.803760978520728  -0.4334124772995116 -18.64690575879697 -9.656380574398383  -0.4574570963779245 -18.67933805636878 -10.18123843907603  -0.5247552230165203 -18.70375238965662 -9.632853443459325  -0.4345852400440912 -18.62501643885481 -9.547304535502755  -0.301132961180162 -18.80782965116547 -9.595772254425425  -0.1701344781333245 -18.57742376432628 -10.55172220459068  -0.5503830017894429 -18.73700059235418 -9.673607746963194  -0.2749353425504138 -18.74275766339038 -9.517215384618455  -0.4144522433412199 -18.69402869195314 -9.819897406014125  -0.3850369386565247 -19.4917132082142 -9.975586981052002  -0.5255169437934607 -18.71446650425292 -10.12329796418432  -0.2455520223773715 -18.61898123047883 -10.4401481088313  -0.4771160738195453 -18.66666777234205 -9.526905739493888  0.1425992109220849 -18.50630704819975 -10.70877880230316  -0.4778906192522483 -18.65284546563692 -9.646024436448963  </DataArray>
</Points>
<Cells>
<DataArray  type="UInt32"  Name="connectivity"  format="ascii">0 1 2 3  4 5 6 7  8 9 10 11  12 13 14 15  16 17 18 19  20 21 22 23  24 25 26 27  28 29 30 31  32 33 34 35  36 3 37 38  36 39 3 37  40 41 42 43  44 45 46 47  48 49 45 47  50 45 51 47  36 37 52 38  37 52 38 53  54 2 55 56  57 37 58 53  59 60 51 23  61 62 63 64  41 65 42 43  66 18 67 68  69 70 63 71  72 20 22 23  73 74 75 14  76 77 78 43  79 80 81 82  83 84 85 86  87 88 89 65  90 91 92 7  93 94 95 96  66 18 68 97  84 98 99 100  36 66 52 38  101 102 55 103  104 8 9 11  105 106 83 107  84 85 86 100  108 73 75 14  93 109 110 111  72 112 22 23  4 90 91 7  113 32 114 35  72 28 30 31  115 116 117 118  37 58 52 53  6 91 119 7  84 85 100 120  84 99 100 120  1 2 121 122  123 85 124 120  62 123 124 120  125 85 124 120  49 45 126 51  127 128 129 38  112 21 51 23  36 102 3 130  36 102 39 3  112 75 131 23  132 133 134 65  127 128 52 38  69 70 89 63  40 6 41 42  73 74 13 135  70 136 89 63  137 138 139 140  40 6 141 42  90 133 92 7  25 142 143 26  144 145 146 147  54 148 1 2  133 6 141 42  149 150 71 151  84 123 85 120  133 6 65 42  69 152 61 71  127 153 52 53  6 41 65 42  74 13 14 15  17 154 18 155  33 156 35 31  157 158 94 95  101 2 55 3  157 12 158 94  55 159 160 109  161 49 8 9  162 93 110 111  112 75 51 23  9 163 164 147  165 166 115 116  105 106 167 107  106 168 167 107  169 90 91 170  74 171 13 135  172 173 164 147  174 146 147 175  102 55 103 130  29 176 177 122  127 25 178 143  179 137 138 180  62 181 124 120  182 183 184 151  32 185 186 187  188 159 189 111  190 166 191 117  106 192 168 193  33 34 176 194  33 176 156 35  17 154 155 195  32 114 196 35  190 191 98 100  197 198 76 78  169 90 170 199  200 60 201 51  50 200 201 51  45 201 126 51  12 104 9 163  172 202 164 147  203 10 11 147  4 6 91 7  101 102 55 3  17 154 138 195  192 5 7 65  91 92 119 7  5 6 7 65  171 135 94 96  54 56 160 204  54 55 56 160  17 155 205 195  16 17 205 19  17 155 205 19  115 142 116 118  206 142 116 118  206 99 118 120  6 81 207 119  66 68 97 208  6 209 207 119  133 6 210 119  6 210 81 119  34 196 211 187  39 3 212 37  4 169 90 91  24 61 71 64  24 213 71 64  34 214 211 215  8 9 10 175  93 109 95 110  56 216 171 135  3 217 212 37  216 74 171 135  24 213 71 186  152 24 61 71  146 218 147 175  5 6 41 65  137 138 219 139  161 49 8 47  220 221 68 130  171 158 94 15  169 209 91 170  161 104 8 9  73 112 74 75  161 12 104 9  179 222 223 140  44 48 45 47  132 134 224 65  18 155 97 19  225 44 48 175  226 156 35 31  226 72 156 31  29 33 156 31  72 156 30 31  29 156 30 31  72 216 30 22  108 73 112 22  127 227 153 143  108 112 21 22  57 3 217 37  220 36 68 130  228 79 80 82  190 98 99 100  214 213 143 187  227 58 153 53  220 221 229 130  74 171 13 15  93 157 95 110  25 115 142 118  167 169 191 98  72 112 131 23  194 177 215 230  152 24 71 186  218 10 147 175  34 214 211 187  231 197 78 43  88 224 78 65  32 232 185 186  168 4 90 193  233 2 216 30  32 196 35 187  146 234 218 147  29 176 156 122  191 98 223 199  166 191 179 205  198 235 78 151  16 166 17 205  36 38 68 130  93 157 94 95  169 209 228 170  171 94 95 96  171 13 135 94  36 66 38 68  161 12 13 14  184 198 236 151  61 62 123 63  34 177 196 211  136 123 89 63  152 24 185 186  127 128 153 52  159 109 189 111  161 49 51 47  12 13 94 15  108 50 200 51  127 128 178 143  24 227 196 187  105 167 107 86  87 88 136 89  161 108 14 51  101 55 237 103  168 4 169 90  190 166 116 205  127 25 115 178  165 166 116 205  108 200 21 51  113 156 114 35  66 38 67 68  191 98 117 223  192 4 5 7  24 181 26 64  231 65 42 43  93 109 95 96  238 8 9 175  108 112 75 51  109 110 189 111  200 59 21 51  161 104 8 47  9 10 147 175  3 37 38 53  107 84 86 100  5 77 41 65  59 21 51 23  132 224 78 65  1 3 121 212  161 108 73 14  58 153 52 53  169 107 98 199  138 219 180 239  227 58 153 214  57 214 211 240  227 57 214 211  0 54 1 2  127 52 38 53  76 77 41 43  159 109 111 241  66 18 97 19  233 148 2 30  54 233 148 2  83 136 85 86  168 169 90 107  210 92 82 119  48 238 242 175  231 78 65 43  62 63 64 124  243 113 32 35  8 10 244 47  93 109 111 241  245 144 234 147  83 136 123 85  55 237 159 160  12 246 158 15  163 234 203 147  72 20 59 23  69 61 89 63  198 236 247 78  87 134 89 65  167 169 107 98  77 41 65 43  62 181 27 120  28 29 33 31  107 84 98 100  44 48 175 47  9 10 11 147  138 180 239 195  108 112 21 51  108 73 112 75  148 1 2 122  163 203 11 147  105 87 83 136  9 163 11 147  161 50 248 47  165 115 129 178  220 36 102 130  66 128 52 38  190 125 99 100  231 197 40 43  161 12 9 14  197 40 76 43  197 76 78 43  40 76 41 43  77 78 65 43  48 49 8 47  209 92 82 119  104 9 163 11  9 173 164 147  70 150 71 151  123 63 85 124  81 207 82 119  24 61 62 64  209 207 82 119  190 98 99 117  125 181 124 120  136 123 63 85  167 107 98 100  198 76 77 78  198 77 235 78  29 194 177 230  77 88 78 65  242 174 146 175  172 249 173 164  179 222 137 140  166 179 138 223  191 179 222 223  154 138 239 195  29 121 177 230  121 177 211 230  177 211 215 230  66 128 129 38  66 165 128 129  127 128 129 178  165 128 129 178  161 108 50 51  108 75 14 51  60 250 51 23  227 214 211 187  75 250 51 23  72 131 250 23  0 39 3 212  57 58 214 240  106 168 193 107  192 4 193 7  220 221 251 208  220 229 103 130  8 10 175 47  229 188 159 189  72 60 250 23  49 75 14 51  61 63 71 64  88 235 89 224  152 71 151 186  75 131 250 23  169 228 170 199  231 133 65 42  231 132 133 65  191 222 223 199  231 132 78 65  105 83 107 86  33 34 176 35  72 28 30 22  216 74 135 22  9 174 147 175  12 9 246 15  171 158 94 95  171 13 94 15  165 16 205 19  243 252 32 35  55 56 160 109  167 107 86 100  148 28 29 30  0 1 3 212  90 91 170 92  12 158 94 15  104 8 11 244  161 50 51 47  133 6 119 7  104 8 244 47  220 221 229 251  127 227 153 53  73 74 135 22  72 112 216 22  57 217 58 240  233 216 30 22  56 171 135 96  233 216 135 22  220 102 103 130  83 136 123 89  179 137 138 140  229 103 189 130  209 228 80 82  105 106 87 83  69 235 89 224  149 198 150 151  24 213 186 187  32 213 186 187  32 34 213 187  87 83 134 89  165 16 129 67  66 165 129 67  66 18 67 19  16 18 67 19  24 213 143 187  24 227 25 143  12 9 14 15  62 181 64 124  165 16 166 205  6 209 91 119  165 16 67 19  66 165 67 19  61 123 89 63  62 123 63 124  24 25 143 26  184 149 198 151  200 59 60 51  56 160 96 204  56 135 96 204  54 233 56 204  233 2 56 216  54 233 2 56  25 142 178 143  24 227 143 187  127 227 25 143  227 153 214 143  24 213 143 26  127 128 153 143  179 138 180 195  183 184 253 151  168 90 193 107  182 69 236 151  227 214 143 187  105 83 136 86  83 84 123 85  232 213 71 186  190 206 99 118  190 99 117 118  165 16 115 129  66 129 38 67  93 109 96 241  34 176 177 196  245 254 234 147  206 181 26 27  34 214 213 187  137 138 219 180  148 2 122 30  34 176 194 177  165 16 166 115  190 125 206 99  168 167 169 107  162 93 157 110  69 70 235 89  134 89 224 65  1 29 121 230  77 88 235 78  106 193 83 107  4 90 193 7  83 107 84 86  87 83 136 89  17 18 155 19  221 229 189 130  72 252 28 31  227 196 211 187  226 72 252 31  1 121 212 230  152 183 185 186  29 176 194 177  121 217 212 230  214 211 215 240  127 115 129 178  57 217 37 58  57 3 37 53  148 1 29 122  1 29 121 122  29 121 177 122  29 33 176 156  29 33 176 194  113 226 156 35  198 236 78 151  88 70 136 89  50 45 201 51  255 170 92 82  157 158 95 110  34 194 177 215  20 59 21 23  163 254 234 147  55 159 103 189  55 103 189 130  221 229 188 189  56 109 95 96  182 184 236 151  36 66 68 208  1 2 3 121  220 221 68 208  220 36 68 208  56 171 95 96  163 254 164 147  102 55 3 130  55 159 109 189  24 213 26 64  69 61 63 71  190 166 191 205  17 179 138 195  17 179 205 195  0 102 39 3  190 191 98 117  190 206 116 118  255 210 92 82  24 181 26 27  222 223 199 140  227 57 58 53  2 216 122 30  209 91 170 92  169 90 107 199  72 216 122 30  221 229 251 188  70 235 150 151  176 114 196 35  245 172 202 147  101 54 2 55  69 152 71 151  182 69 152 151  182 152 183 151  34 177 211 215  166 191 117 223  167 191 98 100  211 215 230 240  121 211 230 240  57 121 211 240  159 160 109 241  160 109 96 241  198 235 150 151  242 146 218 175  225 48 242 175  46 104 244 47  32 185 196 187  169 191 98 199  169 191 222 199  202 254 164 147  229 159 103 189  249 246 173 164  12 9 246 164  9 246 173 164  25 115 142 178  88 235 224 78  115 142 178 116  165 115 178 116  166 115 116 117  166 191 179 223  101 0 54 2  101 54 55 237  179 138 223 140  54 55 237 160  55 237 159 103  56 160 109 96  227 57 58 214  32 34 35 187  8 10 11 244  235 224 78 151  192 168 4 193  12 9 163 164  112 21 22 23  72 28 20 22  233 20 135 22  236 224 247 78  69 235 224 151  132 224 247 78  231 197 132 78  231 133 141 42  231 40 141 42  231 40 42 43  57 3 121 217  3 121 217 212  36 3 38 130  238 9 174 175  218 203 10 147  101 0 102 3  101 0 2 3  125 99 100 120  125 85 100 120  5 77 88 65  206 181 27 120  125 206 181 120  206 118 27 120  125 206 99 120  44 256 10 175  87 5 88 65  256 218 10 175  145 174 146 147  88 89 224 65  166 17 179 138  166 17 179 205  243 113 226 35  243 226 252 35  69 70 235 151  88 70 235 89  69 236 224 151  236 224 78 151  233 148 28 30  233 28 20 22  108 20 21 22  108 73 20 22  87 192 5 65  24 62 181 27  24 62 181 64  72 59 60 23  9 145 174 147  9 173 145 147  73 74 13 14  161 73 13 14  80 81 207 82  255 210 81 82  209 80 207 82  209 170 92 82  233 56 216 135  233 56 135 204  190 166 116 117  190 116 117 118  193 133 134 65  87 193 134 65  226 252 35 31  252 28 33 31  73 112 74 22  112 216 74 22  73 20 135 22  252 33 35 31  225 242 256 175  57 121 217 240  121 217 230 240  238 242 174 175  48 238 8 175  44 10 175 47  44 10 244 47  25 142 118 27  206 142 118 27  25 142 26 27  206 142 26 27  45 46 248 47  44 46 244 47  46 104 248 47  242 256 218 175  225 44 256 175  252 32 33 35  245 172 144 147  245 202 254 147  172 144 173 147  50 45 248 47  161 104 248 47  87 193 83 134  87 192 193 65  106 87 192 193  106 87 193 83  161 49 9 14  161 49 14 51  148 29 122 30  72 156 122 30  197 132 247 78  197 198 247 78  29 156 122 30  34 196 35 187  79 255 81 82  209 228 170 82  176 156 114 35  34 176 196 35  90 193 133 7  144 146 234 147  144 173 145 147  183 253 185 186  253 232 185 186  183 253 151 186  253 232 151 186  152 183 151 186  192 193 7 65  149 253 232 151  149 232 71 151  184 149 253 151  69 70 71 151  24 185 196 187  193 133 7 65  32 232 213 186  24 185 186 187  133 6 7 65  60 201 126 51  49 45 51 47  49 75 250 51  60 126 250 51  49 126 250 51  232 71 151 186  48 8 175 47  234 218 203 147  133 210 92 119  210 81 82 119  133 92 119 7  209 91 92 119  233 28 30 22  </DataArray>
<DataArray  type="UInt32"  Name="offsets"  format="ascii">4 8 12 16 20 24 28 32 36 40 44 48 52 56 60 64 68 72 76 80 84 88 92 96 100 104 108 112 116 120 124 128 132 136 140 144 148 152 156 160 164 168 172 176 180 184 188 192 196 200 204 208 212 216 220 224 228 232 236 240 244 248 252 256 260 264 268 272 276 280 284 288 292 296 300 304 308 312 316 320 324 328 332 336 340 344 348 352 356 360 364 368 372 376 380 384 388 392 396 400 404 408 412 416 420 424 428 432 436 440 444 448 452 456 460 464 468 472 476 480 484 488 492 496 500 504 508 512 516 520 524 528 532 536 540 544 548 552 556 560 564 568 572 576 580 584 588 592 596 600 604 608 612 616 620 624 628 632 636 640 644 648 652 656 660 664 668 672 676 680 684 688 692 696 700 704 708 712 716 720 724 728 732 736 740 744 748 752 756 760 764 768 772 776 780 784 788 792 796 800 804 808 812 816 820 824 828 832 836 840 844 848 852 856 860 864 868 872 876 880 884 888 892 896 900 904 908 912 916 920 924 928 932 936 940 944 948 952 956 960 964 968 972 976 980 984 988 992 996 1000 1004 1008 1012 1016 1020 1024 1028 1032 1036 1040 1044 1048 1052 1056 1060 1064 1068 1072 1076 1080 1084 1088 1092 1096 1100 1104 1108 1112 1116 1120 1124 1128 1132 1136 1140 1144 1148 1152 1156 1160 1164 1168 1172 1176 1180 1184 1188 1192 1196 1200 1204 1208 1212 1216 1220 1224 1228 1232 1236 1240 1244 1248 1252 1256 1260 1264 1268 1272 1276 1280 1284 1288 1292 1296 1300 1304 1308 1312 1316 1320 1324 1328 1332 1336 1340 1344 1348 1352 1356 1360 1364 1368 1372 1376 1380 1384 1388 1392 1396 1400 1404 1408 1412 1416 1420 1424 1428 1432 1436 1440 1444 1448 1452 1456 1460 1464 1468 1472 1476 1480 1484 1488 1492 1496 1500 1504 1508 1512 1516 1520 1524 1528 1532 1536 1540 1544 1548 1552 1556 1560 1564 1568 1572 1576 1580 1584 1588 1592 1596 1600 1604 1608 1612 1616 1620 1624 1628 1632 1636 1640 1644 1648 1652 1656 1660 1664 1668 1672 1676 1680 1684 1688 1692 1696 1700 1704 1708 1712 1716 1720 1724 1728 1732 1736 1740 1744 1748 1752 1756 1760 1764 1768 1772 1776 1780 1784 1788 1792 1796 1800 1804 1808 1812 1816 1820 1824 1828 1832 1836 1840 1844 1848 1852 1856 1860 1864 1868 1872 1876 1880 1884 1888 1892 1896 1900 1904 1908 1912 1916 1920 1924 1928 1932 1936 1940 1944 1948 1952 1956 1960 1964 1968 1972 1976 1980 1984 1988 1992 1996 2000 2004 2008 2012 2016 2020 2024 2028 2032 2036 2040 2044 2048 2052 2056 2060 2064 2068 2072 2076 2080 2084 2088 2092 2096 2100 2104 2108 2112 2116 2120 2124 2128 2132 2136 2140 2144 2148 2152 2156 2160 2164 2168 2172 2176 2180 2184 2188 2192 2196 2200 2204 2208 2212 2216 2220 2224 2228 2232 2236 2240 2244 2248 2252 2256 2260 2264 2268 2272 2276 2280 2284 2288 2292 2296 2300 2304 2308 2312 2316 2320 2324 2328 2332 2336 2340 2344 2348 2352 2356 2360 2364 2368 2372 2376 2380 2384 2388 2392 2396 2400 2404 2408 2412 2416 2420 2424 2428 2432 2436 2440 2444 2448 2452 2456 2460 2464 2468 2472 2476 2480 2484 2488 2492 2496 2500 2504 2508 2512 2516 2520 2524 2528 2532 2536 2540 2544 2548 2552 2556 2560 2564 2568 2572 2576 2580 2584 2588 2592 2596 2600 2604 2608 2612 2616 2620 2624 2628 2632 2636 2640 2644 2648 2652 2656 2660 2664 2668 2672 2676 2680 2684 2688 2692 2696 2700 2704 2708 2712 2716 2720 2724 2728 2732 2736 2740 2744 2748 2752 2756 2760 2764 2768 2772 2776 2780 2784 2788 2792 2796 2800 </DataArray>
<DataArray  type="UInt8"  Name="types"  format="ascii">10 10 10 10 10 10 10 10 10 10 10 10 10 10 10 10 10 10 10 10 10 10 10 10 10 10 10 10 10 10 10 10 10 10 10 10 10 10 10 10 10 10 10 10 10 10 10 10 10 10 10 10 10 10 10 10 10 10 10 10 10 10 10 10 10 10 10 10 10 10 10 10 10 10 10 10 10 10 10 10 10 10 10 10 10 10 10 10 10 10 10 10 10 10 10 10 10 10 10 10 10 10 10 10 10 10 10 10 10 10 10 10 10 10 10 10 10 10 10 10 10 10 10 10 10 10 10 10 10 10 10 10 10 10 10 10 10 10 10 10 10 10 10 10 10 10 10 10 10 10 10 10 10 10 10 10 10 10 10 10 10 10 10 10 10 10 10 10 10 10 10 10 10 10 10 10 10 10 10 10 10 10 10 10 10 10 10 10 10 10 10 10 10 10 10 10 10 10 10 10 10 10 10 10 10 10 10 10 10 10 10 10 10 10 10 10 10 10 10 10 10 10 10 10 10 10 10 10 10 10 10 10 10 10 10 10 10 10 10 10 10 10 10 10 10 10 10 10 10 10 10 10 10 10 10 10 10 10 10 10 10 10 10 10 10 10 10 10 10 10 10 10 10 10 10 10 10 10 10 10 10 10 10 10 10 10 10 10 10 10 10 10 10 10 10 10 10 10 10 10 10 10 10 10 10 10 10 10 10 10 10 10 10 10 10 10 10 10 10 10 10 10 10 10 10 10 10 10 10 10 10 10 10 10 10 10 10 10 10 10 10 10 10 10 10 10 10 10 10 10 10 10 10 10 10 10 10 10 10 10 10 10 10 10 10 10 10 10 10 10 10 10 10 10 10 10 10 10 10 10 10 10 10 10 10 10 10 10 10 10 10 10 10 10 10 10 10 10 10 10 10 10 10 10 10 10 10 10 10 10 10 10 10 10 10 10 10 10 10 10 10 10 10 10 10 10 10 10 10 10 10 10 10 10 10 10 10 10 10 10 10 10 10 10 10 10 10 10 10 10 10 10 10 10 10 10 10 10 10 10 10 10 10 10 10 10 10 10 10 10 10 10 10 10 10 10 10 10 10 10 10 10 10 10 10 10 10 10 10 10 10 10 10 10 10 10 10 10 10 10 10 10 10 10 10 10 10 10 10 10 10 10 10 10 10 10 10 10 10 10 10 10 10 10 10 10 10 10 10 10 10 10 10 10 10 10 10 10 10 10 10 10 10 10 10 10 10 10 10 10 10 10 10 10 10 10 10 10 10 10 10 10 10 10 10 10 10 10 10 10 10 10 10 10 10 10 10 10 10 10 10 10 10 10 10 10 10 10 10 10 10 10 10 10 10 10 10 10 10 10 10 10 10 10 10 10 10 10 10 10 10 10 10 10 10 10 10 10 10 10 10 10 10 10 10 10 10 10 10 10 10 10 10 10 10 10 10 10 10 10 10 10 10 10 10 10 10 10 10 10 10 10 10 10 10 10 10 10 10 10 10 10 10 10 10 10 10 10 10 10 10 10 10 10 10 10 10 10 10 10 10 10 10 10 10 10 10 10 10 10 10 10 10 10 10 10 10 10 10 10 </DataArray>
</Cells>
<PointData  Vectors="u_"> 
<DataArray  type="Float64"  Name="u_"  NumberOfComponents="3" format="ascii">2.4607467542403570e-03 -2.6632655541500498e-03 -4.0023585958062864e-03  1.4152992250393392e-03 -1.7831835327442799e-03 -2.5460263903895335e-03  9.8881650024799732e-04 -1.2918787894735020e-03 -2.4199365769464855e-03  2.3182552283602460e-03 -1.4405873410619726e-03 -3.1102486395405606e-03  5.3301603619608756e-04 1.3852533047996695e-06 -5.1706615630496664e-04  2.9895185426326542e-04 -1.3897762767467391e-04 -2.1926655642336571e-04  0.0000000000000000e+00 0.0000000000000000e+00 0.0000000000000000e+00  3.0579792710568824e-04 -8.4016129852277263e-05 -1.8055964449086872e-04  0.0000000000000000e+00 0.0000000000000000e+00 0.0000000000000000e+00  -8.4334892507538587e-05 -2.7919916191754279e-04 -3.1518871334005368e-04  0.0000000000000000e+00 0.0000000000000000e+00 0.0000000000000000e+00  0.0000000000000000e+00 0.0000000000000000e+00 0.0000000000000000e+00  9.7720805562631337e-05 -1.3321706613286760e-03 -1.2174866991956517e-03  2.2406185923681075e-04 -1.1775769954375178e-03 -1.4530638942896652e-03  -1.9281585173447658e-04 -3.5346566923488134e-04 -5.0125428004290631e-04  -1.6608381672649777e-04 -8.4377132851343347e-04 -1.2187662327022163e-03  6.3777097218754523e-03 -1.5701856041921019e-03 -3.9002400220171621e-03  7.8150917976696540e-03 -1.7215037167441149e-03 -3.9217887066903762e-03  9.1538093494682501e-03 -2.4503432464832906e-03 -5.0622441679106572e-03  8.6865442443666736e-03 -3.1820194589591939e-03 -4.9822410941710452e-03  0.0000000000000000e+00 0.0000000000000000e+00 0.0000000000000000e+00  0.0000000000000000e+00 0.0000000000000000e+00 0.0000000000000000e+00  9.4768822721824747e-05 -7.0903645116432456e-04 -9.2734570338088207e-04  7.2964128423298761e-06 -1.3146135002585808e-04 -1.3397958481150993e-04  9.0129250508023614e-04 -4.3303659394577091e-04 -9.2159682245695476e-04  2.4495059113999857e-03 -6.9964110347043868e-04 -2.1584750161576681e-03  2.0277711707267481e-03 -7.3255411740447065e-04 -1.9130406634838676e-03  1.9456330646605118e-03 -6.4218886432140299e-04 -1.6977016656219593e-03  0.0000000000000000e+00 0.0000000000000000e+00 0.0000000000000000e+00  5.6482384342767969e-04 -8.3309653479962144e-04 -1.2157158015402335e-03  1.1360655805444775e-04 -4.6900478639143659e-04 -7.6706309926464133e-04  3.4178211411166361e-05 -1.0907402836413352e-04 -6.3100859126584695e-05  0.0000000000000000e+00 0.0000000000000000e+00 0.0000000000000000e+00  0.0000000000000000e+00 0.0000000000000000e+00 0.0000000000000000e+00  0.0000000000000000e+00 0.0000000000000000e+00 0.0000000000000000e+00  -5.0697931574380751e-06 3.3673547079802851e-06 1.8758686096276962e-05  5.1261393413308464e-03 -3.4610618038100950e-03 -5.6198817532096814e-03  3.1981965143568925e-03 -2.3047862443008643e-03 -3.7343667384926124e-03  4.5137976399773697e-03 -1.7686993133858560e-03 -4.0415356948224797e-03  3.3797784143132789e-03 -2.8314626571041817e-03 -4.4054196036072387e-03  0.0000000000000000e+00 0.0000000000000000e+00 0.0000000000000000e+00  0.0000000000000000e+00 0.0000000000000000e+00 0.0000000000000000e+00  4.8388638792634008e-05 -7.9371765519484550e-05 -3.1409069877782180e-05  6.5662728107633805e-05 -7.1225026978470141e-05 -1.4954686883447981e-05  0.0000000000000000e+00 0.0000000000000000e+00 0.0000000000000000e+00  0.0000000000000000e+00 0.0000000000000000e+00 0.0000000000000000e+00  0.0000000000000000e+00 0.0000000000000000e+00 0.0000000000000000e+00  5.1302509155985483e-08 1.2581056184368193e-06 -1.4300151175476910e-06  0.0000000000000000e+00 0.0000000000000000e+00 0.0000000000000000e+00  0.0000000000000000e+00 0.0000000000000000e+00 0.0000000000000000e+00  0.0000000000000000e+00 0.0000000000000000e+00 0.0000000000000000e+00  -9.7289212496564933e-06 -2.6670703287646138e-05 -2.3790494570148474e-05  4.0649174209657357e-03 -2.2390874007980561e-03 -3.9467249126386569e-03  2.7622996544889875e-03 -1.1900530307927067e-03 -2.8626729626224489e-03  1.3913562159202865e-03 -2.3225768288433306e-03 -3.3746564837245359e-03  2.0173596155245873e-03 -2.1779834857356111e-03 -3.9515663967358118e-03  5.9267252977814771e-04 -1.5251688817048219e-03 -2.9007382058656881e-03  1.8000932455959939e-03 -9.6537585160364208e-04 -2.2715410643333253e-03  2.5272799801060362e-03 -1.5457403235396988e-03 -2.9245036512864859e-03  0.0000000000000000e+00 0.0000000000000000e+00 0.0000000000000000e+00  0.0000000000000000e+00 0.0000000000000000e+00 0.0000000000000000e+00  8.4919303504615742e-04 -4.9919953206119944e-04 -6.9931143472775075e-04  1.3677357399546287e-03 -6.2049075225947901e-04 -1.2117203484230241e-03  8.8200609617202570e-04 -4.3463473238094499e-04 -7.6039629035827040e-04  1.0771222552804953e-03 -4.2268862480746510e-04 -9.4778415372438762e-04  2.0864545862407042e-04 -2.3280180648580642e-04 -1.1025916591026059e-04  6.9667257500144785e-03 -3.2452709661896337e-03 -5.3340081722743644e-03  6.5297739807103272e-03 -1.9689616297277088e-03 -4.5359622869559756e-03  7.1440106669778394e-03 -2.7524593990607411e-03 -5.8973904952411482e-03  3.8945508366678929e-04 -3.5790945754037880e-04 -3.0009001283106676e-04  2.6839948888094468e-04 -2.8074973628138510e-04 -1.9766747281336632e-04  0.0000000000000000e+00 0.0000000000000000e+00 0.0000000000000000e+00  0.0000000000000000e+00 0.0000000000000000e+00 0.0000000000000000e+00  1.3997518607227982e-04 -5.7061015018435197e-04 -7.3678335761556441e-04  -9.1501033687100639e-05 -6.7801237079605388e-04 -9.8183234084322536e-04  -1.2717043632551304e-04 -3.0457241500365213e-04 -3.7581888219213579e-04  0.0000000000000000e+00 0.0000000000000000e+00 0.0000000000000000e+00  0.0000000000000000e+00 0.0000000000000000e+00 0.0000000000000000e+00  1.0889803370001256e-04 -8.7281695296623845e-05 -3.8237143611370619e-05  0.0000000000000000e+00 0.0000000000000000e+00 0.0000000000000000e+00  -1.5763109682158705e-05 1.6680127621022971e-04 -6.6062665458324016e-05  0.0000000000000000e+00 0.0000000000000000e+00 0.0000000000000000e+00  1.0029963036645493e-04 2.1234351734590920e-05 -1.1323870947653987e-04  1.2078383679711925e-03 -6.1922216399039169e-04 -9.5240393622662996e-04  1.9998187018950525e-03 -8.0615253088396361e-04 -1.5779908037480818e-03  1.6287548244543750e-03 -4.7979186444971626e-04 -1.3992764419012570e-03  1.6076428449083556e-03 -4.2736272667640555e-04 -1.3653228306549922e-03  6.5212588430925726e-04 -1.1425132988996802e-04 -6.0399389842101308e-04  0.0000000000000000e+00 0.0000000000000000e+00 0.0000000000000000e+00  7.2025713697623751e-04 -4.9704529797116857e-04 -5.2097755751592248e-04  1.0871677620661409e-03 -5.1454266327304510e-04 -8.2113458654448752e-04  3.6889982409577307e-04 8.7146013519308864e-05 -4.2457612697728738e-04  4.1658792262109530e-04 -2.7977001381214434e-04 -2.0857026151954134e-04  1.0996659616432382e-03 -3.2440651386818880e-03 -5.4834993827797083e-03  5.1077837117031370e-04 -1.9981896644950476e-03 -3.1313445317763000e-03  5.9213252825272692e-04 -1.7902657273335719e-03 -3.7103934390784669e-03  9.7284445761413967e-04 -2.4800240513225668e-03 -4.2328831987130736e-03  1.1163513042443715e-02 -4.2876868147038050e-03 -6.9300040387173080e-03  2.8850090943605602e-03 -9.5833785278217243e-04 -2.2326298517520971e-03  2.7618911457018979e-03 -8.9129399970827128e-04 -2.1648144802043899e-03  2.3384820191290454e-03 -6.9184931747853773e-04 -1.8937645495462807e-03  2.7101996233476222e-03 -3.2635320503654249e-03 -4.8137356245498602e-03  3.7905161630820655e-03 -3.5108871243397463e-03 -5.3856646862962100e-03  3.5401829601748895e-03 -4.1491047797877862e-03 -6.2257522052007498e-03  0.0000000000000000e+00 0.0000000000000000e+00 0.0000000000000000e+00  1.1543202743013951e-03 -2.4920386486246862e-04 -1.0657097985822619e-03  1.0124528852202856e-03 -1.9183930386200377e-04 -9.5755767854340998e-04  1.7428476441460161e-03 -7.1362724327373502e-04 -1.3899139043295346e-03  0.0000000000000000e+00 0.0000000000000000e+00 0.0000000000000000e+00  1.3690667471703759e-03 -2.3016261361545115e-03 -4.4486897011574494e-03  1.0391335237699907e-03 -2.6351546784215986e-03 -5.7212424468410759e-03  2.5088787178977824e-03 -4.6448387915001936e-03 -7.4303757701773519e-03  -5.1522757853009107e-05 -5.0847792167762042e-04 -6.4116356429254828e-04  0.0000000000000000e+00 0.0000000000000000e+00 0.0000000000000000e+00  0.0000000000000000e+00 0.0000000000000000e+00 0.0000000000000000e+00  4.1582275193660810e-03 -1.1197772303257476e-03 -2.9598050428725560e-03  4.1484223601549967e-03 -1.4930183914620566e-03 -2.9867394454655537e-03  3.8339375654111636e-03 -1.0343915797594876e-03 -2.6626455606667968e-03  2.8857871125774304e-03 -8.5624773511697497e-04 -2.2744563687578157e-03  1.1405606497536124e-04 -2.5770426023501642e-05 -3.2679445579387762e-05  2.0384522006854323e-03 -7.8216559200766146e-04 -1.7171371049437970e-03  1.2331186016012461e-03 -9.2011080924422699e-04 -1.8670772683539879e-03  2.8525570745495995e-04 -4.1798125034345137e-04 -9.0971548493144630e-04  1.3083731831108369e-03 -6.5807623707389660e-04 -1.0736774167025250e-03  1.5807040146627886e-03 -5.0995258537077815e-04 -1.3982508823150172e-03  2.3148026755274811e-03 -7.2030164264689426e-04 -1.9465338501763977e-03  0.0000000000000000e+00 0.0000000000000000e+00 0.0000000000000000e+00  3.2871258533447882e-03 -9.7835989888812413e-04 -2.8487387272894842e-03  4.3104507347246019e-03 -1.8932053259752472e-03 -3.6155893321422458e-03  4.6752734712762981e-03 -1.2677401887456966e-03 -3.4299285791954508e-03  4.1470039188347147e-03 -2.5143239453118893e-03 -4.9443065655947879e-03  -2.5349224578378911e-05 -2.3033289135230528e-04 -2.5069673387759429e-04  0.0000000000000000e+00 0.0000000000000000e+00 0.0000000000000000e+00  0.0000000000000000e+00 0.0000000000000000e+00 0.0000000000000000e+00  5.6723332487833018e-04 -4.4034119040686759e-04 -3.4125093032475969e-04  5.3130854801911129e-04 -1.5579843049079859e-03 -2.5587545686410018e-03  8.9219738302389251e-04 -3.1000601094173676e-04 -7.6053826189683435e-04  5.9892512483169010e-03 -3.4326396299131372e-03 -4.3895120333034589e-03  7.5032462883233590e-03 -1.9641157126964906e-03 -3.9623303070063136e-03  7.2380979652064492e-03 -2.6061631473843299e-03 -5.0319515233075681e-03  4.5978992856235013e-03 -1.7765900989913169e-03 -4.0288861534372436e-03  0.0000000000000000e+00 0.0000000000000000e+00 0.0000000000000000e+00  3.1087525319394376e-03 -1.1152523327756698e-03 -2.5396120780831681e-03  2.5947524636643795e-03 -1.0001399716016610e-03 -2.5066080331338759e-03  0.0000000000000000e+00 0.0000000000000000e+00 0.0000000000000000e+00  -1.0741464556156450e-05 -1.1976153597009140e-04 -1.1568928046540089e-04  0.0000000000000000e+00 0.0000000000000000e+00 0.0000000000000000e+00  -5.3855396014014194e-06 -1.0965092577478155e-04 -9.7039888559524072e-05  7.2410289833708464e-04 -1.2685699615141088e-03 -1.7907765981292787e-03  0.0000000000000000e+00 0.0000000000000000e+00 0.0000000000000000e+00  0.0000000000000000e+00 0.0000000000000000e+00 0.0000000000000000e+00  1.0669137134827693e-04 -7.2031365964702392e-05 -4.1526656506316061e-05  4.1451030233628729e-04 -2.5583750399852463e-04 -2.8280651481671549e-04  2.8965575330095984e-03 -1.3911994520908713e-03 -2.9643606195827871e-03  1.1021163434622627e-02 -2.5602592608985481e-03 -4.4769254846488259e-03  1.1719773958163539e-02 -3.8410516199749315e-03 -5.3108006209512133e-03  0.0000000000000000e+00 0.0000000000000000e+00 0.0000000000000000e+00  3.4212133478630911e-04 -2.8000126018794549e-03 -4.1998328644168572e-03  -2.9368478104441465e-05 -1.4629483340358588e-03 -2.8952281775310915e-03  3.0206535441271881e-03 -4.3952275171015714e-03 -6.8067453757124658e-03  1.7162366006781469e-03 -3.1607863446626522e-03 -4.8542787933367705e-03  0.0000000000000000e+00 0.0000000000000000e+00 0.0000000000000000e+00  1.4138144814405697e-03 -4.5822452079530155e-03 -7.5226802815761083e-03  0.0000000000000000e+00 0.0000000000000000e+00 0.0000000000000000e+00  -1.5576170466041189e-04 -4.8854406828397075e-04 -3.9192466799822172e-04  5.7733844789472962e-03 -2.1739615616171264e-03 -3.8645886730511170e-03  5.7610732892535120e-03 -1.2515268796041590e-03 -3.4093136890821114e-03  1.6428096305329525e-03 -4.1719271445493498e-04 -1.5052457546708199e-03  9.8837204492884271e-04 -1.3026463903126963e-04 -9.4568021339740637e-04  1.0616141104274957e-03 -1.3715665364250426e-04 -1.3038740733039053e-03  9.6428666673978531e-04 -4.7995208553843361e-04 -7.6349741919108627e-04  1.3641844491006920e-04 -1.1964689728819447e-03 -2.2386886827892778e-03  0.0000000000000000e+00 0.0000000000000000e+00 0.0000000000000000e+00  -1.1812221017053566e-04 -2.4264234047907823e-04 -3.2197865222478010e-04  0.0000000000000000e+00 0.0000000000000000e+00 0.0000000000000000e+00  4.9537864978655164e-06 -1.0665289707663587e-05 -5.3203173900762502e-06  2.6133842652723612e-04 -3.3746870607618071e-04 -2.9753020704488390e-04  6.7133137240328079e-04 -6.2006216061557564e-04 -9.8537031041215665e-04  3.9978453558057667e-03 -1.5454219124722995e-03 -3.1297343990883504e-03  6.4364476670770313e-03 -2.6249222704958037e-03 -3.6618043492943246e-03  9.9986552290487925e-03 -3.9620965141256006e-03 -4.1055549059276671e-03  2.0119693034616917e-03 -6.8553783502599849e-04 -1.7496614672062238e-03  2.1958274023933046e-04 -1.7929290674914799e-04 -1.3389663960574995e-04  1.7227598568644344e-04 -1.1556527629424534e-04 -8.0355600743822186e-05  0.0000000000000000e+00 0.0000000000000000e+00 0.0000000000000000e+00  0.0000000000000000e+00 0.0000000000000000e+00 0.0000000000000000e+00  1.7874508194014722e-04 -8.3114457728728487e-05 -9.1741102714275902e-05  3.2546134703878327e-04 -2.6510397013181948e-04 -3.1719890327245242e-04  4.1352248000150419e-03 -5.2083301894315023e-03 -8.1390051866373232e-03  3.1666718451442617e-03 -3.1349755615796043e-03 -6.0872464164528801e-03  3.4375725568197668e-03 -1.2012154693431328e-03 -2.6230123448306333e-03  3.3567203968636748e-03 -1.1338885515299651e-03 -2.5480931178102849e-03  7.1252216325987604e-04 -8.9738369037746393e-05 -6.3951610178385329e-04  9.2902386361189842e-04 -5.1446970830236124e-04 -6.6089196593636013e-04  6.2773045573793064e-04 -6.7132382325990018e-04 -9.6309849134477228e-04  9.9809642459022189e-03 -3.4492423478510656e-03 -4.1170790352201203e-03  0.0000000000000000e+00 0.0000000000000000e+00 0.0000000000000000e+00  0.0000000000000000e+00 0.0000000000000000e+00 0.0000000000000000e+00  0.0000000000000000e+00 0.0000000000000000e+00 0.0000000000000000e+00  2.1309270582031167e-03 -9.0838965674761528e-04 -2.1488543076044414e-03  0.0000000000000000e+00 0.0000000000000000e+00 0.0000000000000000e+00  0.0000000000000000e+00 0.0000000000000000e+00 0.0000000000000000e+00  0.0000000000000000e+00 0.0000000000000000e+00 0.0000000000000000e+00  0.0000000000000000e+00 0.0000000000000000e+00 0.0000000000000000e+00  9.6997042564715219e-04 -2.1748796351849379e-03 -3.4668581739710439e-03  6.6918306867853215e-03 -2.2559037244317182e-03 -3.6794522944459266e-03  2.8456339183242025e-03 -9.4794212530163952e-04 -2.3032140159617298e-03  4.7579527092422063e-05 1.0845475861566923e-04 -6.6270338823635233e-05  9.7218800883115946e-03 -5.1959288303062342e-03 -8.6543862082596422e-03  1.3477280758050509e-04 1.7080576566982250e-04 -2.5289788747783458e-04  0.0000000000000000e+00 0.0000000000000000e+00 0.0000000000000000e+00  1.1160314947634799e-03 -6.5400139562556440e-04 -1.4994522891229201e-03  2.2615921854553162e-03 -2.0313687175961765e-03 -3.2291227649576615e-03  0.0000000000000000e+00 0.0000000000000000e+00 0.0000000000000000e+00  1.5712807502148321e-03 -8.4671177320190614e-04 -1.8408555968492191e-03  1.0463784801184677e-03 -8.0876295979057068e-04 -1.4534078968615456e-03  1.8114757939930644e-04 -8.1412232045201564e-04 -1.4752919137784040e-03  2.2892207132811397e-03 -1.7094003445194087e-03 -2.9320336740054314e-03  0.0000000000000000e+00 0.0000000000000000e+00 0.0000000000000000e+00  1.0169557839426142e-02 -2.7773642707101093e-03 -4.3778023965024360e-03  5.2722191367190804e-03 -4.5293668480885663e-03 -7.0510731569547978e-03  5.5097123671481217e-03 -3.2787034280670805e-03 -6.6767977775978350e-03  2.7355715948361317e-03 -1.4564601257730770e-03 -3.2385785303006885e-03  4.4292280119938290e-03 -1.2243842606461961e-03 -3.1452904741953078e-03  3.3888433169272381e-04 -2.5435983078171183e-04 -2.0488181373693785e-04  0.0000000000000000e+00 0.0000000000000000e+00 0.0000000000000000e+00  0.0000000000000000e+00 0.0000000000000000e+00 0.0000000000000000e+00  1.7081175168991818e-03 -5.6354091044139704e-04 -1.8425562921425484e-03  -1.6741035328392967e-04 3.4268058262681256e-04 -4.9643717120387623e-04  4.4865217042729744e-03 -4.8715891049676508e-03 -7.4951352835526102e-03  1.3852385427382966e-03 -1.2566381008483549e-03 -2.0343310511774441e-03  0.0000000000000000e+00 0.0000000000000000e+00 0.0000000000000000e+00  0.0000000000000000e+00 0.0000000000000000e+00 0.0000000000000000e+00  3.3580638790377807e-04 -1.2071489971504240e-03 -1.7710900034132887e-03  0.0000000000000000e+00 0.0000000000000000e+00 0.0000000000000000e+00  0.0000000000000000e+00 0.0000000000000000e+00 0.0000000000000000e+00  0.0000000000000000e+00 0.0000000000000000e+00 0.0000000000000000e+00  2.4770650717251146e-03 -3.4705903770801934e-03 -5.2225926120283272e-03  0.0000000000000000e+00 0.0000000000000000e+00 0.0000000000000000e+00  1.2095485132663637e-02 -2.8290534584042896e-03 -4.3466088520879411e-03  1.7188964212665311e-03 -1.1833941425289881e-03 -2.2515892647349675e-03  1.8814706666562811e-03 -3.6487400409058596e-03 -5.8515868136274256e-03  0.0000000000000000e+00 0.0000000000000000e+00 0.0000000000000000e+00  0.0000000000000000e+00 0.0000000000000000e+00 0.0000000000000000e+00  0.0000000000000000e+00 0.0000000000000000e+00 0.0000000000000000e+00  0.0000000000000000e+00 0.0000000000000000e+00 0.0000000000000000e+00  -2.9612248813053730e-04 -6.3812211906665354e-04 -1.1272096768531294e-03  0.0000000000000000e+00 0.0000000000000000e+00 0.0000000000000000e+00  0.0000000000000000e+00 0.0000000000000000e+00 0.0000000000000000e+00  -2.4149134651637712e-04 -3.0221840003811763e-04 -6.5022364963940337e-04  0.0000000000000000e+00 0.0000000000000000e+00 0.0000000000000000e+00  6.3318000173741189e-03 -5.5386541185423258e-03 -8.8144583059362822e-03  0.0000000000000000e+00 0.0000000000000000e+00 0.0000000000000000e+00  0.0000000000000000e+00 0.0000000000000000e+00 0.0000000000000000e+00  0.0000000000000000e+00 0.0000000000000000e+00 0.0000000000000000e+00  0.0000000000000000e+00 0.0000000000000000e+00 0.0000000000000000e+00  0.0000000000000000e+00 0.0000000000000000e+00 0.0000000000000000e+00  </DataArray> 
</PointData> 
</Piece>
</UnstructuredGrid>
</VTKFile>