<?xml version="1.0"?>
<VTKFile type="UnstructuredGrid"  version="0.1"  >
<UnstructuredGrid>
<Piece  NumberOfPoints="273" NumberOfCells="703">
<Points>
<DataArray  type="Float64"  NumberOfComponents="3"  format="ascii">17.62537538262091 -200.057195469735 -93.58951603346057  18.16993980707396 -200.8330727991397 -95.26097577981324  17.06219758098428 -201.7943078396024 -93.72099874531847  19.7712580960229 -198.8451833177428 -92.71439030180466  28.96602359485327 -196.2796845972731 -95.24922427065933  27.29536610826812 -189.9219918273355 -97.46439656906372  23.11223710366861 -191.6533843121535 -97.53529354076566  25.18549936470022 -194.144819816905 -102.1931956275307  19.08168217450846 -194.1026704117339 -90.97862105732563  18.30471597914313 -198.7887162309816 -87.18258785896113  16.88297943010981 -198.3554923903536 -92.82139934888764  18.26377738529464 -197.1176114551251 -105.3497432299709  20.99022670102027 -195.3496238017892 -108.9440119783882  18.57435166231346 -195.7361724295149 -108.8569468757234  19.38404473150251 -194.0915302350383 -108.0666114675418  21.54335271458758 -195.42482520489 -105.2492793826416  16.70529347500429 -197.1793439657503 -106.1833786758922  17.97728434795792 -198.1292004399871 -109.8376562339845  10.41867218660082 -201.3597247921064 -105.7132890599969  12.33216476313595 -200.6287013169599 -106.0889333569832  12.64957689222008 -202.4492240597278 -105.3716517020609  10.79386070086002 -201.4457386802462 -108.5948893994247  19.54608272883268 -199.3514879451097 -99.34558830359653  19.69392327822095 -198.1460715985123 -97.94916810035572  19.213465275686 -199.8509421140604 -97.95890806636815  21.32630048382326 -197.9384610007723 -98.12011682269763  17.03271576774046 -195.6050759694189 -105.9276916139442  15.142096751133 -194.731436201676 -106.633772118865  17.26849894858894 -193.996160290026 -108.5489990853376  16.00401624911192 -195.8388054501339 -109.0657456320353  16.25803291057948 -200.478873157578 -92.26636749614781  27.74450240359059 -210.1889646135996 -114.270655116224  26.80150255025023 -206.1168481286244 -120.3155855699952  25.36396856927555 -204.5495185232309 -118.8306650759151  24.0000466221848 -207.6526363222333 -119.906779351926  19.21274388046194 -195.0662874560381 -98.5434452546916  18.43262647145404 -192.9648166727704 -99.27758468700928  19.32504332146704 -194.4566767788847 -100.9084004401641  21.23458909407008 -193.331162180279 -101.2509102993798  14.45920311714306 -202.8061490026786 -104.7524821051826  11.39213220876016 -203.4140486734184 -108.6076696582762  13.38264024997427 -204.1442286712291 -104.1243970092673  14.76698734930194 -206.1506890038496 -105.9343813893387  21.18980782418238 -204.2758484208989 -97.97712255990128  18.80662928522048 -200.5095770005161 -100.8733382723475  22.19575214231547 -198.8543197221737 -102.611419679009  12.58403374252356 -201.0950415324852 -109.0885956083308  14.35399816304705 -199.437083117485 -109.3154459933544  13.91830262369786 -199.5455626193315 -106.3600423312452  12.12451400773107 -198.6460067381301 -106.6039757355985  32.92513978216714 -206.1128193752405 -113.7628201897773  33.532617885662 -200.3244374176168 -119.3700938127897  29.79757865870105 -199.7887084236499 -117.6414558994298  31.22099381019407 -202.9532476941989 -120.3908784613629  36.90347400219299 -201.7464617899704 -110.5632720396822  36.98343059142595 -201.310762331567 -120.377352441992  15.66702864720098 -198.1384455072688 -109.3181060800715  19.75981095185077 -197.2053942242375 -110.0662012019535  24.2138263696813 -209.5017209917314 -109.2970469569247  27.31766714415386 -205.5836990183697 -110.906351305834  23.6489289904714 -204.4055140306929 -104.9061125014286  19.31204320377371 -202.1316649912505 -114.0801317709534  26.10491418597281 -199.5152797221964 -104.3095183922659  23.77404748187115 -194.2787694878037 -109.307881372892  21.98951039793951 -196.5597081096399 -110.8720499577162  20.94372561270444 -198.1980209911237 -106.8161037767686  19.53297878064571 -207.6296048956227 -100.4947692674296  12.92812025339533 -205.7293253370984 -102.5434538139767  12.84007402890481 -209.7655764058441 -106.1316779663053  19.12977148228412 -204.6103372966165 -115.7299850891705  17.2474749856476 -203.1445609852418 -112.9991796907976  11.97440524051309 -198.2225492075802 -109.145972223686  10.32066962676174 -208.2946881823698 -86.2101072254701  8.140202081536129 -207.3114348696101 -89.29109193197679  9.408893365748433 -204.2062337192272 -88.68688373775795  10.77128357469496 -205.1366940460314 -92.11820930690179  15.46058030622735 -201.9899604563467 -110.4988758802234  13.83765222045332 -201.370494235154 -105.7437232290563  29.5357912796021 -200.3762955794947 -108.7106047294837  26.94612329428732 -195.9486843478513 -113.5004421056282  26.63559318638679 -194.0652631761921 -111.3954716908405  28.91828265650372 -194.4283952961541 -112.9451206265802  14.79999881876852 -213.7733902757856 -93.01116593843265  12.40565116802617 -204.7663800215782 -86.4103609951743  12.2360679521997 -206.2059052195331 -92.65983868417169  13.57416897069017 -205.7121171559409 -93.11582395744983  17.90954284167713 -208.2144200130393 -94.1281098532269  16.46534614392187 -211.8275750129932 -99.04505479875664  12.40502549765777 -207.5416873250016 -96.87712437559153  16.94844610297007 -209.1925730154921 -79.91837916809176  20.03471631849746 -208.0140604800365 -89.03691671830155  22.21196734834531 -211.2034538250795 -83.95353362797614  22.78262293185914 -205.4992925765048 -87.66185306039159  16.29772548492731 -203.9563991847952 -84.09976306705592  14.24672794204452 -201.3587700849313 -86.91509478186521  14.85216649199102 -202.3060765263958 -91.67912462128413  15.46192451131635 -204.4582206522423 -95.96200566035337  16.06296068846677 -203.7554160678799 -97.91018699476651  17.994261289753 -212.3199570181208 -88.69426941340279  21.64844227369758 -203.9512364959522 -92.50387657464509  16.14760159617385 -202.2038551421209 -92.60592232578023  29.70150268284577 -196.5079249754424 -115.0821385328139  27.50561402125273 -198.108695056793 -115.5295995894436  27.71082918013177 -203.1119505274443 -118.9374302603902  29.81311699585792 -205.8248889129133 -121.4838608510994  34.03998283838462 -204.3740370579239 -121.9844458186048  32.19434626886478 -212.6614471077425 -116.3268600534038  37.36361051805117 -210.9895451507444 -115.1433974166669  24.56622603286195 -202.3521874706209 -117.2155252211496  26.32117698587048 -200.2348920413981 -116.5290213107245  23.36666153451323 -199.8841813463796 -115.1149280294655  24.33695876785109 -191.5391356037934 -105.3071415187323  23.97945699841746 -191.0164092288564 -103.0679682246008  21.34715810587066 -193.6799661006356 -103.6411706292597  24.23917997728057 -192.8330659773684 -107.4091737024227  27.47043788530585 -191.0217228557917 -107.2768326087545  19.18567601842985 -199.0376955083021 -96.42952031160867  18.26921364733338 -198.8478121087334 -94.43527036473274  18.49392362437451 -196.9366400677666 -95.2691217492156  33.13785987862137 -196.9944626347628 -116.4588483528619  32.10583099724922 -194.2933287024006 -113.6883918219718  14.47804949137351 -205.3413785694147 -94.37663641321683  15.88706398555618 -203.577178718251 -93.72680389612194  25.16888195262673 -198.0071314005127 -114.4499756735124  20.74367091349282 -210.5976777981985 -104.4306298276729  17.50338823153081 -204.5987159558771 -106.7667923162097  13.56501067536421 -205.9957026101278 -100.4674799934262  11.9147846831892 -207.0995024217779 -101.255700543038  12.44837333826237 -207.3016992505177 -99.18281193516981  20.85688014617413 -200.2408481767254 -113.7448014913073  22.61912492567019 -198.0867093061435 -112.9920218116851  26.44359784204477 -192.6459417756663 -109.2066463304046  25.8772083879234 -200.7951590951818 -89.79787183770931  24.45799440969176 -194.5571759028668 -89.1465024439082  20.25930206445713 -198.5245855958522 -111.4758132954887  18.87123197145886 -198.7855174357959 -104.431155526643  17.55119688321859 -200.7884346434402 -104.291768926527  18.30754801798103 -200.4279370641098 -111.6208402782052  25.37798709819601 -190.6164100889957 -100.8453834941127  26.82560374448912 -190.282321110293 -104.0073892855004  29.09315666577637 -188.7140775812429 -101.3353774626396  19.33367127158402 -196.58140136891 -103.9582863955529  22.4819250156262 -204.5871226946351 -117.7084677353759  10.59401424022682 -207.1138087798465 -93.46301765514535  12.72386128256842 -206.9927023240181 -94.56827780570161  19.91781180072054 -198.3958808278994 -101.1684084616358  19.90214758334129 -196.4083890122731 -102.1667405329289  21.70797192907072 -195.919966501101 -101.5018580917295  6.538266765350662 -210.1257312478521 -90.17098710508074  8.224431600269096 -211.131482826266 -86.63167705890844  18.51040052560525 -195.2370163079775 -104.5711669030384  21.52768364267014 -193.7603209165495 -107.5786099167139  12.93235452753622 -204.398788897051 -91.68274341436135  14.63210153213389 -204.4095442836325 -92.69853282633674  20.16116251877241 -192.0641721985036 -94.18480187655243  18.45836853992824 -195.1446522910589 -96.41640514827796  17.69845696997358 -195.0422682410059 -95.01958841572268  21.07288021779456 -195.5178978783975 -95.34822108713755  8.794841952912131 -201.183918567724 -108.1093555394019  10.4268612312124 -199.5533014336271 -106.2739471006914  8.642286279998929 -202.6747393240901 -104.8893424994802  8.319248505813787 -206.043743554068 -106.7542575535267  11.01542345377432 -203.6431257342007 -104.8458081467966  9.357450274557371 -203.7666408344798 -107.5433840435574  10.883579094646 -206.0095391279451 -108.7048397235891  14.94142332598295 -204.9851490932813 -97.64207303715126  16.99993678932905 -202.6957593027908 -95.75356755744338  29.36060589635038 -195.926117826849 -102.363689621292  30.61810255249056 -189.1626670888696 -105.4121698656915  24.22019005140684 -196.0630123474823 -112.0939215473601  11.65153659152876 -205.1604589111003 -103.9386512189694  13.7980002919346 -206.1214797223848 -98.36167258048944  15.38941825660712 -196.5466827867429 -106.5970714073652  15.36225130428313 -198.3870835808084 -106.446919253303  15.68764854698021 -198.9200823829416 -91.79864527833617  21.61160945157796 -190.4727763974521 -101.0685454113835  21.90846160325264 -191.2094080799298 -103.9685724863354  18.61152413730554 -193.2647401420752 -102.3601323473672  17.8702297557633 -201.293125804296 -102.6160937919525  18.99202432333423 -199.8249020466302 -102.8314541327417  18.36982735678151 -201.0781864681021 -97.10112401837881  10.85272623083105 -208.2127438498078 -95.17078595083254  8.5110735596888 -210.6421029351083 -94.60304737119277  18.48754195050551 -200.9846861668597 -98.9879473091633  17.39190227658461 -202.2976901227318 -98.38595943859799  16.62698668188946 -205.5114347871748 -114.4184203044504  17.23075902299076 -208.0611325085186 -116.4205633302007  16.01339070050966 -218.0401392315264 -88.42898365617914  10.53584758656724 -211.5660408771256 -83.64531295528685  9.14875968065286 -204.7948145016688 -103.9389052829375  24.64468355461334 -199.8579162043113 -97.57157863093023  19.55779073371919 -192.3439536348641 -107.0535963325954  17.62299995099323 -193.842415019856 -104.9302723636059  21.49583130718149 -202.2303412146476 -115.8346314340666  14.08831236443277 -205.9134106595588 -96.32915894245619  34.82160865334436 -197.4199983391605 -106.7719563671161  29.54132675244601 -192.2791389038609 -110.6988915126082  18.14803668959066 -192.6540812227225 -107.873324793505  16.46129902538955 -193.8654649140422 -105.9042721873802  13.9700977796299 -214.4560222677709 -80.07309075190743  19.18579014778097 -216.2510803710999 -85.43051857863603  18.12986868697014 -222.4657852017936 -83.70424873275718  11.79199530554658 -220.2396339226283 -80.46845346545351  13.30835782702168 -208.7572183666934 -83.04171991328938  17.62168223208528 -201.9040012780131 -100.5135949661226  16.23993476928047 -203.0905754336601 -101.7818691750518  16.43808149959945 -203.189171728062 -100.076024624626  19.23097821890683 -194.9533366220805 -102.9852576574318  20.97426479938524 -217.4155633516459 -82.21777589133744  24.68745649055455 -192.6454944526691 -93.36529034613253  29.98629448927368 -189.4302958114939 -93.42166755487686  10.66422831540418 -200.9095661324825 -88.0238108590657  12.77205059943456 -201.7503901128497 -90.9412764753388  10.87195322626584 -203.1869320633638 -91.36364268075025  19.91775433181672 -197.4095408479631 -99.09967662879245  19.96467723808052 -196.3709009805178 -100.3986573416694  21.93117416782861 -196.0342388874839 -99.36593657159966  13.92310772362527 -197.0157620539699 -109.2609811883264  13.83591912297429 -197.6510444863661 -106.7484915789736  17.06224118833472 -199.1598052898023 -105.7731909428763  10.18950740413258 -199.4005358965035 -108.8590175247078  19.41755323258289 -196.8902088764823 -97.29414043885755  14.58046978324011 -204.5731863428005 -102.0152499875107  15.11562327589852 -204.5865005317291 -99.75976823042392  21.59061630051411 -192.1584914988543 -105.8843152071014  14.42055682239376 -199.7229926269411 -91.15944492974215  15.91280761027854 -201.2682778704068 -105.2396009035756  16.41515408118584 -199.7187605260821 -109.891476770882  20.54039119604573 -190.945838819813 -105.0116066229564  18.50398934787283 -193.9690746155302 -103.7006092208731  8.724451716681543 -200.8067660784579 -105.6447533748049  19.678458859818 -198.144183445531 -103.104938673011  9.328537168717997 -203.9743504152875 -92.136685958645  6.566477144278428 -202.8584584574329 -107.0176376420575  7.175212289472872 -201.0411858531308 -105.2041097211382  8.731882811234051 -205.6059939846561 -93.3253705285311  8.893129314611752 -207.517289755968 -94.79887988556882  6.20597915877363 -206.2621861373833 -91.87502921897442  17.13086548418698 -196.2241402749679 -93.62472730554227  20.45774639485172 -207.4996439867287 -118.1091374532907  5.58143730015422 -208.874347682839 -93.29490254474815  4.161584289420011 -205.3692093738684 -93.81133952134748  7.279813475885361 -206.0104188550175 -94.93013709389813  8.589003239447903 -215.755919063663 -83.61232055514161  8.209076445964858 -220.7928035244561 -83.4173266676396  13.62530995837897 -203.7012735576978 -110.0532366687922  12.70377864945554 -205.8920371375246 -110.3847964945767  5.556649091696214 -218.6538182442163 -86.12018020260638  5.757581977948739 -214.3311995550676 -87.68386036763121  16.34573107101523 -202.2241871279158 -103.8163917929485  18.0231063250225 -193.2473914299953 -97.3242415767027  14.19216057980977 -223.6774721945238 -88.17344013812303  10.23719669265198 -226.3816181379982 -81.63089785755551  15.15955832207236 -203.4491795003478 -103.4244952994213  17.83563116647137 -197.5596528605725 -94.01285426638141  20.53508380860477 -190.4506698106115 -97.55752819865998  15.31058922868827 -200.0642919294778 -106.0408815518064  3.976327430157551 -202.876593604204 -92.12641593986424  7.041355875483725 -203.5330117789765 -93.27156747729916  6.728090834205465 -203.4213207108134 -90.38374394855146  7.010721997266131 -203.0428240076553 -104.1643626602196  16.62940402721094 -192.1016534915513 -105.0864620292939  33.72799673768441 -191.8416255222448 -110.9218817341297  31.55782813982016 -190.4557437173104 -108.5449862624053  35.27831363632981 -189.7135052553469 -107.1211525130282  14.96393874084203 -204.9047340248029 -112.0629898655193  27.37074389712903 -209.4813720955365 -122.3262937918649  37.02525845908159 -197.8165207646857 -117.7686853971636  15.28413533042465 -197.7611914389692 -91.65438960854966  19.15590164944821 -190.3068916112418 -105.746643579924  20.15275137161159 -189.808314838366 -103.6975151884706  17.86221386385076 -192.573345112279 -103.6202757703075  18.37635884993237 -192.5255272749644 -100.8261494295512  </DataArray>
</Points>
<Cells>
<DataArray  type="UInt32"  Name="connectivity"  format="ascii">0 1 2 3  4 5 6 7  8 9 10 3  11 12 13 14  11 12 14 15  16 11 13 17  18 19 20 21  22 23 24 25  26 27 28 29  30 0 2 3  31 32 33 34  35 36 37 38  39 40 41 42  43 44 22 45  46 47 48 49  50 51 52 53  54 50 55 51  16 17 29 56  11 12 57 13  58 59 60 61  62 63 64 65  66 67 68 42  58 61 69 70  46 71 47 49  72 73 74 75  46 76 47 77  78 79 80 81  82 83 84 85  82 86 87 88  60 43 44 45  89 90 91 92  11 12 57 65  93 94 83 95  66 43 96 97  82 98 83 85  9 99 30 100  78 101 102 79  50 32 103 104  50 105 53 104  106 107 50 105  59 103 108 109  59 110 108 109  111 112 113 7  114 115 111 7  116 117 118 3  78 54 119 120  86 96 121 122  78 123 109 102  9 90 99 100  124 60 66 125  87 126 127 128  59 129 130 110  78 62 63 131  62 114 63 131  64 12 57 65  9 132 133 3  62 130 64 134  64 57 134 65  62 64 134 65  18 20 40 21  60 135 136 137  138 139 140 7  59 123 110 109  59 78 123 109  135 141 45 65  59 142 33 108  82 143 84 144  145 146 45 147  82 148 149 143  11 141 150 15  151 63 12 15  83 152 153 85  86 66 43 96  154 155 156 157  5 138 140 7  39 20 40 41  158 18 21 159  160 161 162 163  164 162 40 163  86 66 96 165  86 96 166 122  167 168 139 115  78 123 79 169  164 161 162 170  87 126 128 171  16 172 56 173  9 30 10 174  16 13 17 29  175 176 177 38  60 178 136 179  86 121 144 85  46 77 48 19  43 116 1 180  78 62 169 63  90 83 95 153  82 98 72 83  82 143 181 144  82 148 143 182  43 183 184 180  58 69 185 186  99 166 122 2  187 98 188 149  82 187 98 149  161 162 189 170  44 22 145 45  164 162 40 41  87 126 67 127  31 59 33 103  190 22 45 25  191 14 192 150  59 61 193 129  86 88 194 144  82 86 144 85  195 78 196 131  26 14 192 150  26 197 192 198  86 194 121 144  199 89 98 200  93 9 90 92  201 202 187 200  199 98 188 203  43 22 183 24  66 43 204 178  190 24 116 25  78 101 79 81  190 43 24 116  66 204 205 206  66 204 178 205  167 62 114 131  87 88 128 171  18 19 21 159  141 207 146 15  23 24 116 25  59 78 123 130  5 6 138 7  138 112 38 7  139 115 111 7  201 202 200 208  209 210 4 5  167 5 140 7  211 83 212 213  167 139 115 7  11 57 17 65  62 114 63 15  49 19 21 159  86 96 194 165  99 43 166 1  35 214 215 216  86 96 194 121  46 47 77 48  71 47 217 218  199 89 98 203  199 187 98 188  190 116 157 3  135 136 137 219  220 49 21 159  46 49 19 21  220 46 49 21  82 86 88 144  90 83 153 85  98 90 83 85  86 90 153 85  86 98 90 85  155 221 35 157  160 161 162 189  78 120 196 81  22 145 45 25  66 126 222 223  139 111 112 7  224 150 15 113  145 45 147 216  9 99 132 92  167 114 115 7  167 168 139 140  60 44 178 179  221 35 214 216  4 132 133 3  164 161 162 163  59 69 193 142  9 225 30 174  76 226 137 227  224 228 176 113  190 45 25 216  145 45 25 216  177 229 207 113  164 170 68 42  160 18 163 230  231 145 146 45  37 146 215 147  158 18 163 230  78 101 119 120  72 73 75 84  26 16 13 29  83 213 75 152  177 207 113 38  26 27 28 198  62 45 15 65  207 150 15 113  74 83 213 75  9 99 30 3  73 74 232 75  74 213 232 75  9 30 10 3  26 16 11 13  233 160 234 230  89 98 200 91  235 236 143 237  8 156 238 157  137 227 17 219  31 58 142 239  31 58 59 142  11 12 15 65  240 241 242 237  43 44 204 183  202 187 243 244  76 39 226 77  114 111 15 7  46 76 77 245  62 114 15 7  155 156 118 157  89 200 91 208  83 212 213 152  86 87 88 194  26 172 27 29  195 78 54 120  135 231 179 45  26 11 13 14  141 207 150 15  59 193 110 108  78 54 50 52  89 98 90 91  246 40 245 42  94 212 225 95  199 187 243 188  227 17 219 173  187 243 247 248  66 67 222 42  83 75 152 84  86 90 99 122  78 123 130 169  231 145 179 45  59 60 78 130  59 60 61 129  60 129 137 134  11 135 17 219  60 61 129 137  78 101 52 119  60 66 249 178  66 249 178 205  35 6 250 157  8 9 133 3  175 138 112 38  30 0 10 3  187 243 149 248  187 243 188 149  251 252 202 244  87 88 171 194  155 35 250 157  201 251 202 187  148 149 73 143  66 253 205 222  59 61 69 193  67 222 41 42  187 243 244 247  238 118 254 3  255 6 250 36  66 97 223 206  31 142 33 34  135 137 17 219  8 238 157 3  60 135 179 45  226 227 256 77  60 249 226 136  62 63 15 65  11 135 17 65  78 196 80 81  37 207 146 38  224 228 229 113  86 121 153 122  113 38 7 147  43 166 184 180  60 62 45 65  73 235 237 232  227 17 56 173  257 258 237 259  160 260 161 189  156 238 118 157  9 99 132 3  151 224 114 15  211 74 83 213  66 97 223 165  238 118 157 3  148 236 143 237  73 237 259 232  191 229 192 150  31 32 33 103  191 224 150 15  211 94 83 212  16 17 56 173  78 167 62 131  164 162 170 41  138 139 112 7  43 44 22 183  226 227 256 219  82 72 83 84  83 152 84 85  39 40 245 42  39 77 20 40  162 18 20 40  162 20 40 41  46 48 49 19  191 197 192 261  26 28 197 198  195 262 263 264  8 209 154 157  265 246 68 42  242 235 258 237  8 154 156 157  164 161 170 68  66 126 67 222  164 246 40 42  67 170 68 42  26 14 28 197  11 57 13 17  67 170 41 42  224 229 150 113  26 13 28 29  251 202 187 244  11 135 141 65  141 231 146 45  135 141 231 45  154 155 250 157  90 99 122 100  37 146 38 147  4 133 157 3  201 251 252 202  66 253 222 42  86 90 153 122  35 37 215 216  145 215 147 216  9 90 99 92  66 43 204 206  60 135 136 179  78 196 131 80  62 45 15 7  106 31 266 32  164 40 41 42  78 101 52 102  78 54 52 119  50 103 52 53  60 62 134 65  78 52 109 102  60 61 70 137  76 226 227 77  76 47 227 77  164 246 68 42  43 166 1 180  148 236 143 182  82 148 149 248  235 258 237 232  31 59 142 33  253 222 41 42  58 60 61 70  158 220 21 159  4 190 157 3  35 6 250 36  59 193 129 110  164 170 41 42  99 30 2 3  209 210 4 133  37 38 147 216  82 187 149 248  209 154 6 157  99 166 1 2  214 145 215 216  37 215 147 216  240 148 236 182  175 255 6 36  175 6 36 38  167 139 140 7  175 6 138 38  43 24 116 180  35 37 38 216  145 146 215 147  167 62 114 7  60 135 45 65  63 12 15 65  191 14 197 192  16 11 17 219  26 13 14 28  209 4 133 157  45 7 147 216  167 4 190 7  58 59 69 142  158 18 159 230  66 126 223 171  66 223 171 165  66 205 222 223  66 205 223 206  141 146 45 15  116 118 157 3  58 265 185 70  87 66 126 67  190 116 157 25  46 77 40 245  0 117 1 3  73 235 143 75  58 69 185 70  47 227 256 77  47 217 56 218  117 118 254 3  35 6 157 216  221 35 157 216  43 183 24 180  214 22 145 25  214 22 23 25  221 214 23 25  221 23 116 25  15 113 7 147  224 111 176 113  177 37 207 38  87 67 127 68  224 111 15 113  220 46 71 49  98 90 203 83  93 90 203 83  89 98 90 203  73 74 259 232  98 203 72 83  86 87 66 165  9 30 95 100  99 122 100 2  86 121 153 85  99 132 190 3  89 93 90 203  86 99 43 166  233 160 161 163  87 66 126 171  87 66 171 165  4 132 190 3  190 6 157 216  54 55 51 267  47 256 77 48  60 62 130 134  60 78 62 130  195 120 262 196  35 6 38 216  111 15 113 7  11 141 15 65  26 11 14 150  106 50 105 104  50 105 51 53  195 78 120 196  59 193 142 108  167 4 5 7  60 249 178 136  26 16 172 29  16 17 219 173  9 268 225 174  8 209 133 157  195 196 115 131  195 167 115 131  31 50 32 103  59 33 103 108  141 45 15 65  199 187 98 200  195 167 263 264  73 143 75 84  73 235 232 75  82 84 144 85  257 241 258 237  82 98 149 72  98 188 149 72  98 188 203 72  199 89 200 208  269 270 228 271  43 44 204 178  78 123 102 79  86 43 96 166  66 96 97 165  195 262 196 263  162 18 40 163  43 96 97 166  43 97 184 206  31 59 50 103  50 103 53 104  160 162 18 163  63 64 12 65  60 190 62 45  167 114 115 131  16 172 29 56  47 48 49 218  87 66 67 68  176 177 113 38  54 51 267 119  59 123 130 110  78 101 120 81  31 266 32 34  241 242 258 237  242 235 236 237  240 242 236 237  38 7 147 216  151 114 63 15  258 237 259 232  148 73 143 237  70 76 137 125  62 169 63 64  191 224 229 150  191 151 224 15  71 47 49 218  8 133 157 3  78 79 169 80  78 63 131 80  78 169 63 80  228 177 229 113  58 69 239 186  39 245 125 42  137 17 134 65  228 176 177 113  66 43 97 206  66 253 125 42  253 39 125 42  172 217 29 56  172 217 56 218  39 77 40 245  202 199 200 208  76 39 77 245  60 70 137 125  26 14 197 192  228 177 271 229  229 207 150 113  224 114 111 15  151 12 14 15  11 14 150 15  191 151 14 15  253 39 41 42  111 176 112 113  191 14 150 15  82 86 98 85  93 9 94 95  93 90 83 95  86 99 166 122  99 43 116 1  43 204 184 206  116 117 1 3  227 256 219 173  195 167 263 115  195 196 263 115  236 143 181 182  82 143 181 182  167 263 168 115  47 256 48 173  47 56 173 218  47 48 173 218  175 177 272 38  177 37 272 38  175 36 272 38  36 37 272 38  9 268 10 174  124 66 125 42  66 253 249 205  83 95 152 153  202 199 187 243  202 199 187 200  31 142 34 239  265 70 76 125  233 160 260 234  233 160 260 161  209 4 5 6  195 78 167 131  89 93 90 92  35 6 36 38  154 255 6 250  154 6 250 157  76 39 245 125  167 263 264 168  265 76 245 125  117 10 254 3  60 190 43 45  0 117 10 3  106 266 32 104  172 56 173 218  59 78 50 52  59 78 52 109  50 55 105 51  197 192 261 198  270 228 176 177  175 270 176 177  58 69 142 239  221 214 25 216  58 59 61 69  270 228 177 271  99 116 1 3  99 190 116 3  58 60 70 125  43 204 183 184  43 97 166 184  190 22 24 25  190 43 22 24  221 116 157 25  221 116 118 157  190 157 25 216  221 157 25 216  59 60 129 130  60 129 130 134  106 50 32 104  106 31 50 32  190 6 7 216  82 88 181 144  83 212 95 152  94 83 212 95  99 30 100 2  99 1 2 3  146 45 15 147  45 15 7 147  124 265 125 42  60 137 134 65  57 17 134 65  78 62 130 169  62 130 169 64  60 43 44 178  60 66 43 178  158 233 163 230  233 160 163 230  124 87 66 68  124 66 68 42  87 171 194 165  86 87 194 165  226 137 227 219  226 136 137 219  60 226 136 137  76 226 137 125  167 190 62 7  207 146 15 113  146 15 113 147  207 146 113 38  146 113 38 147  238 10 254 3  8 238 10 3  72 83 75 84  72 74 83 75  112 113 38 7  176 112 113 38  6 138 38 7  175 176 112 38  46 77 40 21  77 20 40 21  46 77 19 21  77 19 20 21  124 265 68 42  265 245 125 42  265 246 245 42  4 190 6 7  6 38 7 216  60 135 137 65  135 137 17 65  99 190 43 116  58 265 70 125  155 221 118 157  214 145 25 216  124 58 60 125  209 4 6 157  39 249 226 125  124 58 265 125  76 39 226 125  82 149 72 84  82 149 143 84  149 72 73 84  149 73 143 84  66 253 249 125  158 18 40 21  158 18 40 163  253 39 249 125  59 103 52 109  59 50 103 52  60 66 249 125  54 51 52 119  54 50 51 52  269 228 271 229  269 224 228 229  269 191 224 229  60 249 226 125  60 226 137 125  240 148 236 237  73 235 143 237  9 94 225 95  9 225 30 95  47 227 256 173  47 227 56 173  44 145 179 45  190 43 22 45  60 44 179 45  190 45 7 216  190 62 45 7  4 190 6 157  269 271 192 261  269 191 192 261  269 271 229 192  269 191 229 192  93 9 90 95  9 90 95 100  90 95 122 100  90 95 153 122  </DataArray>
<DataArray  type="UInt32"  Name="offsets"  format="ascii">4 8 12 16 20 24 28 32 36 40 44 48 52 56 60 64 68 72 76 80 84 88 92 96 100 104 108 112 116 120 124 128 132 136 140 144 148 152 156 160 164 168 172 176 180 184 188 192 196 200 204 208 212 216 220 224 228 232 236 240 244 248 252 256 260 264 268 272 276 280 284 288 292 296 300 304 308 312 316 320 324 328 332 336 340 344 348 352 356 360 364 368 372 376 380 384 388 392 396 400 404 408 412 416 420 424 428 432 436 440 444 448 452 456 460 464 468 472 476 480 484 488 492 496 500 504 508 512 516 520 524 528 532 536 540 544 548 552 556 560 564 568 572 576 580 584 588 592 596 600 604 608 612 616 620 624 628 632 636 640 644 648 652 656 660 664 668 672 676 680 684 688 692 696 700 704 708 712 716 720 724 728 732 736 740 744 748 752 756 760 764 768 772 776 780 784 788 792 796 800 804 808 812 816 820 824 828 832 836 840 844 848 852 856 860 864 868 872 876 880 884 888 892 896 900 904 908 912 916 920 924 928 932 936 940 944 948 952 956 960 964 968 972 976 980 984 988 992 996 1000 1004 1008 1012 1016 1020 1024 1028 1032 1036 1040 1044 1048 1052 1056 1060 1064 1068 1072 1076 1080 1084 1088 1092 1096 1100 1104 1108 1112 1116 1120 1124 1128 1132 1136 1140 1144 1148 1152 1156 1160 1164 1168 1172 1176 1180 1184 1188 1192 1196 1200 1204 1208 1212 1216 1220 1224 1228 1232 1236 1240 1244 1248 1252 1256 1260 1264 1268 1272 1276 1280 1284 1288 1292 1296 1300 1304 1308 1312 1316 1320 1324 1328 1332 1336 1340 1344 1348 1352 1356 1360 1364 1368 1372 1376 1380 1384 1388 1392 1396 1400 1404 1408 1412 1416 1420 1424 1428 1432 1436 1440 1444 1448 1452 1456 1460 1464 1468 1472 1476 1480 1484 1488 1492 1496 1500 1504 1508 1512 1516 1520 1524 1528 1532 1536 1540 1544 1548 1552 1556 1560 1564 1568 1572 1576 1580 1584 1588 1592 1596 1600 1604 1608 1612 1616 1620 1624 1628 1632 1636 1640 1644 1648 1652 1656 1660 1664 1668 1672 1676 1680 1684 1688 1692 1696 1700 1704 1708 1712 1716 1720 1724 1728 1732 1736 1740 1744 1748 1752 1756 1760 1764 1768 1772 1776 1780 1784 1788 1792 1796 1800 1804 1808 1812 1816 1820 1824 1828 1832 1836 1840 1844 1848 1852 1856 1860 1864 1868 1872 1876 1880 1884 1888 1892 1896 1900 1904 1908 1912 1916 1920 1924 1928 1932 1936 1940 1944 1948 1952 1956 1960 1964 1968 1972 1976 1980 1984 1988 1992 1996 2000 2004 2008 2012 2016 2020 2024 2028 2032 2036 2040 2044 2048 2052 2056 2060 2064 2068 2072 2076 2080 2084 2088 2092 2096 2100 2104 2108 2112 2116 2120 2124 2128 2132 2136 2140 2144 2148 2152 2156 2160 2164 2168 2172 2176 2180 2184 2188 2192 2196 2200 2204 2208 2212 2216 2220 2224 2228 2232 2236 2240 2244 2248 2252 2256 2260 2264 2268 2272 2276 2280 2284 2288 2292 2296 2300 2304 2308 2312 2316 2320 2324 2328 2332 2336 2340 2344 2348 2352 2356 2360 2364 2368 2372 2376 2380 2384 2388 2392 2396 2400 2404 2408 2412 2416 2420 2424 2428 2432 2436 2440 2444 2448 2452 2456 2460 2464 2468 2472 2476 2480 2484 2488 2492 2496 2500 2504 2508 2512 2516 2520 2524 2528 2532 2536 2540 2544 2548 2552 2556 2560 2564 2568 2572 2576 2580 2584 2588 2592 2596 2600 2604 2608 2612 2616 2620 2624 2628 2632 2636 2640 2644 2648 2652 2656 2660 2664 2668 2672 2676 2680 2684 2688 2692 2696 2700 2704 2708 2712 2716 2720 2724 2728 2732 2736 2740 2744 2748 2752 2756 2760 2764 2768 2772 2776 2780 2784 2788 2792 2796 2800 2804 2808 2812 </DataArray>
<DataArray  type="UInt8"  Name="types"  format="ascii">10 10 10 10 10 10 10 10 10 10 10 10 10 10 10 10 10 10 10 10 10 10 10 10 10 10 10 10 10 10 10 10 10 10 10 10 10 10 10 10 10 10 10 10 10 10 10 10 10 10 10 10 10 10 10 10 10 10 10 10 10 10 10 10 10 10 10 10 10 10 10 10 10 10 10 10 10 10 10 10 10 10 10 10 10 10 10 10 10 10 10 10 10 10 10 10 10 10 10 10 10 10 10 10 10 10 10 10 10 10 10 10 10 10 10 10 10 10 10 10 10 10 10 10 10 10 10 10 10 10 10 10 10 10 10 10 10 10 10 10 10 10 10 10 10 10 10 10 10 10 10 10 10 10 10 10 10 10 10 10 10 10 10 10 10 10 10 10 10 10 10 10 10 10 10 10 10 10 10 10 10 10 10 10 10 10 10 10 10 10 10 10 10 10 10 10 10 10 10 10 10 10 10 10 10 10 10 10 10 10 10 10 10 10 10 10 10 10 10 10 10 10 10 10 10 10 10 10 10 10 10 10 10 10 10 10 10 10 10 10 10 10 10 10 10 10 10 10 10 10 10 10 10 10 10 10 10 10 10 10 10 10 10 10 10 10 10 10 10 10 10 10 10 10 10 10 10 10 10 10 10 10 10 10 10 10 10 10 10 10 10 10 10 10 10 10 10 10 10 10 10 10 10 10 10 10 10 10 10 10 10 10 10 10 10 10 10 10 10 10 10 10 10 10 10 10 10 10 10 10 10 10 10 10 10 10 10 10 10 10 10 10 10 10 10 10 10 10 10 10 10 10 10 10 10 10 10 10 10 10 10 10 10 10 10 10 10 10 10 10 10 10 10 10 10 10 10 10 10 10 10 10 10 10 10 10 10 10 10 10 10 10 10 10 10 10 10 10 10 10 10 10 10 10 10 10 10 10 10 10 10 10 10 10 10 10 10 10 10 10 10 10 10 10 10 10 10 10 10 10 10 10 10 10 10 10 10 10 10 10 10 10 10 10 10 10 10 10 10 10 10 10 10 10 10 10 10 10 10 10 10 10 10 10 10 10 10 10 10 10 10 10 10 10 10 10 10 10 10 10 10 10 10 10 10 10 10 10 10 10 10 10 10 10 10 10 10 10 10 10 10 10 10 10 10 10 10 10 10 10 10 10 10 10 10 10 10 10 10 10 10 10 10 10 10 10 10 10 10 10 10 10 10 10 10 10 10 10 10 10 10 10 10 10 10 10 10 10 10 10 10 10 10 10 10 10 10 10 10 10 10 10 10 10 10 10 10 10 10 10 10 10 10 10 10 10 10 10 10 10 10 10 10 10 10 10 10 10 10 10 10 10 10 10 10 10 10 10 10 10 10 10 10 10 10 10 10 10 10 10 10 10 10 10 10 10 10 10 10 10 10 10 10 10 10 10 10 10 10 10 10 10 10 10 10 10 10 10 10 10 10 10 10 10 10 10 10 10 10 10 10 10 10 10 10 10 10 10 10 10 10 10 10 10 10 10 10 10 10 10 10 10 10 10 10 10 10 10 10 10 10 10 10 10 10 10 10 10 10 10 10 10 10 10 10 10 10 10 10 10 10 10 10 </DataArray>
</Cells>
<PointData  Scalars="f_818"> 
<DataArray  type="Float64"  Name="f_818"  format="ascii">4.2417565968908233e-01  4.1292121779154456e-01  4.1432426325828836e-01  4.2670849912216496e-01  3.9275963389791624e-01  3.8675152563272863e-01  4.3184756005408104e-01  4.0149664366191373e-01  4.6476271054431023e-01  4.2517723883850295e-01  4.4375795971000020e-01  4.2383298384148926e-01  4.0322672865881587e-01  4.3320543613472956e-01  4.4664994821293424e-01  4.1636604042562275e-01  4.3918568193471613e-01  4.0693584093283247e-01  4.5929312788275922e-01  4.4491631681830679e-01  4.1698294715425172e-01  4.5579935995242599e-01  4.0732489144985018e-01  4.1848016045833525e-01  4.0915423152337332e-01  4.1695896628068801e-01  4.5762296928658991e-01  5.0114530556810299e-01  4.8442794721833610e-01  4.7233144676591832e-01  4.3058629422093569e-01  2.8000922298854436e-01  2.7512254537893893e-01  2.9524611397738593e-01  2.8145567869020949e-01  4.4743919346295741e-01  4.8149964415790786e-01  4.4911376934197916e-01  4.4520641138553524e-01  3.9737143698374933e-01  4.1759164432009882e-01  3.9395009632050509e-01  3.8152136970435352e-01  3.9861107372534471e-01  3.9773625576780774e-01  4.0011758927094110e-01  4.3547459469792366e-01  4.3678682099858185e-01  4.4053364018442398e-01  4.7983784204832092e-01  2.7994834708262972e-01  2.8584229542844436e-01  3.0339601148545225e-01  2.7674826244027023e-01  2.9812165119126149e-01  2.7442135544954971e-01  4.3905620717147670e-01  3.9415116120080490e-01  3.3108396031045900e-01  3.2238968109991273e-01  3.7140535135698127e-01  3.4730240730196177e-01  3.8055347552893470e-01  3.7805182146261734e-01  3.7464407844213798e-01  3.9728055876723928e-01  3.8199220916829985e-01  3.8716884084140385e-01  3.7018516903466608e-01  3.3076526613846824e-01  3.5657447881216126e-01  4.9436295075145215e-01  3.9594231749853670e-01  4.1396892427483123e-01  4.4001735425308774e-01  4.2602255486876028e-01  3.8791247570104276e-01  4.1731807411308869e-01  3.3936195093292892e-01  3.4015729122053706e-01  3.5306362570671473e-01  3.3813755318479410e-01  3.8081041426703388e-01  4.1386460686765020e-01  4.0950379812372117e-01  4.0575580071350043e-01  3.9618798550966056e-01  3.7648938209604382e-01  3.9018405225252906e-01  3.7396894584441059e-01  3.9503722251627360e-01  3.7472833243803527e-01  3.9437525867702106e-01  3.9780401314494074e-01  4.3390987749439308e-01  4.2595273803311928e-01  3.9723183923289046e-01  3.9407574221972164e-01  3.8301608561118661e-01  4.0792072620355224e-01  4.1865959112588708e-01  3.2317420600530966e-01  3.2469999592585885e-01  2.9214696468128648e-01  2.6191267230923698e-01  2.5998584124547419e-01  2.2931419530899325e-01  2.3759375555909870e-01  3.1418906396568996e-01  3.1811819720475781e-01  3.3591432987313424e-01  3.9964523221356424e-01  4.1371499259940808e-01  4.3639272165831594e-01  3.8935416321191119e-01  3.6727211105685920e-01  4.1842746063838626e-01  4.2798729513100614e-01  4.4109456475391629e-01  3.0690827122466735e-01  3.2523879026902291e-01  3.9994500083169693e-01  4.0798795720782433e-01  3.3796932876196112e-01  3.5781343071303429e-01  3.7789814769908608e-01  3.8537750037394297e-01  3.8632091010099490e-01  3.8561313388132884e-01  3.5019257166049794e-01  3.5451792865257170e-01  3.6496209674551144e-01  3.9964645676783839e-01  4.0080413899068529e-01  3.7406842017199737e-01  4.0365693119039181e-01  3.9502382257767055e-01  3.7348544254921318e-01  4.0068386552236840e-01  3.8131880420995845e-01  3.7144839310613098e-01  4.2124601259578642e-01  3.1111816410178589e-01  4.0887986879854799e-01  3.9730737844677949e-01  4.0728468362313919e-01  4.2182455128436991e-01  4.2005081639798109e-01  3.9569358833581503e-01  3.8362882061462333e-01  4.4418934561803253e-01  4.1714654664632217e-01  4.1877017463163746e-01  4.0996389789576637e-01  4.7572030249659952e-01  4.5709671756548081e-01  4.6876942903415542e-01  4.3685162390300791e-01  4.8993964902940906e-01  4.8942832269176856e-01  4.6304703529299573e-01  4.1831244389215916e-01  4.2063470428037719e-01  4.3923597346557530e-01  3.9042087763763567e-01  3.9185792098332950e-01  4.0379695600507076e-01  3.7521390071131855e-01  3.5863607323968694e-01  3.5706836673477038e-01  3.9983479848106235e-01  3.8805428809044551e-01  4.6669103677223278e-01  4.3877152925139079e-01  4.4915871558410320e-01  4.6681785242976775e-01  4.4741683538004262e-01  4.7101404295962263e-01  3.9186082714541398e-01  3.9712385408440393e-01  4.0588177022142874e-01  3.9706721354097563e-01  3.9502695334733084e-01  4.0029668676161073e-01  3.9708359099257823e-01  3.4108597278050917e-01  3.2143749924533488e-01  3.6691269759076905e-01  3.7880766421157858e-01  4.2767257763082150e-01  4.0754361355307350e-01  4.7213987695605342e-01  4.7557260504850096e-01  3.3121508482748818e-01  3.9301445361389931e-01  3.2950034058812910e-01  3.4667690804751905e-01  4.9238932501579785e-01  4.9385484800677354e-01  3.6649640809073947e-01  3.6768331008270255e-01  3.5214579756452807e-01  3.5636377144446113e-01  3.8484912270083127e-01  3.9316155421374499e-01  3.8795612868189311e-01  3.9044896615412761e-01  4.4131267139220437e-01  3.6027023226531968e-01  4.0892246164060364e-01  3.7302792534253731e-01  4.7311006133899308e-01  4.4507335235317369e-01  4.4499238588884943e-01  4.2010411366465306e-01  4.2542017744942290e-01  4.2271071626081286e-01  4.8581489887107521e-01  4.7152267738875558e-01  4.1138800722862046e-01  5.0057639287316169e-01  4.3155983564282019e-01  3.8599938116386678e-01  3.8785206442202103e-01  4.3863987842791580e-01  4.5237968885912694e-01  4.0008300916288947e-01  4.0590695957922573e-01  4.7794134308072339e-01  4.6176752070847626e-01  4.9253217749239980e-01  4.0605923656913329e-01  4.4894020230022025e-01  4.9313818397508907e-01  5.1074505220480626e-01  4.3438891542422098e-01  4.1309607105903434e-01  4.4209191551336036e-01  4.6276563635474438e-01  3.0505237264932134e-01  4.1343773312700882e-01  4.8016521895973402e-01  4.4050089306152135e-01  3.6828775488093113e-01  3.5750848454836576e-01  3.8827378234833421e-01  3.7303189087388872e-01  3.6250110628592175e-01  3.7367808049020845e-01  3.9077402581923437e-01  4.8580310990740450e-01  3.5225186791288116e-01  3.4585382608213139e-01  3.8868964215978707e-01  4.4244463399565487e-01  4.9327278660816676e-01  4.1744581218125409e-01  5.2479270761516261e-01  4.7694111182964888e-01  4.7981959586699857e-01  4.7858110281499289e-01  5.2157957236654506e-01  3.3263547955679901e-01  3.4736136727835648e-01  3.3916296431400644e-01  3.6166540009750325e-01  2.4456463136389361e-01  2.9236464928049710e-01  4.6567269799197530e-01  5.1534027243062352e-01  5.0652434050229245e-01  4.9201247281914212e-01  4.8713476836004788e-01  </DataArray> 
</PointData> 
</Piece>
</UnstructuredGrid>
</VTKFile>