<?xml version="1.0"?>
<VTKFile type="UnstructuredGrid"  version="0.1"  >
<UnstructuredGrid>
<Piece  NumberOfPoints="273" NumberOfCells="712">
<Points>
<DataArray  type="Float64"  NumberOfComponents="3"  format="ascii">30.89364624680946 -220.5043952925438 -69.26832248591553  22.56445802173902 -218.8633389822548 -67.8852469070775  21.86101873541799 -223.9253923399655 -68.56553658068607  26.47533727226325 -222.1912230204874 -63.79689564660278  38.75825161411948 -232.9074314618131 -68.04315993733019  34.50246875027894 -230.9449144369961 -60.95924504273489  39.66092718002239 -231.2112033341564 -59.2749440243396  36.4962492805564 -236.5228860195116 -62.65015373581978  25.66460536471269 -226.453904687302 -75.00168213384141  17.77919594271251 -224.2647389775832 -73.59369516183848  20.89593340075539 -229.2218409009523 -70.95230207124374  29.45831663425565 -226.1066960971186 -71.07294124695075  58.01161784578806 -235.9978136727329 -87.9643483307329  62.77327785641963 -239.7954069939529 -93.01477258981075  62.88449587011512 -242.4102029356123 -87.09154472606248  59.28135017460214 -243.3624714458009 -91.11426944044506  45.07759249810756 -242.0525488527586 -92.63024191995697  47.06732700339811 -247.2245686138561 -94.9272821777126  48.92158973739942 -248.4752887339852 -88.85931432271421  42.24964574255123 -248.9532917602997 -90.77223309185338  26.13674185267183 -220.8815933930689 -73.95371762606899  22.23723260678983 -222.0351967374912 -78.82566005987414  46.38501002015743 -221.6684035367495 -64.15534513752081  45.3077318125242 -213.919879504687 -57.01457795513608  49.47346606070812 -218.024168282253 -55.99234273335845  44.92167250840002 -221.3508825875332 -56.44769782379404  55.10460155218352 -241.8232742763181 -71.86193236953089  54.80926621732683 -242.7505927892539 -77.9067176833955  57.64018059059629 -247.8734518595448 -78.48980631073005  53.67884632815719 -248.2852288972585 -71.85185982108467  40.90771350923728 -241.7226271492276 -74.39546479582827  42.26428061129166 -237.7800364259721 -69.3639907831603  36.25833918268354 -242.0316027344237 -67.66453027607049  41.89456255774802 -245.5973557276502 -69.38673235822816  31.87251188228197 -237.384657869902 -66.04129137469049  51.11799101099065 -228.7695206754633 -64.17769930788346  49.30571786836165 -235.5151632739363 -66.1213377767607  44.81871995130995 -232.5879961556677 -66.06230527319394  43.78649853587628 -233.7508638735221 -58.89422678872515  25.68922337682808 -214.8776988922182 -65.09142316305223  30.52405890557485 -217.6704210784124 -60.94064346319674  13.9700977796299 -214.4560222677709 -80.07309075190743  16.94844610297007 -209.1925730154921 -79.91837916809176  20.97426479938523 -217.4155633516459 -82.21777589133744  17.95608694138841 -213.4082063460506 -76.62171991780464  54.2326495407348 -241.3599850126286 -84.04459384102134  57.45514912064862 -246.3048335081447 -86.29543701929059  61.72513534386678 -244.9586115472862 -82.06317693011502  51.62422446057072 -248.980735912447 -83.29527833174762  52.78466684291516 -247.7730395201672 -87.72362975941128  55.49011592865961 -236.0292007411848 -92.22462490818668  57.0390533068194 -242.0009496097504 -97.12742844882305  34.83218985851252 -235.9914479982127 -110.5139075088264  38.69386246374556 -238.5959824072628 -105.7832210994189  41.06216620640373 -232.5223323152685 -110.7375788276287  42.08691143617558 -240.5063570794141 -112.3561055397391  56.29218758059992 -232.7286369778154 -65.58325827361523  60.12244695342194 -236.6216408293855 -70.38350457472848  54.52637928113437 -238.3746067679447 -67.53360818159905  58.52735347222908 -240.4690788795673 -59.80799972645124  59.30196799318479 -239.7775348047711 -75.48078941009311  31.29254564417978 -222.7181945281667 -60.62275135508365  48.00513911305324 -239.8381625170697 -95.58218144596059  45.78966104938016 -244.9932075882604 -101.9799943731584  51.63429252397243 -244.4174306575148 -98.05037876879997  61.7258768567787 -231.4127648912184 -84.90869469050577  66.18472414329197 -238.2035138164502 -88.91214217492349  66.65365408028987 -240.3319826512742 -82.85843572121105  42.15887451479135 -239.5145641551998 -101.8830230351693  38.96246554681804 -246.4402904757752 -102.940293765945  40.73411884365845 -243.6123423483837 -108.1323326351549  35.8075432926749 -240.3827037939627 -76.06868891413633  31.95788434437103 -241.6838072960043 -70.53426662313025  34.65123323870623 -245.4470001762251 -74.41531166676617  28.64328346072887 -230.1734652970859 -73.24758562573203  24.26654039768885 -233.9865072917946 -69.99939985991223  25.25260544084648 -229.4735703742015 -66.45305188763572  13.69524844225148 -242.0143751096315 -89.10948292348183  18.22099405921552 -237.8418496196823 -89.92793508312377  18.9053841547611 -242.6080062298738 -83.8765095391194  15.60720338311668 -238.8168747028365 -82.33936250914493  42.91800428165622 -241.4178658283142 -96.76026391360689  36.87853548663772 -242.0983221671389 -99.21805623711695  25.98658379885829 -216.7761028192466 -74.79603261927424  23.35227002018705 -215.2913258816612 -79.54970633451157  21.14773671846239 -209.4110496065023 -74.4402901066755  21.39326839557464 -214.5679387002769 -70.6237140336243  28.2447932883506 -211.5103463413116 -73.83119386852326  24.26163715644228 -210.33896640777 -68.46174668312928  42.13542656840032 -215.5286578165386 -65.13252803983841  40.5586437608147 -217.3595772633501 -57.34363991793565  40.30908972301312 -209.6711438487675 -58.91605496071441  26.46892588524615 -240.7546552487886 -85.1265215895159  21.06752058235662 -236.5238557160652 -85.00080371884575  26.46961165630932 -237.0769220715114 -80.20573612185785  22.23643899731725 -241.1023652332924 -78.30787071624  28.32351705940538 -238.4255136570358 -69.85893279624531  23.19662491238003 -237.7123195951615 -73.96988455677057  40.62573158064563 -247.9042472633484 -97.01177008662371  48.11486978187255 -236.1452039340996 -58.64030798862532  24.8317662379393 -246.9255808969535 -101.7615585629141  31.47401317351631 -240.7142936028893 -104.9394396208064  24.0599519361461 -239.8957080415528 -105.7335004844895  24.56390965243754 -241.9195963680729 -100.4397418051974  62.79468573850928 -232.6820207212346 -75.31807178541142  67.92632167951504 -240.3210619821961 -77.01609017955336  40.97984873995037 -242.1142168612352 -64.87653592241455  60.68166192964326 -236.6770623275484 -80.90961411588688  39.30730581028809 -243.4206465172978 -92.10818796673017  33.76436819200904 -243.7409974329578 -87.09306888325951  33.30313319890698 -243.4775095252583 -93.78158860580298  36.27743966988777 -248.7618773198131 -92.49647208206781  34.4669544380771 -248.1967569020081 -97.30926048347663  28.85344246277087 -247.9166616510535 -96.68363341283273  31.36416574692215 -248.2883537637247 -92.97311184734171  29.40763596905975 -242.9246825771247 -97.73403406973782  18.02460776449748 -235.4235418041953 -77.31803602236621  22.5708647434499 -230.5158252719966 -79.66987588495176  39.70837123703905 -243.9501685108296 -81.46648601104371  37.24714315499632 -249.0224901089311 -86.5248137633904  38.84853993374448 -248.5813539500463 -80.22655225240088  44.51627714325349 -249.4929073469122 -84.45250231099638  51.06885612290804 -240.3445415916755 -90.62202301797362  47.61321502292466 -243.6527763949905 -84.64559884713981  33.35655426377674 -215.9516949419982 -67.98747227176862  35.42036662071467 -213.8646703249293 -59.14623033101244  30.92058504870041 -212.4763552363121 -61.55547422806168  11.79199530554658 -220.2396339226283 -80.46845346545351  15.79836358800324 -219.6980343804997 -76.59710131900772  18.12986868697013 -222.4657852017936 -83.70424873275718  53.55743044030295 -220.5078930063195 -64.83549755413621  49.7898402977638 -225.2786529470161 -55.81608771056207  54.37999588595258 -221.1239609621811 -55.60938695640296  30.45886169104388 -235.6912021765094 -75.14581431400649  42.91645550305824 -210.9903528213792 -66.18589721197719  37.11118196827368 -212.3003895813613 -66.96327866010469  58.699818229895 -225.7842578003121 -66.90736342589781  61.22234992622066 -231.2288213758001 -69.6775060163052  70.101970624939 -223.7085219664247 -67.24038593256336  68.39157738632285 -227.8804587750288 -63.19912471530299  55.90931207144668 -226.2248160659945 -55.51978472691655  52.02848036491111 -230.7977985773028 -56.29649730713926  57.01465164010599 -231.1238166662019 -56.21812611052096  40.24147786413063 -238.1585179230407 -116.2233680067643  70.3827897038467 -230.2334197262845 -67.4850061754543  69.56454905059569 -236.4647944500191 -68.54129406567652  71.3545127163177 -232.3594433102452 -73.37460816359452  33.04554189212492 -230.8907921836689 -70.0424811907442  27.98517744869494 -234.5265180148371 -66.91950860083332  28.11302524984442 -242.9739988025664 -91.54241176221979  31.98337170117584 -248.3072745326945 -88.10881908893734  48.99763208795831 -240.4460198351514 -69.36970582658688  48.95192383204593 -246.3850512155784 -67.33043230831946  50.11783962628447 -244.4230298917173 -63.97757643197168  47.55248763095561 -244.2758221622585 -78.20251493914179  45.8927633139398 -228.911995075849 -57.16284234333154  41.60558762802144 -237.8173167285358 -61.38936033471092  46.22399238433354 -242.624881031366 -63.2308659015353  29.33694857545547 -216.4257143575405 -70.95527064514619  40.67069397165942 -222.0778251392331 -65.14484562912772  42.71689100585263 -227.4243084275049 -65.27654617319624  35.21074698546347 -226.2886793651778 -59.44809067324327  40.6766167758918 -224.7911716167839 -57.61372725187154  36.10615982367652 -236.9285310660435 -71.90505168651099  66.05935981682723 -231.4845871133517 -60.11310103656609  64.78704794121819 -236.5198621565209 -59.91391200069249  49.82560715140186 -243.5015271940092 -74.37325545707002  47.1316147592354 -248.3258229766013 -73.27331490854034  51.45925779463324 -249.1852121358332 -77.47344411115533  10.23719669265199 -226.3816181379982 -81.63089785755551  14.51834480502317 -227.9841611525706 -87.43418941259394  18.40388187559205 -229.9386116855171 -83.75681450208624  19.92413711093542 -246.2227320205361 -98.34814541981356  19.12446184537447 -240.3848054151896 -95.72526016507734  19.95873673590963 -240.1986981974848 -101.5785972663641  24.78746053249705 -245.0558912116429 -82.257995193323  28.34848280711937 -244.543661842358 -77.71275860708137  63.57461033248358 -218.9687541370365 -60.07544973566991  59.74180602053577 -221.3650381823263 -56.83602383790596  62.5791652775068 -224.9974260697176 -73.58430719603749  71.77787545331691 -226.6548811191666 -72.44591958440154  71.07143564617411 -220.1491282913569 -71.796542085187  72.10764375417716 -222.4532883436906 -77.31116313549838  44.65778800404778 -236.1465922310475 -105.1095482496015  69.76568966464382 -237.4770348516269 -73.74552578698983  30.26466893544327 -227.3966281479743 -61.97193448298755  39.06703571701717 -244.1095717149888 -86.74550898166284  32.18143696167555 -247.5117924368451 -81.75171689038481  53.55534060673686 -245.9660962600407 -92.29184720701788  36.61477570218636 -219.7638437717657 -66.20635025034052  35.38519421055894 -220.3990042498341 -58.65774718705411  61.38260019639227 -244.4217472996027 -64.93789422508844  54.64797996963189 -245.7350459035325 -65.14148244916534  64.06535402070438 -244.3017696064566 -77.28001173014394  66.63322697081637 -242.279311874298 -70.67072909407931  48.52089158863696 -214.549806202602 -65.16619851064871  26.23295487781869 -247.335438874172 -90.6335526140536  24.309567304471 -247.1994847061107 -96.01858292407104  21.68739453032918 -246.4144558910107 -92.77057113777947  54.90397079389827 -215.3688088408845 -67.19775597959431  55.91516492420865 -211.9640670992848 -58.36002858622113  60.06015760002593 -215.0906065892809 -58.96755682338274  58.96172019435106 -208.7759392689196 -61.68345201629757  63.25020557597417 -228.5579319059427 -80.11893352167033  71.48615764587134 -230.1681954265851 -82.96331287760687  70.50531792653868 -235.0358776970373 -79.57030030410183  72.14112337175753 -228.2639735142813 -78.10380443252501  53.04592024619677 -235.371796780119 -97.36316387194374  45.98441670449613 -249.3081543180929 -78.79034869076193  24.23375141852368 -242.3208025746869 -95.80606155199663  60.4110836426562 -246.8511195353649 -71.1896570806535  47.52529020827809 -208.8569636129672 -58.40636969752735  27.85304202354525 -241.6288829341144 -73.86490821579476  30.72913243159998 -232.7132427199114 -63.70035362299657  40.9284152592536 -247.6589487936463 -75.08091767918418  27.61074364258872 -245.6441213262104 -107.2248244133234  54.99197325081362 -235.9185492060837 -57.53117365711426  35.11356725321865 -225.5403025773737 -67.29635300797212  68.58444069221015 -233.9410626108105 -63.63587684978939  52.36374310852515 -241.4237688294872 -60.79172367629308  66.207576452411 -239.8264994211326 -63.77245489484256  64.76945217001537 -224.455167637383 -59.518657223508  66.90239057454085 -220.8873904003731 -62.97117235441907  36.22578616985599 -241.5674262169713 -113.4668755149463  33.43245177931286 -238.3022644812711 -118.3075390973586  29.53656172690992 -241.058272146189 -115.630761435755  31.6063795847568 -244.2206640102133 -110.2017276008979  28.08977981707162 -237.4829059867197 -109.8938428652825  20.43378269437132 -233.1910089835825 -73.46721793075839  46.9817855791004 -238.1798494520311 -100.112485051089  47.39020832597461 -240.676979916018 -108.6514528226674  31.60875376995467 -211.5677673286935 -70.19796886232412  30.10705909975105 -207.2212677534884 -74.10115130079838  28.82273501958148 -208.0929079038266 -64.57610779736142  25.5660804396938 -205.3956850131161 -70.11495599443842  34.60748564394999 -206.8420054028237 -70.27583458415151  31.80378993397415 -241.1532843393477 -80.44801498126178  26.03355276721757 -210.1394709460181 -78.47090053373081  34.69921414941329 -208.1936581349262 -61.12922764903927  19.34178703182408 -219.0715850388889 -72.10865147286125  45.31161939453695 -242.2020958428543 -72.87701444568427  20.05848669637055 -226.4413925729462 -81.37776810176743  13.90269125581427 -225.7218302868035 -77.99822448034685  11.47043920451293 -232.5335493425519 -82.0092751935312  16.5199051434633 -233.6042846931616 -87.55175213226396  31.58930633187147 -247.2333110776469 -102.3586621603904  69.60183877463534 -234.0449571043276 -86.59096081363072  51.68880229061465 -241.905472739655 -103.1128401828122  34.54105647296112 -245.2620664490273 -107.545791520774  22.45284386397699 -240.8037240275224 -90.19183134017612  16.72332128515204 -244.8166839491401 -93.29543724515618  14.78148631096871 -236.185585819662 -93.33734548541383  17.04585167300413 -230.119162941864 -75.63200902022746  20.37160670318175 -245.6606236286271 -104.278095067182  26.45011495913634 -232.1846424759703 -76.49762597006989  22.92609613344131 -204.3052019004234 -76.28014203913308  53.10202790704857 -207.9453459675973 -59.44661965852146  51.25238606837802 -212.5662824454136 -57.11697247556216  59.703704329056 -218.0502913747067 -70.91717797203466  64.09616913136881 -213.8378576369222 -63.11816115424645  68.17591861319474 -216.445366388925 -67.1630461817051  55.66152988097815 -216.6342574433058 -56.58260027894148  30.97219052891788 -232.7296163049228 -113.6425629727633  61.31467016819124 -228.0862727976324 -56.97683807219393  60.84623999360262 -234.0968566646233 -57.48544996703361  35.67362917240573 -230.1561994892042 -114.1987326136312  43.78471534154139 -243.6115921606272 -88.08624828790687  71.81332580383618 -223.8569054524677 -83.48672668393519  15.86659214459773 -244.9002238295594 -100.4476513328776  21.16928157531764 -245.3975664091941 -87.95973458532511  27.318891025403 -247.0300761004982 -85.89935322554025  10.94149216368682 -237.4336533534518 -85.92273670719653  22.21196734834531 -211.2034538250795 -83.95353362797614  </DataArray>
</Points>
<Cells>
<DataArray  type="UInt32"  Name="connectivity"  format="ascii">0 1 2 3  4 5 6 7  8 2 9 10  0 11 2 3  12 13 14 15  16 17 18 19  20 21 8 9  22 23 24 25  26 27 28 29  30 31 32 33  4 7 32 34  35 36 37 38  0 39 3 40  41 42 43 44  45 46 14 47  45 46 48 49  50 13 51 15  52 53 54 55  56 57 58 59  60 26 27 28  0 3 61 40  62 63 17 64  65 66 14 67  68 69 70 63  71 32 72 73  74 75 10 76  77 78 79 80  81 82 68 69  0 1 39 3  83 84 44 85  0 20 1 2  83 86 44 85  87 83 86 85  87 86 88 85  89 90 91 23  92 93 94 95  74 96 75 97  81 82 69 98  35 56 36 99  100 101 102 103  57 104 60 105  31 106 7 32  104 60 107 105  108 109 110 111  110 112 113 114  110 115 112 113  93 94 95 116  93 94 117 116  94 117 116 97  118 119 120 121  122 123 18 49  122 45 123 49  124 125 40 126  127 41 43 128  129 127 43 128  130 131 132 24  74 133 96 97  89 134 135 91  136 137 138 139  35 140 141 142  143 52 54 55  137 144 145 146  74 147 96 148  11 8 2 10  149 110 114 150  27 46 48 28  11 2 3 76  151 26 152 153  154 45 123 48  37 6 155 38  36 156 106 157  158 86 39 88  159 160 161 162  160 161 6 162  163 133 96 72  137 56 164 165  166 154 167 168  160 5 161 6  129 169 170 171  172 173 103 174  94 175 95 176  124 39 40 126  136 130 177 178  147 96 148 34  179 180 181 182  53 183 68 70  57 104 105 184  0 185 3 61  109 150 111 119  108 186 109 111  186 109 111 119  109 150 119 187  118 109 119 187  122 45 188 49  89 189 159 190  26 58 191 192  107 47 67 193  57 105 194 184  163 4 32 34  0 20 11 2  195 130 22 24  149 196 197 198  21 43 128 44  199 200 201 202  203 204 205 206  93 171 117 116  122 207 51 64  122 45 188 15  118 208 120 121  45 46 188 49  57 58 59 191  107 14 47 67  209 149 197 198  12 50 13 15  122 17 188 64  22 159 160 162  60 193 105 194  60 193 194 210  134 91 23 211  133 96 97 212  53 183 70 55  118 186 119 121  118 186 109 119  65 107 14 67  123 48 18 121  147 5 213 185  36 37 31 156  154 118 214 208  57 26 191 210  154 208 167 168  74 148 75 76  159 90 190 162  163 32 34 72  71 163 133 72  215 100 101 102  35 141 216 99  130 22 35 131  35 56 216 99  22 35 131 155  163 147 4 34  36 156 99 38  147 217 5 185  56 58 216 59  137 218 144 145  137 57 218 145  36 219 157 153  57 191 194 220  104 146 180 206  136 221 177 178  136 222 221 177  223 52 224 225  147 11 217 185  151 36 106 157  226 215 101 227  74 75 228 97  183 229 230 63  231 232 233 234  231 232 235 233  82 110 115 112  236 175 187 176  92 94 175 95  83 237 84 85  89 159 90 190  124 158 231 39  135 238 125 126  21 83 239 44  42 84 44 85  158 87 83 86  151 157 152 33  60 27 28 47  240 152 33 167  151 166 26 152  166 240 154 167  149 113 196 197  129 171 241 242  243 244 171 80  244 93 78 80  163 147 96 34  74 147 11 76  82 112 245 69  65 66 246 67  229 207 247 64  82 245 69 248  249 209 173 198  250 251 173 78  172 209 173 103  250 77 251 78  16 17 19 98  81 63 17 98  129 169 171 242  171 241 252 242  195 89 22 23  240 30 31 33  58 219 216 59  26 28 210 29  26 152 192 29  136 130 35 140  56 57 165 59  137 56 57 165  189 124 125 40  100 172 103 253  8 117 9 252  215 101 227 102  74 147 133 96  133 94 254 97  249 93 78 79  87 234 255 85  250 249 173 198  179 180 138 181  166 27 29 168  57 165 59 220  104 205 105 184  87 83 237 85  147 213 148 34  0 217 185 61  109 149 110 150  195 211 256 257  179 136 138 222  133 94 97 212  136 164 139 221  166 240 152 167  231 88 233 234  130 22 131 24  137 218 164 165  108 82 110 112  118 123 208 121  101 103 115 245  45 27 46 48  179 104 203 206  108 111 19 98  12 122 50 15  258 259 260 222  94 95 212 176  71 187 73 176  151 166 240 152  137 218 164 139  151 36 157 153  199 130 261 257  159 161 190 162  60 107 47 193  104 203 107 205  37 6 156 38  166 152 167 29  122 17 18 188  21 129 43 128  223 226 52 225  226 52 227 225  124 231 39 126  136 138 139 222  258 259 222 177  89 90 125 190  199 201 259 177  130 140 132 178  89 134 91 23  35 56 142 216  179 136 137 138  57 26 58 191  8 9 10 252  104 145 146 184  52 262 224 225  163 4 31 32  12 107 45 14  172 250 173 198  137 144 138 139  189 61 190 40  56 164 263 264  30 32 33 73  12 122 45 15  122 50 51 15  57 60 26 210  163 147 133 96  223 53 70 55  137 104 145 146  209 149 115 113  115 112 245 113  45 46 14 15  110 112 114 111  20 8 2 9  52 265 262 224  217 5 185 161  217 185 161 61  4 213 7 34  151 31 106 33  151 36 31 106  151 106 157 33  241 117 9 252  22 131 25 155  22 25 155 162  117 116 228 97  254 117 228 97  60 107 193 105  60 28 193 210  130 261 132 178  20 239 2 9  129 169 127 242  21 239 128 44  93 171 116 80  21 239 128 9  158 83 1 86  135 231 233 126  151 240 31 33  122 18 188 49  107 67 193 105  22 90 23 25  35 141 142 216  56 216 59 264  56 142 216 264  118 119 120 187  147 217 4 5  22 35 160 155  36 219 99 157  179 203 206 182  35 160 37 155  160 6 155 162  130 35 140 131  130 261 132 24  199 130 201 177  243 169 171 242  118 266 186 121  266 123 18 121  163 30 31 32  107 205 67 105  57 104 145 184  258 136 222 177  189 0 124 40  101 82 115 245  16 266 122 18  71 236 187 176  102 103 174 253  53 68 69 70  56 164 165 264  203 204 206 267  151 240 152 33  243 171 252 242  243 171 116 80  94 95 116 97  89 90 91 125  199 195 130 257  71 118 236 187  226 215 101 248  53 69 70 248  215 101 245 248  101 53 82 248  158 231 39 88  158 231 87 88  172 174 268 253  74 147 148 76  0 11 217 185  71 163 30 32  57 145 194 220  35 56 263 142  81 68 69 63  58 219 59 192  57 191 194 210  266 122 123 18  58 59 191 192  35 37 155 38  35 99 155 38  137 57 104 145  65 203 107 205  110 114 150 111  108 266 186 19  199 261 200 257  199 256 200 202  249 92 79 269  92 175 79 95  249 78 79 269  109 150 270 187  77 78 79 269  250 77 78 269  183 68 229 63  183 68 70 63  183 230 70 63  229 230 247 63  189 0 217 61  100 101 103 245  243 171 116 252  143 52 265 54  215 100 101 245  199 261 200 201  179 180 206 182  271 244 78 80  223 53 70 248  52 101 53 248  250 249 78 269  226 52 101 248  223 52 53 248  22 90 25 162  223 226 52 248  35 141 99 155  22 131 24 25  22 159 90 162  104 203 205 206  93 95 116 80  118 266 123 121  71 133 212 72  31 106 32 33  35 140 131 141  81 16 17 98  62 122 17 64  0 11 185 3  147 11 185 76  118 214 120 73  154 214 208 167  118 120 187 73  154 30 118 214  118 214 208 120  31 156 106 7  108 82 112 98  117 116 228 252  94 254 117 97  8 228 10 252  8 254 117 228  8 117 228 252  26 191 210 192  104 107 205 105  60 26 28 210  57 60 194 210  258 199 130 177  130 261 201 178  199 201 259 202  199 130 261 201  258 199 259 177  189 0 61 40  89 189 125 190  189 161 61 190  60 28 47 193  77 271 251 78  271 251 244 78  135 233 238 126  195 89 134 23  241 128 9 242  108 112 111 98  154 45 27 48  166 26 27 29  166 154 27 168  154 27 48 168  27 48 28 168  143 223 52 55  143 223 52 224  143 52 265 224  183 230 70 55  20 83 239 1  20 239 1 2  20 21 239 9  62 229 207 64  62 122 207 64  93 78 79 80  236 175 270 187  74 254 228 97  231 87 232 234  92 93 79 95  93 79 95 80  42 237 272 84  42 237 84 85  151 36 58 153  36 58 219 153  42 237 272 255  107 45 27 47  60 107 27 47  27 46 28 47  45 27 46 47  42 237 255 85  41 43 128 44  129 127 128 242  89 135 91 125  231 39 233 126  107 45 14 47  27 28 29 168  26 210 192 29  149 113 114 196  108 110 112 111  108 186 111 19  231 39 88 233  135 124 231 126  154 48 208 168  123 48 18 49  104 146 205 184  160 217 4 5  179 104 180 206  83 239 1 86  258 179 181 260  137 144 146 180  137 104 146 180  179 138 260 222  0 124 39 40  0 124 158 39  57 60 105 194  81 68 229 63  244 93 171 80  147 213 148 76  11 2 10 76  166 167 29 168  56 165 59 264  151 26 58 153  179 138 181 260  36 156 99 157  35 36 99 38  163 96 34 72  240 214 33 167  240 154 214 167  240 154 30 214  62 229 63 64  241 9 252 242  21 83 84 44  243 169 170 171  130 140 131 132  82 112 69 98  149 150 196 270  71 30 118 73  240 30 214 33  92 175 79 269  160 217 5 161  160 37 6 155  195 23 211 257  215 100 102 253  137 57 218 165  130 261 257 24  123 48 208 121  172 173 174 268  103 115 245 113  172 209 103 197  186 111 119 19  71 212 73 176  21 84 43 44  172 103 174 253  195 134 23 211  195 22 23 24  195 23 257 24  179 137 104 180  87 237 255 85  74 11 8 10  87 237 232 255  11 185 3 76  45 123 48 49  36 37 156 38  22 160 155 162  122 50 207 51  151 157 152 153  36 31 156 106  160 4 5 6  12 45 14 15  266 18 19 121  62 16 122 17  83 239 86 44  171 241 117 252  149 114 150 196  249 92 93 79  172 209 173 198  71 133 236 212  136 56 164 263  35 140 263 142  136 35 140 263  136 35 56 263  136 140 263 178  136 130 140 178  71 212 72 73  81 69 63 98  71 236 212 176  30 118 214 73  30 214 33 73  118 109 236 187  81 108 82 98  16 108 19 98  81 16 108 98  57 218 145 220  57 218 165 220  58 219 192 153  136 164 263 221  137 218 144 139  195 130 257 24  158 87 86 88  136 139 222 221  109 149 92 270  209 149 113 197  133 96 212 72  94 95 97 212  92 175 269 270  92 236 175 270  249 149 196 198  109 92 236 270  186 119 19 121  62 81 63 17  53 82 68 69  266 186 19 121  53 82 69 248  136 263 221 178  136 137 56 164  171 117 116 252  16 266 18 19  16 122 17 18  158 1 86 39  71 30 32 73  71 163 32 72  147 213 185 76  207 51 247 64  4 31 7 32  35 131 141 155  37 31 156 7  37 4 31 7  135 235 233 238  77 271 78 80  271 243 244 80  20 21 83 239  20 11 8 2  231 87 88 234  89 22 90 23  0 158 1 39  122 51 188 15  45 46 188 15  56 263 142 264  4 5 213 7  21 241 128 9  129 241 128 242  258 136 130 177  136 137 164 139  87 88 234 85  223 52 53 55  147 4 213 34  147 4 5 213  104 146 205 206  21 129 241 128  258 179 136 222  130 201 177 178  189 159 161 190  243 244 170 171  109 236 270 187  250 249 269 198  109 149 150 270  249 196 269 198  57 145 194 184  57 59 191 220  89 22 159 90  26 152 192 153  26 58 192 153  87 232 234 255  53 54 183 55  89 189 135 125  101 82 245 248  189 135 124 125  189 125 190 40  135 231 235 233  135 124 125 126  166 26 152 29  71 118 187 73  109 110 150 111  62 81 16 17  226 52 101 227  133 94 236 212  82 115 112 245  94 236 212 176  100 102 103 253  100 172 103 197  52 262 227 225  16 108 266 19  62 81 229 63  258 179 260 222  203 206 182 267  160 37 4 6  159 160 217 161  249 209 149 198  250 249 173 78  172 209 197 198  229 247 63 64  74 11 10 76  172 250 173 268  135 91 238 125  189 159 217 161  189 217 161 61  56 58 216 99  56 36 58 99  58 219 216 99  36 58 219 99  122 51 188 64  42 84 43 44  42 272 84 43  65 203 204 205  65 246 204 205  0 158 83 1  0 20 83 1  100 103 245 113  100 103 113 197  209 103 115 113  209 103 113 197  65 107 205 67  65 246 205 67  154 123 48 208  154 118 123 208  74 75 228 10  74 133 254 97  74 8 228 10  74 8 254 228  149 110 113 114  149 110 115 113  179 137 180 138  137 144 180 138  37 4 6 7  37 6 156 7  21 8 117 9  21 241 117 9  74 96 148 75  199 195 256 257  199 256 200 257  249 149 196 270  249 196 269 270  249 149 92 270  249 92 269 270  94 236 175 176  92 94 236 175  12 65 107 14  12 65 13 14  65 13 66 14  </DataArray>
<DataArray  type="UInt32"  Name="offsets"  format="ascii">4 8 12 16 20 24 28 32 36 40 44 48 52 56 60 64 68 72 76 80 84 88 92 96 100 104 108 112 116 120 124 128 132 136 140 144 148 152 156 160 164 168 172 176 180 184 188 192 196 200 204 208 212 216 220 224 228 232 236 240 244 248 252 256 260 264 268 272 276 280 284 288 292 296 300 304 308 312 316 320 324 328 332 336 340 344 348 352 356 360 364 368 372 376 380 384 388 392 396 400 404 408 412 416 420 424 428 432 436 440 444 448 452 456 460 464 468 472 476 480 484 488 492 496 500 504 508 512 516 520 524 528 532 536 540 544 548 552 556 560 564 568 572 576 580 584 588 592 596 600 604 608 612 616 620 624 628 632 636 640 644 648 652 656 660 664 668 672 676 680 684 688 692 696 700 704 708 712 716 720 724 728 732 736 740 744 748 752 756 760 764 768 772 776 780 784 788 792 796 800 804 808 812 816 820 824 828 832 836 840 844 848 852 856 860 864 868 872 876 880 884 888 892 896 900 904 908 912 916 920 924 928 932 936 940 944 948 952 956 960 964 968 972 976 980 984 988 992 996 1000 1004 1008 1012 1016 1020 1024 1028 1032 1036 1040 1044 1048 1052 1056 1060 1064 1068 1072 1076 1080 1084 1088 1092 1096 1100 1104 1108 1112 1116 1120 1124 1128 1132 1136 1140 1144 1148 1152 1156 1160 1164 1168 1172 1176 1180 1184 1188 1192 1196 1200 1204 1208 1212 1216 1220 1224 1228 1232 1236 1240 1244 1248 1252 1256 1260 1264 1268 1272 1276 1280 1284 1288 1292 1296 1300 1304 1308 1312 1316 1320 1324 1328 1332 1336 1340 1344 1348 1352 1356 1360 1364 1368 1372 1376 1380 1384 1388 1392 1396 1400 1404 1408 1412 1416 1420 1424 1428 1432 1436 1440 1444 1448 1452 1456 1460 1464 1468 1472 1476 1480 1484 1488 1492 1496 1500 1504 1508 1512 1516 1520 1524 1528 1532 1536 1540 1544 1548 1552 1556 1560 1564 1568 1572 1576 1580 1584 1588 1592 1596 1600 1604 1608 1612 1616 1620 1624 1628 1632 1636 1640 1644 1648 1652 1656 1660 1664 1668 1672 1676 1680 1684 1688 1692 1696 1700 1704 1708 1712 1716 1720 1724 1728 1732 1736 1740 1744 1748 1752 1756 1760 1764 1768 1772 1776 1780 1784 1788 1792 1796 1800 1804 1808 1812 1816 1820 1824 1828 1832 1836 1840 1844 1848 1852 1856 1860 1864 1868 1872 1876 1880 1884 1888 1892 1896 1900 1904 1908 1912 1916 1920 1924 1928 1932 1936 1940 1944 1948 1952 1956 1960 1964 1968 1972 1976 1980 1984 1988 1992 1996 2000 2004 2008 2012 2016 2020 2024 2028 2032 2036 2040 2044 2048 2052 2056 2060 2064 2068 2072 2076 2080 2084 2088 2092 2096 2100 2104 2108 2112 2116 2120 2124 2128 2132 2136 2140 2144 2148 2152 2156 2160 2164 2168 2172 2176 2180 2184 2188 2192 2196 2200 2204 2208 2212 2216 2220 2224 2228 2232 2236 2240 2244 2248 2252 2256 2260 2264 2268 2272 2276 2280 2284 2288 2292 2296 2300 2304 2308 2312 2316 2320 2324 2328 2332 2336 2340 2344 2348 2352 2356 2360 2364 2368 2372 2376 2380 2384 2388 2392 2396 2400 2404 2408 2412 2416 2420 2424 2428 2432 2436 2440 2444 2448 2452 2456 2460 2464 2468 2472 2476 2480 2484 2488 2492 2496 2500 2504 2508 2512 2516 2520 2524 2528 2532 2536 2540 2544 2548 2552 2556 2560 2564 2568 2572 2576 2580 2584 2588 2592 2596 2600 2604 2608 2612 2616 2620 2624 2628 2632 2636 2640 2644 2648 2652 2656 2660 2664 2668 2672 2676 2680 2684 2688 2692 2696 2700 2704 2708 2712 2716 2720 2724 2728 2732 2736 2740 2744 2748 2752 2756 2760 2764 2768 2772 2776 2780 2784 2788 2792 2796 2800 2804 2808 2812 2816 2820 2824 2828 2832 2836 2840 2844 2848 </DataArray>
<DataArray  type="UInt8"  Name="types"  format="ascii">10 10 10 10 10 10 10 10 10 10 10 10 10 10 10 10 10 10 10 10 10 10 10 10 10 10 10 10 10 10 10 10 10 10 10 10 10 10 10 10 10 10 10 10 10 10 10 10 10 10 10 10 10 10 10 10 10 10 10 10 10 10 10 10 10 10 10 10 10 10 10 10 10 10 10 10 10 10 10 10 10 10 10 10 10 10 10 10 10 10 10 10 10 10 10 10 10 10 10 10 10 10 10 10 10 10 10 10 10 10 10 10 10 10 10 10 10 10 10 10 10 10 10 10 10 10 10 10 10 10 10 10 10 10 10 10 10 10 10 10 10 10 10 10 10 10 10 10 10 10 10 10 10 10 10 10 10 10 10 10 10 10 10 10 10 10 10 10 10 10 10 10 10 10 10 10 10 10 10 10 10 10 10 10 10 10 10 10 10 10 10 10 10 10 10 10 10 10 10 10 10 10 10 10 10 10 10 10 10 10 10 10 10 10 10 10 10 10 10 10 10 10 10 10 10 10 10 10 10 10 10 10 10 10 10 10 10 10 10 10 10 10 10 10 10 10 10 10 10 10 10 10 10 10 10 10 10 10 10 10 10 10 10 10 10 10 10 10 10 10 10 10 10 10 10 10 10 10 10 10 10 10 10 10 10 10 10 10 10 10 10 10 10 10 10 10 10 10 10 10 10 10 10 10 10 10 10 10 10 10 10 10 10 10 10 10 10 10 10 10 10 10 10 10 10 10 10 10 10 10 10 10 10 10 10 10 10 10 10 10 10 10 10 10 10 10 10 10 10 10 10 10 10 10 10 10 10 10 10 10 10 10 10 10 10 10 10 10 10 10 10 10 10 10 10 10 10 10 10 10 10 10 10 10 10 10 10 10 10 10 10 10 10 10 10 10 10 10 10 10 10 10 10 10 10 10 10 10 10 10 10 10 10 10 10 10 10 10 10 10 10 10 10 10 10 10 10 10 10 10 10 10 10 10 10 10 10 10 10 10 10 10 10 10 10 10 10 10 10 10 10 10 10 10 10 10 10 10 10 10 10 10 10 10 10 10 10 10 10 10 10 10 10 10 10 10 10 10 10 10 10 10 10 10 10 10 10 10 10 10 10 10 10 10 10 10 10 10 10 10 10 10 10 10 10 10 10 10 10 10 10 10 10 10 10 10 10 10 10 10 10 10 10 10 10 10 10 10 10 10 10 10 10 10 10 10 10 10 10 10 10 10 10 10 10 10 10 10 10 10 10 10 10 10 10 10 10 10 10 10 10 10 10 10 10 10 10 10 10 10 10 10 10 10 10 10 10 10 10 10 10 10 10 10 10 10 10 10 10 10 10 10 10 10 10 10 10 10 10 10 10 10 10 10 10 10 10 10 10 10 10 10 10 10 10 10 10 10 10 10 10 10 10 10 10 10 10 10 10 10 10 10 10 10 10 10 10 10 10 10 10 10 10 10 10 10 10 10 10 10 10 10 10 10 10 10 10 10 10 10 10 10 10 10 10 10 10 10 10 10 10 10 10 10 10 10 10 10 10 10 10 10 10 10 10 10 10 10 10 10 10 10 10 10 10 10 10 10 10 10 10 10 10 10 10 10 10 10 10 10 10 10 </DataArray>
</Cells>
<PointData  Scalars="f_818"> 
<DataArray  type="Float64"  Name="f_818"  format="ascii">3.3469027159313658e-01  3.4088990523123930e-01  3.3742679162891165e-01  3.3364170324093212e-01  3.1940384567382829e-01  3.2299614258826870e-01  3.1981443337945181e-01  3.1889026909715623e-01  3.3560247877091443e-01  3.4230259148021769e-01  3.3396485265098358e-01  3.3166360217167240e-01  2.9041552992915426e-01  2.8801780019844120e-01  2.9331573082354817e-01  2.8932107616229058e-01  2.8589843567881079e-01  2.8492795334327053e-01  2.9180654075953932e-01  2.9110982795673945e-01  3.4162762049835638e-01  3.4691581233671220e-01  3.1995936588616380e-01  3.2269615203768170e-01  3.1880146109600693e-01  3.2046218434425389e-01  3.0481970006873754e-01  2.9994525060379212e-01  2.9976667692254472e-01  3.0424599210241243e-01  3.0984516298135917e-01  3.1406046990608627e-01  3.1525710598563950e-01  3.1023019658778972e-01  3.2071592650334796e-01  3.1431196443036430e-01  3.1240000746377061e-01  3.1621504512228310e-01  3.1641464920459222e-01  3.3958307285676248e-01  3.3248594661909486e-01  3.6649640809073947e-01  3.7396894584441059e-01  3.6027023226531968e-01  3.6021848321464445e-01  2.9434977600700096e-01  2.9374843036702908e-01  2.9718615783834673e-01  2.9659748366545974e-01  2.9258228400102249e-01  2.8536901861458580e-01  2.8234676811446996e-01  2.4785153897584153e-01  2.6175886464809228e-01  2.4161834208078525e-01  2.5206297723803728e-01  3.0998202202272956e-01  3.0533163023288878e-01  3.0833650118546146e-01  3.0864427662415800e-01  3.0151741856689268e-01  3.2928157250638002e-01  2.8077714483039568e-01  2.7437367982191541e-01  2.8046359759788464e-01  2.9439381444959956e-01  2.9228148204923821e-01  2.9691020924058564e-01  2.7021348453465099e-01  2.7428915258942876e-01  2.6307703955298040e-01  3.1291380585342621e-01  3.1703304551205097e-01  3.1148570351091009e-01  3.2853343270675056e-01  3.2745331336051742e-01  3.3004181804955829e-01  3.1854923135313118e-01  3.1877591269969252e-01  3.1819601528155522e-01  3.2516670297004824e-01  2.8010063924568901e-01  2.7864846372151919e-01  3.4779630934981554e-01  3.5872221863545400e-01  3.5845845380210195e-01  3.4776704062305253e-01  3.4984358227978896e-01  3.4632528001753038e-01  3.2583878182439030e-01  3.2486070276168832e-01  3.2798453507780406e-01  3.1256919889233098e-01  3.2282261239392557e-01  3.2076539219541444e-01  3.2040817499595636e-01  3.2151487113999627e-01  3.2441912043668958e-01  2.8342090707785350e-01  3.1345436827358469e-01  2.8739330835768984e-01  2.7063100570375598e-01  2.7911308858851430e-01  2.8935471041870292e-01  3.0220983245475064e-01  3.0073190632913138e-01  3.1354035388637158e-01  2.9725115118177264e-01  2.8929581940213384e-01  3.0098409582133223e-01  2.9116617260483502e-01  2.9150404157537807e-01  2.8582151269440648e-01  2.9101130279083737e-01  2.9417374781740185e-01  2.8813485456773474e-01  3.2927907464457035e-01  3.3279930951926279e-01  3.0307952725125320e-01  2.9815412021106669e-01  3.0349906582245761e-01  2.9704619003122928e-01  2.8732001949821862e-01  2.9517460665389050e-01  3.3495745389537224e-01  3.3023421923980945e-01  3.3498048142378134e-01  3.5636377144446113e-01  3.5203574432812534e-01  3.5214579756452807e-01  3.1520526308257663e-01  3.1636145204536747e-01  3.1543640759911273e-01  3.2126824598795273e-01  3.2703281880237006e-01  3.3266568098480853e-01  3.1024351458087290e-01  3.0653266268740975e-01  3.0711607963837978e-01  3.0797661681721034e-01  3.1340464554027930e-01  3.1361902920950624e-01  3.1169144738130738e-01  2.4053551908642812e-01  3.0592791810204600e-01  3.0491014484830020e-01  3.0308745807633791e-01  3.2450482461980257e-01  3.2477220064506485e-01  3.0047567914891055e-01  3.0000393565490535e-01  3.0923436982571451e-01  3.0800485974140113e-01  3.0918033500396386e-01  3.0182852105105501e-01  3.1721283766123320e-01  3.1567729156849822e-01  3.1136346298564410e-01  3.4087910199660171e-01  3.2409713762046588e-01  3.2005771056766541e-01  3.2484607495624629e-01  3.2193362760227184e-01  3.1742170485567656e-01  3.0856420088978553e-01  3.0801642088379710e-01  3.0446996610744098e-01  3.0514643296881955e-01  3.0108703754372723e-01  3.4585382608213139e-01  3.4164662945853064e-01  3.3627067795397003e-01  2.9845694453142474e-01  3.0657979616958669e-01  2.9481575383854697e-01  3.1303870910855003e-01  3.1401275053898031e-01  3.1191062199820618e-01  3.1317434897261298e-01  3.0529575370779310e-01  3.0420955488362844e-01  3.0582988915464560e-01  3.0253474826174076e-01  2.6139722605305715e-01  3.0256372969823508e-01  3.2756198332272279e-01  2.9692995312113563e-01  3.0670664341236342e-01  2.8783147693622124e-01  3.2884027947684075e-01  3.2736791926516878e-01  3.0627013945218007e-01  3.0730188377899492e-01  3.0042208328176767e-01  3.0381488653206895e-01  3.2070161263256652e-01  3.0209609262481890e-01  2.9660417994287908e-01  3.0410288377024908e-01  3.1519134421432177e-01  3.1711339581587206e-01  3.1437724570919195e-01  3.1611078163111728e-01  2.9930732403324328e-01  2.9784609722291161e-01  2.9947424421878177e-01  3.0109764269023892e-01  2.7805827506474884e-01  3.0148226666335098e-01  2.9838065161745342e-01  3.0378831458099992e-01  3.2279156579390716e-01  3.1830764341482398e-01  3.2428432522464662e-01  3.0669714696021333e-01  2.7477352552195228e-01  3.1099463894802110e-01  3.2667755562780415e-01  3.0694352499254002e-01  3.0995368852077604e-01  3.0651704365211174e-01  3.1040799489738041e-01  3.0972813745512379e-01  2.5151265929944311e-01  2.3771545206435718e-01  2.5249884144742496e-01  2.6422575942036702e-01  2.6020726527975235e-01  3.3060185484629334e-01  2.7295786867401284e-01  2.6137329153200006e-01  3.4141912495519200e-01  3.5099561635824128e-01  3.4034085178330514e-01  3.4974458299389161e-01  3.4035698099599904e-01  3.1199431289558166e-01  3.6170460465976528e-01  3.3362773116261396e-01  3.4624641528080707e-01  3.0821052550555650e-01  3.4168955849378180e-01  3.4459881546677429e-01  3.3557601454387898e-01  3.2917478672744666e-01  2.7978336843912543e-01  2.9482020216868299e-01  2.7275996059166557e-01  2.6764844930626885e-01  3.1054022268409143e-01  3.0931899183922640e-01  3.2032626678710041e-01  3.3624347914849212e-01  2.8921301725890813e-01  3.2786842808600281e-01  3.6417096325242526e-01  3.1964509250884593e-01  3.1939673914012034e-01  3.1001205985437963e-01  3.1227043105174723e-01  3.0906914728106205e-01  3.1605084780221820e-01  2.3509110789246776e-01  3.1104028053266752e-01  3.0970793200010133e-01  2.2134796987871752e-01  2.9257482595388862e-01  2.9858398407268888e-01  3.0085954514371216e-01  3.1070043745400638e-01  3.0669126361109550e-01  3.2763270525069155e-01  3.7472833243803527e-01  </DataArray> 
</PointData> 
</Piece>
</UnstructuredGrid>
</VTKFile>