<?xml version="1.0"?>
<VTKFile type="UnstructuredGrid"  version="0.1"  >
<UnstructuredGrid>
<Piece  NumberOfPoints="283" NumberOfCells="716">
<Points>
<DataArray  type="Float64"  NumberOfComponents="3"  format="ascii">0.2626246920526235 -19.90112919886051 -9.359084397402183  0.1553807648081164 -19.81591656350902 -9.135479080831697  0.1576430726432624 -20.02552207410064 -9.247405150142569  -0.01949944543758443 -19.79922278239394 -9.291212579621083  0.06534191486679213 -20.0281991878586 -9.767094511126331  0.148263802351868 -19.96452283995967 -9.527361049828844  -0.02078307600684068 -20.20510027836847 -9.640315710720765  -0.04329462830661291 -19.99101516464509 -9.452718994329285  -0.4055833810343896 -19.40971458301613 -9.880043431972524  -0.3595441259531769 -19.5391677943502 -9.780838043625188  -0.2316958794302859 -19.31411808751378 -9.879707967089168  -0.4212611052919448 -19.32483884003522 -9.779119380778445  -0.1981215803076972 -18.78646405231023 -9.140276473906241  -0.237979964976834 -18.89278005392 -9.195007884026534  -0.1523653443813007 -18.80163815962636 -9.378510432968071  -0.06539686442191213 -18.81881304645982 -9.302441624062125  -0.01732616739262705 -20.32074787051504 -10.02829373354844  0.1472413338803748 -20.50967964012034 -10.0430651493537  0.2255150170286103 -20.2068064010659 -10.11377357457808  0.04963095084755267 -20.34712728136484 -10.21128816231767  0.991898322091175 -19.44927162132435 -8.770498290219731  0.9632388424747296 -19.26971235435007 -9.015495808391719  0.8140536414349189 -19.11355484073674 -8.817067425537699  0.816590563944415 -19.42060792642442 -8.993955358179338  -0.2617231568918735 -18.75596940460378 -9.189738932086943  -0.1062315304969709 -18.71730943106873 -9.318837563403887  0.2009047355524979 -20.22880569065713 -9.904244664642501  0.06692116137942759 -20.03343972024097 -10.06893601121743  -0.1022176153785406 -20.13893850985424 -10.16133038698954  1.819507006356581 -19.86841213520196 -8.724478945109043  1.258000869951713 -19.75740971452854 -8.77123193285073  1.416751766284858 -20.13342499588378 -8.697354744567793  1.437817401071865 -19.96984184565262 -9.121704907409844  0.1596141202238558 -19.52206929114491 -10.49073780909855  0.1947762858835488 -19.63550529670605 -10.71810241785764  0.2941500433971949 -19.75867036602563 -10.50014704452027  0.3276430618895704 -19.54844117109106 -10.57759223051673  -0.1532351306654944 -18.71426315499063 -9.097521278220905  -0.01113012132482721 -18.66532030756522 -9.023652259767218  0.009260079534266082 -18.63066924563651 -9.234154922346315  -0.01690560213558571 -18.74057243480468 -9.259077460005305  0.2068973618431641 -19.68906830753967 -9.288467264023796  0.4151741935876316 -19.77940975380391 -9.188324061497363  0.733689893262798 -20.6004423778169 -9.502078660912376  0.4264048451052455 -20.74685086331719 -9.598219665221782  0.5738479751818647 -20.43576138463183 -9.52517259793361  0.6219024613281253 -20.60376952962443 -9.689574043897293  0.6728019975211768 -19.45946695527236 -8.804159162342376  0.383770704790116 -19.41795095621685 -8.890020129454918  0.5678599926643343 -19.74625912809613 -8.880200818161368  0.5767413296605668 -19.64157106349501 -9.068344345729667  -0.2079403048615451 -18.61828771680514 -9.383965163801504  -0.2211864279206833 -18.70631993706855 -9.428963627717071  -0.3847100550654231 -18.70268187339866 -9.316484915769573  -0.2386210277939066 -18.69358207739645 -9.293887949669401  0.1022214555060704 -18.88129165986909 -8.977711898464543  0.1953697062896902 -18.66938672253237 -8.953816169187272  0.3561384877417615 -18.84927432864024 -9.102620594421651  0.1859627462388258 -18.78795307951388 -9.157887974408863  -0.3189079880808285 -18.79243571994321 -9.255274158269744  -0.3107101826719155 -18.69493796831534 -9.227707845173649  0.1594412383644897 -19.51097426960191 -9.258212917773207  0.03907579902018086 -19.55952149059165 -9.393619840982666  0.03667731492109051 -19.59844182983322 -9.145248252474197  -0.1538926089147045 -19.54614181532176 -9.322155609994386  0.7334882692158007 -20.04558984531183 -8.911434858728462  0.8215170179642524 -19.98483485439217 -9.107527898655132  1.015672954281783 -19.86715846032847 -9.043005801196458  1.048315726561142 -20.09978766954714 -9.090503158895435  -0.3707369047873886 -18.81423162098965 -9.325434928784784  -0.3376155006937352 -18.77406544722538 -9.404913256789015  -0.1280792802085394 -19.13467184709508 -9.155148844803744  -0.09125114175572752 -18.92985843961805 -9.345886791469573  -0.1397063275506511 -19.10822863010408 -9.450147274156947  -0.2830885338627301 -19.03240615939008 -9.286126989841453  -0.01151862116799164 -19.05268636113615 -9.292778373387904  -0.347800500052335 -19.05474818795569 -9.382011551434463  -0.2718914533086571 -19.2550411654485 -9.355154801835189  0.4491033361046253 -20.40482744267677 -9.665025668378927  -0.2873763629126521 -19.52095819650999 -9.528200834761162  -0.1023203340764344 -19.34735245716169 -9.490362826044679  -0.4153675532604043 -19.08348978746967 -9.523048032215108  -0.2589543968866369 -18.97413444602416 -9.603412721953445  -0.4063913549387113 -18.93124329310797 -9.422820288655554  -0.1663694568762543 -18.69442740568067 -9.367661274320566  0.2291428381976374 -20.51124775369032 -10.26039613822123  0.3408587890647946 -20.35292211868583 -10.02794303582045  -0.006311403954969786 -19.83535881657671 -9.667351244188941  -0.1774148210634281 -19.94069512378318 -9.666539821248099  -0.4050095291618465 -18.77566269916911 -9.364539142257822  -0.4316836655166663 -18.73858386894298 -9.394005920994653  -0.4279837527659116 -18.78672640517739 -9.402793689827877  -0.2752257130775888 -18.74312167048285 -9.518038571176753  -0.2198387645387647 -18.80963196310284 -9.460297009208167  -0.4449614118745301 -18.72673759501844 -9.428992882753736  -0.4484527259124932 -18.68513106749159 -9.447200847975756  -0.4532989808576708 -18.72740574754611 -9.448125702611465  -0.4100063429855652 -18.73901982314846 -9.487787835988016  0.2028791947081136 -20.46149685461367 -9.610635533761393  0.05309054272356524 -20.39141917956264 -9.828495623607349  0.2814246568005322 -20.64400290871434 -9.825162879378132  0.3398135065950725 -20.35881803504212 -9.827280866106985  -0.1878560389389723 -18.9135817955786 -9.450282215926931  1.522592817539577 -19.77262450096053 -9.172297969441047  -0.05927699689534754 -19.83529821249338 -9.916168108316938  -0.2711279924167506 -19.82673478435094 -9.855903809371025  0.04957761534957061 -18.8842595581606 -9.227083422006762  -0.09566820385069057 -18.87594836516505 -9.081831570151168  0.03555173763984836 -19.08466648417399 -9.026149347821381  -0.1828670186802655 -19.48281151376746 -9.881061141574612  -0.06491816710042 -18.54811747800124 -9.263172500098234  -0.03158237576502226 -18.54475116094248 -9.137692225841096  -0.1282818023111343 -18.61404415085664 -9.195711024197387  -0.09647486660212078 -19.36867453974192 -9.189768876195393  0.1664859108714327 -20.25401223796081 -9.416727638833684  -0.1409862209806507 -20.1208085768226 -9.897590510203873  -0.2252411612162274 -19.88217933394388 -10.12719446102496  -0.4689429226617646 -18.6828396849758 -9.487195081069229  -0.4632257391997248 -18.71384851274399 -9.469487184468658  -0.06716510708583075 -18.65364166158349 -9.280827394711629  0.5676564032065563 -19.96885739936705 -10.79789624157617  0.6650357265050174 -20.28435805074124 -10.70785337549832  0.7252108766287414 -20.10259145256126 -10.52636959006417  0.4036048596386422 -20.15916401104597 -10.67035344568199  0.9691895121609266 -19.47340488778129 -8.999417218877065  1.167867124379532 -19.36824493510312 -9.052399232166948  1.102743783751231 -19.55805021489078 -9.018150576469381  0.5917085812398246 -19.44038113977847 -9.026319660553824  -0.3464616510908363 -18.63890614306264 -9.540880195427048  0.4205190026561834 -20.53716996274855 -9.391713695124151  0.4879406296122164 -20.24577399525277 -9.432016157950887  0.3713978791871279 -18.41043519910869 -8.958244481124563  0.2948374731223025 -18.50242896951987 -9.153115585462666  0.4139218804819754 -18.36645516157099 -9.169950234407031  0.4292366079803482 -18.52350730866458 -9.145372510400675  0.5234748932818002 -20.46638183120212 -10.56676920893668  0.2797148715585624 -20.27327835730208 -10.5407668318409  0.4936196544992114 -20.15651707788506 -10.41144896812522  0.5651804624976614 -19.88924275025887 -10.56400541364533  0.3414364831466269 -19.96345433142492 -10.43989192827407  0.3009761740620022 -19.87871099717215 -10.72057115718295  0.1010714491975103 -19.76541992586008 -10.6292445709296  -0.3828275884571484 -19.31246226454563 -9.606706987264049  -0.2249672155759894 -19.20864081177133 -9.671201265507042  0.3470587745536025 -19.04404242474628 -9.090072907021201  0.1499305089361088 -19.10991609509831 -9.181752032007157  0.2387750299266782 -19.1329892570497 -8.925947303807355  0.08730118604868682 -19.34007534101547 -9.030940796044485  0.2631449276499232 -19.66896773428327 -9.003814878074795  0.1244006249166709 -20.0049565082687 -10.56624562220917  0.1496385877318552 -19.92031700181188 -10.32027106931076  1.206637430704743 -19.93498352635733 -9.060670860533211  0.08629050341153111 -20.24905767873418 -10.38262199606164  0.3992377313115571 -20.28868936559049 -9.222537406483324  0.4147525537012801 -19.99895243552129 -9.046514555696145  0.4661097854981078 -20.03307369310713 -9.293060187554914  -0.1920408406557599 -19.41817946074403 -10.01297864279715  -0.376785346507031 -19.49858830122952 -9.986766846852134  0.5022335716745201 -20.52249900943658 -9.916426374826703  0.3865505605447422 -20.7986364505568 -10.07737235193791  1.158556671589696 -19.7228290085489 -9.032290463423301  -0.1269144269595452 -19.63015727956136 -9.7947877910713  -0.166433766477896 -19.45164259004166 -9.711003746845805  0.379869341499094 -20.27565276131178 -10.2336627106581  0.6819953902352937 -20.64201775247165 -10.09950227076787  0.4685917535242582 -20.69979236492179 -10.37564589862308  0.5139594853176509 -20.44701138289225 -10.15776684090309  0.2733952784005566 -20.2051105601293 -9.630665976244853  0.3254192586746658 -20.08602952205263 -9.440433165541528  0.3128728240354254 -20.44533702007938 -10.4358184626976  -0.2749267603913086 -19.71229087522156 -9.663212835405471  -0.1786084004314705 -19.7504199433864 -9.481115505312129  -0.0649193830143709 -19.61002117549579 -9.578697460105047  0.07893749473794454 -19.76609630636729 -9.462842063711987  0.2122402921176034 -18.93011628130078 -9.144001060099889  0.577623146370342 -18.69266769606717 -8.912971305490268  0.3683168441899878 -18.59649052188963 -8.933514576575492  0.3916879402907696 -18.88542227142858 -8.892743854808137  0.4738115674810199 -18.70687870546556 -9.11060607934691  0.6337014384663697 -18.93779043842879 -8.859043325848035  0.5664806192609539 -18.91705206074366 -9.065831391630466  -0.027925446296899 -18.38728647467074 -9.146476577849668  -0.1685188746416054 -18.49036686842273 -9.149214005713027  0.8006244542166955 -19.06878267829388 -9.036726700986225  0.5141410166741516 -19.14980727216535 -8.843696109305602  0.7386049353826165 -19.26613714731919 -9.002973791099413  0.5294314849367682 -19.19944942407443 -9.033250749579141  0.09858440733171375 -18.59315976338126 -9.193271344129514  0.1901940084213995 -18.62201278741283 -9.162793564773056  0.08626233689535658 -18.5109400705707 -9.090119590622985  -0.2505179924902968 -18.84809753022431 -9.522684888731684  -0.3228102691198669 -19.67661351844222 -9.994552036380613  0.9738076605352383 -19.66434175809698 -9.012156038897562  0.7725817504253115 -19.60771361745944 -9.016782745806415  0.9371014550543297 -20.42140297134109 -8.877305981151355  0.672570495913398 -20.3428008107074 -9.048648941481057  0.8696131267235789 -20.20487415250044 -9.173018890512166  0.9344606009631919 -20.3974004106867 -9.22203433178033  -0.05622582030911337 -19.61619419839419 -10.22706722525957  -0.174858284748222 -19.57487310899976 -10.43143208125862  -0.2930287754061796 -19.58906062198389 -10.22111418608311  -0.1870726859658281 -19.77469541673582 -10.31642740987705  0.0446247963047983 -19.39529565687209 -9.322481398721148  -0.06675803351338104 -18.50748925420031 -9.049133173489563  0.3605217658369057 -19.5581290797988 -9.137884252579259  0.409304868000781 -19.36793976732672 -9.077200415991381  0.2013198505252936 -19.34286593480197 -9.182067712537703  0.3220449545342496 -19.21827599120451 -9.100388931273459  0.0817477491245736 -18.71273044570161 -9.202285465489794  1.274731186479447 -20.17391096292173 -9.100050320661355  0.4192289482045355 -19.69783926846896 -10.80939627895995  0.5060883317057084 -19.64649133760312 -10.61986566938748  0.7097674018616502 -20.30276492004709 -10.42271379611151  -0.4491115256622377 -18.81658286707455 -9.451190975661051  -0.482351896381962 -18.78087541397639 -9.502387565874399  -0.4658833968686321 -18.75316312675665 -9.465666931640792  -0.4477856778119183 -18.75779524206041 -9.430971555570274  -0.1376199432665458 -19.59771538154261 -10.02366422784115  -0.1353694735982033 -19.42691015986673 -10.18283183245657  1.417274142824728 -19.39541824285313 -8.847328221884871  1.443288700089486 -19.55708962666366 -9.157519062009182  1.346741906171804 -19.75571002229228 -9.085503656438739  0.4881482149861775 -18.48821336794905 -8.948961244062179  -0.3252652556896345 -18.89603609281527 -9.290963868678869  -0.3450371866396596 -18.96550248478859 -9.343487771159209  -0.3691995297373696 -18.88884642430125 -9.349420507882154  1.086463887643247 -20.31854122386776 -9.143575622840443  0.7066888619600483 -20.35265446838236 -9.336438964154352  0.6657210473110696 -20.14416536294489 -9.240875051326938  -0.1655315700634278 -18.5471041309051 -9.315999748486966  -0.1682388550782925 -18.50268024102229 -9.278376025627429  -0.1934051724174611 -18.61289455061689 -9.239331434340762  0.673088902488381 -19.79311693851785 -9.084011129266662  0.009694195649009767 -19.23086484953061 -9.309514992633639  0.1133147291046511 -18.5733149932004 -8.980267581935003  0.7119085591612375 -20.47549902152531 -10.31068789306065  0.5497970374246055 -20.33124084891621 -10.31953944214197  0.8514599146527306 -19.74518804352655 -8.802757968119135  1.060219323922604 -20.0907449316365 -8.807668626107947  0.07386797660039722 -19.7051305486091 -10.35371280237213  -0.04774340789148106 -19.78682660004193 -10.49287809615777  -0.08262592864109884 -19.97310258052168 -10.35484755453443  0.1577903452339875 -18.46341980816255 -9.173062733493721  0.1458073254621608 -18.32551916552824 -9.015495391781686  0.2060227681402321 -18.44800276755266 -9.085471903142368  -0.2841175436999016 -18.56463740656476 -9.228974629707904  -0.4884485607095533 -18.87403221733404 -9.563913761862997  0.3263733604984455 -18.67367628280827 -9.129451847503949  0.6077766091862319 -19.95626075463289 -9.173361947418931  -0.3014811177904998 -18.80860399208791 -9.597199206710449  0.05139322972402523 -18.51806096424947 -9.206204955713282  -0.01483378457276937 -19.55896884415826 -10.59838082200671  1.271491667978345 -19.54609963075842 -9.066490925435826  0.2800889737110737 -18.32490713553071 -9.161362104880229  -0.02910991681887368 -19.78389219331318 -10.1567805996514  0.2545040428634324 -20.10411221605953 -10.28497234926278  -0.2679020264532874 -18.67157549179079 -9.47579326869892  0.2240796867049331 -18.46975339295749 -8.961274267221572  -0.2254919925720432 -18.71046254200875 -9.151582666075214  -0.2170715029466424 -18.63304500297817 -9.14035932041546  0.4087673262844123 -18.19732413069041 -9.160767776253756  0.4368806765084647 -18.27652619105601 -9.088149794668656  -0.2669896038669497 -18.66266796168043 -9.181091957431722  0.8529599945407478 -19.78427081713503 -9.041294237876075  0.434701956804922 -19.45369271470011 -10.63918908020932  0.3032314137389638 -19.48037448137774 -10.79544636262279  -0.4801709209434074 -18.7196741670742 -9.499203012360917  -0.4062460067807068 -18.83550471798884 -9.385143926556408  0.5044301235081777 -18.31855403701468 -8.982334344327068  1.367462327166937 -19.38456096474863 -9.149034602188763  -0.137424171354599 -18.61807201707769 -9.08694048240271  0.09271160201862438 -19.46829963282065 -10.69449819623744  0.330862120772783 -18.2752549123895 -8.990594665456753  0.3006451375984296 -18.37889835351057 -9.063121606423238  -0.005665698674884726 -19.45583518542173 -10.36323408427808  -0.4542206130837304 -18.6339067670201 -9.508956591153694  -0.4771160738195453 -18.66666777234205 -9.526905739493888  -0.129186828303838 -18.63476855848509 -9.321080227103831  0.6900539563886983 -20.72222263238312 -9.870230941924925  0.4469661324992206 -20.96628635600188 -9.808348731980692  0.5306471604374449 -18.14992833433808 -9.035450416765043  -0.5039860441909164 -18.72622531639652 -9.557131930065442  0.05072546725198495 -18.47550481009983 -9.002200063799384  </DataArray>
</Points>
<Cells>
<DataArray  type="UInt32"  Name="connectivity"  format="ascii">0 1 2 3  4 5 6 7  8 9 10 11  12 13 14 15  16 17 18 19  20 21 22 23  12 24 13 14  12 24 14 25  12 14 15 25  26 27 16 18  27 16 18 28  29 30 31 32  33 34 35 36  37 38 39 40  41 0 42 1  43 44 45 46  47 48 49 50  51 52 53 54  55 56 57 58  59 60 53 54  61 62 63 64  65 66 67 68  59 69 53 70  71 72 73 74  71 72 73 75  73 74 76 77  44 45 46 78  79 80 77 64  81 76 82 83  14 25 84 54  17 85 18 86  4 7 87 88  89 90 91 70  52 92 93 70  94 95 96 97  98 99 100 101  102 76 82 83  29 30 103 32  44 100 46 78  104 87 88 105  106 107 108 55  109 8 9 10  110 39 111 112  61 63 64 113  114 5 2 7  104 115 28 116  117 95 118 97  26 99 17 101  37 25 119 40  120 121 122 123  20 124 125 126  47 127 48 50  128 92 70 97  129 114 98 130  131 132 133 134  135 123 136 137  123 138 137 139  104 27 115 28  140 34 35 141  142 81 143 77  144 145 108 146  147 148 61 63  121 135 123 137  140 35 149 141  150 35 149 141  30 151 31 32  85 152 18 19  153 154 2 155  109 156 157 8  158 159 100 17  30 160 151 67  109 161 162 9  85 152 18 163  164 159 165 166  26 167 4 6  153 130 155 168  169 85 152 163  0 2 155 168  170 171 87 172  171 62 172 64  171 173 62 3  144 174 145 108  175 176 177 178  144 177 179 180  158 17 86 101  181 110 182 111  52 14 84 54  22 183 184 179  145 108 147 146  185 127 186 184  26 167 6 99  114 167 6 98  167 98 130 78  104 4 87 88  187 38 188 189  92 93 190 70  109 157 9 191  162 142 9 11  110 119 39 112  20 124 192 193  30 160 67 192  161 162 170 172  194 195 196 197  198 199 200 201  80 202 64 113  181 203 111 189  147 204 48 205  26 167 99 101  5 173 7 3  127 186 48 205  147 206 205 207  171 173 7 87  5 173 7 87  107 38 208 58  129 45 130 78  129 43 44 45  151 31 209 32  158 100 78 101  0 5 2 168  79 170 171 172  120 140 210 138  210 35 138 211  140 210 35 138  16 18 28 19  194 195 65 196  121 212 135 137  213 214 215 97  215 216 96 97  59 24 13 14  161 104 105 191  217 198 218 200  27 16 115 28  219 220 221 103  222 175 176 178  41 148 1 63  47 23 185 127  223 102 224 225  194 196 226 197  62 3 63 64  41 62 3 63  41 173 62 3  153 227 195 228  219 20 125 126  169 135 136 137  187 38 39 208  120 140 123 138  20 124 126 192  213 91 70 97  149 123 136 139  140 149 123 139  213 215 216 97  41 42 148 204  147 148 204 48  42 148 204 50  229 110 230 231  37 12 25 40  148 204 48 50  44 98 100 78  167 6 98 99  232 49 193 50  26 4 27 115  153 154 195 228  233 80 202 113  162 79 170 172  80 62 172 64  198 218 199 200  37 25 119 112  234 38 188 189  165 166 235 236  51 52 84 54  59 53 70 54  237 238 65 67  98 100 78 101  129 44 45 78  239 240 241 201  242 243 189 244  161 170 87 172  239 150 240 241  104 4 27 115  20 47 23 193  37 119 39 112  245 51 53 54  81 246 82 83  233 80 77 113  176 247 57 178  114 5 6 7  154 228 155 248  246 249 82 83  250 110 39 111  239 240 251 199  144 55 177 57  114 5 2 168  0 5 173 3  171 173 87 172  153 2 155 168  153 114 2 168  144 174 55 57  129 43 227 45  227 195 196 228  219 220 221 252  194 196 68 226  187 38 188 208  41 0 173 3  154 65 232 49  147 61 63 113  250 181 242 189  159 165 85 166  132 253 242 244  167 98 99 101  202 61 64 113  109 161 9 191  47 23 127 193  33 239 35 141  254 150 241 28  12 107 15 40  217 104 116 191  42 148 49 50  53 89 90 70  162 142 79 9  109 156 8 10  107 38 55 58  107 13 72 15  65 196 66 68  13 14 72 15  255 152 136 163  255 136 137 139  52 92 256 70  257 247 188 56  147 233 206 113  237 20 192 193  145 147 233 206  12 107 13 15  81 73 76 77  106 107 108 75  102 224 76 83  37 258 259 112  162 143 10 11  190 102 225 83  171 173 62 172  102 224 225 83  176 257 247 56  204 127 48 205  30 219 221 103  29 30 219 103  176 132 257 247  253 133 260 261  213 83 70 97  38 188 56 58  38 188 208 58  150 35 149 139  255 152 18 163  169 166 163 236  239 254 150 241  71 73 233 77  108 71 75 233  239 254 241 201  254 241 116 201  254 241 28 116  73 80 143 77  30 151 238 67  257 188 189 244  80 202 62 64  151 238 67 68  222 176 131 134  151 238 68 209  258 259 262 231  41 0 1 3  245 262 54 231  212 135 137 236  30 221 160 252  30 219 252 126  30 160 252 126  151 238 31 209  42 154 232 248  121 122 123 137  129 227 45 130  0 42 154 155  0 154 2 155  254 150 27 28  41 148 204 61  153 114 130 168  217 161 104 191  171 173 7 3  238 194 68 226  26 17 86 101  26 99 16 115  26 99 16 17  26 16 17 18  26 17 18 86  104 254 27 28  242 188 189 244  190 249 83 97  104 254 28 116  167 4 5 6  238 68 209 226  0 154 1 2  147 71 233 113  132 257 247 188  128 92 256 70  169 163 137 236  150 149 141 240  33 34 141 251  169 135 137 236  21 22 183 185  65 66 228 248  154 65 232 248  65 66 232 248  238 194 65 68  165 169 166 236  158 100 46 78  129 98 130 78  202 61 62 64  65 66 263 232  165 169 135 236  153 129 114 130  194 65 196 68  108 147 71 233  145 108 147 233  217 156 218 200  237 65 67 263  52 53 70 54  72 73 102 74  238 65 67 68  253 242 243 244  30 237 67 192  104 116 105 191  150 27 255 28  47 22 23 185  21 22 23 185  79 171 172 64  210 211 264 36  210 264 265 36  158 100 17 101  210 34 265 36  104 115 88 105  161 162 170 9  158 85 166 86  213 214 246 97  215 118 266 97  153 154 228 155  153 228 130 155  255 149 136 139  176 134 247 178  210 35 211 36  69 267 225 70  81 73 82 143  171 62 3 64  187 38 39 111  181 242 243 189  175 177 180 178  227 195 196 197  255 149 152 136  24 14 25 54  0 5 2 3  41 61 62 63  140 123 138 139  176 177 57 178  186 48 205 207  17 85 18 19  217 116 200 191  85 18 86 163  169 85 166 163  268 131 133 261  4 6 115 88  255 136 163 137  195 65 196 228  114 167 98 130  219 125 252 126  219 269 125 252  219 269 220 252  92 190 70 97  165 169 85 166  4 5 7 87  174 55 57 58  38 203 111 189  223 14 72 102  71 73 74 77  190 102 82 83  174 106 55 58  37 38 39 112  223 13 14 72  38 55 56 58  270 38 203 111  30 237 20 192  20 21 124 23  81 73 76 82  37 12 107 40  73 102 76 82  73 102 74 76  65 196 66 228  30 151 238 31  93 190 102 225  144 186 179 180  223 93 14 102  223 93 14 70  223 93 225 70  223 93 102 225  144 184 146 177  247 188 56 58  234 38 188 56  147 48 146 207  148 48 49 50  34 265 36 271  12 15 25 40  109 157 8 9  217 157 200 191  169 152 136 163  150 149 241 152  147 48 205 207  53 90 95 70  110 230 182 231  145 108 75 233  253 243 272 273  153 227 228 130  129 44 98 78  253 133 261 273  140 210 34 35  162 9 10 11  274 198 218 199  170 171 87 88  167 98 78 101  170 87 88 105  275 117 276 97  132 242 188 244  106 107 55 58  147 206 204 205  33 34 36 271  176 247 56 57  150 149 240 241  128 275 95 97  214 215 266 97  127 186 184 48  4 6 7 88  223 69 225 70  71 73 75 233  52 14 70 54  123 136 137 139  150 255 149 139  161 170 87 105  26 27 16 115  162 79 170 9  217 104 254 116  110 182 111 112  245 230 182 231  99 100 17 101  33 239 141 251  169 136 163 137  131 132 133 273  154 195 65 228  161 104 87 105  217 109 161 191  79 80 172 64  26 6 99 115  104 115 116 105  114 167 5 6  250 181 110 111  152 18 28 19  38 39 111 112  117 118 266 97  239 240 199 201  142 80 143 77  106 107 72 15  142 79 80 77  162 142 80 143  162 142 79 80  89 267 91 70  69 89 267 70  30 237 238 67  250 187 39 111  222 176 134 178  234 257 188 56  144 55 146 177  222 131 133 134  213 216 91 97  107 38 40 208  176 177 56 57  250 242 187 189  174 145 106 108  145 106 108 75  239 274 251 199  245 51 229 231  30 221 103 32  37 107 38 40  186 48 146 207  147 206 204 61  147 148 204 61  213 267 83 70  41 42 148 1  42 148 154 1  237 47 49 193  186 184 48 146  145 147 206 207  145 147 146 207  162 79 80 172  233 202 206 113  106 107 15 40  71 13 72 74  107 108 71 75  122 123 138 137  140 35 138 139  158 159 85 166  132 257 188 244  65 66 67 263  237 232 49 193  154 65 228 248  253 243 244 273  158 159 17 85  158 164 159 166  234 257 188 189  59 14 70 54  245 259 262 231  245 229 230 231  223 13 72 74  223 72 102 74  132 253 244 273  267 225 83 70  106 107 72 75  52 93 14 70  243 257 189 244  277 25 231 112  153 129 227 130  239 150 141 240  212 235 135 236  239 150 35 141  150 255 149 152  239 141 240 251  140 35 149 139  95 118 96 97  216 94 96 97  177 180 57 178  176 132 134 247  176 131 132 134  176 131 132 257  144 177 180 57  175 177 179 180  144 186 184 179  85 166 86 163  33 34 35 141  239 254 198 201  80 77 64 113  47 185 127 184  81 73 143 77  30 160 126 192  41 148 61 63  114 167 5 168  20 124 23 193  223 102 224 74  190 225 83 70  37 119 39 40  254 198 200 201  222 268 131 133  217 254 198 200  254 116 200 201  217 254 116 200  26 4 6 115  104 4 115 88  217 156 157 200  109 162 9 10  161 170 9 105  161 9 105 191  162 142 143 11  278 44 100 46  278 44 100 279  117 276 266 97  278 158 100 46  277 25 119 112  278 158 164 159  164 165 166 235  239 198 199 201  278 159 100 279  278 158 159 100  120 122 123 138  102 224 74 76  93 190 225 70  92 190 249 97  33 34 251 271  73 233 80 77  237 20 47 193  215 118 96 97  47 22 185 184  158 17 85 86  33 239 274 251  20 47 22 23  268 280 272 261  165 235 135 236  245 51 54 231  174 106 108 55  144 174 108 55  55 177 56 57  242 187 188 189  144 184 177 179  30 221 160 151  237 263 232 193  237 67 263 192  47 127 184 48  110 277 231 112  190 249 82 83  69 53 89 70  30 219 20 126  30 221 151 32  30 219 221 252  183 185 186 184  183 186 184 179  42 154 155 248  114 167 130 168  5 2 7 3  183 186 179 180  106 107 40 208  106 107 208 58  247 56 57 58  239 274 198 199  144 145 146 207  237 263 192 193  42 154 232 49  42 232 49 50  22 183 185 184  281 276 266 97  234 282 38 189  121 212 122 137  30 20 126 192  282 38 203 189  59 223 14 70  59 223 69 70  20 21 124 125  217 109 157 191  217 109 156 157  181 282 203 189  182 270 111 112  258 259 231 112  182 270 259 112  243 257 244 273  37 270 259 112  214 281 266 97  270 38 111 112  51 277 54 231  210 34 35 36  132 257 244 273  245 182 259 231  144 108 55 146  71 233 77 113  59 223 13 14  38 39 40 208  277 25 54 231  12 258 24 25  37 12 258 25  258 262 54 231  131 257 272 273  214 246 281 97  243 257 272 273  131 132 257 273  42 148 154 49  0 42 154 1  171 7 87 88  41 1 3 63  204 127 48 50  52 53 256 70  202 206 61 113  147 206 61 113  51 229 277 231  258 24 262 54  107 71 72 75  107 71 13 72  255 152 18 28  27 255 18 28  90 95 70 97  90 94 95 97  90 91 70 97  90 216 91 97  90 216 94 97  150 255 152 28  150 241 152 28  237 65 263 232  237 65 232 49  47 127 193 50  47 49 193 50  213 267 91 70  190 83 70 97  182 259 231 112  250 187 111 189  187 38 111 189  144 186 184 146  144 186 146 207  246 249 83 97  213 246 83 97  258 24 25 54  258 25 54 231  277 25 84 54  258 25 231 112  51 277 84 54  37 258 25 112  128 95 70 97  128 53 256 70  128 53 95 70  132 253 133 273  59 24 14 54  24 60 262 54  245 60 53 54  245 60 262 54  59 24 60 54  110 277 119 112  131 272 261 273  253 272 261 273  37 270 38 112  181 182 203 111  229 110 277 231  182 270 203 111  250 181 111 189  131 133 261 273  253 272 260 261  268 131 272 261  275 117 95 97  243 282 257 189  181 243 282 189  280 272 260 261  234 282 257 189  110 182 231 112  </DataArray>
<DataArray  type="UInt32"  Name="offsets"  format="ascii">4 8 12 16 20 24 28 32 36 40 44 48 52 56 60 64 68 72 76 80 84 88 92 96 100 104 108 112 116 120 124 128 132 136 140 144 148 152 156 160 164 168 172 176 180 184 188 192 196 200 204 208 212 216 220 224 228 232 236 240 244 248 252 256 260 264 268 272 276 280 284 288 292 296 300 304 308 312 316 320 324 328 332 336 340 344 348 352 356 360 364 368 372 376 380 384 388 392 396 400 404 408 412 416 420 424 428 432 436 440 444 448 452 456 460 464 468 472 476 480 484 488 492 496 500 504 508 512 516 520 524 528 532 536 540 544 548 552 556 560 564 568 572 576 580 584 588 592 596 600 604 608 612 616 620 624 628 632 636 640 644 648 652 656 660 664 668 672 676 680 684 688 692 696 700 704 708 712 716 720 724 728 732 736 740 744 748 752 756 760 764 768 772 776 780 784 788 792 796 800 804 808 812 816 820 824 828 832 836 840 844 848 852 856 860 864 868 872 876 880 884 888 892 896 900 904 908 912 916 920 924 928 932 936 940 944 948 952 956 960 964 968 972 976 980 984 988 992 996 1000 1004 1008 1012 1016 1020 1024 1028 1032 1036 1040 1044 1048 1052 1056 1060 1064 1068 1072 1076 1080 1084 1088 1092 1096 1100 1104 1108 1112 1116 1120 1124 1128 1132 1136 1140 1144 1148 1152 1156 1160 1164 1168 1172 1176 1180 1184 1188 1192 1196 1200 1204 1208 1212 1216 1220 1224 1228 1232 1236 1240 1244 1248 1252 1256 1260 1264 1268 1272 1276 1280 1284 1288 1292 1296 1300 1304 1308 1312 1316 1320 1324 1328 1332 1336 1340 1344 1348 1352 1356 1360 1364 1368 1372 1376 1380 1384 1388 1392 1396 1400 1404 1408 1412 1416 1420 1424 1428 1432 1436 1440 1444 1448 1452 1456 1460 1464 1468 1472 1476 1480 1484 1488 1492 1496 1500 1504 1508 1512 1516 1520 1524 1528 1532 1536 1540 1544 1548 1552 1556 1560 1564 1568 1572 1576 1580 1584 1588 1592 1596 1600 1604 1608 1612 1616 1620 1624 1628 1632 1636 1640 1644 1648 1652 1656 1660 1664 1668 1672 1676 1680 1684 1688 1692 1696 1700 1704 1708 1712 1716 1720 1724 1728 1732 1736 1740 1744 1748 1752 1756 1760 1764 1768 1772 1776 1780 1784 1788 1792 1796 1800 1804 1808 1812 1816 1820 1824 1828 1832 1836 1840 1844 1848 1852 1856 1860 1864 1868 1872 1876 1880 1884 1888 1892 1896 1900 1904 1908 1912 1916 1920 1924 1928 1932 1936 1940 1944 1948 1952 1956 1960 1964 1968 1972 1976 1980 1984 1988 1992 1996 2000 2004 2008 2012 2016 2020 2024 2028 2032 2036 2040 2044 2048 2052 2056 2060 2064 2068 2072 2076 2080 2084 2088 2092 2096 2100 2104 2108 2112 2116 2120 2124 2128 2132 2136 2140 2144 2148 2152 2156 2160 2164 2168 2172 2176 2180 2184 2188 2192 2196 2200 2204 2208 2212 2216 2220 2224 2228 2232 2236 2240 2244 2248 2252 2256 2260 2264 2268 2272 2276 2280 2284 2288 2292 2296 2300 2304 2308 2312 2316 2320 2324 2328 2332 2336 2340 2344 2348 2352 2356 2360 2364 2368 2372 2376 2380 2384 2388 2392 2396 2400 2404 2408 2412 2416 2420 2424 2428 2432 2436 2440 2444 2448 2452 2456 2460 2464 2468 2472 2476 2480 2484 2488 2492 2496 2500 2504 2508 2512 2516 2520 2524 2528 2532 2536 2540 2544 2548 2552 2556 2560 2564 2568 2572 2576 2580 2584 2588 2592 2596 2600 2604 2608 2612 2616 2620 2624 2628 2632 2636 2640 2644 2648 2652 2656 2660 2664 2668 2672 2676 2680 2684 2688 2692 2696 2700 2704 2708 2712 2716 2720 2724 2728 2732 2736 2740 2744 2748 2752 2756 2760 2764 2768 2772 2776 2780 2784 2788 2792 2796 2800 2804 2808 2812 2816 2820 2824 2828 2832 2836 2840 2844 2848 2852 2856 2860 2864 </DataArray>
<DataArray  type="UInt8"  Name="types"  format="ascii">10 10 10 10 10 10 10 10 10 10 10 10 10 10 10 10 10 10 10 10 10 10 10 10 10 10 10 10 10 10 10 10 10 10 10 10 10 10 10 10 10 10 10 10 10 10 10 10 10 10 10 10 10 10 10 10 10 10 10 10 10 10 10 10 10 10 10 10 10 10 10 10 10 10 10 10 10 10 10 10 10 10 10 10 10 10 10 10 10 10 10 10 10 10 10 10 10 10 10 10 10 10 10 10 10 10 10 10 10 10 10 10 10 10 10 10 10 10 10 10 10 10 10 10 10 10 10 10 10 10 10 10 10 10 10 10 10 10 10 10 10 10 10 10 10 10 10 10 10 10 10 10 10 10 10 10 10 10 10 10 10 10 10 10 10 10 10 10 10 10 10 10 10 10 10 10 10 10 10 10 10 10 10 10 10 10 10 10 10 10 10 10 10 10 10 10 10 10 10 10 10 10 10 10 10 10 10 10 10 10 10 10 10 10 10 10 10 10 10 10 10 10 10 10 10 10 10 10 10 10 10 10 10 10 10 10 10 10 10 10 10 10 10 10 10 10 10 10 10 10 10 10 10 10 10 10 10 10 10 10 10 10 10 10 10 10 10 10 10 10 10 10 10 10 10 10 10 10 10 10 10 10 10 10 10 10 10 10 10 10 10 10 10 10 10 10 10 10 10 10 10 10 10 10 10 10 10 10 10 10 10 10 10 10 10 10 10 10 10 10 10 10 10 10 10 10 10 10 10 10 10 10 10 10 10 10 10 10 10 10 10 10 10 10 10 10 10 10 10 10 10 10 10 10 10 10 10 10 10 10 10 10 10 10 10 10 10 10 10 10 10 10 10 10 10 10 10 10 10 10 10 10 10 10 10 10 10 10 10 10 10 10 10 10 10 10 10 10 10 10 10 10 10 10 10 10 10 10 10 10 10 10 10 10 10 10 10 10 10 10 10 10 10 10 10 10 10 10 10 10 10 10 10 10 10 10 10 10 10 10 10 10 10 10 10 10 10 10 10 10 10 10 10 10 10 10 10 10 10 10 10 10 10 10 10 10 10 10 10 10 10 10 10 10 10 10 10 10 10 10 10 10 10 10 10 10 10 10 10 10 10 10 10 10 10 10 10 10 10 10 10 10 10 10 10 10 10 10 10 10 10 10 10 10 10 10 10 10 10 10 10 10 10 10 10 10 10 10 10 10 10 10 10 10 10 10 10 10 10 10 10 10 10 10 10 10 10 10 10 10 10 10 10 10 10 10 10 10 10 10 10 10 10 10 10 10 10 10 10 10 10 10 10 10 10 10 10 10 10 10 10 10 10 10 10 10 10 10 10 10 10 10 10 10 10 10 10 10 10 10 10 10 10 10 10 10 10 10 10 10 10 10 10 10 10 10 10 10 10 10 10 10 10 10 10 10 10 10 10 10 10 10 10 10 10 10 10 10 10 10 10 10 10 10 10 10 10 10 10 10 10 10 10 10 10 10 10 10 10 10 10 10 10 10 10 10 10 10 10 10 10 10 10 10 10 10 10 10 10 10 10 10 10 10 10 10 10 10 10 10 10 10 10 10 10 10 10 10 10 10 10 10 10 10 10 10 10 10 10 10 10 10 10 10 10 10 </DataArray>
</Cells>
<PointData  Scalars="f_819"> 
<DataArray  type="Float64"  Name="f_819"  format="ascii">9.0810810511405993e-01  9.1133377681964622e-01  9.0767434614265319e-01  9.0107214717301887e-01  8.8308455295473132e-01  8.9654318754410967e-01  8.8674798934389487e-01  8.9455717378628052e-01  8.7653808151118251e-01  8.7975711868719819e-01  8.7672557745743629e-01  8.7954129578306095e-01  8.9892026073881914e-01  8.9726113935717389e-01  8.9574268690052483e-01  8.9879252153602684e-01  8.7105574457566248e-01  8.6964401655897050e-01  8.6497722413792510e-01  8.6421693921618792e-01  9.5084392818602048e-01  9.3981986062315770e-01  9.2879006008035203e-01  9.4028612869364114e-01  8.9752130629018134e-01  8.9828351610696722e-01  8.7632222995230380e-01  8.6847466214441127e-01  8.6692885155179467e-01  9.9999999999999989e-01  1.0000000000000000e+00  1.0000000000000000e+00  9.2369266452250076e-01  8.4799846790820055e-01  8.4263609800763262e-01  8.4434720450033429e-01  8.4029047815260560e-01  9.0018521699047216e-01  9.0266812562926724e-01  9.0154784204951310e-01  9.0057328791364233e-01  9.0856988548747164e-01  9.2112697549992462e-01  9.0597186258187545e-01  8.9081654704094915e-01  9.0467673957795391e-01  8.8938322690353655e-01  9.3556836378968700e-01  9.2170520255191934e-01  9.3559880023346220e-01  9.3159048356581931e-01  8.9701839587953691e-01  8.9386241290975865e-01  8.9374637963133441e-01  8.9682465421628721e-01  9.0570423836036085e-01  9.0553596490617982e-01  9.0928265169147782e-01  9.0523899734988733e-01  8.9541927767513263e-01  8.9680038850458865e-01  9.0717829968956154e-01  8.9929363550662378e-01  9.0644366197020632e-01  8.9665622750560092e-01  9.4814502253779620e-01  9.4989967856474922e-01  9.6340628638008585e-01  9.6068228202777783e-01  8.9308764365478921e-01  8.9182694591788203e-01  9.0012052754254279e-01  8.9712854224189720e-01  8.9319431704032204e-01  8.9464066345729965e-01  8.9987442235301107e-01  8.9156964922661985e-01  8.9327166073572162e-01  8.9212255653081640e-01  8.8828661756935401e-01  8.9255666349184637e-01  8.8720018269301326e-01  8.8702843249709074e-01  8.9009213992141101e-01  8.9667096140899727e-01  8.6071560743738695e-01  8.6851667865967308e-01  8.8724047614826973e-01  8.8470070601568185e-01  8.9177064564248432e-01  8.9075023374430651e-01  8.9054128526284004e-01  8.8998675026175755e-01  8.9236146403585437e-01  8.8975418209593649e-01  8.8909121675092073e-01  8.8919165427051916e-01  8.8879883845176932e-01  8.8981053956660072e-01  8.7878790874152990e-01  8.7852827306910553e-01  8.8070675992249481e-01  8.9278267490988983e-01  9.2854665771120382e-01  8.7571517036796431e-01  8.7771158347857692e-01  9.0218534962370356e-01  9.0115727059622674e-01  9.0541731557916705e-01  8.7683203296237455e-01  9.0059232589753602e-01  9.0193403241283587e-01  9.0001889184667982e-01  9.0089971612922548e-01  8.9983947122694474e-01  8.7618659724762660e-01  8.6854541478573777e-01  8.8809965014994463e-01  8.8856266349991586e-01  8.9982314519934903e-01  8.2969910394584434e-01  8.3143230041909011e-01  8.2927466117558679e-01  8.4057592210005971e-01  9.5087335735826295e-01  9.5339240593357533e-01  9.6246049704830250e-01  9.2940215005972082e-01  8.8818790811234238e-01  9.0576959340589103e-01  9.1089797337546219e-01  9.0430031172222036e-01  9.0464566562185889e-01  9.0334375424635727e-01  9.0518039543883211e-01  8.4318972295090311e-01  8.4885316836385050e-01  8.4390391502098361e-01  8.3296883184113213e-01  8.4606387620580081e-01  8.4034463708086327e-01  8.4771871552122446e-01  8.8490714672024351e-01  8.8467741920903331e-01  9.1206714883700324e-01  9.0620499552798295e-01  9.1205207691011525e-01  9.0870487487070717e-01  9.1807073698833930e-01  8.4994968130651594e-01  8.5580732397478865e-01  9.6383949109454614e-01  8.5772044434503636e-01  9.1682721052176697e-01  9.2553138310649019e-01  9.1947369405275103e-01  8.7148918998983427e-01  8.7335027195487680e-01  8.7386434845744543e-01  8.6654368082058053e-01  9.6870579664762757e-01  8.8062330206531980e-01  8.8365309187343433e-01  8.5651580998944166e-01  8.5890764702952005e-01  8.5384355460954253e-01  8.5886366754111776e-01  8.9275223264612924e-01  9.0576698468125005e-01  8.5274045486452210e-01  8.8410204063287112e-01  8.9136088343143827e-01  8.9012177238798940e-01  8.9792933074518733e-01  9.0691455632022555e-01  9.0999572772618309e-01  9.0642338698088865e-01  9.1171329747516971e-01  9.0847069282558368e-01  9.1788156888402461e-01  9.1470909707040271e-01  9.0249123585785951e-01  9.0058554678626634e-01  9.2493386584009563e-01  9.2085572697136731e-01  9.3094396230409937e-01  9.2111366462828792e-01  9.0311430654493585e-01  9.0443237643008279e-01  9.0336837983645091e-01  8.8996170930603913e-01  8.7314782518591294e-01  9.5773831517678010e-01  9.4332092282722546e-01  1.0000000000000000e+00  9.3947294426263184e-01  9.4779490690904367e-01  9.3965576492370295e-01  8.6221588091856949e-01  8.5814522239723823e-01  8.6576293662059423e-01  8.6214548530277613e-01  9.0132760018794966e-01  9.0213774210113862e-01  9.1845006112485272e-01  9.1934138515622499e-01  9.0944719527808660e-01  9.1364278416139777e-01  9.0286350756488143e-01  9.3472469320493035e-01  8.3361109345786299e-01  8.3269553186944678e-01  8.3726111624303601e-01  8.8914024116347634e-01  8.8768332336311917e-01  8.8865620198192852e-01  8.8967217277192157e-01  8.7111441780924215e-01  8.6449204833028981e-01  9.9999999999999989e-01  9.5950123353140426e-01  9.6119961053114200e-01  9.0529163170180305e-01  8.9418052564403649e-01  8.9261998281657218e-01  8.9234388177881485e-01  9.4387016784688338e-01  9.2554587223251539e-01  9.3239533319512546e-01  8.9894223387146355e-01  8.9940862076260975e-01  8.9881122352456411e-01  9.3882262373868131e-01  9.0032401109735716e-01  9.0404767644594453e-01  8.4522245600166823e-01  8.4835282923848521e-01  9.5297968318080684e-01  9.9999999999999989e-01  8.5526291462834625e-01  8.5476341024000313e-01  8.6010984996135587e-01  9.0379262436648533e-01  9.0388345025499273e-01  9.0411086274830965e-01  8.9838777008048698e-01  8.8595916858194990e-01  9.0645960849344054e-01  9.3274485788818196e-01  8.8724823461948232e-01  9.0259865510403581e-01  8.5064092994763496e-01  9.6808308265035237e-01  9.0377776751976890e-01  8.6507643332309170e-01  8.5586661890044868e-01  8.9087672045348254e-01  9.0442952598321913e-01  8.9871793200901506e-01  8.9931951110916497e-01  9.0190346175741976e-01  9.0252583447292367e-01  8.9817621184825547e-01  9.5195589621625654e-01  8.3490361718863926e-01  8.3755531082255230e-01  8.8781539745582139e-01  8.9115504220444930e-01  9.0283471350244116e-01  9.5503939453918585e-01  9.0078378575077145e-01  8.4566023724590966e-01  9.0350088074873702e-01  9.0399942531792343e-01  8.5594445717722889e-01  8.8764568727992876e-01  8.8738233218776508e-01  8.9852090664968698e-01  8.7293922585267536e-01  8.7969034482400366e-01  9.0063479099944188e-01  8.8635355847496922e-01  9.0336229658114520e-01  </DataArray> 
</PointData> 
</Piece>
</UnstructuredGrid>
</VTKFile>