<?xml version="1.0"?>
<VTKFile type="UnstructuredGrid"  version="0.1"  >
<UnstructuredGrid>
<Piece  NumberOfPoints="279" NumberOfCells="761">
<Points>
<DataArray  type="Float64"  NumberOfComponents="3"  format="ascii">2.605724004177355 -22.84942250905316 -11.54041464670918  2.076045886499582 -22.95660682308226 -11.33009765716593  2.154501417165079 -23.17799695862577 -12.2575917340721  2.210332056357957 -23.61904584815177 -12.0347047723164  3.229032828274247 -21.26191338272962 -11.65096975991741  3.242563911242937 -20.92545783101897 -12.40633644861935  3.412914369282199 -20.43284795076447 -12.22025456722598  3.675659255552767 -20.77709431761872 -12.3727190595417  0.4736133229213157 -21.26560835208107 -9.17465416851052  0.5630128239907783 -20.88684409726215 -9.340517948810433  0.4563333347015763 -21.13067848858867 -9.521139283193564  0.8569957609425293 -21.06469234084251 -9.468430714967305  2.93617243733395 -21.3390106346345 -12.48866808305971  2.921633670428495 -21.79889982919179 -12.59071943930537  2.630362548359392 -21.61789055266793 -12.46658056200088  2.868418105063457 -21.41016236504522 -12.10681813840848  1.034061840667825 -20.83441850892403 -10.02422838058968  0.8574445658375011 -20.74975793539894 -10.13805669685643  1.012046947165822 -20.74433117739485 -10.196534983426  0.799489719297192 -20.92465029178702 -10.25555708178742  1.752520946320485 -22.21132769568155 -11.09543777426078  1.075683131605138 -22.35362440246087 -11.63157421495301  0.9165087441969009 -22.72012051022482 -11.48490755669882  1.245800716766384 -22.65727323471287 -11.78926980686583  2.151466570908744 -23.57883632653756 -11.01847203021634  2.3996143084176 -24.00642390488888 -10.59091816900993  1.985776718684769 -24.40322177679319 -10.97490783434236  2.434137103730082 -24.2786907748726 -11.32980295945217  1.123178158353265 -22.55769459944904 -9.387309869006492  0.3629023408473862 -22.49233986204849 -8.960704180791408  0.5983727800637872 -22.33719942965327 -8.575488578058325  0.4018172240661617 -22.1071207598866 -8.832489676426079  2.26790148311363 -22.25430856349463 -11.51228389698178  1.75210462753234 -22.05723546677334 -11.69993391421557  1.169836713027861 -22.04916267418808 -11.66000365842921  1.449795308434464 -21.72489881819061 -11.2738183762914  2.189361485081114 -21.80905288962608 -11.37260160617568  2.457520943405493 -21.07626802065298 -12.1957777796421  2.196477618459765 -21.37673692847969 -12.1918578546632  2.136523736648307 -21.05827150340803 -12.02351068227207  2.540771518584635 -21.32932145498807 -12.33990637015861  2.327445544363318 -21.66611013452845 -12.3509475343231  1.969913829691683 -21.6855614160987 -12.16382896337455  2.56755512555062 -21.88464409784378 -12.10052198498126  1.716093014055414 -21.61694616940066 -10.32332525518214  1.657112317215744 -21.18438143285047 -9.909090959413266  1.293857786717373 -20.97607751085113 -10.62035742336537  1.145054739007201 -21.11273670471688 -10.11352021074255  1.7595365776047 -23.72642006794498 -10.57529296303642  1.985238008848136 -24.03640260389911 -10.17148472713723  1.466517141792998 -24.35493568667054 -10.65910321238733  1.187609490336767 -24.30569036744985 -10.22635474142773  0.5338458048234986 -23.63397984177685 -9.780703064294343  0.6366326349505698 -23.7512035563841 -10.32256913926567  0.8456096891984766 -24.04412297468939 -10.02624041764844  0.7887877956828804 -23.31801151485135 -10.25169885314132  2.739234741279716 -21.53962756576308 -11.63891686689501  1.847269469876603 -21.34602789551489 -11.97366420535626  2.385954799035563 -21.34344703152025 -11.2998172579935  1.884010614962577 -21.0090866072671 -11.85475990464709  1.68020169027699 -21.10816060054923 -11.75441745485001  3.10051607623309 -23.28152858834961 -11.38372707081313  2.80787316771672 -23.76265125930358 -11.00970152250287  2.524712522310291 -23.34466810824466 -11.30459878488954  2.95042805624287 -24.11598810982371 -11.59588540147812  1.117424149599325 -22.5981570318235 -10.06379047459147  1.281264396068285 -22.06784450674015 -9.887838926006237  0.7901593625687876 -21.88124851272615 -10.23200627594944  0.6077695356856875 -22.31788722182449 -9.837254740256926  2.119410407736713 -21.43220337382589 -10.84448658395835  1.426458223416478 -21.0349347744558 -11.52272716676407  1.728772298510816 -20.80464482510482 -11.65204763392267  0.6070856044546221 -21.95647201232396 -9.386556626531897  3.522720030306866 -22.29831620525558 -11.66924907709037  3.414439906654405 -22.33224732133912 -12.63237463806773  3.444902988238986 -22.73212175328744 -12.54227941527351  2.992274498075802 -22.32463344912392 -12.62845160676731  1.471684753514742 -22.12550779744418 -10.44803932168715  0.8869090086669358 -21.76538868644574 -10.80858470350289  0.9203931490919177 -21.46226822634481 -10.51532408407234  2.781562320027049 -21.01243444526066 -11.44722550533826  0.8804949661389051 -20.87796795729062 -9.851166656621283  0.6900539563886983 -20.72222263238312 -9.870230941924925  0.4469661324992206 -20.96628635600188 -9.808348731980692  0.7141835990472942 -21.08333941650284 -10.01904200502892  0.787118784002347 -20.77590816376411 -9.673165308232736  0.376643007930618 -22.00225394885484 -10.50067438004159  0.9028473354324744 -22.18065030381495 -10.78269365129151  0.9368852199738634 -21.60919901887066 -11.30007274203617  0.7618832187029192 -21.55785151894446 -11.08644625126535  1.293118543573236 -21.3161674428299 -11.04230382762865  1.485717827296209 -21.38016619668991 -9.298828076135541  1.299535821511543 -21.97262784475074 -9.278570623469019  0.5708761664842472 -21.43082748343075 -8.780074887704655  0.7867010045600455 -21.48176133457495 -9.428768415007742  1.610897924989682 -23.11086447910869 -10.95529696327463  1.104302950569106 -23.04035584405587 -11.65373165006915  0.6811899199561687 -22.03159201373757 -11.08361861057974  0.5232078158390817 -22.03061248829664 -10.82140511638735  1.328991347164993 -22.5671005138995 -10.6383848352485  0.707901405091207 -22.55997594124813 -11.21551753921759  0.6912557720735343 -22.90785687677495 -11.17288784596754  3.142507100541002 -22.75410532808461 -11.60483169676856  3.431685252068679 -23.14563537855965 -12.36498858705906  2.983000557933193 -22.89956625692664 -12.51935747142659  2.852280429524351 -22.30224324878579 -11.69359662975478  1.339369449568439 -20.76109771739531 -11.26177680733231  1.504930836123237 -20.48844066566529 -11.21369323081542  2.475512570994275 -22.93656713890665 -12.43482326475299  1.522534465152193 -20.72376634943379 -11.42759754119978  0.6819953902352937 -20.64201775247165 -10.09950227076787  0.848974178752647 -20.61648791221298 -10.27609082594247  0.733689893262798 -20.6004423778169 -9.502078660912376  0.8956175056453639 -20.75201619957105 -9.488099709928006  1.327193246338833 -21.36566021519754 -11.58674012585686  0.5116904996389612 -21.06324195078298 -10.27161804098543  0.3865505605447422 -20.7986364505568 -10.07737235193791  0.805010031863319 -20.796635872357 -10.00097592776672  0.6279574434094563 -21.0039049431904 -10.51133361881878  0.4685917535242583 -20.69979236492179 -10.37564589862308  0.6785550440255874 -20.7407740851411 -10.54945327805763  1.201822901467444 -20.71024392394654 -10.13188245095641  0.7119085591612376 -20.47549902152531 -10.31068789306065  0.9245572231456543 -20.47822087885849 -10.40017092571494  1.128056238809677 -21.5063498275603 -11.45650638794238  1.321590187986609 -21.68708803135174 -11.69108513976262  0.5234748932818002 -20.46638183120212 -10.56676920893668  3.574791281681916 -23.02340701522846 -11.43861344344334  3.107805190664565 -23.42663353973094 -12.24122576183568  0.4305124249193453 -21.1893453792333 -10.02399044901385  0.4219013498797013 -21.35892212789712 -10.23597984010743  0.77860180148554 -21.18945769193365 -10.35191104315033  1.249443285635293 -20.75562054531669 -9.693844355090986  1.109900172793438 -20.84512447649096 -9.844243922827557  1.254813782366224 -20.73113526075802 -9.924350944367156  1.205471600254738 -21.15319550184139 -9.737493159812212  3.262511593849192 -21.95449534985563 -12.64497412321373  2.503994554939915 -22.02162621284601 -12.49599924699433  2.537119907188594 -22.51139020469377 -12.52162940687323  2.093963559320301 -22.30881144054786 -12.32885650765473  0.8602359454066993 -22.19990379548264 -11.36129761055913  0.81143749413489 -21.83297320707477 -11.21451280426997  2.028255703894412 -23.9534250485995 -11.67449906376654  2.462857459043653 -23.99853591361228 -11.71158559909608  1.414957013978364 -21.59576869335022 -9.755796912732436  2.764996704609849 -23.73923764007863 -12.01506426996723  0.2375708127774953 -21.61015561620548 -9.698375075784991  0.1628480983503835 -21.92834865200414 -9.79887377122261  0.7438522341619213 -21.55873905238598 -9.894491395081555  0.2927415306572796 -21.56185967804036 -10.01707988566466  0.2546864916783107 -21.96091971785065 -10.16660035729741  1.305043903953808 -23.42926856770909 -11.70939708364898  1.169681978781015 -23.77046910874594 -11.36879573691014  0.913758546772785 -23.27914922954455 -11.41417770896644  0.3567220664745984 -23.14233224357629 -9.972401143423648  0.6960682841810986 -23.03976638847345 -9.591426066161334  0.5455926274690963 -21.86219339121334 -8.623668248836742  0.5117168878765991 -21.35617190898541 -10.51525008297079  0.3368823605872305 -21.67893489115403 -10.3466924117752  0.4853425296604396 -23.06871929711219 -8.950352627579639  0.2888625131609854 -22.72840490886925 -9.288780711889814  0.3336740125922079 -23.03263936156402 -9.36666387374011  0.5500380447298064 -22.64406761339044 -10.91118023760041  0.7325162145583403 -22.62527670476222 -10.40363328976029  3.262392434192186 -21.25916131579997 -12.52085877661843  3.270902691542821 -21.57514593370636 -12.59776453587289  0.9638019194303789 -20.87174675408337 -10.89460988187279  1.097748559288559 -20.59970859852682 -10.87699322340156  0.8417762172035704 -20.60281081408467 -10.68176090474512  0.1623124734711647 -21.87253127172711 -9.491026461751321  1.167608708900455 -23.22849936347161 -9.825892201814195  1.374550332417756 -22.28048645320264 -11.87487647198566  1.643771423806766 -22.58469198465046 -12.07528919180936  0.4264048451052456 -20.74685086331719 -9.598219665221782  0.8791299996966602 -21.14853495292735 -9.811613738482801  1.144994480801482 -20.80101972062882 -11.06614521162519  0.8023895330034418 -22.07848280977492 -8.345641187497819  0.4653636928137482 -21.7230183784154 -10.67571677715177  2.74263267849531 -20.94603200133659 -12.25588799166984  1.406925530527797 -22.3746668113248 -8.809197637682944  2.430867966372015 -20.94544224833452 -10.9458025145144  2.050317803449799 -20.74762080711896 -11.82619265597125  1.279324440354789 -20.58784624963485 -11.04531084531119  1.007693114384489 -20.87525651058906 -9.665671692699624  1.092365487838542 -20.82249542122774 -9.523557200009199  0.2040357567712173 -22.3207722019969 -9.431168545060515  1.086489741378639 -20.64365535241343 -10.30436607683102  1.17529387322492 -20.51515906544716 -10.40032764486318  0.591972697604238 -21.4873055708539 -10.81134963521223  1.531687221793327 -21.375883683394 -11.7499920519482  1.888781328666235 -23.38041446195724 -12.06907505069035  1.758799360414993 -23.01139947054178 -12.1230919514305  1.085582822257467 -24.01685824383209 -10.96004456628965  0.8912997107369154 -23.65607151353608 -11.15838138190739  1.065739317254861 -23.75551037531488 -8.594485300225402  1.464313068648826 -23.63152473374208 -9.337727137657804  1.294586674305522 -23.18248825191464 -9.153986260564043  1.636657967136031 -23.37604112910945 -8.74916675079732  1.30330536638653 -20.57278074124532 -10.26088860189886  1.207664345341374 -20.96770194962316 -11.27985949865025  1.874691917581627 -21.84221428186737 -10.8398784724656  0.2282909089772932 -21.99697616761917 -9.155240546715239  0.3599055256949008 -21.66446543546793 -8.983102344638354  0.2817543932185939 -21.54109171011162 -9.392557521080755  0.3688000487410878 -21.32881970890534 -9.75084635902839  0.4866894008062175 -23.40467452402158 -9.286933956853735  0.3541518526466653 -23.19714060552296 -9.62516191078258  3.694515066755764 -23.47824705995478 -12.0884543331009  0.6891144693363653 -23.55996011066117 -8.948537618416054  0.2653099244461728 -22.69693058868865 -9.707608459888887  1.422127587115196 -23.01101647603045 -11.90899953013774  0.9690897980172215 -24.09093762140755 -10.51954367361201  2.599188930213431 -23.3255224559284 -12.29603187177306  2.019155877366075 -24.58251602081174 -10.45281077710683  1.289198351972766 -23.22591381045824 -10.43002506960594  0.6861589990960769 -23.335760843015 -11.05280153124802  2.75319375765117 -24.58462299672186 -10.75220657730324  0.3495561580066923 -22.36806606225318 -10.35914212376214  1.561101035191183 -23.3147605014799 -11.92809878959793  3.20221696880605 -21.78548548943707 -11.7284586546  3.704113741118908 -21.61213508600336 -11.64606024817243  3.624823848536374 -21.26027026823675 -12.52561662676616  0.6214353495758131 -22.30745118241173 -11.02416215069513  1.596834985933894 -21.80854138398582 -8.831648402374347  0.467885347613161 -22.3544510580388 -10.69857304052119  0.3321025613074159 -22.70592702780864 -10.15509419015538  3.707194732510787 -21.89164714714804 -12.60262587975987  1.169966476522964 -21.21372938542435 -11.37742538503573  1.52316727239843 -23.76781906873306 -9.982983015945996  0.9604724585034625 -24.1114333247396 -9.463880365711917  1.219390474037482 -24.33251806487892 -9.82610462079692  0.9504266227228109 -21.35608945522949 -11.22102639799275  1.014552842996579 -21.0659886682845 -11.12514585581904  2.122752806781348 -21.9468558170621 -12.30386942628021  0.6636515450196313 -21.19619070146112 -10.6996724769503  0.8062172210217938 -21.19768991498845 -10.94406229364118  0.6323765488121905 -21.79313981813994 -10.97359320306651  1.563453115944269 -24.50502900788472 -10.0649819291502  1.899319296404015 -24.05731054258885 -9.580142646501328  1.884894724603289 -24.16746109099301 -11.35171157134301  0.9978499824351933 -22.64403946294969 -8.158650851066126  1.43717525819021 -22.808703296129 -8.73637524363974  0.6829820370704366 -22.84204657983234 -8.528514524863482  1.725305155923488 -23.60202563027053 -11.86269177969303  0.6884104812749606 -23.75021695132527 -9.296100566684409  1.798569929808586 -22.25307813817825 -8.352239263215642  0.7895085423268573 -20.93458421669748 -10.71131698442898  3.748752633413305 -21.09429035864404 -11.53035185322515  2.089454781436079 -22.7563894614953 -12.3214382791415  1.749537966784694 -22.06555193803479 -12.10937048581024  1.436237498189891 -21.96913332431034 -11.87531696043927  0.4012101933960853 -23.09479187294207 -10.32757375456832  0.5300491749434868 -23.41688611818531 -10.58774651076237  0.5164106631874934 -23.03841429488378 -10.76877933242407  1.517558524014112 -23.85205480595272 -11.55662860540997  0.4213804663422431 -22.70290966826045 -10.55925242923943  0.9350271478491895 -23.92647911765383 -9.036395572469035  3.877955700460811 -23.03636534024411 -12.3064302991819  0.6219024613281253 -20.60376952962443 -9.689574043897293  0.7713126335254661 -23.28330879297707 -8.606417319973154  0.6541977048904491 -21.01196185466724 -9.028344123333431  0.2332352899924676 -22.2780905468486 -9.952895240099842  1.343613217620858 -24.21672065562958 -8.918135054874528  1.638495843437753 -21.71995322609493 -11.96468985268101  1.647870059158041 -24.50216798279484 -9.341234271674063  0.7255874538065237 -23.70413879875473 -10.78320204083133  2.988204284473571 -20.57840880847235 -12.1722871805278  1.516232773102645 -24.16130054200114 -11.15948750127894  1.117560780892868 -23.26465379179624 -8.196029380813323  2.084985151477124 -21.05823942721645 -10.45420826071201  0.7097674018616502 -20.30276492004709 -10.42271379611151  3.160036260817082 -24.44010574803196 -11.0523084947648  3.344564466224619 -23.83435071703929 -11.86184380762279  0.4718046337539282 -23.46660047779985 -10.17674913436323  1.032676920391967 -21.81374610145664 -11.45587747285127  1.670146216338906 -20.55009820932905 -11.45034576679822  0.4205190026561833 -20.53716996274855 -9.391713695124151  2.403616494933058 -20.76158233933616 -12.01293905289701  0.6650357265050174 -20.28435805074124 -10.70785337549832  </DataArray>
</Points>
<Cells>
<DataArray  type="UInt32"  Name="connectivity"  format="ascii">0 1 2 3  4 5 6 7  8 9 10 11  12 13 14 15  16 17 18 19  20 21 22 23  24 25 26 27  28 29 30 31  20 32 1 33  34 21 35 33  20 32 36 33  37 38 39 15  37 38 40 15  38 41 42 43  44 45 46 47  48 49 50 51  52 53 54 55  12 40 14 15  56 38 39 57  58 57 59 60  61 62 63 64  38 40 15 43  65 66 67 68  69 70 71 60  28 29 31 72  73 74 75 76  77 78 67 79  56 80 58 39  56 38 15 43  81 82 83 84  9 85 10 11  86 87 78 67  88 89 90 78  91 92 93 94  20 95 22 23  95 22 23 96  97 98 87 78  99 100 22 101  102 75 103 104  105 73 102 75  69 106 107 46  105 102 104 108  69 70 106 109  105 102 75 104  110 111 17 19  9 85 112 113  114 70 35 90  110 115 116 117  118 119 120 19  110 115 119 19  121 16 18 47  122 111 123 120  124 114 125 35  122 126 123 120  127 102 128 103  115 129 130 84  46 131 79 47  132 133 134 135  13 136 15 43  137 41 14 43  138 137 139 43  105 102 0 108  140 141 35 87  63 142 3 143  144 45 47 135  63 64 145 143  62 24 27 143  99 140 100 22  4 56 80 15  24 63 142 143  146 147 72 148  149 146 147 148  150 147 67 68  95 151 152 153  52 154 55 155  147 67 68 148  92 31 156 72  157 158 130 79  20 21 23 33  144 94 148 135  159 160 161 155  149 147 67 148  99 162 87 163  95 153 22 96  12 164 165 15  32 105 139 43  166 167 168 46  169 146 147 72  170 52 55 155  170 52 54 55  171 172 23 33  110 119 122 111  85 10 173 83  81 10 174 11  175 166 167 46  92 176 30 156  110 119 111 19  177 78 67 79  81 133 16 174  5 12 178 15  179 28 92 30  180 58 181 71  175 106 182 46  183 132 184 135  183 184 11 135  175 106 90 46  160 185 72 68  168 123 186 187  177 188 78 79  81 183 174 11  114 70 189 35  105 73 76 43  1 2 190 191  178 37 40 15  38 57 42 43  95 192 193 152  13 76 136 43  66 94 72 148  111 17 18 19  174 148 47 135  88 141 89 78  194 195 196 197  198 186 187 46  70 199 106 90  77 90 78 79  44 90 46 79  200 69 35 90  201 202 31 72  8 203 10 94  204 174 148 84  203 146 94 72  205 206 161 155  127 128 207 103  81 10 83 174  204 146 94 148  205 159 208 155  160 209 155 68  0 1 63 3  1 210 172 191  81 85 82 83  28 160 155 68  91 184 11 135  48 50 51 211  102 0 212 108  45 132 134 135  28 92 66 72  177 98 86 78  57 42 43 33  49 26 50 213  95 214 193 215  216 25 26 213  10 174 11 94  217 67 163 68  203 204 146 94  203 204 10 94  1 218 210 191  85 82 173 83  28 66 72 68  4 56 219 15  21 171 23 33  204 10 174 94  157 158 177 79  81 183 133 174  183 174 11 135  77 20 200 35  219 165 136 15  220 165 221 15  69 180 58 71  81 82 117 84  204 83 174 84  28 160 72 68  77 200 35 90  91 11 94 135  222 140 100 87  204 10 83 174  168 126 123 120  81 85 10 83  91 223 92 93  82 116 117 84  222 98 224 87  0 212 108 2  119 122 111 120  225 55 163 155  154 225 55 155  185 169 147 72  219 165 226 136  4 5 7 221  202 93 94 72  133 174 47 135  183 132 133 135  28 159 29 160  140 34 21 35  124 114 227 90  56 58 39 57  170 228 229 54  228 54 51 230  204 129 83 84  58 39 181 59  20 21 35 33  228 54 51 211  227 231 232 90  0 145 212 3  137 41 233 43  200 36 69 35  174 148 47 84  69 70 35 90  69 106 109 107  115 131 19 84  157 188 234 79  36 57 43 33  9 85 10 173  174 11 94 135  124 227 231 90  231 232 235 90  177 236 188 78  56 36 57 43  49 50 51 237  238 228 229 230  228 49 51 237  24 26 239 27  56 38 57 43  95 151 210 96  1 95 151 210  222 224 162 87  65 214 55 163  217 87 67 163  61 63 64 145  77 35 87 78  48 49 26 50  179 240 241 242  77 35 90 78  1 151 218 243  179 28 241 242  8 10 11 94  244 205 208 155  228 229 54 230  245 179 240 241  16 18 47 19  52 154 206 155  246 118 120 19  102 128 103 104  28 92 30 31  4 247 6 7  4 247 7 221  0 1 2 248  171 249 250 33  0 108 2 248  32 1 172 33  65 170 55 155  195 238 228 229  4 80 178 15  28 92 31 72  62 63 64 143  124 88 231 90  114 189 125 35  251 225 55 163  20 1 95 23  28 29 160 72  133 134 47 135  45 134 47 135  158 150 86 67  179 92 176 30  77 87 78 67  62 24 63 143  53 54 211 55  1 218 190 191  1 2 3 190  1 3 190 243  228 54 211 55  215 252 253 55  110 115 116 119  20 36 35 33  1 151 254 243  0 63 145 3  4 5 178 15  224 255 162 163  195 229 244 256  224 217 87 163  255 253 162 163  77 87 67 163  224 255 217 163  95 193 152 153  251 154 225 55  95 151 254 152  1 95 151 254  105 73 75 76  206 209 161 155  13 137 76 43  0 212 2 3  138 137 76 43  92 30 31 156  105 138 104 76  80 58 39 181  34 125 35 33  105 138 139 43  246 46 131 79  177 236 98 78  231 89 235 90  205 159 161 155  29 160 185 72  70 189 60 35  69 180 109 107  73 102 75 257  149 204 129 148  66 144 67 148  157 177 188 79  169 203 146 72  85 82 173 258  115 118 131 19  77 99 87 163  77 44 90 79  196 197 241 259  179 28 30 242  91 260 93 94  91 260 11 94  58 181 71 59  168 186 187 46  36 69 60 35  214 215 253 55  149 204 146 148  175 167 182 46  175 199 106 90  175 232 199 90  73 127 102 257  202 156 93 72  32 36 43 33  175 232 166 46  139 249 233 33  236 141 89 78  139 233 43 33  249 233 42 33  233 42 43 33  131 47 19 84  157 130 131 79  150 261 147 68  262 195 229 256  66 144 94 148  144 67 79 148  246 118 131 19  44 144 79 47  146 94 72 148  154 206 209 155  111 18 120 19  28 159 160 155  32 139 172 33  246 18 120 19  105 75 104 76  246 186 18 120  111 186 18 120  77 66 44 67  13 165 136 15  263 57 42 33  127 61 102 128  139 172 249 33  1 95 24 254  251 252 253 55  32 139 43 33  129 130 148 84  92 66 144 94  89 235 90 78  92 66 94 72  45 121 134 47  8 203 202 94  105 138 108 248  99 140 100 87  105 138 139 248  264 238 230 237  137 139 233 43  105 138 104 108  214 192 265 193  164 165 221 15  4 5 178 266  157 115 118 131  62 27 64 143  48 267 254 152  95 214 192 193  1 218 190 243  170 228 54 55  20 95 99 22  194 196 197 259  223 92 176 156  179 223 92 176  8 202 93 94  219 220 165 226  13 14 15 43  20 200 36 35  56 36 58 57  194 195 196 256  170 244 52 155  150 217 261 68  115 130 131 84  202 31 156 72  169 201 203 72  224 162 87 163  160 209 161 155  264 238 229 230  157 115 130 131  268 241 242 259  81 85 183 11  81 85 10 11  133 134 16 47  127 102 103 257  9 85 113 11  91 144 94 135  92 156 93 72  185 261 147 68  255 217 225 163  251 253 55 163  251 255 253 163  251 255 225 163  170 214 228 55  269 69 44 46  8 9 260 11  8 260 11 94  98 86 87 78  177 86 78 67  203 202 94 72  225 163 155 68  116 129 83 84  69 180 109 71  106 107 182 46  88 141 35 78  88 231 89 90  88 35 90 78  66 67 68 148  66 72 68 148  158 150 149 67  150 149 147 67  110 117 17 19  105 138 76 43  115 118 119 19  204 129 148 84  246 118 234 131  262 194 195 256  246 235 46 79  131 148 47 84  270 168 126 123  157 234 131 79  200 69 44 90  232 166 235 46  168 246 186 46  168 246 186 120  69 70 109 71  77 44 67 79  28 65 66 68  216 62 25 27  271 62 27 64  271 216 62 27  40 41 14 43  40 14 15 43  13 137 14 43  105 73 219 43  179 240 176 30  170 196 244 155  95 193 215 153  214 192 265 211  4 220 221 15  97 236 141 78  97 236 98 78  265 215 252 55  95 214 215 101  65 55 163 155  28 196 159 155  217 86 87 67  154 225 209 155  4 219 220 15  185 147 72 68  95 214 48 192  214 48 192 211  48 50 192 211  48 267 50 192  95 48 254 152  95 48 192 152  48 267 192 152  95 48 24 254  77 65 99 163  77 65 66 67  1 24 63 243  24 63 142 243  63 142 3 243  97 141 87 78  1 63 3 243  9 85 112 173  85 112 173 258  1 151 218 210  5 12 164 15  1 210 172 23  34 171 250 33  65 170 214 55  24 142 239 27  214 265 215 55  48 24 25 26  28 65 170 155  61 128 272 145  1 24 254 243  102 75 103 257  62 24 25 27  56 38 39 15  4 247 220 221  73 74 76 136  99 100 101 162  20 140 35 87  127 207 103 257  73 219 220 226  95 99 22 101  238 228 230 237  222 100 162 87  99 100 162 87  48 228 51 211  228 51 230 237  238 228 49 237  194 196 256 208  1 172 23 33  214 265 193 215  195 170 228 229  69 44 90 46  166 246 235 46  44 46 79 47  38 40 41 43  170 229 244 52  121 134 16 47  195 170 229 244  223 92 156 93  92 93 94 72  8 260 93 94  52 273 154 55  273 251 154 55  20 140 21 35  102 128 104 212  56 219 15 43  1 2 248 191  1 172 248 191  219 220 165 15  28 170 196 155  98 224 86 87  97 222 140 87  270 122 126 123  28 65 155 68  65 163 155 68  274 34 125 35  34 125 250 33  225 209 155 68  224 217 86 87  124 274 125 35  227 232 199 90  97 222 98 87  171 172 249 33  91 45 132 135  235 90 78 79  12 13 165 15  1 95 210 23  95 210 23 96  20 1 23 33  41 233 42 43  95 214 99 101  65 214 99 163  214 99 253 101  99 253 101 162  214 99 253 163  214 253 55 163  99 253 162 163  29 185 201 72  29 201 31 72  58 71 59 60  58 39 57 59  180 109 275 71  82 116 83 84  95 153 22 101  82 110 116 117  183 133 174 135  185 169 201 72  130 67 79 148  149 130 67 148  149 129 130 148  150 217 86 67  158 149 130 67  249 263 250 33  150 217 67 68  158 130 67 79  110 115 117 19  269 69 180 107  180 109 107 275  133 16 174 47  115 116 117 84  9 276 112 173  91 92 144 94  16 117 17 19  158 177 86 67  236 89 188 78  45 121 46 47  28 196 159 242  28 196 241 242  28 159 29 242  28 29 30 242  194 196 208 259  196 241 242 259  48 26 267 50  244 52 205 155  179 240 30 242  80 277 39 181  147 72 68 148  157 118 234 131  12 178 40 15  220 165 226 221  246 186 18 46  69 58 71 60  53 273 252 55  273 251 252 55  4 5 6 266  80 180 58 181  278 270 168 126  114 227 70 90  219 136 15 43  227 70 199 90  178 277 37 15  196 159 242 259  80 178 277 15  225 261 209 68  217 225 261 68  20 99 140 87  77 65 67 163  77 200 44 90  217 225 163 68  91 144 45 135  141 35 87 78  269 69 107 46  198 121 186 46  63 145 3 143  61 272 64 145  196 159 208 155  196 159 208 259  268 240 241 242  119 122 126 120  24 142 27 143  175 232 90 46  81 83 174 84  131 79 148 47  24 142 239 254  214 48 228 211  48 267 239 254  44 144 45 47  269 44 45 46  232 235 90 46  124 114 35 90  246 235 234 79  166 168 246 46  88 274 141 35  48 26 267 239  216 25 26 27  24 142 254 243  61 0 63 145  49 50 237 213  158 177 67 79  185 261 209 68  160 185 209 68  201 203 202 72  214 228 211 55  95 215 153 101  95 151 153 96  65 67 163 68  214 215 253 101  53 265 252 55  52 205 206 155  52 53 273 55  48 228 49 51  97 140 141 87  140 274 34 35  140 274 141 35  249 263 42 33  105 56 219 43  34 21 171 33  115 116 129 84  115 117 19 84  36 69 58 60  69 70 60 35  91 132 184 135  170 229 52 54  73 219 136 43  73 76 136 43  194 268 197 259  268 197 241 259  235 90 46 79  246 234 131 79  188 235 78 79  5 164 221 15  4 5 221 15  73 219 226 136  73 226 74 136  69 106 90 46  69 70 106 90  111 123 186 120  168 123 186 120  264 262 195 229  264 195 238 229  66 44 144 67  44 144 67 79  144 79 148 47  144 148 47 135  32 105 36 43  105 56 36 43  32 139 172 248  32 105 0 248  32 105 139 248  246 18 46 19  246 46 131 19  18 46 47 19  46 131 47 19  53 265 211 55  214 265 211 55  189 263 57 33  36 189 57 33  36 189 35 33  119 111 120 19  36 189 60 35  36 189 57 60  36 58 57 60  127 128 272 207  127 61 128 272  85 183 113 11  183 113 184 11  48 24 26 239  48 24 239 254  16 174 47 84  81 16 174 84  61 102 0 145  61 102 128 145  102 0 145 212  102 128 145 212  20 140 21 22  20 99 140 22  204 174 94 148  48 25 49 26  25 49 26 213  56 80 39 15  80 277 39 15  277 37 39 15  102 104 212 108  105 0 108 248  77 20 99 87  77 20 35 87  121 186 18 46  121 18 46 47  195 170 196 244  196 244 208 155  195 196 244 256  196 244 256 208  130 131 79 148  130 131 148 84  124 88 274 35  124 88 35 90  16 47 19 84  81 16 117 84  16 117 19 84  174 94 148 135  188 235 234 79  89 188 235 78  32 1 172 248  32 0 1 248  263 125 250 33  189 125 35 33  189 263 125 33  </DataArray>
<DataArray  type="UInt32"  Name="offsets"  format="ascii">4 8 12 16 20 24 28 32 36 40 44 48 52 56 60 64 68 72 76 80 84 88 92 96 100 104 108 112 116 120 124 128 132 136 140 144 148 152 156 160 164 168 172 176 180 184 188 192 196 200 204 208 212 216 220 224 228 232 236 240 244 248 252 256 260 264 268 272 276 280 284 288 292 296 300 304 308 312 316 320 324 328 332 336 340 344 348 352 356 360 364 368 372 376 380 384 388 392 396 400 404 408 412 416 420 424 428 432 436 440 444 448 452 456 460 464 468 472 476 480 484 488 492 496 500 504 508 512 516 520 524 528 532 536 540 544 548 552 556 560 564 568 572 576 580 584 588 592 596 600 604 608 612 616 620 624 628 632 636 640 644 648 652 656 660 664 668 672 676 680 684 688 692 696 700 704 708 712 716 720 724 728 732 736 740 744 748 752 756 760 764 768 772 776 780 784 788 792 796 800 804 808 812 816 820 824 828 832 836 840 844 848 852 856 860 864 868 872 876 880 884 888 892 896 900 904 908 912 916 920 924 928 932 936 940 944 948 952 956 960 964 968 972 976 980 984 988 992 996 1000 1004 1008 1012 1016 1020 1024 1028 1032 1036 1040 1044 1048 1052 1056 1060 1064 1068 1072 1076 1080 1084 1088 1092 1096 1100 1104 1108 1112 1116 1120 1124 1128 1132 1136 1140 1144 1148 1152 1156 1160 1164 1168 1172 1176 1180 1184 1188 1192 1196 1200 1204 1208 1212 1216 1220 1224 1228 1232 1236 1240 1244 1248 1252 1256 1260 1264 1268 1272 1276 1280 1284 1288 1292 1296 1300 1304 1308 1312 1316 1320 1324 1328 1332 1336 1340 1344 1348 1352 1356 1360 1364 1368 1372 1376 1380 1384 1388 1392 1396 1400 1404 1408 1412 1416 1420 1424 1428 1432 1436 1440 1444 1448 1452 1456 1460 1464 1468 1472 1476 1480 1484 1488 1492 1496 1500 1504 1508 1512 1516 1520 1524 1528 1532 1536 1540 1544 1548 1552 1556 1560 1564 1568 1572 1576 1580 1584 1588 1592 1596 1600 1604 1608 1612 1616 1620 1624 1628 1632 1636 1640 1644 1648 1652 1656 1660 1664 1668 1672 1676 1680 1684 1688 1692 1696 1700 1704 1708 1712 1716 1720 1724 1728 1732 1736 1740 1744 1748 1752 1756 1760 1764 1768 1772 1776 1780 1784 1788 1792 1796 1800 1804 1808 1812 1816 1820 1824 1828 1832 1836 1840 1844 1848 1852 1856 1860 1864 1868 1872 1876 1880 1884 1888 1892 1896 1900 1904 1908 1912 1916 1920 1924 1928 1932 1936 1940 1944 1948 1952 1956 1960 1964 1968 1972 1976 1980 1984 1988 1992 1996 2000 2004 2008 2012 2016 2020 2024 2028 2032 2036 2040 2044 2048 2052 2056 2060 2064 2068 2072 2076 2080 2084 2088 2092 2096 2100 2104 2108 2112 2116 2120 2124 2128 2132 2136 2140 2144 2148 2152 2156 2160 2164 2168 2172 2176 2180 2184 2188 2192 2196 2200 2204 2208 2212 2216 2220 2224 2228 2232 2236 2240 2244 2248 2252 2256 2260 2264 2268 2272 2276 2280 2284 2288 2292 2296 2300 2304 2308 2312 2316 2320 2324 2328 2332 2336 2340 2344 2348 2352 2356 2360 2364 2368 2372 2376 2380 2384 2388 2392 2396 2400 2404 2408 2412 2416 2420 2424 2428 2432 2436 2440 2444 2448 2452 2456 2460 2464 2468 2472 2476 2480 2484 2488 2492 2496 2500 2504 2508 2512 2516 2520 2524 2528 2532 2536 2540 2544 2548 2552 2556 2560 2564 2568 2572 2576 2580 2584 2588 2592 2596 2600 2604 2608 2612 2616 2620 2624 2628 2632 2636 2640 2644 2648 2652 2656 2660 2664 2668 2672 2676 2680 2684 2688 2692 2696 2700 2704 2708 2712 2716 2720 2724 2728 2732 2736 2740 2744 2748 2752 2756 2760 2764 2768 2772 2776 2780 2784 2788 2792 2796 2800 2804 2808 2812 2816 2820 2824 2828 2832 2836 2840 2844 2848 2852 2856 2860 2864 2868 2872 2876 2880 2884 2888 2892 2896 2900 2904 2908 2912 2916 2920 2924 2928 2932 2936 2940 2944 2948 2952 2956 2960 2964 2968 2972 2976 2980 2984 2988 2992 2996 3000 3004 3008 3012 3016 3020 3024 3028 3032 3036 3040 3044 </DataArray>
<DataArray  type="UInt8"  Name="types"  format="ascii">10 10 10 10 10 10 10 10 10 10 10 10 10 10 10 10 10 10 10 10 10 10 10 10 10 10 10 10 10 10 10 10 10 10 10 10 10 10 10 10 10 10 10 10 10 10 10 10 10 10 10 10 10 10 10 10 10 10 10 10 10 10 10 10 10 10 10 10 10 10 10 10 10 10 10 10 10 10 10 10 10 10 10 10 10 10 10 10 10 10 10 10 10 10 10 10 10 10 10 10 10 10 10 10 10 10 10 10 10 10 10 10 10 10 10 10 10 10 10 10 10 10 10 10 10 10 10 10 10 10 10 10 10 10 10 10 10 10 10 10 10 10 10 10 10 10 10 10 10 10 10 10 10 10 10 10 10 10 10 10 10 10 10 10 10 10 10 10 10 10 10 10 10 10 10 10 10 10 10 10 10 10 10 10 10 10 10 10 10 10 10 10 10 10 10 10 10 10 10 10 10 10 10 10 10 10 10 10 10 10 10 10 10 10 10 10 10 10 10 10 10 10 10 10 10 10 10 10 10 10 10 10 10 10 10 10 10 10 10 10 10 10 10 10 10 10 10 10 10 10 10 10 10 10 10 10 10 10 10 10 10 10 10 10 10 10 10 10 10 10 10 10 10 10 10 10 10 10 10 10 10 10 10 10 10 10 10 10 10 10 10 10 10 10 10 10 10 10 10 10 10 10 10 10 10 10 10 10 10 10 10 10 10 10 10 10 10 10 10 10 10 10 10 10 10 10 10 10 10 10 10 10 10 10 10 10 10 10 10 10 10 10 10 10 10 10 10 10 10 10 10 10 10 10 10 10 10 10 10 10 10 10 10 10 10 10 10 10 10 10 10 10 10 10 10 10 10 10 10 10 10 10 10 10 10 10 10 10 10 10 10 10 10 10 10 10 10 10 10 10 10 10 10 10 10 10 10 10 10 10 10 10 10 10 10 10 10 10 10 10 10 10 10 10 10 10 10 10 10 10 10 10 10 10 10 10 10 10 10 10 10 10 10 10 10 10 10 10 10 10 10 10 10 10 10 10 10 10 10 10 10 10 10 10 10 10 10 10 10 10 10 10 10 10 10 10 10 10 10 10 10 10 10 10 10 10 10 10 10 10 10 10 10 10 10 10 10 10 10 10 10 10 10 10 10 10 10 10 10 10 10 10 10 10 10 10 10 10 10 10 10 10 10 10 10 10 10 10 10 10 10 10 10 10 10 10 10 10 10 10 10 10 10 10 10 10 10 10 10 10 10 10 10 10 10 10 10 10 10 10 10 10 10 10 10 10 10 10 10 10 10 10 10 10 10 10 10 10 10 10 10 10 10 10 10 10 10 10 10 10 10 10 10 10 10 10 10 10 10 10 10 10 10 10 10 10 10 10 10 10 10 10 10 10 10 10 10 10 10 10 10 10 10 10 10 10 10 10 10 10 10 10 10 10 10 10 10 10 10 10 10 10 10 10 10 10 10 10 10 10 10 10 10 10 10 10 10 10 10 10 10 10 10 10 10 10 10 10 10 10 10 10 10 10 10 10 10 10 10 10 10 10 10 10 10 10 10 10 10 10 10 10 10 10 10 10 10 10 10 10 10 10 10 10 10 10 10 10 10 10 10 10 10 10 10 10 10 10 10 10 10 10 10 10 10 10 10 10 10 10 10 10 10 10 10 10 10 10 10 10 10 10 10 10 10 10 10 10 10 10 10 10 10 10 10 10 10 10 10 10 10 </DataArray>
</Cells>
<PointData  Scalars="f_753"> 
<DataArray  type="Float64"  Name="f_753"  format="ascii">0.0000000000000000e+00  0.0000000000000000e+00  9.9999999999999989e-01  9.9999999999999978e-01  0.0000000000000000e+00  1.0000000000000000e+00  1.0000000000000002e+00  9.9999999999999989e-01  9.9999999999999989e-01  9.1196266636701817e-01  9.0411275071026076e-01  8.8546441560957301e-01  1.0000000000000000e+00  1.0000000000000000e+00  1.0000000000000002e+00  6.5546546278695972e-01  8.3400116923283918e-01  8.4766174453225773e-01  8.3204483976520327e-01  8.5086864685257635e-01  0.0000000000000000e+00  1.0000000000000000e+00  1.0000000000000000e+00  1.0000000000000000e+00  0.0000000000000000e+00  0.0000000000000000e+00  1.0000000000000000e+00  9.9999999999999989e-01  0.0000000000000000e+00  1.0000000000000000e+00  1.0000000000000000e+00  1.0000000000000000e+00  0.0000000000000000e+00  6.8666291263204915e-01  1.0000000000000000e+00  7.5970087926162011e-01  0.0000000000000000e+00  1.0000000000000000e+00  1.0000000000000000e+00  1.0000000000000000e+00  1.0000000000000000e+00  1.0000000000000000e+00  1.0000000000000000e+00  6.5307222067160453e-01  7.4651400671794965e-01  7.9659005503353952e-01  8.1812225518093118e-01  8.2298398006197404e-01  0.0000000000000000e+00  0.0000000000000000e+00  1.0000000000000000e+00  1.0000000000000000e+00  1.0000000000000000e+00  1.0000000000000000e+00  9.9999999999999989e-01  6.8861140301307244e-01  0.0000000000000000e+00  1.0000000000000000e+00  0.0000000000000000e+00  1.0000000000000000e+00  9.9999999999999989e-01  0.0000000000000000e+00  0.0000000000000000e+00  0.0000000000000000e+00  1.0000000000000000e+00  0.0000000000000000e+00  6.9167564174676210e-01  8.1482061366939895e-01  7.9503435513451648e-01  6.2102167620946869e-01  1.0000000000000000e+00  1.0000000000000002e+00  8.7048264537344278e-01  0.0000000000000000e+00  9.9999999999999989e-01  1.0000000000000000e+00  1.0000000000000000e+00  6.2729882667823178e-01  8.8020352816821101e-01  8.5600412761907807e-01  0.0000000000000000e+00  8.5961011676063293e-01  8.7293922585267536e-01  8.7969034482400366e-01  8.6408425563822677e-01  8.8314546220292256e-01  1.0000000000000000e+00  7.8452896652314008e-01  1.0000000000000000e+00  1.0000000000000000e+00  8.5999516480333382e-01  8.2437163187192208e-01  7.0690313681735129e-01  1.0000000000000000e+00  8.7775265333446739e-01  0.0000000000000000e+00  1.0000000000000000e+00  1.0000000000000000e+00  1.0000000000000000e+00  0.0000000000000000e+00  1.0000000000000000e+00  1.0000000000000000e+00  0.0000000000000000e+00  1.0000000000000000e+00  1.0000000000000000e+00  0.0000000000000000e+00  1.0000000000000000e+00  8.6597869656052662e-01  1.0000000000000000e+00  1.0000000000000000e+00  8.5890764702952005e-01  8.4221629454926028e-01  9.0597186258187545e-01  8.9539707579064765e-01  1.0000000000000000e+00  8.6681145708076202e-01  8.6654368082058053e-01  8.5758002485809981e-01  8.6190842739821583e-01  8.5384355460954253e-01  8.4646622693340012e-01  8.1090439414534443e-01  8.4522245600166823e-01  8.3085330269683744e-01  1.0000000000000000e+00  1.0000000000000000e+00  8.4318972295090311e-01  0.0000000000000000e+00  1.0000000000000000e+00  8.8187189072209482e-01  8.9863307142945659e-01  8.6145271731785023e-01  8.2478374163604806e-01  8.3195568906854678e-01  8.0966007003016238e-01  8.3073398871513404e-01  9.9999999999999989e-01  1.0000000000000000e+00  9.9999999999999989e-01  9.9999999999999989e-01  1.0000000000000000e+00  1.0000000000000000e+00  9.9999999999999989e-01  1.0000000000000000e+00  7.9685383804951981e-01  1.0000000000000000e+00  9.9999999999999989e-01  1.0000000000000000e+00  8.5957053842796549e-01  9.9999999999999989e-01  9.9999999999999989e-01  9.9999999999999989e-01  9.9999999999999989e-01  9.9999999999999989e-01  1.0000000000000000e+00  6.7337594314918303e-01  9.9999999999999989e-01  8.9666010315889966e-01  1.0000000000000000e+00  9.9999999999999989e-01  1.0000000000000000e+00  1.0000000000000002e+00  1.0000000000000000e+00  7.1246146143191413e-01  9.9999999999999989e-01  1.0000000000000000e+00  8.6655607875547602e-01  8.2885177449883862e-01  8.3347244273755672e-01  1.0000000000000002e+00  0.0000000000000000e+00  1.0000000000000000e+00  1.0000000000000000e+00  8.9081654704094915e-01  8.5736896616240699e-01  8.8487712584762523e-01  1.0000000000000000e+00  9.9999999999999978e-01  9.9999999999999989e-01  0.0000000000000000e+00  5.6194165496267923e-01  1.0000000000000000e+00  8.4203637580541302e-01  8.5812720883128646e-01  8.6111091528249228e-01  1.0000000000000000e+00  8.2272449303407102e-01  8.1083567638123955e-01  1.0000000000000000e+00  1.0000000000000000e+00  1.0000000000000000e+00  1.0000000000000000e+00  9.9999999999999989e-01  1.0000000000000000e+00  1.0000000000000000e+00  0.0000000000000000e+00  0.0000000000000000e+00  0.0000000000000000e+00  7.9639436468746339e-01  1.0000000000000000e+00  5.8280600098098923e-01  9.9999999999999989e-01  1.0000000000000000e+00  1.0000000000000000e+00  9.1019493656912120e-01  1.0000000000000000e+00  1.0000000000000000e+00  1.0000000000000000e+00  1.0000000000000002e+00  9.9999999999999989e-01  1.0000000000000000e+00  1.0000000000000000e+00  9.9999999999999989e-01  1.0000000000000000e+00  0.0000000000000000e+00  1.0000000000000000e+00  1.0000000000000000e+00  1.0000000000000002e+00  9.9999999999999989e-01  0.0000000000000000e+00  0.0000000000000000e+00  1.0000000000000000e+00  1.0000000000000000e+00  6.8399911971981220e-01  1.0000000000000000e+00  9.9999999999999989e-01  1.0000000000000002e+00  1.0000000000000000e+00  0.0000000000000000e+00  1.0000000000000000e+00  1.0000000000000000e+00  9.9999999999999989e-01  1.0000000000000000e+00  1.0000000000000000e+00  8.9550914960629513e-01  9.9999999999999989e-01  1.0000000000000000e+00  9.9999999999999989e-01  0.0000000000000000e+00  1.0000000000000000e+00  9.9999999999999989e-01  0.0000000000000000e+00  1.0000000000000000e+00  9.9999999999999989e-01  1.0000000000000000e+00  0.0000000000000000e+00  8.6194318634534650e-01  0.0000000000000000e+00  1.0000000000000002e+00  1.0000000000000000e+00  1.0000000000000000e+00  1.0000000000000000e+00  9.9999999999999989e-01  9.9999999999999989e-01  1.0000000000000000e+00  9.9999999999999989e-01  1.0000000000000000e+00  1.0000000000000000e+00  8.8938322690353655e-01  1.0000000000000000e+00  1.0000000000000002e+00  9.9999999999999989e-01  9.9999999999999989e-01  1.0000000000000000e+00  1.0000000000000000e+00  1.0000000000000000e+00  9.9999999999999978e-01  1.0000000000000000e+00  1.0000000000000000e+00  7.3037287357242120e-01  8.3726111624303601e-01  1.0000000000000000e+00  1.0000000000000002e+00  9.9999999999999989e-01  1.0000000000000000e+00  1.0000000000000000e+00  9.0576959340589103e-01  1.0000000000000002e+00  8.3143230041909011e-01  </DataArray> 
</PointData> 
</Piece>
</UnstructuredGrid>
</VTKFile>