<?xml version="1.0"?>
<VTKFile type="UnstructuredGrid"  version="0.1"  >
<UnstructuredGrid>
<Piece  NumberOfPoints="296" NumberOfCells="760">
<Points>
<DataArray  type="Float64"  NumberOfComponents="3"  format="ascii">3.559517794139553 -19.683505881719 -10.7192547582441  3.842141751923318 -19.10960324496883 -11.10903472984173  4.231803215837615 -19.29342249138179 -11.28478894292669  4.247737113660337 -18.97940075956081 -10.77432583655737  4.629096392907261 -19.3258242370292 -8.769823848915655  4.140781489664251 -19.18137619980392 -8.824275349618624  4.683855487961464 -19.40833508034428 -9.353976849389111  4.585141562080507 -18.71766109022712 -9.111540528951725  3.044831408640851 -18.80223894261774 -9.361319447985114  3.229247611091848 -19.36865011573234 -9.882875354538433  2.767592013671212 -18.88276849667437 -9.784657684888577  3.294641224017819 -18.65517678612143 -9.810134590381816  3.405475626679412 -19.27734727826234 -9.450397628583255  5.26528035260379 -19.92242972274406 -9.343343749630831  4.926579903222928 -19.76232014229024 -9.792804055613434  5.411352773155 -19.09620903868586 -9.566074938319961  5.66534740082303 -22.14794879055195 -10.25863773685193  5.825232686887857 -22.80020197988148 -9.828773781598528  5.362227312969548 -23.01803778702137 -10.36782338706983  6.293763218423569 -22.71382833476459 -10.75194744370826  6.058756340952576 -20.99079433241097 -8.09077064294792  5.696625763551272 -20.37365015637843 -8.079676133317616  6.731289265882284 -20.35747107000671 -8.19431543850499  6.449483876226405 -20.12116921837995 -7.56282152280296  5.134891759016586 -20.64717407391311 -10.50319590720618  5.477262610449089 -20.74076528059449 -10.06435561947587  5.605644038351858 -21.41619828458732 -10.24004072911177  6.100425725612697 -20.79783625364033 -10.85744123772681  5.40524480584319 -20.1836862477513 -11.26238506227093  5.718556284016755 -20.6227450426511 -11.21823920821881  5.789281260683999 -20.20105908937481 -10.8394465456467  4.099675579428732 -20.65036876605163 -6.714239880241609  3.749019548997126 -21.20586519263213 -6.580016111602094  4.131384877086127 -20.92880058011108 -5.755583881190387  3.545959218685006 -20.77198484641858 -5.95938117831332  5.020497235268378 -21.35721530222634 -10.9265216526533  4.657127154414196 -20.85359296588439 -11.07029099003618  6.173339333272945 -23.01332983017412 -8.918981684298652  6.269142777098673 -23.19913254349916 -8.467804696507057  6.807611732140747 -23.46380809779033 -9.353258848708117  7.087024302776164 -23.01330265197057 -9.041589804880546  6.087627634023458 -21.14414151212141 -8.805691463106221  5.830186300988172 -20.53308764965364 -8.588006176602118  6.963643787122087 -20.78113719801742 -8.502200875711926  3.897985133112226 -19.66215550521762 -7.601142954032814  4.376955233976171 -19.90525596942676 -7.253471891120808  3.857834216211898 -20.19815718947634 -7.046581890965748  3.915516228106044 -19.39452462202646 -6.963406905157838  4.730635241737445 -21.94986745688197 -11.22060633241571  5.116201132461748 -22.48411312099915 -10.83627008242389  5.520164139975217 -22.51731824502247 -11.65235949933077  5.094701662776667 -22.80804117214627 -11.8935125993564  6.304218367528184 -21.88942825030935 -7.716340664100477  7.190956735445729 -21.50768282268363 -7.719865485572934  7.210601749878234 -22.03554783194551 -7.127600623350985  7.327173041180884 -22.2732732898343 -7.6782488299429  2.188783938171356 -21.0757158133032 -8.284502356028668  2.568153301267354 -20.4396751513284 -8.258958366138602  2.274006391966149 -20.47660421459816 -8.687018179295228  2.032813132562174 -20.08513311217773 -8.085682903300075  6.100864377847199 -21.83021216011845 -11.1313552095219  5.742229719923594 -21.31397164964857 -11.45705878916079  6.31601336426456 -21.43292748533031 -10.79195009983355  4.507847577384136 -18.84795402578054 -10.2402005738519  4.918445720888325 -19.19372639361553 -10.64582117507193  4.450664420801462 -19.50652624276785 -10.01251458398755  5.194348778631072 -19.1166456615208 -10.09951355595916  4.752087506398481 -20.34490525302447 -10.69817730973468  3.711421318130775 -18.65260706618193 -9.235967127071502  3.995936468812498 -19.18914109878836 -9.487190196992232  4.495338680099889 -20.31419401163891 -6.908735841012009  4.238112456501999 -19.84748036295478 -6.385146161039303  3.92493947858285 -20.33765672638501 -6.085063626041539  5.244109042287061 -21.19265546565833 -11.87626695652706  5.254843758652873 -21.86668435264997 -11.95198483044058  3.819833932033294 -21.09272139587464 -11.58838538643562  3.769496043961174 -21.62531030946819 -11.70380680104671  4.455161517850804 -21.39651237012341 -11.36910468174149  4.534764898400608 -21.31703254135384 -12.3475902793694  1.810856174239707 -19.79906766435483 -8.709154573472022  2.433872991154848 -19.54737289173613 -8.347988391384854  3.577332329872465 -22.32925055741643 -11.72300660900921  3.767140116229047 -21.90587124378248 -12.67830647052991  3.946933090385883 -22.54084297994758 -12.56004279864412  3.462897182728927 -22.35043687281116 -12.70389458970091  5.64641070045068 -20.32798278975215 -9.018004119111222  5.408098835888812 -19.9557954603919 -8.614287630629626  5.866591915865561 -19.39037508639107 -9.287215089069075  3.709953597710957 -19.33945103401127 -10.11807698403493  4.242121715866798 -19.82506086176129 -10.64371595269166  5.970523377526166 -21.35069326985121 -9.470154172009156  5.844784170140049 -20.76974321256934 -9.215896476440117  6.8162978690178 -20.90780328370948 -9.556346602732491  4.93204033404892 -20.03732295178388 -7.33111315793058  4.558141491082996 -19.24535607046871 -7.108797066287138  4.973488043168055 -19.45785780870077 -6.91980145236268  4.528621650642744 -19.50956786036693 -6.733134073857496  3.836180461455329 -18.6534721762201 -9.937083256734963  3.759168655499124 -19.3724621078822 -11.48496476991994  3.284213762222867 -19.37058351692352 -11.45791644243118  3.447797828451883 -19.12596094112312 -11.17284046932018  5.901328998883026 -23.26430677827521 -9.309350183850285  5.64203753571098 -23.69877259304958 -9.214081301933085  5.394032924673576 -23.63694991445969 -9.747435439746818  6.336895757307356 -23.74960136085662 -9.927063783489725  4.894380499210917 -18.8512964216065 -9.712263558722487  3.351574942674543 -19.80933470524011 -7.826003885888105  2.907622321807247 -20.28446552327301 -7.808506996633227  2.998824759097025 -19.88438776706454 -8.305634458008697  2.560311253660522 -19.76334112230566 -7.733331351984047  4.823966068119381 -19.99548075675792 -10.29786696466972  5.239591883863514 -20.23125176326192 -9.958285046467891  5.462697791896562 -19.85545164455696 -10.91608066304919  3.776437749170908 -20.132919211436 -11.11539392101763  4.079635468901285 -20.71674446013901 -11.35403099923855  4.115456115668307 -20.03716372199759 -12.02579171368559  3.781567072152928 -20.10267601189283 -12.13832032426391  5.654432249723263 -19.37840960314571 -9.861492390671899  4.559767624294183 -22.88994274530392 -12.17705124056474  4.050987371570127 -22.67499766069879 -11.48659868371326  3.929441750597927 -23.07540414985123 -12.38429055034898  4.686677719922755 -20.98197446390094 -12.19065753151834  4.3879507973464 -20.46955154279758 -12.1565566224481  4.317363984811194 -19.32682691226702 -8.198271601804645  4.237939324894789 -18.74852039830462 -8.428261736036843  4.952943132649831 -19.56100680436422 -8.334416522850461  5.237145387190962 -19.9051594821205 -7.929151430419444  5.742495558060298 -19.25515972020388 -8.566917463814663  3.457847516736027 -18.71191892983255 -10.31318755491602  2.965492533633413 -18.78474996625837 -10.18955595511191  5.840391528383395 -24.30998700279979 -9.716962106279558  5.835273777645273 -23.89620033570048 -10.42228580754502  4.187122259899388 -22.09056367803502 -11.54113869573231  4.913105339981206 -22.34940238166167 -12.1436628863126  4.551891120553045 -22.65837913081411 -11.22483887950186  6.264312323763253 -21.59378031141856 -8.353412173031883  7.205354939436814 -21.92648504258971 -8.812617589853527  7.145020881412643 -21.32479034006913 -8.505787845183011  7.279407506466864 -21.88723424845951 -8.187491135235971  6.326792295136831 -19.87509570771517 -9.204193547728222  6.164290635776176 -19.62528664433891 -8.778256644204724  4.243450141443014 -20.31145680077556 -11.04586617484704  4.834791875982742 -23.14833774877788 -10.80361320646773  4.53593523856969 -23.72083380520936 -10.55415980588001  4.634109999633645 -23.78232191231422 -11.54427740350257  5.134179468189544 -23.63096947047321 -11.34437576117051  3.3537415328244 -20.15384336711555 -7.359275755870667  3.003296259266305 -20.65615852123325 -7.283460628743039  2.798035341756355 -19.94056334408786 -7.068791793192663  3.0803704990541 -20.20559801204453 -6.518130451953211  5.07831115899854 -19.62145094821762 -11.07557809366169  4.725386450177059 -19.6452480517911 -11.40096786890311  5.022748809740354 -18.88792411425088 -8.537568726512124  5.310549033496435 -18.99135841945494 -9.109321089018618  6.054899429136808 -21.81284338714821 -7.057679387735183  7.002507530046127 -21.33974033086182 -7.10525266049886  6.738423185564052 -20.42799294086818 -8.977813114406919  6.198802736074412 -21.82640410193564 -9.040725887571147  6.870471294142167 -21.50465612695268 -9.782184608323659  7.060731749943515 -22.04817456204839 -9.378334566162785  7.056429321165793 -21.42611856078887 -9.183297275292968  4.537366750922259 -19.99786425277939 -11.81270694787513  4.877930353381389 -20.55642036804317 -11.92071710819326  4.719989018097885 -21.76631128416991 -12.30372432046661  4.901881343595011 -21.41673413877947 -12.15929492178404  4.204976379874422 -19.6058567037206 -11.64288650875463  5.965999133362446 -21.96043683964146 -9.726628691290422  6.631413442110075 -21.61002554812498 -10.31689166906194  3.60283955966121 -19.41979308824516 -8.285188967020954  3.565583263680645 -18.97821251213029 -7.946311178034974  3.119140013475373 -19.57218722579064 -8.781274163140266  2.986076389781506 -19.09229805647505 -8.486776298258278  2.438635294609389 -19.31643535333257 -8.897779045229871  6.291599499779778 -19.77891026002784 -8.250957684309084  6.8142687626295 -22.11004454557101 -9.986779675323701  3.517002904329853 -18.79861183517966 -8.640480593009679  5.014703729759263 -19.58678394991998 -8.888766267027737  3.48804592157712 -20.63206153541586 -6.90998811777027  2.913913147171468 -20.75051720718857 -6.282280342239991  3.438287267204429 -20.33503779262589 -6.234879165250758  5.559517556887158 -19.629369469065 -10.505374725105  6.213457649466943 -21.46607391257206 -7.922607449412093  6.017731983483602 -21.32213965783276 -7.363836793435715  6.820715887518011 -20.61865447046706 -7.657825193995537  6.98286284565592 -21.02186766564129 -7.484305601176801  4.647671170450104 -19.61736093090203 -7.727905857982426  4.294609728313779 -19.00948703103745 -7.574413913521347  4.816591384725156 -18.95038824898688 -7.948579537861033  2.940339635749468 -19.5326239581295 -9.501040088637605  3.904886386670946 -18.78033229248121 -10.40185105245694  1.59853046638395 -20.33587026787489 -8.375656513289179  6.04301284178969 -19.77469951036744 -9.856723595504505  3.94736799591754 -20.44623926168438 -12.29253826382874  6.46120243914981 -19.9756265591033 -8.667138814777047  5.720259576699055 -20.72227917082841 -7.447018270209425  6.069525714692781 -20.39662361019868 -6.53625586055446  6.306374208972992 -20.28089452022797 -6.968155006028717  6.424989821359161 -20.76167959155122 -6.60602497979151  6.512660939387621 -20.97142393999146 -10.30300451293517  6.714547884966506 -20.74583921369044 -7.132719667154821  2.542536546932524 -20.44991763914319 -6.841332086631181  5.241408706817462 -22.01342269657443 -10.77664625575867  5.906320279347141 -20.0007275711085 -6.795550667691089  3.649705597226282 -19.93787232779474 -6.445296715103806  6.491240996736103 -20.33766519657256 -9.729015960386722  4.362700343180875 -23.39493340729885 -12.01624870387657  4.170157447574011 -23.33216512059497 -11.13434883724002  4.892705001436166 -23.28988845761112 -11.7769464987317  6.614256268766514 -22.73871814524548 -10.25194406076337  6.349039884235754 -22.48103379295026 -8.572513155329235  7.225374418760568 -22.88579900669142 -8.635784450976256  7.266307157058941 -23.05823891273306 -8.240237620215103  6.438785675165577 -22.10461555773936 -10.64945882546524  4.352019522557486 -21.07621867084213 -6.521834502236134  6.344282804651847 -22.52080672761203 -7.324879534226694  6.39545204570455 -22.26477319273882 -7.978536893898087  6.418603209259002 -22.89549140719019 -7.985014729143863  6.726600118198157 -21.15437210929771 -6.709538475085586  6.914982650913887 -21.6567420237966 -6.667461846132871  5.418159413707115 -20.95862334568292 -6.869194835358257  6.009207872127691 -20.87813077825772 -6.123190528546485  2.599042984973514 -19.98048950714775 -8.911504563585975  3.605142858334212 -18.8969981123907 -10.79070519489321  2.998430186900045 -19.52295321828025 -10.25430135466516  3.12874860768254 -18.84251360237182 -10.60910884080521  5.024887802833096 -19.17753015676325 -7.440421313910597  4.524731862607646 -20.33518786730228 -6.000152291809991  4.904189402063833 -19.86267876922813 -6.387454150320099  4.213298174314274 -21.54585631925834 -12.52024798793454  3.68996396412139 -21.26464210744462 -12.60581018043655  3.727001287594876 -19.1208648209747 -7.51390994788365  3.620814627567474 -23.07755544332569 -11.48752266070304  5.585079327004035 -20.47649406101737 -9.547361326742674  5.754898844915391 -21.01927877228027 -9.742231943339679  6.141158639845038 -20.23359805585662 -10.34538025023488  5.877930554219057 -19.48802381899611 -7.756604366789004  5.430462696002682 -19.82920884873048 -6.633986822809769  5.280450936954719 -20.67195711360512 -11.66123351413821  1.623667338363982 -20.85940258551826 -7.885446103340108  6.96814306964649 -20.96335411681657 -9.009414511257297  7.081313070190094 -23.44983305658646 -8.604568575737582  5.570347730295986 -21.53593220904202 -6.672930551256425  6.514202454294344 -21.39148604044466 -6.263868585718  5.355117664846571 -19.12490258323485 -7.969892849330976  5.399715579157727 -20.25653761126008 -7.557615278875118  5.513299309357548 -19.52688499297004 -7.135785619490341  5.461559058937402 -19.27732834410565 -7.615054022610726  4.617787033874298 -19.31021740833409 -11.07595498967802  4.983292062744735 -20.08150081207211 -11.56948822290219  4.782485714222884 -20.81116128020219 -6.662706134816354  4.873507053124344 -20.85709638387212 -5.738186946016858  5.062482977596505 -20.41498333499739 -5.973242282901003  4.233757054161053 -18.65836301417679 -9.620993805190389  3.591800822966486 -19.25082433966363 -8.928383154728612  2.93426657256989 -19.33524491852525 -7.948706036194062  4.375888665559299 -22.15371340221497 -12.46600406253618  4.166564460469385 -20.95855130063156 -12.42175406270613  5.562865958159534 -20.28494014976801 -6.265550894216049  5.436436013514525 -20.77754439746889 -5.869759329328487  3.27718442762528 -19.71036671006399 -6.862216620576132  3.196407201310601 -19.4224832271885 -7.378243960390895  2.570480311220066 -20.95751558249405 -7.715417166420106  2.235452824116999 -20.31778001507855 -7.486144304515993  5.776997560831215 -21.97306505654827 -11.49070476781368  5.902073298283495 -22.93037952403093 -11.13263699229562  5.411511738499349 -23.13275400933188 -11.49146286687213  4.835298650318419 -24.1676912386492 -10.9435243440848  5.354009831151715 -23.93469357627623 -10.85011689946431  5.662575034770041 -23.48958315911221 -11.01303613190542  6.421113365580242 -24.06296728050323 -9.278515539193627  6.017756030396245 -22.33121547869866 -11.19105516513625  4.924019138686509 -21.44649040348035 -6.439479527771861  6.936048625071308 -22.73925735329495 -9.587104566606486  3.787188273475176 -19.74570735260889 -11.86943485396138  3.745275247460576 -20.77141120542469 -12.45277919832658  3.370406536656846 -20.58259355507865 -11.45529938607493  7.186541948551824 -22.48991988236832 -8.967834442373139  7.30918794858479 -22.4178791400604 -8.302609020550822  6.138482137163703 -22.46734771900265 -9.292897020855865  6.193583650516654 -23.3054555012183 -10.54855575472598  6.636184222627408 -23.22975062640022 -9.937622548709269  6.057607390062903 -19.82232648467609 -7.276183990369427  7.010971402295723 -20.92521156691705 -7.994547727058663  3.479359340688835 -20.41536889434918 -12.30649196818608  5.049438496197773 -23.53980798175583 -10.286527661294  6.753840528383849 -23.87946593510236 -8.843795463700941  5.160132315299746 -20.4380296838608 -7.080572788747329  5.28413670947549 -24.30820441266702 -10.35701516980898  3.735883921428678 -23.52240835022917 -12.16438956046472  4.085678982681446 -23.89378999754296 -11.73065716482504  3.375427986220167 -23.89271296986551 -11.94216889879621  4.280508059538094 -24.15168736134079 -11.33630880434713  3.391029264877389 -19.65338205071901 -11.74168229522146  3.490732667456588 -22.75815629298236 -12.61910518123351  4.773822808948371 -23.93936333771419 -10.03327230144724  5.897507558612846 -23.68378073282255 -8.773976883607233  </DataArray>
</Points>
<Cells>
<DataArray  type="UInt32"  Name="connectivity"  format="ascii">0 1 2 3  4 5 6 7  8 9 10 11  8 12 9 11  13 14 6 15  16 17 18 19  20 21 22 23  24 25 26 27  28 24 29 30  31 32 33 34  24 27 29 30  24 35 36 29  37 38 39 40  41 20 42 43  44 45 46 47  48 49 50 51  52 53 54 55  56 57 58 59  26 60 61 62  24 25 27 30  63 64 65 66  28 67 24 36  28 24 36 29  68 5 69 7  31 70 46 71  31 33 72 34  73 74 35 61  75 76 77 78  79 58 59 80  81 82 83 84  85 86 13 87  35 27 29 61  88 0 89 3  45 46 71 47  41 90 91 92  93 94 95 96  68 69 11 97  0 98 99 100  57 58 59 80  101 102 103 104  63 65 105 66  106 107 108 109  24 110 111 112  113 114 115 116  13 14 15 117  0 89 2 3  118 119 83 120  75 77 114 121  12 88 9 11  75 114 122 121  4 5 123 124  45 94 96 47  65 69 88 97  86 125 126 127  9 11 128 129  103 104 130 131  132 48 133 134  135 136 137 138  85 139 140 87  113 141 89 2  142 143 144 145  146 147 148 149  150 67 89 151  4 152 7 153  52 154 54 155  42 91 139 156  157 158 159 160  107 109 59 80  114 141 115 161  114 161 162 122  114 141 161 162  48 74 163 164  113 141 165 2  16 166 26 167  123 168 124 169  67 24 110 112  170 108 80 171  170 172 80 171  42 86 21 173  6 7 105 153  157 135 41 160  68 69 12 11  157 158 174 159  68 5 124 175  13 176 6 15  176 6 15 153  177 178 149 179  14 180 66 117  166 157 158 174  181 182 183 184  185 123 186 187  20 22 183 23  8 12 170 188  63 88 97 189  190 79 58 59  86 13 176 87  111 13 191 117  176 152 127 153  146 147 107 148  114 192 115 116  42 22 156 193  194 195 196 197  26 90 167 198  182 194 183 199  147 178 200 149  48 201 49 50  194 195 196 202  31 46 71 203  73 77 121 164  73 77 162 121  91 204 92 156  205 206 144 207  16 166 17 208  209 38 210 211  16 174 212 208  26 167 198 62  65 14 6 105  213 31 32 33  52 214 215 55  209 38 216 211  154 155 217 218  219 195 197 220  132 133 119 134  79 221 172 80  0 1 3 222  88 223 222 224  88 222 224 128  93 94 95 225  182 155 199 184  70 71 226 227  45 96 71 47  20 182 194 183  91 204 139 156  76 82 228 229  44 186 169 230  81 231 119 120  206 142 144 207  232 233 234 204  232 234 191 204  4 123 124 152  41 90 160 92  123 44 186 169  25 234 27 30  223 9 10 129  14 6 105 15  21 23 235 173  93 95 227 236  232 91 204 139  181 182 155 184  237 35 29 61  154 182 155 217  194 183 23 199  6 105 15 153  238 56 58 59  157 41 90 160  45 93 94 96  16 167 174 212  133 118 119 134  64 65 89 3  85 42 86 140  135 41 160 239  233 91 204 92  52 215 55 138  157 135 136 160  42 139 156 193  42 140 193 173  38 39 240 40  241 242 197 220  16 166 167 174  16 166 174 208  125 185 187 243  244 245 246 235  65 14 105 66  110 111 180 112  113 165 98 2  111 180 191 117  170 188 221 172  89 151 2 247  166 158 167 174  67 141 36 248  150 89 151 247  249 250 251 226  88 9 11 128  252 69 6 7  146 147 177 149  223 9 224 129  110 14 180 66  253 168 171 175  88 3 222 189  13 191 87 117  168 171 254 169  141 89 151 2  182 183 199 184  0 100 1 222  81 255 82 83  52 181 182 155  249 213 250 226  64 89 3 247  76 228 256 78  75 76 229 256  88 9 224 128  135 52 181 138  219 257 195 220  110 111 14 180  28 67 24 112  67 141 89 151  221 108 57 80  111 232 25 234  68 5 253 69  150 28 67 248  249 250 258 251  133 118 134 51  176 125 4 152  4 6 7 153  176 4 6 153  170 221 108 80  170 221 172 80  125 185 126 243  46 47 203 259  125 152 127 243  106 260 254 169  48 73 74 35  201 16 26 60  261 147 107 262  150 67 151 248  48 74 35 263  49 264 50 265  118 205 134 207  143 266 145 267  177 178 34 179  89 2 3 247  86 127 235 173  223 188 9 10  142 264 268 265  18 142 264 268  49 142 264 265  18 49 142 264  106 108 109 254  107 108 109 80  107 108 57 80  146 107 148 109  146 106 107 109  93 95 96 227  101 39 104 269  52 181 53 155  181 53 155 184  85 42 91 139  201 270 60 263  70 93 96 227  271 249 219 258  86 140 87 127  85 86 140 87  45 70 93 96  176 4 152 153  88 0 223 222  44 260 169 230  146 148 260 259  44 106 260 169  185 44 186 94  28 237 36 29  86 126 127 235  28 24 30 112  111 232 234 191  107 57 59 80  107 57 59 262  107 148 109 262  241 219 197 220  52 53 55 138  31 32 177 34  182 194 197 199  52 214 54 55  45 70 96 71  241 182 217 197  37 39 40 272  41 42 91 156  68 252 69 7  157 135 209 136  37 101 39 269  113 115 165 273  75 192 274 256  75 114 275 192  64 110 65 89  249 213 31 226  201 16 270 60  31 72 34 179  233 198 234 204  194 196 197 199  14 105 66 15  150 28 67 112  68 252 69 97  26 27 61 62  237 35 36 29  141 151 165 2  125 126 127 243  209 276 159 136  20 42 22 43  86 176 87 127  4 124 152 7  147 200 148 149  0 98 100 1  215 216 55 277  157 209 278 159  233 90 198 92  123 124 187 152  214 215 216 55  52 181 53 138  44 168 106 169  52 154 214 54  114 115 161 122  205 231 119 120  18 131 268 279  209 216 211 277  38 240 210 211  114 141 36 162  38 240 40 210  209 210 211 277  135 209 215 136  24 26 35 27  135 215 136 138  5 253 168 175  9 10 11 129  150 110 180 112  17 104 279 280  194 21 244 281  181 282 53 137  68 5 124 7  41 156 43 239  8 68 12 11  135 136 160 137  5 123 168 124  135 160 239 137  244 245 202 281  194 23 196 281  48 74 133 50  275 192 116 283  16 26 60 62  194 196 202 281  194 244 202 281  142 145 268 265  278 101 17 280  232 25 233 234  233 26 90 198  232 191 204 139  141 248 161 162  232 191 139 87  232 85 139 87  185 126 93 225  111 180 234 191  74 35 263 61  67 141 151 248  185 123 44 186  41 91 92 156  90 158 167 198  232 85 91 139  233 198 234 27  25 233 234 27  261 107 57 262  48 133 134 51  118 119 255 83  18 284 103 131  5 168 124 175  64 110 180 66  64 150 110 180  46 71 47 203  38 39 285 240  0 113 98 99  132 48 133 163  141 36 248 162  24 35 27 29  28 67 36 248  146 148 259 149  31 177 34 179  20 181 182 183  244 93 245 246  20 42 21 22  238 190 58 59  77 114 36 162  209 276 210 277  37 209 278 276  125 185 123 187  125 123 187 152  5 69 6 7  4 5 124 7  125 4 123 152  107 109 59 262  154 242 217 218  44 260 47 259  241 182 219 197  194 21 23 281  213 33 250 226  194 286 195 202  93 95 225 245  103 130 287 131  249 286 251 227  106 109 260 254  31 71 203 72  70 96 71 227  37 276 40 272  101 17 103 104  278 174 159 272  182 155 217 199  182 217 197 199  142 284 268 267  284 287 131 267  20 22 183 282  21 23 235 281  93 225 245 246  126 127 243 235  86 140 127 173  86 21 126 235  177 203 149 179  181 183 282 184  181 282 53 184  17 279 280 208  146 177 259 149  17 19 279 208  48 201 50 263  206 142 143 144  17 104 131 279  16 19 270 212  18 19 264 279  205 231 288 120  17 18 131 279  142 143 145 267  18 142 284 268  289 231 290 288  113 114 141 115  278 276 159 272  209 278 276 159  56 57 59 262  157 209 159 136  135 41 20 43  209 276 136 277  238 56 59 262  64 150 89 247  88 11 97 128  142 145 268 267  142 143 284 267  37 278 276 272  143 144 266 145  75 274 229 256  168 171 169 175  44 260 47 230  21 244 235 281  194 286 244 202  63 65 88 97  64 110 65 66  8 188 9 10  286 93 227 236  93 95 245 236  286 70 93 227  286 257 251 227  249 286 70 227  21 126 244 235  41 160 92 239  41 42 156 43  111 232 13 191  286 257 227 236  286 257 202 236  286 244 202 236  244 245 202 236  252 6 7 105  76 77 163 78  132 76 77 163  16 26 167 62  16 167 212 62  75 256 121 78  88 0 3 222  48 74 133 163  48 73 35 77  48 74 50 263  132 48 77 163  77 163 164 78  111 14 180 117  8 253 12 170  271 249 213 250  249 70 226 227  86 176 125 127  125 187 152 243  176 125 152 127  286 219 257 251  219 257 258 251  31 177 203 179  249 251 226 227  18 49 19 264  49 19 270 264  16 49 19 270  44 46 146 259  44 46 47 259  45 70 46 71  185 45 93 94  44 45 94 47  16 18 49 19  42 22 156 43  16 270 60 212  79 221 58 80  252 65 6 105  252 65 69 6  252 63 65 105  20 22 282 43  201 16 49 270  16 17 19 208  113 165 273 98  205 231 206 119  75 77 121 78  206 143 144 291  76 228 229 256  81 132 76 255  81 76 255 82  261 56 57 262  150 67 110 89  253 170 168 171  68 253 69 12  68 5 253 175  75 192 256 122  113 115 116 273  111 180 30 112  28 237 36 248  237 36 248 162  176 87 127 153  123 186 124 187  8 170 172 171  126 244 93 246  286 257 195 202  215 55 277 138  111 180 234 30  111 25 234 30  24 111 25 30  14 66 15 117  13 87 15 117  284 103 287 131  26 35 27 61  157 90 158 160  52 154 182 155  101 102 104 269  209 215 216 277  168 124 169 175  147 177 178 149  168 106 254 169  8 253 170 171  8 253 171 175  185 44 45 94  46 146 177 259  16 60 212 62  113 273 98 292  113 98 292 99  8 68 253 175  8 68 253 12  126 244 246 235  108 109 80 254  81 83 84 293  241 242 217 197  31 46 177 203  75 275 192 283  135 52 215 138  77 114 162 121  157 159 136 160  219 257 258 220  8 12 188 9  81 119 83 120  75 76 256 78  52 53 54 155  154 54 155 218  182 194 219 197  185 93 94 225  126 93 225 246  237 73 35 61  113 114 275 116  73 35 77 36  166 157 90 158  41 92 156 239  90 158 160 92  90 158 198 92  166 26 90 167  126 243 246 235  20 194 183 23  31 70 71 226  21 22 23 173  48 49 134 51  102 103 104 130  31 71 72 226  65 88 89 3  241 219 258 220  31 203 72 179  88 222 128 189  147 200 148 262  20 181 183 282  241 271 219 258  168 106 108 254  108 80 171 254  168 108 171 254  147 107 148 262  16 19 212 208  232 233 91 204  141 115 161 165  102 104 269 130  113 141 115 165  237 73 35 36  17 18 103 131  75 256 122 121  118 205 119 120  76 255 82 228  114 275 192 116  76 228 163 78  9 224 128 129  63 64 65 3  206 142 134 207  205 206 134 207  81 83 293 120  64 150 110 89  48 77 163 164  142 134 265 207  134 265 207 51  110 65 14 66  0 113 89 2  170 168 108 171  185 186 187 225  44 186 47 230  185 187 225 243  123 186 124 169  194 219 195 197  249 286 219 251  271 249 250 258  86 21 235 173  123 44 168 169  233 90 91 92  18 284 131 268  205 289 231 206  194 23 196 199  233 198 204 92  20 194 21 23  294 284 103 287  48 133 50 51  44 146 260 259  101 39 104 280  278 174 272 208  101 17 104 280  37 101 295 269  101 295 102 269  44 146 106 260  146 148 109 260  284 131 268 267  42 86 140 173  146 106 109 260  177 203 259 149  132 133 255 163  75 192 283 274  141 151 161 165  46 177 203 259  289 206 144 291  142 144 145 207  205 289 206 144  143 144 266 291  142 145 265 207  75 114 192 122  114 162 122 121  77 121 164 78  37 39 272 280  205 206 119 134  249 219 258 251  37 101 39 280  37 278 272 280  37 278 101 280  237 73 36 162  73 77 36 162  26 198 27 62  25 233 26 27  233 26 198 27  111 13 14 117  221 57 58 80  24 111 30 112  205 289 231 288  88 97 128 189  88 223 9 224  150 67 110 112  166 278 17 208  166 278 174 208  0 98 1 2  0 113 98 2  42 21 22 173  249 31 70 226  42 22 193 173  244 245 235 281  166 90 158 167  185 186 94 225  44 186 94 47  17 18 19 279  18 264 268 279  8 170 188 172  141 151 248 161  17 103 104 131  114 192 115 122  48 201 35 263  49 142 134 265  118 205 119 134  49 270 264 50  118 134 207 51  157 278 174 159  166 157 278 174  201 270 50 263  201 49 270 50  132 133 119 255  133 118 119 255  135 41 43 239  135 43 239 137  63 88 3 189  63 65 88 3  209 38 276 210  38 276 40 210  37 38 276 40  37 209 38 276  48 73 77 164  48 73 74 164  135 181 137 138  181 53 137 138  26 35 60 61  201 26 35 60  35 60 263 61  201 35 60 263  85 42 139 140  42 139 140 193  232 85 13 87  232 13 191 87  286 219 257 195  194 286 219 195  154 241 242 217  154 241 182 217  278 272 280 208  278 17 280 208  215 136 277 138  209 215 136 277  13 176 87 15  176 87 15 153  185 126 225 243  126 225 243 246  49 134 265 51  49 50 265 51  69 12 88 11  69 88 11 97  244 93 245 236  286 244 93 236  252 65 69 97  252 63 65 97  76 255 228 163  132 76 255 163  294 284 287 267  294 266 287 267  143 294 284 267  143 294 266 267  81 119 255 83  81 132 119 255  135 181 43 137  181 282 43 137  135 20 181 43  20 181 282 43  37 295 38 269  37 38 39 269  38 39 269 285  213 31 33 226  31 33 72 226  </DataArray>
<DataArray  type="UInt32"  Name="offsets"  format="ascii">4 8 12 16 20 24 28 32 36 40 44 48 52 56 60 64 68 72 76 80 84 88 92 96 100 104 108 112 116 120 124 128 132 136 140 144 148 152 156 160 164 168 172 176 180 184 188 192 196 200 204 208 212 216 220 224 228 232 236 240 244 248 252 256 260 264 268 272 276 280 284 288 292 296 300 304 308 312 316 320 324 328 332 336 340 344 348 352 356 360 364 368 372 376 380 384 388 392 396 400 404 408 412 416 420 424 428 432 436 440 444 448 452 456 460 464 468 472 476 480 484 488 492 496 500 504 508 512 516 520 524 528 532 536 540 544 548 552 556 560 564 568 572 576 580 584 588 592 596 600 604 608 612 616 620 624 628 632 636 640 644 648 652 656 660 664 668 672 676 680 684 688 692 696 700 704 708 712 716 720 724 728 732 736 740 744 748 752 756 760 764 768 772 776 780 784 788 792 796 800 804 808 812 816 820 824 828 832 836 840 844 848 852 856 860 864 868 872 876 880 884 888 892 896 900 904 908 912 916 920 924 928 932 936 940 944 948 952 956 960 964 968 972 976 980 984 988 992 996 1000 1004 1008 1012 1016 1020 1024 1028 1032 1036 1040 1044 1048 1052 1056 1060 1064 1068 1072 1076 1080 1084 1088 1092 1096 1100 1104 1108 1112 1116 1120 1124 1128 1132 1136 1140 1144 1148 1152 1156 1160 1164 1168 1172 1176 1180 1184 1188 1192 1196 1200 1204 1208 1212 1216 1220 1224 1228 1232 1236 1240 1244 1248 1252 1256 1260 1264 1268 1272 1276 1280 1284 1288 1292 1296 1300 1304 1308 1312 1316 1320 1324 1328 1332 1336 1340 1344 1348 1352 1356 1360 1364 1368 1372 1376 1380 1384 1388 1392 1396 1400 1404 1408 1412 1416 1420 1424 1428 1432 1436 1440 1444 1448 1452 1456 1460 1464 1468 1472 1476 1480 1484 1488 1492 1496 1500 1504 1508 1512 1516 1520 1524 1528 1532 1536 1540 1544 1548 1552 1556 1560 1564 1568 1572 1576 1580 1584 1588 1592 1596 1600 1604 1608 1612 1616 1620 1624 1628 1632 1636 1640 1644 1648 1652 1656 1660 1664 1668 1672 1676 1680 1684 1688 1692 1696 1700 1704 1708 1712 1716 1720 1724 1728 1732 1736 1740 1744 1748 1752 1756 1760 1764 1768 1772 1776 1780 1784 1788 1792 1796 1800 1804 1808 1812 1816 1820 1824 1828 1832 1836 1840 1844 1848 1852 1856 1860 1864 1868 1872 1876 1880 1884 1888 1892 1896 1900 1904 1908 1912 1916 1920 1924 1928 1932 1936 1940 1944 1948 1952 1956 1960 1964 1968 1972 1976 1980 1984 1988 1992 1996 2000 2004 2008 2012 2016 2020 2024 2028 2032 2036 2040 2044 2048 2052 2056 2060 2064 2068 2072 2076 2080 2084 2088 2092 2096 2100 2104 2108 2112 2116 2120 2124 2128 2132 2136 2140 2144 2148 2152 2156 2160 2164 2168 2172 2176 2180 2184 2188 2192 2196 2200 2204 2208 2212 2216 2220 2224 2228 2232 2236 2240 2244 2248 2252 2256 2260 2264 2268 2272 2276 2280 2284 2288 2292 2296 2300 2304 2308 2312 2316 2320 2324 2328 2332 2336 2340 2344 2348 2352 2356 2360 2364 2368 2372 2376 2380 2384 2388 2392 2396 2400 2404 2408 2412 2416 2420 2424 2428 2432 2436 2440 2444 2448 2452 2456 2460 2464 2468 2472 2476 2480 2484 2488 2492 2496 2500 2504 2508 2512 2516 2520 2524 2528 2532 2536 2540 2544 2548 2552 2556 2560 2564 2568 2572 2576 2580 2584 2588 2592 2596 2600 2604 2608 2612 2616 2620 2624 2628 2632 2636 2640 2644 2648 2652 2656 2660 2664 2668 2672 2676 2680 2684 2688 2692 2696 2700 2704 2708 2712 2716 2720 2724 2728 2732 2736 2740 2744 2748 2752 2756 2760 2764 2768 2772 2776 2780 2784 2788 2792 2796 2800 2804 2808 2812 2816 2820 2824 2828 2832 2836 2840 2844 2848 2852 2856 2860 2864 2868 2872 2876 2880 2884 2888 2892 2896 2900 2904 2908 2912 2916 2920 2924 2928 2932 2936 2940 2944 2948 2952 2956 2960 2964 2968 2972 2976 2980 2984 2988 2992 2996 3000 3004 3008 3012 3016 3020 3024 3028 3032 3036 3040 </DataArray>
<DataArray  type="UInt8"  Name="types"  format="ascii">10 10 10 10 10 10 10 10 10 10 10 10 10 10 10 10 10 10 10 10 10 10 10 10 10 10 10 10 10 10 10 10 10 10 10 10 10 10 10 10 10 10 10 10 10 10 10 10 10 10 10 10 10 10 10 10 10 10 10 10 10 10 10 10 10 10 10 10 10 10 10 10 10 10 10 10 10 10 10 10 10 10 10 10 10 10 10 10 10 10 10 10 10 10 10 10 10 10 10 10 10 10 10 10 10 10 10 10 10 10 10 10 10 10 10 10 10 10 10 10 10 10 10 10 10 10 10 10 10 10 10 10 10 10 10 10 10 10 10 10 10 10 10 10 10 10 10 10 10 10 10 10 10 10 10 10 10 10 10 10 10 10 10 10 10 10 10 10 10 10 10 10 10 10 10 10 10 10 10 10 10 10 10 10 10 10 10 10 10 10 10 10 10 10 10 10 10 10 10 10 10 10 10 10 10 10 10 10 10 10 10 10 10 10 10 10 10 10 10 10 10 10 10 10 10 10 10 10 10 10 10 10 10 10 10 10 10 10 10 10 10 10 10 10 10 10 10 10 10 10 10 10 10 10 10 10 10 10 10 10 10 10 10 10 10 10 10 10 10 10 10 10 10 10 10 10 10 10 10 10 10 10 10 10 10 10 10 10 10 10 10 10 10 10 10 10 10 10 10 10 10 10 10 10 10 10 10 10 10 10 10 10 10 10 10 10 10 10 10 10 10 10 10 10 10 10 10 10 10 10 10 10 10 10 10 10 10 10 10 10 10 10 10 10 10 10 10 10 10 10 10 10 10 10 10 10 10 10 10 10 10 10 10 10 10 10 10 10 10 10 10 10 10 10 10 10 10 10 10 10 10 10 10 10 10 10 10 10 10 10 10 10 10 10 10 10 10 10 10 10 10 10 10 10 10 10 10 10 10 10 10 10 10 10 10 10 10 10 10 10 10 10 10 10 10 10 10 10 10 10 10 10 10 10 10 10 10 10 10 10 10 10 10 10 10 10 10 10 10 10 10 10 10 10 10 10 10 10 10 10 10 10 10 10 10 10 10 10 10 10 10 10 10 10 10 10 10 10 10 10 10 10 10 10 10 10 10 10 10 10 10 10 10 10 10 10 10 10 10 10 10 10 10 10 10 10 10 10 10 10 10 10 10 10 10 10 10 10 10 10 10 10 10 10 10 10 10 10 10 10 10 10 10 10 10 10 10 10 10 10 10 10 10 10 10 10 10 10 10 10 10 10 10 10 10 10 10 10 10 10 10 10 10 10 10 10 10 10 10 10 10 10 10 10 10 10 10 10 10 10 10 10 10 10 10 10 10 10 10 10 10 10 10 10 10 10 10 10 10 10 10 10 10 10 10 10 10 10 10 10 10 10 10 10 10 10 10 10 10 10 10 10 10 10 10 10 10 10 10 10 10 10 10 10 10 10 10 10 10 10 10 10 10 10 10 10 10 10 10 10 10 10 10 10 10 10 10 10 10 10 10 10 10 10 10 10 10 10 10 10 10 10 10 10 10 10 10 10 10 10 10 10 10 10 10 10 10 10 10 10 10 10 10 10 10 10 10 10 10 10 10 10 10 10 10 10 10 10 10 10 10 10 10 10 10 10 10 10 10 10 10 10 10 10 10 10 10 10 10 10 10 10 10 10 10 10 10 10 10 10 10 10 10 10 10 10 10 10 10 10 10 10 10 10 10 10 10 10 10 10 </DataArray>
</Cells>
<PointData  Scalars="f_822"> 
<DataArray  type="Float64"  Name="f_822"  format="ascii">1.3926622364805949e-01  1.3100882038107017e-01  1.1325619160296729e-01  1.3113805790170574e-01  1.4460728314635926e-01  1.5936201330373803e-01  1.3694235300657540e-01  1.4750463189132390e-01  1.9652333662821622e-01  1.9329902036036076e-01  2.1215172015099465e-01  1.8253466592004866e-01  1.8837391404229795e-01  1.2130171059894979e-01  1.2128266035055987e-01  1.2698971114734189e-01  8.3577180302817203e-02  8.9724328795947147e-02  7.7925551128774181e-02  8.1829908477375729e-02  1.2044452745578697e-01  1.2653830861323179e-01  1.2058808593777381e-01  1.2680973825714964e-01  9.1144204924095432e-02  9.8675319016581844e-02  8.8414900646301087e-02  8.8944434545986731e-02  8.7383416808997610e-02  8.2994805698707416e-02  9.5008666225889882e-02  1.5036265816461633e-01  1.5130449321557721e-01  1.4573080812101305e-01  1.5232686628503217e-01  6.8897435523584905e-02  6.9914814868551695e-02  1.0224388322653138e-01  1.0688010173897763e-01  1.0029025524812966e-01  1.0434458560017616e-01  1.1208477473141872e-01  1.1975586543526688e-01  1.1578972111013518e-01  1.6257333597268581e-01  1.5078507597109936e-01  1.5769968880311158e-01  1.5784573913570465e-01  5.0008262269211623e-02  6.5511200371495298e-02  5.9119337976248312e-02  4.8798825206276313e-02  1.1847744384513571e-01  1.1808786639470772e-01  1.1992588424853184e-01  1.1610880159803873e-01  1.9961153088497666e-01  2.0553150299853482e-01  2.2452730069191121e-01  2.1156827783795204e-01  7.6883841049619914e-02  7.0869930710092274e-02  8.6115992784511625e-02  1.3662520867916181e-01  1.1815809351218678e-01  1.3127235133934564e-01  1.2363547533256480e-01  9.3001451554249034e-02  1.7154016022128893e-01  1.5902069892628717e-01  1.4672507462690790e-01  1.5011584757974034e-01  1.5090614646249220e-01  5.5470394251110756e-02  4.7918917524938619e-02  3.6843185756080921e-02  2.0846550130594572e-02  4.5107855838727680e-02  0.0000000000000000e+00  2.6289051495347043e-01  2.1255410645825334e-01  1.7686456439612537e-02  0.0000000000000000e+00  0.0000000000000000e+00  0.0000000000000000e+00  1.1790770835717715e-01  1.2750252616494881e-01  1.2274320663859914e-01  1.5856250669759150e-01  1.1447932911771756e-01  1.0239894520046700e-01  1.1058404023348335e-01  1.0604126667404332e-01  1.4141626287171996e-01  1.4959787370555677e-01  1.4382899238459404e-01  1.4857322782759350e-01  1.6167382167734515e-01  1.1501154492930413e-01  1.3040690310609862e-01  1.4159920048483468e-01  9.6560360152377164e-02  9.7100240858099957e-02  8.9257704619141759e-02  9.2614357287535351e-02  1.3525327990048669e-01  1.7866153431998680e-01  1.8782928966304022e-01  1.9869740646255235e-01  1.9146446526008767e-01  1.0940084811184564e-01  1.0830682930510199e-01  9.8900831002298295e-02  9.8145339166853307e-02  5.9535208554910860e-02  6.5903040371786376e-02  5.4061576307120690e-02  1.1890494141427882e-01  3.3836162410646742e-02  3.2480534599855261e-02  0.0000000000000000e+00  3.5599110301709806e-02  4.5732163419694521e-02  1.5512412899484557e-01  1.5785151659261029e-01  1.3922259171431836e-01  1.3528662694802779e-01  1.3029046856802848e-01  1.6931597870703574e-01  1.9272207225121835e-01  9.3908201886434589e-02  8.4244961052205747e-02  3.0046752100013546e-02  3.6112711018788296e-02  4.8029849631498270e-02  1.1390667472780448e-01  1.0881922278326088e-01  1.1331284010590824e-01  1.1375913927052565e-01  1.1706023936778039e-01  1.2314144505562068e-01  8.6003189731279586e-02  6.4838810024360552e-02  7.1815900991264101e-02  5.6327168264670831e-02  6.3758182256542908e-02  1.7043437129799488e-01  1.7272178373162417e-01  1.7379798204990632e-01  1.6302583417667002e-01  1.0166963024480302e-01  9.6445044493222651e-02  1.4158718855401073e-01  1.3301483443545847e-01  1.2477876166787795e-01  1.2240331851011189e-01  1.1415721478360139e-01  1.0525770593710969e-01  1.0072027705654032e-01  1.0321430098295573e-01  1.0726851223704068e-01  7.6783213605743431e-02  6.0766692221613225e-02  0.0000000000000000e+00  3.2239662018235991e-02  9.5309671607566385e-02  9.4838702137275424e-02  9.3223201745708251e-02  1.7673506727347948e-01  1.7160508338753050e-01  2.0298116180075484e-01  1.9452915559537987e-01  2.3089945604658052e-01  1.2523273188466658e-01  9.5857727713935539e-02  1.7747274613505146e-01  1.3332985792942226e-01  1.6041284567063926e-01  1.6020561795305582e-01  1.5665714659045596e-01  1.0821417629837371e-01  1.1880478875190001e-01  1.2489681542758425e-01  1.2254582935642865e-01  1.2153568989672055e-01  1.4710107526005961e-01  1.5510463263233090e-01  1.4652135217610762e-01  2.2083422692682964e-01  1.5106122880508654e-01  2.2704639333178300e-01  1.1257431742022081e-01  0.0000000000000000e+00  1.2027605770103682e-01  1.2903514843356170e-01  1.3207908328337223e-01  1.2973105439665159e-01  1.2868810628755806e-01  9.6695926063277218e-02  1.2522540671137933e-01  1.7131295786071130e-01  6.9615098454199748e-02  1.3375073281263183e-01  1.5699956706169593e-01  1.0801141459685833e-01  3.9508772087813691e-02  5.2238205940960042e-02  5.0936324216134782e-02  9.0385171541886605e-02  1.0783173133001935e-01  1.0810544251050387e-01  1.1087520470849059e-01  8.5609404377049919e-02  1.4479807802962558e-01  1.1931166005483786e-01  1.1444516145789697e-01  1.1239418555456679e-01  1.2570515347937339e-01  1.2370891170606554e-01  1.3358428832845221e-01  1.3189536953824257e-01  2.3053903591188829e-01  1.5155897550820385e-01  1.9730639959929008e-01  1.7532209951724290e-01  1.4359493701720380e-01  1.4470477794579362e-01  1.4312339002066829e-01  0.0000000000000000e+00  0.0000000000000000e+00  1.6497750560379684e-01  3.3292541893275296e-02  1.0987744110551931e-01  1.0103468959181966e-01  1.0186670946221771e-01  1.3252588625376516e-01  1.3832167134184620e-01  6.9657305402422931e-02  1.9782882406880350e-01  1.1082790500097869e-01  1.0752544540809421e-01  1.3089146429146936e-01  1.2742961199415664e-01  1.3839131667764809e-01  1.3366081413023265e-01  1.3771073358100261e-01  1.3783254061287092e-01  1.1198737326481706e-01  8.1869221394060901e-02  1.4108513662653205e-01  1.3975611696883386e-01  1.3984985148020743e-01  1.5265400671489057e-01  1.8060868230104599e-01  1.8758786391086849e-01  0.0000000000000000e+00  0.0000000000000000e+00  1.3639737236994451e-01  1.3610636049759445e-01  1.6546452969453967e-01  1.7300645842872112e-01  1.8452699730972560e-01  1.8799162985525505e-01  6.6534540694231203e-02  7.2926762403893966e-02  6.1998810048609722e-02  7.1472521700301064e-02  7.5168274164272283e-02  7.3534078268222364e-02  1.0001338376022584e-01  7.3413822567092793e-02  1.3737912461130486e-01  9.9102415701663712e-02  8.7182769328202292e-02  0.0000000000000000e+00  7.0539907171962388e-02  1.0603183166737087e-01  1.1158707667979863e-01  9.9199127635216808e-02  8.3895482169048130e-02  9.3707099070258482e-02  1.3177270506614616e-01  1.1872548427796956e-01  0.0000000000000000e+00  7.8662244434543949e-02  1.0471929949813823e-01  1.3756769322008208e-01  8.3594642443211423e-02  2.9285037294942327e-02  4.9424737537568805e-02  4.1756685225470734e-02  6.1261938940249880e-02  1.0516737278395910e-01  0.0000000000000000e+00  8.3919370993365272e-02  1.0259520568667801e-01  </DataArray> 
</PointData> 
</Piece>
</UnstructuredGrid>
</VTKFile>