<?xml version="1.0"?>
<VTKFile type="UnstructuredGrid"  version="0.1"  >
<UnstructuredGrid>
<Piece  NumberOfPoints="290" NumberOfCells="769">
<Points>
<DataArray  type="Float64"  NumberOfComponents="3"  format="ascii">0.7935183918892447 -19.39540829177554 -10.94128597601007  0.5886275810123793 -19.30484486366531 -10.90574242308611  0.7051841831069213 -19.11969813028098 -10.92711114479792  0.7439467508195385 -19.33473888119116 -10.72583084279077  0.8868689556151322 -20.11698428008184 -10.8170101025025  1.025124327693699 -19.93862152613357 -10.89252689204819  0.835633484981834 -19.91592716394712 -10.61607673933111  1.049994609533639 -19.95358886843519 -10.6341154274077  1.787306275356735 -18.83950409694054 -10.54364141766496  1.742537360584378 -18.91392610656429 -10.66215291242223  1.612877586945205 -19.04196712654214 -10.47251427188462  1.53428749052051 -18.89690235438064 -10.42531299204845  1.033100848508794 -18.9824708962566 -10.92231424353114  0.9233127068948223 -19.16539282510819 -10.94758649902714  0.9797323982172205 -19.00329955124947 -10.72861754962387  1.06462626833465 -19.1603530418021 -10.74183035219707  1.189929455851476 -18.45672431279687 -10.24597705004677  1.256382238184432 -18.49413638466735 -10.11349470034275  1.378576074367147 -18.32063775221722 -10.16755700267384  1.425526697917542 -18.39615710170908 -10.26981334237598  1.62987055432256 -18.76747210889515 -10.62561794158926  0.5799809639412081 -19.44920608285224 -10.68060852474012  0.4957454712301813 -19.27581952657286 -10.68511733360234  1.274399140019528 -18.3806948402144 -10.49175377879061  1.134034782738492 -18.28332334554032 -10.55627363532943  1.20322140737363 -18.24718476798985 -10.43663146102498  1.084101812844354 -18.41330845925056 -10.36956958696343  1.164574582274037 -18.11862062171456 -10.37316861407955  1.245446245520848 -18.22316962482978 -10.33464971395021  1.007118171055837 -18.2130389362425 -10.26997254530968  0.9823442227490818 -18.27861355930692 -10.37958177435915  1.119717265626801 -18.1564241824347 -10.48156585098506  1.118506831872788 -17.98735494391905 -10.3616367717532  0.9528297195292346 -18.08478762542637 -10.26709505186909  1.000646434755228 -18.00501670676764 -10.37211599962787  1.616492782058561 -18.53729766389474 -10.16008401110233  1.492215172398085 -18.76000467911827 -10.22709805080623  1.657185089010877 -18.60033267972708 -10.30322345925268  1.522600158794125 -18.48487881535982 -10.29266919504856  0.2391789926665744 -19.04983975493279 -10.84470761777684  0.2035898261529576 -18.84781310331413 -10.65478333967788  0.4286655106561188 -18.8969954814023 -10.7064033514141  0.348538796337574 -19.09846286916786 -10.66619079747346  2.160964140642508 -19.03906708545316 -10.12107862247233  1.753286700207333 -19.10555549062985 -10.02270328349558  1.791247474152033 -19.17130979888518 -10.21464243519465  1.839251493009221 -19.24835413994171 -10.09654973210375  1.893700685605739 -18.8217160300224 -10.31968429885337  1.97352035708656 -18.8799106251236 -10.17985987806455  1.687124525822651 -18.99364876131849 -10.1792570371195  1.200297254278593 -19.61359640533104 -10.71310536127771  0.9462224010162096 -19.54525297036259 -10.71707851075673  0.985932329207212 -19.64679370565588 -10.94312738190725  1.199162347720399 -19.54539390902472 -10.95676500185348  0.4677908355223811 -19.10952773561083 -10.89345983856122  0.5676564032065563 -19.96885739936705 -10.79789624157617  0.7252108766287414 -20.10259145256126 -10.52636959006417  0.8802387658838334 -20.07907253686412 -10.57058816874862  1.159923008163928 -18.38514103437998 -10.14649800626673  1.081314383887523 -18.27672379231169 -10.1631440701793  1.311653889552269 -18.21736162406566 -10.07812677261576  1.285803136350763 -18.22409927515528 -10.22236443868733  1.455096514338189 -18.74821910626495 -10.72241327683598  1.417907948936619 -18.86174639944802 -10.80953609189457  1.359079349365337 -18.98273088276495 -10.63295292766962  1.235768723888034 -18.863945664703 -10.62984048153509  0.7384482817054149 -18.88153371814691 -10.91466026575047  0.6794858830504109 -18.89789189504618 -10.72681215470919  0.8347927168180697 -18.99879591104819 -10.73486673121424  0.7518156789869106 -19.1053229951874 -10.73719651219304  1.086085102373708 -18.33959750645403 -10.2678725066411  1.337375961714858 -18.32007650829691 -10.30155732783756  0.8384103576482214 -19.02932418792961 -10.93029992536988  0.8398416033312144 -18.83287844805383 -10.71036455311651  0.9425052024352496 -18.17422214743918 -10.35810350341966  0.9195653992606262 -18.84456897251794 -10.8968915671362  0.4737671457704616 -18.42295218828796 -10.93452917851289  0.5857380206317813 -18.32787873444832 -10.90934794290875  0.553686800717931 -18.35459821276774 -10.71064349192774  0.5076217335746117 -18.30130941313398 -10.82678068861912  0.5715131747619981 -19.10256201166495 -10.71763498318611  0.6245832341173839 -18.70324103989152 -10.91306903738011  0.7286102953500563 -18.67948499846183 -10.69898283323979  0.8051017044533478 -18.69759529346197 -10.88553823137498  0.7334891575838487 -18.58851096449833 -10.8850540044883  0.5973305763425558 -18.51617571448059 -10.70381872529449  1.378816973979977 -19.31802654939502 -10.70597854367395  1.173507066461247 -19.41918785247231 -10.73491584447362  1.393468716442205 -19.44298803694623 -10.94599257588536  1.264113868860688 -19.30901199316274 -10.9584781579753  1.81736371190089 -19.26044753852425 -10.79960336926339  1.665688546249176 -19.20607877581633 -10.52053832145044  1.554994442505168 -19.29645290135992 -10.63697434168235  1.65033593483897 -19.38255008697778 -10.60179613756276  1.397007478806287 -19.69927212794115 -10.93501777107724  1.39552376071123 -19.60194504318233 -10.69938126238751  1.390010316116143 -19.76252401216812 -10.68353722698659  0.7996209601997555 -19.82859565650408 -10.88578158338109  0.9987837466132391 -19.75753816015805 -10.6785503723922  1.202865601355826 -19.82056352010708 -10.9221746488999  1.219332196414601 -19.86254291025621 -10.66792409474089  1.167410732322837 -18.03386832875088 -10.27368631652444  1.216204073199481 -18.13348891678274 -10.2589188288797  1.394835198948998 -18.68363923881065 -10.30205673688083  1.544708420324338 -18.55600693107941 -10.42521106887964  1.464894921758432 -18.78254493174122 -10.36307950688632  1.367603587387153 -18.73598610678125 -10.43490269829092  1.906121796341591 -18.9143142139521 -10.47127288728474  1.645776675932851 -18.97487011958523 -10.32389859957734  1.718192362370985 -19.10626431815446 -10.35704413310452  1.518823043988494 -19.46981976798956 -10.67367382240113  1.535093264855384 -19.35473706735488 -10.91669099992858  1.602860936717035 -18.89931183064364 -10.75110818823035  1.494067480722921 -18.98006828405704 -10.54754985941441  1.499318786410706 -19.13417247177093 -10.62024553737466  1.522538945482856 -19.02272048250553 -10.84678562952037  0.798382935475773 -18.52060032293542 -10.64391099534951  0.7267640334952709 -18.32726211895546 -10.85526654059136  0.8830085923152247 -18.30825430603349 -10.7688706103507  0.8521373121608146 -18.50555372333816 -10.83554675732801  0.6396626123715704 -18.18234887245366 -10.86181204186802  0.776161661592085 -18.18815636392268 -10.80932656116088  0.7314682491493113 -18.07592478763855 -10.75778645076598  0.7436789597581159 -18.22747910504719 -10.7217415598473  1.013152512894291 -19.3221500100588 -10.74528194779715  0.9042116012979973 -19.16121701477246 -10.74527080442882  1.027635489931803 -18.11690849480369 -10.57681653532494  0.8940033893588661 -18.27484266858758 -10.48340936967163  0.7525209227196785 -19.72724120529773 -10.65530199597288  0.6997943155425321 -19.54905041727284 -10.68652958693872  0.7866767865735134 -19.6007283103015 -10.92367893535768  0.5651804624976614 -19.88924275025887 -10.56400541364533  1.916545881547808 -19.02482575015182 -10.5874990794784  1.73011478696536 -19.39541124740452 -10.86644503135245  0.4682454407709771 -18.26746174138571 -10.90732322860314  1.289298124868819 -18.32192076659831 -10.39489511449585  1.641704077971106 -19.20650872316903 -10.85618782105006  1.323527769949822 -19.1343529312102 -10.69620524151057  1.167289875886781 -19.14790544051769 -10.94952083809186  1.412583878655725 -19.18046387191226 -10.92311119858666  1.191757388866494 -19.22848084884131 -10.73467377415317  1.377722024397434 -18.30189524139628 -10.05166034061076  1.552089730103158 -18.6314718849676 -10.54070830343343  1.406728881237126 -18.85529050991079 -10.52300455792583  1.724626278546261 -18.63556886091218 -10.1874938325289  1.844204233298894 -19.29292933377878 -9.941937303213772  1.014893630256819 -18.15597590254557 -10.16719304478631  1.0529863702839 -18.19751878129291 -10.08109932564135  1.251436700220517 -18.14732152921704 -10.15897747930334  1.110461652946563 -18.05736692193463 -10.09721217899289  1.109310246525998 -17.86317992711698 -10.00257290810406  1.007963007125966 -17.87329096224999 -10.00022664315494  1.080998386926253 -17.96785334410961 -9.933136505891868  1.041051381625623 -17.88712021897589 -10.04781126761198  0.9752363790464115 -18.39116562956739 -10.47454941901605  0.31104387225419 -18.49784990745662 -10.9395335110873  0.4278867001135322 -18.42114482388304 -10.73769995562626  0.3903219910839356 -18.36574770496686 -10.84249477626481  1.132298977167314 -17.88931761512133 -10.10931710200155  1.020405299231541 -17.86335863757812 -10.09570217774814  0.4321361887334417 -18.56226170060393 -10.72589686419876  0.3532783418676885 -18.70308230169282 -10.71307458322608  0.4635301601143014 -18.79139940731375 -10.91700115251263  0.3231355033708159 -18.68920086156391 -10.91860917316044  0.1520252022139119 -18.63483173059199 -10.90105415748818  0.2255906917401556 -18.65084970155426 -10.69737766027334  0.2630150049690729 -18.82871482608566 -10.88838857263275  1.557627893668337 -18.4816131419969 -10.04608190418071  1.420313552797044 -18.67033636821996 -10.14202074714785  1.352286090120689 -18.592659341202 -10.03255179402141  1.452063816817114 -18.70504390608214 -10.00557635629664  1.31426098060624 -18.57934704580492 -10.22900142843424  0.1425992109220849 -18.50630704819975 -10.70877880230316  0.09412422850847177 -18.55747061547038 -10.79366401737721  0.2632714806667926 -18.52358803077616 -10.82660723788038  0.9740194451117528 -18.04320935038781 -10.15489021352293  1.41207572788454 -18.53492241907572 -10.54352182591463  0.939511072273422 -18.68416640141253 -10.64889602042093  1.108194253249585 -18.63445542470067 -10.54620280143155  1.044391427040576 -18.57163717305452 -10.78173455335626  1.115312793499067 -18.75272354674964 -10.61809260639932  1.23915695077471 -18.09605401731331 -10.08080218396782  1.171552493920134 -19.0121099231999 -10.70526424887468  1.685845851404535 -18.68471164081813 -10.45453398948389  1.810914402500505 -18.78318115346287 -10.42334537880445  1.576096309820958 -18.86156696896733 -10.25072943022663  1.013335280895868 -17.92204379630397 -10.42920897134302  1.020218116887895 -17.9827066608429 -10.53177554357455  0.9294114456895981 -18.01068889917025 -10.46592124046016  0.9056257121926001 -18.13406577176858 -10.70476664221519  0.8214640514039673 -18.19388035262707 -10.52486343938721  0.8942080678712487 -18.08470839575972 -10.57061919456674  0.8069784593169631 -18.14171526277339 -10.64640174732133  1.207046368786623 -18.07344721181819 -10.18736519308045  1.004840239892612 -18.26104920768135 -10.66579206080859  0.6086768952344251 -18.26670613223544 -10.7775807432371  0.3721152996703166 -18.96272192866813 -10.89001090110165  0.04142658185316532 -18.81262542435225 -10.82175456518221  0.3836350044578855 -19.28925996831141 -10.85274489431337  0.434701956804922 -19.45369271470011 -10.63918908020932  0.5668675859037378 -19.51374384298752 -10.88318940942209  0.3032314137389638 -19.48037448137774 -10.79544636262279  1.135689446266908 -17.93789145106811 -10.27187795543258  1.16607993539378 -17.96362587810295 -10.1895574896575  1.043243235545287 -17.97263201651545 -10.25650407339894  1.789249166021084 -19.25274684540935 -10.37480555877795  1.076154881283464 -17.88169772076632 -10.19156285684938  1.036962106745814 -17.94480186859565 -10.14714158988442  1.334906081688633 -19.48207654143409 -10.7155286199314  0.5060883317057084 -19.64649133760312 -10.61986566938748  0.6280431751438043 -19.73235319613245 -10.86992539710159  1.265007984311645 -18.94900885442831 -10.88994913520209  1.093603367745045 -18.82499392068533 -10.87084224828539  0.4490451485959338 -18.26517938085939 -10.75293446221787  1.229583177262755 -18.44920900988721 -10.60585303891054  1.253971333092162 -18.62424345688563 -10.41509987706752  1.098296081164392 -18.51539414956812 -10.4588349359905  0.4192289482045354 -19.69783926846896 -10.80939627895995  0.559291743641704 -18.92435733929375 -10.91509146311267  0.5498452923625812 -18.70964857798628 -10.71946114514199  1.405614293485415 -18.43807613548015 -10.41130552108218  0.8825516107681541 -18.14526763878684 -10.43551299191972  1.686976951465485 -18.59784628730484 -10.02334249830365  1.522075382148605 -18.77905277884581 -10.11207094242199  1.602761411234059 -18.87771970202372 -10.08838800496178  0.9894052551446351 -18.03753729771802 -10.05755634171787  1.752913665837896 -19.07795385531685 -10.75333581918411  0.9755568128733287 -17.94562815402102 -10.03466560018412  1.181765397364094 -17.92821866355266 -10.01657939797764  0.5912532763678729 -18.21132725642632 -10.69363173621851  1.475610833936009 -18.65082257823094 -10.62637279436874  1.262810411289491 -18.7426281749815 -10.53306879683266  0.6942033843924033 -18.33232286244455 -10.64886646645293  0.8393368999918345 -18.34240862513291 -10.56176076155749  0.966250004193336 -18.52304886533887 -10.56240153533074  1.002576343607396 -18.42237538652012 -10.73768098272847  0.9899904817598528 -18.68985280455328 -10.84456324865691  1.15015174764221 -18.52542290502883 -10.70916133362488  1.490529185483646 -18.42858722021855 -10.16829179244198  1.451111402572317 -18.38102884881078 -10.06008573993266  1.799135924441195 -18.73884205472017 -9.850658767537295  1.814568533097902 -18.71235669566953 -10.09150875696939  1.702755910115459 -18.63722123866225 -9.875296053640637  1.528973895753319 -18.81208271527605 -9.924313979591512  0.8049299575566761 -18.03383936561197 -10.53153521272438  0.8691251772232014 -17.9961393994068 -10.42417791589218  0.9175994200186516 -17.93782871294839 -10.51743763249219  0.7317462531307788 -18.16411029141963 -10.59902613050909  1.26938668835032 -18.14023868186116 -9.964023833009188  1.085763440327384 -18.24669234360593 -10.0014663377486  1.326596844067822 -18.60638944135677 -10.67437260186634  1.041254075439993 -18.85835231704348 -10.68546221183577  0.3874109294961137 -18.38395359719271 -10.94453775959615  0.2603910878355192 -18.30681914760285 -10.82614793083369  0.9327935312282142 -18.00497495151518 -10.61662802785071  0.7987021390047646 -18.00814030187369 -10.65259372658935  0.9560622295526451 -17.94496869236648 -10.22911658829582  0.6650357265050174 -20.28435805074124 -10.70785337549832  1.19745116615466 -18.51938685995495 -10.3467818910438  1.65336392260709 -18.95937372454296 -9.988878950166619  1.100112391680023 -18.38707560657384 -10.65559197183017  1.039888048721458 -19.36490949842 -10.96439669643869  1.940867352100782 -18.86460566626551 -9.949313820754215  1.690842628382614 -19.05660002441832 -9.872136925630628  1.085353428087031 -18.04092352906981 -10.46032499479179  0.899971141407619 -18.06834092247099 -10.3742428134629  1.041703210347856 -17.89569259795001 -10.30228507340698  0.9297216374592649 -17.96013461482404 -10.33098428628438  2.050459031780328 -19.03899451438678 -9.769646485141694  1.597551438346489 -18.93593070573634 -9.829692539987128  1.604613085547668 -19.58062900535923 -10.9169750784249  1.031650491552366 -18.13688997078648 -9.993167857859227  0.9946913271826157 -18.03208579955013 -9.958654044013805  0.6377031887441634 -18.49426749379587 -10.89948512228166  2.015605623185149 -18.97431681534707 -10.38292665924476  1.766295112404827 -18.69487559023329 -10.30256058169153  1.014858646245125 -18.11956999265732 -10.09034980983949  1.193660959543059 -17.99542128748572 -10.10151823746818  1.228579367688604 -18.72170301752653 -10.79516401125047  0.3030808559362797 -18.52614151825296 -10.72836947485192  1.215473013717018 -18.02284660170636 -9.997654320759031  0.4686269351008006 -18.59550132841548 -10.92770996287777  0.1426507577972854 -18.66126141319882 -10.67072324642163  1.86451660010741 -19.32165906973173 -10.24922777289026  0.1355025821524545 -18.42540042681992 -10.90808792036531  1.58783623538414 -18.52757964137028 -9.891334424105855  1.958480804482267 -19.22853466411815 -10.71825529534664  1.544852919307434 -19.65140999278616 -10.66961943406151  0.9680635590707868 -17.93931738441302 -10.12746356134213  0.5121853977723081 -18.16992777130546 -10.80774238321066  </DataArray>
</Points>
<Cells>
<DataArray  type="UInt32"  Name="connectivity"  format="ascii">0 1 2 3  4 5 6 7  8 9 10 11  12 13 14 15  16 17 18 19  8 9 20 11  1 21 3 22  23 24 25 26  25 27 28 29  25 27 30 31  32 27 33 34  25 27 29 30  35 36 37 38  39 40 41 42  43 44 45 46  47 48 49 45  50 51 52 53  39 54 41 42  55 56 6 57  58 59 60 61  62 63 64 65  66 67 68 69  58 70 61 71  66 68 69 72  66 67 73 68  27 29 30 74  66 73 68 75  76 77 78 79  54 1 22 80  54 22 42 80  81 82 83 84  85 81 82 84  86 87 88 89  90 91 92 93  94 50 95 96  97 5 52 98  97 5 98 6  5 99 100 98  5 99 52 98  27 101 102 29  103 104 105 106  47 107 108 109  110 86 92 111  112 113 114 64  112 115 114 64  116 117 118 119  120 121 122 123  9 112 113 114  9 10 113 114  85 82 119 84  13 15 124 125  24 126 31 127  51 128 129 130  55 56 131 6  132 10 109 91  110 133 92 93  76 77 134 79  70 135 28 71  110 133 92 111  136 133 92 111  115 114 64 137  138 139 140 137  58 17 18 141  142 11 105 143  35 36 37 144  43 145 44 46  146 147 148 149  150 151 152 153  85 116 82 119  25 70 26 30  25 70 29 30  24 25 26 30  82 67 73 83  24 154 26 30  97 98 128 6  155 76 156 157  47 49 109 45  150 158 159 153  76 156 157 79  150 151 159 153  160 161 162 163  164 165 166 40  167 168 169 170  16 17 19 171  172 165 173 174  146 175 33 101  103 104 176 106  142 104 176 106  177 178 179 180  147 181 148 149  103 104 37 105  142 104 105 106  138 182 140 137  146 33 101 29  70 61 102 28  8 10 108 11  183 184 11 185  186 187 188 34  189 190 191 192  146 148 102 193  24 194 126 127  120 77 134 79  77 78 195 79  125 68 69 72  39 166 196 41  197 39 166 40  198 199 200 201  13 125 2 72  202 101 203 204  132 109 205 91  203 206 204 207  208 86 87 88  209 129 210 200  76 134 157 79  181 148 193 149  12 211 182 212  25 70 135 26  156 213 157 79  214 23 215 216  177 82 83 119  5 100 98 7  128 131 209 210  217 131 209 210  217 209 210 200  218 81 219 67  198 21 199 22  55 128 131 210  55 217 131 210  218 54 41 80  58 59 70 61  103 220 171 215  30 31 221 74  55 128 131 6  222 144 223 224  158 206 159 207  36 144 185 223  144 185 223 224  175 225 149 207  158 225 149 207  226 136 90 92  158 227 225 207  228 227 225 152  226 112 115 114  226 136 115 114  229 78 213 195  20 112 62 113  155 156 160 174  230 62 143 231  146 148 193 149  20 62 113 143  226 90 91 92  142 230 20 143  4 97 5 6  222 167 35 170  230 20 62 143  85 116 117 119  232 116 118 233  116 177 82 119  116 234 235 233  116 118 235 119  116 118 235 233  177 179 180 236  234 178 237 179  177 234 178 179  169 17 238 239  116 177 234 179  116 234 235 179  116 235 179 119  116 177 179 119  59 60 148 61  94 95 88 53  0 51 52 130  146 101 193 149  240 241 224 242  232 118 233 123  222 243 170 242  58 70 16 71  244 245 246 188  129 210 130 200  129 21 3 200  232 233 247 123  194 118 189 233  60 248 181 249  214 178 237 250  1 198 21 200  86 136 92 111  14 251 182 212  211 115 64 137  211 182 64 65  189 233 123 192  222 243 224 242  4 55 6 57  12 14 75 212  25 70 135 28  39 166 40 41  161 162 166 41  162 166 196 41  222 241 224 242  59 146 102 29  233 247 123 192  139 86 88 111  35 168 38 238  39 54 198 42  155 252 253 157  177 83 236 119  189 254 255 191  175 256 204 207  228 150 158 153  168 38 238 171  94 50 95 53  4 55 257 57  167 169 238 239  8 107 184 108  16 19 258 71  110 86 88 111  240 241 259 224  154 194 127 233  24 260 154 194  36 103 168 38  99 50 52 53  60 181 249 148  208 95 88 53  228 158 227 225  261 87 89 53  218 81 162 219  134 213 157 79  76 134 252 157  126 31 127 221  155 76 156 160  24 260 216 154  220 19 258 71  103 104 38 220  38 238 19 171  220 171 215 258  36 103 37 38  155 76 252 157  183 37 185 105  214 215 178 250  230 143 231 106  214 176 215 250  240 262 259 263  230 62 250 231  178 237 179 180  23 220 215 258  32 202 101 204  264 265 74 34  266 186 267 34  32 264 186 34  264 126 31 221  264 221 265 188  264 126 221 187  226 10 91 114  194 126 190 127  33 265 74 34  99 50 100 98  262 43 268 44  17 18 238 19  0 51 129 130  240 269 259 263  110 270 88 111  59 147 249 148  155 253 157 174  222 35 144 223  271 225 149 152  272 271 225 152  169 17 238 171  168 169 238 171  222 35 170 223  85 117 273 119  134 252 253 157  228 225 149 152  222 241 144 224  36 37 185 105  214 23 176 215  214 178 216 237  142 183 20 11  220 135 258 71  103 104 220 176  9 20 112 113  50 51 52 98  47 107 184 108  160 81 162 219  66 2 69 72  47 274 109 45  99 94 50 53  209 21 199 200  58 16 17 18  160 85 81 219  117 77 273 78  139 136 115 114  160 85 81 273  85 81 82 219  12 14 182 15  142 105 143 106  110 133 270 111  1 21 3 200  70 61 28 71  275 37 144 185  154 194 235 233  146 175 101 149  147 271 276 149  175 203 204 207  101 203 193 149  12 138 211 182  54 1 198 22  0 129 3 200  175 33 101 204  277 203 193 149  277 203 158 149  222 243 223 224  222 243 170 223  142 230 176 106  251 278 236 212  0 124 125 3  139 86 136 111  0 13 124 125  86 136 92 114  110 208 86 88  8 132 9 10  121 122 189 123  240 241 262 259  47 48 274 45  139 115 114 137  251 278 65 212  14 125 68 72  218 67 69 80  208 50 95 53  279 172 253 174  155 156 157 174  97 128 210 130  156 253 157 174  214 260 216 237  97 52 98 130  209 129 21 200  51 98 128 130  198 21 199 200  217 209 199 200  97 98 128 130  55 97 128 210  55 97 128 6  262 48 43 44  234 260 237 235  178 250 231 180  260 154 194 235  211 115 63 64  146 175 276 149  147 181 271 149  228 277 158 149  226 91 92 114  23 24 216 26  234 178 216 237  70 16 135 71  241 47 48 49  62 65 250 231  161 165 163 174  160 161 162 219  155 164 163 174  175 276 225 149  264 31 221 74  23 25 135 26  16 135 258 71  47 184 108 185  9 226 10 114  12 13 14 72  218 66 67 69  39 196 54 41  85 273 119 84  0 129 130 200  178 237 250 180  120 121 117 123  251 177 73 236  82 83 119 84  73 83 236 75  194 118 235 233  126 189 254 191  177 179 236 119  32 266 186 34  33 267 34 204  27 33 74 34  33 256 267 204  228 150 152 153  27 30 31 74  122 189 255 192  35 36 168 38  139 86 114 137  128 209 129 210  183 11 185 105  36 103 37 105  112 115 63 64  138 261 89 140  47 107 274 109  138 139 89 140  142 183 104 105  139 86 89 140  86 87 89 140  138 211 139 137  241 259 49 224  208 87 88 53  99 50 100 96  87 88 89 53  59 70 61 102  248 181 271 249  118 189 233 123  208 87 50 53  189 190 233 192  280 271 149 152  126 190 127 221  227 159 153 207  272 227 225 152  275 183 37 185  183 104 37 105  142 183 11 105  8 184 108 11  230 176 231 106  8 183 20 11  194 126 189 190  264 27 74 34  218 162 219 41  1 3 22 80  2 69 3 80  1 2 3 80  54 1 2 80  217 199 200 201  281 160 81 273  85 81 273 84  254 187 246 188  23 216 26 258  254 244 246 188  1 198 21 22  194 189 190 233  132 107 274 109  43 268 145 44  264 221 187 188  76 77 273 78  30 31 127 221  164 282 165 40  122 189 123 192  241 275 144 185  0 1 3 200  48 43 44 45  12 138 182 15  197 164 166 40  218 67 41 80  262 268 263 44  155 281 160 163  234 154 235 233  147 181 271 249  66 73 83 75  218 66 2 69  4 6 7 57  125 2 69 72  167 168 169 238  241 47 49 185  132 274 109 205  48 44 49 45  256 266 267 204  211 182 64 137  261 87 124 140  0 51 124 3  232 229 123 195  146 147 276 149  271 276 225 149  32 264 27 34  181 277 193 149  17 18 238 239  94 270 95 88  110 208 95 88  110 270 95 88  43 45 283 46  62 64 65 143  66 68 72 75  218 2 69 80  284 172 253 174  120 229 123 195  202 206 266 204  228 158 225 149  33 267 265 34  232 229 78 195  264 27 31 74  32 266 34 204  25 70 28 29  62 278 65 250  278 179 180 236  103 168 38 171  4 55 97 6  24 154 30 127  186 187 246 188  24 154 194 127  24 30 31 127  278 237 250 180  155 281 76 160  155 284 253 174  14 251 73 75  251 177 180 236  81 66 67 83  261 87 89 140  161 166 40 41  138 182 15 140  245 265 188 34  264 187 188 34  27 33 101 29  245 267 265 34  9 226 112 114  155 164 284 174  226 136 92 114  85 117 273 78  161 162 219 41  128 129 210 130  264 265 188 34  172 282 165 173  244 221 188 191  254 244 188 191  142 230 143 106  234 237 235 179  214 24 260 216  234 260 216 154  20 11 113 143  48 43 274 45  5 98 6 7  161 162 166 163  164 165 166 163  160 161 163 174  121 117 118 123  232 117 118 123  47 49 108 109  262 48 44 49  35 36 168 223  167 35 168 238  35 168 170 223  161 165 166 163  261 13 15 124  0 261 13 124  62 113 64 143  17 238 19 171  278 65 250 180  36 37 144 185  9 20 11 113  230 176 250 231  0 51 129 3  221 187 188 191  38 220 19 171  13 14 125 72  254 187 188 191  139 86 88 89  241 262 48 49  81 82 219 67  103 220 176 215  139 86 140 137  222 285 170 242  66 67 73 83  256 206 204 207  164 165 163 174  161 165 166 40  12 138 13 15  132 226 286 91  203 158 149 207  103 38 220 171  16 19 171 258  241 144 185 224  220 19 171 258  16 18 19 71  35 36 144 223  62 65 143 231  65 250 231 180  23 215 216 258  214 23 24 216  287 110 270 95  24 216 154 26  164 282 165 173  256 206 288 207  164 165 173 174  139 86 136 114  262 259 263 44  13 14 15 125  146 101 102 193  146 101 102 29  175 101 203 204  51 52 98 130  287 94 270 95  287 94 95 96  280 181 271 149  280 248 181 271  218 54 2 80  214 215 178 216  202 203 206 204  55 257 56 57  261 87 51 124  12 14 72 75  14 68 72 75  215 178 250 231  24 25 30 31  32 27 33 101  186 245 267 34  59 146 147 148  266 267 34 204  59 146 148 102  232 117 78 195  85 232 117 78  120 77 195 79  58 60 18 61  54 41 42 80  58 60 18 141  147 181 249 148  112 62 63 64  9 10 11 113  62 63 278 65  241 49 185 224  241 275 47 185  184 108 11 185  47 49 108 185  227 288 159 207  17 18 141 239  70 16 135 26  16 135 26 258  234 260 216 237  142 20 11 143  211 139 115 137  234 260 154 235  278 237 179 180  227 288 225 207  256 206 266 204  280 181 277 149  211 63 64 65  211 63 278 65  251 182 65 212  211 182 65 212  211 278 65 212  194 190 127 233  54 198 22 42  103 104 37 38  261 87 51 53  206 288 159 207  23 220 135 258  176 215 231 106  103 176 215 106  87 50 51 53  23 135 26 258  156 85 273 78  12 14 182 212  251 236 75 212  14 251 75 212  176 215 250 231  189 255 191 192  125 2 69 3  138 211 182 137  112 62 113 64  126 189 190 191  218 81 66 67  81 82 67 83  14 73 68 75  23 220 176 215  177 73 83 236  251 73 236 75  177 82 73 83  32 33 34 204  264 186 187 34  27 102 28 29  226 286 90 91  264 221 265 74  27 33 29 74  126 190 221 191  218 162 196 41  218 196 54 41  244 190 221 191  175 101 203 149  175 256 288 207  59 148 61 102  240 243 259 224  175 33 256 204  240 243 224 242  240 243 269 259  160 279 161 174  155 160 163 174  203 158 206 207  175 288 225 207  175 203 149 207  126 221 187 191  121 118 189 123  241 262 259 49  262 259 44 49  138 261 13 15  281 160 81 162  8 132 107 10  218 219 67 41  281 160 162 163  132 107 10 109  8 107 10 108  107 10 108 109  261 51 52 53  0 261 51 124  0 261 51 52  43 274 45 283  99 94 50 96  274 109 45 205  274 45 283 205  222 167 285 170  167 35 168 170  99 50 52 98  122 247 123 192  255 244 191 192  190 233 247 192  122 255 247 192  244 190 191 192  76 156 273 78  76 156 78 79  136 133 90 92  133 90 92 93  117 77 78 195  120 117 77 195  59 60 249 148  0 13 125 2  0 125 2 3  32 33 101 204  32 202 266 204  138 261 15 140  261 15 124 140  279 161 165 174  280 228 277 149  280 228 149 152  279 172 165 174  132 9 226 10  132 226 10 91  126 254 187 191  156 279 253 174  281 76 160 273  76 156 160 273  156 160 85 273  156 160 279 174  85 232 116 117  232 116 117 118  8 183 184 11  275 183 184 185  275 47 184 185  251 278 65 180  251 278 180 236  58 16 18 71  58 18 61 71  59 70 102 29  70 102 28 29  213 289 195 79  156 78 213 79  120 229 289 195  120 134 289 79  134 213 289 79  78 213 195 79  134 253 213 157  156 253 213 157  284 172 173 174  120 122 229 123  232 247 229 123  120 117 123 195  232 117 123 195  122 247 229 123  120 289 195 79  229 213 289 195  227 151 152 153  158 227 153 207  227 151 159 153  228 158 227 153  228 227 152 153  186 245 188 34  244 221 245 188  221 245 265 188  186 245 246 188  164 284 173 174  158 159 153 207  255 244 247 192  244 190 247 192  254 255 244 191  </DataArray>
<DataArray  type="UInt32"  Name="offsets"  format="ascii">4 8 12 16 20 24 28 32 36 40 44 48 52 56 60 64 68 72 76 80 84 88 92 96 100 104 108 112 116 120 124 128 132 136 140 144 148 152 156 160 164 168 172 176 180 184 188 192 196 200 204 208 212 216 220 224 228 232 236 240 244 248 252 256 260 264 268 272 276 280 284 288 292 296 300 304 308 312 316 320 324 328 332 336 340 344 348 352 356 360 364 368 372 376 380 384 388 392 396 400 404 408 412 416 420 424 428 432 436 440 444 448 452 456 460 464 468 472 476 480 484 488 492 496 500 504 508 512 516 520 524 528 532 536 540 544 548 552 556 560 564 568 572 576 580 584 588 592 596 600 604 608 612 616 620 624 628 632 636 640 644 648 652 656 660 664 668 672 676 680 684 688 692 696 700 704 708 712 716 720 724 728 732 736 740 744 748 752 756 760 764 768 772 776 780 784 788 792 796 800 804 808 812 816 820 824 828 832 836 840 844 848 852 856 860 864 868 872 876 880 884 888 892 896 900 904 908 912 916 920 924 928 932 936 940 944 948 952 956 960 964 968 972 976 980 984 988 992 996 1000 1004 1008 1012 1016 1020 1024 1028 1032 1036 1040 1044 1048 1052 1056 1060 1064 1068 1072 1076 1080 1084 1088 1092 1096 1100 1104 1108 1112 1116 1120 1124 1128 1132 1136 1140 1144 1148 1152 1156 1160 1164 1168 1172 1176 1180 1184 1188 1192 1196 1200 1204 1208 1212 1216 1220 1224 1228 1232 1236 1240 1244 1248 1252 1256 1260 1264 1268 1272 1276 1280 1284 1288 1292 1296 1300 1304 1308 1312 1316 1320 1324 1328 1332 1336 1340 1344 1348 1352 1356 1360 1364 1368 1372 1376 1380 1384 1388 1392 1396 1400 1404 1408 1412 1416 1420 1424 1428 1432 1436 1440 1444 1448 1452 1456 1460 1464 1468 1472 1476 1480 1484 1488 1492 1496 1500 1504 1508 1512 1516 1520 1524 1528 1532 1536 1540 1544 1548 1552 1556 1560 1564 1568 1572 1576 1580 1584 1588 1592 1596 1600 1604 1608 1612 1616 1620 1624 1628 1632 1636 1640 1644 1648 1652 1656 1660 1664 1668 1672 1676 1680 1684 1688 1692 1696 1700 1704 1708 1712 1716 1720 1724 1728 1732 1736 1740 1744 1748 1752 1756 1760 1764 1768 1772 1776 1780 1784 1788 1792 1796 1800 1804 1808 1812 1816 1820 1824 1828 1832 1836 1840 1844 1848 1852 1856 1860 1864 1868 1872 1876 1880 1884 1888 1892 1896 1900 1904 1908 1912 1916 1920 1924 1928 1932 1936 1940 1944 1948 1952 1956 1960 1964 1968 1972 1976 1980 1984 1988 1992 1996 2000 2004 2008 2012 2016 2020 2024 2028 2032 2036 2040 2044 2048 2052 2056 2060 2064 2068 2072 2076 2080 2084 2088 2092 2096 2100 2104 2108 2112 2116 2120 2124 2128 2132 2136 2140 2144 2148 2152 2156 2160 2164 2168 2172 2176 2180 2184 2188 2192 2196 2200 2204 2208 2212 2216 2220 2224 2228 2232 2236 2240 2244 2248 2252 2256 2260 2264 2268 2272 2276 2280 2284 2288 2292 2296 2300 2304 2308 2312 2316 2320 2324 2328 2332 2336 2340 2344 2348 2352 2356 2360 2364 2368 2372 2376 2380 2384 2388 2392 2396 2400 2404 2408 2412 2416 2420 2424 2428 2432 2436 2440 2444 2448 2452 2456 2460 2464 2468 2472 2476 2480 2484 2488 2492 2496 2500 2504 2508 2512 2516 2520 2524 2528 2532 2536 2540 2544 2548 2552 2556 2560 2564 2568 2572 2576 2580 2584 2588 2592 2596 2600 2604 2608 2612 2616 2620 2624 2628 2632 2636 2640 2644 2648 2652 2656 2660 2664 2668 2672 2676 2680 2684 2688 2692 2696 2700 2704 2708 2712 2716 2720 2724 2728 2732 2736 2740 2744 2748 2752 2756 2760 2764 2768 2772 2776 2780 2784 2788 2792 2796 2800 2804 2808 2812 2816 2820 2824 2828 2832 2836 2840 2844 2848 2852 2856 2860 2864 2868 2872 2876 2880 2884 2888 2892 2896 2900 2904 2908 2912 2916 2920 2924 2928 2932 2936 2940 2944 2948 2952 2956 2960 2964 2968 2972 2976 2980 2984 2988 2992 2996 3000 3004 3008 3012 3016 3020 3024 3028 3032 3036 3040 3044 3048 3052 3056 3060 3064 3068 3072 3076 </DataArray>
<DataArray  type="UInt8"  Name="types"  format="ascii">10 10 10 10 10 10 10 10 10 10 10 10 10 10 10 10 10 10 10 10 10 10 10 10 10 10 10 10 10 10 10 10 10 10 10 10 10 10 10 10 10 10 10 10 10 10 10 10 10 10 10 10 10 10 10 10 10 10 10 10 10 10 10 10 10 10 10 10 10 10 10 10 10 10 10 10 10 10 10 10 10 10 10 10 10 10 10 10 10 10 10 10 10 10 10 10 10 10 10 10 10 10 10 10 10 10 10 10 10 10 10 10 10 10 10 10 10 10 10 10 10 10 10 10 10 10 10 10 10 10 10 10 10 10 10 10 10 10 10 10 10 10 10 10 10 10 10 10 10 10 10 10 10 10 10 10 10 10 10 10 10 10 10 10 10 10 10 10 10 10 10 10 10 10 10 10 10 10 10 10 10 10 10 10 10 10 10 10 10 10 10 10 10 10 10 10 10 10 10 10 10 10 10 10 10 10 10 10 10 10 10 10 10 10 10 10 10 10 10 10 10 10 10 10 10 10 10 10 10 10 10 10 10 10 10 10 10 10 10 10 10 10 10 10 10 10 10 10 10 10 10 10 10 10 10 10 10 10 10 10 10 10 10 10 10 10 10 10 10 10 10 10 10 10 10 10 10 10 10 10 10 10 10 10 10 10 10 10 10 10 10 10 10 10 10 10 10 10 10 10 10 10 10 10 10 10 10 10 10 10 10 10 10 10 10 10 10 10 10 10 10 10 10 10 10 10 10 10 10 10 10 10 10 10 10 10 10 10 10 10 10 10 10 10 10 10 10 10 10 10 10 10 10 10 10 10 10 10 10 10 10 10 10 10 10 10 10 10 10 10 10 10 10 10 10 10 10 10 10 10 10 10 10 10 10 10 10 10 10 10 10 10 10 10 10 10 10 10 10 10 10 10 10 10 10 10 10 10 10 10 10 10 10 10 10 10 10 10 10 10 10 10 10 10 10 10 10 10 10 10 10 10 10 10 10 10 10 10 10 10 10 10 10 10 10 10 10 10 10 10 10 10 10 10 10 10 10 10 10 10 10 10 10 10 10 10 10 10 10 10 10 10 10 10 10 10 10 10 10 10 10 10 10 10 10 10 10 10 10 10 10 10 10 10 10 10 10 10 10 10 10 10 10 10 10 10 10 10 10 10 10 10 10 10 10 10 10 10 10 10 10 10 10 10 10 10 10 10 10 10 10 10 10 10 10 10 10 10 10 10 10 10 10 10 10 10 10 10 10 10 10 10 10 10 10 10 10 10 10 10 10 10 10 10 10 10 10 10 10 10 10 10 10 10 10 10 10 10 10 10 10 10 10 10 10 10 10 10 10 10 10 10 10 10 10 10 10 10 10 10 10 10 10 10 10 10 10 10 10 10 10 10 10 10 10 10 10 10 10 10 10 10 10 10 10 10 10 10 10 10 10 10 10 10 10 10 10 10 10 10 10 10 10 10 10 10 10 10 10 10 10 10 10 10 10 10 10 10 10 10 10 10 10 10 10 10 10 10 10 10 10 10 10 10 10 10 10 10 10 10 10 10 10 10 10 10 10 10 10 10 10 10 10 10 10 10 10 10 10 10 10 10 10 10 10 10 10 10 10 10 10 10 10 10 10 10 10 10 10 10 10 10 10 10 10 10 10 10 10 10 10 10 10 10 10 10 10 10 10 10 10 10 10 10 10 10 10 10 10 10 10 10 10 10 10 10 10 10 10 10 10 10 10 10 10 10 10 10 10 </DataArray>
</Cells>
<PointData  Scalars="f_818"> 
<DataArray  type="Float64"  Name="f_818"  format="ascii">5.3695366239920794e-01  6.0911323693857555e-01  6.4150035697783059e-01  5.6752432871835456e-01  3.4546318946122562e-01  3.5885916843315263e-01  3.9455962575242925e-01  3.4459243770604381e-01  4.5345505037340506e-01  4.4632836957282340e-01  4.3952183304128239e-01  5.0065274497531098e-01  5.9968658823504251e-01  5.7294236348334004e-01  6.1489356291133690e-01  5.4430982056908506e-01  7.4162949129992117e-01  7.1019694658415233e-01  7.3278736082158480e-01  6.8640313598936464e-01  5.0840919780180882e-01  5.6938238910301020e-01  6.4362180270155533e-01  7.3724281209731823e-01  8.2061162882795369e-01  8.1448049975836434e-01  7.8575596317792196e-01  8.7955677197020921e-01  8.1216471733954698e-01  8.7350176325547724e-01  8.5811003274312525e-01  8.7639366484724246e-01  9.4000291585737950e-01  9.2940475282421187e-01  9.5986922104611372e-01  5.8277656269561495e-01  5.5387988160592361e-01  5.5026435217328307e-01  6.2433224125383635e-01  7.7508576838514909e-01  8.5513646263186016e-01  7.9046730784304298e-01  7.3712324256095596e-01  3.1647404664843343e-01  3.9239766046152258e-01  3.6666450976041920e-01  3.4260549136475515e-01  4.3360170097908446e-01  4.0096030101791486e-01  4.3470586811369227e-01  3.9370887210935357e-01  4.6393879002366151e-01  4.3531124195232057e-01  4.1683645779736006e-01  7.0311279215860467e-01  4.3748907789001806e-01  3.7250072024440434e-01  3.4889274417757649e-01  7.7518196123062899e-01  8.3348948144558899e-01  7.9883094363766627e-01  8.0065741557993397e-01  5.5681401029859612e-01  5.3487142369311824e-01  5.2175206617374981e-01  5.9096092394589750e-01  7.1585426387953555e-01  7.2962935985549393e-01  6.5438385445332858e-01  6.3955286897100005e-01  8.1033274335048977e-01  7.4365169456876856e-01  6.3683552495932505e-01  7.1048678760778561e-01  9.0219579346811740e-01  6.7712753626276390e-01  9.5519467669362457e-01  9.5603803817950650e-01  9.4940498996906397e-01  9.7986540026129743e-01  6.8448343622192287e-01  8.1347440191587816e-01  7.9328299518066847e-01  7.6405346658277451e-01  8.2577209279510533e-01  8.8420437893960535e-01  4.2694217462341733e-01  4.4768298743628954e-01  4.0053901882059051e-01  4.5909151730827552e-01  3.4823738783756031e-01  3.8591134478671907e-01  3.9126463201828321e-01  3.5009327681100194e-01  3.3960497197815126e-01  3.5562098924678326e-01  3.2124732349464014e-01  4.2834335419214492e-01  4.0009601107297132e-01  3.5069144464714380e-01  3.3207077958351761e-01  9.1396583970854317e-01  8.5936934076513516e-01  6.0592935589904140e-01  5.9256645436694799e-01  5.5367145100977944e-01  5.9592455926856391e-01  4.0818935606600021e-01  4.4967267124360039e-01  3.9726880187597263e-01  3.5932284720739743e-01  3.9066246080369249e-01  4.8143858996065469e-01  4.8719683294524807e-01  4.4428233303106240e-01  4.7018965935351603e-01  8.2837423524803699e-01  9.2296802303168757e-01  8.8700711202661775e-01  8.2158471359490415e-01  1.0000000000000000e+00  9.5620116120775012e-01  1.0000000000000002e+00  9.5057066246227495e-01  5.0963779427544742e-01  5.8338529785839677e-01  9.1740091203105012e-01  8.8299816054783176e-01  4.5644210994382955e-01  5.1430060742114769e-01  4.8468832583022475e-01  4.5162750560411563e-01  3.7800001767162839e-01  3.3789368236919115e-01  1.0000000000000000e+00  7.5690052448117440e-01  4.0090881717675408e-01  4.8781823819668135e-01  5.1975961903739409e-01  4.5721713828866062e-01  4.9403328456913981e-01  7.4341031450861961e-01  5.6623748068827262e-01  5.4719790873019603e-01  5.2430199827192747e-01  3.3569684727540300e-01  8.9203952086491867e-01  8.6922827666741609e-01  8.4503208071619795e-01  9.1498405852815190e-01  9.9999999999999978e-01  1.0000000000000000e+00  9.5875321738863151e-01  9.9602515094313426e-01  8.2319069889664775e-01  1.0000000000000000e+00  9.9999999999999989e-01  9.8872701560614384e-01  9.9999999999999989e-01  1.0000000000000000e+00  9.1775028045087992e-01  8.7781349982391388e-01  8.2199428414382791e-01  8.9377688247785159e-01  9.4261707759157520e-01  9.2270456271094925e-01  8.5202084811386136e-01  6.1998049263849908e-01  6.0346148235305708e-01  6.4914502752304903e-01  5.8349331075047206e-01  6.6376823620939018e-01  1.0000000000000000e+00  9.7415886465606594e-01  9.7070338344963647e-01  9.4154662153598667e-01  6.3674384737224987e-01  7.3437444152031239e-01  7.0390583947082730e-01  7.3734013163341516e-01  6.6183407373756176e-01  8.7224316641744726e-01  5.6182782353501737e-01  5.1749719466129762e-01  4.6204563596590742e-01  5.0012886230457565e-01  9.9999999999999989e-01  9.6345575374918502e-01  9.7563151252263547e-01  9.4068846938145578e-01  9.3138740205978632e-01  9.6031474475970935e-01  9.6515132598936026e-01  8.8888979585605621e-01  8.6902321762556156e-01  9.6892529780491288e-01  7.7855539558685349e-01  8.9770767058377909e-01  6.6022977140597805e-01  5.9964129393420040e-01  5.5079956499227434e-01  6.1445068926226531e-01  9.5248342402549402e-01  9.4100156835284587e-01  9.6283738493643400e-01  3.4823759355003359e-01  1.0000000000000000e+00  9.7767309753427289e-01  3.9664915049779870e-01  5.2671616390539888e-01  4.8180218425920357e-01  5.4954779269510201e-01  6.3300971148002316e-01  1.0000000000000000e+00  7.2452128824305329e-01  6.6577841294366846e-01  7.4696269299666129e-01  5.2837730499078128e-01  7.4770737024646960e-01  8.2912772932042922e-01  6.7455199230907525e-01  9.2760111602017525e-01  5.4742580969991073e-01  5.4014337195999174e-01  4.8934965972913236e-01  9.4411529772901315e-01  4.0497603213389810e-01  1.0000000000000000e+00  9.5442022429084328e-01  1.0000000000000000e+00  5.8021929735698252e-01  6.2347432110863232e-01  9.1985586695561872e-01  8.7597007763297741e-01  7.8126332475539739e-01  8.0704478266218171e-01  7.1128263376932999e-01  7.2108995567204970e-01  6.5619293747908658e-01  6.8844039596910422e-01  4.8311763101572291e-01  4.8261245196168590e-01  5.3427400246781942e-01  5.2948683473066138e-01  1.0000000000000000e+00  1.0000000000000000e+00  9.9999999999999989e-01  1.0000000000000000e+00  8.4771862612360105e-01  8.4496965313713002e-01  6.3742728597119014e-01  6.4654771628416530e-01  1.0000000000000000e+00  1.0000000000000000e+00  1.0000000000000000e+00  1.0000000000000000e+00  1.0000000000000002e+00  3.4998430802503605e-01  7.1725745829419552e-01  4.5428130761495833e-01  7.8993155271256810e-01  4.9271565027728359e-01  4.1570648689490763e-01  4.2095523549487757e-01  9.2989981601138882e-01  9.4965134017209030e-01  1.0000000000000000e+00  1.0000000000000000e+00  3.5106443213867961e-01  4.7646326883549317e-01  3.2225115905444068e-01  8.9812030773846530e-01  9.4685162868240402e-01  8.8953799169919479e-01  3.6694890671254815e-01  4.9624557349350462e-01  9.0602934760585208e-01  9.2563840738069902e-01  6.2809799142961853e-01  1.0000000000000000e+00  9.1156540548038745e-01  8.9684648158220404e-01  9.3150796810964842e-01  3.2156761380034232e-01  1.0000000000000000e+00  5.9854265662382744e-01  3.2232426171531703e-01  3.1499835532046316e-01  9.9999999999999989e-01  1.0000000000000000e+00  </DataArray> 
</PointData> 
</Piece>
</UnstructuredGrid>
</VTKFile>