# vtk DataFile Version 2.0
BiV_temp, Created by Gmsh
ASCII
DATASET UNSTRUCTURED_GRID
POINTS 634 double
5.226130485534668 7.510443687438965 6.650000095367432
9.415037155151367 10.25370407104492 6.650000095367432
4.352885723114014 3.833300828933716 6.650000095367432
3.744251542150614 4.351407065600029 6.650000095367432
3.397261167615944 5.083484678555111 6.650000095367432
3.266106164893084 5.882097643866335 6.650000095367432
3.215618786954813 6.690563887038063 6.650000095367432
3.240369872101104 7.499976992233898 6.650000095367432
3.447271596250817 8.281940917680581 6.650000095367432
3.806891821120144 9.008883566238202 6.650000095367432
4.176638383651603 9.73033593511486 6.650000095367432
4.344024580026346 10.52224378329745 6.649417596214824
4.714580092950269 11.22966669626873 6.6487102103313
5.432590357506649 11.59270388922761 6.648347266387233
6.213031213901527 11.81407850093903 6.648125953448476
7.013175833381624 11.93990442899126 6.647999834347093
7.811332447456713 11.80374888562412 6.64813603607867
8.572914403670492 11.52373463157775 6.648415988708187
9.284935377313063 11.1395620989706 6.64880050096208
9.9245842852379 10.64687577665458 6.649293001882615
10.48320337569294 10.0624508883659 6.64987747832864
10.91774801126592 9.379757485414215 6.650000095367432
11.19268543105049 8.619418327444121 6.650000095367432
11.28642459165328 7.813912165933996 6.650000095367432
11.14664789148916 7.025250145349629 6.650000095367432
10.75526662358716 6.329163873681835 6.650000095367432
10.11943029460601 5.828573596204862 6.650000095367432
9.354704997822003 5.575184477417197 6.650000095367432
8.545121699121315 5.53691006826872 6.650000095367432
7.783866956532229 5.327054898317031 6.650000095367432
7.201494938598309 4.764878006323745 6.650000095367432
6.629115806094525 4.190483536462057 6.650000095367432
5.931583642588691 3.783106880044069 6.650000095367432
5.137598086021322 3.653428946408725 6.650000095367432
5.01274742398307 6.727551517428664 6.650000095367432
4.866935259483316 5.93000121980126 6.650000095367432
5.176385809359682 5.238064686101465 6.650000095367432
5.809293587822268 5.669822964246186 6.650000095367432
6.223001533621218 6.366628549269304 6.650000095367432
6.556173695128592 7.107784945496417 6.650000095367432
6.849866833176196 7.865449770386657 6.650000095367432
6.921636139444242 8.650830323598301 6.650000095367432
6.16724301964004 8.772358591048532 6.650000095367432
5.563323831815015 8.24608499139959 6.650000095367432
8.760974016274581 10.71725431967355 6.650000095367432
8.028468261760384 11.04792693107111 6.650000095367432
7.274394346552455 11.31622890130922 6.650000095367432
6.487962230456349 11.21336468074767 6.650000095367432
5.7171944521177 10.98335856328316 6.650000095367432
5.06602283503509 10.59152932674218 6.650000095367432
5.50970327085801 10.14535654865797 6.650000095367432
6.313662697813104 10.16256149954346 6.650000095367432
7.091077151177737 9.992470802920222 6.650000095367432
7.623169161163728 9.397360231132831 6.650000095367432
8.01317104943082 8.706188674600577 6.650000095367432
8.027468963507919 7.903331831790262 6.650000095367432
8.127404769001714 7.109391771109665 6.650000095367432
8.420043358270769 6.363753524905165 6.650000095367432
9.078853877205846 5.976947214189897 6.650000095367432
9.848399744679718 6.183623474366354 6.650000095367432
10.45750683051409 6.702654555322634 6.650000095367432
10.76037900172695 7.42241956406286 6.650000095367432
10.63966563285143 8.214725103242777 6.650000095367432
10.35500745986528 8.965423392445162 6.650000095367432
9.958410260914873 9.664307908804131 6.650000095367432
6.771821543204854 7.455968129836358 6.23876234202034
6.019996830176726 6.015940365547806 5.967363060816536
5.04926149141176 7.138124990028884 5.952297073485505
6.690725308426687 8.151734297698043 5.978249034770772
6.749359468637659 7.56365917151587 5.461382481743121
6.128708547644441 8.050331395209673 5.433560022343875
6.507727252833085 7.853842076741911 4.671776255957608
6.608810612210101 6.844424268928532 5.762281117252351
6.684093059712979 6.99890086325541 5.123824957443979
6.335973706530592 6.386767190295313 5.277023831073834
5.742165263447399 5.856324457954779 5.237375142819211
6.017003023345636 6.196475187283597 4.585235644852625
6.841153552349175 7.197166217421142 4.368632918749255
4.938542242384632 5.546860466859232 6.042786540630209
5.358547217171437 5.775970864617396 4.561097784805263
5.749931977710538 5.927459215385869 3.90131314983894
6.427842066651968 7.685088891675543 3.903275903939081
5.714910177820294 7.732880362130552 4.809038373106853
6.987848484598567 7.223655038778888 3.594104485495763
6.429533559705778 6.314980078660097 3.930515363878889
6.225778619527564 5.930682235845016 3.278299816064747
5.026651829827382 5.545104917381308 5.228512194482793
4.60045130842569 5.907172870071374 4.685652113832711
5.459843404961607 5.789696032171463 3.185799248628304
6.328266022857207 7.369223587809071 3.188235820629462
5.72166606607612 7.408397033278483 3.689625322681128
4.66175121067525 6.212640205854772 5.400739616861325
4.792491285643305 6.660925120150416 4.772620953799607
4.744408150368659 6.346398979284876 4.082902398612102
5.639560320581408 7.035980528137703 3.000218679382281
5.03056407082412 5.770571062876302 3.901929857765462
5.136355505623094 7.014907151438374 4.168974941685679
5.410309720244265 7.682299134278287 6.04099130667317
6.898237745185971 6.334498432826382 3.301437031914552
5.018039225277795 6.69069360605689 3.694328383504308
6.250942301746099 6.982012255948431 2.507076189034436
5.616166922063393 6.529845674525193 2.398096385844661
6.740374074052006 5.870033414822597 2.688282004167425
6.091487588283912 5.756621389372944 2.656534080231512
5.149752470599776 6.43282375891449 3.012012686428662
6.83722980185164 7.256903133481438 3.085814491426918
7.135789066547422 6.814188028532175 3.196868557669416
6.047927411932715 8.29963079543073 6.237880608446298
6.47894388780882 5.635832353351967 2.018562205301575
7.126318803714359 6.067654022263905 2.041682032727449
7.051113283780942 6.95507206811737 2.64685339466634
6.153590596537861 6.551098259120659 2.020801459820136
7.179141992273074 6.35541057844225 2.773111415679267
5.260907648590248 7.463540015634177 5.542767422447202
5.231934948972343 7.300543212279161 4.894472284614045
4.875622200678023 6.340517235601566 6.27981715992445
6.509820617431405 6.649086123213715 4.575787478343304
5.829369347392702 5.87191146602875 2.09272137714331
5.434220819948366 5.866813057687379 2.763703230305915
4.856688090730151 6.175212554701692 3.5671279572065
4.89967510807498 6.921666028522604 5.46865524746171
6.717549801188648 6.668849449307432 2.067205648654682
5.422952825636757 5.519716220444627 5.867783261404841
5.603233236101932 7.535181299817268 4.407614290629233
6.782550968764507 6.7986729545986 4.107894027933259
6.708129453470741 6.240373491483979 1.642394890006322
6.397472863206442 6.578803125675542 6.183746165525838
8.086222137862395 8.305933890837787 5.963011941989395
9.813209289531436 10.21262226769808 5.771472844204791
10.88397024067989 7.846598104560758 5.990575447168266
7.620861137868969 11.09615918454433 5.966041177701923
9.518907305161269 5.874451951311607 6.008644676345263
8.091642347637077 6.665111538316603 6.001551731123927
7.314299846305875 9.656626933189393 5.964164383361076
6.156218463245533 10.91860954373362 6.004178969356547
10.42112297884914 9.464913185359187 6.067612166687821
10.26861952292085 9.700062399489671 5.258428609942262
9.684248378188553 10.18491620223663 4.969993523802386
10.05610025385912 9.666549649088909 4.488957458639138
9.445107645511973 10.09566449279598 4.217770242348881
9.768401182374985 9.533387153233759 3.763049314456524
9.081258277780263 9.864683933752559 3.554774949697388
9.366689145043553 9.25397158247015 3.142778679642531
8.627486600324742 9.502718373442439 3.019444262714783
10.02822350826003 8.894970241688696 3.379215616622834
8.873169459239081 8.822730139761328 2.703223428064311
8.327803125022255 10.08395471832077 3.46282199742565
7.848437654280481 9.633573776602875 3.025283150828942
7.54497554700408 10.18248096226108 3.505901425278728
8.01900438052246 10.55843957472568 4.013102133419049
7.236939135281705 10.5694845627837 4.121380041660833
6.797525453275586 10.05325678778274 3.719563516824589
10.57806685972645 9.144658375819692 4.78233915133339
6.526942268581244 10.36159749544091 4.392109091581772
6.707914007574953 9.596168116178079 4.354457434963168
6.377253907072458 9.890978957357142 5.005909873846728
9.197574026062988 10.60768025241683 5.44528047345474
7.715983743005234 10.8697678469756 4.67173645144317
5.912477477446696 10.11683365067756 6.034063333719995
7.043345214057318 9.303894185407708 3.703070027242165
7.398170683645368 9.215715721871867 4.402981701940383
7.649005935679051 8.80269027026163 3.778332684842365
7.947554919085497 8.656737509619173 4.493960458344812
8.117821916783623 8.178942839379076 3.890508617566188
8.204396511301255 7.92502122675782 4.630881784139394
8.278584303332224 7.422331239259377 4.031010616306701
8.246853441293439 7.686850639549435 3.292347393627598
8.289826007139057 6.916016226615682 3.431837410570534
8.495155014616998 7.199771813868616 2.730426340991204
8.346332692291744 6.684895477085857 2.901718822281862
8.105638366428444 6.202502289335853 3.404828889563083
8.95281249525306 6.679320469571 2.487771133706337
9.210609787982552 7.405411536827744 2.527698354186888
9.672439454387554 6.81894308550496 2.756618209112677
9.913115944268903 7.55993788351967 2.837871257383888
10.26664315884787 6.986984057883557 3.239946690266472
9.937121033218148 6.275674693180452 3.256232238544878
10.41496404383554 6.499735702558835 3.835335091706426
10.00585439930527 5.835482268642481 3.899874201240369
10.65150679215905 7.245840400708394 3.871454976848549
10.67732336907467 6.795225137575322 4.511954565663571
10.86073525417009 7.555668129078516 4.560279318830393
8.172449038575801 7.151516870606036 4.759975415916962
9.489362833015909 5.64113263905633 3.346095295271287
9.425887432993017 5.338536999151709 4.063343734421842
9.855314331699292 5.640949690504977 4.640311715435178
9.157485713726095 5.330636009788537 4.794796372050017
8.706568987807538 5.08012113211012 4.21161633722836
8.383422266840761 5.326609216699104 4.875312933942257
8.753479174040383 5.777611557483537 5.978771918083751
10.71040756478789 8.024251035908605 3.949308577780673
10.81445589105997 7.121564313938801 5.211602184020693
10.50071630425237 6.404710930607088 5.168089644322055
7.712481838277963 9.083553280885177 5.114410294837137
8.497497318112334 10.77045849964813 4.605629308373471
6.380067935772407 10.67309562927936 5.100696206225528
8.509579665370083 6.048532144617098 2.498172570724159
8.023316858232196 5.511688646711175 2.929082015104244
7.964146714411194 5.313351193807242 4.219808215012071
7.99947717441591 5.963687238511867 4.646032045161984
8.155745259061884 6.544520590755567 4.09403537127637
8.141494033786058 7.651550782981474 5.362577390322611
10.80898990806865 8.636863257227375 5.999349107747889
10.96599676100225 8.26054515948749 5.321694166798229
8.536316270421555 7.975610915247557 2.623032193737313
7.972208277146128 8.364426878183442 3.006354342351456
8.182186899949709 10.97129472117699 5.303491839792938
10.24058357754159 6.340300798603788 6.103264468192031
9.422066062981987 8.147619488955407 2.668136935089562
8.208128315078685 5.882198611888867 5.391409426114011
10.69549720931808 7.026115607704657 6.127823001150633
7.088921733217688 9.551733775458295 5.044306238234896
7.842439265069173 9.065468619023054 6.078530622306776
8.814371440807419 5.422545758621629 2.886467349249686
8.400545585972582 5.050270070729315 3.440074871073402
6.627776747350234 9.995330025894523 6.017499879980657
10.34213401201011 9.139406854713583 4.117546874446161
5.509096871485878 10.58844093365528 6.203235798353059
8.08614325493175 8.397645453848945 5.226263802987567
8.145491364370477 9.030538338930464 2.732861095893628
8.76184783032908 10.3961005403674 4.044924942941055
10.42809695906081 7.69898045299715 3.33578421358089
9.436027360170399 6.182052122868321 2.804608711621128
9.572526041624068 5.659459329880978 5.365098693965023
6.854346598359568 11.10935983823495 6.033886011814858
7.180514278355137 11.00316689234198 5.374340236903959
8.419360540289443 10.9371718111053 6.114021322319868
10.3166445198915 6.10014986037232 4.501660291029309
10.03739043640071 8.274020617644551 3.044616017309713
10.8755943367772 8.315821793423099 4.635953125154476
8.068795314516438 6.590067940967236 5.101453916367558
8.062424822537693 7.504472186911943 6.19357482058843
10.69796604327625 9.12604678702319 5.592874055352947
6.987896868655927 10.81531901609578 4.803205562809975
8.835775583693113 5.533164944476173 5.473267539748807
9.095019557769739 10.53799559514002 4.696003946439845
7.840019602468604 5.546188182380964 3.657251298579955
9.1750948621329 10.60836098792917 6.255621306318861
9.092240317485857 5.252380937034603 3.572205518953413
10.46752368216944 8.621054543823735 3.759485499268899
6.048650172555228 10.23307950976367 5.467069006845182
9.577522388346454 8.727653226070098 2.931620178222911
10.15149917321886 5.983170475100186 5.164930985418373
8.080874343176612 7.12229361927162 5.510241380102741
7.497681915343353 8.953529541831433 3.152482267816895
6.71005777692034 9.821984295396408 5.472805832548607
8.002966822186952 6.070463221969414 4.155667967821124
10.94080882823077 7.708869569182491 5.444751544585018
10.58561069417859 6.652086191640608 5.71472765810161
8.33953638862344 6.056261344669098 6.011639922568442
8.755464804550343 10.79677892279203 5.163672912054666
10.0351397234833 6.058360574768052 5.753387722468609
6.543294900170685 10.93618079898923 5.62530803136862
7.197438521939076 9.667537526119776 3.242741826351671
8.346682983966543 8.481107530250084 2.635155076743102
7.935188925947987 8.833742576692222 5.621659840806783
10.81706855046655 8.811292815183194 5.153679048271639
7.595862467497755 9.309532993777955 5.674286267650666
10.67953348460887 8.688908485459573 4.311685271280868
9.839631299396322 5.392343171599611 6.033212965159813
5.546160071296765 3.647432552152363 5.956984527033473
9.777646761772816 11.07407796882427 5.858102856231629
3.611074563634873 8.653331013975365 5.948939341885645
11.49918212479976 8.246878830206162 6.0039490255421
7.421316808209477 11.9242534441682 5.948880157558518
3.043266154537155 6.273991202432314 5.977442795952095
5.136538176008673 11.28599803220769 5.968625352299767
11.18378880858594 6.546295208255332 6.01208308275595
3.417496729207479 4.64480382706321 5.974418100470107
10.91181938379217 9.855510194182227 5.996094974066613
8.275367118952659 5.029788731820849 6.108143664135703
7.096595303094936 4.297026919835982 5.998165984088383
4.455915712567386 10.08445848532197 5.982767400651555
10.5351760079517 5.792591468142069 5.96072801823863
10.22219895068489 5.410262403994223 5.324754748260356
9.507109627132508 5.04497637044906 5.387116065476775
10.96723982283415 6.123448079179544 5.300474376402073
11.35929754178684 6.839346267135058 5.270155550462943
9.011753882098217 11.48455468513561 6.041160512608297
9.259142587712521 11.33157749865047 5.26528610694602
9.918376850753333 10.89450839636648 5.077928608633688
9.37263593209213 11.07156998547668 4.50790477648317
11.13528201748484 6.467254803640457 4.58948047678382
10.00623272859864 10.60355331043592 4.329680805239217
9.418585747483384 10.71152321144371 3.786887308845106
10.02845388125527 10.20781698112927 3.626666795411153
9.368153770769926 10.20241899192833 3.162855178907356
8.722301579893712 10.63119859267482 3.386964462481448
8.638066720594955 10.01120806468003 2.877547983720061
7.985329712848148 10.37153268927131 3.185900422019077
7.90468959368661 9.705516688549865 2.737889838080788
8.561146298542109 9.311486199560727 2.483112024087967
7.826591734905143 9.031143879944699 2.301831467031767
7.176996678382125 9.371717300764766 2.637958394372407
7.087565682653787 8.792589748970354 2.083610860691192
7.735365860392398 8.391358682067676 1.819282141635243
7.014177022791054 8.258563002744522 1.483889340273784
7.630425703571814 7.763915564568317 1.323997877477015
6.929080635362866 7.672198592377534 0.9372761327632146
7.495913536661206 7.101531076989231 0.8848346662549278
6.280221561097477 8.061322662571818 1.215301549757266
8.146736577953865 7.14593077221954 1.358240081407252
7.952859708458336 6.448457702248175 1.004040077333899
7.272485411183859 6.391528790263634 0.5758580925358489
7.678783145872185 5.72535200009296 0.7772564136964211
6.930924181482014 5.667602595421434 0.4826500139559423
7.265310432175667 5.038560138968277 0.8593001813804019
6.469131727021322 5.058025740989239 0.7366105759225723
8.3039068347494 5.778843510374459 1.28304044853723
6.778768692906967 4.56720524093263 1.295627897763526
5.98379913284233 4.695595209882701 1.267951297948475
6.311139887105911 4.332107540754272 1.908173869506119
5.524667292407701 4.506569429766822 1.90236210889143
7.113062672376874 4.315417678895589 1.984083842562166
9.87150734134031 5.097267572600519 4.670973083950754
6.447267929775013 9.059292592860773 2.495178321305711
6.546634652080586 9.597439877963623 3.087757053496296
5.840761808768486 9.216782813160457 3.002834898198131
5.857679931459135 4.169453985987448 2.553769411628644
5.072640320147723 4.349451094271759 2.550192633535763
4.796066236327404 4.841725511432232 1.975932751727675
4.355272385050953 4.705357024587467 2.636056014629616
4.196282318417307 5.342945656344036 2.170288457267179
9.154181281096347 4.736389409132027 4.732312353351223
3.805021065622008 5.246056024681159 2.867630255548317
3.798465024991342 5.962014601267621 2.498262696224574
11.4050684055763 7.225654235806315 4.565014310298629
11.12592884141135 6.875788695191254 3.895952055263627
9.487079592396853 4.850111358817195 4.007821929012856
4.614918486522202 4.183389828700495 3.191634593427572
5.946536230481604 9.740066748945948 3.607259069322545
5.28166164506581 9.284668299842247 3.579890831256889
5.1370677572143 8.829195462850597 2.930005888063982
4.632231914664485 8.806601112448107 3.558800204464417
4.631607157643709 5.474538418474188 1.505402564809871
3.474499128645815 5.884323354871532 3.232047356039499
8.769510532476227 4.489376958700334 4.069132916917429
11.27982710887532 7.665815122141693 3.902860872263354
10.89675292348474 7.335884318048405 3.276331881830277
9.949662228347433 9.656026887901698 3.043307967846934
8.0713549062982 10.95383933665696 3.737401336607854
3.4919522367313 5.170777644801237 3.606581566622497
4.496432631490814 8.339038886860017 2.915510956750794
4.063845776099153 8.234770780317405 3.588513470829588
6.497679824360798 6.33615180921751 0.3615195750809457
9.061550226533738 4.684515090271273 3.344219387174745
9.706113901860672 5.165608896996588 3.299742068414512
10.54854642407046 10.01751935104129 4.213468190000215
5.381028425605835 9.817596267092048 4.176804461281584
5.998190980009223 10.33531105796559 4.148318820556579
3.222464113616669 5.823466616060489 3.995231878290495
8.337741827828495 4.336398784818658 3.406463087795946
8.013751698271289 4.218220404756958 4.13449748644046
4.187190339931625 8.714441566791223 4.225597274805704
3.685294619897949 8.085153728341176 4.285511279478874
7.570569980817464 4.099309416501709 3.472270371205903
7.242263822181719 3.995516813766318 4.200704260554227
8.595086861502923 4.605704423122453 2.692162071204856
10.94103778931735 8.136979955522182 3.344642934231541
10.45371551053829 7.806071206571017 2.795385873153129
10.36541333864839 7.005917343897827 2.768839800055549
9.837535448016222 7.482129463631877 2.39002229923582
9.74482739535453 6.682112754371943 2.370035770166552
11.24448213935021 8.462427738629032 4.015934028445077
3.984602168507492 7.718089028938408 2.973922935141111
4.416753235571063 7.822729840415317 2.300845642003663
3.282510941788316 5.119476494523784 4.383320057987641
3.333608249283157 6.550361510898955 3.66426442650689
3.109021841200359 6.48904780008797 4.436558631357932
10.80057392107481 6.140503847505112 3.934362692460924
9.874658579391886 8.279825777278859 2.496559269628208
9.221349683651807 7.948198902916436 2.161150597948141
5.431906596773971 10.41415087892066 4.716740383743089
6.041576608520655 10.93991892105014 4.679438405986654
6.640489766981304 10.8227539200526 4.152427450173914
6.725146418276799 11.36272821115088 4.745429301086705
5.692627272662461 5.268080231260724 0.7815544850223086
3.687370073902978 4.51657798619103 4.034367040853439
4.877857112054949 9.835948044670445 4.805862431530237
6.782620561944796 3.945863115392739 3.540871856550126
6.459746930668583 3.81599355556674 4.267440146429808
8.520968388338645 11.63959892370324 5.411644758287904
6.13807363063337 11.45765625714044 5.290560330929051
7.658979780481698 4.204758824170464 4.857787657547625
6.191220252005877 7.434699517471467 0.7161311997778274
5.55715507166454 7.716153463543872 1.126695434745836
5.496751755740837 7.025364937813336 0.7155941930434926
4.915323512009353 7.239740028502301 1.231168238885312
5.664126937489089 8.290862209790465 1.681842839024389
10.18962120605619 6.225312323283337 2.862487612458176
9.58338276741719 5.896526988855241 2.446108482549873
9.124473694589657 6.357911359673464 1.971173128440172
5.986611482507065 3.849157946801433 3.616484958830074
5.667697863906621 3.689308680789008 4.338405431889833
10.83381030937664 8.920786665760836 3.496235366687788
3.517856102732258 4.485753258716835 4.821114131925782
4.067763798938227 3.988274990879164 4.507867772016567
3.934212501163912 3.992252904371926 5.301439259105885
4.614461472991305 3.677917056228572 5.009461524285637
3.986715679247742 7.148067647579209 2.403256250552019
6.129848835760889 3.727735662080188 4.996486862442106
4.935051579430835 6.490352223915865 0.9348082756541356
8.984675859013247 5.565991817398984 2.02021880976536
4.41396853633416 6.678664883833281 1.520248626527842
3.801146814199663 8.570805852711073 4.919997383098531
3.353271230999533 7.903417738862746 4.998926862899381
3.18034794605234 5.12147782415599 5.181960204935351
11.54439161964726 7.622279030672594 5.251221170326202
11.05155581572745 9.219651879320708 4.211998363553504
11.37804093360722 8.73144603726746 4.763571030415801
11.11529023725329 9.462258116221482 4.977479340105947
10.63445411490188 10.20353111761986 5.078914700704475
3.326766141526482 7.205338896511838 4.135510785285843
5.575003843058126 6.250639567783624 0.5074257309543215
7.342137762812127 11.20926023524767 4.248704461898663
7.466599538546913 11.62199089206698 4.931042097309628
11.29125998035569 9.084940770293969 6.102996637884479
7.344634000609059 10.63109979311645 3.601648843564726
8.135083654301017 11.39718780966312 4.446268140165667
10.49955549414368 5.594736121894377 4.591793920595928
6.403257982765934 3.902255191885639 5.938652135392494
4.773231541106883 3.751480064618017 4.237189730207739
9.22085102560416 8.729922662108811 2.357117826758178
4.486757426080608 3.693346292714384 5.802939269299147
10.4285740254018 10.48410716067316 5.980455000691904
4.321966812878646 9.18576517307438 4.867380950368656
4.922442595304111 10.43705264646825 5.340487761809857
4.13589257089072 9.356404724873721 5.948451899083406
7.105362587044477 4.099356109551375 2.860117127240395
8.744199000263677 4.789251812630562 5.42360018084011
10.29326351885181 5.526994542101271 3.816938705750577
8.553124135702875 8.387999610074939 2.062214879442196
3.133715323563499 5.470036433834279 5.966388551604354
3.026299044962137 7.00460499726041 6.016631058915035
3.159153750131707 7.79931418907794 5.89674998541268
2.994718030991228 6.67499822850341 5.314108305986744
6.860219674037248 3.997403774795884 5.361661431702926
6.645921744838295 10.22760471542005 3.607624077068786
5.681784999489491 8.780074403819619 2.395618375902373
9.213880549082258 7.157271268130814 2.049759417357514
4.765111815077173 9.27735815010155 4.200837659235876
6.613953645836716 11.87098588093532 6.049918101571592
7.22636224103729 10.02245895438008 3.149764965686773
11.46795648767793 7.375021266312785 6.113944152376027
5.474129257660977 11.01657639839315 5.249462049498547
8.411429451716369 4.458504210786985 4.782297282020103
5.028238835406764 8.402814780606271 2.311191647850546
4.990580120325451 7.908683035578354 1.715161442901876
8.5987565993382 7.664685395347837 1.822284136150564
7.84552906243683 4.270575224248264 2.780483203931253
7.955379105279086 4.57985253812711 1.96057093048005
9.069096407771234 5.177865160553978 6.050346335835433
7.966322686659741 4.552146456385106 5.519240471709898
3.624137100662045 7.009603462220156 3.110246682794839
9.194143108553003 5.048293767642193 2.70775949360274
3.017559070795287 5.916738735142532 5.308699008443011
3.944842963440444 4.60725058699947 3.319352268330748
6.362410990040376 8.566659649367562 1.831414917461264
5.233827207871654 4.951953451595497 1.401093040534563
5.836538245333081 11.61337087307554 5.989552900911827
9.318681034147296 9.452714534111264 2.665386210267249
5.396166435068745 3.988410407126463 3.193114087554963
8.552351612232069 6.488748052169881 1.513436558577502
10.46864548992903 8.563384048345652 2.945834461198214
11.47220518886373 7.993410969301639 4.57816492112766
10.53538443100258 9.595438726343039 3.579471798183524
8.75886664951196 11.09882412433406 4.043539763188605
10.73171520877607 6.580280049894339 3.334782764032526
5.337402893086517 3.606055491180695 5.067663164595054
4.160058729312782 6.004700812284036 1.866769475992664
6.813977706528487 7.000324747249498 0.5594877385579798
5.121888260625306 5.713986334252649 0.889983885866104
9.909318047029938 8.996291928108406 2.705317284803746
6.865860353963958 11.74255937534158 5.407571990570187
3.650311412381438 7.602599954023594 3.643705551604604
7.901100373555431 5.12096485474643 1.208434603773918
8.464637593801971 5.174074805312984 1.722809384940936
3.128501075806922 7.190936152432636 4.867557891080442
4.215665456494158 4.098949311127334 3.828260628788392
4.465893913236943 9.681239766266364 5.426377064610007
11.44885168659748 8.738512526484172 5.551748620549493
3.871451223118184 4.072678903029476 6.062745219299265
6.197370880949252 5.663369523114772 0.4333952655969832
8.127490733039533 11.81001867266233 6.00409811328719
4.455751175116268 7.369530137880775 1.809823636561615
4.633490552215735 10.75724344894151 6.057218323237999
8.774236468966018 11.39182011096752 4.740117746077217
7.438673544904912 4.610752687208707 1.462556517772752
6.424179382885118 4.028293365757354 2.955335970189557
7.622376866662496 4.728648346786463 6.125823298831449
3.086399925403588 5.736268730648801 4.695314646080389
3.97566679809511 8.99860755223793 5.449787714131615
5.272311293517032 3.778011823023814 3.865008702639744
6.064931479043591 6.855507567491058 0.466745590740425
10.10950532370714 5.65378304776361 3.218821318421913
3.946220771439732 6.536711336784267 2.201001025667519
4.576201618200766 6.075029059745381 1.303906134546993
7.897109189551788 11.77277613655224 5.41040176591124
10.39385986636313 9.174313984778186 3.115275237844921
6.892000171707392 3.929483838860494 4.778591312054026
11.52693154373706 8.271355837808231 5.168280492817566
3.601498694841061 6.421540101313966 2.902476126630427
3.056598667787563 7.342644379631645 5.523443782031021
8.789379353412027 4.984832063981092 2.263149660017806
11.17044740206743 9.45108029836253 5.66695980842664
6.66965082784389 4.170811785514042 2.396431503836614
7.432637361083444 4.301206627259457 5.513519912523583
3.401027628002561 8.239280415968008 5.573006658458283
8.699760990259756 7.049979258483198 1.724841600862524
5.102078853818479 3.601161904621561 5.660874350680366
3.551466165574551 4.383680230771255 5.479248529899995
8.116962376503643 7.968026811732578 1.706844639820906
10.29291260032816 10.63194546218373 5.435590034145934
10.50516809973997 6.014464907488524 3.44837438641133
5.983835227107472 3.721500122414477 5.63301226686396
8.742067216987145 5.932906461178344 1.678694565875146
9.617124193207069 5.428999606023716 2.795504702495894
4.720698059747702 3.918514875467174 3.708511385902518
9.978523772735901 5.177068481396188 4.124705043063123
7.030564756275302 6.449068183200065 6.649881250918556
5.420023773263657 9.020174360128539 6.649151542781685
4.760866502312221 8.168804844205573 6.649310539667143
3.928569059492577 7.073847528786892 6.649516098442763
4.422425918944993 5.316040915773268 6.649972905043127
5.864759754024294 4.908751971385946 6.650170765635888
6.603136406202097 5.669718289696444 6.650038991599066
4.900403280992913 4.420274744939701 6.650221372778153
4.105971021438669 6.013048629283603 6.649783412448845
4.613814920408507 8.963511804757326 6.649109298517986
4.97263039065109 9.621997420796518 6.648975859640799
5.924690969426443 9.546116996005971 6.649060074636206
10.30292114881204 6.249614694926702 6.650155958233604
7.341655743032439 7.239063490190071 6.649712889439638
6.646898385906642 9.347612893251377 6.6491578412654
9.706447314289711 5.794291041763682 6.650224087513545
7.732534744613371 6.52417356621072 6.649911838214424
4.508470533324084 7.496854682568062 6.649454589817326
7.282239457464235 5.804154368258789 6.650053730958914
6.548926708348038 4.98360684048656 6.650200179496079
7.428239299420523 8.208566660120875 6.649485816211469
4.087947385490706 8.03818754923042 6.649295310769551
5.554294849674081 4.325515243843762 6.650289464783492
4.304928271620734 4.67793811102176 6.650118165905312
8.040054861353115 5.883389709826192 6.65008719519906
10.86753963107732 6.724109380297156 6.650081012734057
4.745690266261795 10.13312316540809 6.64883725685061
4.375694714559436 6.603388998019661 6.6496601823929
5.211171295159212 11.08730844973455 6.648640121794675
10.64504879574796 7.047343946571246 6.649987888162594
9.898348153148804 10.15410571972394 6.649189265725354
3.847342193889265 5.475284015509894 6.64989477186909
10.44979931809781 9.56154479541626 6.649369932884924
3.775910251780977 6.503084417184237 6.649642734041379
6.023315742248282 11.36397805548953 6.648629886655935
8.948228883645289 5.591678483695688 6.650220255797302
7.458758868525672 8.848972326997114 6.649333974588915
6.110039570523928 4.403935341312734 6.650309122533929
9.466523462750907 10.71374825034396 6.649024801810113
4.115748756018617 5.934741897461988 6.098955140658835
3.746627943226822 6.025900650534712 5.176380782013645
5.528113627040067 4.467305114920963 5.461740020706642
5.850707275017339 8.243326795802309 3.075654317250047
3.899728534426503 5.943338787247491 4.144288292258303
6.883177264506047 5.532528543890325 5.691653118349413
6.155875886217105 5.426518822033933 4.635785425562789
7.172849676159231 5.091897042882298 2.840936718628746
4.39181725734861 5.023229110860352 3.935886707277853
5.393788519478029 4.687950856559192 3.937253197865259
6.120308855852842 4.975827236661914 3.717859376694421
5.22272495278042 4.961809127297199 3.137940269715164
4.062794156690477 7.644932016095232 5.733532064418218
4.967695098221804 4.47904353392678 4.606033428115949
6.852184187975092 8.312450179290149 2.960715532428836
6.285042648762914 4.795092578993073 2.917752270776354
7.007008734708052 5.159659291739731 3.831424209850642
3.969363849654249 6.716939014443721 5.842247262077172
4.151947260093772 4.968165374278085 5.740242376546427
7.126666079196974 5.250961116176543 4.636147307436827
5.535168288593132 8.861348392961524 5.531410846361664
7.743055388963656 7.276327735198678 3.324421671479502
6.288248928141845 4.495022658437046 4.486926350840838
8.792170943125498 11.07435042388579 6.387194151040167
4.68004503938927 5.239916863787927 6.293382922196262
10.51837734482941 9.606919530721051 6.362368485750786
5.200108463722242 11.03350125836933 6.339468526865543
7.472232686051893 8.442809000029394 6.291150692362732
4.859969406940404 10.09493754966921 6.239512065098407
6.87849528198653 6.422037793597741 6.279876724876717
6.136875655664349 9.609186705164172 6.099371084053985
7.545758121828772 11.52410291047491 6.299782952655439
11.03665824958042 7.474913170379154 6.337482987246964
9.610569900982002 5.730758718239917 6.292292248127048
10.51407277751369 6.282128203046589 6.249161916137213
8.520528154811631 5.786044017186702 6.355416499854749
5.550765093005448 4.191615482998547 6.176140024428165
6.443815469899814 11.50995631414448 6.332538007176691
10.11260789518948 10.1331449722781 6.269000842847283
6.094744268775823 4.424721278604538 6.261395089415005
3.60541635748474 5.479484183392708 6.279872674274475
4.561115604091404 6.597368383171885 6.371451582630143
4.843484545471813 7.827887782975537 6.180599639182264
9.638751201599717 10.64045019310369 6.281011597100132
5.803892227199458 5.005035397270303 6.177876180713061
7.585065330573652 6.815459516745336 6.327411303605884
8.209530023756088 11.37271877774286 6.343673008217714
11.00086452045641 8.532768873699984 6.318760330737069
7.943395686443895 6.544606305252493 2.061841536844816
10.8289339190881 6.63662657766897 6.30896091954586
6.326182035820177 8.983574822904641 6.157011570689964
4.903899799263859 10.54140533949773 6.373450881906328
11.0788794395612 7.974098927593661 6.351468570143042
6.611032887679458 9.766301299880768 6.384419567302162
9.210473820640484 10.68180465789226 6.49995357215751
6.299992487482231 5.679644917789951 6.283405358621915
5.295594501808864 9.687109461887182 5.905200371395963
5.982369200075943 11.33850876411662 6.328465348655119
10.8107493628173 9.150930238047259 6.36216765342787
4.320900271072408 8.537744863871103 6.045461018506772
4.903990556635992 4.20248163206912 6.144150507416207
6.971688982609635 11.55142022318021 6.326721242498926
5.823682848523798 9.022291087717786 6.259070812942402
4.290899127593821 4.267150549872373 6.25658668116952
8.948051151568677 5.567376799474157 6.190760948944207
7.215224987045326 7.209962991132617 6.370470955944683
5.627837398994186 11.14653068754885 6.152343581610793
6.50304676638809 4.628134758845001 5.990484864490473
10.08222649497329 5.884414416298043 6.192881924558709
4.704626201379924 9.35663903814071 6.082230658534841
6.887824956665827 9.296781555666822 6.265622394019332
4.530039791441588 7.158519485007201 6.271757797430225
5.081816975109305 4.852777125798809 6.093937902172561
8.060754269809994 6.35164442451048 6.419289158668657
10.81847755065968 7.006356018372369 6.30668494532234
7.762609860279446 7.52677906286582 6.461044263129771

CELLS 2018 10090
4 17 44 581 18
4 348 372 155 349
4 138 411 347 283
4 573 574 568 379
4 368 412 562 367
4 409 152 410 408
4 339 140 465 285
4 246 198 199 577
4 624 13 266 584
4 150 374 153 233
4 258 394 408 363
4 130 226 206 483
4 104 453 399 501
4 370 174 228 208
4 495 104 399 501
4 477 435 559 575
4 218 68 69 127
4 291 460 143 145
4 337 327 179 338
4 171 391 439 362
4 231 243 69 201
4 363 358 190 239
4 389 173 175 360
4 350 490 366 562
4 389 176 175 173
4 71 161 160 162
4 338 360 175 221
4 101 447 94 100
4 482 125 305 344
4 95 567 80 79
4 558 575 91 559
4 445 187 336 352
4 542 36 582 523
4 564 567 80 568
4 20 64 583 551
4 365 447 446 94
4 586 426 614 272
4 115 575 120 91
4 467 338 175 179
4 337 181 464 190
4 542 4 550 576
4 584 49 12 609
4 467 327 179 177
4 574 84 85 568
4 2 542 621 3
4 258 394 363 239
4 412 405 477 92
4 575 558 265 559
4 275 429 451 234
4 442 148 417 151
4 460 143 145 142
4 185 314 274 223
4 578 425 479 378
4 275 186 234 223
4 266 13 12 584
4 77 73 230 182
4 106 110 105 579
4 561 315 438 317
4 435 575 265 559
4 592 25 607 60
4 136 504 232 410
4 357 503 450 197
4 567 393 571 492
4 393 571 492 421
4 392 379 488 573
4 473 225 415 497
4 428 573 379 565
4 259 451 131 223
4 370 174 208 361
4 241 228 472 144
4 74 563 564 577
4 569 319 461 329
4 84 246 98 124
4 291 290 292 219
4 216 152 347 138
4 127 231 69 201
4 511 295 297 110
4 115 558 91 78
4 571 87 79 566
4 456 341 377 566
4 623 69 231 243
4 192 282 180 191
4 444 195 373 382
4 350 335 367 562
4 436 580 400 560
4 326 181 327 180
4 405 412 354 92
4 489 271 563 506
4 326 282 277 191
4 563 436 560 580
4 576 510 395 397
4 269 128 424 136
4 75 563 564 74
4 71 211 193 160
4 79 567 571 566
4 152 409 410 256
4 460 291 422 145
4 54 555 53 585
4 181 326 464 407
4 196 515 462 391
4 251 242 274 223
4 195 233 373 375
4 150 414 374 233
4 259 275 223 274
4 120 575 67 570
4 137 128 136 512
4 299 302 125 303
4 587 603 72 623
4 577 116 199 124
4 414 233 415 375
4 378 614 578 240
4 593 57 543 28
4 489 271 30 563
4 125 306 307 305
4 249 537 132 209
4 233 225 415 375
4 181 326 327 337
4 358 228 463 359
4 545 609 586 11
4 584 12 49 547
4 630 86 560 576
4 225 473 415 375
4 145 460 142 241
4 35 36 523 582
4 26 626 273 259
4 460 145 422 241
4 24 544 548 632
4 185 314 223 186
4 473 225 224 252
4 238 346 328 345
4 238 213 454 345
4 565 85 98 102
4 113 617 578 491
4 145 422 241 208
4 418 206 415 157
4 587 39 38 519
4 614 240 426 158
4 198 383 188 577
4 86 75 122 560
4 414 418 415 157
4 314 185 419 518
4 414 374 233 375
4 563 75 560 122
4 108 310 376 307
4 203 202 129 263
4 196 515 476 308
4 390 196 391 402
4 15 46 589 16
4 203 480 202 263
4 115 35 558 78
4 542 4 576 3
4 552 6 575 5
4 627 614 479 272
4 93 412 562 92
4 416 480 263 202
4 603 535 532 519
4 22 416 263 605
4 587 563 126 72
4 491 425 479 578
4 580 400 560 571
4 79 564 80 76
4 275 429 234 186
4 27 622 58 591
4 187 214 352 198
4 570 354 405 404
4 75 563 66 122
4 480 203 202 256
4 185 314 184 518
4 546 599 558 575
4 558 35 527 523
4 192 273 276 248
4 92 477 559 575
4 539 623 40 585
4 337 181 179 327
4 61 24 590 23
4 632 61 210 60
4 277 192 276 248
4 539 41 585 40
4 140 339 465 498
4 467 176 177 175
4 154 348 578 155
4 139 141 285 140
4 284 141 286 285
4 403 401 387 101
4 370 228 241 208
4 422 370 241 208
4 71 154 211 160
4 27 622 554 58
4 90 94 364 342
4 58 534 27 591
4 139 141 284 285
4 253 159 316 244
4 187 214 336 352
4 59 26 534 591
4 72 132 230 243
4 522 536 570 540
4 618 576 423 621
4 349 154 153 155
4 149 414 418 340
4 23 61 62 610
4 328 187 336 323
4 59 58 591 534
4 467 327 338 179
4 259 251 223 131
4 520 620 614 530
4 163 165 579 166
4 574 236 98 246
4 165 167 579 166
4 357 213 345 454
4 71 160 193 162
4 358 394 463 239
4 572 295 296 294
4 123 440 331 333
4 26 531 592 59
4 104 484 94 101
4 614 620 520 578
4 301 511 168 448
4 110 511 168 301
4 565 311 505 573
4 569 567 568 80
4 632 607 60 210
4 84 574 98 246
4 502 433 435 575
4 45 130 604 226
4 170 200 98 246
4 171 172 439 168
4 116 74 577 199
4 121 297 299 298
4 24 61 632 548
4 215 628 611 588
4 36 78 630 582
4 22 610 62 605
4 216 258 408 152
4 561 572 81 89
4 622 593 58 189
4 108 565 109 102
4 232 152 410 256
4 90 123 343 96
4 573 574 379 565
4 75 74 564 76
4 565 311 573 108
4 444 195 382 252
4 473 225 252 375
4 423 398 397 560
4 480 416 232 202
4 580 436 400 499
4 152 136 232 410
4 350 368 490 562
4 363 337 464 190
4 563 580 560 564
4 236 170 112 98
4 357 214 197 449
4 560 400 468 571
4 10 272 586 627
4 379 574 580 356
4 427 10 627 272
4 444 372 373 195
4 411 152 347 410
4 55 539 54 585
4 200 246 199 124
4 225 130 497 264
4 227 178 369 430
4 592 248 210 267
4 218 68 127 255
4 479 627 491 578
4 181 229 464 190
4 61 24 632 590
4 11 12 49 609
4 178 185 184 518
4 479 427 627 272
4 314 328 184 518
4 205 295 294 292
4 304 308 109 475
4 586 426 272 485
4 216 152 408 347
4 288 141 287 146
4 291 143 219 145
4 293 442 147 290
4 150 374 417 437
4 284 139 285 283
4 216 347 408 465
4 174 172 208 361
4 141 139 284 220
4 138 347 285 283
4 363 394 358 239
4 216 394 239 144
4 205 572 579 163
4 359 370 174 228
4 236 574 198 246
4 194 418 157 206
4 417 414 149 340
4 390 196 213 222
4 513 178 369 177
4 226 381 206 483
4 51 533 588 611
4 141 143 146 288
4 237 156 278 261
4 44 557 612 18
4 296 121 300 298
4 121 110 296 100
4 227 369 419 430
4 136 137 411 138
4 178 346 518 184
4 304 306 109 125
4 337 181 190 179
4 71 348 440 578
4 258 216 408 394
4 163 572 83 81
4 247 203 129 263
4 379 565 355 428
4 220 194 235 466
4 574 379 355 356
4 565 449 355 428
4 222 390 391 362
4 214 352 355 351
4 204 511 448 168
4 338 358 221 190
4 192 227 180 282
4 323 275 314 186
4 337 358 338 190
4 198 577 188 199
4 218 164 201 69
4 77 200 182 230
4 152 136 411 138
4 145 422 208 204
4 167 166 168 579
4 409 480 410 256
4 602 594 630 560
4 189 209 234 270
4 383 445 352 198
4 594 33 32 541
4 428 573 565 505
4 314 275 274 223
4 472 144 463 498
4 213 357 503 454
4 180 227 177 369
4 448 508 439 168
4 389 222 173 362
4 323 429 186 188
4 572 83 105 579
4 183 346 494 178
4 390 222 389 362
4 172 448 439 168
4 222 171 173 362
4 478 456 566 329
4 253 293 316 442
4 90 561 81 89
4 171 222 391 362
4 172 371 439 448
4 173 439 361 362
4 455 368 435 559
4 382 473 441 252
4 158 240 215 588
4 583 596 135 64
4 374 233 373 153
4 14 15 47 595
4 473 224 441 252
4 282 326 180 191
4 191 443 277 407
4 176 222 389 494
4 251 273 274 242
4 435 455 559 265
4 203 181 464 247
4 231 68 69 65
4 138 139 285 140
4 163 71 77 164
4 121 297 301 299
4 240 372 444 195
4 563 209 452 188
4 137 280 411 283
4 175 467 179 177
4 253 148 147 442
4 172 204 208 371
4 136 411 512 424
4 359 370 361 174
4 139 137 138 283
4 128 136 512 424
4 596 19 549 20
4 358 239 221 190
4 288 143 146 147
4 580 400 380 499
4 91 87 576 559
4 147 288 290 289
4 565 573 85 102
4 259 451 27 591
4 597 32 31 556
4 578 520 521 43
4 266 444 217 426
4 334 469 322 118
4 335 324 325 119
4 297 121 296 298
4 182 73 243 69
4 125 493 470 344
4 71 348 578 154
4 330 154 151 349
4 209 489 563 452
4 572 293 315 316
4 288 147 146 289
4 571 395 576 566
4 348 154 331 330
4 209 489 452 270
4 567 79 571 564
4 633 585 231 623
4 576 510 406 395
4 165 77 200 182
4 457 572 296 294
4 186 429 234 188
4 84 116 577 124
4 489 563 452 506
4 622 234 451 270
4 196 112 109 197
4 117 458 376 310
4 401 117 496 471
4 383 445 188 452
4 558 550 5 598
4 445 429 323 188
4 343 90 364 342
4 370 228 472 241
4 142 460 472 241
4 142 339 144 472
4 451 429 270 234
4 22 610 605 263
4 258 229 363 409
4 622 234 270 189
4 578 617 521 528
4 277 192 248 191
4 577 383 188 452
4 137 411 138 283
4 600 540 570 536
4 87 366 566 576
4 222 183 213 516
4 563 577 188 452
4 152 411 347 138
4 196 213 503 402
4 291 292 254 219
4 275 451 259 223
4 249 209 189 270
4 542 526 630 36
4 125 304 305 303
4 205 572 294 295
4 244 205 294 292
4 288 287 289 146
4 341 350 366 562
4 633 585 55 231
4 110 121 296 297
4 130 497 483 206
4 592 267 607 25
4 306 304 305 125
4 576 91 559 558
4 277 248 267 210
4 571 395 566 396
4 328 323 314 184
4 558 5 265 432
4 369 467 177 327
4 314 185 274 419
4 412 93 562 367
4 63 21 583 551
4 346 238 454 345
4 247 129 443 263
4 187 323 186 188
4 358 228 359 221
4 35 599 546 34
4 95 567 79 566
4 346 178 518 430
4 490 455 406 559
4 600 578 521 43
4 214 449 351 355
4 539 623 585 633
4 238 214 345 336
4 214 238 187 336
4 585 539 54 555
4 350 368 562 367
4 137 280 156 128
4 574 236 355 565
4 576 542 582 523
4 338 467 175 360
4 600 67 97 0
4 467 389 175 360
4 467 176 175 389
4 358 359 338 221
4 108 103 573 102
4 467 513 369 177
4 147 143 219 290
4 352 574 355 356
4 513 467 176 177
4 180 282 369 327
4 398 560 468 571
4 171 508 439 391
4 93 99 453 474
4 94 365 364 342
4 400 571 393 468
4 330 151 437 349
4 159 561 572 81
4 173 389 362 360
4 196 222 391 171
4 570 354 404 114
4 196 390 391 222
4 161 572 205 163
4 222 183 516 494
4 347 152 408 410
4 22 610 263 23
4 282 326 327 180
4 402 213 503 454
4 471 117 376 413
4 136 504 410 411
4 258 216 394 239
4 182 73 230 243
4 231 603 56 633
4 207 251 248 273
4 323 187 186 184
4 137 136 411 512
4 19 596 1 601
4 572 561 315 457
4 379 574 568 580
4 357 214 345 213
4 625 563 538 30
4 206 225 415 157
4 178 513 430 494
4 603 231 623 633
4 269 616 135 416
4 24 632 443 267
4 424 128 261 512
4 625 30 538 31
4 603 623 231 243
4 239 394 463 144
4 178 346 494 430
4 279 381 250 278
4 109 565 450 197
4 218 71 162 164
4 326 181 464 337
4 203 464 409 500
4 247 181 464 407
4 233 195 373 153
4 195 382 252 375
4 561 438 388 446
4 578 68 107 70
4 530 50 614 529
4 348 372 378 155
4 402 196 476 503
4 273 251 274 259
4 502 477 575 435
4 576 542 523 550
4 248 277 267 276
4 273 248 267 276
4 273 242 276 274
4 21 583 20 269
4 387 401 386 111
4 401 117 101 496
4 422 370 472 241
4 170 236 112 197
4 324 456 566 341
4 302 304 125 303
4 618 260 594 33
4 586 426 485 217
4 108 306 487 309
4 306 304 109 475
4 13 553 615 14
4 573 574 565 85
4 275 451 223 234
4 228 370 472 463
4 472 339 144 498
4 484 104 365 399
4 394 144 498 463
4 566 341 377 366
4 71 218 69 164
4 550 4 5 598
4 392 580 393 380
4 335 324 119 566
4 571 395 396 397
4 346 183 184 178
4 192 282 277 276
4 576 268 406 510
4 269 128 136 135
4 241 142 144 472
4 228 239 463 144
4 472 228 463 144
4 258 363 408 409
4 152 136 410 411
4 55 231 56 633
4 104 495 325 501
4 99 93 96 474
4 19 557 18 601
4 174 359 360 361
4 156 280 279 261
4 128 280 156 261
4 156 226 237 278
4 213 402 516 454
4 571 87 566 576
4 567 95 569 566
4 324 335 341 566
4 561 317 438 332
4 572 205 294 244
4 563 209 188 199
4 622 234 189 131
4 457 100 388 300
4 395 566 396 377
4 445 187 352 198
4 19 1 596 549
4 93 92 562 87
4 346 328 518 184
4 269 504 136 411
4 557 612 18 601
4 191 443 210 277
4 310 108 312 311
4 129 61 210 590
4 513 178 430 369
4 136 269 411 424
4 616 22 605 416
4 185 227 242 419
4 123 82 353 114
4 282 227 369 419
4 545 609 11 49
4 227 282 276 419
4 108 482 376 413
4 121 125 111 384
4 572 315 294 457
4 457 561 388 100
4 191 443 247 210
4 265 455 559 432
4 449 313 428 565
4 134 224 595 47
4 303 125 470 344
4 117 376 413 108
4 147 148 146 289
4 592 531 25 60
4 580 567 571 564
4 565 311 108 313
4 606 308 302 462
4 460 291 143 288
4 108 313 311 309
4 630 86 576 78
4 461 568 573 569
4 37 524 36 602
4 563 126 74 66
4 461 568 569 567
4 379 392 568 573
4 339 460 472 142
4 121 110 301 297
4 196 515 308 462
4 172 174 173 361
4 503 197 476 450
4 390 222 213 516
4 125 303 305 344
4 172 361 439 371
4 108 117 312 103
4 569 312 320 118
4 395 576 366 406
4 170 106 98 200
4 420 594 560 514
4 576 550 523 558
4 561 90 94 89
4 558 552 5 527
4 533 52 611 51
4 50 530 588 51
4 392 379 568 580
4 633 585 539 55
4 314 275 223 186
4 59 591 626 26
4 622 270 451 28
4 576 621 3 481
4 520 578 521 528
4 43 600 0 521
4 576 268 432 406
4 550 558 5 527
4 46 589 16 45
4 19 601 261 424
4 269 616 416 21
4 554 593 28 57
4 554 593 57 58
4 563 525 587 613
4 26 27 591 259
4 563 537 525 30
4 580 567 564 568
4 71 82 70 578
4 273 192 276 242
4 627 617 528 9
4 580 567 568 392
4 440 82 353 123
4 508 171 439 168
4 123 343 353 333
4 251 192 248 273
4 515 196 476 402
4 571 87 576 86
4 247 129 210 443
4 571 87 86 79
4 618 33 526 2
4 613 37 525 38
4 26 591 27 534
4 631 56 603 535
4 77 165 164 182
4 242 185 274 223
4 531 59 60 592
4 169 508 168 171
4 563 209 199 230
4 187 445 323 188
4 537 535 603 519
4 626 59 251 131
4 614 627 586 272
4 240 578 378 155
4 251 192 273 242
4 123 90 343 333
4 405 434 570 507
4 319 569 461 318
4 567 393 492 392
4 488 573 505 318
4 104 484 495 399
4 378 614 240 426
4 381 226 278 483
4 613 37 538 525
4 584 13 12 547
4 205 204 166 579
4 170 106 112 98
4 30 563 538 525
4 403 104 495 469
4 73 72 230 243
4 604 278 17 581
4 94 561 89 100
4 447 484 387 101
4 623 69 243 72
4 209 489 270 29
4 196 390 213 402
4 403 104 469 101
4 469 403 101 496
4 209 249 29 270
4 537 249 29 209
4 626 251 259 131
4 214 357 351 449
4 537 563 209 29
4 209 489 29 563
4 293 253 147 442
4 286 141 287 288
4 68 70 211 193
4 486 279 250 281
4 626 251 273 259
4 589 45 604 16
4 372 240 378 155
4 578 348 378 155
4 473 264 441 224
4 453 99 364 474
4 434 502 570 433
4 176 183 222 494
4 227 282 369 180
4 539 623 633 532
4 222 176 389 173
4 328 187 323 184
4 97 578 107 70
4 614 620 588 530
4 578 97 107 43
4 321 319 320 569
4 117 458 320 334
4 574 84 98 85
4 28 29 593 270
4 569 319 320 312
4 117 334 320 118
4 269 596 135 583
4 214 238 345 213
4 238 328 184 187
4 264 225 473 497
4 182 243 201 69
4 229 258 256 409
4 152 258 408 409
4 269 416 135 504
4 258 152 256 409
4 22 610 23 62
4 218 71 193 162
4 137 280 128 512
4 63 22 62 605
4 555 41 585 539
4 126 563 74 72
4 181 180 179 327
4 72 563 74 230
4 83 106 105 579
4 148 442 289 147
4 572 293 316 244
4 558 265 559 432
4 288 143 147 290
4 210 277 443 267
4 295 110 296 297
4 161 572 244 205
4 161 71 163 162
4 372 240 444 426
4 151 154 153 349
4 588 620 614 578
4 148 253 151 442
4 418 194 486 206
4 240 372 195 155
4 405 404 507 570
4 273 592 25 267
4 73 72 74 230
4 602 594 560 597
4 558 576 432 559
4 383 445 198 188
4 592 248 267 273
4 306 108 109 125
4 151 150 417 437
4 150 414 417 374
4 572 159 244 316
4 154 159 330 151
4 561 315 457 438
4 269 616 21 583
4 304 302 125 109
4 346 238 328 184
4 346 183 238 184
4 513 467 389 176
4 131 451 234 223
4 588 620 608 530
4 21 20 583 551
4 613 563 525 538
4 317 561 331 332
4 374 349 437 153
4 71 348 154 331
4 348 154 330 349
4 335 341 566 562
4 352 214 336 351
4 214 345 336 351
4 381 418 486 206
4 226 156 250 278
4 486 381 206 250
4 370 361 208 371
4 442 148 289 417
4 486 194 250 206
4 442 253 151 316
4 629 546 599 34
4 14 615 595 47
4 576 630 618 560
4 630 86 78 122
4 215 628 588 245
4 121 296 300 100
4 293 253 244 147
4 156 279 250 278
4 570 540 617 8
4 582 630 576 78
4 99 104 364 94
4 580 356 499 380
4 395 566 377 366
4 295 431 292 254
4 140 339 144 142
4 204 422 208 371
4 361 172 208 371
4 229 363 464 190
4 203 181 229 464
4 422 370 208 371
4 194 220 149 466
4 194 418 486 466
4 77 163 164 165
4 576 558 523 582
4 577 563 188 199
4 221 338 190 179
4 115 558 575 91
4 338 337 190 179
4 356 580 499 577
4 445 187 198 188
4 363 337 190 358
4 271 436 563 506
4 75 79 76 564
4 626 591 59 131
4 381 226 206 250
4 156 279 278 261
4 261 237 18 278
4 169 167 168 579
4 382 195 373 375
4 418 381 497 206
4 306 475 109 487
4 264 130 497 483
4 484 403 387 101
4 589 264 16 483
4 88 569 118 103
4 104 469 325 495
4 28 593 29 543
4 503 196 476 197
4 608 620 588 578
4 558 35 523 582
4 560 580 571 564
4 109 197 450 476
4 104 365 364 94
4 438 561 388 457
4 63 64 551 583
4 428 573 505 488
4 114 425 353 404
4 86 576 571 560
4 403 401 101 496
4 334 118 322 320
4 440 71 578 82
4 440 71 82 123
4 139 138 285 283
4 627 528 10 9
4 561 572 100 457
4 44 226 581 237
4 394 216 408 465
4 493 125 111 413
4 280 128 512 261
4 627 614 578 479
4 101 401 387 111
4 53 628 555 533
4 251 259 223 274
4 587 603 623 519
4 233 374 373 375
4 541 524 602 36
4 602 625 597 560
4 613 122 66 563
4 616 22 416 21
4 475 109 450 476
4 416 480 232 504
4 521 600 0 536
4 108 306 307 125
4 578 617 528 627
4 151 330 437 316
4 330 159 316 151
4 159 253 316 151
4 624 266 217 584
4 178 227 369 177
4 522 546 552 575
4 258 363 190 239
4 308 475 476 109
4 55 633 56 532
4 628 68 41 608
4 569 88 80 85
4 578 211 155 245
4 71 348 331 440
4 440 123 353 333
4 71 163 77 81
4 75 563 560 564
4 196 109 476 197
4 555 628 53 585
4 349 151 437 153
4 565 574 98 85
4 302 304 308 109
4 236 170 98 246
4 299 125 470 303
4 484 447 94 101
4 617 8 540 9
4 117 401 111 413
4 565 108 573 102
4 435 433 265 575
4 574 84 577 246
4 570 354 114 92
4 90 99 364 94
4 502 434 570 405
4 600 540 536 521
4 79 95 566 87
4 172 204 371 448
4 240 578 155 245
4 365 94 446 342
4 204 172 168 448
4 511 431 204 448
4 553 13 615 48
4 180 369 177 327
4 359 370 228 463
4 460 422 472 241
4 374 349 153 373
4 628 588 245 608
4 15 46 47 619
4 15 619 47 595
4 584 13 48 624
4 205 295 292 254
4 608 628 68 245
4 291 431 254 292
4 504 416 135 232
4 361 173 362 360
4 431 145 204 422
4 565 236 112 98
4 396 398 421 571
4 580 563 577 564
4 165 167 200 579
4 240 372 378 426
4 249 537 29 543
4 622 270 28 593
4 314 323 186 184
4 163 572 579 83
4 27 622 591 451
4 332 561 331 333
4 275 429 186 323
4 614 426 479 272
4 418 497 415 206
4 205 163 579 166
4 338 175 179 221
4 148 150 417 151
4 150 414 233 157
4 225 233 415 157
4 110 106 169 579
4 274 242 276 419
4 173 439 362 171
4 180 327 177 179
4 218 127 69 201
4 343 90 342 333
4 141 220 287 146
4 202 416 232 135
4 382 473 252 375
4 121 384 300 298
4 130 225 497 206
4 533 52 628 611
4 442 151 437 316
4 147 442 289 290
4 293 244 294 292
4 159 572 244 161
4 159 317 330 316
4 269 596 583 20
4 134 224 252 441
4 44 17 581 45
4 233 414 415 157
4 68 218 193 255
4 280 137 156 235
4 565 311 313 505
4 445 429 188 452
4 68 211 257 193
4 196 308 476 109
4 166 204 168 579
4 11 10 586 545
4 109 475 450 487
4 25 544 607 60
4 326 181 180 191
4 74 563 577 199
4 47 615 48 553
4 563 74 230 199
4 196 170 112 197
4 204 431 371 448
4 210 632 607 267
4 134 48 624 217
4 458 117 376 471
4 469 104 118 101
4 384 493 111 386
4 125 493 111 384
4 407 247 443 263
4 567 393 392 580
4 545 50 529 586
4 576 423 397 560
4 576 423 481 397
4 217 266 426 485
4 510 576 481 397
4 268 576 481 510
4 590 632 210 443
4 565 313 428 505
4 584 48 13 547
4 517 478 566 329
4 447 484 94 365
4 508 301 168 448
4 61 23 590 610
4 561 438 446 332
4 484 104 94 365
4 108 117 376 310
4 112 565 98 102
4 482 125 307 305
4 318 573 505 311
4 569 319 312 318
4 413 401 111 386
4 385 384 111 386
4 436 400 514 560
4 580 400 393 380
4 560 398 468 509
4 567 393 580 571
4 277 191 248 210
4 183 346 516 494
4 610 23 443 263
4 338 359 360 221
4 306 108 307 309
4 359 174 221 228
4 110 169 168 579
4 449 357 450 197
4 145 291 422 431
4 431 422 204 371
4 293 253 316 244
4 513 176 389 494
4 365 104 364 399
4 513 176 494 178
4 176 183 494 178
4 363 229 464 409
4 203 409 464 229
4 213 390 516 402
4 573 103 85 102
4 196 515 391 402
4 360 174 175 221
4 359 174 360 221
4 533 52 53 628
4 480 202 232 256
4 442 151 417 437
4 457 296 100 300
4 381 226 250 278
4 497 225 415 206
4 203 409 480 500
4 555 628 41 533
4 71 182 73 77
4 71 182 77 164
4 79 86 571 564
4 75 86 79 564
4 236 565 112 197
4 106 170 112 169
4 170 196 112 169
4 71 182 164 69
4 573 574 85 568
4 6 522 575 7
4 522 6 575 552
4 576 542 3 621
4 60 607 632 544
4 576 91 558 78
4 395 566 366 576
4 87 366 576 559
4 117 401 101 111
4 493 413 111 386
4 428 573 488 379
4 117 108 312 310
4 392 379 580 380
4 383 356 499 577
4 618 260 33 509
4 529 10 586 627
4 627 528 529 10
4 10 545 529 586
4 586 614 217 50
4 6 433 575 265
4 87 366 559 562
4 497 381 483 206
4 17 45 604 581
4 45 17 604 16
4 34 536 0 629
4 623 603 72 243
4 41 628 555 585
4 603 633 623 532
4 578 617 627 491
4 18 237 612 581
4 135 596 128 64
4 145 431 204 254
4 339 140 144 498
4 342 561 332 333
4 434 433 570 7
4 617 600 113 578
4 633 603 56 532
4 633 55 539 532
4 603 535 56 532
4 423 398 560 509
4 91 576 87 86
4 570 262 491 507
4 532 39 40 623
4 632 210 443 267
4 33 594 526 541
4 574 198 246 577
4 125 493 344 413
4 571 398 421 468
4 519 587 525 38
4 537 587 525 519
4 61 632 210 590
4 550 576 598 558
4 558 552 575 5
4 4 576 432 598
4 227 192 276 282
4 482 125 344 413
4 75 563 74 66
4 563 603 132 72
4 539 623 532 40
4 185 242 274 419
4 77 165 200 579
4 161 71 81 163
4 572 161 81 163
4 572 159 81 161
4 350 335 562 341
4 108 310 307 309
4 321 319 569 329
4 117 458 310 312
4 458 117 471 334
4 571 468 421 393
4 114 354 404 353
4 385 387 386 111
4 632 61 60 548
4 108 117 111 413
4 125 493 384 470
4 48 584 49 547
4 117 401 413 471
4 203 500 480 263
4 269 128 135 596
4 120 67 113 570
4 596 1 601 128
4 143 291 219 290
4 205 244 219 292
4 284 220 466 287
4 68 231 69 127
4 72 73 69 243
4 479 491 627 427
4 578 154 155 211
4 632 544 548 60
4 378 614 426 479
4 141 284 286 287
4 110 106 112 169
4 511 110 297 301
4 284 141 220 287
4 145 291 254 219
4 433 502 570 575
4 282 192 277 191
4 385 384 300 111
4 522 7 570 575
4 513 176 178 177
4 79 567 80 564
4 71 163 162 164
4 478 396 566 377
4 185 314 186 184
4 407 326 277 191
4 191 443 407 247
4 326 181 191 407
4 181 247 191 407
4 85 84 80 568
4 41 628 608 533
4 562 341 566 366
4 565 449 450 197
4 119 335 566 562
4 313 449 450 565
4 357 213 503 197
4 213 196 503 197
4 154 348 155 349
4 130 46 589 224
4 225 264 473 224
4 225 130 264 224
4 246 577 199 124
4 557 44 612 1
4 381 486 279 250
4 543 57 593 631
4 246 200 98 124
4 594 618 33 526
4 246 84 577 124
4 77 163 83 81
4 606 302 301 462
4 255 68 257 193
4 550 558 527 523
4 606 308 462 196
4 606 121 109 112
4 575 115 120 67
4 128 156 237 261
4 280 137 411 512
4 97 578 70 113
4 291 143 288 290
4 295 205 204 254
4 578 82 70 113
4 292 205 254 219
4 384 121 300 111
4 291 145 254 431
4 606 308 196 109
4 357 214 213 197
4 121 100 300 111
4 108 306 109 487
4 574 236 565 98
4 7 522 570 540
4 328 238 345 336
4 379 574 355 565
4 313 108 487 309
4 478 456 377 566
4 238 328 187 336
4 310 108 311 309
4 630 594 541 526
4 471 117 496 334
4 200 106 98 124
4 312 117 320 118
4 458 117 320 312
4 187 445 336 323
4 339 460 142 286
4 560 400 514 468
4 357 214 351 345
4 580 574 577 356
4 571 517 492 421
4 335 119 325 501
4 119 104 325 501
4 440 348 378 578
4 425 440 378 578
4 342 561 333 90
4 378 614 479 578
4 174 361 360 173
4 173 174 175 360
4 258 229 190 363
4 580 379 356 380
4 420 436 514 560
4 400 580 393 571
4 632 24 544 607
4 423 2 618 621
4 24 25 544 607
4 559 477 368 435
4 92 354 474 412
4 93 92 474 412
4 93 474 92 96
4 77 579 163 165
4 163 579 77 83
4 114 425 82 353
4 425 82 440 578
4 425 440 82 353
4 580 436 577 563
4 580 577 436 499
4 577 436 506 563
4 104 364 453 99
4 453 364 104 399
4 219 290 293 147
4 219 293 290 292
4 244 219 293 147
4 244 293 219 292
4 383 436 577 499
4 383 577 436 506
4 542 2 618 526
4 618 576 621 542
4 15 619 589 46
4 264 619 15 441
4 89 83 572 81
4 89 572 83 105
4 91 92 575 120
4 91 575 92 559
4 410 232 480 504
4 410 480 232 256
4 37 602 538 524
4 602 563 122 613
4 295 431 204 511
4 204 431 295 254
4 203 409 229 256
4 203 409 256 480
4 106 579 124 200
4 124 579 106 83
4 579 77 124 200
4 124 77 579 83
4 211 68 578 70
4 211 578 68 245
4 240 252 444 134
4 444 252 240 195
4 95 119 562 93
4 562 119 95 566
4 95 562 87 93
4 87 562 95 566
4 100 89 572 561
4 100 572 89 105
4 461 573 318 569
4 461 568 567 392
4 461 573 392 488
4 461 573 488 318
4 358 228 221 239
4 358 228 239 463
4 135 504 136 269
4 135 136 504 232
4 417 149 414 150
4 149 414 150 157
4 149 418 466 340
4 149 414 157 418
4 149 418 157 194
4 149 418 194 466
4 440 71 123 331
4 123 331 71 81
4 530 614 520 529
4 417 149 150 148
4 417 149 148 289
4 105 100 296 110
4 559 368 490 455
4 559 490 368 562
4 560 564 86 75
4 86 564 560 571
4 596 1 128 64
4 601 596 128 424
4 606 302 109 121
4 627 520 614 529
4 110 606 169 112
4 169 606 196 112
4 171 606 462 196
4 108 487 565 313
4 565 487 108 109
4 487 450 565 313
4 565 450 487 109
4 563 230 132 209
4 132 230 563 72
4 563 132 537 209
4 563 603 72 587
4 517 478 571 566
4 517 571 478 421
4 571 478 396 566
4 571 396 478 421
4 565 214 355 449
4 565 214 449 197
4 565 214 197 236
4 565 214 236 355
4 71 182 69 73
4 69 182 164 201
4 31 538 597 556
4 625 420 31 597
4 211 133 68 257
4 68 133 211 245
4 90 99 343 364
4 90 343 99 96
4 343 99 474 364
4 343 474 99 96
4 109 565 112 102
4 109 112 565 197
4 552 558 546 527
4 552 546 558 575
4 51 611 588 215
4 631 56 535 57
4 602 594 597 541
4 630 594 526 618
4 280 235 283 137
4 283 235 280 281
4 235 139 283 137
4 123 561 90 333
4 123 561 333 331
4 123 561 331 81
4 123 561 81 90
4 600 629 0 536
4 600 570 67 629
4 600 570 629 536
4 600 540 521 617
4 150 437 153 374
4 153 437 150 151
4 452 577 506 563
4 452 506 577 383
4 324 104 325 119
4 87 559 92 562
4 92 559 87 91
4 95 569 119 88
4 119 569 95 566
4 119 324 569 566
4 196 606 109 112
4 331 71 159 154
4 627 520 529 528
4 627 520 528 578
4 627 520 578 614
4 110 606 168 169
4 453 501 93 367
4 173 439 171 172
4 173 439 172 361
4 537 631 132 603
4 631 132 57 249
4 537 631 543 249
4 631 535 603 537
4 249 543 593 631
4 631 535 537 543
4 412 453 93 367
4 412 93 453 474
4 105 296 295 110
4 105 295 296 572
4 576 91 78 86
4 168 606 110 301
4 225 195 375 233
4 375 195 225 252
4 572 293 244 294
4 572 293 294 315
4 85 568 569 573
4 569 568 85 80
4 111 387 447 385
4 111 447 387 101
4 100 447 111 101
4 125 121 302 299
4 125 302 121 109
4 302 121 301 299
4 606 302 121 301
4 403 104 101 484
4 403 104 484 495
4 560 397 571 398
4 560 571 397 576
4 571 397 396 398
4 571 395 397 576
4 571 517 567 492
4 571 567 517 566
4 559 406 432 455
4 559 432 406 576
4 331 154 159 330
4 159 331 317 561
4 317 331 159 330
4 562 119 501 93
4 562 501 119 335
4 367 562 501 93
4 367 501 562 335
4 469 117 496 101
4 469 117 101 118
4 469 117 118 334
4 469 117 334 496
4 35 558 546 599
4 546 558 35 527
4 537 132 631 249
4 601 1 19 557
4 601 1 557 612
4 601 1 237 128
4 389 516 222 390
4 222 516 389 494
4 542 618 630 526
4 582 576 630 542
4 630 594 618 560
4 576 560 618 423
4 352 574 577 198
4 352 577 574 356
4 383 352 577 198
4 383 577 352 356
4 545 609 49 50
4 586 426 217 614
4 545 609 50 586
4 609 49 50 217
4 99 93 501 119
4 99 501 93 453
4 104 99 501 119
4 104 501 99 453
4 579 204 295 205
4 105 295 579 110
4 125 299 298 121
4 125 298 299 470
4 384 125 298 121
4 384 298 125 470
4 569 85 103 88
4 103 85 569 573
4 563 29 30 489
4 30 29 563 537
4 41 533 608 42
4 628 588 608 533
4 171 606 196 169
4 171 606 169 508
4 171 462 391 196
4 171 391 462 508
4 118 312 103 569
4 118 103 312 117
4 606 308 109 302
4 193 69 218 68
4 193 69 68 70
4 516 213 238 183
4 516 238 213 454
4 346 516 238 183
4 346 238 516 454
4 429 209 452 270
4 429 209 270 234
4 429 209 234 188
4 429 209 188 452
4 511 168 579 110
4 579 168 511 204
4 511 579 295 110
4 295 579 511 204
4 158 426 444 240
4 444 426 158 217
4 158 444 134 240
4 134 444 158 217
4 281 250 194 235
4 281 194 250 486
4 466 281 194 235
4 466 194 281 486
4 281 250 156 279
4 281 156 250 235
4 280 281 156 279
4 280 156 281 235
4 159 317 572 561
4 572 317 159 316
4 317 315 572 561
4 572 315 317 316
4 569 95 80 88
4 569 80 95 567
4 26 25 592 531
4 592 25 26 273
4 464 247 500 203
4 464 500 247 407
4 500 247 263 203
4 500 263 247 407
4 570 92 114 120
4 570 354 92 405
4 570 114 404 113
4 570 114 113 120
4 447 100 446 94
4 446 100 447 388
4 100 561 446 94
4 446 561 100 388
4 140 498 216 144
4 216 498 140 465
4 498 394 216 144
4 216 394 498 465
4 572 100 296 105
4 296 100 572 457
4 216 347 140 138
4 140 347 216 465
4 347 285 140 138
4 140 285 347 465
4 602 597 538 524
4 602 563 613 538
4 597 524 541 556
4 195 349 372 373
4 195 349 373 153
4 195 349 153 155
4 195 349 155 372
4 47 14 615 553
4 595 615 14 459
4 68 608 578 107
4 595 615 134 47
4 134 441 382 459
4 382 441 134 252
4 134 382 444 459
4 444 382 134 252
4 579 169 170 106
4 579 170 169 167
4 200 579 170 106
4 200 170 579 167
4 123 343 114 353
4 123 114 343 96
4 114 343 354 353
4 342 561 94 446
4 342 94 561 90
4 168 606 508 169
4 342 561 446 332
4 235 466 284 220
4 284 466 235 281
4 235 284 139 220
4 74 230 116 73
4 116 230 74 199
4 624 444 266 459
4 624 444 459 134
4 108 482 413 125
4 108 482 125 307
4 312 311 573 318
4 573 312 569 103
4 569 312 573 318
4 80 564 84 76
4 80 84 564 568
4 530 608 588 533
4 549 64 596 20
4 508 606 168 301
4 628 588 533 611
4 260 468 560 514
4 260 560 468 509
4 7 8 570 434
4 624 13 459 266
4 621 423 481 576
4 7 8 540 570
4 578 211 71 154
4 71 211 578 70
4 159 81 331 561
4 331 159 71 81
4 159 71 160 154
4 171 606 508 462
4 159 71 81 161
4 159 71 161 160
4 185 430 518 178
4 185 430 178 227
4 185 430 227 419
4 185 430 419 518
4 276 227 242 192
4 276 242 227 419
4 385 100 300 388
4 385 100 388 447
4 385 100 447 111
4 385 100 111 300
4 587 65 126 39
4 623 587 39 65
4 519 623 39 532
4 623 603 532 519
4 466 149 287 220
4 287 149 466 340
4 149 146 287 220
4 118 325 469 322
4 118 325 322 324
4 118 325 324 104
4 118 325 104 469
4 286 142 143 460
4 286 143 142 141
4 288 286 143 460
4 288 143 286 141
4 574 352 236 198
4 236 352 574 355
4 352 214 236 198
4 236 214 352 355
4 286 142 140 141
4 286 140 142 339
4 285 286 140 141
4 285 140 286 339
4 27 28 622 451
4 27 622 28 554
4 74 564 116 577
4 74 116 564 76
4 116 564 84 577
4 116 84 564 76
4 580 574 564 577
4 580 564 574 568
4 564 574 84 577
4 564 84 574 568
4 573 108 312 103
4 573 312 108 311
4 570 477 575 502
4 570 477 502 405
4 570 92 120 575
4 570 477 405 92
4 570 477 92 575
4 245 608 588 578
4 462 606 508 301
4 92 368 559 477
4 92 368 477 412
4 92 368 412 562
4 92 368 562 559
4 96 354 474 92
4 96 354 92 114
4 96 354 114 343
4 96 354 343 474
4 420 594 514 32
4 324 569 322 118
4 324 322 569 321
4 322 569 320 118
4 322 320 569 321
4 569 324 456 566
4 456 324 569 321
4 569 456 329 566
4 329 456 569 321
4 283 235 284 139
4 284 235 283 281
4 366 576 559 406
4 87 366 562 566
4 366 559 490 406
4 490 559 366 562
4 572 579 295 205
4 572 295 579 105
4 116 230 77 73
4 68 608 245 578
4 608 533 530 42
4 620 43 520 578
4 520 43 620 42
4 620 530 520 42
4 620 530 42 608
4 597 524 556 538
4 329 567 569 566
4 329 567 566 517
4 329 567 517 461
4 230 124 199 116
4 230 124 116 77
4 230 124 77 200
4 230 124 200 199
4 597 594 420 32
4 597 541 32 556
4 597 594 32 541
4 602 597 524 541
4 287 149 289 146
4 289 149 287 340
4 149 148 289 146
4 417 149 289 340
4 625 436 560 563
4 625 436 563 271
4 602 625 560 563
4 625 420 597 560
4 461 568 392 573
4 329 567 461 569
4 461 567 517 492
4 461 567 492 392
4 113 617 491 570
4 114 113 425 404
4 425 491 113 578
4 425 113 491 404
4 425 82 113 114
4 425 113 82 578
4 570 262 507 8
4 491 570 507 404
4 617 600 578 521
4 113 570 491 404
4 629 522 570 575
4 629 522 575 546
4 629 522 546 536
4 629 546 34 536
4 569 88 324 119
4 324 88 569 118
4 88 104 324 119
4 324 104 88 118
4 17 581 278 18
4 602 630 36 122
4 581 226 278 237
4 581 237 278 18
4 602 630 122 560
4 70 71 211 193
4 122 78 630 36
4 193 69 70 71
4 193 69 71 218
4 542 36 630 582
4 35 36 582 78
4 622 593 28 554
4 576 558 582 78
4 558 35 582 78
4 127 585 255 68
4 63 135 583 616
4 269 616 583 135
4 63 64 583 135
4 269 596 20 424
4 49 217 609 584
4 217 266 485 584
4 48 217 49 584
4 48 624 217 584
4 630 86 122 560
4 5 6 575 265
4 12 609 485 584
4 558 5 575 265
4 54 585 53 212
4 54 585 212 127
4 585 133 53 212
4 255 585 127 212
4 255 585 257 68
4 586 11 485 272
4 11 10 272 586
4 586 614 50 529
4 614 586 627 529
4 586 217 485 609
4 126 39 38 587
4 563 603 587 537
4 587 613 525 38
4 563 587 525 537
4 623 587 65 72
4 587 65 72 126
4 578 240 588 245
4 266 12 485 584
4 51 588 533 530
4 588 240 215 245
4 15 589 264 16
4 67 629 575 599
4 130 589 264 224
4 15 619 264 589
4 590 24 443 23
4 590 24 632 443
4 129 590 210 443
4 590 23 443 610
4 599 34 67 629
4 626 591 259 26
4 59 58 131 591
4 600 67 570 113
4 26 592 626 59
4 67 575 629 570
4 592 59 60 207
4 257 585 255 212
4 600 67 0 629
4 6 7 575 433
4 34 629 0 67
4 7 433 570 575
4 593 249 58 189
4 628 52 53 133
4 628 52 215 611
4 593 249 57 58
4 628 68 245 133
4 108 482 307 376
4 215 628 245 133
4 125 108 111 413
4 618 260 509 560
4 260 33 32 594
4 594 260 560 514
4 618 260 560 594
4 32 594 514 260
4 14 15 595 441
4 134 224 441 595
4 15 619 595 441
4 595 459 14 441
4 134 459 595 441
4 424 19 596 20
4 601 19 596 424
4 257 585 133 68
4 20 64 596 583
4 420 32 31 597
4 602 625 563 538
4 597 625 538 31
4 602 594 541 630
4 597 594 560 420
4 558 598 5 432
4 598 4 5 432
4 4 432 576 268
4 598 576 432 558
4 133 585 257 212
4 599 115 558 575
4 35 115 599 34
4 115 599 67 575
4 599 115 67 34
4 35 558 599 115
4 97 578 600 43
4 43 97 0 600
4 600 540 617 570
4 97 578 113 600
4 600 67 113 97
4 19 601 18 261
4 601 237 18 261
4 585 628 133 68
4 261 128 601 237
4 37 602 36 122
4 541 630 526 36
4 541 630 36 602
4 37 122 613 602
4 602 625 538 597
4 617 8 9 262
4 617 570 8 262
4 617 540 521 528
4 617 540 528 9
4 2 621 481 3
4 585 628 53 133
4 631 56 57 132
4 587 603 519 537
4 623 39 40 65
4 631 535 543 57
4 631 56 132 603
4 604 130 483 226
4 589 604 483 16
4 604 278 581 226
4 604 17 483 16
4 605 416 263 202
4 202 605 129 263
4 616 22 21 63
4 202 605 62 129
4 63 605 62 202
4 616 22 63 605
4 121 110 606 301
4 110 121 606 112
4 622 234 131 451
4 623 69 72 65
4 632 24 607 267
4 427 627 10 9
4 24 25 607 267
4 41 608 107 42
4 41 107 608 68
4 269 128 596 424
4 576 598 4 550
4 576 4 268 3
4 427 617 627 9
4 617 491 427 627
4 268 576 3 481
4 207 592 210 60
4 592 248 273 207
4 592 248 207 210
4 626 592 26 273
4 614 240 158 588
4 588 50 158 614
4 57 249 593 631
4 593 29 249 270
4 593 249 29 543
4 249 593 270 189
4 158 588 215 51
4 50 588 158 51
4 207 592 626 273
4 609 586 11 485
4 623 69 65 231
4 11 12 609 485
4 586 217 609 50
4 623 585 231 65
4 609 217 485 584
4 622 131 58 591
4 259 451 591 131
4 259 591 626 131
4 622 131 591 451
4 626 592 207 59
4 59 626 251 207
4 585 68 65 40
4 585 41 68 40
4 231 585 127 68
4 231 585 68 65
4 207 626 251 273
4 563 603 537 132
4 625 436 271 420
4 610 61 62 129
4 605 610 62 129
4 605 610 129 263
4 61 610 590 129
4 129 610 443 263
4 590 610 443 129
4 625 420 271 31
4 611 52 215 51
4 623 587 519 39
4 628 215 52 133
4 592 267 210 607
4 44 18 612 581
4 612 237 18 601
4 612 44 237 1
4 601 1 612 237
4 625 436 420 560
4 46 130 589 45
4 130 45 604 589
4 130 264 589 483
4 271 30 625 31
4 130 604 483 589
4 126 563 613 66
4 126 66 613 38
4 66 37 613 38
4 538 37 613 602
4 613 122 37 66
4 614 217 50 158
4 530 50 588 614
4 614 240 588 578
4 614 217 158 426
4 592 607 210 60
4 13 615 459 14
4 615 13 624 48
4 134 615 595 459
4 134 615 48 47
4 271 563 625 30
4 604 278 226 483
4 44 581 226 45
4 581 45 604 226
4 623 585 65 40
4 604 278 483 17
4 596 1 64 549
4 628 41 68 585
4 601 128 261 424
4 587 126 613 38
4 622 593 554 58
4 587 563 613 126
4 616 416 202 135
4 63 616 202 135
4 416 605 616 202
4 605 63 616 202
4 617 570 262 491
4 262 491 427 617
4 427 262 617 9
4 602 563 560 122
4 617 600 570 113
4 423 33 618 2
4 423 33 509 618
4 423 618 509 560
4 2 542 618 621
4 576 630 542 618
4 622 270 593 189
4 629 522 536 570
4 231 55 127 585
4 55 585 54 127
4 629 546 575 599
4 619 46 47 224
4 619 224 47 595
4 619 224 589 46
4 264 224 619 441
4 619 224 264 589
4 619 224 595 441
4 622 131 189 58
4 132 603 243 72
4 132 231 243 603
4 231 132 56 603
4 624 615 134 459
4 615 13 459 624
4 624 444 134 217
4 621 423 2 481
4 624 444 217 266
4 507 8 434 570
4 237 44 612 581
4 107 43 620 578
4 620 43 107 42
4 608 620 578 107
4 608 620 107 42
4 48 615 134 624
4 21 63 583 616

CELL_TYPES 2018
10
10
10
10
10
10
10
10
10
10
10
10
10
10
10
10
10
10
10
10
10
10
10
10
10
10
10
10
10
10
10
10
10
10
10
10
10
10
10
10
10
10
10
10
10
10
10
10
10
10
10
10
10
10
10
10
10
10
10
10
10
10
10
10
10
10
10
10
10
10
10
10
10
10
10
10
10
10
10
10
10
10
10
10
10
10
10
10
10
10
10
10
10
10
10
10
10
10
10
10
10
10
10
10
10
10
10
10
10
10
10
10
10
10
10
10
10
10
10
10
10
10
10
10
10
10
10
10
10
10
10
10
10
10
10
10
10
10
10
10
10
10
10
10
10
10
10
10
10
10
10
10
10
10
10
10
10
10
10
10
10
10
10
10
10
10
10
10
10
10
10
10
10
10
10
10
10
10
10
10
10
10
10
10
10
10
10
10
10
10
10
10
10
10
10
10
10
10
10
10
10
10
10
10
10
10
10
10
10
10
10
10
10
10
10
10
10
10
10
10
10
10
10
10
10
10
10
10
10
10
10
10
10
10
10
10
10
10
10
10
10
10
10
10
10
10
10
10
10
10
10
10
10
10
10
10
10
10
10
10
10
10
10
10
10
10
10
10
10
10
10
10
10
10
10
10
10
10
10
10
10
10
10
10
10
10
10
10
10
10
10
10
10
10
10
10
10
10
10
10
10
10
10
10
10
10
10
10
10
10
10
10
10
10
10
10
10
10
10
10
10
10
10
10
10
10
10
10
10
10
10
10
10
10
10
10
10
10
10
10
10
10
10
10
10
10
10
10
10
10
10
10
10
10
10
10
10
10
10
10
10
10
10
10
10
10
10
10
10
10
10
10
10
10
10
10
10
10
10
10
10
10
10
10
10
10
10
10
10
10
10
10
10
10
10
10
10
10
10
10
10
10
10
10
10
10
10
10
10
10
10
10
10
10
10
10
10
10
10
10
10
10
10
10
10
10
10
10
10
10
10
10
10
10
10
10
10
10
10
10
10
10
10
10
10
10
10
10
10
10
10
10
10
10
10
10
10
10
10
10
10
10
10
10
10
10
10
10
10
10
10
10
10
10
10
10
10
10
10
10
10
10
10
10
10
10
10
10
10
10
10
10
10
10
10
10
10
10
10
10
10
10
10
10
10
10
10
10
10
10
10
10
10
10
10
10
10
10
10
10
10
10
10
10
10
10
10
10
10
10
10
10
10
10
10
10
10
10
10
10
10
10
10
10
10
10
10
10
10
10
10
10
10
10
10
10
10
10
10
10
10
10
10
10
10
10
10
10
10
10
10
10
10
10
10
10
10
10
10
10
10
10
10
10
10
10
10
10
10
10
10
10
10
10
10
10
10
10
10
10
10
10
10
10
10
10
10
10
10
10
10
10
10
10
10
10
10
10
10
10
10
10
10
10
10
10
10
10
10
10
10
10
10
10
10
10
10
10
10
10
10
10
10
10
10
10
10
10
10
10
10
10
10
10
10
10
10
10
10
10
10
10
10
10
10
10
10
10
10
10
10
10
10
10
10
10
10
10
10
10
10
10
10
10
10
10
10
10
10
10
10
10
10
10
10
10
10
10
10
10
10
10
10
10
10
10
10
10
10
10
10
10
10
10
10
10
10
10
10
10
10
10
10
10
10
10
10
10
10
10
10
10
10
10
10
10
10
10
10
10
10
10
10
10
10
10
10
10
10
10
10
10
10
10
10
10
10
10
10
10
10
10
10
10
10
10
10
10
10
10
10
10
10
10
10
10
10
10
10
10
10
10
10
10
10
10
10
10
10
10
10
10
10
10
10
10
10
10
10
10
10
10
10
10
10
10
10
10
10
10
10
10
10
10
10
10
10
10
10
10
10
10
10
10
10
10
10
10
10
10
10
10
10
10
10
10
10
10
10
10
10
10
10
10
10
10
10
10
10
10
10
10
10
10
10
10
10
10
10
10
10
10
10
10
10
10
10
10
10
10
10
10
10
10
10
10
10
10
10
10
10
10
10
10
10
10
10
10
10
10
10
10
10
10
10
10
10
10
10
10
10
10
10
10
10
10
10
10
10
10
10
10
10
10
10
10
10
10
10
10
10
10
10
10
10
10
10
10
10
10
10
10
10
10
10
10
10
10
10
10
10
10
10
10
10
10
10
10
10
10
10
10
10
10
10
10
10
10
10
10
10
10
10
10
10
10
10
10
10
10
10
10
10
10
10
10
10
10
10
10
10
10
10
10
10
10
10
10
10
10
10
10
10
10
10
10
10
10
10
10
10
10
10
10
10
10
10
10
10
10
10
10
10
10
10
10
10
10
10
10
10
10
10
10
10
10
10
10
10
10
10
10
10
10
10
10
10
10
10
10
10
10
10
10
10
10
10
10
10
10
10
10
10
10
10
10
10
10
10
10
10
10
10
10
10
10
10
10
10
10
10
10
10
10
10
10
10
10
10
10
10
10
10
10
10
10
10
10
10
10
10
10
10
10
10
10
10
10
10
10
10
10
10
10
10
10
10
10
10
10
10
10
10
10
10
10
10
10
10
10
10
10
10
10
10
10
10
10
10
10
10
10
10
10
10
10
10
10
10
10
10
10
10
10
10
10
10
10
10
10
10
10
10
10
10
10
10
10
10
10
10
10
10
10
10
10
10
10
10
10
10
10
10
10
10
10
10
10
10
10
10
10
10
10
10
10
10
10
10
10
10
10
10
10
10
10
10
10
10
10
10
10
10
10
10
10
10
10
10
10
10
10
10
10
10
10
10
10
10
10
10
10
10
10
10
10
10
10
10
10
10
10
10
10
10
10
10
10
10
10
10
10
10
10
10
10
10
10
10
10
10
10
10
10
10
10
10
10
10
10
10
10
10
10
10
10
10
10
10
10
10
10
10
10
10
10
10
10
10
10
10
10
10
10
10
10
10
10
10
10
10
10
10
10
10
10
10
10
10
10
10
10
10
10
10
10
10
10
10
10
10
10
10
10
10
10
10
10
10
10
10
10
10
10
10
10
10
10
10
10
10
10
10
10
10
10
10
10
10
10
10
10
10
10
10
10
10
10
10
10
10
10
10
10
10
10
10
10
10
10
10
10
10
10
10
10
10
10
10
10
10
10
10
10
10
10
10
10
10
10
10
10
10
10
10
10
10
10
10
10
10
10
10
10
10
10
10
10
10
10
10
10
10
10
10
10
10
10
10
10
10
10
10
10
10
10
10
10
10
10
10
10
10
10
10
10
10
10
10
10
10
10
10
10
10
10
10
10
10
10
10
10
10
10
10
10
10
10
10
10
10
10
10
10
10
10
10
10
10
10
10
10
10
10
10
10
10
10
10
10
10
10
10
10
10
10
10
10
10
10
10
10
10
10
10
10
10
10
10
10
10
10
10
10
10
10
10
10
10
10
10
10
10
10
10
10
10
10
10
10
10
10
10
10
10
10
10
10
10
10
10
10
10
10
10
10
10
10
10
10
10
10
10
10
10
10
10
10
10
10
10
10
10
10
10
10
10
10
10
10
10
10
10
10
10
10
10
10
10
10
10
10
10
10
10
10
10
10
10
10
10
10
10
10
10
10
10
10
10
10
10
10
10
10
10
10
10
10
10
10
10
10
10
10
10
10
10
10
10
10
10
10
10
10
10
10
10
10
10
10
10
10
10
10
10
10
10
10
10
10
10
10
10
10
10
10
10
10
10
10
10
10
10
10
10
10
10
10
10
10
10
10
10
10
10
10
10
10
10
10
10
10
10
10
10
10
10
10
10
10
10
10
10
10
10
10
10
10
10
10
10
10
10
10
10
10
10
10
10
10
10
10
10
10
10
10
10
10
10
10
10
10
10
10
10
10
10
10
10
10
10
10
10
10
10
10
10
10
10
10
10
10
10
10
10
10
10
10
10
10
10
10
10
10
10
10
10
10
10
10
10
10
10
10
10
10
10
10
10
10
10
10
10
10
10
10
10
10
10
10
10
10
10
10
10
10
10
10
10
10
10
10
10
10
10
10
10
10
10
10
10
10
10
10
10
10
10
10
10
10
10
10
10
10
10
10
10
10
10
10
10
10
10
10
10
10
10
10
10
10
10
10
10
10
10
10
10
10
10
10
10
10
10
10
10
10
10
10
10
10
10
10
10
10
10
10
10
10
10
10
10
10
10
10
10
10
10
10
10
10
10
10
10
10
10
10
10
10
10
10
10
10
10
10
10
10
10
10
10
10
10
10
10
10
10
10
10
10
10
10
10
10
10
10
10
10
10
10
10
10
10
10
10
10
10
10
10
10
10
10
10
10
10
10
10
10
10
10
10
10
10
10
10
10
10
10
10
10
10
10
10
10
10
10
10
10
10
10
10
10
10
10
10
10
10
10
10
10
10
10
10
10
10
10
10
10
10
10
10
10
10
10
10
10
10
10
10
10
10
10
10
10
10
10
10
10
10
10
10
10
10
10
10
10
10
10
10
10
10
10
10
10
10
10
10
10
10
10
10
10
10
10
10
10
10
10
10
10
10
10
10
10
10
10
10
10
10
10
10
10
10
10
10
10
10
10
10
10
10
10
10
10
10
10
10
10
10
10
